<svg xmlns="http://www.w3.org/2000/svg" width="75.098" height="94.4">
  <g opacity=".3">
    <path fill="#DFF7D8" d="M70.156 78.678c0 1.844-1.51 3.354-3.354 3.354h-53.27c-1.844 0-3.354-1.51-3.354-3.354v-65.15c0-1.844 1.51-3.354 3.354-3.354h53.27c1.844 0 3.354 1.51 3.354 3.354v65.15z"/>
    <path fill="none" stroke="#2ED03C" stroke-width="1.677" stroke-miterlimit="10" d="M70.156 78.678c0 1.844-1.51 3.354-3.354 3.354h-53.27c-1.844 0-3.354-1.51-3.354-3.354v-65.15c0-1.844 1.51-3.354 3.354-3.354h53.27c1.844 0 3.354 1.51 3.354 3.354v65.15z"/>
  </g>
  <path fill="#DFF7D8" d="M60.814 69.342c0 1.844-1.51 3.354-3.354 3.354H4.191c-1.844 0-3.354-1.51-3.354-3.354V4.191c0-1.844 1.51-3.354 3.354-3.354h53.27c1.844 0 3.354 1.51 3.354 3.354v65.151z"/>
  <path fill="none" stroke="#2ED03C" stroke-width="1.677" stroke-miterlimit="10" d="M60.814 69.342c0 1.844-1.51 3.354-3.354 3.354H4.191c-1.844 0-3.354-1.51-3.354-3.354V4.191c0-1.844 1.51-3.354 3.354-3.354h53.27c1.844 0 3.354 1.51 3.354 3.354v65.151z"/>
  <g fill="#2ED03C">
    <path d="M45.98 37.186H25.148c0-3.838 3.104-6.943 6.943-6.943h6.943c1.84 0 3.609.732 4.91 2.033 1.304 1.302 2.036 3.066 2.036 4.91z"/>
    <circle cx="35.564" cy="20.693" r="7.812"/>
  </g>
  <path fill="#2ED03C" d="M22.584 28.088h-4.838v4.837h-1.934v-4.837h-4.835v-1.934h4.835v-4.836h1.934v4.836h4.838z"/>
  <path fill="none" stroke="#2ED03C" stroke-width="2.5155" stroke-linecap="round" stroke-linejoin="round" stroke-miterlimit="10" d="M10.619 43.182h41.506M10.619 51.566h41.506M10.619 59.953h41.506"/>
  <g>
    <path fill="#FFF" d="M47.828 73.472c-2.062-.88-4.246-2.021-5.582.626-.953 1.893-1.127 3.543-1.127 5.662 0 1.044-.148 2.131.289 3.062.555 1.183 1.543 1.951 1.934 3.224.285.936.09 2.767.625 3.546.428.625 2.021.984 2.686 1.202 2.439.806 4.699 1.8 7.254 2.067 2.357.246 4.615.523 7.02.417 1.068-.048 2.219.151 3.246-.103.875-.217 1.602-.771 2.439-1.124 2.074-.872 4.164-1.716 5.244-3.884.861-1.73 1.875-3.49 2.07-5.368.254-2.429.598-4.963.629-7.435.025-2.074-.119-4.228-.211-6.297-.111-2.584-1.18-2.695-3.457-2.725-.744-.008-2.463-.002-3.031-.518-.584-.53-.512-1.711-1.471-2.107-.826-.34-2.682-.005-3.574.029-.902.033-1.557-.197-2.408-.441-1.789-.51-3.793-.452-5.42.441-1.709.938-4.822-.827-6.238.684-.963 1.028-.676 2.976-.818 4.3-.166 1.569-.309 3.116-.309 4.74"/>
    <path fill="#A7A9AC" d="M46.643 72.426v-3.445c0-1.291.006.293.018-1.118.014-1.411.018 1.569.018.134V67.711c0-1.063-.014 1.019-.035.372-.025-.766.041-1.482.197-2.152s.412-1.257.771-1.759c.359-.503.818-.897 1.381-1.185.561-.287 1.25-.43 2.064-.43.859 0 1.584.137 2.17.412s1.047.658 1.383 1.148c.334.49.572 1.07.717 1.74.143.67.215-1.549.215-.783v4.252c0 1.088-1.479-1.296-1.486-2.267-.031-4.408 1.895-5.097 1.414-4.825.812-.459 1.746-.682 2.801-.682.812 0 1.494.168 2.045.502.549.336.992.778 1.328 1.328.717-.621 1.77-.932 3.156-.932.693 0 1.273.089 1.74.268.467.18.857.426 1.168.736s.549.657.715 1.04c.17.383.289.778.361 1.185.598-.335 1.398-.503 2.404-.503.861 0 1.535.144 2.027.432.49.286.861.657 1.111 1.112.252.454.424.95.521 1.488.094.539.154 1.047.178 1.525.049.957.072 2.045.072 3.266 0 1.22-.004 2.41-.016 3.57-.014 1.161-.037 2.219-.072 3.176-.037.957-.078 1.664-.127 2.117-.168 1.172-.346 2.111-.539 2.816-.191.707-.395 1.299-.607 1.777-.217.479-.445.902-.684 1.273-.24.371-.484.795-.736 1.274-.25.479-3.438 1.075-3.689 1.794-.252.717 2.439-1.262 2.199-.065l-1.9-.287c.238-1.196.49.777.754.048s.52-1.34.771-1.831c.252-.49.502-.915.754-1.273.252-.359.49-.776.717-1.256.227-.478.436-1.064.629-1.759.191-.693.357-1.615.502-2.763.049-.431.09-1.106.125-2.027.037-.921.055-1.944.055-3.068s-.006-2.278-.018-3.464c-.014-1.184-.043-2.242-.09-3.175-.023-.287-.049-.586-.072-.897-.023-.311-.096-.604-.215-.879-.119-.273-.307-.502-.557-.682-.25-.178-.615-.27-1.094-.27-.742 0-1.25.156-1.525.467s-.473.838-.592 1.579c.021.526.029.993.018 1.399-.012.407-.023.795-.037 1.166-.01.371-.021.742-.035 1.113-.012.37-.018.783-.018 1.237h-1.902V67.22c-.023-.287-.066-.592-.125-.915s-.168-.622-.322-.897c-.156-.274-.385-.508-.682-.699-.301-.191-.688-.287-1.168-.287-.766 0-1.357.168-1.775.502-.42.335-.629 1.005-.629 2.01-.047.768-.072 1.514-.072 2.242 0 .73.012 1.371.037 1.92.023.646.035 1.27.035 1.866h-1.938v-4.701c0-.335-.012-.705-.033-1.112-.025-.406-.037-.873-.037-1.398-.049-.598-.238-1.113-.574-1.544-.336-.43-.85-.646-1.543-.646-.744 0-1.383.144-1.92.432-.541.286-.809.776-.809 1.471-.047 1.029-.076 1.943-.088 2.744-.014.803-.02 1.478-.02 2.028 0 .646.012 1.208.035 1.687h-1.9V68.01c0-.454-.029-.892-.092-1.31-.061-.419-.178-.783-.357-1.095s-.43-.562-.754-.753c-.322-.191-.76-.287-1.309-.287-.479 0-.875.096-1.186.287-.309.191-.562.447-.754.771-.191.322-.328.693-.412 1.111-.084.42-.125.868-.125 1.346v-.336 3.625c0 1.327.004-9.012.018-7.527.012 1.484.02 2.941.02 4.377.023 3.373.035 4.05.035 7.901l-1.938.431c-.914-1.708.564-3.641-3.16-5.149"/>
    <path fill="none" stroke="#A7A9AC" stroke-width="1.9084" stroke-miterlimit="10" d="M46.896 71.932s-6.637-.819-6.502 6.002c0 0-.135 13.822 12.459 15.278 0 0 12.232.864 13.916-.728 0 0 6.379-3.426 6.842-8.501"/>
  </g>
</svg>
