<svg xmlns="http://www.w3.org/2000/svg" width="27.911" height="25.584">
  <path fill="#000000" d="M13.955 2.744c6.155 0 11.164 4.01 11.164 8.939 0 5.49-5.743 8.889-11.064 8.889-2.162 0-3.776-.445-4.905-.721-1.116.686-1.78 1.158-4.769 2.033.597-1.533.807-3.068.671-4.762-.935-1.119-2.26-2.68-2.26-5.439-.002-4.929 5.007-8.939 11.163-8.939zm0-2.232C6.879.512.559 5.229.559 11.684c0 2.289.824 4.535 2.285 6.279.061 2.043-1.142 4.975-2.227 7.109 2.907-.527 7.036-1.684 8.909-2.832 1.583.385 3.096.562 4.529.562 7.909 0 13.297-5.398 13.297-11.121C27.35 5.195 20.985.512 13.955.512zm1.141 15.601c0 .633-.51 1.145-1.141 1.145-.63 0-1.143-.512-1.143-1.145 0-.631.513-1.143 1.143-1.143.631.001 1.141.512 1.141 1.143zm1.276-9.146c-.558-.564-1.385-.873-2.334-.873-1.992 0-3.282 1.42-3.282 3.611h1.838c0-1.357.76-1.84 1.406-1.84.581 0 1.195.387 1.249 1.121.057.777-.356 1.168-.88 1.668-1.292 1.227-1.315 1.824-1.31 3.174h1.835c-.013-.609.027-1.102.854-1.994.621-.668 1.39-1.5 1.406-2.768.008-.845-.259-1.57-.782-2.099z"/>
</svg>
