<svg xmlns="http://www.w3.org/2000/svg" width="25.417" height="24.667">
  <path fill="#000000" d="M12.709 8.999c-1.84 0-3.336 1.496-3.336 3.334s1.496 3.334 3.336 3.334c1.838 0 3.33-1.496 3.33-3.334s-1.492-3.334-3.33-3.334m0 7.668c-2.391 0-4.336-1.943-4.336-4.334s1.945-4.334 4.336-4.334 4.33 1.943 4.33 4.334-1.939 4.334-4.33 4.334m-1.193 6.666h2.387c.379-1.104.666-2.451 2.104-3.05 1.496-.616 2.666.196 3.639.673l1.686-1.689c-.51-1.047-1.266-2.199-.67-3.641.568-1.369 1.74-1.663 3.049-2.1V11.14c-1.236-.422-2.473-.709-3.047-2.099-.572-1.38.057-2.396.668-3.644l-1.686-1.686c-1.117.547-2.223 1.258-3.643.668-1.375-.57-1.656-1.734-2.1-3.047h-2.387c-.426 1.23-.705 2.469-2.1 3.046-.365.154-.717.226-1.078.226-.842 0-1.537-.392-2.566-.893L4.086 5.397c.574 1.176 1.252 2.239.668 3.644-.57 1.376-1.734 1.653-3.045 2.099v2.387c1.225.418 2.467.705 3.045 2.099.582 1.403-.074 2.433-.668 3.644l1.686 1.688c1.451-.727 2.357-1.205 3.645-.67 1.376.57 1.651 1.736 2.099 3.045m3.093 1h-3.803c-.684-1.918-.787-2.713-1.773-3.123-1.006-.419-1.73.132-3.467.952l-2.688-2.688c.873-1.838 1.367-2.466.953-3.466-.414-.991-1.193-1.087-3.123-1.772v-3.805c1.904-.678 2.709-.781 3.123-1.772.41-.991-.072-1.613-.953-3.466l2.688-2.688c1.74.829 2.467 1.365 3.467.954.99-.413 1.08-1.186 1.773-3.125h3.803c.68 1.918.789 2.714 1.773 3.123 1.002.416 1.707-.119 3.469-.952l2.686 2.688c-.877 1.848-1.361 2.477-.951 3.465.41.992 1.191 1.087 3.123 1.773v3.805c-1.906.678-2.713.783-3.125 1.773-.402.975.045 1.561.953 3.465l-2.686 2.688c-1.73-.82-2.469-1.37-3.457-.954-.99.409-1.08 1.145-1.785 3.125"/>
</svg>
