<svg xmlns="http://www.w3.org/2000/svg" width="33" height="33">
  <path fill="#ED1C24" d="M16.5 2.75c7.58 0 13.75 6.169 13.75 13.75S24.08 30.25 16.5 30.25c-7.584 0-13.75-6.169-13.75-13.75S8.916 2.75 16.5 2.75zm0-2.75C7.386 0 0 7.388 0 16.5S7.386 33 16.5 33C25.61 33 33 25.612 33 16.5S25.61 0 16.5 0zm1.718 23.375c0 .948-.769 1.719-1.718 1.719-.948 0-1.72-.771-1.72-1.719s.771-1.719 1.72-1.719 1.718.771 1.718 1.719zm1.913-13.747c-.834-.846-2.082-1.313-3.506-1.313-2.997 0-4.937 2.132-4.937 5.432h2.766c0-2.042 1.14-2.768 2.114-2.768.872 0 1.797.577 1.876 1.686.085 1.165-.536 1.755-1.322 2.504-1.942 1.847-1.979 2.739-1.971 4.769h2.757c-.016-.913.043-1.654 1.287-2.996.932-1.003 2.089-2.25 2.112-4.154.015-1.272-.391-2.365-1.176-3.16z"/>
</svg>
