<svg xmlns="http://www.w3.org/2000/svg" width="25.417" height="24.666">
  <path fill="#000000" d="M24.708 22.334h-24v-20h24v20zm-1-19h-22v18h22v-18zm-4 13v1h-4v-1h4zm-6.002 1H2.71l-.002-.915c-.004-1.05-.006-2.136 1.711-2.533.789-.182 1.752-.404 1.893-.709.047-.107-.041-.301-.098-.406-1.104-2.038-1.307-3.838-.568-5.079.516-.863 1.449-1.358 2.562-1.358 1.105 0 2.033.487 2.545 1.338.736 1.224.543 3.033-.547 5.095-.059.106-.145.301-.096.41.141.305 1.117.532 1.83.696 1.779.41 1.773 1.503 1.766 2.56v.901zm-9.998-1h8.998c.004-1.015-.055-1.271-.936-1.474-1.17-.271-2.225-.514-2.568-1.268-.176-.381-.135-.816.117-1.294.922-1.739 1.125-3.198.576-4.11-.332-.551-.93-.854-1.688-.854-.764 0-1.369.31-1.703.87-.541.91-.328 2.4.588 4.09.258.477.303.913.129 1.295-.342.758-1.387.997-2.492 1.252-.966.222-1.023.478-1.021 1.493zm18-3v1h-6v-1h6zm0-3v1h-6v-1h6zm0-3v1h-6v-1h6z"/>
</svg>
