<svg xmlns="http://www.w3.org/2000/svg" width="25.417" height="24.666">
  <path fill="#000000" d="M12.698 11.523c.119 0 .236.012.35.035v-1.09c0-.194-.158-.352-.35-.352-.195 0-.354.157-.354.352v1.09c.116-.023.233-.035.354-.035zm3.16 1.406c.123 0 .24.013.354.036v-2.496c0-.194-.156-.352-.354-.352-.191 0-.35.157-.35.352v2.496c.114-.024.231-.036.35-.036zm0 3.515c-.119 0-.236-.014-.35-.037v1.091c0 .194.158.352.35.352.197 0 .354-.157.354-.352v-1.091c-.113.024-.231.037-.354.037zm-6.324-3.515c.119 0 .236.013.352.036v-2.496c0-.194-.16-.352-.352-.352-.195 0-.352.157-.352.352v2.496c.112-.024.229-.036.352-.036zm3.164 2.108c-.121 0-.238-.012-.354-.035v2.496c0 .194.158.352.354.352.191 0 .35-.157.35-.352v-2.496c-.113.023-.231.035-.35.035zm-3.164 1.407c-.123 0-.24-.014-.352-.037v1.091c0 .194.156.352.352.352.191 0 .352-.157.352-.352v-1.091c-.115.024-.233.037-.352.037z"/>
  <circle fill="none" stroke="#000000" stroke-width=".4519" stroke-miterlimit="10" cx="9.534" cy="14.686" r="1.054"/>
  <path fill="none" stroke="#000000" stroke-width=".4519" stroke-miterlimit="10" d="M12.772 12.298c-.584 0-1.057.473-1.057 1.055 0 .583.473 1.055 1.057 1.055.58 0 1.053-.472 1.053-1.055 0-.582-.472-1.055-1.053-1.055z"/>
  <circle fill="none" stroke="#000000" stroke-width=".4519" stroke-miterlimit="10" cx="15.819" cy="14.686" r="1.054"/>
  <path fill="#000000" d="M7.431 20.824c1.529.955 3.342 1.508 5.277 1.508 1.934 0 3.744-.55 5.273-1.503l1.24 1.582c-1.877 1.215-4.111 1.921-6.514 1.921-2.4 0-4.641-.708-6.518-1.926l1.242-1.582zm17.277-1.492h-6c0-1.105.896-2 2-2h2c.531 0 1.041.211 1.416.586s.584.883.584 1.414zm-18 0h-6c0-1.105.896-2 2-2h2c.531 0 1.041.211 1.416.586s.584.883.584 1.414zm15-7c1.244 0 2.252 1.008 2.252 2.25s-1.008 2.25-2.252 2.25c-1.24 0-2.248-1.008-2.248-2.25s1.008-2.25 2.248-2.25zm-18 0c1.244 0 2.252 1.008 2.252 2.25s-1.008 2.25-2.252 2.25c-1.24 0-2.248-1.008-2.248-2.25s1.008-2.25 2.248-2.25zm5-11.316v2.15C5.772 4.45 3.569 7.107 2.911 10.323L.876 10.32c.734-4.328 3.785-7.872 7.832-9.304zm8 0c4.049 1.433 7.102 4.977 7.832 9.305l-2.031.003c-.658-3.216-2.861-5.873-5.801-7.157V1.016zm-1 6.316h-6c0-1.105.896-2 2-2h2c.531 0 1.041.211 1.416.586s.584.885.584 1.414zm-3-7c1.244 0 2.252 1.008 2.252 2.25s-1.008 2.25-2.252 2.25c-1.24 0-2.248-1.008-2.248-2.25s1.008-2.25 2.248-2.25z"/>
</svg>
