<svg xmlns="http://www.w3.org/2000/svg" width="13.581" height="16.296">
  <path fill="#DDD" d="M11.544 16.296H2.037c-.748 0-1.357-.609-1.357-1.358V4.074H12.9v10.863c0 .75-.608 1.359-1.356 1.359M5.433 6.79c0-.375-.305-.679-.679-.679-.376 0-.679.304-.679.679v6.112c0 .373.303.677.679.677.374 0 .679-.304.679-.677V6.79zm4.073 0c0-.375-.305-.679-.678-.679-.376 0-.682.304-.682.679v6.112c0 .373.306.677.682.677.373 0 .678-.304.678-.677V6.79zm4.075-3.394H0V2.037h4.075V1.019C4.075.457 4.531 0 5.093 0h3.395c.561 0 1.019.456 1.019 1.019v1.019h4.075v1.358zM5.433 2.037h2.714v-.679H5.433v.679z"/>
</svg>
