<svg xmlns="http://www.w3.org/2000/svg" width="44" height="44">
  <circle fill="none" stroke="#EC008C" stroke-width="1.92" stroke-miterlimit="10" cx="22" cy="22" r="20.16"/>
  <path fill="#EC008C" d="M22.133 10.328c2.647 0 4.799 2.152 4.799 4.8 0 2.646-2.151 4.8-4.799 4.8-2.646 0-4.801-2.154-4.801-4.8 0-2.648 2.155-4.8 4.801-4.8zm0-1.92c-3.71 0-6.72 3.008-6.72 6.72 0 3.711 3.01 6.72 6.72 6.72 3.713 0 6.72-3.009 6.72-6.72 0-3.712-3.007-6.72-6.72-6.72zm6.113 12.82c-.476.479-1.013.893-1.591 1.249 2.759 1.8 4.204 4.88 4.774 7.052H12.818c.549-2.197 1.974-5.282 4.773-7.063-.579-.358-1.116-.778-1.592-1.26-4.088 2.949-5.387 8.166-5.387 10.243h23.04c.001-2.057-1.381-7.256-5.406-10.221z"/>
</svg>
