<svg xmlns="http://www.w3.org/2000/svg" width="25.416" height="24.666">
  <path fill="#000000" d="M12.707 4.018c2.295 0 4.158 1.867 4.158 4.16 0 2.289-1.863 4.155-4.158 4.155-2.291 0-4.154-1.866-4.154-4.155 0-2.293 1.863-4.16 4.154-4.16zm0-1.663c-3.213 0-5.818 2.605-5.818 5.822 0 3.212 2.605 5.817 5.818 5.817 3.217 0 5.82-2.605 5.82-5.817 0-3.216-2.603-5.822-5.82-5.822zm5.297 11.103c-.412.413-.877.772-1.379 1.083 2.389 1.56 3.641 4.226 4.133 6.107H4.643c.473-1.905 1.709-4.576 4.133-6.119-.502-.31-.967-.674-1.379-1.091-3.541 2.556-4.666 7.072-4.666 8.872h19.955c0-1.781-1.198-6.283-4.682-8.852z"/>
</svg>
