G04 #@! TF.FileFunction,Paste,Top*
%FSLAX46Y46*%
G04 Gerber Fmt 4.6, Leading zero omitted, Abs format (unit mm)*
G04 Created by KiCad (PCBNEW 4.0.7-e2-6376~61~ubuntu18.04.1) date Fri Jul  6 14:55:34 2018*
%MOMM*%
%LPD*%
G01*
G04 APERTURE LIST*
%ADD10C,0.100000*%
%ADD11R,0.450000X1.450000*%
%ADD12R,0.800000X1.143000*%
%ADD13R,0.500000X0.375000*%
%ADD14R,0.650000X0.300000*%
%ADD15R,2.500000X1.250000*%
%ADD16R,0.900000X1.000000*%
%ADD17R,1.560000X0.650000*%
G04 APERTURE END LIST*
D10*
D11*
X154000000Y-77200000D03*
X154650000Y-77200000D03*
X155300000Y-77200000D03*
X155950000Y-77200000D03*
X155950000Y-72800000D03*
X155300000Y-72800000D03*
X154650000Y-72800000D03*
X154000000Y-72800000D03*
D12*
X143850000Y-87500000D03*
X142100000Y-87500000D03*
X137650000Y-81000000D03*
X139400000Y-81000000D03*
X142150000Y-72750000D03*
X143900000Y-72750000D03*
X137650000Y-72750000D03*
X139400000Y-72750000D03*
X159150000Y-72750000D03*
X160900000Y-72750000D03*
X154150000Y-81000000D03*
X155900000Y-81000000D03*
X132650000Y-82500000D03*
X134400000Y-82500000D03*
D13*
X159150000Y-80462500D03*
X159150000Y-81537500D03*
D14*
X160925000Y-81000000D03*
X159075000Y-81000000D03*
D13*
X160850000Y-81537500D03*
X160850000Y-80462500D03*
D15*
X166250000Y-83000000D03*
X166250000Y-79000000D03*
X166250000Y-77000000D03*
X166250000Y-81000000D03*
D12*
X159150000Y-77250000D03*
X160900000Y-77250000D03*
X159150000Y-84000000D03*
X160900000Y-84000000D03*
X159150000Y-87000000D03*
X160900000Y-87000000D03*
X142150000Y-79750000D03*
X143900000Y-79750000D03*
X132650000Y-85000000D03*
X134400000Y-85000000D03*
X137650000Y-78500000D03*
X139400000Y-78500000D03*
X155850000Y-84000000D03*
X154100000Y-84000000D03*
X155850000Y-87000000D03*
X154100000Y-87000000D03*
D16*
X144050000Y-83050000D03*
X141950000Y-83050000D03*
X141950000Y-84950000D03*
X144050000Y-84950000D03*
D17*
X141650000Y-74800000D03*
X141650000Y-75750000D03*
X141650000Y-76700000D03*
X144350000Y-76700000D03*
X144350000Y-74800000D03*
D11*
X132500000Y-77200000D03*
X133150000Y-77200000D03*
X133800000Y-77200000D03*
X134450000Y-77200000D03*
X134450000Y-72800000D03*
X133800000Y-72800000D03*
X133150000Y-72800000D03*
X132500000Y-72800000D03*
M02*
