G04 #@! TF.FileFunction,Drawing*
%FSLAX46Y46*%
G04 Gerber Fmt 4.6, Leading zero omitted, Abs format (unit mm)*
G04 Created by KiCad (PCBNEW 4.0.7-e2-6376~61~ubuntu18.04.1) date Fri Jul  6 14:55:34 2018*
%MOMM*%
%LPD*%
G01*
G04 APERTURE LIST*
%ADD10C,0.100000*%
%ADD11C,0.120000*%
%ADD12C,0.200000*%
G04 APERTURE END LIST*
D10*
D11*
X196733333Y-122773333D02*
X196759523Y-122740000D01*
X196811904Y-122706667D01*
X196942857Y-122706667D01*
X196995238Y-122740000D01*
X197021428Y-122773333D01*
X197047619Y-122840000D01*
X197047619Y-122906667D01*
X197021428Y-123006667D01*
X196707142Y-123406667D01*
X197047619Y-123406667D01*
X197283333Y-123340000D02*
X197309524Y-123373333D01*
X197283333Y-123406667D01*
X197257143Y-123373333D01*
X197283333Y-123340000D01*
X197283333Y-123406667D01*
X197807143Y-122706667D02*
X197545238Y-122706667D01*
X197519048Y-123040000D01*
X197545238Y-123006667D01*
X197597619Y-122973333D01*
X197728572Y-122973333D01*
X197780953Y-123006667D01*
X197807143Y-123040000D01*
X197833334Y-123106667D01*
X197833334Y-123273333D01*
X197807143Y-123340000D01*
X197780953Y-123373333D01*
X197728572Y-123406667D01*
X197597619Y-123406667D01*
X197545238Y-123373333D01*
X197519048Y-123340000D01*
X198173810Y-122706667D02*
X198226191Y-122706667D01*
X198278572Y-122740000D01*
X198304763Y-122773333D01*
X198330953Y-122840000D01*
X198357144Y-122973333D01*
X198357144Y-123140000D01*
X198330953Y-123273333D01*
X198304763Y-123340000D01*
X198278572Y-123373333D01*
X198226191Y-123406667D01*
X198173810Y-123406667D01*
X198121429Y-123373333D01*
X198095239Y-123340000D01*
X198069048Y-123273333D01*
X198042858Y-123140000D01*
X198042858Y-122973333D01*
X198069048Y-122840000D01*
X198095239Y-122773333D01*
X198121429Y-122740000D01*
X198173810Y-122706667D01*
X198697620Y-122706667D02*
X198750001Y-122706667D01*
X198802382Y-122740000D01*
X198828573Y-122773333D01*
X198854763Y-122840000D01*
X198880954Y-122973333D01*
X198880954Y-123140000D01*
X198854763Y-123273333D01*
X198828573Y-123340000D01*
X198802382Y-123373333D01*
X198750001Y-123406667D01*
X198697620Y-123406667D01*
X198645239Y-123373333D01*
X198619049Y-123340000D01*
X198592858Y-123273333D01*
X198566668Y-123140000D01*
X198566668Y-122973333D01*
X198592858Y-122840000D01*
X198619049Y-122773333D01*
X198645239Y-122740000D01*
X198697620Y-122706667D01*
X199535716Y-123406667D02*
X199535716Y-122940000D01*
X199535716Y-123006667D02*
X199561907Y-122973333D01*
X199614288Y-122940000D01*
X199692859Y-122940000D01*
X199745240Y-122973333D01*
X199771431Y-123040000D01*
X199771431Y-123406667D01*
X199771431Y-123040000D02*
X199797621Y-122973333D01*
X199850002Y-122940000D01*
X199928574Y-122940000D01*
X199980954Y-122973333D01*
X200007145Y-123040000D01*
X200007145Y-123406667D01*
X200269049Y-123406667D02*
X200269049Y-122940000D01*
X200269049Y-123006667D02*
X200295240Y-122973333D01*
X200347621Y-122940000D01*
X200426192Y-122940000D01*
X200478573Y-122973333D01*
X200504764Y-123040000D01*
X200504764Y-123406667D01*
X200504764Y-123040000D02*
X200530954Y-122973333D01*
X200583335Y-122940000D01*
X200661907Y-122940000D01*
X200714287Y-122973333D01*
X200740478Y-123040000D01*
X200740478Y-123406667D01*
X197500000Y-122500000D02*
X200000000Y-122500000D01*
X197500000Y-97500000D02*
X197500000Y-123680000D01*
X200000000Y-97500000D02*
X200000000Y-123680000D01*
X200000000Y-122500000D02*
X198873496Y-123086421D01*
X200000000Y-122500000D02*
X198873496Y-121913579D01*
X197500000Y-122500000D02*
X198626504Y-123086421D01*
X197500000Y-122500000D02*
X198626504Y-121913579D01*
X152459523Y-127773333D02*
X152485713Y-127740000D01*
X152538094Y-127706667D01*
X152669047Y-127706667D01*
X152721428Y-127740000D01*
X152747618Y-127773333D01*
X152773809Y-127840000D01*
X152773809Y-127906667D01*
X152747618Y-128006667D01*
X152433332Y-128406667D01*
X152773809Y-128406667D01*
X152957142Y-127706667D02*
X153297619Y-127706667D01*
X153114285Y-127973333D01*
X153192857Y-127973333D01*
X153245238Y-128006667D01*
X153271428Y-128040000D01*
X153297619Y-128106667D01*
X153297619Y-128273333D01*
X153271428Y-128340000D01*
X153245238Y-128373333D01*
X153192857Y-128406667D01*
X153035714Y-128406667D01*
X152983333Y-128373333D01*
X152957142Y-128340000D01*
X153638095Y-127706667D02*
X153690476Y-127706667D01*
X153742857Y-127740000D01*
X153769048Y-127773333D01*
X153795238Y-127840000D01*
X153821429Y-127973333D01*
X153821429Y-128140000D01*
X153795238Y-128273333D01*
X153769048Y-128340000D01*
X153742857Y-128373333D01*
X153690476Y-128406667D01*
X153638095Y-128406667D01*
X153585714Y-128373333D01*
X153559524Y-128340000D01*
X153533333Y-128273333D01*
X153507143Y-128140000D01*
X153507143Y-127973333D01*
X153533333Y-127840000D01*
X153559524Y-127773333D01*
X153585714Y-127740000D01*
X153638095Y-127706667D01*
X154057143Y-128340000D02*
X154083334Y-128373333D01*
X154057143Y-128406667D01*
X154030953Y-128373333D01*
X154057143Y-128340000D01*
X154057143Y-128406667D01*
X154423810Y-127706667D02*
X154476191Y-127706667D01*
X154528572Y-127740000D01*
X154554763Y-127773333D01*
X154580953Y-127840000D01*
X154607144Y-127973333D01*
X154607144Y-128140000D01*
X154580953Y-128273333D01*
X154554763Y-128340000D01*
X154528572Y-128373333D01*
X154476191Y-128406667D01*
X154423810Y-128406667D01*
X154371429Y-128373333D01*
X154345239Y-128340000D01*
X154319048Y-128273333D01*
X154292858Y-128140000D01*
X154292858Y-127973333D01*
X154319048Y-127840000D01*
X154345239Y-127773333D01*
X154371429Y-127740000D01*
X154423810Y-127706667D01*
X154947620Y-127706667D02*
X155000001Y-127706667D01*
X155052382Y-127740000D01*
X155078573Y-127773333D01*
X155104763Y-127840000D01*
X155130954Y-127973333D01*
X155130954Y-128140000D01*
X155104763Y-128273333D01*
X155078573Y-128340000D01*
X155052382Y-128373333D01*
X155000001Y-128406667D01*
X154947620Y-128406667D01*
X154895239Y-128373333D01*
X154869049Y-128340000D01*
X154842858Y-128273333D01*
X154816668Y-128140000D01*
X154816668Y-127973333D01*
X154842858Y-127840000D01*
X154869049Y-127773333D01*
X154895239Y-127740000D01*
X154947620Y-127706667D01*
X155471430Y-127706667D02*
X155523811Y-127706667D01*
X155576192Y-127740000D01*
X155602383Y-127773333D01*
X155628573Y-127840000D01*
X155654764Y-127973333D01*
X155654764Y-128140000D01*
X155628573Y-128273333D01*
X155602383Y-128340000D01*
X155576192Y-128373333D01*
X155523811Y-128406667D01*
X155471430Y-128406667D01*
X155419049Y-128373333D01*
X155392859Y-128340000D01*
X155366668Y-128273333D01*
X155340478Y-128140000D01*
X155340478Y-127973333D01*
X155366668Y-127840000D01*
X155392859Y-127773333D01*
X155419049Y-127740000D01*
X155471430Y-127706667D01*
X156309526Y-128406667D02*
X156309526Y-127940000D01*
X156309526Y-128006667D02*
X156335717Y-127973333D01*
X156388098Y-127940000D01*
X156466669Y-127940000D01*
X156519050Y-127973333D01*
X156545241Y-128040000D01*
X156545241Y-128406667D01*
X156545241Y-128040000D02*
X156571431Y-127973333D01*
X156623812Y-127940000D01*
X156702384Y-127940000D01*
X156754764Y-127973333D01*
X156780955Y-128040000D01*
X156780955Y-128406667D01*
X157042859Y-128406667D02*
X157042859Y-127940000D01*
X157042859Y-128006667D02*
X157069050Y-127973333D01*
X157121431Y-127940000D01*
X157200002Y-127940000D01*
X157252383Y-127973333D01*
X157278574Y-128040000D01*
X157278574Y-128406667D01*
X157278574Y-128040000D02*
X157304764Y-127973333D01*
X157357145Y-127940000D01*
X157435717Y-127940000D01*
X157488097Y-127973333D01*
X157514288Y-128040000D01*
X157514288Y-128406667D01*
X40000000Y-127500000D02*
X270000000Y-127500000D01*
X40000000Y-97500000D02*
X40000000Y-128680000D01*
X270000000Y-97500000D02*
X270000000Y-128680000D01*
X270000000Y-127500000D02*
X268873496Y-128086421D01*
X270000000Y-127500000D02*
X268873496Y-126913579D01*
X40000000Y-127500000D02*
X41126504Y-128086421D01*
X40000000Y-127500000D02*
X41126504Y-126913579D01*
X257721428Y-117773333D02*
X257747618Y-117740000D01*
X257799999Y-117706667D01*
X257930952Y-117706667D01*
X257983333Y-117740000D01*
X258009523Y-117773333D01*
X258035714Y-117840000D01*
X258035714Y-117906667D01*
X258009523Y-118006667D01*
X257695237Y-118406667D01*
X258035714Y-118406667D01*
X258376190Y-117706667D02*
X258428571Y-117706667D01*
X258480952Y-117740000D01*
X258507143Y-117773333D01*
X258533333Y-117840000D01*
X258559524Y-117973333D01*
X258559524Y-118140000D01*
X258533333Y-118273333D01*
X258507143Y-118340000D01*
X258480952Y-118373333D01*
X258428571Y-118406667D01*
X258376190Y-118406667D01*
X258323809Y-118373333D01*
X258297619Y-118340000D01*
X258271428Y-118273333D01*
X258245238Y-118140000D01*
X258245238Y-117973333D01*
X258271428Y-117840000D01*
X258297619Y-117773333D01*
X258323809Y-117740000D01*
X258376190Y-117706667D01*
X258795238Y-118340000D02*
X258821429Y-118373333D01*
X258795238Y-118406667D01*
X258769048Y-118373333D01*
X258795238Y-118340000D01*
X258795238Y-118406667D01*
X259161905Y-117706667D02*
X259214286Y-117706667D01*
X259266667Y-117740000D01*
X259292858Y-117773333D01*
X259319048Y-117840000D01*
X259345239Y-117973333D01*
X259345239Y-118140000D01*
X259319048Y-118273333D01*
X259292858Y-118340000D01*
X259266667Y-118373333D01*
X259214286Y-118406667D01*
X259161905Y-118406667D01*
X259109524Y-118373333D01*
X259083334Y-118340000D01*
X259057143Y-118273333D01*
X259030953Y-118140000D01*
X259030953Y-117973333D01*
X259057143Y-117840000D01*
X259083334Y-117773333D01*
X259109524Y-117740000D01*
X259161905Y-117706667D01*
X259685715Y-117706667D02*
X259738096Y-117706667D01*
X259790477Y-117740000D01*
X259816668Y-117773333D01*
X259842858Y-117840000D01*
X259869049Y-117973333D01*
X259869049Y-118140000D01*
X259842858Y-118273333D01*
X259816668Y-118340000D01*
X259790477Y-118373333D01*
X259738096Y-118406667D01*
X259685715Y-118406667D01*
X259633334Y-118373333D01*
X259607144Y-118340000D01*
X259580953Y-118273333D01*
X259554763Y-118140000D01*
X259554763Y-117973333D01*
X259580953Y-117840000D01*
X259607144Y-117773333D01*
X259633334Y-117740000D01*
X259685715Y-117706667D01*
X260209525Y-117706667D02*
X260261906Y-117706667D01*
X260314287Y-117740000D01*
X260340478Y-117773333D01*
X260366668Y-117840000D01*
X260392859Y-117973333D01*
X260392859Y-118140000D01*
X260366668Y-118273333D01*
X260340478Y-118340000D01*
X260314287Y-118373333D01*
X260261906Y-118406667D01*
X260209525Y-118406667D01*
X260157144Y-118373333D01*
X260130954Y-118340000D01*
X260104763Y-118273333D01*
X260078573Y-118140000D01*
X260078573Y-117973333D01*
X260104763Y-117840000D01*
X260130954Y-117773333D01*
X260157144Y-117740000D01*
X260209525Y-117706667D01*
X261047621Y-118406667D02*
X261047621Y-117940000D01*
X261047621Y-118006667D02*
X261073812Y-117973333D01*
X261126193Y-117940000D01*
X261204764Y-117940000D01*
X261257145Y-117973333D01*
X261283336Y-118040000D01*
X261283336Y-118406667D01*
X261283336Y-118040000D02*
X261309526Y-117973333D01*
X261361907Y-117940000D01*
X261440479Y-117940000D01*
X261492859Y-117973333D01*
X261519050Y-118040000D01*
X261519050Y-118406667D01*
X261780954Y-118406667D02*
X261780954Y-117940000D01*
X261780954Y-118006667D02*
X261807145Y-117973333D01*
X261859526Y-117940000D01*
X261938097Y-117940000D01*
X261990478Y-117973333D01*
X262016669Y-118040000D01*
X262016669Y-118406667D01*
X262016669Y-118040000D02*
X262042859Y-117973333D01*
X262095240Y-117940000D01*
X262173812Y-117940000D01*
X262226192Y-117973333D01*
X262252383Y-118040000D01*
X262252383Y-118406667D01*
X250000000Y-117500000D02*
X270000000Y-117500000D01*
X250000000Y-97500000D02*
X250000000Y-118680000D01*
X270000000Y-97500000D02*
X270000000Y-118680000D01*
X270000000Y-117500000D02*
X268873496Y-118086421D01*
X270000000Y-117500000D02*
X268873496Y-116913579D01*
X250000000Y-117500000D02*
X251126504Y-118086421D01*
X250000000Y-117500000D02*
X251126504Y-116913579D01*
X223009523Y-117706667D02*
X222747618Y-117706667D01*
X222721428Y-118040000D01*
X222747618Y-118006667D01*
X222799999Y-117973333D01*
X222930952Y-117973333D01*
X222983333Y-118006667D01*
X223009523Y-118040000D01*
X223035714Y-118106667D01*
X223035714Y-118273333D01*
X223009523Y-118340000D01*
X222983333Y-118373333D01*
X222930952Y-118406667D01*
X222799999Y-118406667D01*
X222747618Y-118373333D01*
X222721428Y-118340000D01*
X223376190Y-117706667D02*
X223428571Y-117706667D01*
X223480952Y-117740000D01*
X223507143Y-117773333D01*
X223533333Y-117840000D01*
X223559524Y-117973333D01*
X223559524Y-118140000D01*
X223533333Y-118273333D01*
X223507143Y-118340000D01*
X223480952Y-118373333D01*
X223428571Y-118406667D01*
X223376190Y-118406667D01*
X223323809Y-118373333D01*
X223297619Y-118340000D01*
X223271428Y-118273333D01*
X223245238Y-118140000D01*
X223245238Y-117973333D01*
X223271428Y-117840000D01*
X223297619Y-117773333D01*
X223323809Y-117740000D01*
X223376190Y-117706667D01*
X223795238Y-118340000D02*
X223821429Y-118373333D01*
X223795238Y-118406667D01*
X223769048Y-118373333D01*
X223795238Y-118340000D01*
X223795238Y-118406667D01*
X224161905Y-117706667D02*
X224214286Y-117706667D01*
X224266667Y-117740000D01*
X224292858Y-117773333D01*
X224319048Y-117840000D01*
X224345239Y-117973333D01*
X224345239Y-118140000D01*
X224319048Y-118273333D01*
X224292858Y-118340000D01*
X224266667Y-118373333D01*
X224214286Y-118406667D01*
X224161905Y-118406667D01*
X224109524Y-118373333D01*
X224083334Y-118340000D01*
X224057143Y-118273333D01*
X224030953Y-118140000D01*
X224030953Y-117973333D01*
X224057143Y-117840000D01*
X224083334Y-117773333D01*
X224109524Y-117740000D01*
X224161905Y-117706667D01*
X224685715Y-117706667D02*
X224738096Y-117706667D01*
X224790477Y-117740000D01*
X224816668Y-117773333D01*
X224842858Y-117840000D01*
X224869049Y-117973333D01*
X224869049Y-118140000D01*
X224842858Y-118273333D01*
X224816668Y-118340000D01*
X224790477Y-118373333D01*
X224738096Y-118406667D01*
X224685715Y-118406667D01*
X224633334Y-118373333D01*
X224607144Y-118340000D01*
X224580953Y-118273333D01*
X224554763Y-118140000D01*
X224554763Y-117973333D01*
X224580953Y-117840000D01*
X224607144Y-117773333D01*
X224633334Y-117740000D01*
X224685715Y-117706667D01*
X225209525Y-117706667D02*
X225261906Y-117706667D01*
X225314287Y-117740000D01*
X225340478Y-117773333D01*
X225366668Y-117840000D01*
X225392859Y-117973333D01*
X225392859Y-118140000D01*
X225366668Y-118273333D01*
X225340478Y-118340000D01*
X225314287Y-118373333D01*
X225261906Y-118406667D01*
X225209525Y-118406667D01*
X225157144Y-118373333D01*
X225130954Y-118340000D01*
X225104763Y-118273333D01*
X225078573Y-118140000D01*
X225078573Y-117973333D01*
X225104763Y-117840000D01*
X225130954Y-117773333D01*
X225157144Y-117740000D01*
X225209525Y-117706667D01*
X226047621Y-118406667D02*
X226047621Y-117940000D01*
X226047621Y-118006667D02*
X226073812Y-117973333D01*
X226126193Y-117940000D01*
X226204764Y-117940000D01*
X226257145Y-117973333D01*
X226283336Y-118040000D01*
X226283336Y-118406667D01*
X226283336Y-118040000D02*
X226309526Y-117973333D01*
X226361907Y-117940000D01*
X226440479Y-117940000D01*
X226492859Y-117973333D01*
X226519050Y-118040000D01*
X226519050Y-118406667D01*
X226780954Y-118406667D02*
X226780954Y-117940000D01*
X226780954Y-118006667D02*
X226807145Y-117973333D01*
X226859526Y-117940000D01*
X226938097Y-117940000D01*
X226990478Y-117973333D01*
X227016669Y-118040000D01*
X227016669Y-118406667D01*
X227016669Y-118040000D02*
X227042859Y-117973333D01*
X227095240Y-117940000D01*
X227173812Y-117940000D01*
X227226192Y-117973333D01*
X227252383Y-118040000D01*
X227252383Y-118406667D01*
X200000000Y-117500000D02*
X250000000Y-117500000D01*
X200000000Y-97500000D02*
X200000000Y-118680000D01*
X250000000Y-97500000D02*
X250000000Y-118680000D01*
X250000000Y-117500000D02*
X248873496Y-118086421D01*
X250000000Y-117500000D02*
X248873496Y-116913579D01*
X200000000Y-117500000D02*
X201126504Y-118086421D01*
X200000000Y-117500000D02*
X201126504Y-116913579D01*
X24025018Y-82304763D02*
X24025018Y-81964286D01*
X24291684Y-82147620D01*
X24291684Y-82069048D01*
X24325018Y-82016667D01*
X24358351Y-81990477D01*
X24425018Y-81964286D01*
X24591684Y-81964286D01*
X24658351Y-81990477D01*
X24691684Y-82016667D01*
X24725018Y-82069048D01*
X24725018Y-82226191D01*
X24691684Y-82278572D01*
X24658351Y-82304763D01*
X24025018Y-81623810D02*
X24025018Y-81571429D01*
X24058351Y-81519048D01*
X24091684Y-81492857D01*
X24158351Y-81466667D01*
X24291684Y-81440476D01*
X24458351Y-81440476D01*
X24591684Y-81466667D01*
X24658351Y-81492857D01*
X24691684Y-81519048D01*
X24725018Y-81571429D01*
X24725018Y-81623810D01*
X24691684Y-81676191D01*
X24658351Y-81702381D01*
X24591684Y-81728572D01*
X24458351Y-81754762D01*
X24291684Y-81754762D01*
X24158351Y-81728572D01*
X24091684Y-81702381D01*
X24058351Y-81676191D01*
X24025018Y-81623810D01*
X24658351Y-81204762D02*
X24691684Y-81178571D01*
X24725018Y-81204762D01*
X24691684Y-81230952D01*
X24658351Y-81204762D01*
X24725018Y-81204762D01*
X24025018Y-80838095D02*
X24025018Y-80785714D01*
X24058351Y-80733333D01*
X24091684Y-80707142D01*
X24158351Y-80680952D01*
X24291684Y-80654761D01*
X24458351Y-80654761D01*
X24591684Y-80680952D01*
X24658351Y-80707142D01*
X24691684Y-80733333D01*
X24725018Y-80785714D01*
X24725018Y-80838095D01*
X24691684Y-80890476D01*
X24658351Y-80916666D01*
X24591684Y-80942857D01*
X24458351Y-80969047D01*
X24291684Y-80969047D01*
X24158351Y-80942857D01*
X24091684Y-80916666D01*
X24058351Y-80890476D01*
X24025018Y-80838095D01*
X24025018Y-80314285D02*
X24025018Y-80261904D01*
X24058351Y-80209523D01*
X24091684Y-80183332D01*
X24158351Y-80157142D01*
X24291684Y-80130951D01*
X24458351Y-80130951D01*
X24591684Y-80157142D01*
X24658351Y-80183332D01*
X24691684Y-80209523D01*
X24725018Y-80261904D01*
X24725018Y-80314285D01*
X24691684Y-80366666D01*
X24658351Y-80392856D01*
X24591684Y-80419047D01*
X24458351Y-80445237D01*
X24291684Y-80445237D01*
X24158351Y-80419047D01*
X24091684Y-80392856D01*
X24058351Y-80366666D01*
X24025018Y-80314285D01*
X24025018Y-79790475D02*
X24025018Y-79738094D01*
X24058351Y-79685713D01*
X24091684Y-79659522D01*
X24158351Y-79633332D01*
X24291684Y-79607141D01*
X24458351Y-79607141D01*
X24591684Y-79633332D01*
X24658351Y-79659522D01*
X24691684Y-79685713D01*
X24725018Y-79738094D01*
X24725018Y-79790475D01*
X24691684Y-79842856D01*
X24658351Y-79869046D01*
X24591684Y-79895237D01*
X24458351Y-79921427D01*
X24291684Y-79921427D01*
X24158351Y-79895237D01*
X24091684Y-79869046D01*
X24058351Y-79842856D01*
X24025018Y-79790475D01*
X24725018Y-78952379D02*
X24258351Y-78952379D01*
X24325018Y-78952379D02*
X24291684Y-78926188D01*
X24258351Y-78873807D01*
X24258351Y-78795236D01*
X24291684Y-78742855D01*
X24358351Y-78716664D01*
X24725018Y-78716664D01*
X24358351Y-78716664D02*
X24291684Y-78690474D01*
X24258351Y-78638093D01*
X24258351Y-78559521D01*
X24291684Y-78507141D01*
X24358351Y-78480950D01*
X24725018Y-78480950D01*
X24725018Y-78219046D02*
X24258351Y-78219046D01*
X24325018Y-78219046D02*
X24291684Y-78192855D01*
X24258351Y-78140474D01*
X24258351Y-78061903D01*
X24291684Y-78009522D01*
X24358351Y-77983331D01*
X24725018Y-77983331D01*
X24358351Y-77983331D02*
X24291684Y-77957141D01*
X24258351Y-77904760D01*
X24258351Y-77826188D01*
X24291684Y-77773808D01*
X24358351Y-77747617D01*
X24725018Y-77747617D01*
X24998351Y-95000000D02*
X24998351Y-65000000D01*
X37500000Y-95000000D02*
X23818351Y-95000000D01*
X37500000Y-65000000D02*
X23818351Y-65000000D01*
X24998351Y-65000000D02*
X25584772Y-66126504D01*
X24998351Y-65000000D02*
X24411930Y-66126504D01*
X24998351Y-95000000D02*
X25584772Y-93873496D01*
X24998351Y-95000000D02*
X24411930Y-93873496D01*
X28093333Y-82278572D02*
X28060000Y-82252382D01*
X28026667Y-82200001D01*
X28026667Y-82069048D01*
X28060000Y-82016667D01*
X28093333Y-81990477D01*
X28160000Y-81964286D01*
X28226667Y-81964286D01*
X28326667Y-81990477D01*
X28726667Y-82304763D01*
X28726667Y-81964286D01*
X28026667Y-81466667D02*
X28026667Y-81728572D01*
X28360000Y-81754762D01*
X28326667Y-81728572D01*
X28293333Y-81676191D01*
X28293333Y-81545238D01*
X28326667Y-81492857D01*
X28360000Y-81466667D01*
X28426667Y-81440476D01*
X28593333Y-81440476D01*
X28660000Y-81466667D01*
X28693333Y-81492857D01*
X28726667Y-81545238D01*
X28726667Y-81676191D01*
X28693333Y-81728572D01*
X28660000Y-81754762D01*
X28660000Y-81204762D02*
X28693333Y-81178571D01*
X28726667Y-81204762D01*
X28693333Y-81230952D01*
X28660000Y-81204762D01*
X28726667Y-81204762D01*
X28026667Y-80838095D02*
X28026667Y-80785714D01*
X28060000Y-80733333D01*
X28093333Y-80707142D01*
X28160000Y-80680952D01*
X28293333Y-80654761D01*
X28460000Y-80654761D01*
X28593333Y-80680952D01*
X28660000Y-80707142D01*
X28693333Y-80733333D01*
X28726667Y-80785714D01*
X28726667Y-80838095D01*
X28693333Y-80890476D01*
X28660000Y-80916666D01*
X28593333Y-80942857D01*
X28460000Y-80969047D01*
X28293333Y-80969047D01*
X28160000Y-80942857D01*
X28093333Y-80916666D01*
X28060000Y-80890476D01*
X28026667Y-80838095D01*
X28026667Y-80314285D02*
X28026667Y-80261904D01*
X28060000Y-80209523D01*
X28093333Y-80183332D01*
X28160000Y-80157142D01*
X28293333Y-80130951D01*
X28460000Y-80130951D01*
X28593333Y-80157142D01*
X28660000Y-80183332D01*
X28693333Y-80209523D01*
X28726667Y-80261904D01*
X28726667Y-80314285D01*
X28693333Y-80366666D01*
X28660000Y-80392856D01*
X28593333Y-80419047D01*
X28460000Y-80445237D01*
X28293333Y-80445237D01*
X28160000Y-80419047D01*
X28093333Y-80392856D01*
X28060000Y-80366666D01*
X28026667Y-80314285D01*
X28026667Y-79790475D02*
X28026667Y-79738094D01*
X28060000Y-79685713D01*
X28093333Y-79659522D01*
X28160000Y-79633332D01*
X28293333Y-79607141D01*
X28460000Y-79607141D01*
X28593333Y-79633332D01*
X28660000Y-79659522D01*
X28693333Y-79685713D01*
X28726667Y-79738094D01*
X28726667Y-79790475D01*
X28693333Y-79842856D01*
X28660000Y-79869046D01*
X28593333Y-79895237D01*
X28460000Y-79921427D01*
X28293333Y-79921427D01*
X28160000Y-79895237D01*
X28093333Y-79869046D01*
X28060000Y-79842856D01*
X28026667Y-79790475D01*
X28726667Y-78952379D02*
X28260000Y-78952379D01*
X28326667Y-78952379D02*
X28293333Y-78926188D01*
X28260000Y-78873807D01*
X28260000Y-78795236D01*
X28293333Y-78742855D01*
X28360000Y-78716664D01*
X28726667Y-78716664D01*
X28360000Y-78716664D02*
X28293333Y-78690474D01*
X28260000Y-78638093D01*
X28260000Y-78559521D01*
X28293333Y-78507141D01*
X28360000Y-78480950D01*
X28726667Y-78480950D01*
X28726667Y-78219046D02*
X28260000Y-78219046D01*
X28326667Y-78219046D02*
X28293333Y-78192855D01*
X28260000Y-78140474D01*
X28260000Y-78061903D01*
X28293333Y-78009522D01*
X28360000Y-77983331D01*
X28726667Y-77983331D01*
X28360000Y-77983331D02*
X28293333Y-77957141D01*
X28260000Y-77904760D01*
X28260000Y-77826188D01*
X28293333Y-77773808D01*
X28360000Y-77747617D01*
X28726667Y-77747617D01*
X29000000Y-92500000D02*
X29000000Y-67500000D01*
X37500000Y-92500000D02*
X27820000Y-92500000D01*
X37500000Y-67500000D02*
X27820000Y-67500000D01*
X29000000Y-67500000D02*
X29586421Y-68626504D01*
X29000000Y-67500000D02*
X28413579Y-68626504D01*
X29000000Y-92500000D02*
X29586421Y-91373496D01*
X29000000Y-92500000D02*
X28413579Y-91373496D01*
X44285714Y-118406667D02*
X43971428Y-118406667D01*
X44128571Y-118406667D02*
X44128571Y-117706667D01*
X44076190Y-117806667D01*
X44023809Y-117873333D01*
X43971428Y-117906667D01*
X44495238Y-117773333D02*
X44521428Y-117740000D01*
X44573809Y-117706667D01*
X44704762Y-117706667D01*
X44757143Y-117740000D01*
X44783333Y-117773333D01*
X44809524Y-117840000D01*
X44809524Y-117906667D01*
X44783333Y-118006667D01*
X44469047Y-118406667D01*
X44809524Y-118406667D01*
X45045238Y-118340000D02*
X45071429Y-118373333D01*
X45045238Y-118406667D01*
X45019048Y-118373333D01*
X45045238Y-118340000D01*
X45045238Y-118406667D01*
X45569048Y-117706667D02*
X45307143Y-117706667D01*
X45280953Y-118040000D01*
X45307143Y-118006667D01*
X45359524Y-117973333D01*
X45490477Y-117973333D01*
X45542858Y-118006667D01*
X45569048Y-118040000D01*
X45595239Y-118106667D01*
X45595239Y-118273333D01*
X45569048Y-118340000D01*
X45542858Y-118373333D01*
X45490477Y-118406667D01*
X45359524Y-118406667D01*
X45307143Y-118373333D01*
X45280953Y-118340000D01*
X45935715Y-117706667D02*
X45988096Y-117706667D01*
X46040477Y-117740000D01*
X46066668Y-117773333D01*
X46092858Y-117840000D01*
X46119049Y-117973333D01*
X46119049Y-118140000D01*
X46092858Y-118273333D01*
X46066668Y-118340000D01*
X46040477Y-118373333D01*
X45988096Y-118406667D01*
X45935715Y-118406667D01*
X45883334Y-118373333D01*
X45857144Y-118340000D01*
X45830953Y-118273333D01*
X45804763Y-118140000D01*
X45804763Y-117973333D01*
X45830953Y-117840000D01*
X45857144Y-117773333D01*
X45883334Y-117740000D01*
X45935715Y-117706667D01*
X46459525Y-117706667D02*
X46511906Y-117706667D01*
X46564287Y-117740000D01*
X46590478Y-117773333D01*
X46616668Y-117840000D01*
X46642859Y-117973333D01*
X46642859Y-118140000D01*
X46616668Y-118273333D01*
X46590478Y-118340000D01*
X46564287Y-118373333D01*
X46511906Y-118406667D01*
X46459525Y-118406667D01*
X46407144Y-118373333D01*
X46380954Y-118340000D01*
X46354763Y-118273333D01*
X46328573Y-118140000D01*
X46328573Y-117973333D01*
X46354763Y-117840000D01*
X46380954Y-117773333D01*
X46407144Y-117740000D01*
X46459525Y-117706667D01*
X47297621Y-118406667D02*
X47297621Y-117940000D01*
X47297621Y-118006667D02*
X47323812Y-117973333D01*
X47376193Y-117940000D01*
X47454764Y-117940000D01*
X47507145Y-117973333D01*
X47533336Y-118040000D01*
X47533336Y-118406667D01*
X47533336Y-118040000D02*
X47559526Y-117973333D01*
X47611907Y-117940000D01*
X47690479Y-117940000D01*
X47742859Y-117973333D01*
X47769050Y-118040000D01*
X47769050Y-118406667D01*
X48030954Y-118406667D02*
X48030954Y-117940000D01*
X48030954Y-118006667D02*
X48057145Y-117973333D01*
X48109526Y-117940000D01*
X48188097Y-117940000D01*
X48240478Y-117973333D01*
X48266669Y-118040000D01*
X48266669Y-118406667D01*
X48266669Y-118040000D02*
X48292859Y-117973333D01*
X48345240Y-117940000D01*
X48423812Y-117940000D01*
X48476192Y-117973333D01*
X48502383Y-118040000D01*
X48502383Y-118406667D01*
X40000000Y-117500000D02*
X52500000Y-117500000D01*
X40000000Y-97500000D02*
X40000000Y-118680000D01*
X52500000Y-97500000D02*
X52500000Y-118680000D01*
X52500000Y-117500000D02*
X51373496Y-118086421D01*
X52500000Y-117500000D02*
X51373496Y-116913579D01*
X40000000Y-117500000D02*
X41126504Y-118086421D01*
X40000000Y-117500000D02*
X41126504Y-116913579D01*
X87695237Y-117706667D02*
X88061904Y-117706667D01*
X87826190Y-118406667D01*
X88533333Y-117706667D02*
X88271428Y-117706667D01*
X88245238Y-118040000D01*
X88271428Y-118006667D01*
X88323809Y-117973333D01*
X88454762Y-117973333D01*
X88507143Y-118006667D01*
X88533333Y-118040000D01*
X88559524Y-118106667D01*
X88559524Y-118273333D01*
X88533333Y-118340000D01*
X88507143Y-118373333D01*
X88454762Y-118406667D01*
X88323809Y-118406667D01*
X88271428Y-118373333D01*
X88245238Y-118340000D01*
X88795238Y-118340000D02*
X88821429Y-118373333D01*
X88795238Y-118406667D01*
X88769048Y-118373333D01*
X88795238Y-118340000D01*
X88795238Y-118406667D01*
X89161905Y-117706667D02*
X89214286Y-117706667D01*
X89266667Y-117740000D01*
X89292858Y-117773333D01*
X89319048Y-117840000D01*
X89345239Y-117973333D01*
X89345239Y-118140000D01*
X89319048Y-118273333D01*
X89292858Y-118340000D01*
X89266667Y-118373333D01*
X89214286Y-118406667D01*
X89161905Y-118406667D01*
X89109524Y-118373333D01*
X89083334Y-118340000D01*
X89057143Y-118273333D01*
X89030953Y-118140000D01*
X89030953Y-117973333D01*
X89057143Y-117840000D01*
X89083334Y-117773333D01*
X89109524Y-117740000D01*
X89161905Y-117706667D01*
X89685715Y-117706667D02*
X89738096Y-117706667D01*
X89790477Y-117740000D01*
X89816668Y-117773333D01*
X89842858Y-117840000D01*
X89869049Y-117973333D01*
X89869049Y-118140000D01*
X89842858Y-118273333D01*
X89816668Y-118340000D01*
X89790477Y-118373333D01*
X89738096Y-118406667D01*
X89685715Y-118406667D01*
X89633334Y-118373333D01*
X89607144Y-118340000D01*
X89580953Y-118273333D01*
X89554763Y-118140000D01*
X89554763Y-117973333D01*
X89580953Y-117840000D01*
X89607144Y-117773333D01*
X89633334Y-117740000D01*
X89685715Y-117706667D01*
X90209525Y-117706667D02*
X90261906Y-117706667D01*
X90314287Y-117740000D01*
X90340478Y-117773333D01*
X90366668Y-117840000D01*
X90392859Y-117973333D01*
X90392859Y-118140000D01*
X90366668Y-118273333D01*
X90340478Y-118340000D01*
X90314287Y-118373333D01*
X90261906Y-118406667D01*
X90209525Y-118406667D01*
X90157144Y-118373333D01*
X90130954Y-118340000D01*
X90104763Y-118273333D01*
X90078573Y-118140000D01*
X90078573Y-117973333D01*
X90104763Y-117840000D01*
X90130954Y-117773333D01*
X90157144Y-117740000D01*
X90209525Y-117706667D01*
X91047621Y-118406667D02*
X91047621Y-117940000D01*
X91047621Y-118006667D02*
X91073812Y-117973333D01*
X91126193Y-117940000D01*
X91204764Y-117940000D01*
X91257145Y-117973333D01*
X91283336Y-118040000D01*
X91283336Y-118406667D01*
X91283336Y-118040000D02*
X91309526Y-117973333D01*
X91361907Y-117940000D01*
X91440479Y-117940000D01*
X91492859Y-117973333D01*
X91519050Y-118040000D01*
X91519050Y-118406667D01*
X91780954Y-118406667D02*
X91780954Y-117940000D01*
X91780954Y-118006667D02*
X91807145Y-117973333D01*
X91859526Y-117940000D01*
X91938097Y-117940000D01*
X91990478Y-117973333D01*
X92016669Y-118040000D01*
X92016669Y-118406667D01*
X92016669Y-118040000D02*
X92042859Y-117973333D01*
X92095240Y-117940000D01*
X92173812Y-117940000D01*
X92226192Y-117973333D01*
X92252383Y-118040000D01*
X92252383Y-118406667D01*
X52500000Y-117500000D02*
X127500000Y-117500000D01*
X52500000Y-97500000D02*
X52500000Y-118680000D01*
X127500000Y-97500000D02*
X127500000Y-118680000D01*
X127500000Y-117500000D02*
X126373496Y-118086421D01*
X127500000Y-117500000D02*
X126373496Y-116913579D01*
X52500000Y-117500000D02*
X53626504Y-118086421D01*
X52500000Y-117500000D02*
X53626504Y-116913579D01*
X135221428Y-117773333D02*
X135247618Y-117740000D01*
X135299999Y-117706667D01*
X135430952Y-117706667D01*
X135483333Y-117740000D01*
X135509523Y-117773333D01*
X135535714Y-117840000D01*
X135535714Y-117906667D01*
X135509523Y-118006667D01*
X135195237Y-118406667D01*
X135535714Y-118406667D01*
X135876190Y-117706667D02*
X135928571Y-117706667D01*
X135980952Y-117740000D01*
X136007143Y-117773333D01*
X136033333Y-117840000D01*
X136059524Y-117973333D01*
X136059524Y-118140000D01*
X136033333Y-118273333D01*
X136007143Y-118340000D01*
X135980952Y-118373333D01*
X135928571Y-118406667D01*
X135876190Y-118406667D01*
X135823809Y-118373333D01*
X135797619Y-118340000D01*
X135771428Y-118273333D01*
X135745238Y-118140000D01*
X135745238Y-117973333D01*
X135771428Y-117840000D01*
X135797619Y-117773333D01*
X135823809Y-117740000D01*
X135876190Y-117706667D01*
X136295238Y-118340000D02*
X136321429Y-118373333D01*
X136295238Y-118406667D01*
X136269048Y-118373333D01*
X136295238Y-118340000D01*
X136295238Y-118406667D01*
X136661905Y-117706667D02*
X136714286Y-117706667D01*
X136766667Y-117740000D01*
X136792858Y-117773333D01*
X136819048Y-117840000D01*
X136845239Y-117973333D01*
X136845239Y-118140000D01*
X136819048Y-118273333D01*
X136792858Y-118340000D01*
X136766667Y-118373333D01*
X136714286Y-118406667D01*
X136661905Y-118406667D01*
X136609524Y-118373333D01*
X136583334Y-118340000D01*
X136557143Y-118273333D01*
X136530953Y-118140000D01*
X136530953Y-117973333D01*
X136557143Y-117840000D01*
X136583334Y-117773333D01*
X136609524Y-117740000D01*
X136661905Y-117706667D01*
X137185715Y-117706667D02*
X137238096Y-117706667D01*
X137290477Y-117740000D01*
X137316668Y-117773333D01*
X137342858Y-117840000D01*
X137369049Y-117973333D01*
X137369049Y-118140000D01*
X137342858Y-118273333D01*
X137316668Y-118340000D01*
X137290477Y-118373333D01*
X137238096Y-118406667D01*
X137185715Y-118406667D01*
X137133334Y-118373333D01*
X137107144Y-118340000D01*
X137080953Y-118273333D01*
X137054763Y-118140000D01*
X137054763Y-117973333D01*
X137080953Y-117840000D01*
X137107144Y-117773333D01*
X137133334Y-117740000D01*
X137185715Y-117706667D01*
X137709525Y-117706667D02*
X137761906Y-117706667D01*
X137814287Y-117740000D01*
X137840478Y-117773333D01*
X137866668Y-117840000D01*
X137892859Y-117973333D01*
X137892859Y-118140000D01*
X137866668Y-118273333D01*
X137840478Y-118340000D01*
X137814287Y-118373333D01*
X137761906Y-118406667D01*
X137709525Y-118406667D01*
X137657144Y-118373333D01*
X137630954Y-118340000D01*
X137604763Y-118273333D01*
X137578573Y-118140000D01*
X137578573Y-117973333D01*
X137604763Y-117840000D01*
X137630954Y-117773333D01*
X137657144Y-117740000D01*
X137709525Y-117706667D01*
X138547621Y-118406667D02*
X138547621Y-117940000D01*
X138547621Y-118006667D02*
X138573812Y-117973333D01*
X138626193Y-117940000D01*
X138704764Y-117940000D01*
X138757145Y-117973333D01*
X138783336Y-118040000D01*
X138783336Y-118406667D01*
X138783336Y-118040000D02*
X138809526Y-117973333D01*
X138861907Y-117940000D01*
X138940479Y-117940000D01*
X138992859Y-117973333D01*
X139019050Y-118040000D01*
X139019050Y-118406667D01*
X139280954Y-118406667D02*
X139280954Y-117940000D01*
X139280954Y-118006667D02*
X139307145Y-117973333D01*
X139359526Y-117940000D01*
X139438097Y-117940000D01*
X139490478Y-117973333D01*
X139516669Y-118040000D01*
X139516669Y-118406667D01*
X139516669Y-118040000D02*
X139542859Y-117973333D01*
X139595240Y-117940000D01*
X139673812Y-117940000D01*
X139726192Y-117973333D01*
X139752383Y-118040000D01*
X139752383Y-118406667D01*
X127500000Y-117500000D02*
X147500000Y-117500000D01*
X127500000Y-97500000D02*
X127500000Y-118680000D01*
X147500000Y-97500000D02*
X147500000Y-118680000D01*
X147500000Y-117500000D02*
X146373496Y-118086421D01*
X147500000Y-117500000D02*
X146373496Y-116913579D01*
X127500000Y-117500000D02*
X128626504Y-118086421D01*
X127500000Y-117500000D02*
X128626504Y-116913579D01*
X170509523Y-117706667D02*
X170247618Y-117706667D01*
X170221428Y-118040000D01*
X170247618Y-118006667D01*
X170299999Y-117973333D01*
X170430952Y-117973333D01*
X170483333Y-118006667D01*
X170509523Y-118040000D01*
X170535714Y-118106667D01*
X170535714Y-118273333D01*
X170509523Y-118340000D01*
X170483333Y-118373333D01*
X170430952Y-118406667D01*
X170299999Y-118406667D01*
X170247618Y-118373333D01*
X170221428Y-118340000D01*
X170876190Y-117706667D02*
X170928571Y-117706667D01*
X170980952Y-117740000D01*
X171007143Y-117773333D01*
X171033333Y-117840000D01*
X171059524Y-117973333D01*
X171059524Y-118140000D01*
X171033333Y-118273333D01*
X171007143Y-118340000D01*
X170980952Y-118373333D01*
X170928571Y-118406667D01*
X170876190Y-118406667D01*
X170823809Y-118373333D01*
X170797619Y-118340000D01*
X170771428Y-118273333D01*
X170745238Y-118140000D01*
X170745238Y-117973333D01*
X170771428Y-117840000D01*
X170797619Y-117773333D01*
X170823809Y-117740000D01*
X170876190Y-117706667D01*
X171295238Y-118340000D02*
X171321429Y-118373333D01*
X171295238Y-118406667D01*
X171269048Y-118373333D01*
X171295238Y-118340000D01*
X171295238Y-118406667D01*
X171661905Y-117706667D02*
X171714286Y-117706667D01*
X171766667Y-117740000D01*
X171792858Y-117773333D01*
X171819048Y-117840000D01*
X171845239Y-117973333D01*
X171845239Y-118140000D01*
X171819048Y-118273333D01*
X171792858Y-118340000D01*
X171766667Y-118373333D01*
X171714286Y-118406667D01*
X171661905Y-118406667D01*
X171609524Y-118373333D01*
X171583334Y-118340000D01*
X171557143Y-118273333D01*
X171530953Y-118140000D01*
X171530953Y-117973333D01*
X171557143Y-117840000D01*
X171583334Y-117773333D01*
X171609524Y-117740000D01*
X171661905Y-117706667D01*
X172185715Y-117706667D02*
X172238096Y-117706667D01*
X172290477Y-117740000D01*
X172316668Y-117773333D01*
X172342858Y-117840000D01*
X172369049Y-117973333D01*
X172369049Y-118140000D01*
X172342858Y-118273333D01*
X172316668Y-118340000D01*
X172290477Y-118373333D01*
X172238096Y-118406667D01*
X172185715Y-118406667D01*
X172133334Y-118373333D01*
X172107144Y-118340000D01*
X172080953Y-118273333D01*
X172054763Y-118140000D01*
X172054763Y-117973333D01*
X172080953Y-117840000D01*
X172107144Y-117773333D01*
X172133334Y-117740000D01*
X172185715Y-117706667D01*
X172709525Y-117706667D02*
X172761906Y-117706667D01*
X172814287Y-117740000D01*
X172840478Y-117773333D01*
X172866668Y-117840000D01*
X172892859Y-117973333D01*
X172892859Y-118140000D01*
X172866668Y-118273333D01*
X172840478Y-118340000D01*
X172814287Y-118373333D01*
X172761906Y-118406667D01*
X172709525Y-118406667D01*
X172657144Y-118373333D01*
X172630954Y-118340000D01*
X172604763Y-118273333D01*
X172578573Y-118140000D01*
X172578573Y-117973333D01*
X172604763Y-117840000D01*
X172630954Y-117773333D01*
X172657144Y-117740000D01*
X172709525Y-117706667D01*
X173547621Y-118406667D02*
X173547621Y-117940000D01*
X173547621Y-118006667D02*
X173573812Y-117973333D01*
X173626193Y-117940000D01*
X173704764Y-117940000D01*
X173757145Y-117973333D01*
X173783336Y-118040000D01*
X173783336Y-118406667D01*
X173783336Y-118040000D02*
X173809526Y-117973333D01*
X173861907Y-117940000D01*
X173940479Y-117940000D01*
X173992859Y-117973333D01*
X174019050Y-118040000D01*
X174019050Y-118406667D01*
X174280954Y-118406667D02*
X174280954Y-117940000D01*
X174280954Y-118006667D02*
X174307145Y-117973333D01*
X174359526Y-117940000D01*
X174438097Y-117940000D01*
X174490478Y-117973333D01*
X174516669Y-118040000D01*
X174516669Y-118406667D01*
X174516669Y-118040000D02*
X174542859Y-117973333D01*
X174595240Y-117940000D01*
X174673812Y-117940000D01*
X174726192Y-117973333D01*
X174752383Y-118040000D01*
X174752383Y-118406667D01*
X147500000Y-117500000D02*
X197500000Y-117500000D01*
X147500000Y-97500000D02*
X147500000Y-118680000D01*
X197500000Y-97500000D02*
X197500000Y-118680000D01*
X197500000Y-117500000D02*
X196373496Y-118086421D01*
X197500000Y-117500000D02*
X196373496Y-116913579D01*
X147500000Y-117500000D02*
X148626504Y-118086421D01*
X147500000Y-117500000D02*
X148626504Y-116913579D01*
X116523809Y-123406667D02*
X116209523Y-123406667D01*
X116366666Y-123406667D02*
X116366666Y-122706667D01*
X116314285Y-122806667D01*
X116261904Y-122873333D01*
X116209523Y-122906667D01*
X117021428Y-122706667D02*
X116759523Y-122706667D01*
X116733333Y-123040000D01*
X116759523Y-123006667D01*
X116811904Y-122973333D01*
X116942857Y-122973333D01*
X116995238Y-123006667D01*
X117021428Y-123040000D01*
X117047619Y-123106667D01*
X117047619Y-123273333D01*
X117021428Y-123340000D01*
X116995238Y-123373333D01*
X116942857Y-123406667D01*
X116811904Y-123406667D01*
X116759523Y-123373333D01*
X116733333Y-123340000D01*
X117230952Y-122706667D02*
X117597619Y-122706667D01*
X117361905Y-123406667D01*
X117807143Y-123340000D02*
X117833334Y-123373333D01*
X117807143Y-123406667D01*
X117780953Y-123373333D01*
X117807143Y-123340000D01*
X117807143Y-123406667D01*
X118330953Y-122706667D02*
X118069048Y-122706667D01*
X118042858Y-123040000D01*
X118069048Y-123006667D01*
X118121429Y-122973333D01*
X118252382Y-122973333D01*
X118304763Y-123006667D01*
X118330953Y-123040000D01*
X118357144Y-123106667D01*
X118357144Y-123273333D01*
X118330953Y-123340000D01*
X118304763Y-123373333D01*
X118252382Y-123406667D01*
X118121429Y-123406667D01*
X118069048Y-123373333D01*
X118042858Y-123340000D01*
X118697620Y-122706667D02*
X118750001Y-122706667D01*
X118802382Y-122740000D01*
X118828573Y-122773333D01*
X118854763Y-122840000D01*
X118880954Y-122973333D01*
X118880954Y-123140000D01*
X118854763Y-123273333D01*
X118828573Y-123340000D01*
X118802382Y-123373333D01*
X118750001Y-123406667D01*
X118697620Y-123406667D01*
X118645239Y-123373333D01*
X118619049Y-123340000D01*
X118592858Y-123273333D01*
X118566668Y-123140000D01*
X118566668Y-122973333D01*
X118592858Y-122840000D01*
X118619049Y-122773333D01*
X118645239Y-122740000D01*
X118697620Y-122706667D01*
X119221430Y-122706667D02*
X119273811Y-122706667D01*
X119326192Y-122740000D01*
X119352383Y-122773333D01*
X119378573Y-122840000D01*
X119404764Y-122973333D01*
X119404764Y-123140000D01*
X119378573Y-123273333D01*
X119352383Y-123340000D01*
X119326192Y-123373333D01*
X119273811Y-123406667D01*
X119221430Y-123406667D01*
X119169049Y-123373333D01*
X119142859Y-123340000D01*
X119116668Y-123273333D01*
X119090478Y-123140000D01*
X119090478Y-122973333D01*
X119116668Y-122840000D01*
X119142859Y-122773333D01*
X119169049Y-122740000D01*
X119221430Y-122706667D01*
X120059526Y-123406667D02*
X120059526Y-122940000D01*
X120059526Y-123006667D02*
X120085717Y-122973333D01*
X120138098Y-122940000D01*
X120216669Y-122940000D01*
X120269050Y-122973333D01*
X120295241Y-123040000D01*
X120295241Y-123406667D01*
X120295241Y-123040000D02*
X120321431Y-122973333D01*
X120373812Y-122940000D01*
X120452384Y-122940000D01*
X120504764Y-122973333D01*
X120530955Y-123040000D01*
X120530955Y-123406667D01*
X120792859Y-123406667D02*
X120792859Y-122940000D01*
X120792859Y-123006667D02*
X120819050Y-122973333D01*
X120871431Y-122940000D01*
X120950002Y-122940000D01*
X121002383Y-122973333D01*
X121028574Y-123040000D01*
X121028574Y-123406667D01*
X121028574Y-123040000D02*
X121054764Y-122973333D01*
X121107145Y-122940000D01*
X121185717Y-122940000D01*
X121238097Y-122973333D01*
X121264288Y-123040000D01*
X121264288Y-123406667D01*
X40000000Y-122500000D02*
X197500000Y-122500000D01*
X40000000Y-97500000D02*
X40000000Y-123680000D01*
X197500000Y-97500000D02*
X197500000Y-123680000D01*
X197500000Y-122500000D02*
X196373496Y-123086421D01*
X197500000Y-122500000D02*
X196373496Y-121913579D01*
X40000000Y-122500000D02*
X41126504Y-123086421D01*
X40000000Y-122500000D02*
X41126504Y-121913579D01*
D12*
X127500000Y-67500000D02*
X127500000Y-92500000D01*
X177500000Y-70000000D02*
X132500000Y-70000000D01*
X180000000Y-87500000D02*
X180000000Y-72500000D01*
X132500000Y-90000000D02*
X177500000Y-90000000D01*
X130000000Y-72500000D02*
X130000000Y-87500000D01*
X177500000Y-90000000D02*
G75*
G03X180000000Y-87500000I0J2500000D01*
G01*
X180000000Y-72500000D02*
G75*
G03X177500000Y-70000000I-2500000J0D01*
G01*
X132500000Y-70000000D02*
G75*
G03X130000000Y-72500000I0J-2500000D01*
G01*
X130000000Y-87500000D02*
G75*
G03X132500000Y-90000000I2500000J0D01*
G01*
M02*
