%FSLAX45Y45*%
G04 Gerber Fmt 4.5, Leading zero omitted, Abs format (unit mm)*
G04 Created by KiCad (PCBNEW 4.0.7-e2-6376~61~ubuntu18.04.1) date Fri Jul  6 14:55:38 2018*
%MOMM*%
%LPD*%
G01*
G04 APERTURE LIST*
%ADD10C,0.127000*%
%ADD11C,0.150000*%
%ADD12C,0.200000*%
%ADD13C,0.300000*%
G04 APERTURE END LIST*
D10*
D11*
X19750000Y-6500000D02*
G75*
G03X20000000Y-6500000I125000J0D01*
G01*
X20000000Y-9500000D02*
G75*
G03X19750000Y-9500000I-125000J0D01*
G01*
X19750000Y-7750000D02*
X19750000Y-7000000D01*
X20000000Y-7000000D02*
X20000000Y-7750000D01*
X19750000Y-7750000D02*
G75*
G03X20000000Y-7750000I125000J0D01*
G01*
X20000000Y-8250000D02*
G75*
G03X19750000Y-8250000I-125000J0D01*
G01*
X19750000Y-9000000D02*
G75*
G03X20000000Y-9000000I125000J0D01*
G01*
X20000000Y-7000000D02*
G75*
G03X19750000Y-7000000I-125000J0D01*
G01*
X19750000Y-8250000D02*
X19750000Y-9000000D01*
X14625000Y-6750000D02*
G75*
G03X14750000Y-6625000I0J125000D01*
G01*
X14875000Y-6500000D02*
G75*
G03X14750000Y-6625000I0J-125000D01*
G01*
X25000000Y-6625000D02*
G75*
G03X25125000Y-6750000I125000J0D01*
G01*
X25000000Y-6625000D02*
G75*
G03X24875000Y-6500000I-125000J0D01*
G01*
X24875000Y-9500000D02*
G75*
G03X25000000Y-9375000I0J125000D01*
G01*
X25125000Y-9250000D02*
G75*
G03X25000000Y-9375000I0J-125000D01*
G01*
X14750000Y-9375000D02*
G75*
G03X14875000Y-9500000I125000J0D01*
G01*
X14750000Y-9375000D02*
G75*
G03X14625000Y-9250000I-125000J0D01*
G01*
X22000000Y-7000000D02*
G75*
G03X21750000Y-7250000I0J-250000D01*
G01*
X21750000Y-8750000D02*
G75*
G03X22000000Y-9000000I250000J0D01*
G01*
X26500000Y-9000000D02*
G75*
G03X26750000Y-8750000I0J250000D01*
G01*
X26750000Y-7250000D02*
G75*
G03X26500000Y-7000000I-250000J0D01*
G01*
X22000000Y-7000000D02*
X26500000Y-7000000D01*
X21750000Y-8750000D02*
X21750000Y-7250000D01*
X26500000Y-9000000D02*
X22000000Y-9000000D01*
X26750000Y-7250000D02*
X26750000Y-8750000D01*
X24875000Y-9500000D02*
X20000000Y-9500000D01*
X27000000Y-9250000D02*
X25125000Y-9250000D01*
X27000000Y-6750000D02*
X27000000Y-9250000D01*
X25125000Y-6750000D02*
X27000000Y-6750000D01*
X20000000Y-6500000D02*
X24875000Y-6500000D01*
X14625000Y-6750000D02*
X5250000Y-6750000D01*
X19750000Y-6500000D02*
X14875000Y-6500000D01*
X20000000Y-8250000D02*
X20000000Y-9000000D01*
X14875000Y-9500000D02*
X19750000Y-9500000D01*
X5250000Y-9250000D02*
X14625000Y-9250000D01*
X4000000Y-8000000D02*
X5250000Y-9250000D01*
X5250000Y-6750000D02*
X4000000Y-8000000D01*
D12*
X13180000Y-7905000D02*
X13220000Y-7945000D01*
X13220000Y-7905000D02*
X13180000Y-7945000D01*
X13305000Y-7905000D02*
X13345000Y-7945000D01*
X13345000Y-7905000D02*
X13305000Y-7945000D01*
X14605000Y-7480000D02*
X14645000Y-7520000D01*
X14645000Y-7480000D02*
X14605000Y-7520000D01*
X14605000Y-7655000D02*
X14645000Y-7695000D01*
X14645000Y-7655000D02*
X14605000Y-7695000D01*
X15205000Y-7655000D02*
X15245000Y-7695000D01*
X15245000Y-7655000D02*
X15205000Y-7695000D01*
X15655000Y-7480000D02*
X15695000Y-7520000D01*
X15695000Y-7480000D02*
X15655000Y-7520000D01*
D13*
X4263929Y-9973214D02*
X4263929Y-9673214D01*
X4335357Y-9673214D01*
X4378214Y-9687500D01*
X4406786Y-9716072D01*
X4421071Y-9744643D01*
X4435357Y-9801786D01*
X4435357Y-9844643D01*
X4421071Y-9901786D01*
X4406786Y-9930357D01*
X4378214Y-9958929D01*
X4335357Y-9973214D01*
X4263929Y-9973214D01*
X4563929Y-9973214D02*
X4563929Y-9773214D01*
X4563929Y-9830357D02*
X4578214Y-9801786D01*
X4592500Y-9787500D01*
X4621071Y-9773214D01*
X4649643Y-9773214D01*
X4749643Y-9973214D02*
X4749643Y-9773214D01*
X4749643Y-9673214D02*
X4735357Y-9687500D01*
X4749643Y-9701786D01*
X4763929Y-9687500D01*
X4749643Y-9673214D01*
X4749643Y-9701786D01*
X4935357Y-9973214D02*
X4906786Y-9958929D01*
X4892500Y-9930357D01*
X4892500Y-9673214D01*
X5092500Y-9973214D02*
X5063929Y-9958929D01*
X5049643Y-9930357D01*
X5049643Y-9673214D01*
X5435357Y-9973214D02*
X5435357Y-9673214D01*
X5535357Y-9887500D01*
X5635357Y-9673214D01*
X5635357Y-9973214D01*
X5906786Y-9973214D02*
X5906786Y-9816072D01*
X5892500Y-9787500D01*
X5863928Y-9773214D01*
X5806786Y-9773214D01*
X5778214Y-9787500D01*
X5906786Y-9958929D02*
X5878214Y-9973214D01*
X5806786Y-9973214D01*
X5778214Y-9958929D01*
X5763928Y-9930357D01*
X5763928Y-9901786D01*
X5778214Y-9873214D01*
X5806786Y-9858929D01*
X5878214Y-9858929D01*
X5906786Y-9844643D01*
X6049643Y-9773214D02*
X6049643Y-10073214D01*
X6049643Y-9787500D02*
X6078214Y-9773214D01*
X6135357Y-9773214D01*
X6163928Y-9787500D01*
X6178214Y-9801786D01*
X6192500Y-9830357D01*
X6192500Y-9916072D01*
X6178214Y-9944643D01*
X6163928Y-9958929D01*
X6135357Y-9973214D01*
X6078214Y-9973214D01*
X6049643Y-9958929D01*
X6321071Y-9944643D02*
X6335357Y-9958929D01*
X6321071Y-9973214D01*
X6306786Y-9958929D01*
X6321071Y-9944643D01*
X6321071Y-9973214D01*
X6321071Y-9787500D02*
X6335357Y-9801786D01*
X6321071Y-9816072D01*
X6306786Y-9801786D01*
X6321071Y-9787500D01*
X6321071Y-9816072D01*
X3952500Y-10447500D02*
X3992500Y-10487500D01*
X3992500Y-10447500D02*
X3952500Y-10487500D01*
X4321071Y-10303214D02*
X4349643Y-10303214D01*
X4378214Y-10317500D01*
X4392500Y-10331786D01*
X4406786Y-10360357D01*
X4421071Y-10417500D01*
X4421071Y-10488929D01*
X4406786Y-10546072D01*
X4392500Y-10574643D01*
X4378214Y-10588929D01*
X4349643Y-10603214D01*
X4321071Y-10603214D01*
X4292500Y-10588929D01*
X4278214Y-10574643D01*
X4263929Y-10546072D01*
X4249643Y-10488929D01*
X4249643Y-10417500D01*
X4263929Y-10360357D01*
X4278214Y-10331786D01*
X4292500Y-10317500D01*
X4321071Y-10303214D01*
X4549643Y-10574643D02*
X4563929Y-10588929D01*
X4549643Y-10603214D01*
X4535357Y-10588929D01*
X4549643Y-10574643D01*
X4549643Y-10603214D01*
X4821071Y-10403214D02*
X4821071Y-10603214D01*
X4749643Y-10288929D02*
X4678214Y-10503214D01*
X4863928Y-10503214D01*
X5035357Y-10303214D02*
X5063929Y-10303214D01*
X5092500Y-10317500D01*
X5106786Y-10331786D01*
X5121071Y-10360357D01*
X5135357Y-10417500D01*
X5135357Y-10488929D01*
X5121071Y-10546072D01*
X5106786Y-10574643D01*
X5092500Y-10588929D01*
X5063929Y-10603214D01*
X5035357Y-10603214D01*
X5006786Y-10588929D01*
X4992500Y-10574643D01*
X4978214Y-10546072D01*
X4963929Y-10488929D01*
X4963929Y-10417500D01*
X4978214Y-10360357D01*
X4992500Y-10331786D01*
X5006786Y-10317500D01*
X5035357Y-10303214D01*
X5263929Y-10603214D02*
X5263929Y-10403214D01*
X5263929Y-10431786D02*
X5278214Y-10417500D01*
X5306786Y-10403214D01*
X5349643Y-10403214D01*
X5378214Y-10417500D01*
X5392500Y-10446072D01*
X5392500Y-10603214D01*
X5392500Y-10446072D02*
X5406786Y-10417500D01*
X5435357Y-10403214D01*
X5478214Y-10403214D01*
X5506786Y-10417500D01*
X5521071Y-10446072D01*
X5521071Y-10603214D01*
X5663928Y-10603214D02*
X5663928Y-10403214D01*
X5663928Y-10431786D02*
X5678214Y-10417500D01*
X5706786Y-10403214D01*
X5749643Y-10403214D01*
X5778214Y-10417500D01*
X5792500Y-10446072D01*
X5792500Y-10603214D01*
X5792500Y-10446072D02*
X5806786Y-10417500D01*
X5835357Y-10403214D01*
X5878214Y-10403214D01*
X5906786Y-10417500D01*
X5921071Y-10446072D01*
X5921071Y-10603214D01*
X6506786Y-10288929D02*
X6249643Y-10674643D01*
X6892500Y-10303214D02*
X6921071Y-10303214D01*
X6949643Y-10317500D01*
X6963928Y-10331786D01*
X6978214Y-10360357D01*
X6992500Y-10417500D01*
X6992500Y-10488929D01*
X6978214Y-10546072D01*
X6963928Y-10574643D01*
X6949643Y-10588929D01*
X6921071Y-10603214D01*
X6892500Y-10603214D01*
X6863928Y-10588929D01*
X6849643Y-10574643D01*
X6835357Y-10546072D01*
X6821071Y-10488929D01*
X6821071Y-10417500D01*
X6835357Y-10360357D01*
X6849643Y-10331786D01*
X6863928Y-10317500D01*
X6892500Y-10303214D01*
X7121071Y-10574643D02*
X7135357Y-10588929D01*
X7121071Y-10603214D01*
X7106786Y-10588929D01*
X7121071Y-10574643D01*
X7121071Y-10603214D01*
X7321071Y-10303214D02*
X7349643Y-10303214D01*
X7378214Y-10317500D01*
X7392500Y-10331786D01*
X7406785Y-10360357D01*
X7421071Y-10417500D01*
X7421071Y-10488929D01*
X7406785Y-10546072D01*
X7392500Y-10574643D01*
X7378214Y-10588929D01*
X7349643Y-10603214D01*
X7321071Y-10603214D01*
X7292500Y-10588929D01*
X7278214Y-10574643D01*
X7263928Y-10546072D01*
X7249643Y-10488929D01*
X7249643Y-10417500D01*
X7263928Y-10360357D01*
X7278214Y-10331786D01*
X7292500Y-10317500D01*
X7321071Y-10303214D01*
X7706785Y-10603214D02*
X7535357Y-10603214D01*
X7621071Y-10603214D02*
X7621071Y-10303214D01*
X7592500Y-10346072D01*
X7563928Y-10374643D01*
X7535357Y-10388929D01*
X7963928Y-10303214D02*
X7906785Y-10303214D01*
X7878214Y-10317500D01*
X7863928Y-10331786D01*
X7835357Y-10374643D01*
X7821071Y-10431786D01*
X7821071Y-10546072D01*
X7835357Y-10574643D01*
X7849643Y-10588929D01*
X7878214Y-10603214D01*
X7935357Y-10603214D01*
X7963928Y-10588929D01*
X7978214Y-10574643D01*
X7992500Y-10546072D01*
X7992500Y-10474643D01*
X7978214Y-10446072D01*
X7963928Y-10431786D01*
X7935357Y-10417500D01*
X7878214Y-10417500D01*
X7849643Y-10431786D01*
X7835357Y-10446072D01*
X7821071Y-10474643D01*
X8106786Y-10303214D02*
X8106786Y-10360357D01*
X8221071Y-10303214D02*
X8221071Y-10360357D01*
X8663928Y-10717500D02*
X8649643Y-10703214D01*
X8621071Y-10660357D01*
X8606786Y-10631786D01*
X8592500Y-10588929D01*
X8578214Y-10517500D01*
X8578214Y-10460357D01*
X8592500Y-10388929D01*
X8606786Y-10346072D01*
X8621071Y-10317500D01*
X8649643Y-10274643D01*
X8663928Y-10260357D01*
X8906786Y-10303214D02*
X8849643Y-10303214D01*
X8821071Y-10317500D01*
X8806786Y-10331786D01*
X8778214Y-10374643D01*
X8763928Y-10431786D01*
X8763928Y-10546072D01*
X8778214Y-10574643D01*
X8792500Y-10588929D01*
X8821071Y-10603214D01*
X8878214Y-10603214D01*
X8906786Y-10588929D01*
X8921071Y-10574643D01*
X8935357Y-10546072D01*
X8935357Y-10474643D01*
X8921071Y-10446072D01*
X8906786Y-10431786D01*
X8878214Y-10417500D01*
X8821071Y-10417500D01*
X8792500Y-10431786D01*
X8778214Y-10446072D01*
X8763928Y-10474643D01*
X9292500Y-10603214D02*
X9292500Y-10303214D01*
X9421071Y-10603214D02*
X9421071Y-10446072D01*
X9406786Y-10417500D01*
X9378214Y-10403214D01*
X9335357Y-10403214D01*
X9306786Y-10417500D01*
X9292500Y-10431786D01*
X9606786Y-10603214D02*
X9578214Y-10588929D01*
X9563928Y-10574643D01*
X9549643Y-10546072D01*
X9549643Y-10460357D01*
X9563928Y-10431786D01*
X9578214Y-10417500D01*
X9606786Y-10403214D01*
X9649643Y-10403214D01*
X9678214Y-10417500D01*
X9692500Y-10431786D01*
X9706786Y-10460357D01*
X9706786Y-10546072D01*
X9692500Y-10574643D01*
X9678214Y-10588929D01*
X9649643Y-10603214D01*
X9606786Y-10603214D01*
X9878214Y-10603214D02*
X9849643Y-10588929D01*
X9835357Y-10560357D01*
X9835357Y-10303214D01*
X10106786Y-10588929D02*
X10078214Y-10603214D01*
X10021071Y-10603214D01*
X9992500Y-10588929D01*
X9978214Y-10560357D01*
X9978214Y-10446072D01*
X9992500Y-10417500D01*
X10021071Y-10403214D01*
X10078214Y-10403214D01*
X10106786Y-10417500D01*
X10121071Y-10446072D01*
X10121071Y-10474643D01*
X9978214Y-10503214D01*
X10235357Y-10588929D02*
X10263929Y-10603214D01*
X10321071Y-10603214D01*
X10349643Y-10588929D01*
X10363929Y-10560357D01*
X10363929Y-10546072D01*
X10349643Y-10517500D01*
X10321071Y-10503214D01*
X10278214Y-10503214D01*
X10249643Y-10488929D01*
X10235357Y-10460357D01*
X10235357Y-10446072D01*
X10249643Y-10417500D01*
X10278214Y-10403214D01*
X10321071Y-10403214D01*
X10349643Y-10417500D01*
X10463928Y-10717500D02*
X10478214Y-10703214D01*
X10506786Y-10660357D01*
X10521071Y-10631786D01*
X10535357Y-10588929D01*
X10549643Y-10517500D01*
X10549643Y-10460357D01*
X10535357Y-10388929D01*
X10521071Y-10346072D01*
X10506786Y-10317500D01*
X10478214Y-10274643D01*
X10463928Y-10260357D01*
M02*
