G04 #@! TF.FileFunction,Legend,Top*
%FSLAX46Y46*%
G04 Gerber Fmt 4.6, Leading zero omitted, Abs format (unit mm)*
G04 Created by KiCad (PCBNEW 4.0.7-e2-6376~61~ubuntu18.04.1) date Fri Jul  6 14:55:34 2018*
%MOMM*%
%LPD*%
G01*
G04 APERTURE LIST*
%ADD10C,0.100000*%
%ADD11C,0.120000*%
%ADD12C,0.600000*%
%ADD13C,0.150000*%
%ADD14C,0.099060*%
%ADD15C,0.010000*%
G04 APERTURE END LIST*
D10*
D11*
X168819047Y-76616667D02*
X169159524Y-76616667D01*
X168976190Y-76883333D01*
X169054762Y-76883333D01*
X169107143Y-76916667D01*
X169133333Y-76950000D01*
X169159524Y-77016667D01*
X169159524Y-77183333D01*
X169133333Y-77250000D01*
X169107143Y-77283333D01*
X169054762Y-77316667D01*
X168897619Y-77316667D01*
X168845238Y-77283333D01*
X168819047Y-77250000D01*
X169316667Y-76616667D02*
X169500000Y-77316667D01*
X169683334Y-76616667D01*
X169814286Y-76616667D02*
X170154763Y-76616667D01*
X169971429Y-76883333D01*
X170050001Y-76883333D01*
X170102382Y-76916667D01*
X170128572Y-76950000D01*
X170154763Y-77016667D01*
X170154763Y-77183333D01*
X170128572Y-77250000D01*
X170102382Y-77283333D01*
X170050001Y-77316667D01*
X169892858Y-77316667D01*
X169840477Y-77283333D01*
X169814286Y-77250000D01*
X168832143Y-79283333D02*
X168910714Y-79316667D01*
X169041667Y-79316667D01*
X169094048Y-79283333D01*
X169120238Y-79250000D01*
X169146429Y-79183333D01*
X169146429Y-79116667D01*
X169120238Y-79050000D01*
X169094048Y-79016667D01*
X169041667Y-78983333D01*
X168936905Y-78950000D01*
X168884524Y-78916667D01*
X168858333Y-78883333D01*
X168832143Y-78816667D01*
X168832143Y-78750000D01*
X168858333Y-78683333D01*
X168884524Y-78650000D01*
X168936905Y-78616667D01*
X169067857Y-78616667D01*
X169146429Y-78650000D01*
X169382143Y-79316667D02*
X169382143Y-78616667D01*
X169513096Y-78616667D01*
X169591667Y-78650000D01*
X169644048Y-78716667D01*
X169670239Y-78783333D01*
X169696429Y-78916667D01*
X169696429Y-79016667D01*
X169670239Y-79150000D01*
X169644048Y-79216667D01*
X169591667Y-79283333D01*
X169513096Y-79316667D01*
X169382143Y-79316667D01*
X169905953Y-79116667D02*
X170167858Y-79116667D01*
X169853572Y-79316667D02*
X170036905Y-78616667D01*
X170220239Y-79316667D01*
X168845238Y-81283333D02*
X168923809Y-81316667D01*
X169054762Y-81316667D01*
X169107143Y-81283333D01*
X169133333Y-81250000D01*
X169159524Y-81183333D01*
X169159524Y-81116667D01*
X169133333Y-81050000D01*
X169107143Y-81016667D01*
X169054762Y-80983333D01*
X168950000Y-80950000D01*
X168897619Y-80916667D01*
X168871428Y-80883333D01*
X168845238Y-80816667D01*
X168845238Y-80750000D01*
X168871428Y-80683333D01*
X168897619Y-80650000D01*
X168950000Y-80616667D01*
X169080952Y-80616667D01*
X169159524Y-80650000D01*
X169709524Y-81250000D02*
X169683334Y-81283333D01*
X169604762Y-81316667D01*
X169552381Y-81316667D01*
X169473810Y-81283333D01*
X169421429Y-81216667D01*
X169395238Y-81150000D01*
X169369048Y-81016667D01*
X169369048Y-80916667D01*
X169395238Y-80783333D01*
X169421429Y-80716667D01*
X169473810Y-80650000D01*
X169552381Y-80616667D01*
X169604762Y-80616667D01*
X169683334Y-80650000D01*
X169709524Y-80683333D01*
X170207143Y-81316667D02*
X169945238Y-81316667D01*
X169945238Y-80616667D01*
X169238095Y-82616667D02*
X169290476Y-82616667D01*
X169342857Y-82650000D01*
X169369048Y-82683333D01*
X169395238Y-82750000D01*
X169421429Y-82883333D01*
X169421429Y-83050000D01*
X169395238Y-83183333D01*
X169369048Y-83250000D01*
X169342857Y-83283333D01*
X169290476Y-83316667D01*
X169238095Y-83316667D01*
X169185714Y-83283333D01*
X169159524Y-83250000D01*
X169133333Y-83183333D01*
X169107143Y-83050000D01*
X169107143Y-82883333D01*
X169133333Y-82750000D01*
X169159524Y-82683333D01*
X169185714Y-82650000D01*
X169238095Y-82616667D01*
X169578572Y-82616667D02*
X169761905Y-83316667D01*
X169945239Y-82616667D01*
D12*
X91785715Y-89666667D02*
X92178572Y-89833333D01*
X92833334Y-89833333D01*
X93095238Y-89666667D01*
X93226191Y-89500000D01*
X93357143Y-89166667D01*
X93357143Y-88833333D01*
X93226191Y-88500000D01*
X93095238Y-88333333D01*
X92833334Y-88166667D01*
X92309524Y-88000000D01*
X92047619Y-87833333D01*
X91916667Y-87666667D01*
X91785715Y-87333333D01*
X91785715Y-87000000D01*
X91916667Y-86666667D01*
X92047619Y-86500000D01*
X92309524Y-86333333D01*
X92964286Y-86333333D01*
X93357143Y-86500000D01*
X94928572Y-89833333D02*
X94666667Y-89666667D01*
X94535715Y-89500000D01*
X94404763Y-89166667D01*
X94404763Y-88166667D01*
X94535715Y-87833333D01*
X94666667Y-87666667D01*
X94928572Y-87500000D01*
X95321429Y-87500000D01*
X95583334Y-87666667D01*
X95714286Y-87833333D01*
X95845239Y-88166667D01*
X95845239Y-89166667D01*
X95714286Y-89500000D01*
X95583334Y-89666667D01*
X95321429Y-89833333D01*
X94928572Y-89833333D01*
X97023810Y-89833333D02*
X97023810Y-87500000D01*
X97023810Y-86333333D02*
X96892858Y-86500000D01*
X97023810Y-86666667D01*
X97154762Y-86500000D01*
X97023810Y-86333333D01*
X97023810Y-86666667D01*
X98726191Y-89833333D02*
X98464286Y-89666667D01*
X98333334Y-89333333D01*
X98333334Y-86333333D01*
X101869048Y-89833333D02*
X101869048Y-86333333D01*
X102916667Y-86333333D01*
X103178572Y-86500000D01*
X103309524Y-86666667D01*
X103440476Y-87000000D01*
X103440476Y-87500000D01*
X103309524Y-87833333D01*
X103178572Y-88000000D01*
X102916667Y-88166667D01*
X101869048Y-88166667D01*
X104619048Y-89833333D02*
X104619048Y-87500000D01*
X104619048Y-88166667D02*
X104750000Y-87833333D01*
X104880953Y-87666667D01*
X105142857Y-87500000D01*
X105404762Y-87500000D01*
X106714286Y-89833333D02*
X106452381Y-89666667D01*
X106321429Y-89500000D01*
X106190477Y-89166667D01*
X106190477Y-88166667D01*
X106321429Y-87833333D01*
X106452381Y-87666667D01*
X106714286Y-87500000D01*
X107107143Y-87500000D01*
X107369048Y-87666667D01*
X107500000Y-87833333D01*
X107630953Y-88166667D01*
X107630953Y-89166667D01*
X107500000Y-89500000D01*
X107369048Y-89666667D01*
X107107143Y-89833333D01*
X106714286Y-89833333D01*
X108809524Y-89833333D02*
X108809524Y-86333333D01*
X108809524Y-87666667D02*
X109071429Y-87500000D01*
X109595238Y-87500000D01*
X109857143Y-87666667D01*
X109988095Y-87833333D01*
X110119048Y-88166667D01*
X110119048Y-89166667D01*
X109988095Y-89500000D01*
X109857143Y-89666667D01*
X109595238Y-89833333D01*
X109071429Y-89833333D01*
X108809524Y-89666667D01*
X112345238Y-89666667D02*
X112083333Y-89833333D01*
X111559524Y-89833333D01*
X111297619Y-89666667D01*
X111166667Y-89333333D01*
X111166667Y-88000000D01*
X111297619Y-87666667D01*
X111559524Y-87500000D01*
X112083333Y-87500000D01*
X112345238Y-87666667D01*
X112476190Y-88000000D01*
X112476190Y-88333333D01*
X111166667Y-88666667D01*
X115488095Y-87500000D02*
X116142857Y-89833333D01*
X116797619Y-87500000D01*
X118369047Y-86333333D02*
X118630952Y-86333333D01*
X118892857Y-86500000D01*
X119023809Y-86666667D01*
X119154762Y-87000000D01*
X119285714Y-87666667D01*
X119285714Y-88500000D01*
X119154762Y-89166667D01*
X119023809Y-89500000D01*
X118892857Y-89666667D01*
X118630952Y-89833333D01*
X118369047Y-89833333D01*
X118107143Y-89666667D01*
X117976190Y-89500000D01*
X117845238Y-89166667D01*
X117714286Y-88500000D01*
X117714286Y-87666667D01*
X117845238Y-87000000D01*
X117976190Y-86666667D01*
X118107143Y-86500000D01*
X118369047Y-86333333D01*
X120464286Y-89500000D02*
X120595238Y-89666667D01*
X120464286Y-89833333D01*
X120333334Y-89666667D01*
X120464286Y-89500000D01*
X120464286Y-89833333D01*
X123214286Y-89833333D02*
X121642858Y-89833333D01*
X122428572Y-89833333D02*
X122428572Y-86333333D01*
X122166667Y-86833333D01*
X121904762Y-87166667D01*
X121642858Y-87333333D01*
D11*
X254109524Y-80250000D02*
X254083334Y-80283333D01*
X254004762Y-80316667D01*
X253952381Y-80316667D01*
X253873810Y-80283333D01*
X253821429Y-80216667D01*
X253795238Y-80150000D01*
X253769048Y-80016667D01*
X253769048Y-79916667D01*
X253795238Y-79783333D01*
X253821429Y-79716667D01*
X253873810Y-79650000D01*
X253952381Y-79616667D01*
X254004762Y-79616667D01*
X254083334Y-79650000D01*
X254109524Y-79683333D01*
X254580953Y-79850000D02*
X254580953Y-80316667D01*
X254345238Y-79850000D02*
X254345238Y-80216667D01*
X254371429Y-80283333D01*
X254423810Y-80316667D01*
X254502381Y-80316667D01*
X254554762Y-80283333D01*
X254580953Y-80250000D01*
X254764286Y-79850000D02*
X254973810Y-79850000D01*
X254842857Y-79616667D02*
X254842857Y-80216667D01*
X254869048Y-80283333D01*
X254921429Y-80316667D01*
X254973810Y-80316667D01*
X255235715Y-80316667D02*
X255183334Y-80283333D01*
X255157143Y-80250000D01*
X255130953Y-80183333D01*
X255130953Y-79983333D01*
X255157143Y-79916667D01*
X255183334Y-79883333D01*
X255235715Y-79850000D01*
X255314286Y-79850000D01*
X255366667Y-79883333D01*
X255392858Y-79916667D01*
X255419048Y-79983333D01*
X255419048Y-80183333D01*
X255392858Y-80250000D01*
X255366667Y-80283333D01*
X255314286Y-80316667D01*
X255235715Y-80316667D01*
X255890477Y-79850000D02*
X255890477Y-80316667D01*
X255654762Y-79850000D02*
X255654762Y-80216667D01*
X255680953Y-80283333D01*
X255733334Y-80316667D01*
X255811905Y-80316667D01*
X255864286Y-80283333D01*
X255890477Y-80250000D01*
X256073810Y-79850000D02*
X256283334Y-79850000D01*
X256152381Y-79616667D02*
X256152381Y-80216667D01*
X256178572Y-80283333D01*
X256230953Y-80316667D01*
X256283334Y-80316667D01*
D10*
X156000000Y-73700000D02*
X154000000Y-73700000D01*
X156000000Y-76300000D02*
X156000000Y-73700000D01*
X154400000Y-76300000D02*
X156000000Y-76300000D01*
X154000000Y-75900000D02*
X154400000Y-76300000D01*
X154000000Y-73700000D02*
X154000000Y-75900000D01*
X144350000Y-88150000D02*
X141600000Y-88150000D01*
X141600000Y-88150000D02*
X141600000Y-86850000D01*
X141600000Y-86850000D02*
X144350000Y-86850000D01*
X144350000Y-86850000D02*
X144350000Y-88150000D01*
X137150000Y-80350000D02*
X139900000Y-80350000D01*
X139900000Y-80350000D02*
X139900000Y-81650000D01*
X139900000Y-81650000D02*
X137150000Y-81650000D01*
X137150000Y-81650000D02*
X137150000Y-80350000D01*
X141650000Y-72100000D02*
X144400000Y-72100000D01*
X144400000Y-72100000D02*
X144400000Y-73400000D01*
X144400000Y-73400000D02*
X141650000Y-73400000D01*
X141650000Y-73400000D02*
X141650000Y-72100000D01*
X137150000Y-72100000D02*
X139900000Y-72100000D01*
X139900000Y-72100000D02*
X139900000Y-73400000D01*
X139900000Y-73400000D02*
X137150000Y-73400000D01*
X137150000Y-73400000D02*
X137150000Y-72100000D01*
X158650000Y-72100000D02*
X161400000Y-72100000D01*
X161400000Y-72100000D02*
X161400000Y-73400000D01*
X161400000Y-73400000D02*
X158650000Y-73400000D01*
X158650000Y-73400000D02*
X158650000Y-72100000D01*
X153650000Y-80350000D02*
X156400000Y-80350000D01*
X156400000Y-80350000D02*
X156400000Y-81650000D01*
X156400000Y-81650000D02*
X153650000Y-81650000D01*
X153650000Y-81650000D02*
X153650000Y-80350000D01*
X132150000Y-81850000D02*
X134900000Y-81850000D01*
X134900000Y-81850000D02*
X134900000Y-83150000D01*
X134900000Y-83150000D02*
X132150000Y-83150000D01*
X132150000Y-83150000D02*
X132150000Y-81850000D01*
D11*
X160800000Y-80100000D02*
X158900000Y-80100000D01*
X159200000Y-81900000D02*
X160800000Y-81900000D01*
D10*
X158650000Y-76600000D02*
X161400000Y-76600000D01*
X161400000Y-76600000D02*
X161400000Y-77900000D01*
X161400000Y-77900000D02*
X158650000Y-77900000D01*
X158650000Y-77900000D02*
X158650000Y-76600000D01*
X158650000Y-83350000D02*
X161400000Y-83350000D01*
X161400000Y-83350000D02*
X161400000Y-84650000D01*
X161400000Y-84650000D02*
X158650000Y-84650000D01*
X158650000Y-84650000D02*
X158650000Y-83350000D01*
X158650000Y-86350000D02*
X161400000Y-86350000D01*
X161400000Y-86350000D02*
X161400000Y-87650000D01*
X161400000Y-87650000D02*
X158650000Y-87650000D01*
X158650000Y-87650000D02*
X158650000Y-86350000D01*
X141650000Y-79100000D02*
X144400000Y-79100000D01*
X144400000Y-79100000D02*
X144400000Y-80400000D01*
X144400000Y-80400000D02*
X141650000Y-80400000D01*
X141650000Y-80400000D02*
X141650000Y-79100000D01*
X132150000Y-84350000D02*
X134900000Y-84350000D01*
X134900000Y-84350000D02*
X134900000Y-85650000D01*
X134900000Y-85650000D02*
X132150000Y-85650000D01*
X132150000Y-85650000D02*
X132150000Y-84350000D01*
X137150000Y-77850000D02*
X139900000Y-77850000D01*
X139900000Y-77850000D02*
X139900000Y-79150000D01*
X139900000Y-79150000D02*
X137150000Y-79150000D01*
X137150000Y-79150000D02*
X137150000Y-77850000D01*
X156350000Y-84650000D02*
X153600000Y-84650000D01*
X153600000Y-84650000D02*
X153600000Y-83350000D01*
X153600000Y-83350000D02*
X156350000Y-83350000D01*
X156350000Y-83350000D02*
X156350000Y-84650000D01*
X156350000Y-87650000D02*
X153600000Y-87650000D01*
X153600000Y-87650000D02*
X153600000Y-86350000D01*
X153600000Y-86350000D02*
X156350000Y-86350000D01*
X156350000Y-86350000D02*
X156350000Y-87650000D01*
D13*
X145282843Y-82250000D02*
G75*
G03X145282843Y-82250000I-282843J0D01*
G01*
X144750000Y-82750000D02*
X144750000Y-85250000D01*
D11*
X142100000Y-77360000D02*
X143900000Y-77360000D01*
X143900000Y-74140000D02*
X141450000Y-74140000D01*
D10*
X134500000Y-73700000D02*
X132500000Y-73700000D01*
X134500000Y-76300000D02*
X134500000Y-73700000D01*
X132900000Y-76300000D02*
X134500000Y-76300000D01*
X132500000Y-75900000D02*
X132900000Y-76300000D01*
X132500000Y-73700000D02*
X132500000Y-75900000D01*
D14*
X177999740Y-80000000D02*
G75*
G03X177999740Y-80000000I-2999740J0D01*
G01*
X192999740Y-75000000D02*
G75*
G03X192999740Y-75000000I-2999740J0D01*
G01*
X192999740Y-85000000D02*
G75*
G03X192999740Y-85000000I-2999740J0D01*
G01*
X187999740Y-80000000D02*
G75*
G03X187999740Y-80000000I-2999740J0D01*
G01*
X215499740Y-80000000D02*
G75*
G03X215499740Y-80000000I-2999740J0D01*
G01*
X210499740Y-75000000D02*
G75*
G03X210499740Y-75000000I-2999740J0D01*
G01*
X210499740Y-85000000D02*
G75*
G03X210499740Y-85000000I-2999740J0D01*
G01*
D15*
G36*
X105440171Y-76767885D02*
X105541024Y-76813526D01*
X105602493Y-76855588D01*
X105634038Y-76904468D01*
X105645115Y-76970557D01*
X105645842Y-76993900D01*
X105653371Y-77057412D01*
X105679188Y-77089666D01*
X105731618Y-77093371D01*
X105818985Y-77071235D01*
X105851110Y-77060684D01*
X105997525Y-77021740D01*
X106137578Y-77009843D01*
X106288973Y-77024856D01*
X106430497Y-77056240D01*
X106609832Y-77111816D01*
X106744343Y-77173237D01*
X106832640Y-77239367D01*
X106873332Y-77309064D01*
X106865030Y-77381191D01*
X106853176Y-77402526D01*
X106826501Y-77468614D01*
X106813584Y-77550190D01*
X106813392Y-77558156D01*
X106790171Y-77667979D01*
X106724314Y-77752375D01*
X106618464Y-77808955D01*
X106510630Y-77832148D01*
X106438809Y-77840660D01*
X106385311Y-77847314D01*
X106382400Y-77847700D01*
X106305067Y-77848906D01*
X106261497Y-77829858D01*
X106255326Y-77813050D01*
X106235928Y-77778810D01*
X106188530Y-77736773D01*
X106180640Y-77731310D01*
X106122281Y-77680384D01*
X106090478Y-77616062D01*
X106078608Y-77522599D01*
X106077946Y-77487277D01*
X106094199Y-77410141D01*
X106135563Y-77340625D01*
X106190084Y-77295059D01*
X106225287Y-77286000D01*
X106253706Y-77273099D01*
X106244180Y-77241185D01*
X106200332Y-77200442D01*
X106193082Y-77195539D01*
X106152682Y-77173409D01*
X106112107Y-77167570D01*
X106053613Y-77177976D01*
X105992081Y-77195024D01*
X105868699Y-77246588D01*
X105790588Y-77309984D01*
X105756726Y-77355180D01*
X105729484Y-77405663D01*
X105708319Y-77466953D01*
X105692686Y-77544569D01*
X105682043Y-77644031D01*
X105675846Y-77770857D01*
X105673551Y-77930567D01*
X105674616Y-78128679D01*
X105678496Y-78370714D01*
X105679775Y-78435398D01*
X105684105Y-78630329D01*
X105688793Y-78808891D01*
X105693616Y-78964756D01*
X105698351Y-79091593D01*
X105702775Y-79183073D01*
X105706665Y-79232867D01*
X105708145Y-79239932D01*
X105715363Y-79273080D01*
X105723691Y-79343720D01*
X105731664Y-79438610D01*
X105733981Y-79473200D01*
X105747766Y-79655930D01*
X105763210Y-79789514D01*
X105780561Y-79875586D01*
X105800074Y-79915782D01*
X105802364Y-79917473D01*
X105814635Y-79943377D01*
X105789565Y-79972111D01*
X105739313Y-79995098D01*
X105679992Y-80003800D01*
X105609347Y-80015313D01*
X105578494Y-80042656D01*
X105545475Y-80069729D01*
X105518800Y-80067300D01*
X105473501Y-80072558D01*
X105459105Y-80091943D01*
X105423900Y-80125749D01*
X105368478Y-80123787D01*
X105313550Y-80090845D01*
X105278831Y-80065289D01*
X105261086Y-80079606D01*
X105253578Y-80100741D01*
X105217991Y-80146248D01*
X105181428Y-80164045D01*
X105110900Y-80180848D01*
X105074300Y-80189539D01*
X105022659Y-80192150D01*
X104940959Y-80186564D01*
X104867760Y-80177072D01*
X104732613Y-80140920D01*
X104637993Y-80078274D01*
X104578140Y-79983576D01*
X104549774Y-79870144D01*
X104538140Y-79791885D01*
X104520871Y-79678972D01*
X104500357Y-79546911D01*
X104480320Y-79419600D01*
X104449275Y-79197643D01*
X104422275Y-78947383D01*
X104398966Y-78664087D01*
X104378999Y-78343020D01*
X104362021Y-77979451D01*
X104351157Y-77679700D01*
X104344632Y-77496139D01*
X104337384Y-77321439D01*
X104329866Y-77164587D01*
X104322531Y-77034574D01*
X104315834Y-76940387D01*
X104311962Y-76902062D01*
X104305468Y-76822130D01*
X104308061Y-76764556D01*
X104315647Y-76745680D01*
X104347059Y-76740317D01*
X104420759Y-76733801D01*
X104528268Y-76726697D01*
X104661102Y-76719570D01*
X104800295Y-76713402D01*
X105262703Y-76694869D01*
X105440171Y-76767885D01*
X105440171Y-76767885D01*
G37*
X105440171Y-76767885D02*
X105541024Y-76813526D01*
X105602493Y-76855588D01*
X105634038Y-76904468D01*
X105645115Y-76970557D01*
X105645842Y-76993900D01*
X105653371Y-77057412D01*
X105679188Y-77089666D01*
X105731618Y-77093371D01*
X105818985Y-77071235D01*
X105851110Y-77060684D01*
X105997525Y-77021740D01*
X106137578Y-77009843D01*
X106288973Y-77024856D01*
X106430497Y-77056240D01*
X106609832Y-77111816D01*
X106744343Y-77173237D01*
X106832640Y-77239367D01*
X106873332Y-77309064D01*
X106865030Y-77381191D01*
X106853176Y-77402526D01*
X106826501Y-77468614D01*
X106813584Y-77550190D01*
X106813392Y-77558156D01*
X106790171Y-77667979D01*
X106724314Y-77752375D01*
X106618464Y-77808955D01*
X106510630Y-77832148D01*
X106438809Y-77840660D01*
X106385311Y-77847314D01*
X106382400Y-77847700D01*
X106305067Y-77848906D01*
X106261497Y-77829858D01*
X106255326Y-77813050D01*
X106235928Y-77778810D01*
X106188530Y-77736773D01*
X106180640Y-77731310D01*
X106122281Y-77680384D01*
X106090478Y-77616062D01*
X106078608Y-77522599D01*
X106077946Y-77487277D01*
X106094199Y-77410141D01*
X106135563Y-77340625D01*
X106190084Y-77295059D01*
X106225287Y-77286000D01*
X106253706Y-77273099D01*
X106244180Y-77241185D01*
X106200332Y-77200442D01*
X106193082Y-77195539D01*
X106152682Y-77173409D01*
X106112107Y-77167570D01*
X106053613Y-77177976D01*
X105992081Y-77195024D01*
X105868699Y-77246588D01*
X105790588Y-77309984D01*
X105756726Y-77355180D01*
X105729484Y-77405663D01*
X105708319Y-77466953D01*
X105692686Y-77544569D01*
X105682043Y-77644031D01*
X105675846Y-77770857D01*
X105673551Y-77930567D01*
X105674616Y-78128679D01*
X105678496Y-78370714D01*
X105679775Y-78435398D01*
X105684105Y-78630329D01*
X105688793Y-78808891D01*
X105693616Y-78964756D01*
X105698351Y-79091593D01*
X105702775Y-79183073D01*
X105706665Y-79232867D01*
X105708145Y-79239932D01*
X105715363Y-79273080D01*
X105723691Y-79343720D01*
X105731664Y-79438610D01*
X105733981Y-79473200D01*
X105747766Y-79655930D01*
X105763210Y-79789514D01*
X105780561Y-79875586D01*
X105800074Y-79915782D01*
X105802364Y-79917473D01*
X105814635Y-79943377D01*
X105789565Y-79972111D01*
X105739313Y-79995098D01*
X105679992Y-80003800D01*
X105609347Y-80015313D01*
X105578494Y-80042656D01*
X105545475Y-80069729D01*
X105518800Y-80067300D01*
X105473501Y-80072558D01*
X105459105Y-80091943D01*
X105423900Y-80125749D01*
X105368478Y-80123787D01*
X105313550Y-80090845D01*
X105278831Y-80065289D01*
X105261086Y-80079606D01*
X105253578Y-80100741D01*
X105217991Y-80146248D01*
X105181428Y-80164045D01*
X105110900Y-80180848D01*
X105074300Y-80189539D01*
X105022659Y-80192150D01*
X104940959Y-80186564D01*
X104867760Y-80177072D01*
X104732613Y-80140920D01*
X104637993Y-80078274D01*
X104578140Y-79983576D01*
X104549774Y-79870144D01*
X104538140Y-79791885D01*
X104520871Y-79678972D01*
X104500357Y-79546911D01*
X104480320Y-79419600D01*
X104449275Y-79197643D01*
X104422275Y-78947383D01*
X104398966Y-78664087D01*
X104378999Y-78343020D01*
X104362021Y-77979451D01*
X104351157Y-77679700D01*
X104344632Y-77496139D01*
X104337384Y-77321439D01*
X104329866Y-77164587D01*
X104322531Y-77034574D01*
X104315834Y-76940387D01*
X104311962Y-76902062D01*
X104305468Y-76822130D01*
X104308061Y-76764556D01*
X104315647Y-76745680D01*
X104347059Y-76740317D01*
X104420759Y-76733801D01*
X104528268Y-76726697D01*
X104661102Y-76719570D01*
X104800295Y-76713402D01*
X105262703Y-76694869D01*
X105440171Y-76767885D01*
G36*
X108588041Y-73261973D02*
X108678787Y-73300656D01*
X108733090Y-73330621D01*
X108761799Y-73361706D01*
X108775762Y-73403747D01*
X108781425Y-73437339D01*
X108797189Y-73522925D01*
X108819646Y-73569680D01*
X108860112Y-73583627D01*
X108929906Y-73570791D01*
X108995414Y-73551232D01*
X109123466Y-73517774D01*
X109239363Y-73504576D01*
X109360579Y-73511721D01*
X109504588Y-73539293D01*
X109564390Y-73553984D01*
X109746848Y-73610058D01*
X109881766Y-73672668D01*
X109968422Y-73741179D01*
X110006097Y-73814955D01*
X109994068Y-73893361D01*
X109979300Y-73919791D01*
X109951237Y-73988169D01*
X109937768Y-74070950D01*
X109937592Y-74078356D01*
X109923875Y-74169789D01*
X109888751Y-74235200D01*
X109838726Y-74263111D01*
X109832729Y-74263400D01*
X109782900Y-74279085D01*
X109771755Y-74287804D01*
X109729303Y-74308694D01*
X109643591Y-74327642D01*
X109532000Y-74343118D01*
X109452141Y-74345411D01*
X109399724Y-74332932D01*
X109385897Y-74308376D01*
X109386068Y-74307850D01*
X109373999Y-74274549D01*
X109330290Y-74235595D01*
X109324051Y-74231638D01*
X109264341Y-74179410D01*
X109225517Y-74119275D01*
X109212343Y-74037106D01*
X109225051Y-73947780D01*
X109257856Y-73865770D01*
X109304968Y-73805551D01*
X109360550Y-73781598D01*
X109399386Y-73770941D01*
X109391349Y-73741567D01*
X109338656Y-73695521D01*
X109293022Y-73667918D01*
X109248120Y-73661335D01*
X109182686Y-73674063D01*
X109157432Y-73680954D01*
X109014834Y-73744780D01*
X108906353Y-73845906D01*
X108834122Y-73982309D01*
X108831520Y-73989959D01*
X108819169Y-74031904D01*
X108809689Y-74078513D01*
X108802895Y-74136033D01*
X108798604Y-74210711D01*
X108796628Y-74308796D01*
X108796783Y-74436534D01*
X108798884Y-74600173D01*
X108802746Y-74805961D01*
X108804644Y-74896825D01*
X108809592Y-75099047D01*
X108815538Y-75292320D01*
X108822145Y-75468715D01*
X108829078Y-75620302D01*
X108835998Y-75739152D01*
X108842570Y-75817334D01*
X108844284Y-75830736D01*
X108854525Y-75922921D01*
X108857452Y-76001023D01*
X108853850Y-76040286D01*
X108852889Y-76081336D01*
X108865357Y-76092200D01*
X108878902Y-76068818D01*
X108893058Y-76006565D01*
X108905371Y-75917275D01*
X108908632Y-75883652D01*
X108928826Y-75742455D01*
X108961367Y-75619327D01*
X109002568Y-75525035D01*
X109048741Y-75470345D01*
X109050576Y-75469172D01*
X109083083Y-75464067D01*
X109150410Y-75469151D01*
X109255922Y-75484950D01*
X109402985Y-75511989D01*
X109594967Y-75550794D01*
X109659000Y-75564213D01*
X109800792Y-75599327D01*
X109946106Y-75644242D01*
X110082679Y-75694330D01*
X110198253Y-75744965D01*
X110280567Y-75791517D01*
X110299001Y-75805771D01*
X110325365Y-75857038D01*
X110339325Y-75945609D01*
X110340993Y-76059551D01*
X110330482Y-76186933D01*
X110307902Y-76315824D01*
X110293702Y-76371600D01*
X110253892Y-76546889D01*
X110227300Y-76748754D01*
X110213648Y-76982597D01*
X110212655Y-77253821D01*
X110224044Y-77567831D01*
X110228091Y-77641600D01*
X110239111Y-77851606D01*
X110245127Y-78017114D01*
X110246174Y-78144176D01*
X110242285Y-78238841D01*
X110233496Y-78307163D01*
X110231935Y-78314700D01*
X110221915Y-78399021D01*
X110218180Y-78521752D01*
X110220022Y-78671831D01*
X110226734Y-78838195D01*
X110237604Y-79009781D01*
X110251926Y-79175526D01*
X110268991Y-79324367D01*
X110288088Y-79445242D01*
X110308511Y-79527087D01*
X110309840Y-79530720D01*
X110331164Y-79592286D01*
X110340195Y-79628729D01*
X110339512Y-79632583D01*
X110316994Y-79648716D01*
X110267079Y-79686477D01*
X110224860Y-79718939D01*
X110123372Y-79778189D01*
X109988554Y-79829989D01*
X109833691Y-79871885D01*
X109672067Y-79901423D01*
X109516968Y-79916149D01*
X109381677Y-79913609D01*
X109283308Y-79892857D01*
X109194486Y-79844839D01*
X109124801Y-79771777D01*
X109067600Y-79664627D01*
X109023904Y-79540250D01*
X108989436Y-79434698D01*
X108957895Y-79372284D01*
X108919676Y-79346914D01*
X108865173Y-79352494D01*
X108784782Y-79382934D01*
X108779451Y-79385194D01*
X108725167Y-79402342D01*
X108648293Y-79415677D01*
X108541585Y-79425915D01*
X108397795Y-79433774D01*
X108232359Y-79439360D01*
X107783619Y-79451731D01*
X107620177Y-79360329D01*
X107458489Y-79247850D01*
X107329958Y-79106917D01*
X107227886Y-78929465D01*
X107192515Y-78845281D01*
X107133412Y-78624679D01*
X107115202Y-78381098D01*
X107137549Y-78121236D01*
X107200116Y-77851791D01*
X107209716Y-77823722D01*
X108141028Y-77823722D01*
X108142203Y-77883833D01*
X108154903Y-77952756D01*
X108175112Y-78062131D01*
X108193310Y-78181821D01*
X108198831Y-78225800D01*
X108216724Y-78351074D01*
X108244384Y-78506939D01*
X108278335Y-78674944D01*
X108309826Y-78814709D01*
X108338949Y-78887561D01*
X108389632Y-78973508D01*
X108427596Y-79024847D01*
X108481849Y-79086472D01*
X108527809Y-79119339D01*
X108577018Y-79123319D01*
X108641014Y-79098283D01*
X108731337Y-79044102D01*
X108766955Y-79021064D01*
X108903610Y-78932091D01*
X108888278Y-78775795D01*
X108882083Y-78701524D01*
X108873920Y-78587331D01*
X108864498Y-78444024D01*
X108854524Y-78282412D01*
X108844708Y-78113301D01*
X108843896Y-78098800D01*
X108832011Y-77901886D01*
X108819952Y-77749340D01*
X108806090Y-77634752D01*
X108788794Y-77551710D01*
X108766433Y-77493804D01*
X108737377Y-77454621D01*
X108699995Y-77427752D01*
X108669597Y-77413496D01*
X108616731Y-77385543D01*
X108592382Y-77360728D01*
X108592200Y-77359118D01*
X108569755Y-77344778D01*
X108514105Y-77337202D01*
X108496950Y-77336845D01*
X108451777Y-77340417D01*
X108413101Y-77355482D01*
X108375274Y-77388634D01*
X108332648Y-77446468D01*
X108279577Y-77535578D01*
X108210412Y-77662559D01*
X108197887Y-77686056D01*
X108158367Y-77765380D01*
X108141028Y-77823722D01*
X107209716Y-77823722D01*
X107249855Y-77706369D01*
X107330392Y-77516190D01*
X107414894Y-77366482D01*
X107511932Y-77247128D01*
X107630077Y-77148009D01*
X107777898Y-77059005D01*
X107813831Y-77040492D01*
X108038763Y-76927196D01*
X108256710Y-76953855D01*
X108367521Y-76965818D01*
X108439681Y-76968652D01*
X108484589Y-76961928D01*
X108513643Y-76945215D01*
X108514880Y-76944113D01*
X108557178Y-76921953D01*
X108619609Y-76923696D01*
X108656201Y-76931149D01*
X108723622Y-76946057D01*
X108767910Y-76954521D01*
X108773772Y-76955194D01*
X108783910Y-76932267D01*
X108795453Y-76871200D01*
X108806109Y-76784515D01*
X108807344Y-76771650D01*
X108817355Y-76674896D01*
X108827506Y-76594642D01*
X108835685Y-76547496D01*
X108836034Y-76546198D01*
X108827583Y-76508736D01*
X108789050Y-76490243D01*
X108738983Y-76495003D01*
X108705400Y-76516028D01*
X108659218Y-76541325D01*
X108630947Y-76540463D01*
X108594635Y-76548982D01*
X108579088Y-76576096D01*
X108546047Y-76618422D01*
X108495089Y-76618869D01*
X108448871Y-76587500D01*
X108400856Y-76552856D01*
X108369838Y-76564803D01*
X108357659Y-76594772D01*
X108321844Y-76639316D01*
X108249993Y-76667549D01*
X108154068Y-76679794D01*
X108046033Y-76676374D01*
X107937852Y-76657615D01*
X107841486Y-76623839D01*
X107772644Y-76578946D01*
X107735819Y-76539236D01*
X107706666Y-76491481D01*
X107682644Y-76427133D01*
X107661214Y-76337645D01*
X107639835Y-76214468D01*
X107616658Y-76054100D01*
X107590821Y-75855848D01*
X107569307Y-75665753D01*
X107551473Y-75474585D01*
X107536674Y-75273120D01*
X107524266Y-75052128D01*
X107513605Y-74802383D01*
X107504045Y-74514657D01*
X107500483Y-74390400D01*
X107493899Y-74183993D01*
X107485971Y-73987098D01*
X107477133Y-73807425D01*
X107467819Y-73652685D01*
X107458462Y-73530588D01*
X107449497Y-73448845D01*
X107446503Y-73431046D01*
X107430639Y-73327550D01*
X107431725Y-73263367D01*
X107439060Y-73247379D01*
X107471125Y-73238786D01*
X107545549Y-73229628D01*
X107653909Y-73220609D01*
X107787780Y-73212431D01*
X107936794Y-73205866D01*
X108410114Y-73188768D01*
X108588041Y-73261973D01*
X108588041Y-73261973D01*
G37*
X108588041Y-73261973D02*
X108678787Y-73300656D01*
X108733090Y-73330621D01*
X108761799Y-73361706D01*
X108775762Y-73403747D01*
X108781425Y-73437339D01*
X108797189Y-73522925D01*
X108819646Y-73569680D01*
X108860112Y-73583627D01*
X108929906Y-73570791D01*
X108995414Y-73551232D01*
X109123466Y-73517774D01*
X109239363Y-73504576D01*
X109360579Y-73511721D01*
X109504588Y-73539293D01*
X109564390Y-73553984D01*
X109746848Y-73610058D01*
X109881766Y-73672668D01*
X109968422Y-73741179D01*
X110006097Y-73814955D01*
X109994068Y-73893361D01*
X109979300Y-73919791D01*
X109951237Y-73988169D01*
X109937768Y-74070950D01*
X109937592Y-74078356D01*
X109923875Y-74169789D01*
X109888751Y-74235200D01*
X109838726Y-74263111D01*
X109832729Y-74263400D01*
X109782900Y-74279085D01*
X109771755Y-74287804D01*
X109729303Y-74308694D01*
X109643591Y-74327642D01*
X109532000Y-74343118D01*
X109452141Y-74345411D01*
X109399724Y-74332932D01*
X109385897Y-74308376D01*
X109386068Y-74307850D01*
X109373999Y-74274549D01*
X109330290Y-74235595D01*
X109324051Y-74231638D01*
X109264341Y-74179410D01*
X109225517Y-74119275D01*
X109212343Y-74037106D01*
X109225051Y-73947780D01*
X109257856Y-73865770D01*
X109304968Y-73805551D01*
X109360550Y-73781598D01*
X109399386Y-73770941D01*
X109391349Y-73741567D01*
X109338656Y-73695521D01*
X109293022Y-73667918D01*
X109248120Y-73661335D01*
X109182686Y-73674063D01*
X109157432Y-73680954D01*
X109014834Y-73744780D01*
X108906353Y-73845906D01*
X108834122Y-73982309D01*
X108831520Y-73989959D01*
X108819169Y-74031904D01*
X108809689Y-74078513D01*
X108802895Y-74136033D01*
X108798604Y-74210711D01*
X108796628Y-74308796D01*
X108796783Y-74436534D01*
X108798884Y-74600173D01*
X108802746Y-74805961D01*
X108804644Y-74896825D01*
X108809592Y-75099047D01*
X108815538Y-75292320D01*
X108822145Y-75468715D01*
X108829078Y-75620302D01*
X108835998Y-75739152D01*
X108842570Y-75817334D01*
X108844284Y-75830736D01*
X108854525Y-75922921D01*
X108857452Y-76001023D01*
X108853850Y-76040286D01*
X108852889Y-76081336D01*
X108865357Y-76092200D01*
X108878902Y-76068818D01*
X108893058Y-76006565D01*
X108905371Y-75917275D01*
X108908632Y-75883652D01*
X108928826Y-75742455D01*
X108961367Y-75619327D01*
X109002568Y-75525035D01*
X109048741Y-75470345D01*
X109050576Y-75469172D01*
X109083083Y-75464067D01*
X109150410Y-75469151D01*
X109255922Y-75484950D01*
X109402985Y-75511989D01*
X109594967Y-75550794D01*
X109659000Y-75564213D01*
X109800792Y-75599327D01*
X109946106Y-75644242D01*
X110082679Y-75694330D01*
X110198253Y-75744965D01*
X110280567Y-75791517D01*
X110299001Y-75805771D01*
X110325365Y-75857038D01*
X110339325Y-75945609D01*
X110340993Y-76059551D01*
X110330482Y-76186933D01*
X110307902Y-76315824D01*
X110293702Y-76371600D01*
X110253892Y-76546889D01*
X110227300Y-76748754D01*
X110213648Y-76982597D01*
X110212655Y-77253821D01*
X110224044Y-77567831D01*
X110228091Y-77641600D01*
X110239111Y-77851606D01*
X110245127Y-78017114D01*
X110246174Y-78144176D01*
X110242285Y-78238841D01*
X110233496Y-78307163D01*
X110231935Y-78314700D01*
X110221915Y-78399021D01*
X110218180Y-78521752D01*
X110220022Y-78671831D01*
X110226734Y-78838195D01*
X110237604Y-79009781D01*
X110251926Y-79175526D01*
X110268991Y-79324367D01*
X110288088Y-79445242D01*
X110308511Y-79527087D01*
X110309840Y-79530720D01*
X110331164Y-79592286D01*
X110340195Y-79628729D01*
X110339512Y-79632583D01*
X110316994Y-79648716D01*
X110267079Y-79686477D01*
X110224860Y-79718939D01*
X110123372Y-79778189D01*
X109988554Y-79829989D01*
X109833691Y-79871885D01*
X109672067Y-79901423D01*
X109516968Y-79916149D01*
X109381677Y-79913609D01*
X109283308Y-79892857D01*
X109194486Y-79844839D01*
X109124801Y-79771777D01*
X109067600Y-79664627D01*
X109023904Y-79540250D01*
X108989436Y-79434698D01*
X108957895Y-79372284D01*
X108919676Y-79346914D01*
X108865173Y-79352494D01*
X108784782Y-79382934D01*
X108779451Y-79385194D01*
X108725167Y-79402342D01*
X108648293Y-79415677D01*
X108541585Y-79425915D01*
X108397795Y-79433774D01*
X108232359Y-79439360D01*
X107783619Y-79451731D01*
X107620177Y-79360329D01*
X107458489Y-79247850D01*
X107329958Y-79106917D01*
X107227886Y-78929465D01*
X107192515Y-78845281D01*
X107133412Y-78624679D01*
X107115202Y-78381098D01*
X107137549Y-78121236D01*
X107200116Y-77851791D01*
X107209716Y-77823722D01*
X108141028Y-77823722D01*
X108142203Y-77883833D01*
X108154903Y-77952756D01*
X108175112Y-78062131D01*
X108193310Y-78181821D01*
X108198831Y-78225800D01*
X108216724Y-78351074D01*
X108244384Y-78506939D01*
X108278335Y-78674944D01*
X108309826Y-78814709D01*
X108338949Y-78887561D01*
X108389632Y-78973508D01*
X108427596Y-79024847D01*
X108481849Y-79086472D01*
X108527809Y-79119339D01*
X108577018Y-79123319D01*
X108641014Y-79098283D01*
X108731337Y-79044102D01*
X108766955Y-79021064D01*
X108903610Y-78932091D01*
X108888278Y-78775795D01*
X108882083Y-78701524D01*
X108873920Y-78587331D01*
X108864498Y-78444024D01*
X108854524Y-78282412D01*
X108844708Y-78113301D01*
X108843896Y-78098800D01*
X108832011Y-77901886D01*
X108819952Y-77749340D01*
X108806090Y-77634752D01*
X108788794Y-77551710D01*
X108766433Y-77493804D01*
X108737377Y-77454621D01*
X108699995Y-77427752D01*
X108669597Y-77413496D01*
X108616731Y-77385543D01*
X108592382Y-77360728D01*
X108592200Y-77359118D01*
X108569755Y-77344778D01*
X108514105Y-77337202D01*
X108496950Y-77336845D01*
X108451777Y-77340417D01*
X108413101Y-77355482D01*
X108375274Y-77388634D01*
X108332648Y-77446468D01*
X108279577Y-77535578D01*
X108210412Y-77662559D01*
X108197887Y-77686056D01*
X108158367Y-77765380D01*
X108141028Y-77823722D01*
X107209716Y-77823722D01*
X107249855Y-77706369D01*
X107330392Y-77516190D01*
X107414894Y-77366482D01*
X107511932Y-77247128D01*
X107630077Y-77148009D01*
X107777898Y-77059005D01*
X107813831Y-77040492D01*
X108038763Y-76927196D01*
X108256710Y-76953855D01*
X108367521Y-76965818D01*
X108439681Y-76968652D01*
X108484589Y-76961928D01*
X108513643Y-76945215D01*
X108514880Y-76944113D01*
X108557178Y-76921953D01*
X108619609Y-76923696D01*
X108656201Y-76931149D01*
X108723622Y-76946057D01*
X108767910Y-76954521D01*
X108773772Y-76955194D01*
X108783910Y-76932267D01*
X108795453Y-76871200D01*
X108806109Y-76784515D01*
X108807344Y-76771650D01*
X108817355Y-76674896D01*
X108827506Y-76594642D01*
X108835685Y-76547496D01*
X108836034Y-76546198D01*
X108827583Y-76508736D01*
X108789050Y-76490243D01*
X108738983Y-76495003D01*
X108705400Y-76516028D01*
X108659218Y-76541325D01*
X108630947Y-76540463D01*
X108594635Y-76548982D01*
X108579088Y-76576096D01*
X108546047Y-76618422D01*
X108495089Y-76618869D01*
X108448871Y-76587500D01*
X108400856Y-76552856D01*
X108369838Y-76564803D01*
X108357659Y-76594772D01*
X108321844Y-76639316D01*
X108249993Y-76667549D01*
X108154068Y-76679794D01*
X108046033Y-76676374D01*
X107937852Y-76657615D01*
X107841486Y-76623839D01*
X107772644Y-76578946D01*
X107735819Y-76539236D01*
X107706666Y-76491481D01*
X107682644Y-76427133D01*
X107661214Y-76337645D01*
X107639835Y-76214468D01*
X107616658Y-76054100D01*
X107590821Y-75855848D01*
X107569307Y-75665753D01*
X107551473Y-75474585D01*
X107536674Y-75273120D01*
X107524266Y-75052128D01*
X107513605Y-74802383D01*
X107504045Y-74514657D01*
X107500483Y-74390400D01*
X107493899Y-74183993D01*
X107485971Y-73987098D01*
X107477133Y-73807425D01*
X107467819Y-73652685D01*
X107458462Y-73530588D01*
X107449497Y-73448845D01*
X107446503Y-73431046D01*
X107430639Y-73327550D01*
X107431725Y-73263367D01*
X107439060Y-73247379D01*
X107471125Y-73238786D01*
X107545549Y-73229628D01*
X107653909Y-73220609D01*
X107787780Y-73212431D01*
X107936794Y-73205866D01*
X108410114Y-73188768D01*
X108588041Y-73261973D01*
G36*
X114608123Y-70388822D02*
X114686337Y-70420587D01*
X114790285Y-70467841D01*
X114910667Y-70525928D01*
X115038180Y-70590196D01*
X115163523Y-70655988D01*
X115277395Y-70718652D01*
X115370496Y-70773532D01*
X115415307Y-70802715D01*
X115491507Y-70853363D01*
X115567698Y-70901049D01*
X115683726Y-70974105D01*
X115805570Y-71058044D01*
X115936183Y-71155453D01*
X116078514Y-71268924D01*
X116235516Y-71401045D01*
X116410140Y-71554405D01*
X116605337Y-71731595D01*
X116824059Y-71935204D01*
X117069256Y-72167820D01*
X117343881Y-72432035D01*
X117634600Y-72714548D01*
X117844700Y-72919077D01*
X118024420Y-73092827D01*
X118179377Y-73240862D01*
X118315192Y-73368245D01*
X118437485Y-73480037D01*
X118551874Y-73581302D01*
X118663979Y-73677103D01*
X118779421Y-73772501D01*
X118903819Y-73872561D01*
X119035425Y-73976558D01*
X119143571Y-74064443D01*
X119244622Y-74151785D01*
X119327597Y-74228764D01*
X119381517Y-74285556D01*
X119383327Y-74287782D01*
X119443821Y-74350496D01*
X119531318Y-74426002D01*
X119629533Y-74500509D01*
X119656587Y-74519213D01*
X119749111Y-74586928D01*
X119829887Y-74655503D01*
X119885506Y-74713232D01*
X119896536Y-74728690D01*
X119937943Y-74835865D01*
X119943496Y-74950363D01*
X119915059Y-75056623D01*
X119854497Y-75139084D01*
X119846601Y-75145534D01*
X119806868Y-75170124D01*
X119753054Y-75190710D01*
X119679146Y-75208192D01*
X119579131Y-75223471D01*
X119446996Y-75237445D01*
X119276728Y-75251014D01*
X119062314Y-75265078D01*
X119037475Y-75266591D01*
X118868467Y-75277457D01*
X118715955Y-75288459D01*
X118587410Y-75298962D01*
X118490308Y-75308328D01*
X118432121Y-75315920D01*
X118419149Y-75319261D01*
X118419128Y-75345958D01*
X118454146Y-75398038D01*
X118492655Y-75441117D01*
X118555313Y-75512138D01*
X118632257Y-75607587D01*
X118709364Y-75709780D01*
X118728638Y-75736600D01*
X118995032Y-76089322D01*
X119279529Y-76423992D01*
X119574036Y-76731960D01*
X119870460Y-77004578D01*
X120056843Y-77156048D01*
X120188417Y-77259628D01*
X120333307Y-77377614D01*
X120472448Y-77494292D01*
X120570961Y-77579816D01*
X120685097Y-77679538D01*
X120807645Y-77783831D01*
X120921974Y-77878674D01*
X120993518Y-77936107D01*
X121179089Y-78090051D01*
X121360524Y-78258805D01*
X121548057Y-78452369D01*
X121731852Y-78657600D01*
X121828455Y-78767236D01*
X121924875Y-78874131D01*
X122010552Y-78966732D01*
X122074927Y-79033485D01*
X122080097Y-79038600D01*
X122151133Y-79116387D01*
X122230577Y-79216200D01*
X122312139Y-79328505D01*
X122389530Y-79443767D01*
X122456460Y-79552453D01*
X122506639Y-79645031D01*
X122533778Y-79711965D01*
X122536800Y-79730845D01*
X122514847Y-79783347D01*
X122460507Y-79833544D01*
X122391051Y-79868439D01*
X122342837Y-79876800D01*
X122267562Y-79859035D01*
X122181521Y-79812072D01*
X122166674Y-79801306D01*
X122097159Y-79756385D01*
X122035228Y-79728973D01*
X122014272Y-79725106D01*
X121966085Y-79709179D01*
X121924153Y-79686300D01*
X122105000Y-79686300D01*
X122117700Y-79699000D01*
X122130400Y-79686300D01*
X122117700Y-79673600D01*
X122105000Y-79686300D01*
X121924153Y-79686300D01*
X121884662Y-79664753D01*
X121838629Y-79635500D01*
X122409800Y-79635500D01*
X122422500Y-79648200D01*
X122435200Y-79635500D01*
X122422500Y-79622800D01*
X122409800Y-79635500D01*
X121838629Y-79635500D01*
X121775945Y-79595667D01*
X121723333Y-79559300D01*
X121825600Y-79559300D01*
X121838300Y-79572000D01*
X121851000Y-79559300D01*
X121838300Y-79546600D01*
X121825600Y-79559300D01*
X121723333Y-79559300D01*
X121645875Y-79505759D01*
X121580466Y-79457700D01*
X122308200Y-79457700D01*
X122320900Y-79470400D01*
X122333600Y-79457700D01*
X122320900Y-79445000D01*
X122308200Y-79457700D01*
X121580466Y-79457700D01*
X121500394Y-79398869D01*
X121477576Y-79381500D01*
X122257400Y-79381500D01*
X122270100Y-79394200D01*
X122282800Y-79381500D01*
X122270100Y-79368800D01*
X122257400Y-79381500D01*
X121477576Y-79381500D01*
X121449898Y-79360433D01*
X121307283Y-79255657D01*
X121130601Y-79133317D01*
X120930353Y-79000227D01*
X120717040Y-78863203D01*
X120501163Y-78729058D01*
X120293223Y-78604608D01*
X120217919Y-78560959D01*
X120057467Y-78467100D01*
X120174600Y-78467100D01*
X120187300Y-78479800D01*
X120200000Y-78467100D01*
X120187300Y-78454400D01*
X120174600Y-78467100D01*
X120057467Y-78467100D01*
X120014855Y-78442174D01*
X119890724Y-78365500D01*
X119996800Y-78365500D01*
X120009500Y-78378200D01*
X120022200Y-78365500D01*
X120009500Y-78352800D01*
X119996800Y-78365500D01*
X119890724Y-78365500D01*
X119836718Y-78332142D01*
X119671169Y-78222346D01*
X119515992Y-78111500D01*
X119615800Y-78111500D01*
X119628500Y-78124200D01*
X119641200Y-78111500D01*
X119628500Y-78098800D01*
X119615800Y-78111500D01*
X119515992Y-78111500D01*
X119505869Y-78104269D01*
X119328477Y-77969395D01*
X119126653Y-77809207D01*
X119114358Y-77799299D01*
X119003479Y-77711025D01*
X118862892Y-77600838D01*
X118703577Y-77477244D01*
X118669586Y-77451100D01*
X118777600Y-77451100D01*
X118790300Y-77463800D01*
X118803000Y-77451100D01*
X118790300Y-77438400D01*
X118777600Y-77451100D01*
X118669586Y-77451100D01*
X118536512Y-77348747D01*
X118504181Y-77324100D01*
X120149200Y-77324100D01*
X120161900Y-77336800D01*
X120174600Y-77324100D01*
X120161900Y-77311400D01*
X120149200Y-77324100D01*
X118504181Y-77324100D01*
X118372678Y-77223851D01*
X118320400Y-77184276D01*
X118170229Y-77070100D01*
X118269600Y-77070100D01*
X118282300Y-77082800D01*
X118295000Y-77070100D01*
X119819000Y-77070100D01*
X119831700Y-77082800D01*
X119844400Y-77070100D01*
X119831700Y-77057400D01*
X119819000Y-77070100D01*
X118295000Y-77070100D01*
X118282300Y-77057400D01*
X118269600Y-77070100D01*
X118170229Y-77070100D01*
X118168140Y-77068512D01*
X118071122Y-76993900D01*
X118168000Y-76993900D01*
X118180700Y-77006600D01*
X118193400Y-76993900D01*
X118180700Y-76981200D01*
X118168000Y-76993900D01*
X118071122Y-76993900D01*
X118016448Y-76951853D01*
X117972535Y-76917700D01*
X118066400Y-76917700D01*
X118079100Y-76930400D01*
X118091800Y-76917700D01*
X118079100Y-76905000D01*
X118066400Y-76917700D01*
X117972535Y-76917700D01*
X117874312Y-76841308D01*
X117750721Y-76743887D01*
X117654661Y-76666602D01*
X117621900Y-76639495D01*
X117522404Y-76558969D01*
X117423016Y-76483595D01*
X117338696Y-76424509D01*
X117304400Y-76403126D01*
X117235675Y-76361073D01*
X117139627Y-76299031D01*
X117030450Y-76226287D01*
X116948800Y-76170504D01*
X116815994Y-76079500D01*
X116923400Y-76079500D01*
X116936100Y-76092200D01*
X116948800Y-76079500D01*
X116936100Y-76066800D01*
X116923400Y-76079500D01*
X116815994Y-76079500D01*
X116769896Y-76047912D01*
X116615680Y-75945102D01*
X116470001Y-75851646D01*
X116386413Y-75800100D01*
X118676000Y-75800100D01*
X118688700Y-75812800D01*
X118701400Y-75800100D01*
X118688700Y-75787400D01*
X118676000Y-75800100D01*
X116386413Y-75800100D01*
X116345223Y-75774700D01*
X116466200Y-75774700D01*
X116478900Y-75787400D01*
X116491600Y-75774700D01*
X116478900Y-75762000D01*
X116466200Y-75774700D01*
X116345223Y-75774700D01*
X116316705Y-75757114D01*
X116219181Y-75698500D01*
X116339200Y-75698500D01*
X116351900Y-75711200D01*
X116364600Y-75698500D01*
X116351900Y-75685800D01*
X116339200Y-75698500D01*
X116219181Y-75698500D01*
X116199500Y-75686672D01*
X116093044Y-75622300D01*
X116212200Y-75622300D01*
X116224900Y-75635000D01*
X116237600Y-75622300D01*
X116224900Y-75609600D01*
X116212200Y-75622300D01*
X116093044Y-75622300D01*
X116023039Y-75579970D01*
X115969750Y-75546100D01*
X116085200Y-75546100D01*
X116097900Y-75558800D01*
X116110600Y-75546100D01*
X116097900Y-75533400D01*
X116085200Y-75546100D01*
X115969750Y-75546100D01*
X115886363Y-75493100D01*
X115784601Y-75421679D01*
X115721169Y-75368300D01*
X115805800Y-75368300D01*
X115818500Y-75381000D01*
X115831200Y-75368300D01*
X115818500Y-75355600D01*
X115805800Y-75368300D01*
X115721169Y-75368300D01*
X115712881Y-75361326D01*
X115666330Y-75307658D01*
X115645396Y-75266700D01*
X115704200Y-75266700D01*
X115716900Y-75279400D01*
X115729600Y-75266700D01*
X115716900Y-75254000D01*
X115704200Y-75266700D01*
X115645396Y-75266700D01*
X115640076Y-75256292D01*
X115631892Y-75215900D01*
X118752200Y-75215900D01*
X118764900Y-75228600D01*
X118777600Y-75215900D01*
X118764900Y-75203200D01*
X118752200Y-75215900D01*
X115631892Y-75215900D01*
X115629247Y-75202846D01*
X115628094Y-75172711D01*
X115643863Y-75106956D01*
X115683379Y-75025174D01*
X115691753Y-75012700D01*
X115755000Y-75012700D01*
X115767700Y-75025400D01*
X115780400Y-75012700D01*
X115767700Y-75000000D01*
X115755000Y-75012700D01*
X115691753Y-75012700D01*
X115735204Y-74947980D01*
X115777265Y-74903849D01*
X115803197Y-74885700D01*
X115932800Y-74885700D01*
X115945500Y-74898400D01*
X115958200Y-74885700D01*
X115945500Y-74873000D01*
X115932800Y-74885700D01*
X115803197Y-74885700D01*
X115816316Y-74876519D01*
X115867761Y-74850003D01*
X115905907Y-74834900D01*
X116085200Y-74834900D01*
X116097900Y-74847600D01*
X116110600Y-74834900D01*
X116097900Y-74822200D01*
X116085200Y-74834900D01*
X115905907Y-74834900D01*
X115937813Y-74822268D01*
X116032685Y-74791279D01*
X116158593Y-74755005D01*
X116321749Y-74711411D01*
X116522570Y-74659930D01*
X116632865Y-74631700D01*
X116898000Y-74631700D01*
X116910700Y-74644400D01*
X116923400Y-74631700D01*
X116910700Y-74619000D01*
X116898000Y-74631700D01*
X116632865Y-74631700D01*
X116685279Y-74618285D01*
X116828169Y-74580900D01*
X117075800Y-74580900D01*
X117088500Y-74593600D01*
X117101200Y-74580900D01*
X117088500Y-74568200D01*
X117075800Y-74580900D01*
X116828169Y-74580900D01*
X116835080Y-74579092D01*
X116963629Y-74544602D01*
X117062579Y-74517067D01*
X117123587Y-74498737D01*
X117134663Y-74494822D01*
X117206226Y-74466554D01*
X117155415Y-74396727D01*
X117116451Y-74347360D01*
X117099330Y-74326900D01*
X117177400Y-74326900D01*
X117190100Y-74339600D01*
X117202800Y-74326900D01*
X117190100Y-74314200D01*
X117177400Y-74326900D01*
X117099330Y-74326900D01*
X117053889Y-74272601D01*
X116978150Y-74184788D01*
X116935543Y-74136400D01*
X116859959Y-74047500D01*
X119006200Y-74047500D01*
X119018900Y-74060200D01*
X119031600Y-74047500D01*
X119018900Y-74034800D01*
X119006200Y-74047500D01*
X116859959Y-74047500D01*
X116763449Y-73933990D01*
X116712296Y-73869700D01*
X118777600Y-73869700D01*
X118790300Y-73882400D01*
X118803000Y-73869700D01*
X118790300Y-73857000D01*
X118777600Y-73869700D01*
X116712296Y-73869700D01*
X116575639Y-73697949D01*
X116380530Y-73439349D01*
X116186535Y-73169261D01*
X116054568Y-72977306D01*
X115935605Y-72802900D01*
X116009000Y-72802900D01*
X116021700Y-72815600D01*
X116034400Y-72802900D01*
X116021700Y-72790200D01*
X116009000Y-72802900D01*
X115935605Y-72802900D01*
X115934570Y-72801384D01*
X115881536Y-72726700D01*
X115958200Y-72726700D01*
X115970900Y-72739400D01*
X115983600Y-72726700D01*
X115970900Y-72714000D01*
X115958200Y-72726700D01*
X115881536Y-72726700D01*
X115831490Y-72656225D01*
X115735453Y-72529431D01*
X115636587Y-72408605D01*
X115525019Y-72281348D01*
X115467492Y-72218700D01*
X115551800Y-72218700D01*
X115564500Y-72231400D01*
X115577200Y-72218700D01*
X115564500Y-72206000D01*
X115551800Y-72218700D01*
X115467492Y-72218700D01*
X115390874Y-72135262D01*
X115344383Y-72085518D01*
X115165128Y-71884112D01*
X115148181Y-71863100D01*
X115221600Y-71863100D01*
X115234300Y-71875800D01*
X115247000Y-71863100D01*
X115234300Y-71850400D01*
X115221600Y-71863100D01*
X115148181Y-71863100D01*
X115004778Y-71685300D01*
X116440800Y-71685300D01*
X116453500Y-71698000D01*
X116466200Y-71685300D01*
X116453500Y-71672600D01*
X116440800Y-71685300D01*
X115004778Y-71685300D01*
X114983861Y-71659366D01*
X114794611Y-71403529D01*
X114621091Y-71151900D01*
X114688200Y-71151900D01*
X114700900Y-71164600D01*
X114713600Y-71151900D01*
X114700900Y-71139200D01*
X114688200Y-71151900D01*
X114621091Y-71151900D01*
X114591405Y-71108852D01*
X114588540Y-71104573D01*
X114586267Y-71101100D01*
X115729600Y-71101100D01*
X115742300Y-71113800D01*
X115755000Y-71101100D01*
X115742300Y-71088400D01*
X115729600Y-71101100D01*
X114586267Y-71101100D01*
X114569641Y-71075700D01*
X114637400Y-71075700D01*
X114650100Y-71088400D01*
X114662800Y-71075700D01*
X114650100Y-71063000D01*
X114637400Y-71075700D01*
X114569641Y-71075700D01*
X114489154Y-70952737D01*
X114471364Y-70923300D01*
X114535800Y-70923300D01*
X114548500Y-70936000D01*
X114561200Y-70923300D01*
X114548500Y-70910600D01*
X114535800Y-70923300D01*
X114471364Y-70923300D01*
X114417724Y-70834544D01*
X114385219Y-70770900D01*
X115221600Y-70770900D01*
X115234300Y-70783600D01*
X115247000Y-70770900D01*
X115234300Y-70758200D01*
X115221600Y-70770900D01*
X114385219Y-70770900D01*
X114371181Y-70743415D01*
X114354130Y-70694700D01*
X114408800Y-70694700D01*
X114421500Y-70707400D01*
X114434200Y-70694700D01*
X114421500Y-70682000D01*
X114408800Y-70694700D01*
X114354130Y-70694700D01*
X114346453Y-70672769D01*
X114340471Y-70616024D01*
X114345263Y-70583142D01*
X114376177Y-70516900D01*
X114739000Y-70516900D01*
X114751700Y-70529600D01*
X114764400Y-70516900D01*
X114751700Y-70504200D01*
X114739000Y-70516900D01*
X114376177Y-70516900D01*
X114383569Y-70501061D01*
X114447304Y-70430511D01*
X114521261Y-70385750D01*
X114564944Y-70377199D01*
X114608123Y-70388822D01*
X114608123Y-70388822D01*
G37*
X114608123Y-70388822D02*
X114686337Y-70420587D01*
X114790285Y-70467841D01*
X114910667Y-70525928D01*
X115038180Y-70590196D01*
X115163523Y-70655988D01*
X115277395Y-70718652D01*
X115370496Y-70773532D01*
X115415307Y-70802715D01*
X115491507Y-70853363D01*
X115567698Y-70901049D01*
X115683726Y-70974105D01*
X115805570Y-71058044D01*
X115936183Y-71155453D01*
X116078514Y-71268924D01*
X116235516Y-71401045D01*
X116410140Y-71554405D01*
X116605337Y-71731595D01*
X116824059Y-71935204D01*
X117069256Y-72167820D01*
X117343881Y-72432035D01*
X117634600Y-72714548D01*
X117844700Y-72919077D01*
X118024420Y-73092827D01*
X118179377Y-73240862D01*
X118315192Y-73368245D01*
X118437485Y-73480037D01*
X118551874Y-73581302D01*
X118663979Y-73677103D01*
X118779421Y-73772501D01*
X118903819Y-73872561D01*
X119035425Y-73976558D01*
X119143571Y-74064443D01*
X119244622Y-74151785D01*
X119327597Y-74228764D01*
X119381517Y-74285556D01*
X119383327Y-74287782D01*
X119443821Y-74350496D01*
X119531318Y-74426002D01*
X119629533Y-74500509D01*
X119656587Y-74519213D01*
X119749111Y-74586928D01*
X119829887Y-74655503D01*
X119885506Y-74713232D01*
X119896536Y-74728690D01*
X119937943Y-74835865D01*
X119943496Y-74950363D01*
X119915059Y-75056623D01*
X119854497Y-75139084D01*
X119846601Y-75145534D01*
X119806868Y-75170124D01*
X119753054Y-75190710D01*
X119679146Y-75208192D01*
X119579131Y-75223471D01*
X119446996Y-75237445D01*
X119276728Y-75251014D01*
X119062314Y-75265078D01*
X119037475Y-75266591D01*
X118868467Y-75277457D01*
X118715955Y-75288459D01*
X118587410Y-75298962D01*
X118490308Y-75308328D01*
X118432121Y-75315920D01*
X118419149Y-75319261D01*
X118419128Y-75345958D01*
X118454146Y-75398038D01*
X118492655Y-75441117D01*
X118555313Y-75512138D01*
X118632257Y-75607587D01*
X118709364Y-75709780D01*
X118728638Y-75736600D01*
X118995032Y-76089322D01*
X119279529Y-76423992D01*
X119574036Y-76731960D01*
X119870460Y-77004578D01*
X120056843Y-77156048D01*
X120188417Y-77259628D01*
X120333307Y-77377614D01*
X120472448Y-77494292D01*
X120570961Y-77579816D01*
X120685097Y-77679538D01*
X120807645Y-77783831D01*
X120921974Y-77878674D01*
X120993518Y-77936107D01*
X121179089Y-78090051D01*
X121360524Y-78258805D01*
X121548057Y-78452369D01*
X121731852Y-78657600D01*
X121828455Y-78767236D01*
X121924875Y-78874131D01*
X122010552Y-78966732D01*
X122074927Y-79033485D01*
X122080097Y-79038600D01*
X122151133Y-79116387D01*
X122230577Y-79216200D01*
X122312139Y-79328505D01*
X122389530Y-79443767D01*
X122456460Y-79552453D01*
X122506639Y-79645031D01*
X122533778Y-79711965D01*
X122536800Y-79730845D01*
X122514847Y-79783347D01*
X122460507Y-79833544D01*
X122391051Y-79868439D01*
X122342837Y-79876800D01*
X122267562Y-79859035D01*
X122181521Y-79812072D01*
X122166674Y-79801306D01*
X122097159Y-79756385D01*
X122035228Y-79728973D01*
X122014272Y-79725106D01*
X121966085Y-79709179D01*
X121924153Y-79686300D01*
X122105000Y-79686300D01*
X122117700Y-79699000D01*
X122130400Y-79686300D01*
X122117700Y-79673600D01*
X122105000Y-79686300D01*
X121924153Y-79686300D01*
X121884662Y-79664753D01*
X121838629Y-79635500D01*
X122409800Y-79635500D01*
X122422500Y-79648200D01*
X122435200Y-79635500D01*
X122422500Y-79622800D01*
X122409800Y-79635500D01*
X121838629Y-79635500D01*
X121775945Y-79595667D01*
X121723333Y-79559300D01*
X121825600Y-79559300D01*
X121838300Y-79572000D01*
X121851000Y-79559300D01*
X121838300Y-79546600D01*
X121825600Y-79559300D01*
X121723333Y-79559300D01*
X121645875Y-79505759D01*
X121580466Y-79457700D01*
X122308200Y-79457700D01*
X122320900Y-79470400D01*
X122333600Y-79457700D01*
X122320900Y-79445000D01*
X122308200Y-79457700D01*
X121580466Y-79457700D01*
X121500394Y-79398869D01*
X121477576Y-79381500D01*
X122257400Y-79381500D01*
X122270100Y-79394200D01*
X122282800Y-79381500D01*
X122270100Y-79368800D01*
X122257400Y-79381500D01*
X121477576Y-79381500D01*
X121449898Y-79360433D01*
X121307283Y-79255657D01*
X121130601Y-79133317D01*
X120930353Y-79000227D01*
X120717040Y-78863203D01*
X120501163Y-78729058D01*
X120293223Y-78604608D01*
X120217919Y-78560959D01*
X120057467Y-78467100D01*
X120174600Y-78467100D01*
X120187300Y-78479800D01*
X120200000Y-78467100D01*
X120187300Y-78454400D01*
X120174600Y-78467100D01*
X120057467Y-78467100D01*
X120014855Y-78442174D01*
X119890724Y-78365500D01*
X119996800Y-78365500D01*
X120009500Y-78378200D01*
X120022200Y-78365500D01*
X120009500Y-78352800D01*
X119996800Y-78365500D01*
X119890724Y-78365500D01*
X119836718Y-78332142D01*
X119671169Y-78222346D01*
X119515992Y-78111500D01*
X119615800Y-78111500D01*
X119628500Y-78124200D01*
X119641200Y-78111500D01*
X119628500Y-78098800D01*
X119615800Y-78111500D01*
X119515992Y-78111500D01*
X119505869Y-78104269D01*
X119328477Y-77969395D01*
X119126653Y-77809207D01*
X119114358Y-77799299D01*
X119003479Y-77711025D01*
X118862892Y-77600838D01*
X118703577Y-77477244D01*
X118669586Y-77451100D01*
X118777600Y-77451100D01*
X118790300Y-77463800D01*
X118803000Y-77451100D01*
X118790300Y-77438400D01*
X118777600Y-77451100D01*
X118669586Y-77451100D01*
X118536512Y-77348747D01*
X118504181Y-77324100D01*
X120149200Y-77324100D01*
X120161900Y-77336800D01*
X120174600Y-77324100D01*
X120161900Y-77311400D01*
X120149200Y-77324100D01*
X118504181Y-77324100D01*
X118372678Y-77223851D01*
X118320400Y-77184276D01*
X118170229Y-77070100D01*
X118269600Y-77070100D01*
X118282300Y-77082800D01*
X118295000Y-77070100D01*
X119819000Y-77070100D01*
X119831700Y-77082800D01*
X119844400Y-77070100D01*
X119831700Y-77057400D01*
X119819000Y-77070100D01*
X118295000Y-77070100D01*
X118282300Y-77057400D01*
X118269600Y-77070100D01*
X118170229Y-77070100D01*
X118168140Y-77068512D01*
X118071122Y-76993900D01*
X118168000Y-76993900D01*
X118180700Y-77006600D01*
X118193400Y-76993900D01*
X118180700Y-76981200D01*
X118168000Y-76993900D01*
X118071122Y-76993900D01*
X118016448Y-76951853D01*
X117972535Y-76917700D01*
X118066400Y-76917700D01*
X118079100Y-76930400D01*
X118091800Y-76917700D01*
X118079100Y-76905000D01*
X118066400Y-76917700D01*
X117972535Y-76917700D01*
X117874312Y-76841308D01*
X117750721Y-76743887D01*
X117654661Y-76666602D01*
X117621900Y-76639495D01*
X117522404Y-76558969D01*
X117423016Y-76483595D01*
X117338696Y-76424509D01*
X117304400Y-76403126D01*
X117235675Y-76361073D01*
X117139627Y-76299031D01*
X117030450Y-76226287D01*
X116948800Y-76170504D01*
X116815994Y-76079500D01*
X116923400Y-76079500D01*
X116936100Y-76092200D01*
X116948800Y-76079500D01*
X116936100Y-76066800D01*
X116923400Y-76079500D01*
X116815994Y-76079500D01*
X116769896Y-76047912D01*
X116615680Y-75945102D01*
X116470001Y-75851646D01*
X116386413Y-75800100D01*
X118676000Y-75800100D01*
X118688700Y-75812800D01*
X118701400Y-75800100D01*
X118688700Y-75787400D01*
X118676000Y-75800100D01*
X116386413Y-75800100D01*
X116345223Y-75774700D01*
X116466200Y-75774700D01*
X116478900Y-75787400D01*
X116491600Y-75774700D01*
X116478900Y-75762000D01*
X116466200Y-75774700D01*
X116345223Y-75774700D01*
X116316705Y-75757114D01*
X116219181Y-75698500D01*
X116339200Y-75698500D01*
X116351900Y-75711200D01*
X116364600Y-75698500D01*
X116351900Y-75685800D01*
X116339200Y-75698500D01*
X116219181Y-75698500D01*
X116199500Y-75686672D01*
X116093044Y-75622300D01*
X116212200Y-75622300D01*
X116224900Y-75635000D01*
X116237600Y-75622300D01*
X116224900Y-75609600D01*
X116212200Y-75622300D01*
X116093044Y-75622300D01*
X116023039Y-75579970D01*
X115969750Y-75546100D01*
X116085200Y-75546100D01*
X116097900Y-75558800D01*
X116110600Y-75546100D01*
X116097900Y-75533400D01*
X116085200Y-75546100D01*
X115969750Y-75546100D01*
X115886363Y-75493100D01*
X115784601Y-75421679D01*
X115721169Y-75368300D01*
X115805800Y-75368300D01*
X115818500Y-75381000D01*
X115831200Y-75368300D01*
X115818500Y-75355600D01*
X115805800Y-75368300D01*
X115721169Y-75368300D01*
X115712881Y-75361326D01*
X115666330Y-75307658D01*
X115645396Y-75266700D01*
X115704200Y-75266700D01*
X115716900Y-75279400D01*
X115729600Y-75266700D01*
X115716900Y-75254000D01*
X115704200Y-75266700D01*
X115645396Y-75266700D01*
X115640076Y-75256292D01*
X115631892Y-75215900D01*
X118752200Y-75215900D01*
X118764900Y-75228600D01*
X118777600Y-75215900D01*
X118764900Y-75203200D01*
X118752200Y-75215900D01*
X115631892Y-75215900D01*
X115629247Y-75202846D01*
X115628094Y-75172711D01*
X115643863Y-75106956D01*
X115683379Y-75025174D01*
X115691753Y-75012700D01*
X115755000Y-75012700D01*
X115767700Y-75025400D01*
X115780400Y-75012700D01*
X115767700Y-75000000D01*
X115755000Y-75012700D01*
X115691753Y-75012700D01*
X115735204Y-74947980D01*
X115777265Y-74903849D01*
X115803197Y-74885700D01*
X115932800Y-74885700D01*
X115945500Y-74898400D01*
X115958200Y-74885700D01*
X115945500Y-74873000D01*
X115932800Y-74885700D01*
X115803197Y-74885700D01*
X115816316Y-74876519D01*
X115867761Y-74850003D01*
X115905907Y-74834900D01*
X116085200Y-74834900D01*
X116097900Y-74847600D01*
X116110600Y-74834900D01*
X116097900Y-74822200D01*
X116085200Y-74834900D01*
X115905907Y-74834900D01*
X115937813Y-74822268D01*
X116032685Y-74791279D01*
X116158593Y-74755005D01*
X116321749Y-74711411D01*
X116522570Y-74659930D01*
X116632865Y-74631700D01*
X116898000Y-74631700D01*
X116910700Y-74644400D01*
X116923400Y-74631700D01*
X116910700Y-74619000D01*
X116898000Y-74631700D01*
X116632865Y-74631700D01*
X116685279Y-74618285D01*
X116828169Y-74580900D01*
X117075800Y-74580900D01*
X117088500Y-74593600D01*
X117101200Y-74580900D01*
X117088500Y-74568200D01*
X117075800Y-74580900D01*
X116828169Y-74580900D01*
X116835080Y-74579092D01*
X116963629Y-74544602D01*
X117062579Y-74517067D01*
X117123587Y-74498737D01*
X117134663Y-74494822D01*
X117206226Y-74466554D01*
X117155415Y-74396727D01*
X117116451Y-74347360D01*
X117099330Y-74326900D01*
X117177400Y-74326900D01*
X117190100Y-74339600D01*
X117202800Y-74326900D01*
X117190100Y-74314200D01*
X117177400Y-74326900D01*
X117099330Y-74326900D01*
X117053889Y-74272601D01*
X116978150Y-74184788D01*
X116935543Y-74136400D01*
X116859959Y-74047500D01*
X119006200Y-74047500D01*
X119018900Y-74060200D01*
X119031600Y-74047500D01*
X119018900Y-74034800D01*
X119006200Y-74047500D01*
X116859959Y-74047500D01*
X116763449Y-73933990D01*
X116712296Y-73869700D01*
X118777600Y-73869700D01*
X118790300Y-73882400D01*
X118803000Y-73869700D01*
X118790300Y-73857000D01*
X118777600Y-73869700D01*
X116712296Y-73869700D01*
X116575639Y-73697949D01*
X116380530Y-73439349D01*
X116186535Y-73169261D01*
X116054568Y-72977306D01*
X115935605Y-72802900D01*
X116009000Y-72802900D01*
X116021700Y-72815600D01*
X116034400Y-72802900D01*
X116021700Y-72790200D01*
X116009000Y-72802900D01*
X115935605Y-72802900D01*
X115934570Y-72801384D01*
X115881536Y-72726700D01*
X115958200Y-72726700D01*
X115970900Y-72739400D01*
X115983600Y-72726700D01*
X115970900Y-72714000D01*
X115958200Y-72726700D01*
X115881536Y-72726700D01*
X115831490Y-72656225D01*
X115735453Y-72529431D01*
X115636587Y-72408605D01*
X115525019Y-72281348D01*
X115467492Y-72218700D01*
X115551800Y-72218700D01*
X115564500Y-72231400D01*
X115577200Y-72218700D01*
X115564500Y-72206000D01*
X115551800Y-72218700D01*
X115467492Y-72218700D01*
X115390874Y-72135262D01*
X115344383Y-72085518D01*
X115165128Y-71884112D01*
X115148181Y-71863100D01*
X115221600Y-71863100D01*
X115234300Y-71875800D01*
X115247000Y-71863100D01*
X115234300Y-71850400D01*
X115221600Y-71863100D01*
X115148181Y-71863100D01*
X115004778Y-71685300D01*
X116440800Y-71685300D01*
X116453500Y-71698000D01*
X116466200Y-71685300D01*
X116453500Y-71672600D01*
X116440800Y-71685300D01*
X115004778Y-71685300D01*
X114983861Y-71659366D01*
X114794611Y-71403529D01*
X114621091Y-71151900D01*
X114688200Y-71151900D01*
X114700900Y-71164600D01*
X114713600Y-71151900D01*
X114700900Y-71139200D01*
X114688200Y-71151900D01*
X114621091Y-71151900D01*
X114591405Y-71108852D01*
X114588540Y-71104573D01*
X114586267Y-71101100D01*
X115729600Y-71101100D01*
X115742300Y-71113800D01*
X115755000Y-71101100D01*
X115742300Y-71088400D01*
X115729600Y-71101100D01*
X114586267Y-71101100D01*
X114569641Y-71075700D01*
X114637400Y-71075700D01*
X114650100Y-71088400D01*
X114662800Y-71075700D01*
X114650100Y-71063000D01*
X114637400Y-71075700D01*
X114569641Y-71075700D01*
X114489154Y-70952737D01*
X114471364Y-70923300D01*
X114535800Y-70923300D01*
X114548500Y-70936000D01*
X114561200Y-70923300D01*
X114548500Y-70910600D01*
X114535800Y-70923300D01*
X114471364Y-70923300D01*
X114417724Y-70834544D01*
X114385219Y-70770900D01*
X115221600Y-70770900D01*
X115234300Y-70783600D01*
X115247000Y-70770900D01*
X115234300Y-70758200D01*
X115221600Y-70770900D01*
X114385219Y-70770900D01*
X114371181Y-70743415D01*
X114354130Y-70694700D01*
X114408800Y-70694700D01*
X114421500Y-70707400D01*
X114434200Y-70694700D01*
X114421500Y-70682000D01*
X114408800Y-70694700D01*
X114354130Y-70694700D01*
X114346453Y-70672769D01*
X114340471Y-70616024D01*
X114345263Y-70583142D01*
X114376177Y-70516900D01*
X114739000Y-70516900D01*
X114751700Y-70529600D01*
X114764400Y-70516900D01*
X114751700Y-70504200D01*
X114739000Y-70516900D01*
X114376177Y-70516900D01*
X114383569Y-70501061D01*
X114447304Y-70430511D01*
X114521261Y-70385750D01*
X114564944Y-70377199D01*
X114608123Y-70388822D01*
G36*
X114112634Y-76617028D02*
X114212952Y-76623793D01*
X114348975Y-76636071D01*
X114523100Y-76653481D01*
X114786332Y-76691397D01*
X115007674Y-76746633D01*
X115185791Y-76818447D01*
X115319348Y-76906099D01*
X115407011Y-77008846D01*
X115447447Y-77125950D01*
X115450200Y-77168348D01*
X115452933Y-77228462D01*
X115459684Y-77259458D01*
X115461448Y-77260600D01*
X115488439Y-77248914D01*
X115541495Y-77219884D01*
X115558016Y-77210260D01*
X115619846Y-77183589D01*
X115714374Y-77153845D01*
X115827495Y-77124238D01*
X115945106Y-77097984D01*
X116053106Y-77078296D01*
X116137392Y-77068387D01*
X116176592Y-77069312D01*
X116406732Y-77114814D01*
X116592849Y-77156010D01*
X116741337Y-77194815D01*
X116858590Y-77233140D01*
X116951003Y-77272897D01*
X117024970Y-77316001D01*
X117042355Y-77328275D01*
X117104001Y-77366726D01*
X117154184Y-77386773D01*
X117161712Y-77387600D01*
X117201836Y-77407678D01*
X117251240Y-77456954D01*
X117296887Y-77518991D01*
X117325741Y-77577349D01*
X117329800Y-77599547D01*
X117348642Y-77635688D01*
X117368230Y-77641600D01*
X117407238Y-77665714D01*
X117445063Y-77732918D01*
X117480038Y-77835506D01*
X117510498Y-77965769D01*
X117534775Y-78116001D01*
X117551202Y-78278493D01*
X117558113Y-78445539D01*
X117557723Y-78517900D01*
X117557891Y-78623102D01*
X117561435Y-78757207D01*
X117567677Y-78898479D01*
X117571708Y-78966691D01*
X117578901Y-79089540D01*
X117580318Y-79176046D01*
X117574279Y-79240500D01*
X117559108Y-79297194D01*
X117533127Y-79360419D01*
X117522811Y-79383150D01*
X117483859Y-79478290D01*
X117453294Y-79570994D01*
X117441189Y-79622579D01*
X117408493Y-79702624D01*
X117347515Y-79766548D01*
X117274083Y-79799133D01*
X117256030Y-79800600D01*
X117230262Y-79784271D01*
X117234309Y-79746393D01*
X117264513Y-79703627D01*
X117280118Y-79690915D01*
X117315185Y-79663418D01*
X117305861Y-79650542D01*
X117268691Y-79642440D01*
X117208668Y-79649273D01*
X117174880Y-79698628D01*
X117166265Y-79760256D01*
X117151104Y-79808060D01*
X117116145Y-79812301D01*
X117075800Y-79778035D01*
X117036068Y-79746038D01*
X116985285Y-79751762D01*
X116974200Y-79755928D01*
X116908627Y-79770394D01*
X116819959Y-79776019D01*
X116725460Y-79773460D01*
X116642397Y-79763372D01*
X116588032Y-79746412D01*
X116580746Y-79740975D01*
X116525709Y-79663240D01*
X116470129Y-79543118D01*
X116416969Y-79388900D01*
X116369193Y-79208879D01*
X116339374Y-79065685D01*
X116319781Y-78929674D01*
X116313763Y-78813240D01*
X116321045Y-78725191D01*
X116341348Y-78674334D01*
X116351900Y-78666785D01*
X116382902Y-78643575D01*
X116388553Y-78619216D01*
X116364563Y-78612979D01*
X116363842Y-78613149D01*
X116352895Y-78590931D01*
X116343963Y-78519578D01*
X116337166Y-78400719D01*
X116332626Y-78235986D01*
X116331768Y-78181350D01*
X116330314Y-78016112D01*
X116331313Y-77895760D01*
X116335128Y-77814420D01*
X116342122Y-77766220D01*
X116352658Y-77745289D01*
X116358819Y-77743200D01*
X116378833Y-77732915D01*
X116365833Y-77694746D01*
X116363907Y-77691105D01*
X116347569Y-77639683D01*
X116332087Y-77556132D01*
X116321366Y-77464139D01*
X116306705Y-77289266D01*
X116202302Y-77270438D01*
X116058394Y-77257166D01*
X115946311Y-77276229D01*
X115920100Y-77287172D01*
X115867117Y-77309330D01*
X115788092Y-77338888D01*
X115739521Y-77355937D01*
X115641761Y-77399930D01*
X115546342Y-77459232D01*
X115513956Y-77484984D01*
X115418171Y-77569668D01*
X115436488Y-77915320D01*
X115446273Y-78082983D01*
X115457063Y-78216710D01*
X115471255Y-78333344D01*
X115491248Y-78449729D01*
X115519438Y-78582710D01*
X115550622Y-78717086D01*
X115576412Y-78833963D01*
X115598223Y-78947137D01*
X115612335Y-79036853D01*
X115614535Y-79056493D01*
X115629605Y-79136715D01*
X115654507Y-79200415D01*
X115664483Y-79214614D01*
X115684584Y-79244014D01*
X115682468Y-79275672D01*
X115654333Y-79324037D01*
X115624932Y-79364979D01*
X115571088Y-79430094D01*
X115529781Y-79457361D01*
X115495689Y-79456014D01*
X115432702Y-79447649D01*
X115357137Y-79452784D01*
X115285791Y-79468104D01*
X115235462Y-79490300D01*
X115221600Y-79510056D01*
X115204809Y-79541538D01*
X115165732Y-79541316D01*
X115121309Y-79509962D01*
X115118393Y-79506564D01*
X115098330Y-79470542D01*
X115119087Y-79445090D01*
X115121633Y-79443453D01*
X115143665Y-79424759D01*
X115118388Y-79420007D01*
X115116760Y-79419988D01*
X115072521Y-79433943D01*
X115038647Y-79465502D01*
X115031189Y-79497963D01*
X115035553Y-79504487D01*
X115032771Y-79519830D01*
X115022288Y-79521200D01*
X114972011Y-79506939D01*
X114910231Y-79473936D01*
X114863717Y-79436856D01*
X114860038Y-79432300D01*
X114843593Y-79426257D01*
X114840988Y-79441428D01*
X114837159Y-79457340D01*
X114820587Y-79465218D01*
X114782976Y-79464546D01*
X114716029Y-79454809D01*
X114611452Y-79435492D01*
X114548500Y-79423262D01*
X114466814Y-79405789D01*
X114402044Y-79389313D01*
X114382055Y-79382815D01*
X114333080Y-79342097D01*
X114288124Y-79270545D01*
X114257724Y-79187706D01*
X114250812Y-79139374D01*
X114245531Y-79090441D01*
X114235712Y-79076283D01*
X114235168Y-79076765D01*
X114216273Y-79066928D01*
X114189291Y-79012278D01*
X114156053Y-78917821D01*
X114118392Y-78788567D01*
X114091103Y-78683000D01*
X114045431Y-78472802D01*
X114002862Y-78229169D01*
X113965776Y-77969458D01*
X113936552Y-77711029D01*
X113917570Y-77471239D01*
X113913499Y-77387600D01*
X113905532Y-77207641D01*
X113896280Y-77062531D01*
X113884396Y-76936316D01*
X113868539Y-76813044D01*
X113860645Y-76760087D01*
X113858830Y-76698728D01*
X113886142Y-76661561D01*
X113918912Y-76642339D01*
X113951161Y-76628431D01*
X113989214Y-76619485D01*
X114040547Y-76615638D01*
X114112634Y-76617028D01*
X114112634Y-76617028D01*
G37*
X114112634Y-76617028D02*
X114212952Y-76623793D01*
X114348975Y-76636071D01*
X114523100Y-76653481D01*
X114786332Y-76691397D01*
X115007674Y-76746633D01*
X115185791Y-76818447D01*
X115319348Y-76906099D01*
X115407011Y-77008846D01*
X115447447Y-77125950D01*
X115450200Y-77168348D01*
X115452933Y-77228462D01*
X115459684Y-77259458D01*
X115461448Y-77260600D01*
X115488439Y-77248914D01*
X115541495Y-77219884D01*
X115558016Y-77210260D01*
X115619846Y-77183589D01*
X115714374Y-77153845D01*
X115827495Y-77124238D01*
X115945106Y-77097984D01*
X116053106Y-77078296D01*
X116137392Y-77068387D01*
X116176592Y-77069312D01*
X116406732Y-77114814D01*
X116592849Y-77156010D01*
X116741337Y-77194815D01*
X116858590Y-77233140D01*
X116951003Y-77272897D01*
X117024970Y-77316001D01*
X117042355Y-77328275D01*
X117104001Y-77366726D01*
X117154184Y-77386773D01*
X117161712Y-77387600D01*
X117201836Y-77407678D01*
X117251240Y-77456954D01*
X117296887Y-77518991D01*
X117325741Y-77577349D01*
X117329800Y-77599547D01*
X117348642Y-77635688D01*
X117368230Y-77641600D01*
X117407238Y-77665714D01*
X117445063Y-77732918D01*
X117480038Y-77835506D01*
X117510498Y-77965769D01*
X117534775Y-78116001D01*
X117551202Y-78278493D01*
X117558113Y-78445539D01*
X117557723Y-78517900D01*
X117557891Y-78623102D01*
X117561435Y-78757207D01*
X117567677Y-78898479D01*
X117571708Y-78966691D01*
X117578901Y-79089540D01*
X117580318Y-79176046D01*
X117574279Y-79240500D01*
X117559108Y-79297194D01*
X117533127Y-79360419D01*
X117522811Y-79383150D01*
X117483859Y-79478290D01*
X117453294Y-79570994D01*
X117441189Y-79622579D01*
X117408493Y-79702624D01*
X117347515Y-79766548D01*
X117274083Y-79799133D01*
X117256030Y-79800600D01*
X117230262Y-79784271D01*
X117234309Y-79746393D01*
X117264513Y-79703627D01*
X117280118Y-79690915D01*
X117315185Y-79663418D01*
X117305861Y-79650542D01*
X117268691Y-79642440D01*
X117208668Y-79649273D01*
X117174880Y-79698628D01*
X117166265Y-79760256D01*
X117151104Y-79808060D01*
X117116145Y-79812301D01*
X117075800Y-79778035D01*
X117036068Y-79746038D01*
X116985285Y-79751762D01*
X116974200Y-79755928D01*
X116908627Y-79770394D01*
X116819959Y-79776019D01*
X116725460Y-79773460D01*
X116642397Y-79763372D01*
X116588032Y-79746412D01*
X116580746Y-79740975D01*
X116525709Y-79663240D01*
X116470129Y-79543118D01*
X116416969Y-79388900D01*
X116369193Y-79208879D01*
X116339374Y-79065685D01*
X116319781Y-78929674D01*
X116313763Y-78813240D01*
X116321045Y-78725191D01*
X116341348Y-78674334D01*
X116351900Y-78666785D01*
X116382902Y-78643575D01*
X116388553Y-78619216D01*
X116364563Y-78612979D01*
X116363842Y-78613149D01*
X116352895Y-78590931D01*
X116343963Y-78519578D01*
X116337166Y-78400719D01*
X116332626Y-78235986D01*
X116331768Y-78181350D01*
X116330314Y-78016112D01*
X116331313Y-77895760D01*
X116335128Y-77814420D01*
X116342122Y-77766220D01*
X116352658Y-77745289D01*
X116358819Y-77743200D01*
X116378833Y-77732915D01*
X116365833Y-77694746D01*
X116363907Y-77691105D01*
X116347569Y-77639683D01*
X116332087Y-77556132D01*
X116321366Y-77464139D01*
X116306705Y-77289266D01*
X116202302Y-77270438D01*
X116058394Y-77257166D01*
X115946311Y-77276229D01*
X115920100Y-77287172D01*
X115867117Y-77309330D01*
X115788092Y-77338888D01*
X115739521Y-77355937D01*
X115641761Y-77399930D01*
X115546342Y-77459232D01*
X115513956Y-77484984D01*
X115418171Y-77569668D01*
X115436488Y-77915320D01*
X115446273Y-78082983D01*
X115457063Y-78216710D01*
X115471255Y-78333344D01*
X115491248Y-78449729D01*
X115519438Y-78582710D01*
X115550622Y-78717086D01*
X115576412Y-78833963D01*
X115598223Y-78947137D01*
X115612335Y-79036853D01*
X115614535Y-79056493D01*
X115629605Y-79136715D01*
X115654507Y-79200415D01*
X115664483Y-79214614D01*
X115684584Y-79244014D01*
X115682468Y-79275672D01*
X115654333Y-79324037D01*
X115624932Y-79364979D01*
X115571088Y-79430094D01*
X115529781Y-79457361D01*
X115495689Y-79456014D01*
X115432702Y-79447649D01*
X115357137Y-79452784D01*
X115285791Y-79468104D01*
X115235462Y-79490300D01*
X115221600Y-79510056D01*
X115204809Y-79541538D01*
X115165732Y-79541316D01*
X115121309Y-79509962D01*
X115118393Y-79506564D01*
X115098330Y-79470542D01*
X115119087Y-79445090D01*
X115121633Y-79443453D01*
X115143665Y-79424759D01*
X115118388Y-79420007D01*
X115116760Y-79419988D01*
X115072521Y-79433943D01*
X115038647Y-79465502D01*
X115031189Y-79497963D01*
X115035553Y-79504487D01*
X115032771Y-79519830D01*
X115022288Y-79521200D01*
X114972011Y-79506939D01*
X114910231Y-79473936D01*
X114863717Y-79436856D01*
X114860038Y-79432300D01*
X114843593Y-79426257D01*
X114840988Y-79441428D01*
X114837159Y-79457340D01*
X114820587Y-79465218D01*
X114782976Y-79464546D01*
X114716029Y-79454809D01*
X114611452Y-79435492D01*
X114548500Y-79423262D01*
X114466814Y-79405789D01*
X114402044Y-79389313D01*
X114382055Y-79382815D01*
X114333080Y-79342097D01*
X114288124Y-79270545D01*
X114257724Y-79187706D01*
X114250812Y-79139374D01*
X114245531Y-79090441D01*
X114235712Y-79076283D01*
X114235168Y-79076765D01*
X114216273Y-79066928D01*
X114189291Y-79012278D01*
X114156053Y-78917821D01*
X114118392Y-78788567D01*
X114091103Y-78683000D01*
X114045431Y-78472802D01*
X114002862Y-78229169D01*
X113965776Y-77969458D01*
X113936552Y-77711029D01*
X113917570Y-77471239D01*
X113913499Y-77387600D01*
X113905532Y-77207641D01*
X113896280Y-77062531D01*
X113884396Y-76936316D01*
X113868539Y-76813044D01*
X113860645Y-76760087D01*
X113858830Y-76698728D01*
X113886142Y-76661561D01*
X113918912Y-76642339D01*
X113951161Y-76628431D01*
X113989214Y-76619485D01*
X114040547Y-76615638D01*
X114112634Y-76617028D01*
G36*
X102249476Y-76350437D02*
X102323554Y-76368901D01*
X102379191Y-76388296D01*
X102462983Y-76415068D01*
X102534300Y-76436707D01*
X102804908Y-76520705D01*
X103028480Y-76599249D01*
X103208240Y-76674265D01*
X103347412Y-76747674D01*
X103449221Y-76821401D01*
X103516893Y-76897370D01*
X103553652Y-76977503D01*
X103563000Y-77050351D01*
X103568838Y-77106839D01*
X103583075Y-77133322D01*
X103584862Y-77133600D01*
X103601623Y-77156281D01*
X103615051Y-77213511D01*
X103623597Y-77289073D01*
X103625712Y-77366746D01*
X103619847Y-77430311D01*
X103614909Y-77448180D01*
X103609411Y-77494979D01*
X103611553Y-77576259D01*
X103619848Y-77680778D01*
X103632812Y-77797290D01*
X103648960Y-77914552D01*
X103666806Y-78021320D01*
X103684865Y-78106349D01*
X103701652Y-78158395D01*
X103710126Y-78169008D01*
X103725141Y-78191077D01*
X103709155Y-78242061D01*
X103693297Y-78304502D01*
X103713925Y-78359878D01*
X103731352Y-78402788D01*
X103724559Y-78421713D01*
X103711538Y-78448778D01*
X103709546Y-78503618D01*
X103716498Y-78565926D01*
X103730306Y-78615399D01*
X103746185Y-78632200D01*
X103760281Y-78651017D01*
X103755779Y-78673519D01*
X103756361Y-78727096D01*
X103767859Y-78748499D01*
X103787755Y-78801189D01*
X103787055Y-78827538D01*
X103796927Y-78879465D01*
X103823058Y-78917658D01*
X103858239Y-78971302D01*
X103867800Y-79010482D01*
X103884535Y-79057422D01*
X103903928Y-79072428D01*
X103930360Y-79104009D01*
X103926932Y-79154805D01*
X103900831Y-79209271D01*
X103859243Y-79251864D01*
X103813889Y-79267200D01*
X103774347Y-79279202D01*
X103766200Y-79294311D01*
X103785974Y-79309866D01*
X103817000Y-79305300D01*
X103860712Y-79296413D01*
X103865351Y-79306633D01*
X103835754Y-79329519D01*
X103777035Y-79358515D01*
X103705154Y-79379628D01*
X103645137Y-79382740D01*
X103637495Y-79380958D01*
X103602515Y-79377384D01*
X103603977Y-79405239D01*
X103601255Y-79438906D01*
X103578417Y-79445000D01*
X103543029Y-79425828D01*
X103537600Y-79406900D01*
X103522979Y-79373112D01*
X103510488Y-79368800D01*
X103494933Y-79388574D01*
X103499500Y-79419600D01*
X103504231Y-79444365D01*
X103492889Y-79459223D01*
X103456192Y-79466460D01*
X103384860Y-79468361D01*
X103304361Y-79467679D01*
X103189217Y-79463368D01*
X103078923Y-79454475D01*
X102994794Y-79442793D01*
X102985432Y-79440841D01*
X102877742Y-79396815D01*
X102794932Y-79334090D01*
X102720572Y-79254680D01*
X102662319Y-79182557D01*
X102628444Y-79128487D01*
X102623200Y-79110527D01*
X102601201Y-79075023D01*
X102542346Y-79059025D01*
X102457351Y-79064210D01*
X102404726Y-79076303D01*
X102164319Y-79136938D01*
X101945947Y-79173689D01*
X101728633Y-79189699D01*
X101638762Y-79191000D01*
X101515748Y-79190401D01*
X101427482Y-79186221D01*
X101357913Y-79174886D01*
X101290989Y-79152822D01*
X101210658Y-79116453D01*
X101133781Y-79078546D01*
X100985714Y-78997866D01*
X100878058Y-78918885D01*
X100801950Y-78830948D01*
X100748525Y-78723398D01*
X100708921Y-78585578D01*
X100703549Y-78561283D01*
X100682234Y-78456671D01*
X100672586Y-78382378D01*
X100674721Y-78319255D01*
X100688755Y-78248153D01*
X100705840Y-78182933D01*
X100736232Y-78084694D01*
X100771749Y-78012940D01*
X100824891Y-77947508D01*
X100891578Y-77883339D01*
X100974690Y-77812425D01*
X101645989Y-77812425D01*
X101650354Y-77894481D01*
X101671832Y-78014685D01*
X101681277Y-78061813D01*
X101705788Y-78177306D01*
X101729302Y-78277106D01*
X101748770Y-78348866D01*
X101759105Y-78377276D01*
X101775406Y-78426131D01*
X101792035Y-78504284D01*
X101800283Y-78557405D01*
X101830173Y-78675025D01*
X101882796Y-78781715D01*
X101949892Y-78864850D01*
X102023203Y-78911807D01*
X102034202Y-78914944D01*
X102107547Y-78929747D01*
X102152359Y-78926859D01*
X102189130Y-78901897D01*
X102213993Y-78876487D01*
X102278607Y-78831144D01*
X102360010Y-78801871D01*
X102367811Y-78800468D01*
X102440055Y-78779653D01*
X102474964Y-78742168D01*
X102479535Y-78728539D01*
X102481546Y-78678410D01*
X102469201Y-78656612D01*
X102448683Y-78622644D01*
X102434149Y-78562351D01*
X102433996Y-78561166D01*
X102421762Y-78496210D01*
X102406937Y-78453813D01*
X102395255Y-78415790D01*
X102380049Y-78339999D01*
X102362986Y-78238411D01*
X102345735Y-78122996D01*
X102329966Y-78005725D01*
X102317345Y-77898568D01*
X102309543Y-77813494D01*
X102308228Y-77762474D01*
X102309534Y-77755066D01*
X102300704Y-77720318D01*
X102249879Y-77694662D01*
X102165271Y-77679452D01*
X102055091Y-77676042D01*
X101927552Y-77685788D01*
X101906527Y-77688596D01*
X101789005Y-77706603D01*
X101709970Y-77727341D01*
X101664080Y-77759663D01*
X101645989Y-77812425D01*
X100974690Y-77812425D01*
X101043610Y-77753621D01*
X101185134Y-77656466D01*
X101333398Y-77581887D01*
X101505649Y-77519901D01*
X101534515Y-77511103D01*
X101758952Y-77455404D01*
X101969967Y-77428659D01*
X102017446Y-77426211D01*
X102119523Y-77421339D01*
X102200325Y-77415775D01*
X102247923Y-77410421D01*
X102255446Y-77408219D01*
X102266828Y-77370176D01*
X102271050Y-77295397D01*
X102268800Y-77197340D01*
X102260766Y-77089459D01*
X102247634Y-76985210D01*
X102230094Y-76898049D01*
X102229198Y-76894693D01*
X102193841Y-76788218D01*
X102149439Y-76717543D01*
X102085622Y-76675736D01*
X101992020Y-76655868D01*
X101864567Y-76651000D01*
X101760707Y-76657974D01*
X101655929Y-76676492D01*
X101562293Y-76702945D01*
X101491858Y-76733727D01*
X101456686Y-76765230D01*
X101454800Y-76773570D01*
X101438674Y-76802735D01*
X101396650Y-76856099D01*
X101345074Y-76914173D01*
X101264682Y-76990274D01*
X101200019Y-77026821D01*
X101167274Y-77032000D01*
X101117344Y-77028143D01*
X101099200Y-77020024D01*
X101110819Y-76982409D01*
X101140400Y-76916489D01*
X101180028Y-76837675D01*
X101221788Y-76761377D01*
X101257765Y-76703006D01*
X101271046Y-76685433D01*
X101339489Y-76629421D01*
X101451667Y-76564998D01*
X101601803Y-76495116D01*
X101784119Y-76422726D01*
X101788261Y-76421197D01*
X101956525Y-76371232D01*
X102114111Y-76347269D01*
X102249476Y-76350437D01*
X102249476Y-76350437D01*
G37*
X102249476Y-76350437D02*
X102323554Y-76368901D01*
X102379191Y-76388296D01*
X102462983Y-76415068D01*
X102534300Y-76436707D01*
X102804908Y-76520705D01*
X103028480Y-76599249D01*
X103208240Y-76674265D01*
X103347412Y-76747674D01*
X103449221Y-76821401D01*
X103516893Y-76897370D01*
X103553652Y-76977503D01*
X103563000Y-77050351D01*
X103568838Y-77106839D01*
X103583075Y-77133322D01*
X103584862Y-77133600D01*
X103601623Y-77156281D01*
X103615051Y-77213511D01*
X103623597Y-77289073D01*
X103625712Y-77366746D01*
X103619847Y-77430311D01*
X103614909Y-77448180D01*
X103609411Y-77494979D01*
X103611553Y-77576259D01*
X103619848Y-77680778D01*
X103632812Y-77797290D01*
X103648960Y-77914552D01*
X103666806Y-78021320D01*
X103684865Y-78106349D01*
X103701652Y-78158395D01*
X103710126Y-78169008D01*
X103725141Y-78191077D01*
X103709155Y-78242061D01*
X103693297Y-78304502D01*
X103713925Y-78359878D01*
X103731352Y-78402788D01*
X103724559Y-78421713D01*
X103711538Y-78448778D01*
X103709546Y-78503618D01*
X103716498Y-78565926D01*
X103730306Y-78615399D01*
X103746185Y-78632200D01*
X103760281Y-78651017D01*
X103755779Y-78673519D01*
X103756361Y-78727096D01*
X103767859Y-78748499D01*
X103787755Y-78801189D01*
X103787055Y-78827538D01*
X103796927Y-78879465D01*
X103823058Y-78917658D01*
X103858239Y-78971302D01*
X103867800Y-79010482D01*
X103884535Y-79057422D01*
X103903928Y-79072428D01*
X103930360Y-79104009D01*
X103926932Y-79154805D01*
X103900831Y-79209271D01*
X103859243Y-79251864D01*
X103813889Y-79267200D01*
X103774347Y-79279202D01*
X103766200Y-79294311D01*
X103785974Y-79309866D01*
X103817000Y-79305300D01*
X103860712Y-79296413D01*
X103865351Y-79306633D01*
X103835754Y-79329519D01*
X103777035Y-79358515D01*
X103705154Y-79379628D01*
X103645137Y-79382740D01*
X103637495Y-79380958D01*
X103602515Y-79377384D01*
X103603977Y-79405239D01*
X103601255Y-79438906D01*
X103578417Y-79445000D01*
X103543029Y-79425828D01*
X103537600Y-79406900D01*
X103522979Y-79373112D01*
X103510488Y-79368800D01*
X103494933Y-79388574D01*
X103499500Y-79419600D01*
X103504231Y-79444365D01*
X103492889Y-79459223D01*
X103456192Y-79466460D01*
X103384860Y-79468361D01*
X103304361Y-79467679D01*
X103189217Y-79463368D01*
X103078923Y-79454475D01*
X102994794Y-79442793D01*
X102985432Y-79440841D01*
X102877742Y-79396815D01*
X102794932Y-79334090D01*
X102720572Y-79254680D01*
X102662319Y-79182557D01*
X102628444Y-79128487D01*
X102623200Y-79110527D01*
X102601201Y-79075023D01*
X102542346Y-79059025D01*
X102457351Y-79064210D01*
X102404726Y-79076303D01*
X102164319Y-79136938D01*
X101945947Y-79173689D01*
X101728633Y-79189699D01*
X101638762Y-79191000D01*
X101515748Y-79190401D01*
X101427482Y-79186221D01*
X101357913Y-79174886D01*
X101290989Y-79152822D01*
X101210658Y-79116453D01*
X101133781Y-79078546D01*
X100985714Y-78997866D01*
X100878058Y-78918885D01*
X100801950Y-78830948D01*
X100748525Y-78723398D01*
X100708921Y-78585578D01*
X100703549Y-78561283D01*
X100682234Y-78456671D01*
X100672586Y-78382378D01*
X100674721Y-78319255D01*
X100688755Y-78248153D01*
X100705840Y-78182933D01*
X100736232Y-78084694D01*
X100771749Y-78012940D01*
X100824891Y-77947508D01*
X100891578Y-77883339D01*
X100974690Y-77812425D01*
X101645989Y-77812425D01*
X101650354Y-77894481D01*
X101671832Y-78014685D01*
X101681277Y-78061813D01*
X101705788Y-78177306D01*
X101729302Y-78277106D01*
X101748770Y-78348866D01*
X101759105Y-78377276D01*
X101775406Y-78426131D01*
X101792035Y-78504284D01*
X101800283Y-78557405D01*
X101830173Y-78675025D01*
X101882796Y-78781715D01*
X101949892Y-78864850D01*
X102023203Y-78911807D01*
X102034202Y-78914944D01*
X102107547Y-78929747D01*
X102152359Y-78926859D01*
X102189130Y-78901897D01*
X102213993Y-78876487D01*
X102278607Y-78831144D01*
X102360010Y-78801871D01*
X102367811Y-78800468D01*
X102440055Y-78779653D01*
X102474964Y-78742168D01*
X102479535Y-78728539D01*
X102481546Y-78678410D01*
X102469201Y-78656612D01*
X102448683Y-78622644D01*
X102434149Y-78562351D01*
X102433996Y-78561166D01*
X102421762Y-78496210D01*
X102406937Y-78453813D01*
X102395255Y-78415790D01*
X102380049Y-78339999D01*
X102362986Y-78238411D01*
X102345735Y-78122996D01*
X102329966Y-78005725D01*
X102317345Y-77898568D01*
X102309543Y-77813494D01*
X102308228Y-77762474D01*
X102309534Y-77755066D01*
X102300704Y-77720318D01*
X102249879Y-77694662D01*
X102165271Y-77679452D01*
X102055091Y-77676042D01*
X101927552Y-77685788D01*
X101906527Y-77688596D01*
X101789005Y-77706603D01*
X101709970Y-77727341D01*
X101664080Y-77759663D01*
X101645989Y-77812425D01*
X100974690Y-77812425D01*
X101043610Y-77753621D01*
X101185134Y-77656466D01*
X101333398Y-77581887D01*
X101505649Y-77519901D01*
X101534515Y-77511103D01*
X101758952Y-77455404D01*
X101969967Y-77428659D01*
X102017446Y-77426211D01*
X102119523Y-77421339D01*
X102200325Y-77415775D01*
X102247923Y-77410421D01*
X102255446Y-77408219D01*
X102266828Y-77370176D01*
X102271050Y-77295397D01*
X102268800Y-77197340D01*
X102260766Y-77089459D01*
X102247634Y-76985210D01*
X102230094Y-76898049D01*
X102229198Y-76894693D01*
X102193841Y-76788218D01*
X102149439Y-76717543D01*
X102085622Y-76675736D01*
X101992020Y-76655868D01*
X101864567Y-76651000D01*
X101760707Y-76657974D01*
X101655929Y-76676492D01*
X101562293Y-76702945D01*
X101491858Y-76733727D01*
X101456686Y-76765230D01*
X101454800Y-76773570D01*
X101438674Y-76802735D01*
X101396650Y-76856099D01*
X101345074Y-76914173D01*
X101264682Y-76990274D01*
X101200019Y-77026821D01*
X101167274Y-77032000D01*
X101117344Y-77028143D01*
X101099200Y-77020024D01*
X101110819Y-76982409D01*
X101140400Y-76916489D01*
X101180028Y-76837675D01*
X101221788Y-76761377D01*
X101257765Y-76703006D01*
X101271046Y-76685433D01*
X101339489Y-76629421D01*
X101451667Y-76564998D01*
X101601803Y-76495116D01*
X101784119Y-76422726D01*
X101788261Y-76421197D01*
X101956525Y-76371232D01*
X102114111Y-76347269D01*
X102249476Y-76350437D01*
G36*
X97209932Y-71745840D02*
X97363464Y-71769117D01*
X97478590Y-71805127D01*
X97550344Y-71853330D01*
X97560164Y-71866042D01*
X97584216Y-71917914D01*
X97585093Y-71978156D01*
X97573614Y-72034653D01*
X97559964Y-72157298D01*
X97568430Y-72271647D01*
X97576631Y-72351638D01*
X97582934Y-72474500D01*
X97587400Y-72632343D01*
X97590094Y-72817274D01*
X97591077Y-73021405D01*
X97590413Y-73236842D01*
X97588164Y-73455697D01*
X97584393Y-73670077D01*
X97579162Y-73872092D01*
X97572536Y-74053850D01*
X97564575Y-74207462D01*
X97555344Y-74325035D01*
X97551847Y-74356040D01*
X97535744Y-74516224D01*
X97528283Y-74666588D01*
X97529267Y-74797974D01*
X97538502Y-74901226D01*
X97555793Y-74967187D01*
X97565161Y-74981321D01*
X97596433Y-74982811D01*
X97666412Y-74971346D01*
X97765260Y-74948940D01*
X97883141Y-74917609D01*
X97900750Y-74912582D01*
X98030695Y-74877623D01*
X98153467Y-74848953D01*
X98255367Y-74829503D01*
X98322697Y-74822202D01*
X98323447Y-74822200D01*
X98389669Y-74817351D01*
X98428209Y-74805147D01*
X98432200Y-74798905D01*
X98422730Y-74763954D01*
X98398482Y-74699808D01*
X98378763Y-74652855D01*
X98354142Y-74589754D01*
X98339824Y-74529720D01*
X98334386Y-74458219D01*
X98336406Y-74360714D01*
X98341389Y-74270909D01*
X98354296Y-74124617D01*
X98376028Y-73996992D01*
X98410790Y-73875834D01*
X98412702Y-73871166D01*
X99702200Y-73871166D01*
X99704659Y-73932204D01*
X99717789Y-73968425D01*
X99750220Y-73982046D01*
X99810581Y-73975281D01*
X99907500Y-73950348D01*
X99956280Y-73936406D01*
X100051906Y-73902100D01*
X100164967Y-73851294D01*
X100284789Y-73790039D01*
X100400699Y-73724384D01*
X100502022Y-73660379D01*
X100578084Y-73604075D01*
X100618211Y-73561523D01*
X100618449Y-73561086D01*
X100634189Y-73508571D01*
X100617426Y-73450381D01*
X100609089Y-73434086D01*
X100570842Y-73354681D01*
X100540643Y-73281732D01*
X100518757Y-73236680D01*
X100485106Y-73206300D01*
X100426288Y-73182218D01*
X100346490Y-73160447D01*
X100259330Y-73141516D01*
X100191171Y-73132146D01*
X100157706Y-73134146D01*
X100132182Y-73162126D01*
X100089734Y-73220180D01*
X100045120Y-73287181D01*
X99996383Y-73358232D01*
X99955931Y-73408052D01*
X99933952Y-73425200D01*
X99910529Y-73445252D01*
X99869162Y-73498364D01*
X99817928Y-73573967D01*
X99806637Y-73591766D01*
X99747298Y-73694396D01*
X99714706Y-73774781D01*
X99702707Y-73849383D01*
X99702200Y-73871166D01*
X98412702Y-73871166D01*
X98462790Y-73748942D01*
X98536234Y-73604116D01*
X98626238Y-73444755D01*
X98680630Y-73374146D01*
X98768765Y-73285193D01*
X98880790Y-73185622D01*
X99006848Y-73083160D01*
X99137086Y-72985536D01*
X99261647Y-72900475D01*
X99370677Y-72835705D01*
X99446859Y-72801322D01*
X99539549Y-72780225D01*
X99666671Y-72764492D01*
X99812835Y-72754648D01*
X99962650Y-72751214D01*
X100100724Y-72754712D01*
X100211667Y-72765667D01*
X100251751Y-72773993D01*
X100331490Y-72801314D01*
X100429635Y-72843146D01*
X100536034Y-72894089D01*
X100640533Y-72948738D01*
X100732983Y-73001692D01*
X100803230Y-73047547D01*
X100841123Y-73080902D01*
X100844949Y-73089678D01*
X100859279Y-73130645D01*
X100894115Y-73188388D01*
X100900724Y-73197558D01*
X100932175Y-73251468D01*
X100949739Y-73316998D01*
X100957043Y-73410541D01*
X100957874Y-73455952D01*
X100959500Y-73639244D01*
X100591200Y-73849482D01*
X100429567Y-73939537D01*
X100293932Y-74008754D01*
X100167821Y-74064168D01*
X100034761Y-74112812D01*
X99878278Y-74161723D01*
X99820527Y-74178591D01*
X99786608Y-74204918D01*
X99788558Y-74246798D01*
X99798325Y-74296261D01*
X99811574Y-74380874D01*
X99825971Y-74485321D01*
X99831120Y-74525925D01*
X99852407Y-74656199D01*
X99880112Y-74765141D01*
X99909118Y-74835497D01*
X99971080Y-74910937D01*
X100054251Y-74975402D01*
X100140612Y-75016721D01*
X100190173Y-75025400D01*
X100254038Y-75017613D01*
X100353127Y-74996663D01*
X100474716Y-74966166D01*
X100606078Y-74929738D01*
X100734490Y-74890995D01*
X100847226Y-74853553D01*
X100931562Y-74821029D01*
X100962118Y-74806035D01*
X101045347Y-74752732D01*
X101104424Y-74698202D01*
X101149611Y-74628614D01*
X101191168Y-74530134D01*
X101213149Y-74467630D01*
X101260045Y-74338906D01*
X101299019Y-74257194D01*
X101333672Y-74220028D01*
X101367604Y-74224943D01*
X101404415Y-74269473D01*
X101431418Y-74318157D01*
X101462117Y-74389413D01*
X101474537Y-74457934D01*
X101471824Y-74546277D01*
X101468275Y-74582409D01*
X101453695Y-74674341D01*
X101433226Y-74750792D01*
X101415748Y-74788001D01*
X101386328Y-74848435D01*
X101379407Y-74886573D01*
X101357311Y-74936412D01*
X101303499Y-74982610D01*
X101254238Y-75022961D01*
X101241026Y-75059632D01*
X101241612Y-75061408D01*
X101230935Y-75094619D01*
X101191608Y-75138333D01*
X101139541Y-75178664D01*
X101090645Y-75201725D01*
X101079150Y-75203200D01*
X101048255Y-75222314D01*
X101015884Y-75261741D01*
X100962709Y-75314125D01*
X100872119Y-75373849D01*
X100755707Y-75434891D01*
X100625069Y-75491226D01*
X100491798Y-75536829D01*
X100479791Y-75540281D01*
X100343920Y-75569655D01*
X100178542Y-75591442D01*
X100026050Y-75602032D01*
X99915181Y-75607380D01*
X99825961Y-75613564D01*
X99768753Y-75619744D01*
X99753000Y-75624171D01*
X99766266Y-75649224D01*
X99801184Y-75704450D01*
X99850429Y-75778298D01*
X99854600Y-75784418D01*
X99920596Y-75891699D01*
X99950980Y-75970993D01*
X99947256Y-76028993D01*
X99918100Y-76066800D01*
X99891823Y-76112639D01*
X99880046Y-76180687D01*
X99880000Y-76185007D01*
X99868850Y-76254689D01*
X99841900Y-76286214D01*
X99808193Y-76315474D01*
X99803800Y-76331335D01*
X99784417Y-76360365D01*
X99734745Y-76406813D01*
X99667494Y-76461051D01*
X99595376Y-76513449D01*
X99531100Y-76554378D01*
X99487379Y-76574211D01*
X99482401Y-76574800D01*
X99430341Y-76590395D01*
X99353338Y-76631817D01*
X99264306Y-76691015D01*
X99176157Y-76759941D01*
X99153414Y-76779867D01*
X99082556Y-76839677D01*
X99016574Y-76888758D01*
X98988314Y-76906320D01*
X98892931Y-76970507D01*
X98776545Y-77070588D01*
X98646021Y-77199982D01*
X98508223Y-77352109D01*
X98444191Y-77428021D01*
X98352142Y-77542136D01*
X98288180Y-77629007D01*
X98246073Y-77698844D01*
X98219587Y-77761858D01*
X98203838Y-77821721D01*
X98185954Y-77943588D01*
X98179288Y-78074445D01*
X98183491Y-78198547D01*
X98198215Y-78300153D01*
X98215565Y-78351378D01*
X98294704Y-78452123D01*
X98407355Y-78518265D01*
X98549053Y-78548940D01*
X98715333Y-78543287D01*
X98901729Y-78500442D01*
X98933230Y-78490040D01*
X99041413Y-78438251D01*
X99145240Y-78362870D01*
X99237952Y-78272416D01*
X99312791Y-78175409D01*
X99362998Y-78080369D01*
X99381814Y-77995814D01*
X99369199Y-77940494D01*
X99327904Y-77913340D01*
X99289488Y-77913562D01*
X99243250Y-77909626D01*
X99194229Y-77874029D01*
X99149147Y-77822751D01*
X99102566Y-77762057D01*
X99072879Y-77718129D01*
X99067200Y-77705480D01*
X99051280Y-77678902D01*
X99011941Y-77632659D01*
X99001391Y-77621441D01*
X98961826Y-77569856D01*
X98916709Y-77496802D01*
X98875177Y-77419084D01*
X98846366Y-77353511D01*
X98838600Y-77321994D01*
X98860607Y-77314359D01*
X98909948Y-77311400D01*
X98959893Y-77305161D01*
X99047757Y-77288040D01*
X99162422Y-77262429D01*
X99292773Y-77230721D01*
X99335361Y-77219838D01*
X99478631Y-77183486D01*
X99588851Y-77158599D01*
X99681995Y-77143333D01*
X99774038Y-77135841D01*
X99880955Y-77134280D01*
X100018720Y-77136804D01*
X100047816Y-77137544D01*
X100208653Y-77143243D01*
X100325506Y-77152273D01*
X100405178Y-77166897D01*
X100454475Y-77189376D01*
X100480202Y-77221971D01*
X100489162Y-77266943D01*
X100489600Y-77284357D01*
X100465894Y-77360342D01*
X100401131Y-77433590D01*
X100304843Y-77496740D01*
X100186563Y-77542426D01*
X100142004Y-77552875D01*
X100080007Y-77576122D01*
X100048597Y-77625460D01*
X100041916Y-77649604D01*
X100029782Y-77708734D01*
X100026402Y-77742374D01*
X100026587Y-77743200D01*
X100036770Y-77771183D01*
X100060595Y-77834860D01*
X100093643Y-77922442D01*
X100107533Y-77959100D01*
X100143557Y-78063515D01*
X100170607Y-78159916D01*
X100184026Y-78231134D01*
X100184707Y-78243599D01*
X100190259Y-78317591D01*
X100204210Y-78411598D01*
X100212637Y-78454703D01*
X100227476Y-78556034D01*
X100219999Y-78630118D01*
X100211785Y-78653771D01*
X100198754Y-78705592D01*
X100197725Y-78777487D01*
X100208965Y-78881311D01*
X100218255Y-78942604D01*
X100232135Y-79047490D01*
X100238056Y-79133335D01*
X100235292Y-79186987D01*
X100232196Y-79195636D01*
X100214479Y-79247788D01*
X100210588Y-79284809D01*
X100190635Y-79340745D01*
X100153748Y-79380059D01*
X100082412Y-79408711D01*
X99992978Y-79418399D01*
X99910856Y-79407812D01*
X99880000Y-79394200D01*
X99835374Y-79381041D01*
X99758354Y-79371955D01*
X99684033Y-79369188D01*
X99590662Y-79365878D01*
X99527651Y-79352196D01*
X99474711Y-79321663D01*
X99436627Y-79290182D01*
X99379426Y-79244198D01*
X99331441Y-79223866D01*
X99270164Y-79223047D01*
X99214976Y-79229735D01*
X99133232Y-79246094D01*
X99070301Y-79267813D01*
X99050320Y-79280450D01*
X99005459Y-79297191D01*
X98919633Y-79304741D01*
X98801806Y-79303260D01*
X98660945Y-79292907D01*
X98506017Y-79273842D01*
X98483000Y-79270376D01*
X98322484Y-79236376D01*
X98144223Y-79183142D01*
X97958887Y-79115345D01*
X97777147Y-79037655D01*
X97609674Y-78954743D01*
X97467138Y-78871280D01*
X97360209Y-78791937D01*
X97334922Y-78767835D01*
X97278304Y-78696717D01*
X97219730Y-78603522D01*
X97167130Y-78503484D01*
X97128437Y-78411840D01*
X97111580Y-78343824D01*
X97111400Y-78338482D01*
X97098142Y-78289784D01*
X97071632Y-78239520D01*
X97046774Y-78175885D01*
X97025453Y-78073145D01*
X97008513Y-77942924D01*
X96996800Y-77796844D01*
X96991158Y-77646529D01*
X96992433Y-77503603D01*
X97001470Y-77379689D01*
X97006509Y-77343652D01*
X97034309Y-77195060D01*
X97065177Y-77066744D01*
X97096735Y-76966324D01*
X97126606Y-76901421D01*
X97151341Y-76879600D01*
X97175250Y-76859070D01*
X97210294Y-76808377D01*
X97247168Y-76743859D01*
X97276564Y-76681859D01*
X97289176Y-76638717D01*
X97289199Y-76637548D01*
X97305753Y-76600444D01*
X97351124Y-76534354D01*
X97418881Y-76446871D01*
X97502590Y-76345588D01*
X97595820Y-76238100D01*
X97692137Y-76131998D01*
X97785110Y-76034876D01*
X97866909Y-75955607D01*
X97969044Y-75874338D01*
X98114112Y-75777777D01*
X98297610Y-75668809D01*
X98419500Y-75601264D01*
X98579743Y-75514596D01*
X98700435Y-75449022D01*
X98786436Y-75400972D01*
X98842609Y-75366879D01*
X98873813Y-75343175D01*
X98884909Y-75326291D01*
X98880760Y-75312660D01*
X98866225Y-75298712D01*
X98850411Y-75284952D01*
X98804668Y-75252547D01*
X98774552Y-75245541D01*
X98746318Y-75231552D01*
X98707838Y-75186691D01*
X98698900Y-75173222D01*
X98653093Y-75100808D01*
X98611678Y-75035501D01*
X98610000Y-75032859D01*
X98560448Y-74980588D01*
X98491685Y-74957874D01*
X98394817Y-74963371D01*
X98297310Y-74985483D01*
X98200682Y-75010726D01*
X98112417Y-75032246D01*
X98063900Y-75042871D01*
X98011078Y-75058524D01*
X97923997Y-75090094D01*
X97814857Y-75132958D01*
X97698766Y-75181248D01*
X97580536Y-75229338D01*
X97472821Y-75268684D01*
X97387583Y-75295200D01*
X97337100Y-75304800D01*
X97277919Y-75311599D01*
X97187919Y-75329576D01*
X97084873Y-75355097D01*
X97067233Y-75359954D01*
X96955286Y-75386939D01*
X96840255Y-75404288D01*
X96706006Y-75413771D01*
X96546814Y-75417104D01*
X96223528Y-75419100D01*
X96149784Y-75342900D01*
X96091348Y-75258480D01*
X96038643Y-75136081D01*
X96022444Y-75085696D01*
X95995025Y-74984342D01*
X95982364Y-74903574D01*
X95982845Y-74820315D01*
X95994850Y-74711493D01*
X95995761Y-74704696D01*
X96002427Y-74633937D01*
X96009710Y-74519397D01*
X96017315Y-74368083D01*
X96024950Y-74187006D01*
X96032320Y-73983175D01*
X96039132Y-73763599D01*
X96045093Y-73535288D01*
X96045589Y-73514100D01*
X96051206Y-73284409D01*
X96057217Y-73062005D01*
X96063386Y-72854046D01*
X96069479Y-72667690D01*
X96075260Y-72510095D01*
X96080494Y-72388420D01*
X96084947Y-72309822D01*
X96085252Y-72305745D01*
X96091605Y-72172530D01*
X96086294Y-72081766D01*
X96070651Y-72029417D01*
X96055618Y-71990185D01*
X96064240Y-71954930D01*
X96102574Y-71908058D01*
X96127745Y-71882401D01*
X96164327Y-71847199D01*
X96198466Y-71821893D01*
X96239971Y-71803712D01*
X96298652Y-71789883D01*
X96384319Y-71777634D01*
X96506780Y-71764192D01*
X96568543Y-71757832D01*
X96807506Y-71739656D01*
X97022957Y-71735839D01*
X97209932Y-71745840D01*
X97209932Y-71745840D01*
G37*
X97209932Y-71745840D02*
X97363464Y-71769117D01*
X97478590Y-71805127D01*
X97550344Y-71853330D01*
X97560164Y-71866042D01*
X97584216Y-71917914D01*
X97585093Y-71978156D01*
X97573614Y-72034653D01*
X97559964Y-72157298D01*
X97568430Y-72271647D01*
X97576631Y-72351638D01*
X97582934Y-72474500D01*
X97587400Y-72632343D01*
X97590094Y-72817274D01*
X97591077Y-73021405D01*
X97590413Y-73236842D01*
X97588164Y-73455697D01*
X97584393Y-73670077D01*
X97579162Y-73872092D01*
X97572536Y-74053850D01*
X97564575Y-74207462D01*
X97555344Y-74325035D01*
X97551847Y-74356040D01*
X97535744Y-74516224D01*
X97528283Y-74666588D01*
X97529267Y-74797974D01*
X97538502Y-74901226D01*
X97555793Y-74967187D01*
X97565161Y-74981321D01*
X97596433Y-74982811D01*
X97666412Y-74971346D01*
X97765260Y-74948940D01*
X97883141Y-74917609D01*
X97900750Y-74912582D01*
X98030695Y-74877623D01*
X98153467Y-74848953D01*
X98255367Y-74829503D01*
X98322697Y-74822202D01*
X98323447Y-74822200D01*
X98389669Y-74817351D01*
X98428209Y-74805147D01*
X98432200Y-74798905D01*
X98422730Y-74763954D01*
X98398482Y-74699808D01*
X98378763Y-74652855D01*
X98354142Y-74589754D01*
X98339824Y-74529720D01*
X98334386Y-74458219D01*
X98336406Y-74360714D01*
X98341389Y-74270909D01*
X98354296Y-74124617D01*
X98376028Y-73996992D01*
X98410790Y-73875834D01*
X98412702Y-73871166D01*
X99702200Y-73871166D01*
X99704659Y-73932204D01*
X99717789Y-73968425D01*
X99750220Y-73982046D01*
X99810581Y-73975281D01*
X99907500Y-73950348D01*
X99956280Y-73936406D01*
X100051906Y-73902100D01*
X100164967Y-73851294D01*
X100284789Y-73790039D01*
X100400699Y-73724384D01*
X100502022Y-73660379D01*
X100578084Y-73604075D01*
X100618211Y-73561523D01*
X100618449Y-73561086D01*
X100634189Y-73508571D01*
X100617426Y-73450381D01*
X100609089Y-73434086D01*
X100570842Y-73354681D01*
X100540643Y-73281732D01*
X100518757Y-73236680D01*
X100485106Y-73206300D01*
X100426288Y-73182218D01*
X100346490Y-73160447D01*
X100259330Y-73141516D01*
X100191171Y-73132146D01*
X100157706Y-73134146D01*
X100132182Y-73162126D01*
X100089734Y-73220180D01*
X100045120Y-73287181D01*
X99996383Y-73358232D01*
X99955931Y-73408052D01*
X99933952Y-73425200D01*
X99910529Y-73445252D01*
X99869162Y-73498364D01*
X99817928Y-73573967D01*
X99806637Y-73591766D01*
X99747298Y-73694396D01*
X99714706Y-73774781D01*
X99702707Y-73849383D01*
X99702200Y-73871166D01*
X98412702Y-73871166D01*
X98462790Y-73748942D01*
X98536234Y-73604116D01*
X98626238Y-73444755D01*
X98680630Y-73374146D01*
X98768765Y-73285193D01*
X98880790Y-73185622D01*
X99006848Y-73083160D01*
X99137086Y-72985536D01*
X99261647Y-72900475D01*
X99370677Y-72835705D01*
X99446859Y-72801322D01*
X99539549Y-72780225D01*
X99666671Y-72764492D01*
X99812835Y-72754648D01*
X99962650Y-72751214D01*
X100100724Y-72754712D01*
X100211667Y-72765667D01*
X100251751Y-72773993D01*
X100331490Y-72801314D01*
X100429635Y-72843146D01*
X100536034Y-72894089D01*
X100640533Y-72948738D01*
X100732983Y-73001692D01*
X100803230Y-73047547D01*
X100841123Y-73080902D01*
X100844949Y-73089678D01*
X100859279Y-73130645D01*
X100894115Y-73188388D01*
X100900724Y-73197558D01*
X100932175Y-73251468D01*
X100949739Y-73316998D01*
X100957043Y-73410541D01*
X100957874Y-73455952D01*
X100959500Y-73639244D01*
X100591200Y-73849482D01*
X100429567Y-73939537D01*
X100293932Y-74008754D01*
X100167821Y-74064168D01*
X100034761Y-74112812D01*
X99878278Y-74161723D01*
X99820527Y-74178591D01*
X99786608Y-74204918D01*
X99788558Y-74246798D01*
X99798325Y-74296261D01*
X99811574Y-74380874D01*
X99825971Y-74485321D01*
X99831120Y-74525925D01*
X99852407Y-74656199D01*
X99880112Y-74765141D01*
X99909118Y-74835497D01*
X99971080Y-74910937D01*
X100054251Y-74975402D01*
X100140612Y-75016721D01*
X100190173Y-75025400D01*
X100254038Y-75017613D01*
X100353127Y-74996663D01*
X100474716Y-74966166D01*
X100606078Y-74929738D01*
X100734490Y-74890995D01*
X100847226Y-74853553D01*
X100931562Y-74821029D01*
X100962118Y-74806035D01*
X101045347Y-74752732D01*
X101104424Y-74698202D01*
X101149611Y-74628614D01*
X101191168Y-74530134D01*
X101213149Y-74467630D01*
X101260045Y-74338906D01*
X101299019Y-74257194D01*
X101333672Y-74220028D01*
X101367604Y-74224943D01*
X101404415Y-74269473D01*
X101431418Y-74318157D01*
X101462117Y-74389413D01*
X101474537Y-74457934D01*
X101471824Y-74546277D01*
X101468275Y-74582409D01*
X101453695Y-74674341D01*
X101433226Y-74750792D01*
X101415748Y-74788001D01*
X101386328Y-74848435D01*
X101379407Y-74886573D01*
X101357311Y-74936412D01*
X101303499Y-74982610D01*
X101254238Y-75022961D01*
X101241026Y-75059632D01*
X101241612Y-75061408D01*
X101230935Y-75094619D01*
X101191608Y-75138333D01*
X101139541Y-75178664D01*
X101090645Y-75201725D01*
X101079150Y-75203200D01*
X101048255Y-75222314D01*
X101015884Y-75261741D01*
X100962709Y-75314125D01*
X100872119Y-75373849D01*
X100755707Y-75434891D01*
X100625069Y-75491226D01*
X100491798Y-75536829D01*
X100479791Y-75540281D01*
X100343920Y-75569655D01*
X100178542Y-75591442D01*
X100026050Y-75602032D01*
X99915181Y-75607380D01*
X99825961Y-75613564D01*
X99768753Y-75619744D01*
X99753000Y-75624171D01*
X99766266Y-75649224D01*
X99801184Y-75704450D01*
X99850429Y-75778298D01*
X99854600Y-75784418D01*
X99920596Y-75891699D01*
X99950980Y-75970993D01*
X99947256Y-76028993D01*
X99918100Y-76066800D01*
X99891823Y-76112639D01*
X99880046Y-76180687D01*
X99880000Y-76185007D01*
X99868850Y-76254689D01*
X99841900Y-76286214D01*
X99808193Y-76315474D01*
X99803800Y-76331335D01*
X99784417Y-76360365D01*
X99734745Y-76406813D01*
X99667494Y-76461051D01*
X99595376Y-76513449D01*
X99531100Y-76554378D01*
X99487379Y-76574211D01*
X99482401Y-76574800D01*
X99430341Y-76590395D01*
X99353338Y-76631817D01*
X99264306Y-76691015D01*
X99176157Y-76759941D01*
X99153414Y-76779867D01*
X99082556Y-76839677D01*
X99016574Y-76888758D01*
X98988314Y-76906320D01*
X98892931Y-76970507D01*
X98776545Y-77070588D01*
X98646021Y-77199982D01*
X98508223Y-77352109D01*
X98444191Y-77428021D01*
X98352142Y-77542136D01*
X98288180Y-77629007D01*
X98246073Y-77698844D01*
X98219587Y-77761858D01*
X98203838Y-77821721D01*
X98185954Y-77943588D01*
X98179288Y-78074445D01*
X98183491Y-78198547D01*
X98198215Y-78300153D01*
X98215565Y-78351378D01*
X98294704Y-78452123D01*
X98407355Y-78518265D01*
X98549053Y-78548940D01*
X98715333Y-78543287D01*
X98901729Y-78500442D01*
X98933230Y-78490040D01*
X99041413Y-78438251D01*
X99145240Y-78362870D01*
X99237952Y-78272416D01*
X99312791Y-78175409D01*
X99362998Y-78080369D01*
X99381814Y-77995814D01*
X99369199Y-77940494D01*
X99327904Y-77913340D01*
X99289488Y-77913562D01*
X99243250Y-77909626D01*
X99194229Y-77874029D01*
X99149147Y-77822751D01*
X99102566Y-77762057D01*
X99072879Y-77718129D01*
X99067200Y-77705480D01*
X99051280Y-77678902D01*
X99011941Y-77632659D01*
X99001391Y-77621441D01*
X98961826Y-77569856D01*
X98916709Y-77496802D01*
X98875177Y-77419084D01*
X98846366Y-77353511D01*
X98838600Y-77321994D01*
X98860607Y-77314359D01*
X98909948Y-77311400D01*
X98959893Y-77305161D01*
X99047757Y-77288040D01*
X99162422Y-77262429D01*
X99292773Y-77230721D01*
X99335361Y-77219838D01*
X99478631Y-77183486D01*
X99588851Y-77158599D01*
X99681995Y-77143333D01*
X99774038Y-77135841D01*
X99880955Y-77134280D01*
X100018720Y-77136804D01*
X100047816Y-77137544D01*
X100208653Y-77143243D01*
X100325506Y-77152273D01*
X100405178Y-77166897D01*
X100454475Y-77189376D01*
X100480202Y-77221971D01*
X100489162Y-77266943D01*
X100489600Y-77284357D01*
X100465894Y-77360342D01*
X100401131Y-77433590D01*
X100304843Y-77496740D01*
X100186563Y-77542426D01*
X100142004Y-77552875D01*
X100080007Y-77576122D01*
X100048597Y-77625460D01*
X100041916Y-77649604D01*
X100029782Y-77708734D01*
X100026402Y-77742374D01*
X100026587Y-77743200D01*
X100036770Y-77771183D01*
X100060595Y-77834860D01*
X100093643Y-77922442D01*
X100107533Y-77959100D01*
X100143557Y-78063515D01*
X100170607Y-78159916D01*
X100184026Y-78231134D01*
X100184707Y-78243599D01*
X100190259Y-78317591D01*
X100204210Y-78411598D01*
X100212637Y-78454703D01*
X100227476Y-78556034D01*
X100219999Y-78630118D01*
X100211785Y-78653771D01*
X100198754Y-78705592D01*
X100197725Y-78777487D01*
X100208965Y-78881311D01*
X100218255Y-78942604D01*
X100232135Y-79047490D01*
X100238056Y-79133335D01*
X100235292Y-79186987D01*
X100232196Y-79195636D01*
X100214479Y-79247788D01*
X100210588Y-79284809D01*
X100190635Y-79340745D01*
X100153748Y-79380059D01*
X100082412Y-79408711D01*
X99992978Y-79418399D01*
X99910856Y-79407812D01*
X99880000Y-79394200D01*
X99835374Y-79381041D01*
X99758354Y-79371955D01*
X99684033Y-79369188D01*
X99590662Y-79365878D01*
X99527651Y-79352196D01*
X99474711Y-79321663D01*
X99436627Y-79290182D01*
X99379426Y-79244198D01*
X99331441Y-79223866D01*
X99270164Y-79223047D01*
X99214976Y-79229735D01*
X99133232Y-79246094D01*
X99070301Y-79267813D01*
X99050320Y-79280450D01*
X99005459Y-79297191D01*
X98919633Y-79304741D01*
X98801806Y-79303260D01*
X98660945Y-79292907D01*
X98506017Y-79273842D01*
X98483000Y-79270376D01*
X98322484Y-79236376D01*
X98144223Y-79183142D01*
X97958887Y-79115345D01*
X97777147Y-79037655D01*
X97609674Y-78954743D01*
X97467138Y-78871280D01*
X97360209Y-78791937D01*
X97334922Y-78767835D01*
X97278304Y-78696717D01*
X97219730Y-78603522D01*
X97167130Y-78503484D01*
X97128437Y-78411840D01*
X97111580Y-78343824D01*
X97111400Y-78338482D01*
X97098142Y-78289784D01*
X97071632Y-78239520D01*
X97046774Y-78175885D01*
X97025453Y-78073145D01*
X97008513Y-77942924D01*
X96996800Y-77796844D01*
X96991158Y-77646529D01*
X96992433Y-77503603D01*
X97001470Y-77379689D01*
X97006509Y-77343652D01*
X97034309Y-77195060D01*
X97065177Y-77066744D01*
X97096735Y-76966324D01*
X97126606Y-76901421D01*
X97151341Y-76879600D01*
X97175250Y-76859070D01*
X97210294Y-76808377D01*
X97247168Y-76743859D01*
X97276564Y-76681859D01*
X97289176Y-76638717D01*
X97289199Y-76637548D01*
X97305753Y-76600444D01*
X97351124Y-76534354D01*
X97418881Y-76446871D01*
X97502590Y-76345588D01*
X97595820Y-76238100D01*
X97692137Y-76131998D01*
X97785110Y-76034876D01*
X97866909Y-75955607D01*
X97969044Y-75874338D01*
X98114112Y-75777777D01*
X98297610Y-75668809D01*
X98419500Y-75601264D01*
X98579743Y-75514596D01*
X98700435Y-75449022D01*
X98786436Y-75400972D01*
X98842609Y-75366879D01*
X98873813Y-75343175D01*
X98884909Y-75326291D01*
X98880760Y-75312660D01*
X98866225Y-75298712D01*
X98850411Y-75284952D01*
X98804668Y-75252547D01*
X98774552Y-75245541D01*
X98746318Y-75231552D01*
X98707838Y-75186691D01*
X98698900Y-75173222D01*
X98653093Y-75100808D01*
X98611678Y-75035501D01*
X98610000Y-75032859D01*
X98560448Y-74980588D01*
X98491685Y-74957874D01*
X98394817Y-74963371D01*
X98297310Y-74985483D01*
X98200682Y-75010726D01*
X98112417Y-75032246D01*
X98063900Y-75042871D01*
X98011078Y-75058524D01*
X97923997Y-75090094D01*
X97814857Y-75132958D01*
X97698766Y-75181248D01*
X97580536Y-75229338D01*
X97472821Y-75268684D01*
X97387583Y-75295200D01*
X97337100Y-75304800D01*
X97277919Y-75311599D01*
X97187919Y-75329576D01*
X97084873Y-75355097D01*
X97067233Y-75359954D01*
X96955286Y-75386939D01*
X96840255Y-75404288D01*
X96706006Y-75413771D01*
X96546814Y-75417104D01*
X96223528Y-75419100D01*
X96149784Y-75342900D01*
X96091348Y-75258480D01*
X96038643Y-75136081D01*
X96022444Y-75085696D01*
X95995025Y-74984342D01*
X95982364Y-74903574D01*
X95982845Y-74820315D01*
X95994850Y-74711493D01*
X95995761Y-74704696D01*
X96002427Y-74633937D01*
X96009710Y-74519397D01*
X96017315Y-74368083D01*
X96024950Y-74187006D01*
X96032320Y-73983175D01*
X96039132Y-73763599D01*
X96045093Y-73535288D01*
X96045589Y-73514100D01*
X96051206Y-73284409D01*
X96057217Y-73062005D01*
X96063386Y-72854046D01*
X96069479Y-72667690D01*
X96075260Y-72510095D01*
X96080494Y-72388420D01*
X96084947Y-72309822D01*
X96085252Y-72305745D01*
X96091605Y-72172530D01*
X96086294Y-72081766D01*
X96070651Y-72029417D01*
X96055618Y-71990185D01*
X96064240Y-71954930D01*
X96102574Y-71908058D01*
X96127745Y-71882401D01*
X96164327Y-71847199D01*
X96198466Y-71821893D01*
X96239971Y-71803712D01*
X96298652Y-71789883D01*
X96384319Y-71777634D01*
X96506780Y-71764192D01*
X96568543Y-71757832D01*
X96807506Y-71739656D01*
X97022957Y-71735839D01*
X97209932Y-71745840D01*
G36*
X115706836Y-79361276D02*
X115719339Y-79393105D01*
X115708168Y-79404447D01*
X115673763Y-79402201D01*
X115665311Y-79392924D01*
X115659387Y-79356865D01*
X115683958Y-79347153D01*
X115706836Y-79361276D01*
X115706836Y-79361276D01*
G37*
X115706836Y-79361276D02*
X115719339Y-79393105D01*
X115708168Y-79404447D01*
X115673763Y-79402201D01*
X115665311Y-79392924D01*
X115659387Y-79356865D01*
X115683958Y-79347153D01*
X115706836Y-79361276D01*
G36*
X112433075Y-76339199D02*
X112573254Y-76368726D01*
X112699188Y-76418580D01*
X112722553Y-76430544D01*
X112861904Y-76504844D01*
X112961956Y-76559474D01*
X113028612Y-76597944D01*
X113067777Y-76623765D01*
X113085354Y-76640449D01*
X113088000Y-76647883D01*
X113101210Y-76680061D01*
X113134665Y-76736996D01*
X113155100Y-76768105D01*
X113193738Y-76834072D01*
X113213544Y-76899496D01*
X113219674Y-76985504D01*
X113219430Y-77031733D01*
X113218963Y-77092693D01*
X113216137Y-77139346D01*
X113205286Y-77177230D01*
X113180746Y-77211886D01*
X113136852Y-77248852D01*
X113067938Y-77293668D01*
X112968339Y-77351872D01*
X112832391Y-77429004D01*
X112786468Y-77455072D01*
X112617693Y-77546589D01*
X112459789Y-77623811D01*
X112324297Y-77681325D01*
X112250579Y-77706493D01*
X112168797Y-77730185D01*
X112112533Y-77751703D01*
X112078454Y-77779964D01*
X112063227Y-77823883D01*
X112063519Y-77892376D01*
X112075998Y-77994358D01*
X112094983Y-78122750D01*
X112119838Y-78264983D01*
X112149567Y-78367775D01*
X112190132Y-78442473D01*
X112247496Y-78500424D01*
X112318189Y-78547508D01*
X112437096Y-78617192D01*
X112756198Y-78534319D01*
X112954779Y-78479338D01*
X113109881Y-78426817D01*
X113228303Y-78371966D01*
X113316844Y-78309996D01*
X113382305Y-78236117D01*
X113431485Y-78145539D01*
X113471185Y-78033473D01*
X113472234Y-78029954D01*
X113511133Y-77918793D01*
X113551207Y-77839089D01*
X113580417Y-77805222D01*
X113617079Y-77785145D01*
X113642955Y-77795890D01*
X113673422Y-77844782D01*
X113676820Y-77851126D01*
X113703138Y-77928605D01*
X113718625Y-78031212D01*
X113722975Y-78142084D01*
X113715884Y-78244361D01*
X113697045Y-78321178D01*
X113685707Y-78341595D01*
X113655296Y-78404563D01*
X113647607Y-78447397D01*
X113622114Y-78505576D01*
X113569307Y-78543968D01*
X113514304Y-78583808D01*
X113505014Y-78625424D01*
X113505785Y-78628057D01*
X113498798Y-78670236D01*
X113446942Y-78713474D01*
X113437227Y-78719176D01*
X113361001Y-78769975D01*
X113285195Y-78831028D01*
X113278500Y-78837150D01*
X113180973Y-78913321D01*
X113059793Y-78987197D01*
X112932331Y-79049785D01*
X112815958Y-79092090D01*
X112764576Y-79103232D01*
X112679174Y-79120977D01*
X112606808Y-79145533D01*
X112587243Y-79155653D01*
X112536221Y-79170808D01*
X112445730Y-79181647D01*
X112326917Y-79188201D01*
X112190927Y-79190502D01*
X112048905Y-79188583D01*
X111911997Y-79182475D01*
X111791349Y-79172212D01*
X111698106Y-79157825D01*
X111678300Y-79153027D01*
X111509365Y-79096466D01*
X111347233Y-79023256D01*
X111210623Y-78942243D01*
X111173157Y-78914365D01*
X111110453Y-78868450D01*
X111061345Y-78839947D01*
X111046157Y-78835350D01*
X111018214Y-78815725D01*
X110973663Y-78764668D01*
X110929000Y-78703116D01*
X110873675Y-78624267D01*
X110822316Y-78556733D01*
X110793723Y-78523438D01*
X110760129Y-78476902D01*
X110716121Y-78399979D01*
X110671064Y-78309072D01*
X110669850Y-78306423D01*
X110633709Y-78223089D01*
X110611306Y-78154258D01*
X110599765Y-78083139D01*
X110596208Y-77992942D01*
X110597414Y-77883664D01*
X110602747Y-77749000D01*
X110614952Y-77644412D01*
X110637731Y-77549276D01*
X110674781Y-77442967D01*
X110677535Y-77435795D01*
X111945000Y-77435795D01*
X111947134Y-77503519D01*
X111959245Y-77544391D01*
X111989893Y-77560987D01*
X112047639Y-77555882D01*
X112141044Y-77531653D01*
X112202974Y-77513416D01*
X112301622Y-77476925D01*
X112423619Y-77421482D01*
X112549905Y-77356102D01*
X112616769Y-77317685D01*
X112753220Y-77229917D01*
X112843432Y-77157868D01*
X112888906Y-77099891D01*
X112891141Y-77054336D01*
X112874787Y-77034230D01*
X112847130Y-76993801D01*
X112818576Y-76926620D01*
X112811815Y-76905716D01*
X112788058Y-76842036D01*
X112754903Y-76798800D01*
X112700647Y-76767816D01*
X112613587Y-76740891D01*
X112556405Y-76726932D01*
X112510568Y-76714972D01*
X112474759Y-76706667D01*
X112444172Y-76706429D01*
X112414000Y-76718668D01*
X112379436Y-76747798D01*
X112335672Y-76798228D01*
X112277901Y-76874371D01*
X112201318Y-76980639D01*
X112101114Y-77121443D01*
X112052950Y-77188972D01*
X111988679Y-77287823D01*
X111954770Y-77365658D01*
X111945000Y-77435795D01*
X110677535Y-77435795D01*
X110677948Y-77434722D01*
X110722258Y-77328582D01*
X110769712Y-77228662D01*
X110810979Y-77154430D01*
X110815810Y-77147080D01*
X110853883Y-77087774D01*
X110875967Y-77047178D01*
X110878200Y-77039838D01*
X110898119Y-76997522D01*
X110952789Y-76933377D01*
X111034575Y-76853575D01*
X111135843Y-76764292D01*
X111248960Y-76671700D01*
X111366291Y-76581975D01*
X111480203Y-76501290D01*
X111583062Y-76435819D01*
X111667234Y-76391737D01*
X111691000Y-76382459D01*
X111752991Y-76368439D01*
X111850902Y-76354201D01*
X111969896Y-76341651D01*
X112064401Y-76334472D01*
X112267255Y-76328336D01*
X112433075Y-76339199D01*
X112433075Y-76339199D01*
G37*
X112433075Y-76339199D02*
X112573254Y-76368726D01*
X112699188Y-76418580D01*
X112722553Y-76430544D01*
X112861904Y-76504844D01*
X112961956Y-76559474D01*
X113028612Y-76597944D01*
X113067777Y-76623765D01*
X113085354Y-76640449D01*
X113088000Y-76647883D01*
X113101210Y-76680061D01*
X113134665Y-76736996D01*
X113155100Y-76768105D01*
X113193738Y-76834072D01*
X113213544Y-76899496D01*
X113219674Y-76985504D01*
X113219430Y-77031733D01*
X113218963Y-77092693D01*
X113216137Y-77139346D01*
X113205286Y-77177230D01*
X113180746Y-77211886D01*
X113136852Y-77248852D01*
X113067938Y-77293668D01*
X112968339Y-77351872D01*
X112832391Y-77429004D01*
X112786468Y-77455072D01*
X112617693Y-77546589D01*
X112459789Y-77623811D01*
X112324297Y-77681325D01*
X112250579Y-77706493D01*
X112168797Y-77730185D01*
X112112533Y-77751703D01*
X112078454Y-77779964D01*
X112063227Y-77823883D01*
X112063519Y-77892376D01*
X112075998Y-77994358D01*
X112094983Y-78122750D01*
X112119838Y-78264983D01*
X112149567Y-78367775D01*
X112190132Y-78442473D01*
X112247496Y-78500424D01*
X112318189Y-78547508D01*
X112437096Y-78617192D01*
X112756198Y-78534319D01*
X112954779Y-78479338D01*
X113109881Y-78426817D01*
X113228303Y-78371966D01*
X113316844Y-78309996D01*
X113382305Y-78236117D01*
X113431485Y-78145539D01*
X113471185Y-78033473D01*
X113472234Y-78029954D01*
X113511133Y-77918793D01*
X113551207Y-77839089D01*
X113580417Y-77805222D01*
X113617079Y-77785145D01*
X113642955Y-77795890D01*
X113673422Y-77844782D01*
X113676820Y-77851126D01*
X113703138Y-77928605D01*
X113718625Y-78031212D01*
X113722975Y-78142084D01*
X113715884Y-78244361D01*
X113697045Y-78321178D01*
X113685707Y-78341595D01*
X113655296Y-78404563D01*
X113647607Y-78447397D01*
X113622114Y-78505576D01*
X113569307Y-78543968D01*
X113514304Y-78583808D01*
X113505014Y-78625424D01*
X113505785Y-78628057D01*
X113498798Y-78670236D01*
X113446942Y-78713474D01*
X113437227Y-78719176D01*
X113361001Y-78769975D01*
X113285195Y-78831028D01*
X113278500Y-78837150D01*
X113180973Y-78913321D01*
X113059793Y-78987197D01*
X112932331Y-79049785D01*
X112815958Y-79092090D01*
X112764576Y-79103232D01*
X112679174Y-79120977D01*
X112606808Y-79145533D01*
X112587243Y-79155653D01*
X112536221Y-79170808D01*
X112445730Y-79181647D01*
X112326917Y-79188201D01*
X112190927Y-79190502D01*
X112048905Y-79188583D01*
X111911997Y-79182475D01*
X111791349Y-79172212D01*
X111698106Y-79157825D01*
X111678300Y-79153027D01*
X111509365Y-79096466D01*
X111347233Y-79023256D01*
X111210623Y-78942243D01*
X111173157Y-78914365D01*
X111110453Y-78868450D01*
X111061345Y-78839947D01*
X111046157Y-78835350D01*
X111018214Y-78815725D01*
X110973663Y-78764668D01*
X110929000Y-78703116D01*
X110873675Y-78624267D01*
X110822316Y-78556733D01*
X110793723Y-78523438D01*
X110760129Y-78476902D01*
X110716121Y-78399979D01*
X110671064Y-78309072D01*
X110669850Y-78306423D01*
X110633709Y-78223089D01*
X110611306Y-78154258D01*
X110599765Y-78083139D01*
X110596208Y-77992942D01*
X110597414Y-77883664D01*
X110602747Y-77749000D01*
X110614952Y-77644412D01*
X110637731Y-77549276D01*
X110674781Y-77442967D01*
X110677535Y-77435795D01*
X111945000Y-77435795D01*
X111947134Y-77503519D01*
X111959245Y-77544391D01*
X111989893Y-77560987D01*
X112047639Y-77555882D01*
X112141044Y-77531653D01*
X112202974Y-77513416D01*
X112301622Y-77476925D01*
X112423619Y-77421482D01*
X112549905Y-77356102D01*
X112616769Y-77317685D01*
X112753220Y-77229917D01*
X112843432Y-77157868D01*
X112888906Y-77099891D01*
X112891141Y-77054336D01*
X112874787Y-77034230D01*
X112847130Y-76993801D01*
X112818576Y-76926620D01*
X112811815Y-76905716D01*
X112788058Y-76842036D01*
X112754903Y-76798800D01*
X112700647Y-76767816D01*
X112613587Y-76740891D01*
X112556405Y-76726932D01*
X112510568Y-76714972D01*
X112474759Y-76706667D01*
X112444172Y-76706429D01*
X112414000Y-76718668D01*
X112379436Y-76747798D01*
X112335672Y-76798228D01*
X112277901Y-76874371D01*
X112201318Y-76980639D01*
X112101114Y-77121443D01*
X112052950Y-77188972D01*
X111988679Y-77287823D01*
X111954770Y-77365658D01*
X111945000Y-77435795D01*
X110677535Y-77435795D01*
X110677948Y-77434722D01*
X110722258Y-77328582D01*
X110769712Y-77228662D01*
X110810979Y-77154430D01*
X110815810Y-77147080D01*
X110853883Y-77087774D01*
X110875967Y-77047178D01*
X110878200Y-77039838D01*
X110898119Y-76997522D01*
X110952789Y-76933377D01*
X111034575Y-76853575D01*
X111135843Y-76764292D01*
X111248960Y-76671700D01*
X111366291Y-76581975D01*
X111480203Y-76501290D01*
X111583062Y-76435819D01*
X111667234Y-76391737D01*
X111691000Y-76382459D01*
X111752991Y-76368439D01*
X111850902Y-76354201D01*
X111969896Y-76341651D01*
X112064401Y-76334472D01*
X112267255Y-76328336D01*
X112433075Y-76339199D01*
G36*
X105557952Y-71803689D02*
X105680130Y-71805817D01*
X105887495Y-71810132D01*
X106051201Y-71815295D01*
X106178388Y-71821831D01*
X106276196Y-71830265D01*
X106351763Y-71841123D01*
X106412232Y-71854929D01*
X106433200Y-71861206D01*
X106572426Y-71922853D01*
X106671306Y-72004457D01*
X106725607Y-72102392D01*
X106728751Y-72114319D01*
X106741032Y-72191670D01*
X106735019Y-72263165D01*
X106707484Y-72346952D01*
X106674022Y-72421900D01*
X106638456Y-72519011D01*
X106609548Y-72636377D01*
X106597231Y-72717120D01*
X106580373Y-72885341D01*
X106778388Y-72903897D01*
X106924077Y-72925123D01*
X107023071Y-72957927D01*
X107078463Y-73003808D01*
X107093600Y-73056498D01*
X107089723Y-73084367D01*
X107071639Y-73103620D01*
X107029662Y-73117973D01*
X106954108Y-73131144D01*
X106869629Y-73142476D01*
X106758107Y-73155658D01*
X106656916Y-73165653D01*
X106583217Y-73170828D01*
X106567845Y-73171200D01*
X106518553Y-73176141D01*
X106489800Y-73199880D01*
X106468998Y-73255788D01*
X106461615Y-73284047D01*
X106446569Y-73370684D01*
X106436268Y-73481422D01*
X106433200Y-73572954D01*
X106427659Y-73681338D01*
X106413254Y-73785948D01*
X106396459Y-73853147D01*
X106378301Y-73918999D01*
X106375762Y-73962429D01*
X106379836Y-73969715D01*
X106386679Y-73997707D01*
X106394285Y-74068792D01*
X106402111Y-74175278D01*
X106409616Y-74309475D01*
X106416257Y-74463691D01*
X106417913Y-74510124D01*
X106426053Y-74713943D01*
X106435208Y-74871523D01*
X106445792Y-74987420D01*
X106458221Y-75066190D01*
X106472635Y-75111852D01*
X106499587Y-75189500D01*
X106509400Y-75258914D01*
X106521120Y-75328595D01*
X106550258Y-75410894D01*
X106560200Y-75431800D01*
X106592341Y-75509450D01*
X106609894Y-75580349D01*
X106611000Y-75595888D01*
X106623676Y-75648965D01*
X106656886Y-75663863D01*
X106703395Y-75644946D01*
X106755973Y-75596576D01*
X106807386Y-75523116D01*
X106839169Y-75458239D01*
X106875637Y-75399925D01*
X106919794Y-75387843D01*
X106974711Y-75422592D01*
X107037811Y-75497028D01*
X107088499Y-75573789D01*
X107111648Y-75637578D01*
X107114990Y-75711981D01*
X107114011Y-75729471D01*
X107105622Y-75801791D01*
X107084230Y-75848861D01*
X107037667Y-75889613D01*
X106992000Y-75919270D01*
X106835031Y-76009555D01*
X106691847Y-76072648D01*
X106540658Y-76117618D01*
X106485957Y-76129888D01*
X106286499Y-76159609D01*
X106091204Y-76160994D01*
X105880195Y-76133740D01*
X105809318Y-76119607D01*
X105608067Y-76059811D01*
X105426153Y-75972830D01*
X105275588Y-75865049D01*
X105214000Y-75803280D01*
X105137979Y-75709790D01*
X105077280Y-75617813D01*
X105027083Y-75516438D01*
X104982573Y-75394752D01*
X104938932Y-75241844D01*
X104904227Y-75101600D01*
X104883177Y-75011797D01*
X104866401Y-74934094D01*
X104853355Y-74861122D01*
X104843499Y-74785517D01*
X104836289Y-74699911D01*
X104831185Y-74596936D01*
X104827643Y-74469227D01*
X104825121Y-74309417D01*
X104823079Y-74110139D01*
X104821988Y-73984000D01*
X104815216Y-73183900D01*
X104619692Y-73176459D01*
X104505152Y-73168090D01*
X104435778Y-73151169D01*
X104406182Y-73122119D01*
X104410973Y-73077361D01*
X104424991Y-73047206D01*
X104445746Y-73020816D01*
X104481166Y-73004204D01*
X104542750Y-72994474D01*
X104641999Y-72988730D01*
X104659774Y-72988071D01*
X104866855Y-72980700D01*
X104875332Y-72777500D01*
X104883660Y-72651401D01*
X104897251Y-72518086D01*
X104912722Y-72409200D01*
X104927542Y-72291111D01*
X104935936Y-72156643D01*
X104936544Y-72063901D01*
X104934931Y-71986353D01*
X104938529Y-71925287D01*
X104952675Y-71878849D01*
X104982708Y-71845187D01*
X105033963Y-71822449D01*
X105111778Y-71808783D01*
X105221489Y-71802335D01*
X105368435Y-71801255D01*
X105557952Y-71803689D01*
X105557952Y-71803689D01*
G37*
X105557952Y-71803689D02*
X105680130Y-71805817D01*
X105887495Y-71810132D01*
X106051201Y-71815295D01*
X106178388Y-71821831D01*
X106276196Y-71830265D01*
X106351763Y-71841123D01*
X106412232Y-71854929D01*
X106433200Y-71861206D01*
X106572426Y-71922853D01*
X106671306Y-72004457D01*
X106725607Y-72102392D01*
X106728751Y-72114319D01*
X106741032Y-72191670D01*
X106735019Y-72263165D01*
X106707484Y-72346952D01*
X106674022Y-72421900D01*
X106638456Y-72519011D01*
X106609548Y-72636377D01*
X106597231Y-72717120D01*
X106580373Y-72885341D01*
X106778388Y-72903897D01*
X106924077Y-72925123D01*
X107023071Y-72957927D01*
X107078463Y-73003808D01*
X107093600Y-73056498D01*
X107089723Y-73084367D01*
X107071639Y-73103620D01*
X107029662Y-73117973D01*
X106954108Y-73131144D01*
X106869629Y-73142476D01*
X106758107Y-73155658D01*
X106656916Y-73165653D01*
X106583217Y-73170828D01*
X106567845Y-73171200D01*
X106518553Y-73176141D01*
X106489800Y-73199880D01*
X106468998Y-73255788D01*
X106461615Y-73284047D01*
X106446569Y-73370684D01*
X106436268Y-73481422D01*
X106433200Y-73572954D01*
X106427659Y-73681338D01*
X106413254Y-73785948D01*
X106396459Y-73853147D01*
X106378301Y-73918999D01*
X106375762Y-73962429D01*
X106379836Y-73969715D01*
X106386679Y-73997707D01*
X106394285Y-74068792D01*
X106402111Y-74175278D01*
X106409616Y-74309475D01*
X106416257Y-74463691D01*
X106417913Y-74510124D01*
X106426053Y-74713943D01*
X106435208Y-74871523D01*
X106445792Y-74987420D01*
X106458221Y-75066190D01*
X106472635Y-75111852D01*
X106499587Y-75189500D01*
X106509400Y-75258914D01*
X106521120Y-75328595D01*
X106550258Y-75410894D01*
X106560200Y-75431800D01*
X106592341Y-75509450D01*
X106609894Y-75580349D01*
X106611000Y-75595888D01*
X106623676Y-75648965D01*
X106656886Y-75663863D01*
X106703395Y-75644946D01*
X106755973Y-75596576D01*
X106807386Y-75523116D01*
X106839169Y-75458239D01*
X106875637Y-75399925D01*
X106919794Y-75387843D01*
X106974711Y-75422592D01*
X107037811Y-75497028D01*
X107088499Y-75573789D01*
X107111648Y-75637578D01*
X107114990Y-75711981D01*
X107114011Y-75729471D01*
X107105622Y-75801791D01*
X107084230Y-75848861D01*
X107037667Y-75889613D01*
X106992000Y-75919270D01*
X106835031Y-76009555D01*
X106691847Y-76072648D01*
X106540658Y-76117618D01*
X106485957Y-76129888D01*
X106286499Y-76159609D01*
X106091204Y-76160994D01*
X105880195Y-76133740D01*
X105809318Y-76119607D01*
X105608067Y-76059811D01*
X105426153Y-75972830D01*
X105275588Y-75865049D01*
X105214000Y-75803280D01*
X105137979Y-75709790D01*
X105077280Y-75617813D01*
X105027083Y-75516438D01*
X104982573Y-75394752D01*
X104938932Y-75241844D01*
X104904227Y-75101600D01*
X104883177Y-75011797D01*
X104866401Y-74934094D01*
X104853355Y-74861122D01*
X104843499Y-74785517D01*
X104836289Y-74699911D01*
X104831185Y-74596936D01*
X104827643Y-74469227D01*
X104825121Y-74309417D01*
X104823079Y-74110139D01*
X104821988Y-73984000D01*
X104815216Y-73183900D01*
X104619692Y-73176459D01*
X104505152Y-73168090D01*
X104435778Y-73151169D01*
X104406182Y-73122119D01*
X104410973Y-73077361D01*
X104424991Y-73047206D01*
X104445746Y-73020816D01*
X104481166Y-73004204D01*
X104542750Y-72994474D01*
X104641999Y-72988730D01*
X104659774Y-72988071D01*
X104866855Y-72980700D01*
X104875332Y-72777500D01*
X104883660Y-72651401D01*
X104897251Y-72518086D01*
X104912722Y-72409200D01*
X104927542Y-72291111D01*
X104935936Y-72156643D01*
X104936544Y-72063901D01*
X104934931Y-71986353D01*
X104938529Y-71925287D01*
X104952675Y-71878849D01*
X104982708Y-71845187D01*
X105033963Y-71822449D01*
X105111778Y-71808783D01*
X105221489Y-71802335D01*
X105368435Y-71801255D01*
X105557952Y-71803689D01*
G36*
X113455419Y-72917934D02*
X113563175Y-72921603D01*
X113650181Y-72930410D01*
X113731457Y-72946556D01*
X113822025Y-72972241D01*
X113932235Y-73008110D01*
X114142254Y-73085770D01*
X114309931Y-73164290D01*
X114432704Y-73242237D01*
X114508008Y-73318176D01*
X114518919Y-73336300D01*
X114543977Y-73402942D01*
X114567844Y-73496882D01*
X114581675Y-73574065D01*
X114592478Y-73671456D01*
X114589688Y-73740603D01*
X114571139Y-73802757D01*
X114554691Y-73839072D01*
X114516720Y-73910073D01*
X114481365Y-73964219D01*
X114471724Y-73975503D01*
X114438828Y-74015363D01*
X114430117Y-74030988D01*
X114401408Y-74056034D01*
X114369995Y-74069462D01*
X114346131Y-74072309D01*
X114326264Y-74058724D01*
X114306469Y-74020806D01*
X114282819Y-73950653D01*
X114251391Y-73840364D01*
X114245475Y-73818819D01*
X114212734Y-73708848D01*
X114181681Y-73621562D01*
X114156031Y-73566545D01*
X114142132Y-73552200D01*
X114089891Y-73565794D01*
X114018771Y-73598998D01*
X113950153Y-73640446D01*
X113906419Y-73677514D01*
X113806402Y-73818796D01*
X113697687Y-74007832D01*
X113581433Y-74242542D01*
X113533357Y-74348124D01*
X113497695Y-74453386D01*
X113467298Y-74588947D01*
X113445728Y-74734335D01*
X113436548Y-74869078D01*
X113436717Y-74903422D01*
X113450246Y-75011532D01*
X113481722Y-75134227D01*
X113525085Y-75254088D01*
X113574274Y-75353696D01*
X113610910Y-75404173D01*
X113668270Y-75446835D01*
X113748869Y-75470147D01*
X113805521Y-75476776D01*
X113957786Y-75465299D01*
X114106606Y-75410357D01*
X114239336Y-75318445D01*
X114339020Y-75202782D01*
X114400383Y-75121669D01*
X114447874Y-75085861D01*
X114479249Y-75095558D01*
X114492264Y-75150958D01*
X114491635Y-75189221D01*
X114494510Y-75261719D01*
X114509349Y-75315002D01*
X114513537Y-75321279D01*
X114522045Y-75351446D01*
X114497636Y-75392547D01*
X114453246Y-75437838D01*
X114308375Y-75567229D01*
X114180083Y-75663720D01*
X114053985Y-75734686D01*
X113915698Y-75787500D01*
X113750839Y-75829539D01*
X113650344Y-75849493D01*
X113518472Y-75871769D01*
X113410235Y-75882800D01*
X113308130Y-75882343D01*
X113194653Y-75870152D01*
X113052303Y-75845984D01*
X113024500Y-75840767D01*
X112871031Y-75807334D01*
X112752589Y-75768585D01*
X112653459Y-75716814D01*
X112557923Y-75644315D01*
X112482734Y-75575144D01*
X112405557Y-75495924D01*
X112344414Y-75419192D01*
X112291370Y-75332014D01*
X112238488Y-75221454D01*
X112181886Y-75084777D01*
X112155286Y-75014810D01*
X112136536Y-74953065D01*
X112124278Y-74888363D01*
X112117148Y-74809527D01*
X112113788Y-74705376D01*
X112112834Y-74564731D01*
X112112813Y-74517400D01*
X112112894Y-74123700D01*
X112200397Y-73932867D01*
X112318167Y-73693877D01*
X112436008Y-73493960D01*
X112561468Y-73321946D01*
X112702094Y-73166662D01*
X112748569Y-73121478D01*
X112964375Y-72917200D01*
X113311890Y-72917200D01*
X113455419Y-72917934D01*
X113455419Y-72917934D01*
G37*
X113455419Y-72917934D02*
X113563175Y-72921603D01*
X113650181Y-72930410D01*
X113731457Y-72946556D01*
X113822025Y-72972241D01*
X113932235Y-73008110D01*
X114142254Y-73085770D01*
X114309931Y-73164290D01*
X114432704Y-73242237D01*
X114508008Y-73318176D01*
X114518919Y-73336300D01*
X114543977Y-73402942D01*
X114567844Y-73496882D01*
X114581675Y-73574065D01*
X114592478Y-73671456D01*
X114589688Y-73740603D01*
X114571139Y-73802757D01*
X114554691Y-73839072D01*
X114516720Y-73910073D01*
X114481365Y-73964219D01*
X114471724Y-73975503D01*
X114438828Y-74015363D01*
X114430117Y-74030988D01*
X114401408Y-74056034D01*
X114369995Y-74069462D01*
X114346131Y-74072309D01*
X114326264Y-74058724D01*
X114306469Y-74020806D01*
X114282819Y-73950653D01*
X114251391Y-73840364D01*
X114245475Y-73818819D01*
X114212734Y-73708848D01*
X114181681Y-73621562D01*
X114156031Y-73566545D01*
X114142132Y-73552200D01*
X114089891Y-73565794D01*
X114018771Y-73598998D01*
X113950153Y-73640446D01*
X113906419Y-73677514D01*
X113806402Y-73818796D01*
X113697687Y-74007832D01*
X113581433Y-74242542D01*
X113533357Y-74348124D01*
X113497695Y-74453386D01*
X113467298Y-74588947D01*
X113445728Y-74734335D01*
X113436548Y-74869078D01*
X113436717Y-74903422D01*
X113450246Y-75011532D01*
X113481722Y-75134227D01*
X113525085Y-75254088D01*
X113574274Y-75353696D01*
X113610910Y-75404173D01*
X113668270Y-75446835D01*
X113748869Y-75470147D01*
X113805521Y-75476776D01*
X113957786Y-75465299D01*
X114106606Y-75410357D01*
X114239336Y-75318445D01*
X114339020Y-75202782D01*
X114400383Y-75121669D01*
X114447874Y-75085861D01*
X114479249Y-75095558D01*
X114492264Y-75150958D01*
X114491635Y-75189221D01*
X114494510Y-75261719D01*
X114509349Y-75315002D01*
X114513537Y-75321279D01*
X114522045Y-75351446D01*
X114497636Y-75392547D01*
X114453246Y-75437838D01*
X114308375Y-75567229D01*
X114180083Y-75663720D01*
X114053985Y-75734686D01*
X113915698Y-75787500D01*
X113750839Y-75829539D01*
X113650344Y-75849493D01*
X113518472Y-75871769D01*
X113410235Y-75882800D01*
X113308130Y-75882343D01*
X113194653Y-75870152D01*
X113052303Y-75845984D01*
X113024500Y-75840767D01*
X112871031Y-75807334D01*
X112752589Y-75768585D01*
X112653459Y-75716814D01*
X112557923Y-75644315D01*
X112482734Y-75575144D01*
X112405557Y-75495924D01*
X112344414Y-75419192D01*
X112291370Y-75332014D01*
X112238488Y-75221454D01*
X112181886Y-75084777D01*
X112155286Y-75014810D01*
X112136536Y-74953065D01*
X112124278Y-74888363D01*
X112117148Y-74809527D01*
X112113788Y-74705376D01*
X112112834Y-74564731D01*
X112112813Y-74517400D01*
X112112894Y-74123700D01*
X112200397Y-73932867D01*
X112318167Y-73693877D01*
X112436008Y-73493960D01*
X112561468Y-73321946D01*
X112702094Y-73166662D01*
X112748569Y-73121478D01*
X112964375Y-72917200D01*
X113311890Y-72917200D01*
X113455419Y-72917934D01*
G36*
X110669408Y-73467490D02*
X110739335Y-73476910D01*
X110849618Y-73490755D01*
X110978074Y-73500244D01*
X111068700Y-73502960D01*
X111188344Y-73505230D01*
X111266042Y-73513263D01*
X111310588Y-73530365D01*
X111330774Y-73559842D01*
X111335400Y-73603212D01*
X111343406Y-73661230D01*
X111360800Y-73691900D01*
X111381089Y-73727220D01*
X111386200Y-73764519D01*
X111395723Y-73820536D01*
X111409224Y-73845570D01*
X111425301Y-73883852D01*
X111443037Y-73959130D01*
X111460289Y-74057741D01*
X111474914Y-74166023D01*
X111484771Y-74270314D01*
X111487800Y-74346582D01*
X111491815Y-74418889D01*
X111501908Y-74468352D01*
X111506850Y-74477104D01*
X111530247Y-74524989D01*
X111549186Y-74608792D01*
X111562074Y-74713714D01*
X111567320Y-74824954D01*
X111563333Y-74927711D01*
X111558994Y-74961900D01*
X111531721Y-75108385D01*
X111498379Y-75252045D01*
X111462096Y-75382061D01*
X111426002Y-75487615D01*
X111393222Y-75557890D01*
X111382248Y-75573137D01*
X111346726Y-75630890D01*
X111335400Y-75677009D01*
X111311054Y-75729737D01*
X111238927Y-75769051D01*
X111120389Y-75794389D01*
X111030600Y-75802476D01*
X110884198Y-75813268D01*
X110759615Y-75827069D01*
X110668979Y-75842431D01*
X110645470Y-75848527D01*
X110598593Y-75849169D01*
X110532837Y-75836198D01*
X110531566Y-75835833D01*
X110458653Y-75791951D01*
X110387355Y-75709267D01*
X110325273Y-75599424D01*
X110280007Y-75474066D01*
X110271198Y-75436899D01*
X110248041Y-75251817D01*
X110246023Y-75028699D01*
X110264308Y-74775312D01*
X110302061Y-74499422D01*
X110358445Y-74208795D01*
X110432625Y-73911197D01*
X110437116Y-73895100D01*
X110476198Y-73758458D01*
X110511765Y-73639104D01*
X110541152Y-73545591D01*
X110561697Y-73486474D01*
X110569441Y-73470084D01*
X110602411Y-73464109D01*
X110669408Y-73467490D01*
X110669408Y-73467490D01*
G37*
X110669408Y-73467490D02*
X110739335Y-73476910D01*
X110849618Y-73490755D01*
X110978074Y-73500244D01*
X111068700Y-73502960D01*
X111188344Y-73505230D01*
X111266042Y-73513263D01*
X111310588Y-73530365D01*
X111330774Y-73559842D01*
X111335400Y-73603212D01*
X111343406Y-73661230D01*
X111360800Y-73691900D01*
X111381089Y-73727220D01*
X111386200Y-73764519D01*
X111395723Y-73820536D01*
X111409224Y-73845570D01*
X111425301Y-73883852D01*
X111443037Y-73959130D01*
X111460289Y-74057741D01*
X111474914Y-74166023D01*
X111484771Y-74270314D01*
X111487800Y-74346582D01*
X111491815Y-74418889D01*
X111501908Y-74468352D01*
X111506850Y-74477104D01*
X111530247Y-74524989D01*
X111549186Y-74608792D01*
X111562074Y-74713714D01*
X111567320Y-74824954D01*
X111563333Y-74927711D01*
X111558994Y-74961900D01*
X111531721Y-75108385D01*
X111498379Y-75252045D01*
X111462096Y-75382061D01*
X111426002Y-75487615D01*
X111393222Y-75557890D01*
X111382248Y-75573137D01*
X111346726Y-75630890D01*
X111335400Y-75677009D01*
X111311054Y-75729737D01*
X111238927Y-75769051D01*
X111120389Y-75794389D01*
X111030600Y-75802476D01*
X110884198Y-75813268D01*
X110759615Y-75827069D01*
X110668979Y-75842431D01*
X110645470Y-75848527D01*
X110598593Y-75849169D01*
X110532837Y-75836198D01*
X110531566Y-75835833D01*
X110458653Y-75791951D01*
X110387355Y-75709267D01*
X110325273Y-75599424D01*
X110280007Y-75474066D01*
X110271198Y-75436899D01*
X110248041Y-75251817D01*
X110246023Y-75028699D01*
X110264308Y-74775312D01*
X110302061Y-74499422D01*
X110358445Y-74208795D01*
X110432625Y-73911197D01*
X110437116Y-73895100D01*
X110476198Y-73758458D01*
X110511765Y-73639104D01*
X110541152Y-73545591D01*
X110561697Y-73486474D01*
X110569441Y-73470084D01*
X110602411Y-73464109D01*
X110669408Y-73467490D01*
G36*
X103083706Y-72841658D02*
X103193271Y-72844948D01*
X103280144Y-72852843D01*
X103358377Y-72867316D01*
X103442022Y-72890340D01*
X103545131Y-72923887D01*
X103557585Y-72928076D01*
X103753244Y-73002017D01*
X103914612Y-73079724D01*
X104036835Y-73158384D01*
X104115058Y-73235184D01*
X104130627Y-73260100D01*
X104155509Y-73326721D01*
X104179265Y-73420660D01*
X104193096Y-73498006D01*
X104203894Y-73597312D01*
X104200932Y-73665962D01*
X104182776Y-73722577D01*
X104174516Y-73739306D01*
X104111144Y-73854663D01*
X104061586Y-73929483D01*
X104020619Y-73970326D01*
X103983016Y-73983752D01*
X103979734Y-73983839D01*
X103951281Y-73976840D01*
X103927671Y-73949451D01*
X103903951Y-73892378D01*
X103875169Y-73796326D01*
X103870174Y-73778216D01*
X103841015Y-73674589D01*
X103814006Y-73583383D01*
X103794003Y-73520878D01*
X103790643Y-73511583D01*
X103767508Y-73450733D01*
X103658904Y-73506713D01*
X103594720Y-73541886D01*
X103546540Y-73576793D01*
X103503054Y-73622968D01*
X103452951Y-73691944D01*
X103402583Y-73768100D01*
X103275212Y-73986520D01*
X103173739Y-74208147D01*
X103100398Y-74425126D01*
X103057422Y-74629598D01*
X103047046Y-74813706D01*
X103066224Y-74951006D01*
X103117230Y-75117932D01*
X103173042Y-75240119D01*
X103238575Y-75323626D01*
X103318742Y-75374516D01*
X103418459Y-75398848D01*
X103430401Y-75400122D01*
X103568425Y-75389898D01*
X103708601Y-75338562D01*
X103837281Y-75253281D01*
X103940815Y-75141223D01*
X103950420Y-75127055D01*
X104012311Y-75045827D01*
X104063820Y-75003182D01*
X104100220Y-75000122D01*
X104116785Y-75037649D01*
X104113440Y-75092470D01*
X104109723Y-75166734D01*
X104120525Y-75225674D01*
X104122770Y-75230412D01*
X104130044Y-75267138D01*
X104107189Y-75309894D01*
X104059717Y-75360191D01*
X103920858Y-75487787D01*
X103797874Y-75583004D01*
X103676602Y-75653014D01*
X103542880Y-75704987D01*
X103382545Y-75746095D01*
X103245500Y-75772493D01*
X103128956Y-75792366D01*
X103039715Y-75803977D01*
X102962274Y-75807100D01*
X102881132Y-75801511D01*
X102780786Y-75786984D01*
X102648600Y-75763809D01*
X102479190Y-75727262D01*
X102346675Y-75682361D01*
X102237171Y-75622360D01*
X102136798Y-75540512D01*
X102087328Y-75491001D01*
X101999416Y-75391805D01*
X101930541Y-75295027D01*
X101871270Y-75184840D01*
X101812175Y-75045417D01*
X101794759Y-75000000D01*
X101766149Y-74920715D01*
X101746305Y-74852194D01*
X101733635Y-74782092D01*
X101726550Y-74698063D01*
X101723459Y-74587762D01*
X101722771Y-74441200D01*
X101723147Y-74296333D01*
X101725554Y-74190167D01*
X101731831Y-74110601D01*
X101743818Y-74045537D01*
X101763353Y-73982874D01*
X101792276Y-73910514D01*
X101809642Y-73869700D01*
X101942619Y-73593090D01*
X102089389Y-73356544D01*
X102256808Y-73149804D01*
X102361728Y-73043613D01*
X102575775Y-72841000D01*
X102937397Y-72841000D01*
X103083706Y-72841658D01*
X103083706Y-72841658D01*
G37*
X103083706Y-72841658D02*
X103193271Y-72844948D01*
X103280144Y-72852843D01*
X103358377Y-72867316D01*
X103442022Y-72890340D01*
X103545131Y-72923887D01*
X103557585Y-72928076D01*
X103753244Y-73002017D01*
X103914612Y-73079724D01*
X104036835Y-73158384D01*
X104115058Y-73235184D01*
X104130627Y-73260100D01*
X104155509Y-73326721D01*
X104179265Y-73420660D01*
X104193096Y-73498006D01*
X104203894Y-73597312D01*
X104200932Y-73665962D01*
X104182776Y-73722577D01*
X104174516Y-73739306D01*
X104111144Y-73854663D01*
X104061586Y-73929483D01*
X104020619Y-73970326D01*
X103983016Y-73983752D01*
X103979734Y-73983839D01*
X103951281Y-73976840D01*
X103927671Y-73949451D01*
X103903951Y-73892378D01*
X103875169Y-73796326D01*
X103870174Y-73778216D01*
X103841015Y-73674589D01*
X103814006Y-73583383D01*
X103794003Y-73520878D01*
X103790643Y-73511583D01*
X103767508Y-73450733D01*
X103658904Y-73506713D01*
X103594720Y-73541886D01*
X103546540Y-73576793D01*
X103503054Y-73622968D01*
X103452951Y-73691944D01*
X103402583Y-73768100D01*
X103275212Y-73986520D01*
X103173739Y-74208147D01*
X103100398Y-74425126D01*
X103057422Y-74629598D01*
X103047046Y-74813706D01*
X103066224Y-74951006D01*
X103117230Y-75117932D01*
X103173042Y-75240119D01*
X103238575Y-75323626D01*
X103318742Y-75374516D01*
X103418459Y-75398848D01*
X103430401Y-75400122D01*
X103568425Y-75389898D01*
X103708601Y-75338562D01*
X103837281Y-75253281D01*
X103940815Y-75141223D01*
X103950420Y-75127055D01*
X104012311Y-75045827D01*
X104063820Y-75003182D01*
X104100220Y-75000122D01*
X104116785Y-75037649D01*
X104113440Y-75092470D01*
X104109723Y-75166734D01*
X104120525Y-75225674D01*
X104122770Y-75230412D01*
X104130044Y-75267138D01*
X104107189Y-75309894D01*
X104059717Y-75360191D01*
X103920858Y-75487787D01*
X103797874Y-75583004D01*
X103676602Y-75653014D01*
X103542880Y-75704987D01*
X103382545Y-75746095D01*
X103245500Y-75772493D01*
X103128956Y-75792366D01*
X103039715Y-75803977D01*
X102962274Y-75807100D01*
X102881132Y-75801511D01*
X102780786Y-75786984D01*
X102648600Y-75763809D01*
X102479190Y-75727262D01*
X102346675Y-75682361D01*
X102237171Y-75622360D01*
X102136798Y-75540512D01*
X102087328Y-75491001D01*
X101999416Y-75391805D01*
X101930541Y-75295027D01*
X101871270Y-75184840D01*
X101812175Y-75045417D01*
X101794759Y-75000000D01*
X101766149Y-74920715D01*
X101746305Y-74852194D01*
X101733635Y-74782092D01*
X101726550Y-74698063D01*
X101723459Y-74587762D01*
X101722771Y-74441200D01*
X101723147Y-74296333D01*
X101725554Y-74190167D01*
X101731831Y-74110601D01*
X101743818Y-74045537D01*
X101763353Y-73982874D01*
X101792276Y-73910514D01*
X101809642Y-73869700D01*
X101942619Y-73593090D01*
X102089389Y-73356544D01*
X102256808Y-73149804D01*
X102361728Y-73043613D01*
X102575775Y-72841000D01*
X102937397Y-72841000D01*
X103083706Y-72841658D01*
G36*
X94131137Y-72717914D02*
X94482500Y-72726795D01*
X94742714Y-72866447D01*
X94845092Y-72923482D01*
X94928541Y-72973951D01*
X94984147Y-73012188D01*
X95003064Y-73031953D01*
X95016435Y-73067289D01*
X95049906Y-73125626D01*
X95066699Y-73151256D01*
X95103151Y-73214988D01*
X95122580Y-73282371D01*
X95129674Y-73373089D01*
X95130111Y-73417502D01*
X95130023Y-73590300D01*
X94741264Y-73810317D01*
X94546904Y-73916639D01*
X94385400Y-73996472D01*
X94248759Y-74053522D01*
X94142812Y-74087801D01*
X94041699Y-74116306D01*
X93980854Y-74137518D01*
X93951420Y-74157095D01*
X93944543Y-74180696D01*
X93950490Y-74210684D01*
X93963182Y-74270359D01*
X93978605Y-74359299D01*
X93990960Y-74441200D01*
X94004179Y-74535142D01*
X94015489Y-74614580D01*
X94021674Y-74657100D01*
X94058636Y-74763327D01*
X94129099Y-74860087D01*
X94220455Y-74934875D01*
X94320092Y-74975191D01*
X94345811Y-74978485D01*
X94392723Y-74973639D01*
X94477022Y-74957614D01*
X94587154Y-74932851D01*
X94711565Y-74901793D01*
X94723800Y-74898579D01*
X94911974Y-74844802D01*
X95057302Y-74791577D01*
X95167346Y-74733161D01*
X95249669Y-74663807D01*
X95311830Y-74577769D01*
X95361394Y-74469302D01*
X95387111Y-74394596D01*
X95430817Y-74274381D01*
X95470933Y-74203243D01*
X95509568Y-74179780D01*
X95548829Y-74202590D01*
X95586636Y-74261903D01*
X95628460Y-74390345D01*
X95637074Y-74532731D01*
X95612444Y-74668173D01*
X95587400Y-74727234D01*
X95555394Y-74795390D01*
X95537781Y-74849306D01*
X95536600Y-74859555D01*
X95516016Y-74896120D01*
X95466127Y-74933496D01*
X95462644Y-74935339D01*
X95408478Y-74976706D01*
X95400661Y-75019361D01*
X95393001Y-75059776D01*
X95344228Y-75102473D01*
X95314534Y-75120275D01*
X95241052Y-75167552D01*
X95179965Y-75216749D01*
X95168669Y-75228191D01*
X95099577Y-75285781D01*
X94997604Y-75348759D01*
X94878880Y-75409155D01*
X94759536Y-75458996D01*
X94655703Y-75490312D01*
X94628578Y-75495093D01*
X94550944Y-75509082D01*
X94496205Y-75525825D01*
X94481029Y-75535779D01*
X94452844Y-75542451D01*
X94384142Y-75547844D01*
X94285190Y-75551889D01*
X94166257Y-75554515D01*
X94037612Y-75555650D01*
X93909521Y-75555224D01*
X93792255Y-75553165D01*
X93696080Y-75549404D01*
X93631265Y-75543869D01*
X93618900Y-75541728D01*
X93500214Y-75506620D01*
X93368810Y-75453326D01*
X93237162Y-75388490D01*
X93117745Y-75318754D01*
X93023034Y-75250759D01*
X92968360Y-75195336D01*
X92937994Y-75177844D01*
X92933122Y-75178390D01*
X92908065Y-75162691D01*
X92864290Y-75117037D01*
X92827971Y-75072610D01*
X92771464Y-74999818D01*
X92721487Y-74936132D01*
X92701544Y-74911100D01*
X92671676Y-74864403D01*
X92629362Y-74786317D01*
X92582678Y-74691925D01*
X92572314Y-74669800D01*
X92532369Y-74581670D01*
X92507530Y-74515199D01*
X92495225Y-74454143D01*
X92492882Y-74382255D01*
X92497931Y-74283290D01*
X92501949Y-74225300D01*
X92530372Y-73995464D01*
X92577099Y-73821452D01*
X93860200Y-73821452D01*
X93863786Y-73883191D01*
X93880091Y-73919769D01*
X93917430Y-73933351D01*
X93984120Y-73926100D01*
X94088478Y-73900181D01*
X94124401Y-73890204D01*
X94212856Y-73858271D01*
X94322578Y-73808329D01*
X94441847Y-73746948D01*
X94558943Y-73680697D01*
X94662146Y-73616144D01*
X94739736Y-73559859D01*
X94775395Y-73525324D01*
X94794092Y-73494247D01*
X94796981Y-73460022D01*
X94781778Y-73409229D01*
X94746198Y-73328450D01*
X94739393Y-73313840D01*
X94664496Y-73153500D01*
X94503624Y-73115009D01*
X94416235Y-73095134D01*
X94362487Y-73088828D01*
X94326695Y-73097512D01*
X94293174Y-73122608D01*
X94279276Y-73135346D01*
X94236052Y-73182552D01*
X94215977Y-73218563D01*
X94215800Y-73220714D01*
X94199955Y-73253476D01*
X94159494Y-73307861D01*
X94128796Y-73343555D01*
X93995960Y-73506008D01*
X93907715Y-73649670D01*
X93864667Y-73773465D01*
X93860200Y-73821452D01*
X92577099Y-73821452D01*
X92579995Y-73810670D01*
X92580735Y-73808687D01*
X92626332Y-73697932D01*
X92675552Y-73596127D01*
X92722288Y-73514493D01*
X92760436Y-73464251D01*
X92773268Y-73454833D01*
X92792305Y-73425610D01*
X92793400Y-73414955D01*
X92813893Y-73366361D01*
X92870273Y-73297547D01*
X92954887Y-73214468D01*
X93060086Y-73123080D01*
X93178218Y-73029336D01*
X93301631Y-72939193D01*
X93422675Y-72858605D01*
X93533698Y-72793527D01*
X93627049Y-72749915D01*
X93662399Y-72738588D01*
X93744683Y-72726111D01*
X93867405Y-72718530D01*
X94020395Y-72716293D01*
X94131137Y-72717914D01*
X94131137Y-72717914D01*
G37*
X94131137Y-72717914D02*
X94482500Y-72726795D01*
X94742714Y-72866447D01*
X94845092Y-72923482D01*
X94928541Y-72973951D01*
X94984147Y-73012188D01*
X95003064Y-73031953D01*
X95016435Y-73067289D01*
X95049906Y-73125626D01*
X95066699Y-73151256D01*
X95103151Y-73214988D01*
X95122580Y-73282371D01*
X95129674Y-73373089D01*
X95130111Y-73417502D01*
X95130023Y-73590300D01*
X94741264Y-73810317D01*
X94546904Y-73916639D01*
X94385400Y-73996472D01*
X94248759Y-74053522D01*
X94142812Y-74087801D01*
X94041699Y-74116306D01*
X93980854Y-74137518D01*
X93951420Y-74157095D01*
X93944543Y-74180696D01*
X93950490Y-74210684D01*
X93963182Y-74270359D01*
X93978605Y-74359299D01*
X93990960Y-74441200D01*
X94004179Y-74535142D01*
X94015489Y-74614580D01*
X94021674Y-74657100D01*
X94058636Y-74763327D01*
X94129099Y-74860087D01*
X94220455Y-74934875D01*
X94320092Y-74975191D01*
X94345811Y-74978485D01*
X94392723Y-74973639D01*
X94477022Y-74957614D01*
X94587154Y-74932851D01*
X94711565Y-74901793D01*
X94723800Y-74898579D01*
X94911974Y-74844802D01*
X95057302Y-74791577D01*
X95167346Y-74733161D01*
X95249669Y-74663807D01*
X95311830Y-74577769D01*
X95361394Y-74469302D01*
X95387111Y-74394596D01*
X95430817Y-74274381D01*
X95470933Y-74203243D01*
X95509568Y-74179780D01*
X95548829Y-74202590D01*
X95586636Y-74261903D01*
X95628460Y-74390345D01*
X95637074Y-74532731D01*
X95612444Y-74668173D01*
X95587400Y-74727234D01*
X95555394Y-74795390D01*
X95537781Y-74849306D01*
X95536600Y-74859555D01*
X95516016Y-74896120D01*
X95466127Y-74933496D01*
X95462644Y-74935339D01*
X95408478Y-74976706D01*
X95400661Y-75019361D01*
X95393001Y-75059776D01*
X95344228Y-75102473D01*
X95314534Y-75120275D01*
X95241052Y-75167552D01*
X95179965Y-75216749D01*
X95168669Y-75228191D01*
X95099577Y-75285781D01*
X94997604Y-75348759D01*
X94878880Y-75409155D01*
X94759536Y-75458996D01*
X94655703Y-75490312D01*
X94628578Y-75495093D01*
X94550944Y-75509082D01*
X94496205Y-75525825D01*
X94481029Y-75535779D01*
X94452844Y-75542451D01*
X94384142Y-75547844D01*
X94285190Y-75551889D01*
X94166257Y-75554515D01*
X94037612Y-75555650D01*
X93909521Y-75555224D01*
X93792255Y-75553165D01*
X93696080Y-75549404D01*
X93631265Y-75543869D01*
X93618900Y-75541728D01*
X93500214Y-75506620D01*
X93368810Y-75453326D01*
X93237162Y-75388490D01*
X93117745Y-75318754D01*
X93023034Y-75250759D01*
X92968360Y-75195336D01*
X92937994Y-75177844D01*
X92933122Y-75178390D01*
X92908065Y-75162691D01*
X92864290Y-75117037D01*
X92827971Y-75072610D01*
X92771464Y-74999818D01*
X92721487Y-74936132D01*
X92701544Y-74911100D01*
X92671676Y-74864403D01*
X92629362Y-74786317D01*
X92582678Y-74691925D01*
X92572314Y-74669800D01*
X92532369Y-74581670D01*
X92507530Y-74515199D01*
X92495225Y-74454143D01*
X92492882Y-74382255D01*
X92497931Y-74283290D01*
X92501949Y-74225300D01*
X92530372Y-73995464D01*
X92577099Y-73821452D01*
X93860200Y-73821452D01*
X93863786Y-73883191D01*
X93880091Y-73919769D01*
X93917430Y-73933351D01*
X93984120Y-73926100D01*
X94088478Y-73900181D01*
X94124401Y-73890204D01*
X94212856Y-73858271D01*
X94322578Y-73808329D01*
X94441847Y-73746948D01*
X94558943Y-73680697D01*
X94662146Y-73616144D01*
X94739736Y-73559859D01*
X94775395Y-73525324D01*
X94794092Y-73494247D01*
X94796981Y-73460022D01*
X94781778Y-73409229D01*
X94746198Y-73328450D01*
X94739393Y-73313840D01*
X94664496Y-73153500D01*
X94503624Y-73115009D01*
X94416235Y-73095134D01*
X94362487Y-73088828D01*
X94326695Y-73097512D01*
X94293174Y-73122608D01*
X94279276Y-73135346D01*
X94236052Y-73182552D01*
X94215977Y-73218563D01*
X94215800Y-73220714D01*
X94199955Y-73253476D01*
X94159494Y-73307861D01*
X94128796Y-73343555D01*
X93995960Y-73506008D01*
X93907715Y-73649670D01*
X93864667Y-73773465D01*
X93860200Y-73821452D01*
X92577099Y-73821452D01*
X92579995Y-73810670D01*
X92580735Y-73808687D01*
X92626332Y-73697932D01*
X92675552Y-73596127D01*
X92722288Y-73514493D01*
X92760436Y-73464251D01*
X92773268Y-73454833D01*
X92792305Y-73425610D01*
X92793400Y-73414955D01*
X92813893Y-73366361D01*
X92870273Y-73297547D01*
X92954887Y-73214468D01*
X93060086Y-73123080D01*
X93178218Y-73029336D01*
X93301631Y-72939193D01*
X93422675Y-72858605D01*
X93533698Y-72793527D01*
X93627049Y-72749915D01*
X93662399Y-72738588D01*
X93744683Y-72726111D01*
X93867405Y-72718530D01*
X94020395Y-72716293D01*
X94131137Y-72717914D01*
G36*
X110724545Y-71595488D02*
X110849183Y-71669233D01*
X110975707Y-71792656D01*
X111104600Y-71966177D01*
X111162921Y-72059737D01*
X111213625Y-72138068D01*
X111257365Y-72193201D01*
X111286379Y-72215687D01*
X111290499Y-72215053D01*
X111303675Y-72181003D01*
X111304905Y-72111535D01*
X111301627Y-72075565D01*
X111297292Y-72001131D01*
X111304002Y-71957973D01*
X111311196Y-71952000D01*
X111324067Y-71975049D01*
X111332845Y-72034864D01*
X111335400Y-72101523D01*
X111335400Y-72251047D01*
X111502354Y-72282549D01*
X111584070Y-72301451D01*
X111635820Y-72320455D01*
X111647513Y-72335843D01*
X111647379Y-72335980D01*
X111609917Y-72344343D01*
X111546623Y-72335168D01*
X111537743Y-72332754D01*
X111451348Y-72311080D01*
X111411465Y-72308729D01*
X111417803Y-72325275D01*
X111470067Y-72360297D01*
X111567967Y-72413370D01*
X111607238Y-72433273D01*
X111785705Y-72531289D01*
X111918632Y-72624989D01*
X112010596Y-72718370D01*
X112066173Y-72815428D01*
X112075343Y-72842143D01*
X112092539Y-72919265D01*
X112084098Y-72966626D01*
X112043901Y-72988325D01*
X111965828Y-72988462D01*
X111875073Y-72976297D01*
X111712123Y-72958179D01*
X111586949Y-72963648D01*
X111491715Y-72993922D01*
X111421964Y-73046637D01*
X111356924Y-73099377D01*
X111283620Y-73118452D01*
X111248097Y-73119383D01*
X111159478Y-73108347D01*
X111077756Y-73082642D01*
X111068700Y-73078194D01*
X110967969Y-73016878D01*
X110909780Y-72957438D01*
X110887241Y-72890045D01*
X110890253Y-72823760D01*
X110906197Y-72717432D01*
X110833178Y-72744993D01*
X110735991Y-72762344D01*
X110650894Y-72733849D01*
X110573081Y-72657400D01*
X110546969Y-72619384D01*
X110485678Y-72490382D01*
X110473522Y-72373978D01*
X110510493Y-72269905D01*
X110535300Y-72236032D01*
X110585052Y-72144429D01*
X110598000Y-72028530D01*
X110574463Y-71883317D01*
X110560974Y-71835386D01*
X110538451Y-71747565D01*
X110524762Y-71668065D01*
X110522874Y-71640850D01*
X110529428Y-71591771D01*
X110560120Y-71573268D01*
X110601311Y-71571000D01*
X110724545Y-71595488D01*
X110724545Y-71595488D01*
G37*
X110724545Y-71595488D02*
X110849183Y-71669233D01*
X110975707Y-71792656D01*
X111104600Y-71966177D01*
X111162921Y-72059737D01*
X111213625Y-72138068D01*
X111257365Y-72193201D01*
X111286379Y-72215687D01*
X111290499Y-72215053D01*
X111303675Y-72181003D01*
X111304905Y-72111535D01*
X111301627Y-72075565D01*
X111297292Y-72001131D01*
X111304002Y-71957973D01*
X111311196Y-71952000D01*
X111324067Y-71975049D01*
X111332845Y-72034864D01*
X111335400Y-72101523D01*
X111335400Y-72251047D01*
X111502354Y-72282549D01*
X111584070Y-72301451D01*
X111635820Y-72320455D01*
X111647513Y-72335843D01*
X111647379Y-72335980D01*
X111609917Y-72344343D01*
X111546623Y-72335168D01*
X111537743Y-72332754D01*
X111451348Y-72311080D01*
X111411465Y-72308729D01*
X111417803Y-72325275D01*
X111470067Y-72360297D01*
X111567967Y-72413370D01*
X111607238Y-72433273D01*
X111785705Y-72531289D01*
X111918632Y-72624989D01*
X112010596Y-72718370D01*
X112066173Y-72815428D01*
X112075343Y-72842143D01*
X112092539Y-72919265D01*
X112084098Y-72966626D01*
X112043901Y-72988325D01*
X111965828Y-72988462D01*
X111875073Y-72976297D01*
X111712123Y-72958179D01*
X111586949Y-72963648D01*
X111491715Y-72993922D01*
X111421964Y-73046637D01*
X111356924Y-73099377D01*
X111283620Y-73118452D01*
X111248097Y-73119383D01*
X111159478Y-73108347D01*
X111077756Y-73082642D01*
X111068700Y-73078194D01*
X110967969Y-73016878D01*
X110909780Y-72957438D01*
X110887241Y-72890045D01*
X110890253Y-72823760D01*
X110906197Y-72717432D01*
X110833178Y-72744993D01*
X110735991Y-72762344D01*
X110650894Y-72733849D01*
X110573081Y-72657400D01*
X110546969Y-72619384D01*
X110485678Y-72490382D01*
X110473522Y-72373978D01*
X110510493Y-72269905D01*
X110535300Y-72236032D01*
X110585052Y-72144429D01*
X110598000Y-72028530D01*
X110574463Y-71883317D01*
X110560974Y-71835386D01*
X110538451Y-71747565D01*
X110524762Y-71668065D01*
X110522874Y-71640850D01*
X110529428Y-71591771D01*
X110560120Y-71573268D01*
X110601311Y-71571000D01*
X110724545Y-71595488D01*
G36*
X100459982Y-69943883D02*
X100540631Y-69954714D01*
X100588416Y-69969310D01*
X100618883Y-69989916D01*
X100635673Y-70019330D01*
X100641898Y-70070507D01*
X100640671Y-70156402D01*
X100639656Y-70182595D01*
X100636434Y-70310449D01*
X100635764Y-70452698D01*
X100637129Y-70548650D01*
X100642000Y-70732800D01*
X100740296Y-70732799D01*
X100820283Y-70741748D01*
X100933096Y-70765786D01*
X101064571Y-70800699D01*
X101200544Y-70842274D01*
X101326850Y-70886298D01*
X101429326Y-70928557D01*
X101472052Y-70950476D01*
X101536463Y-70993989D01*
X101577294Y-71043046D01*
X101607791Y-71116126D01*
X101620427Y-71157475D01*
X101650829Y-71324251D01*
X101657703Y-71532107D01*
X101655668Y-71644620D01*
X101654528Y-71745964D01*
X101654446Y-71819383D01*
X101654712Y-71835899D01*
X101647101Y-71901582D01*
X101628824Y-71943849D01*
X101614659Y-71972405D01*
X101628115Y-71977400D01*
X101642046Y-72000071D01*
X101646164Y-72059710D01*
X101641948Y-72143756D01*
X101630876Y-72239648D01*
X101614425Y-72334824D01*
X101594074Y-72416724D01*
X101571301Y-72472785D01*
X101569487Y-72475672D01*
X101540529Y-72532393D01*
X101531000Y-72570921D01*
X101508658Y-72603250D01*
X101453353Y-72633437D01*
X101382666Y-72654244D01*
X101317659Y-72658762D01*
X101258036Y-72653610D01*
X101177545Y-72646438D01*
X101158328Y-72644698D01*
X101082682Y-72632486D01*
X101035242Y-72604598D01*
X101001803Y-72548408D01*
X100979094Y-72485400D01*
X100949538Y-72380949D01*
X100927088Y-72266005D01*
X100911015Y-72132510D01*
X100900588Y-71972407D01*
X100895078Y-71777637D01*
X100893748Y-71543376D01*
X100893821Y-71362083D01*
X100892894Y-71224619D01*
X100890386Y-71124015D01*
X100885718Y-71053301D01*
X100878310Y-71005508D01*
X100867585Y-70973667D01*
X100852960Y-70950809D01*
X100843592Y-70940126D01*
X100786163Y-70899527D01*
X100732689Y-70885200D01*
X100709756Y-70887110D01*
X100690726Y-70896020D01*
X100674896Y-70916694D01*
X100661563Y-70953896D01*
X100650024Y-71012393D01*
X100639576Y-71096949D01*
X100629516Y-71212330D01*
X100619140Y-71363301D01*
X100607746Y-71554626D01*
X100594631Y-71791071D01*
X100592055Y-71838395D01*
X100583426Y-71983720D01*
X100574378Y-72112977D01*
X100565668Y-72216915D01*
X100558052Y-72286286D01*
X100553519Y-72310046D01*
X100523105Y-72343437D01*
X100462682Y-72384266D01*
X100424467Y-72404601D01*
X100287667Y-72451737D01*
X100168034Y-72455245D01*
X100070535Y-72417756D01*
X100000139Y-72341904D01*
X99961812Y-72230320D01*
X99956200Y-72156461D01*
X99951792Y-72092359D01*
X99940767Y-72056411D01*
X99936107Y-72053600D01*
X99929259Y-72030250D01*
X99927958Y-71967796D01*
X99932212Y-71877632D01*
X99935915Y-71831350D01*
X99943501Y-71727038D01*
X99946610Y-71640021D01*
X99944868Y-71584223D01*
X99942822Y-71574006D01*
X99939627Y-71533532D01*
X99942715Y-71457328D01*
X99951380Y-71359981D01*
X99954496Y-71332706D01*
X99969011Y-71209828D01*
X99986146Y-71062481D01*
X100002882Y-70916678D01*
X100007898Y-70872500D01*
X100028048Y-70706122D01*
X100050687Y-70538751D01*
X100074480Y-70378438D01*
X100098092Y-70233236D01*
X100120190Y-70111196D01*
X100139438Y-70020370D01*
X100154503Y-69968810D01*
X100158934Y-69961105D01*
X100198854Y-69947105D01*
X100273039Y-69939772D01*
X100365433Y-69938800D01*
X100459982Y-69943883D01*
X100459982Y-69943883D01*
G37*
X100459982Y-69943883D02*
X100540631Y-69954714D01*
X100588416Y-69969310D01*
X100618883Y-69989916D01*
X100635673Y-70019330D01*
X100641898Y-70070507D01*
X100640671Y-70156402D01*
X100639656Y-70182595D01*
X100636434Y-70310449D01*
X100635764Y-70452698D01*
X100637129Y-70548650D01*
X100642000Y-70732800D01*
X100740296Y-70732799D01*
X100820283Y-70741748D01*
X100933096Y-70765786D01*
X101064571Y-70800699D01*
X101200544Y-70842274D01*
X101326850Y-70886298D01*
X101429326Y-70928557D01*
X101472052Y-70950476D01*
X101536463Y-70993989D01*
X101577294Y-71043046D01*
X101607791Y-71116126D01*
X101620427Y-71157475D01*
X101650829Y-71324251D01*
X101657703Y-71532107D01*
X101655668Y-71644620D01*
X101654528Y-71745964D01*
X101654446Y-71819383D01*
X101654712Y-71835899D01*
X101647101Y-71901582D01*
X101628824Y-71943849D01*
X101614659Y-71972405D01*
X101628115Y-71977400D01*
X101642046Y-72000071D01*
X101646164Y-72059710D01*
X101641948Y-72143756D01*
X101630876Y-72239648D01*
X101614425Y-72334824D01*
X101594074Y-72416724D01*
X101571301Y-72472785D01*
X101569487Y-72475672D01*
X101540529Y-72532393D01*
X101531000Y-72570921D01*
X101508658Y-72603250D01*
X101453353Y-72633437D01*
X101382666Y-72654244D01*
X101317659Y-72658762D01*
X101258036Y-72653610D01*
X101177545Y-72646438D01*
X101158328Y-72644698D01*
X101082682Y-72632486D01*
X101035242Y-72604598D01*
X101001803Y-72548408D01*
X100979094Y-72485400D01*
X100949538Y-72380949D01*
X100927088Y-72266005D01*
X100911015Y-72132510D01*
X100900588Y-71972407D01*
X100895078Y-71777637D01*
X100893748Y-71543376D01*
X100893821Y-71362083D01*
X100892894Y-71224619D01*
X100890386Y-71124015D01*
X100885718Y-71053301D01*
X100878310Y-71005508D01*
X100867585Y-70973667D01*
X100852960Y-70950809D01*
X100843592Y-70940126D01*
X100786163Y-70899527D01*
X100732689Y-70885200D01*
X100709756Y-70887110D01*
X100690726Y-70896020D01*
X100674896Y-70916694D01*
X100661563Y-70953896D01*
X100650024Y-71012393D01*
X100639576Y-71096949D01*
X100629516Y-71212330D01*
X100619140Y-71363301D01*
X100607746Y-71554626D01*
X100594631Y-71791071D01*
X100592055Y-71838395D01*
X100583426Y-71983720D01*
X100574378Y-72112977D01*
X100565668Y-72216915D01*
X100558052Y-72286286D01*
X100553519Y-72310046D01*
X100523105Y-72343437D01*
X100462682Y-72384266D01*
X100424467Y-72404601D01*
X100287667Y-72451737D01*
X100168034Y-72455245D01*
X100070535Y-72417756D01*
X100000139Y-72341904D01*
X99961812Y-72230320D01*
X99956200Y-72156461D01*
X99951792Y-72092359D01*
X99940767Y-72056411D01*
X99936107Y-72053600D01*
X99929259Y-72030250D01*
X99927958Y-71967796D01*
X99932212Y-71877632D01*
X99935915Y-71831350D01*
X99943501Y-71727038D01*
X99946610Y-71640021D01*
X99944868Y-71584223D01*
X99942822Y-71574006D01*
X99939627Y-71533532D01*
X99942715Y-71457328D01*
X99951380Y-71359981D01*
X99954496Y-71332706D01*
X99969011Y-71209828D01*
X99986146Y-71062481D01*
X100002882Y-70916678D01*
X100007898Y-70872500D01*
X100028048Y-70706122D01*
X100050687Y-70538751D01*
X100074480Y-70378438D01*
X100098092Y-70233236D01*
X100120190Y-70111196D01*
X100139438Y-70020370D01*
X100154503Y-69968810D01*
X100158934Y-69961105D01*
X100198854Y-69947105D01*
X100273039Y-69939772D01*
X100365433Y-69938800D01*
X100459982Y-69943883D01*
G36*
X98936472Y-69823470D02*
X99027357Y-69828471D01*
X99096967Y-69837983D01*
X99155125Y-69852722D01*
X99184983Y-69863015D01*
X99290399Y-69916304D01*
X99348215Y-69983126D01*
X99360955Y-70068737D01*
X99333520Y-70172465D01*
X99302292Y-70269036D01*
X99280119Y-70369257D01*
X99276468Y-70396250D01*
X99265284Y-70504200D01*
X99389762Y-70504200D01*
X99493444Y-70514443D01*
X99554006Y-70546534D01*
X99575106Y-70602510D01*
X99575200Y-70607556D01*
X99550999Y-70641079D01*
X99481993Y-70665412D01*
X99373580Y-70679148D01*
X99291006Y-70681720D01*
X99234298Y-70684569D01*
X99203979Y-70701512D01*
X99187584Y-70745806D01*
X99177310Y-70802650D01*
X99167716Y-70893184D01*
X99161576Y-71019720D01*
X99158723Y-71170500D01*
X99158992Y-71333764D01*
X99162218Y-71497755D01*
X99168235Y-71650712D01*
X99176877Y-71780879D01*
X99187979Y-71876495D01*
X99192779Y-71901200D01*
X99224002Y-72017726D01*
X99258131Y-72117835D01*
X99291125Y-72191525D01*
X99318941Y-72228797D01*
X99326238Y-72231400D01*
X99352874Y-72211471D01*
X99387917Y-72162753D01*
X99392231Y-72155360D01*
X99428620Y-72104019D01*
X99460098Y-72079503D01*
X99462822Y-72079160D01*
X99510075Y-72100745D01*
X99556754Y-72154439D01*
X99590725Y-72222885D01*
X99600600Y-72276266D01*
X99576371Y-72350202D01*
X99508330Y-72420808D01*
X99403443Y-72483323D01*
X99268678Y-72532985D01*
X99200327Y-72549832D01*
X99090908Y-72571487D01*
X99010121Y-72581109D01*
X98937255Y-72578739D01*
X98851597Y-72564416D01*
X98787800Y-72550627D01*
X98611321Y-72495439D01*
X98470048Y-72413708D01*
X98359180Y-72300213D01*
X98273912Y-72149736D01*
X98209442Y-71957057D01*
X98197795Y-71909449D01*
X98178309Y-71815639D01*
X98163997Y-71720032D01*
X98154067Y-71612142D01*
X98147726Y-71481484D01*
X98144184Y-71317572D01*
X98142980Y-71183652D01*
X98140100Y-70682004D01*
X98006750Y-70682002D01*
X97919664Y-70676941D01*
X97878267Y-70661076D01*
X97873400Y-70648979D01*
X97896016Y-70594609D01*
X97963235Y-70563229D01*
X98052507Y-70555000D01*
X98170654Y-70555000D01*
X98189047Y-70345450D01*
X98200408Y-70221662D01*
X98212926Y-70093878D01*
X98223999Y-69988603D01*
X98224570Y-69983500D01*
X98241700Y-69831100D01*
X98651583Y-69824134D01*
X98814489Y-69822263D01*
X98936472Y-69823470D01*
X98936472Y-69823470D01*
G37*
X98936472Y-69823470D02*
X99027357Y-69828471D01*
X99096967Y-69837983D01*
X99155125Y-69852722D01*
X99184983Y-69863015D01*
X99290399Y-69916304D01*
X99348215Y-69983126D01*
X99360955Y-70068737D01*
X99333520Y-70172465D01*
X99302292Y-70269036D01*
X99280119Y-70369257D01*
X99276468Y-70396250D01*
X99265284Y-70504200D01*
X99389762Y-70504200D01*
X99493444Y-70514443D01*
X99554006Y-70546534D01*
X99575106Y-70602510D01*
X99575200Y-70607556D01*
X99550999Y-70641079D01*
X99481993Y-70665412D01*
X99373580Y-70679148D01*
X99291006Y-70681720D01*
X99234298Y-70684569D01*
X99203979Y-70701512D01*
X99187584Y-70745806D01*
X99177310Y-70802650D01*
X99167716Y-70893184D01*
X99161576Y-71019720D01*
X99158723Y-71170500D01*
X99158992Y-71333764D01*
X99162218Y-71497755D01*
X99168235Y-71650712D01*
X99176877Y-71780879D01*
X99187979Y-71876495D01*
X99192779Y-71901200D01*
X99224002Y-72017726D01*
X99258131Y-72117835D01*
X99291125Y-72191525D01*
X99318941Y-72228797D01*
X99326238Y-72231400D01*
X99352874Y-72211471D01*
X99387917Y-72162753D01*
X99392231Y-72155360D01*
X99428620Y-72104019D01*
X99460098Y-72079503D01*
X99462822Y-72079160D01*
X99510075Y-72100745D01*
X99556754Y-72154439D01*
X99590725Y-72222885D01*
X99600600Y-72276266D01*
X99576371Y-72350202D01*
X99508330Y-72420808D01*
X99403443Y-72483323D01*
X99268678Y-72532985D01*
X99200327Y-72549832D01*
X99090908Y-72571487D01*
X99010121Y-72581109D01*
X98937255Y-72578739D01*
X98851597Y-72564416D01*
X98787800Y-72550627D01*
X98611321Y-72495439D01*
X98470048Y-72413708D01*
X98359180Y-72300213D01*
X98273912Y-72149736D01*
X98209442Y-71957057D01*
X98197795Y-71909449D01*
X98178309Y-71815639D01*
X98163997Y-71720032D01*
X98154067Y-71612142D01*
X98147726Y-71481484D01*
X98144184Y-71317572D01*
X98142980Y-71183652D01*
X98140100Y-70682004D01*
X98006750Y-70682002D01*
X97919664Y-70676941D01*
X97878267Y-70661076D01*
X97873400Y-70648979D01*
X97896016Y-70594609D01*
X97963235Y-70563229D01*
X98052507Y-70555000D01*
X98170654Y-70555000D01*
X98189047Y-70345450D01*
X98200408Y-70221662D01*
X98212926Y-70093878D01*
X98223999Y-69988603D01*
X98224570Y-69983500D01*
X98241700Y-69831100D01*
X98651583Y-69824134D01*
X98814489Y-69822263D01*
X98936472Y-69823470D01*
G36*
X103152703Y-70480859D02*
X103216956Y-70489931D01*
X103276511Y-70509563D01*
X103346724Y-70542669D01*
X103394899Y-70567392D01*
X103517275Y-70640292D01*
X103596599Y-70714487D01*
X103639888Y-70799878D01*
X103654156Y-70906364D01*
X103654104Y-70933231D01*
X103651900Y-71044762D01*
X103403204Y-71183779D01*
X103288680Y-71244570D01*
X103176705Y-71298456D01*
X103082475Y-71338397D01*
X103034904Y-71354370D01*
X102966965Y-71377794D01*
X102926607Y-71402445D01*
X102921345Y-71414059D01*
X102926962Y-71453302D01*
X102935150Y-71525270D01*
X102941651Y-71589136D01*
X102964967Y-71725524D01*
X103007615Y-71818695D01*
X103074994Y-71872249D01*
X103172501Y-71889787D01*
X103305532Y-71874910D01*
X103354270Y-71864409D01*
X103507891Y-71823649D01*
X103619944Y-71779746D01*
X103699548Y-71726190D01*
X103755823Y-71656466D01*
X103797889Y-71564063D01*
X103805412Y-71542250D01*
X103841927Y-71449781D01*
X103875601Y-71405191D01*
X103909474Y-71405902D01*
X103935153Y-71432274D01*
X103954180Y-71481909D01*
X103965550Y-71556913D01*
X103968786Y-71639555D01*
X103963411Y-71712104D01*
X103948948Y-71756830D01*
X103944000Y-71761500D01*
X103922408Y-71797446D01*
X103918600Y-71824787D01*
X103897362Y-71870538D01*
X103869096Y-71888088D01*
X103833565Y-71913151D01*
X103830132Y-71934250D01*
X103816778Y-71966769D01*
X103767850Y-72014457D01*
X103693620Y-72070596D01*
X103604358Y-72128470D01*
X103510335Y-72181363D01*
X103421822Y-72222559D01*
X103356797Y-72243768D01*
X103263637Y-72258127D01*
X103143433Y-72267732D01*
X103009793Y-72272519D01*
X102876322Y-72272423D01*
X102756628Y-72267380D01*
X102664318Y-72257326D01*
X102623200Y-72247240D01*
X102458378Y-72175318D01*
X102331137Y-72098240D01*
X102228412Y-72006857D01*
X102158224Y-71921560D01*
X102053764Y-71747555D01*
X101997471Y-71572571D01*
X101989242Y-71392654D01*
X102028972Y-71203849D01*
X102041480Y-71175050D01*
X102853856Y-71175050D01*
X102860190Y-71226029D01*
X102875289Y-71245987D01*
X102907546Y-71248301D01*
X102970551Y-71233027D01*
X102992324Y-71226581D01*
X103083527Y-71192630D01*
X103187721Y-71144635D01*
X103244917Y-71114133D01*
X103341898Y-71055784D01*
X103399495Y-71010166D01*
X103423919Y-70967604D01*
X103421380Y-70918428D01*
X103403708Y-70866815D01*
X103357200Y-70789131D01*
X103305613Y-70754727D01*
X103230420Y-70737917D01*
X103173030Y-70740924D01*
X103121407Y-70769750D01*
X103063513Y-70830402D01*
X103005816Y-70904250D01*
X102923145Y-71020531D01*
X102873568Y-71108421D01*
X102853856Y-71175050D01*
X102041480Y-71175050D01*
X102116557Y-71002199D01*
X102133266Y-70971582D01*
X102193141Y-70882987D01*
X102276140Y-70794458D01*
X102389980Y-70698744D01*
X102537083Y-70592242D01*
X102604320Y-70547133D01*
X102658294Y-70517639D01*
X102713223Y-70499976D01*
X102783323Y-70490363D01*
X102882812Y-70485018D01*
X102948678Y-70482741D01*
X103068396Y-70479433D01*
X103152703Y-70480859D01*
X103152703Y-70480859D01*
G37*
X103152703Y-70480859D02*
X103216956Y-70489931D01*
X103276511Y-70509563D01*
X103346724Y-70542669D01*
X103394899Y-70567392D01*
X103517275Y-70640292D01*
X103596599Y-70714487D01*
X103639888Y-70799878D01*
X103654156Y-70906364D01*
X103654104Y-70933231D01*
X103651900Y-71044762D01*
X103403204Y-71183779D01*
X103288680Y-71244570D01*
X103176705Y-71298456D01*
X103082475Y-71338397D01*
X103034904Y-71354370D01*
X102966965Y-71377794D01*
X102926607Y-71402445D01*
X102921345Y-71414059D01*
X102926962Y-71453302D01*
X102935150Y-71525270D01*
X102941651Y-71589136D01*
X102964967Y-71725524D01*
X103007615Y-71818695D01*
X103074994Y-71872249D01*
X103172501Y-71889787D01*
X103305532Y-71874910D01*
X103354270Y-71864409D01*
X103507891Y-71823649D01*
X103619944Y-71779746D01*
X103699548Y-71726190D01*
X103755823Y-71656466D01*
X103797889Y-71564063D01*
X103805412Y-71542250D01*
X103841927Y-71449781D01*
X103875601Y-71405191D01*
X103909474Y-71405902D01*
X103935153Y-71432274D01*
X103954180Y-71481909D01*
X103965550Y-71556913D01*
X103968786Y-71639555D01*
X103963411Y-71712104D01*
X103948948Y-71756830D01*
X103944000Y-71761500D01*
X103922408Y-71797446D01*
X103918600Y-71824787D01*
X103897362Y-71870538D01*
X103869096Y-71888088D01*
X103833565Y-71913151D01*
X103830132Y-71934250D01*
X103816778Y-71966769D01*
X103767850Y-72014457D01*
X103693620Y-72070596D01*
X103604358Y-72128470D01*
X103510335Y-72181363D01*
X103421822Y-72222559D01*
X103356797Y-72243768D01*
X103263637Y-72258127D01*
X103143433Y-72267732D01*
X103009793Y-72272519D01*
X102876322Y-72272423D01*
X102756628Y-72267380D01*
X102664318Y-72257326D01*
X102623200Y-72247240D01*
X102458378Y-72175318D01*
X102331137Y-72098240D01*
X102228412Y-72006857D01*
X102158224Y-71921560D01*
X102053764Y-71747555D01*
X101997471Y-71572571D01*
X101989242Y-71392654D01*
X102028972Y-71203849D01*
X102041480Y-71175050D01*
X102853856Y-71175050D01*
X102860190Y-71226029D01*
X102875289Y-71245987D01*
X102907546Y-71248301D01*
X102970551Y-71233027D01*
X102992324Y-71226581D01*
X103083527Y-71192630D01*
X103187721Y-71144635D01*
X103244917Y-71114133D01*
X103341898Y-71055784D01*
X103399495Y-71010166D01*
X103423919Y-70967604D01*
X103421380Y-70918428D01*
X103403708Y-70866815D01*
X103357200Y-70789131D01*
X103305613Y-70754727D01*
X103230420Y-70737917D01*
X103173030Y-70740924D01*
X103121407Y-70769750D01*
X103063513Y-70830402D01*
X103005816Y-70904250D01*
X102923145Y-71020531D01*
X102873568Y-71108421D01*
X102853856Y-71175050D01*
X102041480Y-71175050D01*
X102116557Y-71002199D01*
X102133266Y-70971582D01*
X102193141Y-70882987D01*
X102276140Y-70794458D01*
X102389980Y-70698744D01*
X102537083Y-70592242D01*
X102604320Y-70547133D01*
X102658294Y-70517639D01*
X102713223Y-70499976D01*
X102783323Y-70490363D01*
X102882812Y-70485018D01*
X102948678Y-70482741D01*
X103068396Y-70479433D01*
X103152703Y-70480859D01*
D11*
X152330952Y-74616667D02*
X152330952Y-75183333D01*
X152357143Y-75250000D01*
X152383333Y-75283333D01*
X152435714Y-75316667D01*
X152540476Y-75316667D01*
X152592857Y-75283333D01*
X152619048Y-75250000D01*
X152645238Y-75183333D01*
X152645238Y-74616667D01*
X153142857Y-74850000D02*
X153142857Y-75316667D01*
X153011904Y-74583333D02*
X152880952Y-75083333D01*
X153221428Y-75083333D01*
X140658333Y-87750000D02*
X140632143Y-87783333D01*
X140553571Y-87816667D01*
X140501190Y-87816667D01*
X140422619Y-87783333D01*
X140370238Y-87716667D01*
X140344047Y-87650000D01*
X140317857Y-87516667D01*
X140317857Y-87416667D01*
X140344047Y-87283333D01*
X140370238Y-87216667D01*
X140422619Y-87150000D01*
X140501190Y-87116667D01*
X140553571Y-87116667D01*
X140632143Y-87150000D01*
X140658333Y-87183333D01*
X141182143Y-87816667D02*
X140867857Y-87816667D01*
X141025000Y-87816667D02*
X141025000Y-87116667D01*
X140972619Y-87216667D01*
X140920238Y-87283333D01*
X140867857Y-87316667D01*
X136158333Y-81250000D02*
X136132143Y-81283333D01*
X136053571Y-81316667D01*
X136001190Y-81316667D01*
X135922619Y-81283333D01*
X135870238Y-81216667D01*
X135844047Y-81150000D01*
X135817857Y-81016667D01*
X135817857Y-80916667D01*
X135844047Y-80783333D01*
X135870238Y-80716667D01*
X135922619Y-80650000D01*
X136001190Y-80616667D01*
X136053571Y-80616667D01*
X136132143Y-80650000D01*
X136158333Y-80683333D01*
X136367857Y-80683333D02*
X136394047Y-80650000D01*
X136446428Y-80616667D01*
X136577381Y-80616667D01*
X136629762Y-80650000D01*
X136655952Y-80683333D01*
X136682143Y-80750000D01*
X136682143Y-80816667D01*
X136655952Y-80916667D01*
X136341666Y-81316667D01*
X136682143Y-81316667D01*
X142908333Y-71500000D02*
X142882143Y-71533333D01*
X142803571Y-71566667D01*
X142751190Y-71566667D01*
X142672619Y-71533333D01*
X142620238Y-71466667D01*
X142594047Y-71400000D01*
X142567857Y-71266667D01*
X142567857Y-71166667D01*
X142594047Y-71033333D01*
X142620238Y-70966667D01*
X142672619Y-70900000D01*
X142751190Y-70866667D01*
X142803571Y-70866667D01*
X142882143Y-70900000D01*
X142908333Y-70933333D01*
X143091666Y-70866667D02*
X143432143Y-70866667D01*
X143248809Y-71133333D01*
X143327381Y-71133333D01*
X143379762Y-71166667D01*
X143405952Y-71200000D01*
X143432143Y-71266667D01*
X143432143Y-71433333D01*
X143405952Y-71500000D01*
X143379762Y-71533333D01*
X143327381Y-71566667D01*
X143170238Y-71566667D01*
X143117857Y-71533333D01*
X143091666Y-71500000D01*
X138408333Y-71500000D02*
X138382143Y-71533333D01*
X138303571Y-71566667D01*
X138251190Y-71566667D01*
X138172619Y-71533333D01*
X138120238Y-71466667D01*
X138094047Y-71400000D01*
X138067857Y-71266667D01*
X138067857Y-71166667D01*
X138094047Y-71033333D01*
X138120238Y-70966667D01*
X138172619Y-70900000D01*
X138251190Y-70866667D01*
X138303571Y-70866667D01*
X138382143Y-70900000D01*
X138408333Y-70933333D01*
X138879762Y-71100000D02*
X138879762Y-71566667D01*
X138748809Y-70833333D02*
X138617857Y-71333333D01*
X138958333Y-71333333D01*
X159908333Y-74500000D02*
X159882143Y-74533333D01*
X159803571Y-74566667D01*
X159751190Y-74566667D01*
X159672619Y-74533333D01*
X159620238Y-74466667D01*
X159594047Y-74400000D01*
X159567857Y-74266667D01*
X159567857Y-74166667D01*
X159594047Y-74033333D01*
X159620238Y-73966667D01*
X159672619Y-73900000D01*
X159751190Y-73866667D01*
X159803571Y-73866667D01*
X159882143Y-73900000D01*
X159908333Y-73933333D01*
X160405952Y-73866667D02*
X160144047Y-73866667D01*
X160117857Y-74200000D01*
X160144047Y-74166667D01*
X160196428Y-74133333D01*
X160327381Y-74133333D01*
X160379762Y-74166667D01*
X160405952Y-74200000D01*
X160432143Y-74266667D01*
X160432143Y-74433333D01*
X160405952Y-74500000D01*
X160379762Y-74533333D01*
X160327381Y-74566667D01*
X160196428Y-74566667D01*
X160144047Y-74533333D01*
X160117857Y-74500000D01*
X152658333Y-81250000D02*
X152632143Y-81283333D01*
X152553571Y-81316667D01*
X152501190Y-81316667D01*
X152422619Y-81283333D01*
X152370238Y-81216667D01*
X152344047Y-81150000D01*
X152317857Y-81016667D01*
X152317857Y-80916667D01*
X152344047Y-80783333D01*
X152370238Y-80716667D01*
X152422619Y-80650000D01*
X152501190Y-80616667D01*
X152553571Y-80616667D01*
X152632143Y-80650000D01*
X152658333Y-80683333D01*
X153129762Y-80616667D02*
X153025000Y-80616667D01*
X152972619Y-80650000D01*
X152946428Y-80683333D01*
X152894047Y-80783333D01*
X152867857Y-80916667D01*
X152867857Y-81183333D01*
X152894047Y-81250000D01*
X152920238Y-81283333D01*
X152972619Y-81316667D01*
X153077381Y-81316667D01*
X153129762Y-81283333D01*
X153155952Y-81250000D01*
X153182143Y-81183333D01*
X153182143Y-81016667D01*
X153155952Y-80950000D01*
X153129762Y-80916667D01*
X153077381Y-80883333D01*
X152972619Y-80883333D01*
X152920238Y-80916667D01*
X152894047Y-80950000D01*
X152867857Y-81016667D01*
X130844047Y-82816667D02*
X130844047Y-82116667D01*
X130975000Y-82116667D01*
X131053571Y-82150000D01*
X131105952Y-82216667D01*
X131132143Y-82283333D01*
X131158333Y-82416667D01*
X131158333Y-82516667D01*
X131132143Y-82650000D01*
X131105952Y-82716667D01*
X131053571Y-82783333D01*
X130975000Y-82816667D01*
X130844047Y-82816667D01*
X131682143Y-82816667D02*
X131367857Y-82816667D01*
X131525000Y-82816667D02*
X131525000Y-82116667D01*
X131472619Y-82216667D01*
X131420238Y-82283333D01*
X131367857Y-82316667D01*
X159594047Y-79316667D02*
X159594047Y-78616667D01*
X159725000Y-78616667D01*
X159803571Y-78650000D01*
X159855952Y-78716667D01*
X159882143Y-78783333D01*
X159908333Y-78916667D01*
X159908333Y-79016667D01*
X159882143Y-79150000D01*
X159855952Y-79216667D01*
X159803571Y-79283333D01*
X159725000Y-79316667D01*
X159594047Y-79316667D01*
X160117857Y-78683333D02*
X160144047Y-78650000D01*
X160196428Y-78616667D01*
X160327381Y-78616667D01*
X160379762Y-78650000D01*
X160405952Y-78683333D01*
X160432143Y-78750000D01*
X160432143Y-78816667D01*
X160405952Y-78916667D01*
X160091666Y-79316667D01*
X160432143Y-79316667D01*
X166066666Y-84866667D02*
X166066666Y-85366667D01*
X166040476Y-85466667D01*
X165988095Y-85533333D01*
X165909523Y-85566667D01*
X165857142Y-85566667D01*
X166616667Y-85566667D02*
X166302381Y-85566667D01*
X166459524Y-85566667D02*
X166459524Y-84866667D01*
X166407143Y-84966667D01*
X166354762Y-85033333D01*
X166302381Y-85066667D01*
X157658333Y-77566667D02*
X157396428Y-77566667D01*
X157396428Y-76866667D01*
X158129762Y-77566667D02*
X157815476Y-77566667D01*
X157972619Y-77566667D02*
X157972619Y-76866667D01*
X157920238Y-76966667D01*
X157867857Y-77033333D01*
X157815476Y-77066667D01*
X157658333Y-84316667D02*
X157396428Y-84316667D01*
X157396428Y-83616667D01*
X157815476Y-83683333D02*
X157841666Y-83650000D01*
X157894047Y-83616667D01*
X158025000Y-83616667D01*
X158077381Y-83650000D01*
X158103571Y-83683333D01*
X158129762Y-83750000D01*
X158129762Y-83816667D01*
X158103571Y-83916667D01*
X157789285Y-84316667D01*
X158129762Y-84316667D01*
X157658333Y-87316667D02*
X157396428Y-87316667D01*
X157396428Y-86616667D01*
X157789285Y-86616667D02*
X158129762Y-86616667D01*
X157946428Y-86883333D01*
X158025000Y-86883333D01*
X158077381Y-86916667D01*
X158103571Y-86950000D01*
X158129762Y-87016667D01*
X158129762Y-87183333D01*
X158103571Y-87250000D01*
X158077381Y-87283333D01*
X158025000Y-87316667D01*
X157867857Y-87316667D01*
X157815476Y-87283333D01*
X157789285Y-87250000D01*
X140658333Y-80066667D02*
X140475000Y-79733333D01*
X140344047Y-80066667D02*
X140344047Y-79366667D01*
X140553571Y-79366667D01*
X140605952Y-79400000D01*
X140632143Y-79433333D01*
X140658333Y-79500000D01*
X140658333Y-79600000D01*
X140632143Y-79666667D01*
X140605952Y-79700000D01*
X140553571Y-79733333D01*
X140344047Y-79733333D01*
X141182143Y-80066667D02*
X140867857Y-80066667D01*
X141025000Y-80066667D02*
X141025000Y-79366667D01*
X140972619Y-79466667D01*
X140920238Y-79533333D01*
X140867857Y-79566667D01*
X131158333Y-85316667D02*
X130975000Y-84983333D01*
X130844047Y-85316667D02*
X130844047Y-84616667D01*
X131053571Y-84616667D01*
X131105952Y-84650000D01*
X131132143Y-84683333D01*
X131158333Y-84750000D01*
X131158333Y-84850000D01*
X131132143Y-84916667D01*
X131105952Y-84950000D01*
X131053571Y-84983333D01*
X130844047Y-84983333D01*
X131367857Y-84683333D02*
X131394047Y-84650000D01*
X131446428Y-84616667D01*
X131577381Y-84616667D01*
X131629762Y-84650000D01*
X131655952Y-84683333D01*
X131682143Y-84750000D01*
X131682143Y-84816667D01*
X131655952Y-84916667D01*
X131341666Y-85316667D01*
X131682143Y-85316667D01*
X136158333Y-78816667D02*
X135975000Y-78483333D01*
X135844047Y-78816667D02*
X135844047Y-78116667D01*
X136053571Y-78116667D01*
X136105952Y-78150000D01*
X136132143Y-78183333D01*
X136158333Y-78250000D01*
X136158333Y-78350000D01*
X136132143Y-78416667D01*
X136105952Y-78450000D01*
X136053571Y-78483333D01*
X135844047Y-78483333D01*
X136341666Y-78116667D02*
X136682143Y-78116667D01*
X136498809Y-78383333D01*
X136577381Y-78383333D01*
X136629762Y-78416667D01*
X136655952Y-78450000D01*
X136682143Y-78516667D01*
X136682143Y-78683333D01*
X136655952Y-78750000D01*
X136629762Y-78783333D01*
X136577381Y-78816667D01*
X136420238Y-78816667D01*
X136367857Y-78783333D01*
X136341666Y-78750000D01*
X152658333Y-84316667D02*
X152475000Y-83983333D01*
X152344047Y-84316667D02*
X152344047Y-83616667D01*
X152553571Y-83616667D01*
X152605952Y-83650000D01*
X152632143Y-83683333D01*
X152658333Y-83750000D01*
X152658333Y-83850000D01*
X152632143Y-83916667D01*
X152605952Y-83950000D01*
X152553571Y-83983333D01*
X152344047Y-83983333D01*
X153129762Y-83850000D02*
X153129762Y-84316667D01*
X152998809Y-83583333D02*
X152867857Y-84083333D01*
X153208333Y-84083333D01*
X152658333Y-87316667D02*
X152475000Y-86983333D01*
X152344047Y-87316667D02*
X152344047Y-86616667D01*
X152553571Y-86616667D01*
X152605952Y-86650000D01*
X152632143Y-86683333D01*
X152658333Y-86750000D01*
X152658333Y-86850000D01*
X152632143Y-86916667D01*
X152605952Y-86950000D01*
X152553571Y-86983333D01*
X152344047Y-86983333D01*
X153155952Y-86616667D02*
X152894047Y-86616667D01*
X152867857Y-86950000D01*
X152894047Y-86916667D01*
X152946428Y-86883333D01*
X153077381Y-86883333D01*
X153129762Y-86916667D01*
X153155952Y-86950000D01*
X153182143Y-87016667D01*
X153182143Y-87183333D01*
X153155952Y-87250000D01*
X153129762Y-87283333D01*
X153077381Y-87316667D01*
X152946428Y-87316667D01*
X152894047Y-87283333D01*
X152867857Y-87250000D01*
X145330952Y-83616667D02*
X145330952Y-84183333D01*
X145357143Y-84250000D01*
X145383333Y-84283333D01*
X145435714Y-84316667D01*
X145540476Y-84316667D01*
X145592857Y-84283333D01*
X145619048Y-84250000D01*
X145645238Y-84183333D01*
X145645238Y-83616667D01*
X146195238Y-84316667D02*
X145880952Y-84316667D01*
X146038095Y-84316667D02*
X146038095Y-83616667D01*
X145985714Y-83716667D01*
X145933333Y-83783333D01*
X145880952Y-83816667D01*
X139080952Y-74616667D02*
X139080952Y-75183333D01*
X139107143Y-75250000D01*
X139133333Y-75283333D01*
X139185714Y-75316667D01*
X139290476Y-75316667D01*
X139342857Y-75283333D01*
X139369048Y-75250000D01*
X139395238Y-75183333D01*
X139395238Y-74616667D01*
X139630952Y-74683333D02*
X139657142Y-74650000D01*
X139709523Y-74616667D01*
X139840476Y-74616667D01*
X139892857Y-74650000D01*
X139919047Y-74683333D01*
X139945238Y-74750000D01*
X139945238Y-74816667D01*
X139919047Y-74916667D01*
X139604761Y-75316667D01*
X139945238Y-75316667D01*
X130830952Y-74616667D02*
X130830952Y-75183333D01*
X130857143Y-75250000D01*
X130883333Y-75283333D01*
X130935714Y-75316667D01*
X131040476Y-75316667D01*
X131092857Y-75283333D01*
X131119048Y-75250000D01*
X131145238Y-75183333D01*
X131145238Y-74616667D01*
X131354761Y-74616667D02*
X131695238Y-74616667D01*
X131511904Y-74883333D01*
X131590476Y-74883333D01*
X131642857Y-74916667D01*
X131669047Y-74950000D01*
X131695238Y-75016667D01*
X131695238Y-75183333D01*
X131669047Y-75250000D01*
X131642857Y-75283333D01*
X131590476Y-75316667D01*
X131433333Y-75316667D01*
X131380952Y-75283333D01*
X131354761Y-75250000D01*
X131396428Y-88500000D02*
X131370238Y-88533333D01*
X131291666Y-88566667D01*
X131239285Y-88566667D01*
X131160714Y-88533333D01*
X131108333Y-88466667D01*
X131082142Y-88400000D01*
X131055952Y-88266667D01*
X131055952Y-88166667D01*
X131082142Y-88033333D01*
X131108333Y-87966667D01*
X131160714Y-87900000D01*
X131239285Y-87866667D01*
X131291666Y-87866667D01*
X131370238Y-87900000D01*
X131396428Y-87933333D01*
X131579761Y-87866667D02*
X131946428Y-88566667D01*
X131946428Y-87866667D02*
X131579761Y-88566667D01*
X132444048Y-88566667D02*
X132129762Y-88566667D01*
X132286905Y-88566667D02*
X132286905Y-87866667D01*
X132234524Y-87966667D01*
X132182143Y-88033333D01*
X132129762Y-88066667D01*
X227054762Y-80316667D02*
X227054762Y-79616667D01*
X227238096Y-80116667D01*
X227421429Y-79616667D01*
X227421429Y-80316667D01*
X227971429Y-80316667D02*
X227657143Y-80316667D01*
X227814286Y-80316667D02*
X227814286Y-79616667D01*
X227761905Y-79716667D01*
X227709524Y-79783333D01*
X227657143Y-79816667D01*
X232054762Y-75566667D02*
X232054762Y-74866667D01*
X232238096Y-75366667D01*
X232421429Y-74866667D01*
X232421429Y-75566667D01*
X232630952Y-74866667D02*
X232971429Y-74866667D01*
X232788095Y-75133333D01*
X232866667Y-75133333D01*
X232919048Y-75166667D01*
X232945238Y-75200000D01*
X232971429Y-75266667D01*
X232971429Y-75433333D01*
X232945238Y-75500000D01*
X232919048Y-75533333D01*
X232866667Y-75566667D01*
X232709524Y-75566667D01*
X232657143Y-75533333D01*
X232630952Y-75500000D01*
X232054762Y-85566667D02*
X232054762Y-84866667D01*
X232238096Y-85366667D01*
X232421429Y-84866667D01*
X232421429Y-85566667D01*
X232919048Y-85100000D02*
X232919048Y-85566667D01*
X232788095Y-84833333D02*
X232657143Y-85333333D01*
X232997619Y-85333333D01*
X229554762Y-80316667D02*
X229554762Y-79616667D01*
X229738096Y-80116667D01*
X229921429Y-79616667D01*
X229921429Y-80316667D01*
X230157143Y-79683333D02*
X230183333Y-79650000D01*
X230235714Y-79616667D01*
X230366667Y-79616667D01*
X230419048Y-79650000D01*
X230445238Y-79683333D01*
X230471429Y-79750000D01*
X230471429Y-79816667D01*
X230445238Y-79916667D01*
X230130952Y-80316667D01*
X230471429Y-80316667D01*
X242054762Y-80316667D02*
X242054762Y-79616667D01*
X242238096Y-80116667D01*
X242421429Y-79616667D01*
X242421429Y-80316667D01*
X242945238Y-79616667D02*
X242683333Y-79616667D01*
X242657143Y-79950000D01*
X242683333Y-79916667D01*
X242735714Y-79883333D01*
X242866667Y-79883333D01*
X242919048Y-79916667D01*
X242945238Y-79950000D01*
X242971429Y-80016667D01*
X242971429Y-80183333D01*
X242945238Y-80250000D01*
X242919048Y-80283333D01*
X242866667Y-80316667D01*
X242735714Y-80316667D01*
X242683333Y-80283333D01*
X242657143Y-80250000D01*
X239554762Y-75316667D02*
X239554762Y-74616667D01*
X239738096Y-75116667D01*
X239921429Y-74616667D01*
X239921429Y-75316667D01*
X240419048Y-74616667D02*
X240314286Y-74616667D01*
X240261905Y-74650000D01*
X240235714Y-74683333D01*
X240183333Y-74783333D01*
X240157143Y-74916667D01*
X240157143Y-75183333D01*
X240183333Y-75250000D01*
X240209524Y-75283333D01*
X240261905Y-75316667D01*
X240366667Y-75316667D01*
X240419048Y-75283333D01*
X240445238Y-75250000D01*
X240471429Y-75183333D01*
X240471429Y-75016667D01*
X240445238Y-74950000D01*
X240419048Y-74916667D01*
X240366667Y-74883333D01*
X240261905Y-74883333D01*
X240209524Y-74916667D01*
X240183333Y-74950000D01*
X240157143Y-75016667D01*
X239554762Y-85316667D02*
X239554762Y-84616667D01*
X239738096Y-85116667D01*
X239921429Y-84616667D01*
X239921429Y-85316667D01*
X240130952Y-84616667D02*
X240497619Y-84616667D01*
X240261905Y-85316667D01*
X168805952Y-71866667D02*
X169120238Y-71866667D01*
X168963095Y-72566667D02*
X168963095Y-71866667D01*
X169303571Y-72566667D02*
X169303571Y-71866667D01*
X169513095Y-71866667D01*
X169565476Y-71900000D01*
X169591667Y-71933333D01*
X169617857Y-72000000D01*
X169617857Y-72100000D01*
X169591667Y-72166667D01*
X169565476Y-72200000D01*
X169513095Y-72233333D01*
X169303571Y-72233333D01*
X170141667Y-72566667D02*
X169827381Y-72566667D01*
X169984524Y-72566667D02*
X169984524Y-71866667D01*
X169932143Y-71966667D01*
X169879762Y-72033333D01*
X169827381Y-72066667D01*
X168988095Y-73116667D02*
X169040476Y-73116667D01*
X169092857Y-73150000D01*
X169119048Y-73183333D01*
X169145238Y-73250000D01*
X169171429Y-73383333D01*
X169171429Y-73550000D01*
X169145238Y-73683333D01*
X169119048Y-73750000D01*
X169092857Y-73783333D01*
X169040476Y-73816667D01*
X168988095Y-73816667D01*
X168935714Y-73783333D01*
X168909524Y-73750000D01*
X168883333Y-73683333D01*
X168857143Y-73550000D01*
X168857143Y-73383333D01*
X168883333Y-73250000D01*
X168909524Y-73183333D01*
X168935714Y-73150000D01*
X168988095Y-73116667D01*
X169328572Y-73116667D02*
X169511905Y-73816667D01*
X169695239Y-73116667D01*
M02*
