G04 #@! TF.FileFunction,Other,Comment*
%FSLAX46Y46*%
G04 Gerber Fmt 4.6, Leading zero omitted, Abs format (unit mm)*
G04 Created by KiCad (PCBNEW 4.0.7-e2-6376~61~ubuntu18.04.1) date Fri Jul  6 14:55:34 2018*
%MOMM*%
%LPD*%
G01*
G04 APERTURE LIST*
%ADD10C,0.100000*%
%ADD11C,0.120000*%
%ADD12C,0.200000*%
G04 APERTURE END LIST*
D10*
D11*
X164420237Y-88816667D02*
X164420237Y-88116667D01*
X164629761Y-88116667D01*
X164682142Y-88150000D01*
X164708333Y-88183333D01*
X164734523Y-88250000D01*
X164734523Y-88350000D01*
X164708333Y-88416667D01*
X164682142Y-88450000D01*
X164629761Y-88483333D01*
X164420237Y-88483333D01*
X165284523Y-88750000D02*
X165258333Y-88783333D01*
X165179761Y-88816667D01*
X165127380Y-88816667D01*
X165048809Y-88783333D01*
X164996428Y-88716667D01*
X164970237Y-88650000D01*
X164944047Y-88516667D01*
X164944047Y-88416667D01*
X164970237Y-88283333D01*
X164996428Y-88216667D01*
X165048809Y-88150000D01*
X165127380Y-88116667D01*
X165179761Y-88116667D01*
X165258333Y-88150000D01*
X165284523Y-88183333D01*
X165703571Y-88450000D02*
X165782142Y-88483333D01*
X165808333Y-88516667D01*
X165834523Y-88583333D01*
X165834523Y-88683333D01*
X165808333Y-88750000D01*
X165782142Y-88783333D01*
X165729761Y-88816667D01*
X165520237Y-88816667D01*
X165520237Y-88116667D01*
X165703571Y-88116667D01*
X165755952Y-88150000D01*
X165782142Y-88183333D01*
X165808333Y-88250000D01*
X165808333Y-88316667D01*
X165782142Y-88383333D01*
X165755952Y-88416667D01*
X165703571Y-88450000D01*
X165520237Y-88450000D01*
X166017856Y-88116667D02*
X166148809Y-88816667D01*
X166253571Y-88316667D01*
X166358333Y-88816667D01*
X166489285Y-88116667D01*
X166934523Y-88816667D02*
X166934523Y-88450000D01*
X166908332Y-88383333D01*
X166855951Y-88350000D01*
X166751189Y-88350000D01*
X166698808Y-88383333D01*
X166934523Y-88783333D02*
X166882142Y-88816667D01*
X166751189Y-88816667D01*
X166698808Y-88783333D01*
X166672618Y-88716667D01*
X166672618Y-88650000D01*
X166698808Y-88583333D01*
X166751189Y-88550000D01*
X166882142Y-88550000D01*
X166934523Y-88516667D01*
X167144046Y-88350000D02*
X167274999Y-88816667D01*
X167405951Y-88350000D02*
X167274999Y-88816667D01*
X167222618Y-88983333D01*
X167196427Y-89016667D01*
X167144046Y-89050000D01*
X168034523Y-88816667D02*
X168034523Y-88116667D01*
X168244047Y-88116667D01*
X168296428Y-88150000D01*
X168322619Y-88183333D01*
X168348809Y-88250000D01*
X168348809Y-88350000D01*
X168322619Y-88416667D01*
X168296428Y-88450000D01*
X168244047Y-88483333D01*
X168034523Y-88483333D01*
X168898809Y-88750000D02*
X168872619Y-88783333D01*
X168794047Y-88816667D01*
X168741666Y-88816667D01*
X168663095Y-88783333D01*
X168610714Y-88716667D01*
X168584523Y-88650000D01*
X168558333Y-88516667D01*
X168558333Y-88416667D01*
X168584523Y-88283333D01*
X168610714Y-88216667D01*
X168663095Y-88150000D01*
X168741666Y-88116667D01*
X168794047Y-88116667D01*
X168872619Y-88150000D01*
X168898809Y-88183333D01*
X169317857Y-88450000D02*
X169396428Y-88483333D01*
X169422619Y-88516667D01*
X169448809Y-88583333D01*
X169448809Y-88683333D01*
X169422619Y-88750000D01*
X169396428Y-88783333D01*
X169344047Y-88816667D01*
X169134523Y-88816667D01*
X169134523Y-88116667D01*
X169317857Y-88116667D01*
X169370238Y-88150000D01*
X169396428Y-88183333D01*
X169422619Y-88250000D01*
X169422619Y-88316667D01*
X169396428Y-88383333D01*
X169370238Y-88416667D01*
X169317857Y-88450000D01*
X169134523Y-88450000D01*
X170103571Y-88350000D02*
X170103571Y-88816667D01*
X170103571Y-88416667D02*
X170129762Y-88383333D01*
X170182143Y-88350000D01*
X170260714Y-88350000D01*
X170313095Y-88383333D01*
X170339286Y-88450000D01*
X170339286Y-88816667D01*
X170836905Y-88350000D02*
X170836905Y-88816667D01*
X170601190Y-88350000D02*
X170601190Y-88716667D01*
X170627381Y-88783333D01*
X170679762Y-88816667D01*
X170758333Y-88816667D01*
X170810714Y-88783333D01*
X170836905Y-88750000D01*
X171098809Y-88816667D02*
X171098809Y-88350000D01*
X171098809Y-88416667D02*
X171125000Y-88383333D01*
X171177381Y-88350000D01*
X171255952Y-88350000D01*
X171308333Y-88383333D01*
X171334524Y-88450000D01*
X171334524Y-88816667D01*
X171334524Y-88450000D02*
X171360714Y-88383333D01*
X171413095Y-88350000D01*
X171491667Y-88350000D01*
X171544047Y-88383333D01*
X171570238Y-88450000D01*
X171570238Y-88816667D01*
X171832142Y-88816667D02*
X171832142Y-88116667D01*
X171832142Y-88383333D02*
X171884523Y-88350000D01*
X171989285Y-88350000D01*
X172041666Y-88383333D01*
X172067857Y-88416667D01*
X172094047Y-88483333D01*
X172094047Y-88683333D01*
X172067857Y-88750000D01*
X172041666Y-88783333D01*
X171989285Y-88816667D01*
X171884523Y-88816667D01*
X171832142Y-88783333D01*
X172539285Y-88783333D02*
X172486904Y-88816667D01*
X172382142Y-88816667D01*
X172329761Y-88783333D01*
X172303571Y-88716667D01*
X172303571Y-88450000D01*
X172329761Y-88383333D01*
X172382142Y-88350000D01*
X172486904Y-88350000D01*
X172539285Y-88383333D01*
X172565476Y-88450000D01*
X172565476Y-88516667D01*
X172303571Y-88583333D01*
X172801190Y-88816667D02*
X172801190Y-88350000D01*
X172801190Y-88483333D02*
X172827381Y-88416667D01*
X172853571Y-88383333D01*
X172905952Y-88350000D01*
X172958333Y-88350000D01*
X173560714Y-88816667D02*
X173560714Y-88116667D01*
X173796429Y-88816667D02*
X173796429Y-88450000D01*
X173770238Y-88383333D01*
X173717857Y-88350000D01*
X173639286Y-88350000D01*
X173586905Y-88383333D01*
X173560714Y-88416667D01*
X174267857Y-88783333D02*
X174215476Y-88816667D01*
X174110714Y-88816667D01*
X174058333Y-88783333D01*
X174032143Y-88716667D01*
X174032143Y-88450000D01*
X174058333Y-88383333D01*
X174110714Y-88350000D01*
X174215476Y-88350000D01*
X174267857Y-88383333D01*
X174294048Y-88450000D01*
X174294048Y-88516667D01*
X174032143Y-88583333D01*
X174529762Y-88816667D02*
X174529762Y-88350000D01*
X174529762Y-88483333D02*
X174555953Y-88416667D01*
X174582143Y-88383333D01*
X174634524Y-88350000D01*
X174686905Y-88350000D01*
X175079762Y-88783333D02*
X175027381Y-88816667D01*
X174922619Y-88816667D01*
X174870238Y-88783333D01*
X174844048Y-88716667D01*
X174844048Y-88450000D01*
X174870238Y-88383333D01*
X174922619Y-88350000D01*
X175027381Y-88350000D01*
X175079762Y-88383333D01*
X175105953Y-88450000D01*
X175105953Y-88516667D01*
X174844048Y-88583333D01*
D12*
X243000000Y-79000000D02*
X219000000Y-76250000D01*
X244750000Y-79750000D02*
X241500000Y-88500000D01*
X249000000Y-79250000D02*
X266250000Y-83000000D01*
X248500000Y-78000000D02*
X250000000Y-71000000D01*
X204250000Y-90750000D02*
X198750000Y-76250000D01*
X203750000Y-91000000D02*
X198750000Y-88750000D01*
D11*
X204052381Y-91183333D02*
X204078571Y-91150000D01*
X204130952Y-91116667D01*
X204261905Y-91116667D01*
X204314286Y-91150000D01*
X204340476Y-91183333D01*
X204366667Y-91250000D01*
X204366667Y-91316667D01*
X204340476Y-91416667D01*
X204026190Y-91816667D01*
X204366667Y-91816667D01*
X204602381Y-91750000D02*
X204628572Y-91783333D01*
X204602381Y-91816667D01*
X204576191Y-91783333D01*
X204602381Y-91750000D01*
X204602381Y-91816667D01*
X205126191Y-91116667D02*
X204864286Y-91116667D01*
X204838096Y-91450000D01*
X204864286Y-91416667D01*
X204916667Y-91383333D01*
X205047620Y-91383333D01*
X205100001Y-91416667D01*
X205126191Y-91450000D01*
X205152382Y-91516667D01*
X205152382Y-91683333D01*
X205126191Y-91750000D01*
X205100001Y-91783333D01*
X205047620Y-91816667D01*
X204916667Y-91816667D01*
X204864286Y-91783333D01*
X204838096Y-91750000D01*
X205807144Y-91816667D02*
X205807144Y-91350000D01*
X205807144Y-91416667D02*
X205833335Y-91383333D01*
X205885716Y-91350000D01*
X205964287Y-91350000D01*
X206016668Y-91383333D01*
X206042859Y-91450000D01*
X206042859Y-91816667D01*
X206042859Y-91450000D02*
X206069049Y-91383333D01*
X206121430Y-91350000D01*
X206200002Y-91350000D01*
X206252382Y-91383333D01*
X206278573Y-91450000D01*
X206278573Y-91816667D01*
X206540477Y-91816667D02*
X206540477Y-91350000D01*
X206540477Y-91416667D02*
X206566668Y-91383333D01*
X206619049Y-91350000D01*
X206697620Y-91350000D01*
X206750001Y-91383333D01*
X206776192Y-91450000D01*
X206776192Y-91816667D01*
X206776192Y-91450000D02*
X206802382Y-91383333D01*
X206854763Y-91350000D01*
X206933335Y-91350000D01*
X206985715Y-91383333D01*
X207011906Y-91450000D01*
X207011906Y-91816667D01*
X207666668Y-91783333D02*
X207719049Y-91816667D01*
X207823811Y-91816667D01*
X207876192Y-91783333D01*
X207902382Y-91716667D01*
X207902382Y-91683333D01*
X207876192Y-91616667D01*
X207823811Y-91583333D01*
X207745239Y-91583333D01*
X207692858Y-91550000D01*
X207666668Y-91483333D01*
X207666668Y-91450000D01*
X207692858Y-91383333D01*
X207745239Y-91350000D01*
X207823811Y-91350000D01*
X207876192Y-91383333D01*
X208216668Y-91816667D02*
X208164287Y-91783333D01*
X208138096Y-91716667D01*
X208138096Y-91116667D01*
X208504763Y-91816667D02*
X208452382Y-91783333D01*
X208426191Y-91750000D01*
X208400001Y-91683333D01*
X208400001Y-91483333D01*
X208426191Y-91416667D01*
X208452382Y-91383333D01*
X208504763Y-91350000D01*
X208583334Y-91350000D01*
X208635715Y-91383333D01*
X208661906Y-91416667D01*
X208688096Y-91483333D01*
X208688096Y-91683333D01*
X208661906Y-91750000D01*
X208635715Y-91783333D01*
X208583334Y-91816667D01*
X208504763Y-91816667D01*
X208845239Y-91350000D02*
X209054763Y-91350000D01*
X208923810Y-91116667D02*
X208923810Y-91716667D01*
X208950001Y-91783333D01*
X209002382Y-91816667D01*
X209054763Y-91816667D01*
X209211906Y-91783333D02*
X209264287Y-91816667D01*
X209369049Y-91816667D01*
X209421430Y-91783333D01*
X209447620Y-91716667D01*
X209447620Y-91683333D01*
X209421430Y-91616667D01*
X209369049Y-91583333D01*
X209290477Y-91583333D01*
X209238096Y-91550000D01*
X209211906Y-91483333D01*
X209211906Y-91450000D01*
X209238096Y-91383333D01*
X209290477Y-91350000D01*
X209369049Y-91350000D01*
X209421430Y-91383333D01*
X244246428Y-79250000D02*
X244220238Y-79283333D01*
X244141666Y-79316667D01*
X244089285Y-79316667D01*
X244010714Y-79283333D01*
X243958333Y-79216667D01*
X243932142Y-79150000D01*
X243905952Y-79016667D01*
X243905952Y-78916667D01*
X243932142Y-78783333D01*
X243958333Y-78716667D01*
X244010714Y-78650000D01*
X244089285Y-78616667D01*
X244141666Y-78616667D01*
X244220238Y-78650000D01*
X244246428Y-78683333D01*
X244717857Y-78850000D02*
X244717857Y-79316667D01*
X244482142Y-78850000D02*
X244482142Y-79216667D01*
X244508333Y-79283333D01*
X244560714Y-79316667D01*
X244639285Y-79316667D01*
X244691666Y-79283333D01*
X244717857Y-79250000D01*
X244901190Y-78850000D02*
X245110714Y-78850000D01*
X244979761Y-78616667D02*
X244979761Y-79216667D01*
X245005952Y-79283333D01*
X245058333Y-79316667D01*
X245110714Y-79316667D01*
X245372619Y-79316667D02*
X245320238Y-79283333D01*
X245294047Y-79250000D01*
X245267857Y-79183333D01*
X245267857Y-78983333D01*
X245294047Y-78916667D01*
X245320238Y-78883333D01*
X245372619Y-78850000D01*
X245451190Y-78850000D01*
X245503571Y-78883333D01*
X245529762Y-78916667D01*
X245555952Y-78983333D01*
X245555952Y-79183333D01*
X245529762Y-79250000D01*
X245503571Y-79283333D01*
X245451190Y-79316667D01*
X245372619Y-79316667D01*
X246027381Y-78850000D02*
X246027381Y-79316667D01*
X245791666Y-78850000D02*
X245791666Y-79216667D01*
X245817857Y-79283333D01*
X245870238Y-79316667D01*
X245948809Y-79316667D01*
X246001190Y-79283333D01*
X246027381Y-79250000D01*
X246210714Y-78850000D02*
X246420238Y-78850000D01*
X246289285Y-78616667D02*
X246289285Y-79216667D01*
X246315476Y-79283333D01*
X246367857Y-79316667D01*
X246420238Y-79316667D01*
X247258334Y-79316667D02*
X247258334Y-78950000D01*
X247232143Y-78883333D01*
X247179762Y-78850000D01*
X247075000Y-78850000D01*
X247022619Y-78883333D01*
X247258334Y-79283333D02*
X247205953Y-79316667D01*
X247075000Y-79316667D01*
X247022619Y-79283333D01*
X246996429Y-79216667D01*
X246996429Y-79150000D01*
X247022619Y-79083333D01*
X247075000Y-79050000D01*
X247205953Y-79050000D01*
X247258334Y-79016667D01*
X247520238Y-79316667D02*
X247520238Y-78850000D01*
X247520238Y-78983333D02*
X247546429Y-78916667D01*
X247572619Y-78883333D01*
X247625000Y-78850000D01*
X247677381Y-78850000D01*
X248070238Y-79283333D02*
X248017857Y-79316667D01*
X247913095Y-79316667D01*
X247860714Y-79283333D01*
X247834524Y-79216667D01*
X247834524Y-78950000D01*
X247860714Y-78883333D01*
X247913095Y-78850000D01*
X248017857Y-78850000D01*
X248070238Y-78883333D01*
X248096429Y-78950000D01*
X248096429Y-79016667D01*
X247834524Y-79083333D01*
X248567858Y-79316667D02*
X248567858Y-78950000D01*
X248541667Y-78883333D01*
X248489286Y-78850000D01*
X248384524Y-78850000D01*
X248332143Y-78883333D01*
X248567858Y-79283333D02*
X248515477Y-79316667D01*
X248384524Y-79316667D01*
X248332143Y-79283333D01*
X248305953Y-79216667D01*
X248305953Y-79150000D01*
X248332143Y-79083333D01*
X248384524Y-79050000D01*
X248515477Y-79050000D01*
X248567858Y-79016667D01*
M02*
