G04 #@! TF.FileFunction,Profile,NP*
%FSLAX46Y46*%
G04 Gerber Fmt 4.6, Leading zero omitted, Abs format (unit mm)*
G04 Created by KiCad (PCBNEW 4.0.7-e2-6376~61~ubuntu18.04.1) date Fri Jul  6 14:55:34 2018*
%MOMM*%
%LPD*%
G01*
G04 APERTURE LIST*
%ADD10C,0.100000*%
%ADD11C,0.150000*%
G04 APERTURE END LIST*
D10*
D11*
X197500000Y-65000000D02*
G75*
G03X200000000Y-65000000I1250000J0D01*
G01*
X200000000Y-95000000D02*
G75*
G03X197500000Y-95000000I-1250000J0D01*
G01*
X197500000Y-77500000D02*
X197500000Y-70000000D01*
X200000000Y-70000000D02*
X200000000Y-77500000D01*
X197500000Y-77500000D02*
G75*
G03X200000000Y-77500000I1250000J0D01*
G01*
X200000000Y-82500000D02*
G75*
G03X197500000Y-82500000I-1250000J0D01*
G01*
X197500000Y-90000000D02*
G75*
G03X200000000Y-90000000I1250000J0D01*
G01*
X200000000Y-70000000D02*
G75*
G03X197500000Y-70000000I-1250000J0D01*
G01*
X197500000Y-82500000D02*
X197500000Y-90000000D01*
X146250000Y-67500000D02*
G75*
G03X147500000Y-66250000I0J1250000D01*
G01*
X148750000Y-65000000D02*
G75*
G03X147500000Y-66250000I0J-1250000D01*
G01*
X250000000Y-66250000D02*
G75*
G03X251250000Y-67500000I1250000J0D01*
G01*
X250000000Y-66250000D02*
G75*
G03X248750000Y-65000000I-1250000J0D01*
G01*
X248750000Y-95000000D02*
G75*
G03X250000000Y-93750000I0J1250000D01*
G01*
X251250000Y-92500000D02*
G75*
G03X250000000Y-93750000I0J-1250000D01*
G01*
X147500000Y-93750000D02*
G75*
G03X148750000Y-95000000I1250000J0D01*
G01*
X147500000Y-93750000D02*
G75*
G03X146250000Y-92500000I-1250000J0D01*
G01*
X220000000Y-70000000D02*
G75*
G03X217500000Y-72500000I0J-2500000D01*
G01*
X217500000Y-87500000D02*
G75*
G03X220000000Y-90000000I2500000J0D01*
G01*
X265000000Y-90000000D02*
G75*
G03X267500000Y-87500000I0J2500000D01*
G01*
X267500000Y-72500000D02*
G75*
G03X265000000Y-70000000I-2500000J0D01*
G01*
X220000000Y-70000000D02*
X265000000Y-70000000D01*
X217500000Y-87500000D02*
X217500000Y-72500000D01*
X265000000Y-90000000D02*
X220000000Y-90000000D01*
X267500000Y-72500000D02*
X267500000Y-87500000D01*
X248750000Y-95000000D02*
X200000000Y-95000000D01*
X270000000Y-92500000D02*
X251250000Y-92500000D01*
X270000000Y-67500000D02*
X270000000Y-92500000D01*
X251250000Y-67500000D02*
X270000000Y-67500000D01*
X200000000Y-65000000D02*
X248750000Y-65000000D01*
X146250000Y-67500000D02*
X52500000Y-67500000D01*
X197500000Y-65000000D02*
X148750000Y-65000000D01*
X200000000Y-82500000D02*
X200000000Y-90000000D01*
X148750000Y-95000000D02*
X197500000Y-95000000D01*
X52500000Y-92500000D02*
X146250000Y-92500000D01*
X40000000Y-80000000D02*
X52500000Y-92500000D01*
X52500000Y-67500000D02*
X40000000Y-80000000D01*
M02*
