G04 #@! TF.FileFunction,Copper,L3,Inr,Signal*
%FSLAX46Y46*%
G04 Gerber Fmt 4.6, Leading zero omitted, Abs format (unit mm)*
G04 Created by KiCad (PCBNEW 4.0.7-e2-6376~61~ubuntu18.04.1) date Tue Jul  3 09:25:50 2018*
%MOMM*%
%LPD*%
G01*
G04 APERTURE LIST*
%ADD10C,0.100000*%
%ADD11R,1.000000X1.000000*%
%ADD12C,2.500000*%
%ADD13R,1.700000X1.700000*%
%ADD14O,1.700000X1.700000*%
%ADD15R,1.800000X1.800000*%
%ADD16C,1.800000*%
%ADD17C,1.000000*%
%ADD18R,0.900000X0.500000*%
%ADD19C,3.600000*%
%ADD20O,1.800000X1.100000*%
%ADD21O,2.200000X1.100000*%
%ADD22C,0.600000*%
%ADD23C,0.254000*%
G04 APERTURE END LIST*
D10*
D11*
X157500000Y-42000000D03*
D12*
X168500000Y-106100000D03*
X181300000Y-106100000D03*
X170000000Y-80000000D03*
X200000000Y-80000000D03*
D13*
X148920000Y-115000000D03*
D14*
X151460000Y-115000000D03*
X154000000Y-115000000D03*
X156540000Y-115000000D03*
X159080000Y-115000000D03*
X161620000Y-115000000D03*
D15*
X130000000Y-78750000D03*
D16*
X130000000Y-81290000D03*
D17*
X168500000Y-112500000D03*
X168500000Y-124500000D03*
X145500000Y-70000000D03*
X148000000Y-70000000D03*
X143000000Y-70000000D03*
D18*
X110750000Y-27500000D03*
D19*
X192500000Y-136000000D03*
D17*
X125000000Y-63500000D03*
D19*
X117500000Y-136000000D03*
D20*
X152200000Y-131750000D03*
X157800000Y-131750000D03*
D21*
X155000000Y-133900000D03*
D22*
X98500000Y-42500000D03*
X101500000Y-42500000D03*
X102500000Y-46000000D03*
X102500000Y-48000000D03*
X116500000Y-30000000D03*
X112000000Y-37000000D03*
X147000000Y-65000000D03*
X149250000Y-56000000D03*
X149250000Y-53750000D03*
X149250000Y-50500000D03*
X149250000Y-48250000D03*
X155000000Y-60750000D03*
X152000000Y-60750000D03*
X167000000Y-49250000D03*
X159000000Y-49250000D03*
X161500000Y-108000000D03*
X127500000Y-70000000D03*
X156250000Y-130000000D03*
X137500000Y-129000000D03*
X137500000Y-118500000D03*
X161500000Y-120000000D03*
X156500000Y-120000000D03*
X154000000Y-120000000D03*
X149000000Y-120000000D03*
X121000000Y-83000000D03*
X117500000Y-84500000D03*
X141000000Y-40500000D03*
X140000000Y-40500000D03*
X133000000Y-40500000D03*
X132000000Y-40500000D03*
X123500000Y-40500000D03*
X108500000Y-40500000D03*
X109500000Y-62000000D03*
X108500000Y-62000000D03*
X122500000Y-62000000D03*
X141000000Y-62000000D03*
X140000000Y-62000000D03*
X132000000Y-62000000D03*
X133000000Y-62000000D03*
X100000000Y-53500000D03*
X99000000Y-70000000D03*
X99000000Y-75000000D03*
X198000000Y-117000000D03*
X182500000Y-120000000D03*
X177500000Y-120000000D03*
X123000000Y-92000000D03*
X102500000Y-91000000D03*
X107500000Y-91000000D03*
X123000000Y-117000000D03*
X102500000Y-116000000D03*
X107500000Y-116000000D03*
X141750000Y-65000000D03*
X140500000Y-77500000D03*
X150000000Y-82500000D03*
X137500000Y-123500000D03*
X100000000Y-59000000D03*
X139000000Y-65000000D03*
X117500000Y-70000000D03*
X127500000Y-72500000D03*
X121500000Y-62000000D03*
X99000000Y-65000000D03*
X171500000Y-124500000D03*
X99000000Y-99000000D03*
X99000000Y-124000000D03*
X140500000Y-67000000D03*
X121500000Y-40500000D03*
X114000000Y-72000000D03*
X118500000Y-73500000D03*
X114000000Y-68000000D03*
X135500000Y-67500000D03*
X120500000Y-40500000D03*
X169500000Y-118500000D03*
X113500000Y-40500000D03*
X99000000Y-91000000D03*
X112500000Y-40500000D03*
X118500000Y-40500000D03*
X177500000Y-112000000D03*
X117500000Y-40500000D03*
X175000000Y-112000000D03*
X111500000Y-40500000D03*
X105000000Y-82000000D03*
X110500000Y-40500000D03*
X102500000Y-82000000D03*
X105000000Y-107000000D03*
X118500000Y-62000000D03*
X102500000Y-107000000D03*
X117500000Y-62000000D03*
X111500000Y-62000000D03*
X144750000Y-85000000D03*
X99000000Y-116000000D03*
X119500000Y-62000000D03*
D23*
G36*
X109661928Y-27750000D02*
X109669992Y-27851121D01*
X109723106Y-28022634D01*
X109821900Y-28172559D01*
X109958550Y-28289025D01*
X110122237Y-28362810D01*
X110300000Y-28388072D01*
X111200000Y-28388072D01*
X111301121Y-28380008D01*
X111472634Y-28326894D01*
X111622559Y-28228100D01*
X111739025Y-28091450D01*
X111812810Y-27927763D01*
X111838072Y-27750000D01*
X111838072Y-27627000D01*
X140873000Y-27627000D01*
X140873000Y-38000000D01*
X140878028Y-38035381D01*
X140892714Y-38067961D01*
X140910197Y-38089803D01*
X144910197Y-42089803D01*
X144938771Y-42111266D01*
X144972193Y-42123918D01*
X145000000Y-42127000D01*
X156361928Y-42127000D01*
X156361928Y-42500000D01*
X156369992Y-42601121D01*
X156423106Y-42772634D01*
X156521900Y-42922559D01*
X156658550Y-43039025D01*
X156822237Y-43112810D01*
X157000000Y-43138072D01*
X158000000Y-43138072D01*
X158101121Y-43130008D01*
X158272634Y-43076894D01*
X158422559Y-42978100D01*
X158539025Y-42841450D01*
X158612810Y-42677763D01*
X158638072Y-42500000D01*
X158638072Y-42127000D01*
X213315000Y-42127000D01*
X213315000Y-125315000D01*
X208500000Y-125315000D01*
X208499877Y-125315012D01*
X208497606Y-125315004D01*
X208445247Y-125315187D01*
X208415478Y-125318211D01*
X208385558Y-125318002D01*
X208376039Y-125318935D01*
X206920314Y-125471939D01*
X206859520Y-125484418D01*
X206798513Y-125496056D01*
X206789357Y-125498820D01*
X205391073Y-125931660D01*
X205333807Y-125955732D01*
X205276275Y-125978977D01*
X205267835Y-125983465D01*
X205267830Y-125983467D01*
X205267826Y-125983470D01*
X203980250Y-126679659D01*
X203928787Y-126714371D01*
X203876830Y-126748371D01*
X203869418Y-126754416D01*
X202741584Y-127687441D01*
X202697836Y-127731495D01*
X202653478Y-127774934D01*
X202647382Y-127782303D01*
X201722254Y-128916623D01*
X201687903Y-128968326D01*
X201652821Y-129019562D01*
X201648272Y-129027975D01*
X200961086Y-130320384D01*
X200937418Y-130377806D01*
X200912970Y-130434849D01*
X200910141Y-130443985D01*
X200487072Y-131845255D01*
X200475007Y-131906188D01*
X200462105Y-131966886D01*
X200461105Y-131976398D01*
X200318269Y-133433156D01*
X200318269Y-133461889D01*
X200315067Y-133490436D01*
X200315000Y-133500000D01*
X200315000Y-138315000D01*
X193265366Y-138315000D01*
X193603199Y-138183963D01*
X194006389Y-137928091D01*
X194352202Y-137598778D01*
X194627465Y-137208568D01*
X194821693Y-136772324D01*
X194927488Y-136306663D01*
X194935104Y-135761236D01*
X194842352Y-135292802D01*
X194660380Y-134851305D01*
X194396120Y-134453562D01*
X194059638Y-134114722D01*
X193663749Y-133847692D01*
X193223533Y-133662642D01*
X192755758Y-133566622D01*
X192278242Y-133563288D01*
X191809172Y-133652768D01*
X191366416Y-133831653D01*
X190966837Y-134093130D01*
X190625656Y-134427239D01*
X190355869Y-134821254D01*
X190167750Y-135260167D01*
X190068467Y-135727260D01*
X190061799Y-136204741D01*
X190148002Y-136674425D01*
X190323792Y-137118419D01*
X190582473Y-137519813D01*
X190914192Y-137863318D01*
X191306314Y-138135850D01*
X191716372Y-138315000D01*
X118265366Y-138315000D01*
X118603199Y-138183963D01*
X119006389Y-137928091D01*
X119352202Y-137598778D01*
X119627465Y-137208568D01*
X119821693Y-136772324D01*
X119927488Y-136306663D01*
X119935104Y-135761236D01*
X119842352Y-135292802D01*
X119660380Y-134851305D01*
X119396120Y-134453562D01*
X119059638Y-134114722D01*
X118729034Y-133891727D01*
X153256634Y-133891727D01*
X153277595Y-134122047D01*
X153342892Y-134343909D01*
X153450039Y-134548862D01*
X153594955Y-134729101D01*
X153772119Y-134877759D01*
X153974784Y-134989175D01*
X154195230Y-135059105D01*
X154425060Y-135084884D01*
X154441605Y-135085000D01*
X155558395Y-135085000D01*
X155788563Y-135062432D01*
X156009963Y-134995587D01*
X156214164Y-134887012D01*
X156393387Y-134740841D01*
X156540805Y-134562644D01*
X156650803Y-134359206D01*
X156719192Y-134138277D01*
X156743366Y-133908273D01*
X156722405Y-133677953D01*
X156657108Y-133456091D01*
X156549961Y-133251138D01*
X156405045Y-133070899D01*
X156227881Y-132922241D01*
X156025216Y-132810825D01*
X155804770Y-132740895D01*
X155574940Y-132715116D01*
X155558395Y-132715000D01*
X154441605Y-132715000D01*
X154211437Y-132737568D01*
X153990037Y-132804413D01*
X153785836Y-132912988D01*
X153606613Y-133059159D01*
X153459195Y-133237356D01*
X153349197Y-133440794D01*
X153280808Y-133661723D01*
X153256634Y-133891727D01*
X118729034Y-133891727D01*
X118663749Y-133847692D01*
X118223533Y-133662642D01*
X117755758Y-133566622D01*
X117278242Y-133563288D01*
X116809172Y-133652768D01*
X116366416Y-133831653D01*
X115966837Y-134093130D01*
X115625656Y-134427239D01*
X115355869Y-134821254D01*
X115167750Y-135260167D01*
X115068467Y-135727260D01*
X115061799Y-136204741D01*
X115148002Y-136674425D01*
X115323792Y-137118419D01*
X115582473Y-137519813D01*
X115914192Y-137863318D01*
X116306314Y-138135850D01*
X116716372Y-138315000D01*
X109685000Y-138315000D01*
X109685000Y-133500000D01*
X109684988Y-133499877D01*
X109684996Y-133497606D01*
X109684813Y-133445247D01*
X109681789Y-133415478D01*
X109681998Y-133385558D01*
X109681065Y-133376039D01*
X109528061Y-131920314D01*
X109515582Y-131859520D01*
X109503944Y-131798513D01*
X109501180Y-131789357D01*
X109486437Y-131741727D01*
X150657602Y-131741727D01*
X150678563Y-131972047D01*
X150743860Y-132193909D01*
X150851007Y-132398862D01*
X150995923Y-132579101D01*
X151173087Y-132727759D01*
X151375752Y-132839175D01*
X151596198Y-132909105D01*
X151826028Y-132934884D01*
X151842573Y-132935000D01*
X152557427Y-132935000D01*
X152787595Y-132912432D01*
X153008995Y-132845587D01*
X153213196Y-132737012D01*
X153392419Y-132590841D01*
X153539837Y-132412644D01*
X153649835Y-132209206D01*
X153718224Y-131988277D01*
X153742398Y-131758273D01*
X153721437Y-131527953D01*
X153656140Y-131306091D01*
X153548993Y-131101138D01*
X153404077Y-130920899D01*
X153226913Y-130772241D01*
X153024248Y-130660825D01*
X152803802Y-130590895D01*
X152573972Y-130565116D01*
X152557427Y-130565000D01*
X151842573Y-130565000D01*
X151612405Y-130587568D01*
X151391005Y-130654413D01*
X151186804Y-130762988D01*
X151007581Y-130909159D01*
X150860163Y-131087356D01*
X150750165Y-131290794D01*
X150681776Y-131511723D01*
X150657602Y-131741727D01*
X109486437Y-131741727D01*
X109068340Y-130391073D01*
X109044268Y-130333807D01*
X109021023Y-130276275D01*
X109016533Y-130267831D01*
X109016533Y-130267830D01*
X109016530Y-130267826D01*
X108914226Y-130078617D01*
X155313771Y-130078617D01*
X155346872Y-130258968D01*
X155414372Y-130429454D01*
X155513701Y-130583583D01*
X155641076Y-130715484D01*
X155791644Y-130820131D01*
X155959671Y-130893540D01*
X156138757Y-130932915D01*
X156322079Y-130936755D01*
X156502657Y-130904914D01*
X156673610Y-130838606D01*
X156765899Y-130780038D01*
X156607581Y-130909159D01*
X156460163Y-131087356D01*
X156350165Y-131290794D01*
X156281776Y-131511723D01*
X156257602Y-131741727D01*
X156278563Y-131972047D01*
X156343860Y-132193909D01*
X156451007Y-132398862D01*
X156595923Y-132579101D01*
X156773087Y-132727759D01*
X156975752Y-132839175D01*
X157196198Y-132909105D01*
X157426028Y-132934884D01*
X157442573Y-132935000D01*
X158157427Y-132935000D01*
X158387595Y-132912432D01*
X158608995Y-132845587D01*
X158813196Y-132737012D01*
X158992419Y-132590841D01*
X159139837Y-132412644D01*
X159249835Y-132209206D01*
X159318224Y-131988277D01*
X159342398Y-131758273D01*
X159321437Y-131527953D01*
X159256140Y-131306091D01*
X159148993Y-131101138D01*
X159004077Y-130920899D01*
X158826913Y-130772241D01*
X158624248Y-130660825D01*
X158403802Y-130590895D01*
X158173972Y-130565116D01*
X158157427Y-130565000D01*
X157442573Y-130565000D01*
X157212405Y-130587568D01*
X156991005Y-130654413D01*
X156823564Y-130743443D01*
X156828429Y-130740355D01*
X156961215Y-130613904D01*
X157066911Y-130464070D01*
X157141492Y-130296560D01*
X157182116Y-130117754D01*
X157185040Y-129908319D01*
X157149425Y-129728448D01*
X157079550Y-129558920D01*
X156978079Y-129406193D01*
X156848875Y-129276084D01*
X156696860Y-129173549D01*
X156527825Y-129102493D01*
X156348207Y-129065623D01*
X156164849Y-129064343D01*
X155984733Y-129098701D01*
X155814722Y-129167390D01*
X155661291Y-129267793D01*
X155530283Y-129396086D01*
X155426689Y-129547381D01*
X155354454Y-129715916D01*
X155316331Y-129895272D01*
X155313771Y-130078617D01*
X108914226Y-130078617D01*
X108373528Y-129078617D01*
X136563771Y-129078617D01*
X136596872Y-129258968D01*
X136664372Y-129429454D01*
X136763701Y-129583583D01*
X136891076Y-129715484D01*
X137041644Y-129820131D01*
X137209671Y-129893540D01*
X137388757Y-129932915D01*
X137572079Y-129936755D01*
X137752657Y-129904914D01*
X137923610Y-129838606D01*
X138078429Y-129740355D01*
X138211215Y-129613904D01*
X138316911Y-129464070D01*
X138391492Y-129296560D01*
X138432116Y-129117754D01*
X138435040Y-128908319D01*
X138399425Y-128728448D01*
X138329550Y-128558920D01*
X138228079Y-128406193D01*
X138098875Y-128276084D01*
X137946860Y-128173549D01*
X137777825Y-128102493D01*
X137598207Y-128065623D01*
X137414849Y-128064343D01*
X137234733Y-128098701D01*
X137064722Y-128167390D01*
X136911291Y-128267793D01*
X136780283Y-128396086D01*
X136676689Y-128547381D01*
X136604454Y-128715916D01*
X136566331Y-128895272D01*
X136563771Y-129078617D01*
X108373528Y-129078617D01*
X108320341Y-128980250D01*
X108285629Y-128928787D01*
X108251629Y-128876830D01*
X108245584Y-128869418D01*
X107312559Y-127741584D01*
X107268505Y-127697836D01*
X107225066Y-127653478D01*
X107217697Y-127647382D01*
X106083377Y-126722254D01*
X106031674Y-126687903D01*
X105980438Y-126652821D01*
X105972025Y-126648272D01*
X104679616Y-125961086D01*
X104622194Y-125937418D01*
X104565151Y-125912970D01*
X104556015Y-125910141D01*
X103154745Y-125487072D01*
X103093812Y-125475007D01*
X103033114Y-125462105D01*
X103023602Y-125461105D01*
X101566844Y-125318269D01*
X101538111Y-125318269D01*
X101509564Y-125315067D01*
X101500000Y-125315000D01*
X96685000Y-125315000D01*
X96685000Y-125187942D01*
X115261862Y-125187942D01*
X115340992Y-125619086D01*
X115502357Y-126026649D01*
X115739813Y-126395107D01*
X116044313Y-126710426D01*
X116404260Y-126960596D01*
X116805943Y-127136087D01*
X117234063Y-127230215D01*
X117672312Y-127239395D01*
X118103998Y-127163278D01*
X118512678Y-127004761D01*
X118882785Y-126769884D01*
X119200222Y-126467592D01*
X119452899Y-126109401D01*
X119631190Y-125708952D01*
X119728305Y-125281500D01*
X119728351Y-125278166D01*
X167901439Y-125278166D01*
X167936550Y-125491588D01*
X168140826Y-125582458D01*
X168358905Y-125631731D01*
X168582406Y-125637511D01*
X168802740Y-125599577D01*
X169011440Y-125519387D01*
X169063450Y-125491588D01*
X169098561Y-125278166D01*
X169008337Y-125187942D01*
X190261862Y-125187942D01*
X190340992Y-125619086D01*
X190502357Y-126026649D01*
X190739813Y-126395107D01*
X191044313Y-126710426D01*
X191404260Y-126960596D01*
X191805943Y-127136087D01*
X192234063Y-127230215D01*
X192672312Y-127239395D01*
X193103998Y-127163278D01*
X193512678Y-127004761D01*
X193882785Y-126769884D01*
X194200222Y-126467592D01*
X194452899Y-126109401D01*
X194631190Y-125708952D01*
X194728305Y-125281500D01*
X194735296Y-124780827D01*
X194650154Y-124350830D01*
X194483114Y-123945560D01*
X194240537Y-123580453D01*
X193931664Y-123269416D01*
X193568259Y-123024296D01*
X193164165Y-122854430D01*
X192734772Y-122766289D01*
X192296438Y-122763229D01*
X191865857Y-122845366D01*
X191459430Y-123009573D01*
X191092638Y-123249595D01*
X190779453Y-123556289D01*
X190531802Y-123917974D01*
X190359119Y-124320873D01*
X190267982Y-124749639D01*
X190261862Y-125187942D01*
X169008337Y-125187942D01*
X168500000Y-124679605D01*
X167901439Y-125278166D01*
X119728351Y-125278166D01*
X119735296Y-124780827D01*
X119696008Y-124582406D01*
X167362489Y-124582406D01*
X167400423Y-124802740D01*
X167480613Y-125011440D01*
X167508412Y-125063450D01*
X167721834Y-125098561D01*
X168320395Y-124500000D01*
X168679605Y-124500000D01*
X169278166Y-125098561D01*
X169491588Y-125063450D01*
X169582458Y-124859174D01*
X169631731Y-124641095D01*
X169637511Y-124417594D01*
X169599577Y-124197260D01*
X169519387Y-123988560D01*
X169491588Y-123936550D01*
X169278166Y-123901439D01*
X168679605Y-124500000D01*
X168320395Y-124500000D01*
X167721834Y-123901439D01*
X167508412Y-123936550D01*
X167417542Y-124140826D01*
X167368269Y-124358905D01*
X167362489Y-124582406D01*
X119696008Y-124582406D01*
X119650154Y-124350830D01*
X119483114Y-123945560D01*
X119334471Y-123721834D01*
X167901439Y-123721834D01*
X168500000Y-124320395D01*
X169098561Y-123721834D01*
X169063450Y-123508412D01*
X168859174Y-123417542D01*
X168641095Y-123368269D01*
X168417594Y-123362489D01*
X168197260Y-123400423D01*
X167988560Y-123480613D01*
X167936550Y-123508412D01*
X167901439Y-123721834D01*
X119334471Y-123721834D01*
X119240537Y-123580453D01*
X118931664Y-123269416D01*
X118568259Y-123024296D01*
X118164165Y-122854430D01*
X117734772Y-122766289D01*
X117296438Y-122763229D01*
X116865857Y-122845366D01*
X116459430Y-123009573D01*
X116092638Y-123249595D01*
X115779453Y-123556289D01*
X115531802Y-123917974D01*
X115359119Y-124320873D01*
X115267982Y-124749639D01*
X115261862Y-125187942D01*
X96685000Y-125187942D01*
X96685000Y-120078617D01*
X148063771Y-120078617D01*
X148096872Y-120258968D01*
X148164372Y-120429454D01*
X148263701Y-120583583D01*
X148391076Y-120715484D01*
X148541644Y-120820131D01*
X148709671Y-120893540D01*
X148888757Y-120932915D01*
X149072079Y-120936755D01*
X149252657Y-120904914D01*
X149423610Y-120838606D01*
X149578429Y-120740355D01*
X149711215Y-120613904D01*
X149816911Y-120464070D01*
X149891492Y-120296560D01*
X149932116Y-120117754D01*
X149932662Y-120078617D01*
X153063771Y-120078617D01*
X153096872Y-120258968D01*
X153164372Y-120429454D01*
X153263701Y-120583583D01*
X153391076Y-120715484D01*
X153541644Y-120820131D01*
X153709671Y-120893540D01*
X153888757Y-120932915D01*
X154072079Y-120936755D01*
X154252657Y-120904914D01*
X154423610Y-120838606D01*
X154578429Y-120740355D01*
X154711215Y-120613904D01*
X154816911Y-120464070D01*
X154891492Y-120296560D01*
X154932116Y-120117754D01*
X154932662Y-120078617D01*
X155563771Y-120078617D01*
X155596872Y-120258968D01*
X155664372Y-120429454D01*
X155763701Y-120583583D01*
X155891076Y-120715484D01*
X156041644Y-120820131D01*
X156209671Y-120893540D01*
X156388757Y-120932915D01*
X156572079Y-120936755D01*
X156752657Y-120904914D01*
X156923610Y-120838606D01*
X157078429Y-120740355D01*
X157211215Y-120613904D01*
X157316911Y-120464070D01*
X157391492Y-120296560D01*
X157432116Y-120117754D01*
X157432662Y-120078617D01*
X160563771Y-120078617D01*
X160596872Y-120258968D01*
X160664372Y-120429454D01*
X160763701Y-120583583D01*
X160891076Y-120715484D01*
X161041644Y-120820131D01*
X161209671Y-120893540D01*
X161388757Y-120932915D01*
X161572079Y-120936755D01*
X161752657Y-120904914D01*
X161923610Y-120838606D01*
X162078429Y-120740355D01*
X162211215Y-120613904D01*
X162316911Y-120464070D01*
X162391492Y-120296560D01*
X162432116Y-120117754D01*
X162432662Y-120078617D01*
X176563771Y-120078617D01*
X176596872Y-120258968D01*
X176664372Y-120429454D01*
X176763701Y-120583583D01*
X176891076Y-120715484D01*
X177041644Y-120820131D01*
X177209671Y-120893540D01*
X177388757Y-120932915D01*
X177572079Y-120936755D01*
X177752657Y-120904914D01*
X177923610Y-120838606D01*
X178078429Y-120740355D01*
X178211215Y-120613904D01*
X178316911Y-120464070D01*
X178391492Y-120296560D01*
X178432116Y-120117754D01*
X178432662Y-120078617D01*
X181563771Y-120078617D01*
X181596872Y-120258968D01*
X181664372Y-120429454D01*
X181763701Y-120583583D01*
X181891076Y-120715484D01*
X182041644Y-120820131D01*
X182209671Y-120893540D01*
X182388757Y-120932915D01*
X182572079Y-120936755D01*
X182752657Y-120904914D01*
X182923610Y-120838606D01*
X183078429Y-120740355D01*
X183211215Y-120613904D01*
X183316911Y-120464070D01*
X183391492Y-120296560D01*
X183432116Y-120117754D01*
X183435040Y-119908319D01*
X183399425Y-119728448D01*
X183329550Y-119558920D01*
X183228079Y-119406193D01*
X183098875Y-119276084D01*
X182946860Y-119173549D01*
X182777825Y-119102493D01*
X182598207Y-119065623D01*
X182414849Y-119064343D01*
X182234733Y-119098701D01*
X182064722Y-119167390D01*
X181911291Y-119267793D01*
X181780283Y-119396086D01*
X181676689Y-119547381D01*
X181604454Y-119715916D01*
X181566331Y-119895272D01*
X181563771Y-120078617D01*
X178432662Y-120078617D01*
X178435040Y-119908319D01*
X178399425Y-119728448D01*
X178329550Y-119558920D01*
X178228079Y-119406193D01*
X178098875Y-119276084D01*
X177946860Y-119173549D01*
X177777825Y-119102493D01*
X177598207Y-119065623D01*
X177414849Y-119064343D01*
X177234733Y-119098701D01*
X177064722Y-119167390D01*
X176911291Y-119267793D01*
X176780283Y-119396086D01*
X176676689Y-119547381D01*
X176604454Y-119715916D01*
X176566331Y-119895272D01*
X176563771Y-120078617D01*
X162432662Y-120078617D01*
X162435040Y-119908319D01*
X162399425Y-119728448D01*
X162329550Y-119558920D01*
X162228079Y-119406193D01*
X162098875Y-119276084D01*
X161946860Y-119173549D01*
X161777825Y-119102493D01*
X161598207Y-119065623D01*
X161414849Y-119064343D01*
X161234733Y-119098701D01*
X161064722Y-119167390D01*
X160911291Y-119267793D01*
X160780283Y-119396086D01*
X160676689Y-119547381D01*
X160604454Y-119715916D01*
X160566331Y-119895272D01*
X160563771Y-120078617D01*
X157432662Y-120078617D01*
X157435040Y-119908319D01*
X157399425Y-119728448D01*
X157329550Y-119558920D01*
X157228079Y-119406193D01*
X157098875Y-119276084D01*
X156946860Y-119173549D01*
X156777825Y-119102493D01*
X156598207Y-119065623D01*
X156414849Y-119064343D01*
X156234733Y-119098701D01*
X156064722Y-119167390D01*
X155911291Y-119267793D01*
X155780283Y-119396086D01*
X155676689Y-119547381D01*
X155604454Y-119715916D01*
X155566331Y-119895272D01*
X155563771Y-120078617D01*
X154932662Y-120078617D01*
X154935040Y-119908319D01*
X154899425Y-119728448D01*
X154829550Y-119558920D01*
X154728079Y-119406193D01*
X154598875Y-119276084D01*
X154446860Y-119173549D01*
X154277825Y-119102493D01*
X154098207Y-119065623D01*
X153914849Y-119064343D01*
X153734733Y-119098701D01*
X153564722Y-119167390D01*
X153411291Y-119267793D01*
X153280283Y-119396086D01*
X153176689Y-119547381D01*
X153104454Y-119715916D01*
X153066331Y-119895272D01*
X153063771Y-120078617D01*
X149932662Y-120078617D01*
X149935040Y-119908319D01*
X149899425Y-119728448D01*
X149829550Y-119558920D01*
X149728079Y-119406193D01*
X149598875Y-119276084D01*
X149446860Y-119173549D01*
X149277825Y-119102493D01*
X149098207Y-119065623D01*
X148914849Y-119064343D01*
X148734733Y-119098701D01*
X148564722Y-119167390D01*
X148411291Y-119267793D01*
X148280283Y-119396086D01*
X148176689Y-119547381D01*
X148104454Y-119715916D01*
X148066331Y-119895272D01*
X148063771Y-120078617D01*
X96685000Y-120078617D01*
X96685000Y-118578617D01*
X136563771Y-118578617D01*
X136596872Y-118758968D01*
X136664372Y-118929454D01*
X136763701Y-119083583D01*
X136891076Y-119215484D01*
X137041644Y-119320131D01*
X137209671Y-119393540D01*
X137388757Y-119432915D01*
X137572079Y-119436755D01*
X137752657Y-119404914D01*
X137923610Y-119338606D01*
X138078429Y-119240355D01*
X138211215Y-119113904D01*
X138316911Y-118964070D01*
X138391492Y-118796560D01*
X138432116Y-118617754D01*
X138432662Y-118578617D01*
X168563771Y-118578617D01*
X168596872Y-118758968D01*
X168664372Y-118929454D01*
X168763701Y-119083583D01*
X168891076Y-119215484D01*
X169041644Y-119320131D01*
X169209671Y-119393540D01*
X169388757Y-119432915D01*
X169572079Y-119436755D01*
X169752657Y-119404914D01*
X169923610Y-119338606D01*
X170078429Y-119240355D01*
X170211215Y-119113904D01*
X170316911Y-118964070D01*
X170391492Y-118796560D01*
X170432116Y-118617754D01*
X170435040Y-118408319D01*
X170399425Y-118228448D01*
X170329550Y-118058920D01*
X170228079Y-117906193D01*
X170098875Y-117776084D01*
X169946860Y-117673549D01*
X169777825Y-117602493D01*
X169598207Y-117565623D01*
X169414849Y-117564343D01*
X169234733Y-117598701D01*
X169064722Y-117667390D01*
X168911291Y-117767793D01*
X168780283Y-117896086D01*
X168676689Y-118047381D01*
X168604454Y-118215916D01*
X168566331Y-118395272D01*
X168563771Y-118578617D01*
X138432662Y-118578617D01*
X138435040Y-118408319D01*
X138399425Y-118228448D01*
X138329550Y-118058920D01*
X138228079Y-117906193D01*
X138098875Y-117776084D01*
X137946860Y-117673549D01*
X137777825Y-117602493D01*
X137598207Y-117565623D01*
X137414849Y-117564343D01*
X137234733Y-117598701D01*
X137064722Y-117667390D01*
X136911291Y-117767793D01*
X136780283Y-117896086D01*
X136676689Y-118047381D01*
X136604454Y-118215916D01*
X136566331Y-118395272D01*
X136563771Y-118578617D01*
X96685000Y-118578617D01*
X96685000Y-117078617D01*
X122063771Y-117078617D01*
X122096872Y-117258968D01*
X122164372Y-117429454D01*
X122263701Y-117583583D01*
X122391076Y-117715484D01*
X122541644Y-117820131D01*
X122709671Y-117893540D01*
X122888757Y-117932915D01*
X123072079Y-117936755D01*
X123252657Y-117904914D01*
X123423610Y-117838606D01*
X123578429Y-117740355D01*
X123711215Y-117613904D01*
X123816911Y-117464070D01*
X123891492Y-117296560D01*
X123932116Y-117117754D01*
X123932662Y-117078617D01*
X197063771Y-117078617D01*
X197096872Y-117258968D01*
X197164372Y-117429454D01*
X197263701Y-117583583D01*
X197391076Y-117715484D01*
X197541644Y-117820131D01*
X197709671Y-117893540D01*
X197888757Y-117932915D01*
X198072079Y-117936755D01*
X198252657Y-117904914D01*
X198423610Y-117838606D01*
X198578429Y-117740355D01*
X198711215Y-117613904D01*
X198816911Y-117464070D01*
X198891492Y-117296560D01*
X198932116Y-117117754D01*
X198935040Y-116908319D01*
X198899425Y-116728448D01*
X198829550Y-116558920D01*
X198728079Y-116406193D01*
X198598875Y-116276084D01*
X198446860Y-116173549D01*
X198277825Y-116102493D01*
X198098207Y-116065623D01*
X197914849Y-116064343D01*
X197734733Y-116098701D01*
X197564722Y-116167390D01*
X197411291Y-116267793D01*
X197280283Y-116396086D01*
X197176689Y-116547381D01*
X197104454Y-116715916D01*
X197066331Y-116895272D01*
X197063771Y-117078617D01*
X123932662Y-117078617D01*
X123935040Y-116908319D01*
X123899425Y-116728448D01*
X123829550Y-116558920D01*
X123728079Y-116406193D01*
X123598875Y-116276084D01*
X123446860Y-116173549D01*
X123277825Y-116102493D01*
X123098207Y-116065623D01*
X122914849Y-116064343D01*
X122734733Y-116098701D01*
X122564722Y-116167390D01*
X122411291Y-116267793D01*
X122280283Y-116396086D01*
X122176689Y-116547381D01*
X122104454Y-116715916D01*
X122066331Y-116895272D01*
X122063771Y-117078617D01*
X96685000Y-117078617D01*
X96685000Y-116078617D01*
X98063771Y-116078617D01*
X98096872Y-116258968D01*
X98164372Y-116429454D01*
X98263701Y-116583583D01*
X98391076Y-116715484D01*
X98541644Y-116820131D01*
X98709671Y-116893540D01*
X98888757Y-116932915D01*
X99072079Y-116936755D01*
X99252657Y-116904914D01*
X99423610Y-116838606D01*
X99578429Y-116740355D01*
X99711215Y-116613904D01*
X99816911Y-116464070D01*
X99891492Y-116296560D01*
X99932116Y-116117754D01*
X99932662Y-116078617D01*
X101563771Y-116078617D01*
X101596872Y-116258968D01*
X101664372Y-116429454D01*
X101763701Y-116583583D01*
X101891076Y-116715484D01*
X102041644Y-116820131D01*
X102209671Y-116893540D01*
X102388757Y-116932915D01*
X102572079Y-116936755D01*
X102752657Y-116904914D01*
X102923610Y-116838606D01*
X103078429Y-116740355D01*
X103211215Y-116613904D01*
X103316911Y-116464070D01*
X103391492Y-116296560D01*
X103432116Y-116117754D01*
X103432662Y-116078617D01*
X106563771Y-116078617D01*
X106596872Y-116258968D01*
X106664372Y-116429454D01*
X106763701Y-116583583D01*
X106891076Y-116715484D01*
X107041644Y-116820131D01*
X107209671Y-116893540D01*
X107388757Y-116932915D01*
X107572079Y-116936755D01*
X107752657Y-116904914D01*
X107923610Y-116838606D01*
X108078429Y-116740355D01*
X108211215Y-116613904D01*
X108316911Y-116464070D01*
X108391492Y-116296560D01*
X108432116Y-116117754D01*
X108435040Y-115908319D01*
X108399425Y-115728448D01*
X108329550Y-115558920D01*
X108228079Y-115406193D01*
X108098875Y-115276084D01*
X107946860Y-115173549D01*
X107777825Y-115102493D01*
X107598207Y-115065623D01*
X107414849Y-115064343D01*
X107234733Y-115098701D01*
X107064722Y-115167390D01*
X106911291Y-115267793D01*
X106780283Y-115396086D01*
X106676689Y-115547381D01*
X106604454Y-115715916D01*
X106566331Y-115895272D01*
X106563771Y-116078617D01*
X103432662Y-116078617D01*
X103435040Y-115908319D01*
X103399425Y-115728448D01*
X103329550Y-115558920D01*
X103228079Y-115406193D01*
X103098875Y-115276084D01*
X102946860Y-115173549D01*
X102777825Y-115102493D01*
X102598207Y-115065623D01*
X102414849Y-115064343D01*
X102234733Y-115098701D01*
X102064722Y-115167390D01*
X101911291Y-115267793D01*
X101780283Y-115396086D01*
X101676689Y-115547381D01*
X101604454Y-115715916D01*
X101566331Y-115895272D01*
X101563771Y-116078617D01*
X99932662Y-116078617D01*
X99935040Y-115908319D01*
X99899425Y-115728448D01*
X99829550Y-115558920D01*
X99728079Y-115406193D01*
X99598875Y-115276084D01*
X99446860Y-115173549D01*
X99277825Y-115102493D01*
X99098207Y-115065623D01*
X98914849Y-115064343D01*
X98734733Y-115098701D01*
X98564722Y-115167390D01*
X98411291Y-115267793D01*
X98280283Y-115396086D01*
X98176689Y-115547381D01*
X98104454Y-115715916D01*
X98066331Y-115895272D01*
X98063771Y-116078617D01*
X96685000Y-116078617D01*
X96685000Y-114150000D01*
X147431928Y-114150000D01*
X147431928Y-115850000D01*
X147439992Y-115951121D01*
X147493106Y-116122634D01*
X147591900Y-116272559D01*
X147728550Y-116389025D01*
X147892237Y-116462810D01*
X148070000Y-116488072D01*
X149770000Y-116488072D01*
X149871121Y-116480008D01*
X150042634Y-116426894D01*
X150192559Y-116328100D01*
X150309025Y-116191450D01*
X150382810Y-116027763D01*
X150383171Y-116025224D01*
X150406287Y-116053567D01*
X150629599Y-116238306D01*
X150884539Y-116376152D01*
X151161399Y-116461854D01*
X151449633Y-116492149D01*
X151738261Y-116465882D01*
X152016291Y-116384053D01*
X152273131Y-116249780D01*
X152499000Y-116068177D01*
X152685294Y-115846161D01*
X152729498Y-115765753D01*
X152763112Y-115828971D01*
X152946287Y-116053567D01*
X153169599Y-116238306D01*
X153424539Y-116376152D01*
X153701399Y-116461854D01*
X153989633Y-116492149D01*
X154278261Y-116465882D01*
X154556291Y-116384053D01*
X154813131Y-116249780D01*
X155039000Y-116068177D01*
X155225294Y-115846161D01*
X155269498Y-115765753D01*
X155303112Y-115828971D01*
X155486287Y-116053567D01*
X155709599Y-116238306D01*
X155964539Y-116376152D01*
X156241399Y-116461854D01*
X156529633Y-116492149D01*
X156818261Y-116465882D01*
X157096291Y-116384053D01*
X157353131Y-116249780D01*
X157579000Y-116068177D01*
X157765294Y-115846161D01*
X157809498Y-115765753D01*
X157843112Y-115828971D01*
X158026287Y-116053567D01*
X158249599Y-116238306D01*
X158504539Y-116376152D01*
X158781399Y-116461854D01*
X159069633Y-116492149D01*
X159358261Y-116465882D01*
X159636291Y-116384053D01*
X159893131Y-116249780D01*
X160119000Y-116068177D01*
X160305294Y-115846161D01*
X160349498Y-115765753D01*
X160383112Y-115828971D01*
X160566287Y-116053567D01*
X160789599Y-116238306D01*
X161044539Y-116376152D01*
X161321399Y-116461854D01*
X161609633Y-116492149D01*
X161898261Y-116465882D01*
X162176291Y-116384053D01*
X162433131Y-116249780D01*
X162659000Y-116068177D01*
X162845294Y-115846161D01*
X162984916Y-115592189D01*
X163072549Y-115315934D01*
X163104855Y-115027919D01*
X163105000Y-115007185D01*
X163105000Y-114992815D01*
X163076718Y-114704377D01*
X162992951Y-114426925D01*
X162856888Y-114171029D01*
X162673713Y-113946433D01*
X162450401Y-113761694D01*
X162195461Y-113623848D01*
X161918601Y-113538146D01*
X161630367Y-113507851D01*
X161341739Y-113534118D01*
X161063709Y-113615947D01*
X160806869Y-113750220D01*
X160581000Y-113931823D01*
X160394706Y-114153839D01*
X160350502Y-114234247D01*
X160316888Y-114171029D01*
X160133713Y-113946433D01*
X159910401Y-113761694D01*
X159655461Y-113623848D01*
X159378601Y-113538146D01*
X159090367Y-113507851D01*
X158801739Y-113534118D01*
X158523709Y-113615947D01*
X158266869Y-113750220D01*
X158041000Y-113931823D01*
X157854706Y-114153839D01*
X157810502Y-114234247D01*
X157776888Y-114171029D01*
X157593713Y-113946433D01*
X157370401Y-113761694D01*
X157115461Y-113623848D01*
X156838601Y-113538146D01*
X156550367Y-113507851D01*
X156261739Y-113534118D01*
X155983709Y-113615947D01*
X155726869Y-113750220D01*
X155501000Y-113931823D01*
X155314706Y-114153839D01*
X155270502Y-114234247D01*
X155236888Y-114171029D01*
X155053713Y-113946433D01*
X154830401Y-113761694D01*
X154575461Y-113623848D01*
X154298601Y-113538146D01*
X154010367Y-113507851D01*
X153721739Y-113534118D01*
X153443709Y-113615947D01*
X153186869Y-113750220D01*
X152961000Y-113931823D01*
X152774706Y-114153839D01*
X152730502Y-114234247D01*
X152696888Y-114171029D01*
X152513713Y-113946433D01*
X152290401Y-113761694D01*
X152035461Y-113623848D01*
X151758601Y-113538146D01*
X151470367Y-113507851D01*
X151181739Y-113534118D01*
X150903709Y-113615947D01*
X150646869Y-113750220D01*
X150421000Y-113931823D01*
X150379189Y-113981651D01*
X150346894Y-113877366D01*
X150248100Y-113727441D01*
X150111450Y-113610975D01*
X149947763Y-113537190D01*
X149770000Y-113511928D01*
X148070000Y-113511928D01*
X147968879Y-113519992D01*
X147797366Y-113573106D01*
X147647441Y-113671900D01*
X147530975Y-113808550D01*
X147457190Y-113972237D01*
X147431928Y-114150000D01*
X96685000Y-114150000D01*
X96685000Y-112595434D01*
X167363508Y-112595434D01*
X167403689Y-112814362D01*
X167485628Y-113021317D01*
X167606204Y-113208414D01*
X167760824Y-113368528D01*
X167943600Y-113495561D01*
X168147569Y-113584672D01*
X168364961Y-113632469D01*
X168587497Y-113637131D01*
X168806701Y-113598479D01*
X169014222Y-113517987D01*
X169202157Y-113398720D01*
X169363347Y-113245221D01*
X169491652Y-113063337D01*
X169582186Y-112859995D01*
X169631499Y-112642942D01*
X169635049Y-112388707D01*
X169591815Y-112170362D01*
X169554001Y-112078617D01*
X174063771Y-112078617D01*
X174096872Y-112258968D01*
X174164372Y-112429454D01*
X174263701Y-112583583D01*
X174391076Y-112715484D01*
X174541644Y-112820131D01*
X174709671Y-112893540D01*
X174888757Y-112932915D01*
X175072079Y-112936755D01*
X175252657Y-112904914D01*
X175423610Y-112838606D01*
X175578429Y-112740355D01*
X175711215Y-112613904D01*
X175816911Y-112464070D01*
X175891492Y-112296560D01*
X175932116Y-112117754D01*
X175932662Y-112078617D01*
X176563771Y-112078617D01*
X176596872Y-112258968D01*
X176664372Y-112429454D01*
X176763701Y-112583583D01*
X176891076Y-112715484D01*
X177041644Y-112820131D01*
X177209671Y-112893540D01*
X177388757Y-112932915D01*
X177572079Y-112936755D01*
X177752657Y-112904914D01*
X177923610Y-112838606D01*
X178078429Y-112740355D01*
X178211215Y-112613904D01*
X178316911Y-112464070D01*
X178391492Y-112296560D01*
X178432116Y-112117754D01*
X178435040Y-111908319D01*
X178399425Y-111728448D01*
X178329550Y-111558920D01*
X178228079Y-111406193D01*
X178098875Y-111276084D01*
X177946860Y-111173549D01*
X177777825Y-111102493D01*
X177598207Y-111065623D01*
X177414849Y-111064343D01*
X177234733Y-111098701D01*
X177064722Y-111167390D01*
X176911291Y-111267793D01*
X176780283Y-111396086D01*
X176676689Y-111547381D01*
X176604454Y-111715916D01*
X176566331Y-111895272D01*
X176563771Y-112078617D01*
X175932662Y-112078617D01*
X175935040Y-111908319D01*
X175899425Y-111728448D01*
X175829550Y-111558920D01*
X175728079Y-111406193D01*
X175598875Y-111276084D01*
X175446860Y-111173549D01*
X175277825Y-111102493D01*
X175098207Y-111065623D01*
X174914849Y-111064343D01*
X174734733Y-111098701D01*
X174564722Y-111167390D01*
X174411291Y-111267793D01*
X174280283Y-111396086D01*
X174176689Y-111547381D01*
X174104454Y-111715916D01*
X174066331Y-111895272D01*
X174063771Y-112078617D01*
X169554001Y-112078617D01*
X169506995Y-111964571D01*
X169383818Y-111779176D01*
X169226977Y-111621236D01*
X169042446Y-111496768D01*
X168837253Y-111410513D01*
X168619214Y-111365756D01*
X168396634Y-111364202D01*
X168177992Y-111405910D01*
X167971615Y-111489292D01*
X167785363Y-111611171D01*
X167626332Y-111766906D01*
X167500579Y-111950564D01*
X167412894Y-112155150D01*
X167366616Y-112372871D01*
X167363508Y-112595434D01*
X96685000Y-112595434D01*
X96685000Y-108078617D01*
X160563771Y-108078617D01*
X160596872Y-108258968D01*
X160664372Y-108429454D01*
X160763701Y-108583583D01*
X160891076Y-108715484D01*
X161041644Y-108820131D01*
X161209671Y-108893540D01*
X161388757Y-108932915D01*
X161572079Y-108936755D01*
X161752657Y-108904914D01*
X161923610Y-108838606D01*
X162078429Y-108740355D01*
X162211215Y-108613904D01*
X162316911Y-108464070D01*
X162391492Y-108296560D01*
X162432116Y-108117754D01*
X162435040Y-107908319D01*
X162399425Y-107728448D01*
X162329550Y-107558920D01*
X162228079Y-107406193D01*
X162098875Y-107276084D01*
X161946860Y-107173549D01*
X161777825Y-107102493D01*
X161598207Y-107065623D01*
X161414849Y-107064343D01*
X161234733Y-107098701D01*
X161064722Y-107167390D01*
X160911291Y-107267793D01*
X160780283Y-107396086D01*
X160676689Y-107547381D01*
X160604454Y-107715916D01*
X160566331Y-107895272D01*
X160563771Y-108078617D01*
X96685000Y-108078617D01*
X96685000Y-107078617D01*
X101563771Y-107078617D01*
X101596872Y-107258968D01*
X101664372Y-107429454D01*
X101763701Y-107583583D01*
X101891076Y-107715484D01*
X102041644Y-107820131D01*
X102209671Y-107893540D01*
X102388757Y-107932915D01*
X102572079Y-107936755D01*
X102752657Y-107904914D01*
X102923610Y-107838606D01*
X103078429Y-107740355D01*
X103211215Y-107613904D01*
X103316911Y-107464070D01*
X103391492Y-107296560D01*
X103432116Y-107117754D01*
X103432662Y-107078617D01*
X104063771Y-107078617D01*
X104096872Y-107258968D01*
X104164372Y-107429454D01*
X104263701Y-107583583D01*
X104391076Y-107715484D01*
X104541644Y-107820131D01*
X104709671Y-107893540D01*
X104888757Y-107932915D01*
X105072079Y-107936755D01*
X105252657Y-107904914D01*
X105423610Y-107838606D01*
X105578429Y-107740355D01*
X105711215Y-107613904D01*
X105816911Y-107464070D01*
X105891492Y-107296560D01*
X105932116Y-107117754D01*
X105935040Y-106908319D01*
X105899425Y-106728448D01*
X105829550Y-106558920D01*
X105728079Y-106406193D01*
X105598875Y-106276084D01*
X105572800Y-106258496D01*
X166612522Y-106258496D01*
X166679254Y-106622091D01*
X166815338Y-106965799D01*
X167015590Y-107276529D01*
X167272382Y-107542446D01*
X167575935Y-107753420D01*
X167914684Y-107901416D01*
X168275729Y-107980797D01*
X168645315Y-107988539D01*
X169009367Y-107924346D01*
X169354017Y-107790666D01*
X169666137Y-107592588D01*
X169933840Y-107337658D01*
X170146929Y-107035586D01*
X170297286Y-106697877D01*
X170379185Y-106337396D01*
X170380286Y-106258496D01*
X179412522Y-106258496D01*
X179479254Y-106622091D01*
X179615338Y-106965799D01*
X179815590Y-107276529D01*
X180072382Y-107542446D01*
X180375935Y-107753420D01*
X180714684Y-107901416D01*
X181075729Y-107980797D01*
X181445315Y-107988539D01*
X181809367Y-107924346D01*
X182154017Y-107790666D01*
X182466137Y-107592588D01*
X182733840Y-107337658D01*
X182946929Y-107035586D01*
X183097286Y-106697877D01*
X183179185Y-106337396D01*
X183185081Y-105915166D01*
X183113279Y-105552539D01*
X182972410Y-105210764D01*
X182767839Y-104902860D01*
X182507358Y-104640555D01*
X182200890Y-104433839D01*
X181860107Y-104290587D01*
X181497990Y-104216255D01*
X181128331Y-104213674D01*
X180765211Y-104282943D01*
X180422461Y-104421423D01*
X180113137Y-104623840D01*
X179849019Y-104882482D01*
X179640169Y-105187500D01*
X179494542Y-105527275D01*
X179417683Y-105888864D01*
X179412522Y-106258496D01*
X170380286Y-106258496D01*
X170385081Y-105915166D01*
X170313279Y-105552539D01*
X170172410Y-105210764D01*
X169967839Y-104902860D01*
X169707358Y-104640555D01*
X169400890Y-104433839D01*
X169060107Y-104290587D01*
X168697990Y-104216255D01*
X168328331Y-104213674D01*
X167965211Y-104282943D01*
X167622461Y-104421423D01*
X167313137Y-104623840D01*
X167049019Y-104882482D01*
X166840169Y-105187500D01*
X166694542Y-105527275D01*
X166617683Y-105888864D01*
X166612522Y-106258496D01*
X105572800Y-106258496D01*
X105446860Y-106173549D01*
X105277825Y-106102493D01*
X105098207Y-106065623D01*
X104914849Y-106064343D01*
X104734733Y-106098701D01*
X104564722Y-106167390D01*
X104411291Y-106267793D01*
X104280283Y-106396086D01*
X104176689Y-106547381D01*
X104104454Y-106715916D01*
X104066331Y-106895272D01*
X104063771Y-107078617D01*
X103432662Y-107078617D01*
X103435040Y-106908319D01*
X103399425Y-106728448D01*
X103329550Y-106558920D01*
X103228079Y-106406193D01*
X103098875Y-106276084D01*
X102946860Y-106173549D01*
X102777825Y-106102493D01*
X102598207Y-106065623D01*
X102414849Y-106064343D01*
X102234733Y-106098701D01*
X102064722Y-106167390D01*
X101911291Y-106267793D01*
X101780283Y-106396086D01*
X101676689Y-106547381D01*
X101604454Y-106715916D01*
X101566331Y-106895272D01*
X101563771Y-107078617D01*
X96685000Y-107078617D01*
X96685000Y-92078617D01*
X122063771Y-92078617D01*
X122096872Y-92258968D01*
X122164372Y-92429454D01*
X122263701Y-92583583D01*
X122391076Y-92715484D01*
X122541644Y-92820131D01*
X122709671Y-92893540D01*
X122888757Y-92932915D01*
X123072079Y-92936755D01*
X123252657Y-92904914D01*
X123423610Y-92838606D01*
X123578429Y-92740355D01*
X123711215Y-92613904D01*
X123816911Y-92464070D01*
X123891492Y-92296560D01*
X123932116Y-92117754D01*
X123935040Y-91908319D01*
X123899425Y-91728448D01*
X123829550Y-91558920D01*
X123728079Y-91406193D01*
X123598875Y-91276084D01*
X123446860Y-91173549D01*
X123277825Y-91102493D01*
X123098207Y-91065623D01*
X122914849Y-91064343D01*
X122734733Y-91098701D01*
X122564722Y-91167390D01*
X122411291Y-91267793D01*
X122280283Y-91396086D01*
X122176689Y-91547381D01*
X122104454Y-91715916D01*
X122066331Y-91895272D01*
X122063771Y-92078617D01*
X96685000Y-92078617D01*
X96685000Y-91078617D01*
X98063771Y-91078617D01*
X98096872Y-91258968D01*
X98164372Y-91429454D01*
X98263701Y-91583583D01*
X98391076Y-91715484D01*
X98541644Y-91820131D01*
X98709671Y-91893540D01*
X98888757Y-91932915D01*
X99072079Y-91936755D01*
X99252657Y-91904914D01*
X99423610Y-91838606D01*
X99578429Y-91740355D01*
X99711215Y-91613904D01*
X99816911Y-91464070D01*
X99891492Y-91296560D01*
X99932116Y-91117754D01*
X99932662Y-91078617D01*
X101563771Y-91078617D01*
X101596872Y-91258968D01*
X101664372Y-91429454D01*
X101763701Y-91583583D01*
X101891076Y-91715484D01*
X102041644Y-91820131D01*
X102209671Y-91893540D01*
X102388757Y-91932915D01*
X102572079Y-91936755D01*
X102752657Y-91904914D01*
X102923610Y-91838606D01*
X103078429Y-91740355D01*
X103211215Y-91613904D01*
X103316911Y-91464070D01*
X103391492Y-91296560D01*
X103432116Y-91117754D01*
X103432662Y-91078617D01*
X106563771Y-91078617D01*
X106596872Y-91258968D01*
X106664372Y-91429454D01*
X106763701Y-91583583D01*
X106891076Y-91715484D01*
X107041644Y-91820131D01*
X107209671Y-91893540D01*
X107388757Y-91932915D01*
X107572079Y-91936755D01*
X107752657Y-91904914D01*
X107923610Y-91838606D01*
X108078429Y-91740355D01*
X108211215Y-91613904D01*
X108316911Y-91464070D01*
X108391492Y-91296560D01*
X108432116Y-91117754D01*
X108435040Y-90908319D01*
X108399425Y-90728448D01*
X108329550Y-90558920D01*
X108228079Y-90406193D01*
X108098875Y-90276084D01*
X107946860Y-90173549D01*
X107777825Y-90102493D01*
X107598207Y-90065623D01*
X107414849Y-90064343D01*
X107234733Y-90098701D01*
X107064722Y-90167390D01*
X106911291Y-90267793D01*
X106780283Y-90396086D01*
X106676689Y-90547381D01*
X106604454Y-90715916D01*
X106566331Y-90895272D01*
X106563771Y-91078617D01*
X103432662Y-91078617D01*
X103435040Y-90908319D01*
X103399425Y-90728448D01*
X103329550Y-90558920D01*
X103228079Y-90406193D01*
X103098875Y-90276084D01*
X102946860Y-90173549D01*
X102777825Y-90102493D01*
X102598207Y-90065623D01*
X102414849Y-90064343D01*
X102234733Y-90098701D01*
X102064722Y-90167390D01*
X101911291Y-90267793D01*
X101780283Y-90396086D01*
X101676689Y-90547381D01*
X101604454Y-90715916D01*
X101566331Y-90895272D01*
X101563771Y-91078617D01*
X99932662Y-91078617D01*
X99935040Y-90908319D01*
X99899425Y-90728448D01*
X99829550Y-90558920D01*
X99728079Y-90406193D01*
X99598875Y-90276084D01*
X99446860Y-90173549D01*
X99277825Y-90102493D01*
X99098207Y-90065623D01*
X98914849Y-90064343D01*
X98734733Y-90098701D01*
X98564722Y-90167390D01*
X98411291Y-90267793D01*
X98280283Y-90396086D01*
X98176689Y-90547381D01*
X98104454Y-90715916D01*
X98066331Y-90895272D01*
X98063771Y-91078617D01*
X96685000Y-91078617D01*
X96685000Y-84578617D01*
X116563771Y-84578617D01*
X116596872Y-84758968D01*
X116664372Y-84929454D01*
X116763701Y-85083583D01*
X116891076Y-85215484D01*
X117041644Y-85320131D01*
X117209671Y-85393540D01*
X117388757Y-85432915D01*
X117572079Y-85436755D01*
X117752657Y-85404914D01*
X117923610Y-85338606D01*
X118078429Y-85240355D01*
X118211215Y-85113904D01*
X118236107Y-85078617D01*
X143813771Y-85078617D01*
X143846872Y-85258968D01*
X143914372Y-85429454D01*
X144013701Y-85583583D01*
X144141076Y-85715484D01*
X144291644Y-85820131D01*
X144459671Y-85893540D01*
X144638757Y-85932915D01*
X144822079Y-85936755D01*
X145002657Y-85904914D01*
X145173610Y-85838606D01*
X145328429Y-85740355D01*
X145461215Y-85613904D01*
X145566911Y-85464070D01*
X145641492Y-85296560D01*
X145682116Y-85117754D01*
X145685040Y-84908319D01*
X145649425Y-84728448D01*
X145579550Y-84558920D01*
X145478079Y-84406193D01*
X145348875Y-84276084D01*
X145196860Y-84173549D01*
X145027825Y-84102493D01*
X144848207Y-84065623D01*
X144664849Y-84064343D01*
X144484733Y-84098701D01*
X144314722Y-84167390D01*
X144161291Y-84267793D01*
X144030283Y-84396086D01*
X143926689Y-84547381D01*
X143854454Y-84715916D01*
X143816331Y-84895272D01*
X143813771Y-85078617D01*
X118236107Y-85078617D01*
X118316911Y-84964070D01*
X118391492Y-84796560D01*
X118432116Y-84617754D01*
X118435040Y-84408319D01*
X118399425Y-84228448D01*
X118329550Y-84058920D01*
X118228079Y-83906193D01*
X118098875Y-83776084D01*
X117946860Y-83673549D01*
X117777825Y-83602493D01*
X117598207Y-83565623D01*
X117414849Y-83564343D01*
X117234733Y-83598701D01*
X117064722Y-83667390D01*
X116911291Y-83767793D01*
X116780283Y-83896086D01*
X116676689Y-84047381D01*
X116604454Y-84215916D01*
X116566331Y-84395272D01*
X116563771Y-84578617D01*
X96685000Y-84578617D01*
X96685000Y-83078617D01*
X120063771Y-83078617D01*
X120096872Y-83258968D01*
X120164372Y-83429454D01*
X120263701Y-83583583D01*
X120391076Y-83715484D01*
X120541644Y-83820131D01*
X120709671Y-83893540D01*
X120888757Y-83932915D01*
X121072079Y-83936755D01*
X121252657Y-83904914D01*
X121423610Y-83838606D01*
X121578429Y-83740355D01*
X121711215Y-83613904D01*
X121816911Y-83464070D01*
X121891492Y-83296560D01*
X121932116Y-83117754D01*
X121935040Y-82908319D01*
X121899425Y-82728448D01*
X121829550Y-82558920D01*
X121728079Y-82406193D01*
X121598875Y-82276084D01*
X121446860Y-82173549D01*
X121277825Y-82102493D01*
X121098207Y-82065623D01*
X120914849Y-82064343D01*
X120734733Y-82098701D01*
X120564722Y-82167390D01*
X120411291Y-82267793D01*
X120280283Y-82396086D01*
X120176689Y-82547381D01*
X120104454Y-82715916D01*
X120066331Y-82895272D01*
X120063771Y-83078617D01*
X96685000Y-83078617D01*
X96685000Y-82078617D01*
X101563771Y-82078617D01*
X101596872Y-82258968D01*
X101664372Y-82429454D01*
X101763701Y-82583583D01*
X101891076Y-82715484D01*
X102041644Y-82820131D01*
X102209671Y-82893540D01*
X102388757Y-82932915D01*
X102572079Y-82936755D01*
X102752657Y-82904914D01*
X102923610Y-82838606D01*
X103078429Y-82740355D01*
X103211215Y-82613904D01*
X103316911Y-82464070D01*
X103391492Y-82296560D01*
X103432116Y-82117754D01*
X103432662Y-82078617D01*
X104063771Y-82078617D01*
X104096872Y-82258968D01*
X104164372Y-82429454D01*
X104263701Y-82583583D01*
X104391076Y-82715484D01*
X104541644Y-82820131D01*
X104709671Y-82893540D01*
X104888757Y-82932915D01*
X105072079Y-82936755D01*
X105252657Y-82904914D01*
X105423610Y-82838606D01*
X105578429Y-82740355D01*
X105711215Y-82613904D01*
X105816911Y-82464070D01*
X105891492Y-82296560D01*
X105932116Y-82117754D01*
X105935040Y-81908319D01*
X105899425Y-81728448D01*
X105829550Y-81558920D01*
X105728079Y-81406193D01*
X105598875Y-81276084D01*
X105446860Y-81173549D01*
X105277825Y-81102493D01*
X105098207Y-81065623D01*
X104914849Y-81064343D01*
X104734733Y-81098701D01*
X104564722Y-81167390D01*
X104411291Y-81267793D01*
X104280283Y-81396086D01*
X104176689Y-81547381D01*
X104104454Y-81715916D01*
X104066331Y-81895272D01*
X104063771Y-82078617D01*
X103432662Y-82078617D01*
X103435040Y-81908319D01*
X103399425Y-81728448D01*
X103329550Y-81558920D01*
X103228079Y-81406193D01*
X103098875Y-81276084D01*
X102946860Y-81173549D01*
X102777825Y-81102493D01*
X102598207Y-81065623D01*
X102414849Y-81064343D01*
X102234733Y-81098701D01*
X102064722Y-81167390D01*
X101911291Y-81267793D01*
X101780283Y-81396086D01*
X101676689Y-81547381D01*
X101604454Y-81715916D01*
X101566331Y-81895272D01*
X101563771Y-82078617D01*
X96685000Y-82078617D01*
X96685000Y-77850000D01*
X128461928Y-77850000D01*
X128461928Y-79650000D01*
X128469992Y-79751121D01*
X128523106Y-79922634D01*
X128621900Y-80072559D01*
X128758550Y-80189025D01*
X128876143Y-80242032D01*
X128818432Y-80298547D01*
X128648361Y-80546930D01*
X128529773Y-80823617D01*
X128467186Y-81118067D01*
X128462983Y-81419067D01*
X128517324Y-81715150D01*
X128628140Y-81995040D01*
X128791210Y-82248075D01*
X129000322Y-82464617D01*
X129247512Y-82636419D01*
X129523364Y-82756935D01*
X129817371Y-82821577D01*
X130118334Y-82827881D01*
X130414789Y-82775608D01*
X130695446Y-82666748D01*
X130834318Y-82578617D01*
X149063771Y-82578617D01*
X149096872Y-82758968D01*
X149164372Y-82929454D01*
X149263701Y-83083583D01*
X149391076Y-83215484D01*
X149541644Y-83320131D01*
X149709671Y-83393540D01*
X149888757Y-83432915D01*
X150072079Y-83436755D01*
X150252657Y-83404914D01*
X150423610Y-83338606D01*
X150578429Y-83240355D01*
X150711215Y-83113904D01*
X150816911Y-82964070D01*
X150891492Y-82796560D01*
X150932116Y-82617754D01*
X150935040Y-82408319D01*
X150899425Y-82228448D01*
X150829550Y-82058920D01*
X150728079Y-81906193D01*
X150598875Y-81776084D01*
X150446860Y-81673549D01*
X150277825Y-81602493D01*
X150098207Y-81565623D01*
X149914849Y-81564343D01*
X149734733Y-81598701D01*
X149564722Y-81667390D01*
X149411291Y-81767793D01*
X149280283Y-81896086D01*
X149176689Y-82047381D01*
X149104454Y-82215916D01*
X149066331Y-82395272D01*
X149063771Y-82578617D01*
X130834318Y-82578617D01*
X130949613Y-82505449D01*
X131167610Y-82297854D01*
X131341132Y-82051869D01*
X131463572Y-81776866D01*
X131530265Y-81483317D01*
X131535066Y-81139486D01*
X131476595Y-80844190D01*
X131361882Y-80565874D01*
X131195295Y-80315141D01*
X131122943Y-80242282D01*
X131172634Y-80226894D01*
X131276431Y-80158496D01*
X168112522Y-80158496D01*
X168179254Y-80522091D01*
X168315338Y-80865799D01*
X168515590Y-81176529D01*
X168772382Y-81442446D01*
X169075935Y-81653420D01*
X169414684Y-81801416D01*
X169775729Y-81880797D01*
X170145315Y-81888539D01*
X170509367Y-81824346D01*
X170854017Y-81690666D01*
X171166137Y-81492588D01*
X171433840Y-81237658D01*
X171646929Y-80935586D01*
X171797286Y-80597877D01*
X171879185Y-80237396D01*
X171880286Y-80158496D01*
X198112522Y-80158496D01*
X198179254Y-80522091D01*
X198315338Y-80865799D01*
X198515590Y-81176529D01*
X198772382Y-81442446D01*
X199075935Y-81653420D01*
X199414684Y-81801416D01*
X199775729Y-81880797D01*
X200145315Y-81888539D01*
X200509367Y-81824346D01*
X200854017Y-81690666D01*
X201166137Y-81492588D01*
X201433840Y-81237658D01*
X201646929Y-80935586D01*
X201797286Y-80597877D01*
X201879185Y-80237396D01*
X201885081Y-79815166D01*
X201813279Y-79452539D01*
X201672410Y-79110764D01*
X201467839Y-78802860D01*
X201207358Y-78540555D01*
X200900890Y-78333839D01*
X200560107Y-78190587D01*
X200197990Y-78116255D01*
X199828331Y-78113674D01*
X199465211Y-78182943D01*
X199122461Y-78321423D01*
X198813137Y-78523840D01*
X198549019Y-78782482D01*
X198340169Y-79087500D01*
X198194542Y-79427275D01*
X198117683Y-79788864D01*
X198112522Y-80158496D01*
X171880286Y-80158496D01*
X171885081Y-79815166D01*
X171813279Y-79452539D01*
X171672410Y-79110764D01*
X171467839Y-78802860D01*
X171207358Y-78540555D01*
X170900890Y-78333839D01*
X170560107Y-78190587D01*
X170197990Y-78116255D01*
X169828331Y-78113674D01*
X169465211Y-78182943D01*
X169122461Y-78321423D01*
X168813137Y-78523840D01*
X168549019Y-78782482D01*
X168340169Y-79087500D01*
X168194542Y-79427275D01*
X168117683Y-79788864D01*
X168112522Y-80158496D01*
X131276431Y-80158496D01*
X131322559Y-80128100D01*
X131439025Y-79991450D01*
X131512810Y-79827763D01*
X131538072Y-79650000D01*
X131538072Y-77850000D01*
X131530008Y-77748879D01*
X131477282Y-77578617D01*
X139563771Y-77578617D01*
X139596872Y-77758968D01*
X139664372Y-77929454D01*
X139763701Y-78083583D01*
X139891076Y-78215484D01*
X140041644Y-78320131D01*
X140209671Y-78393540D01*
X140388757Y-78432915D01*
X140572079Y-78436755D01*
X140752657Y-78404914D01*
X140923610Y-78338606D01*
X141078429Y-78240355D01*
X141211215Y-78113904D01*
X141316911Y-77964070D01*
X141391492Y-77796560D01*
X141432116Y-77617754D01*
X141435040Y-77408319D01*
X141399425Y-77228448D01*
X141329550Y-77058920D01*
X141228079Y-76906193D01*
X141098875Y-76776084D01*
X140946860Y-76673549D01*
X140777825Y-76602493D01*
X140598207Y-76565623D01*
X140414849Y-76564343D01*
X140234733Y-76598701D01*
X140064722Y-76667390D01*
X139911291Y-76767793D01*
X139780283Y-76896086D01*
X139676689Y-77047381D01*
X139604454Y-77215916D01*
X139566331Y-77395272D01*
X139563771Y-77578617D01*
X131477282Y-77578617D01*
X131476894Y-77577366D01*
X131378100Y-77427441D01*
X131241450Y-77310975D01*
X131077763Y-77237190D01*
X130900000Y-77211928D01*
X129100000Y-77211928D01*
X128998879Y-77219992D01*
X128827366Y-77273106D01*
X128677441Y-77371900D01*
X128560975Y-77508550D01*
X128487190Y-77672237D01*
X128461928Y-77850000D01*
X96685000Y-77850000D01*
X96685000Y-75078617D01*
X98063771Y-75078617D01*
X98096872Y-75258968D01*
X98164372Y-75429454D01*
X98263701Y-75583583D01*
X98391076Y-75715484D01*
X98541644Y-75820131D01*
X98709671Y-75893540D01*
X98888757Y-75932915D01*
X99072079Y-75936755D01*
X99252657Y-75904914D01*
X99423610Y-75838606D01*
X99578429Y-75740355D01*
X99711215Y-75613904D01*
X99816911Y-75464070D01*
X99891492Y-75296560D01*
X99932116Y-75117754D01*
X99935040Y-74908319D01*
X99899425Y-74728448D01*
X99829550Y-74558920D01*
X99728079Y-74406193D01*
X99598875Y-74276084D01*
X99446860Y-74173549D01*
X99277825Y-74102493D01*
X99098207Y-74065623D01*
X98914849Y-74064343D01*
X98734733Y-74098701D01*
X98564722Y-74167390D01*
X98411291Y-74267793D01*
X98280283Y-74396086D01*
X98176689Y-74547381D01*
X98104454Y-74715916D01*
X98066331Y-74895272D01*
X98063771Y-75078617D01*
X96685000Y-75078617D01*
X96685000Y-73578617D01*
X117563771Y-73578617D01*
X117596872Y-73758968D01*
X117664372Y-73929454D01*
X117763701Y-74083583D01*
X117891076Y-74215484D01*
X118041644Y-74320131D01*
X118209671Y-74393540D01*
X118388757Y-74432915D01*
X118572079Y-74436755D01*
X118752657Y-74404914D01*
X118923610Y-74338606D01*
X119078429Y-74240355D01*
X119211215Y-74113904D01*
X119316911Y-73964070D01*
X119391492Y-73796560D01*
X119432116Y-73617754D01*
X119435040Y-73408319D01*
X119399425Y-73228448D01*
X119329550Y-73058920D01*
X119228079Y-72906193D01*
X119098875Y-72776084D01*
X118946860Y-72673549D01*
X118777825Y-72602493D01*
X118598207Y-72565623D01*
X118414849Y-72564343D01*
X118234733Y-72598701D01*
X118064722Y-72667390D01*
X117911291Y-72767793D01*
X117780283Y-72896086D01*
X117676689Y-73047381D01*
X117604454Y-73215916D01*
X117566331Y-73395272D01*
X117563771Y-73578617D01*
X96685000Y-73578617D01*
X96685000Y-72078617D01*
X113063771Y-72078617D01*
X113096872Y-72258968D01*
X113164372Y-72429454D01*
X113263701Y-72583583D01*
X113391076Y-72715484D01*
X113541644Y-72820131D01*
X113709671Y-72893540D01*
X113888757Y-72932915D01*
X114072079Y-72936755D01*
X114252657Y-72904914D01*
X114423610Y-72838606D01*
X114578429Y-72740355D01*
X114711215Y-72613904D01*
X114816911Y-72464070D01*
X114891492Y-72296560D01*
X114932116Y-72117754D01*
X114935040Y-71908319D01*
X114899425Y-71728448D01*
X114829550Y-71558920D01*
X114728079Y-71406193D01*
X114598875Y-71276084D01*
X114446860Y-71173549D01*
X114277825Y-71102493D01*
X114098207Y-71065623D01*
X113914849Y-71064343D01*
X113734733Y-71098701D01*
X113564722Y-71167390D01*
X113411291Y-71267793D01*
X113280283Y-71396086D01*
X113176689Y-71547381D01*
X113104454Y-71715916D01*
X113066331Y-71895272D01*
X113063771Y-72078617D01*
X96685000Y-72078617D01*
X96685000Y-70078617D01*
X98063771Y-70078617D01*
X98096872Y-70258968D01*
X98164372Y-70429454D01*
X98263701Y-70583583D01*
X98391076Y-70715484D01*
X98541644Y-70820131D01*
X98709671Y-70893540D01*
X98888757Y-70932915D01*
X99072079Y-70936755D01*
X99252657Y-70904914D01*
X99423610Y-70838606D01*
X99578429Y-70740355D01*
X99711215Y-70613904D01*
X99816911Y-70464070D01*
X99891492Y-70296560D01*
X99932116Y-70117754D01*
X99932662Y-70078617D01*
X126563771Y-70078617D01*
X126596872Y-70258968D01*
X126664372Y-70429454D01*
X126763701Y-70583583D01*
X126891076Y-70715484D01*
X127041644Y-70820131D01*
X127209671Y-70893540D01*
X127388757Y-70932915D01*
X127572079Y-70936755D01*
X127752657Y-70904914D01*
X127923610Y-70838606D01*
X128078429Y-70740355D01*
X128211215Y-70613904D01*
X128316911Y-70464070D01*
X128391492Y-70296560D01*
X128432116Y-70117754D01*
X128432427Y-70095434D01*
X141863508Y-70095434D01*
X141903689Y-70314362D01*
X141985628Y-70521317D01*
X142106204Y-70708414D01*
X142260824Y-70868528D01*
X142443600Y-70995561D01*
X142647569Y-71084672D01*
X142864961Y-71132469D01*
X143087497Y-71137131D01*
X143306701Y-71098479D01*
X143514222Y-71017987D01*
X143702157Y-70898720D01*
X143863347Y-70745221D01*
X143991652Y-70563337D01*
X144082186Y-70359995D01*
X144131499Y-70142942D01*
X144132162Y-70095434D01*
X144363508Y-70095434D01*
X144403689Y-70314362D01*
X144485628Y-70521317D01*
X144606204Y-70708414D01*
X144760824Y-70868528D01*
X144943600Y-70995561D01*
X145147569Y-71084672D01*
X145364961Y-71132469D01*
X145587497Y-71137131D01*
X145806701Y-71098479D01*
X146014222Y-71017987D01*
X146202157Y-70898720D01*
X146363347Y-70745221D01*
X146491652Y-70563337D01*
X146582186Y-70359995D01*
X146631499Y-70142942D01*
X146632162Y-70095434D01*
X146863508Y-70095434D01*
X146903689Y-70314362D01*
X146985628Y-70521317D01*
X147106204Y-70708414D01*
X147260824Y-70868528D01*
X147443600Y-70995561D01*
X147647569Y-71084672D01*
X147864961Y-71132469D01*
X148087497Y-71137131D01*
X148306701Y-71098479D01*
X148514222Y-71017987D01*
X148702157Y-70898720D01*
X148863347Y-70745221D01*
X148991652Y-70563337D01*
X149082186Y-70359995D01*
X149131499Y-70142942D01*
X149135049Y-69888707D01*
X149091815Y-69670362D01*
X149006995Y-69464571D01*
X148883818Y-69279176D01*
X148726977Y-69121236D01*
X148542446Y-68996768D01*
X148337253Y-68910513D01*
X148119214Y-68865756D01*
X147896634Y-68864202D01*
X147677992Y-68905910D01*
X147471615Y-68989292D01*
X147285363Y-69111171D01*
X147126332Y-69266906D01*
X147000579Y-69450564D01*
X146912894Y-69655150D01*
X146866616Y-69872871D01*
X146863508Y-70095434D01*
X146632162Y-70095434D01*
X146635049Y-69888707D01*
X146591815Y-69670362D01*
X146506995Y-69464571D01*
X146383818Y-69279176D01*
X146226977Y-69121236D01*
X146042446Y-68996768D01*
X145837253Y-68910513D01*
X145619214Y-68865756D01*
X145396634Y-68864202D01*
X145177992Y-68905910D01*
X144971615Y-68989292D01*
X144785363Y-69111171D01*
X144626332Y-69266906D01*
X144500579Y-69450564D01*
X144412894Y-69655150D01*
X144366616Y-69872871D01*
X144363508Y-70095434D01*
X144132162Y-70095434D01*
X144135049Y-69888707D01*
X144091815Y-69670362D01*
X144006995Y-69464571D01*
X143883818Y-69279176D01*
X143726977Y-69121236D01*
X143542446Y-68996768D01*
X143337253Y-68910513D01*
X143119214Y-68865756D01*
X142896634Y-68864202D01*
X142677992Y-68905910D01*
X142471615Y-68989292D01*
X142285363Y-69111171D01*
X142126332Y-69266906D01*
X142000579Y-69450564D01*
X141912894Y-69655150D01*
X141866616Y-69872871D01*
X141863508Y-70095434D01*
X128432427Y-70095434D01*
X128435040Y-69908319D01*
X128399425Y-69728448D01*
X128329550Y-69558920D01*
X128228079Y-69406193D01*
X128098875Y-69276084D01*
X127946860Y-69173549D01*
X127777825Y-69102493D01*
X127598207Y-69065623D01*
X127414849Y-69064343D01*
X127234733Y-69098701D01*
X127064722Y-69167390D01*
X126911291Y-69267793D01*
X126780283Y-69396086D01*
X126676689Y-69547381D01*
X126604454Y-69715916D01*
X126566331Y-69895272D01*
X126563771Y-70078617D01*
X99932662Y-70078617D01*
X99935040Y-69908319D01*
X99899425Y-69728448D01*
X99829550Y-69558920D01*
X99728079Y-69406193D01*
X99598875Y-69276084D01*
X99446860Y-69173549D01*
X99277825Y-69102493D01*
X99098207Y-69065623D01*
X98914849Y-69064343D01*
X98734733Y-69098701D01*
X98564722Y-69167390D01*
X98411291Y-69267793D01*
X98280283Y-69396086D01*
X98176689Y-69547381D01*
X98104454Y-69715916D01*
X98066331Y-69895272D01*
X98063771Y-70078617D01*
X96685000Y-70078617D01*
X96685000Y-68078617D01*
X113063771Y-68078617D01*
X113096872Y-68258968D01*
X113164372Y-68429454D01*
X113263701Y-68583583D01*
X113391076Y-68715484D01*
X113541644Y-68820131D01*
X113709671Y-68893540D01*
X113888757Y-68932915D01*
X114072079Y-68936755D01*
X114252657Y-68904914D01*
X114423610Y-68838606D01*
X114578429Y-68740355D01*
X114711215Y-68613904D01*
X114816911Y-68464070D01*
X114891492Y-68296560D01*
X114932116Y-68117754D01*
X114935040Y-67908319D01*
X114899425Y-67728448D01*
X114837669Y-67578617D01*
X134563771Y-67578617D01*
X134596872Y-67758968D01*
X134664372Y-67929454D01*
X134763701Y-68083583D01*
X134891076Y-68215484D01*
X135041644Y-68320131D01*
X135209671Y-68393540D01*
X135388757Y-68432915D01*
X135572079Y-68436755D01*
X135752657Y-68404914D01*
X135923610Y-68338606D01*
X136078429Y-68240355D01*
X136211215Y-68113904D01*
X136316911Y-67964070D01*
X136391492Y-67796560D01*
X136432116Y-67617754D01*
X136435040Y-67408319D01*
X136399425Y-67228448D01*
X136337669Y-67078617D01*
X139563771Y-67078617D01*
X139596872Y-67258968D01*
X139664372Y-67429454D01*
X139763701Y-67583583D01*
X139891076Y-67715484D01*
X140041644Y-67820131D01*
X140209671Y-67893540D01*
X140388757Y-67932915D01*
X140572079Y-67936755D01*
X140752657Y-67904914D01*
X140923610Y-67838606D01*
X141078429Y-67740355D01*
X141211215Y-67613904D01*
X141316911Y-67464070D01*
X141391492Y-67296560D01*
X141432116Y-67117754D01*
X141435040Y-66908319D01*
X141399425Y-66728448D01*
X141329550Y-66558920D01*
X141228079Y-66406193D01*
X141098875Y-66276084D01*
X140946860Y-66173549D01*
X140777825Y-66102493D01*
X140598207Y-66065623D01*
X140414849Y-66064343D01*
X140234733Y-66098701D01*
X140064722Y-66167390D01*
X139911291Y-66267793D01*
X139780283Y-66396086D01*
X139676689Y-66547381D01*
X139604454Y-66715916D01*
X139566331Y-66895272D01*
X139563771Y-67078617D01*
X136337669Y-67078617D01*
X136329550Y-67058920D01*
X136228079Y-66906193D01*
X136098875Y-66776084D01*
X135946860Y-66673549D01*
X135777825Y-66602493D01*
X135598207Y-66565623D01*
X135414849Y-66564343D01*
X135234733Y-66598701D01*
X135064722Y-66667390D01*
X134911291Y-66767793D01*
X134780283Y-66896086D01*
X134676689Y-67047381D01*
X134604454Y-67215916D01*
X134566331Y-67395272D01*
X134563771Y-67578617D01*
X114837669Y-67578617D01*
X114829550Y-67558920D01*
X114728079Y-67406193D01*
X114598875Y-67276084D01*
X114446860Y-67173549D01*
X114277825Y-67102493D01*
X114098207Y-67065623D01*
X113914849Y-67064343D01*
X113734733Y-67098701D01*
X113564722Y-67167390D01*
X113411291Y-67267793D01*
X113280283Y-67396086D01*
X113176689Y-67547381D01*
X113104454Y-67715916D01*
X113066331Y-67895272D01*
X113063771Y-68078617D01*
X96685000Y-68078617D01*
X96685000Y-65078617D01*
X140813771Y-65078617D01*
X140846872Y-65258968D01*
X140914372Y-65429454D01*
X141013701Y-65583583D01*
X141141076Y-65715484D01*
X141291644Y-65820131D01*
X141459671Y-65893540D01*
X141638757Y-65932915D01*
X141822079Y-65936755D01*
X142002657Y-65904914D01*
X142173610Y-65838606D01*
X142328429Y-65740355D01*
X142461215Y-65613904D01*
X142566911Y-65464070D01*
X142641492Y-65296560D01*
X142682116Y-65117754D01*
X142682662Y-65078617D01*
X146063771Y-65078617D01*
X146096872Y-65258968D01*
X146164372Y-65429454D01*
X146263701Y-65583583D01*
X146391076Y-65715484D01*
X146541644Y-65820131D01*
X146709671Y-65893540D01*
X146888757Y-65932915D01*
X147072079Y-65936755D01*
X147252657Y-65904914D01*
X147423610Y-65838606D01*
X147578429Y-65740355D01*
X147711215Y-65613904D01*
X147816911Y-65464070D01*
X147891492Y-65296560D01*
X147932116Y-65117754D01*
X147935040Y-64908319D01*
X147899425Y-64728448D01*
X147829550Y-64558920D01*
X147728079Y-64406193D01*
X147598875Y-64276084D01*
X147446860Y-64173549D01*
X147277825Y-64102493D01*
X147098207Y-64065623D01*
X146914849Y-64064343D01*
X146734733Y-64098701D01*
X146564722Y-64167390D01*
X146411291Y-64267793D01*
X146280283Y-64396086D01*
X146176689Y-64547381D01*
X146104454Y-64715916D01*
X146066331Y-64895272D01*
X146063771Y-65078617D01*
X142682662Y-65078617D01*
X142685040Y-64908319D01*
X142649425Y-64728448D01*
X142579550Y-64558920D01*
X142478079Y-64406193D01*
X142348875Y-64276084D01*
X142196860Y-64173549D01*
X142027825Y-64102493D01*
X141848207Y-64065623D01*
X141664849Y-64064343D01*
X141484733Y-64098701D01*
X141314722Y-64167390D01*
X141161291Y-64267793D01*
X141030283Y-64396086D01*
X140926689Y-64547381D01*
X140854454Y-64715916D01*
X140816331Y-64895272D01*
X140813771Y-65078617D01*
X96685000Y-65078617D01*
X96685000Y-63595434D01*
X123863508Y-63595434D01*
X123903689Y-63814362D01*
X123985628Y-64021317D01*
X124106204Y-64208414D01*
X124260824Y-64368528D01*
X124443600Y-64495561D01*
X124647569Y-64584672D01*
X124864961Y-64632469D01*
X125087497Y-64637131D01*
X125306701Y-64598479D01*
X125514222Y-64517987D01*
X125702157Y-64398720D01*
X125863347Y-64245221D01*
X125991652Y-64063337D01*
X126082186Y-63859995D01*
X126131499Y-63642942D01*
X126135049Y-63388707D01*
X126091815Y-63170362D01*
X126006995Y-62964571D01*
X125883818Y-62779176D01*
X125726977Y-62621236D01*
X125542446Y-62496768D01*
X125337253Y-62410513D01*
X125119214Y-62365756D01*
X124896634Y-62364202D01*
X124677992Y-62405910D01*
X124471615Y-62489292D01*
X124285363Y-62611171D01*
X124126332Y-62766906D01*
X124000579Y-62950564D01*
X123912894Y-63155150D01*
X123866616Y-63372871D01*
X123863508Y-63595434D01*
X96685000Y-63595434D01*
X96685000Y-62078617D01*
X107563771Y-62078617D01*
X107596872Y-62258968D01*
X107664372Y-62429454D01*
X107763701Y-62583583D01*
X107891076Y-62715484D01*
X108041644Y-62820131D01*
X108209671Y-62893540D01*
X108388757Y-62932915D01*
X108572079Y-62936755D01*
X108752657Y-62904914D01*
X108923610Y-62838606D01*
X108999203Y-62790634D01*
X109041644Y-62820131D01*
X109209671Y-62893540D01*
X109388757Y-62932915D01*
X109572079Y-62936755D01*
X109752657Y-62904914D01*
X109923610Y-62838606D01*
X110078429Y-62740355D01*
X110211215Y-62613904D01*
X110316911Y-62464070D01*
X110391492Y-62296560D01*
X110432116Y-62117754D01*
X110432662Y-62078617D01*
X110563771Y-62078617D01*
X110596872Y-62258968D01*
X110664372Y-62429454D01*
X110763701Y-62583583D01*
X110891076Y-62715484D01*
X111041644Y-62820131D01*
X111209671Y-62893540D01*
X111388757Y-62932915D01*
X111572079Y-62936755D01*
X111752657Y-62904914D01*
X111923610Y-62838606D01*
X112078429Y-62740355D01*
X112211215Y-62613904D01*
X112316911Y-62464070D01*
X112391492Y-62296560D01*
X112432116Y-62117754D01*
X112432662Y-62078617D01*
X116563771Y-62078617D01*
X116596872Y-62258968D01*
X116664372Y-62429454D01*
X116763701Y-62583583D01*
X116891076Y-62715484D01*
X117041644Y-62820131D01*
X117209671Y-62893540D01*
X117388757Y-62932915D01*
X117572079Y-62936755D01*
X117752657Y-62904914D01*
X117923610Y-62838606D01*
X117999203Y-62790634D01*
X118041644Y-62820131D01*
X118209671Y-62893540D01*
X118388757Y-62932915D01*
X118572079Y-62936755D01*
X118752657Y-62904914D01*
X118923610Y-62838606D01*
X118999203Y-62790634D01*
X119041644Y-62820131D01*
X119209671Y-62893540D01*
X119388757Y-62932915D01*
X119572079Y-62936755D01*
X119752657Y-62904914D01*
X119923610Y-62838606D01*
X120078429Y-62740355D01*
X120211215Y-62613904D01*
X120316911Y-62464070D01*
X120391492Y-62296560D01*
X120432116Y-62117754D01*
X120432662Y-62078617D01*
X121563771Y-62078617D01*
X121596872Y-62258968D01*
X121664372Y-62429454D01*
X121763701Y-62583583D01*
X121891076Y-62715484D01*
X122041644Y-62820131D01*
X122209671Y-62893540D01*
X122388757Y-62932915D01*
X122572079Y-62936755D01*
X122752657Y-62904914D01*
X122923610Y-62838606D01*
X123078429Y-62740355D01*
X123211215Y-62613904D01*
X123316911Y-62464070D01*
X123391492Y-62296560D01*
X123432116Y-62117754D01*
X123432662Y-62078617D01*
X131063771Y-62078617D01*
X131096872Y-62258968D01*
X131164372Y-62429454D01*
X131263701Y-62583583D01*
X131391076Y-62715484D01*
X131541644Y-62820131D01*
X131709671Y-62893540D01*
X131888757Y-62932915D01*
X132072079Y-62936755D01*
X132252657Y-62904914D01*
X132423610Y-62838606D01*
X132499203Y-62790634D01*
X132541644Y-62820131D01*
X132709671Y-62893540D01*
X132888757Y-62932915D01*
X133072079Y-62936755D01*
X133252657Y-62904914D01*
X133423610Y-62838606D01*
X133578429Y-62740355D01*
X133711215Y-62613904D01*
X133816911Y-62464070D01*
X133891492Y-62296560D01*
X133932116Y-62117754D01*
X133932662Y-62078617D01*
X139063771Y-62078617D01*
X139096872Y-62258968D01*
X139164372Y-62429454D01*
X139263701Y-62583583D01*
X139391076Y-62715484D01*
X139541644Y-62820131D01*
X139709671Y-62893540D01*
X139888757Y-62932915D01*
X140072079Y-62936755D01*
X140252657Y-62904914D01*
X140423610Y-62838606D01*
X140499203Y-62790634D01*
X140541644Y-62820131D01*
X140709671Y-62893540D01*
X140888757Y-62932915D01*
X141072079Y-62936755D01*
X141252657Y-62904914D01*
X141423610Y-62838606D01*
X141578429Y-62740355D01*
X141711215Y-62613904D01*
X141816911Y-62464070D01*
X141891492Y-62296560D01*
X141932116Y-62117754D01*
X141935040Y-61908319D01*
X141899425Y-61728448D01*
X141829550Y-61558920D01*
X141728079Y-61406193D01*
X141598875Y-61276084D01*
X141446860Y-61173549D01*
X141277825Y-61102493D01*
X141098207Y-61065623D01*
X140914849Y-61064343D01*
X140734733Y-61098701D01*
X140564722Y-61167390D01*
X140500264Y-61209570D01*
X140446860Y-61173549D01*
X140277825Y-61102493D01*
X140098207Y-61065623D01*
X139914849Y-61064343D01*
X139734733Y-61098701D01*
X139564722Y-61167390D01*
X139411291Y-61267793D01*
X139280283Y-61396086D01*
X139176689Y-61547381D01*
X139104454Y-61715916D01*
X139066331Y-61895272D01*
X139063771Y-62078617D01*
X133932662Y-62078617D01*
X133935040Y-61908319D01*
X133899425Y-61728448D01*
X133829550Y-61558920D01*
X133728079Y-61406193D01*
X133598875Y-61276084D01*
X133446860Y-61173549D01*
X133277825Y-61102493D01*
X133098207Y-61065623D01*
X132914849Y-61064343D01*
X132734733Y-61098701D01*
X132564722Y-61167390D01*
X132500264Y-61209570D01*
X132446860Y-61173549D01*
X132277825Y-61102493D01*
X132098207Y-61065623D01*
X131914849Y-61064343D01*
X131734733Y-61098701D01*
X131564722Y-61167390D01*
X131411291Y-61267793D01*
X131280283Y-61396086D01*
X131176689Y-61547381D01*
X131104454Y-61715916D01*
X131066331Y-61895272D01*
X131063771Y-62078617D01*
X123432662Y-62078617D01*
X123435040Y-61908319D01*
X123399425Y-61728448D01*
X123329550Y-61558920D01*
X123228079Y-61406193D01*
X123098875Y-61276084D01*
X122946860Y-61173549D01*
X122777825Y-61102493D01*
X122598207Y-61065623D01*
X122414849Y-61064343D01*
X122234733Y-61098701D01*
X122064722Y-61167390D01*
X121911291Y-61267793D01*
X121780283Y-61396086D01*
X121676689Y-61547381D01*
X121604454Y-61715916D01*
X121566331Y-61895272D01*
X121563771Y-62078617D01*
X120432662Y-62078617D01*
X120435040Y-61908319D01*
X120399425Y-61728448D01*
X120329550Y-61558920D01*
X120228079Y-61406193D01*
X120098875Y-61276084D01*
X119946860Y-61173549D01*
X119777825Y-61102493D01*
X119598207Y-61065623D01*
X119414849Y-61064343D01*
X119234733Y-61098701D01*
X119064722Y-61167390D01*
X119000264Y-61209570D01*
X118946860Y-61173549D01*
X118777825Y-61102493D01*
X118598207Y-61065623D01*
X118414849Y-61064343D01*
X118234733Y-61098701D01*
X118064722Y-61167390D01*
X118000264Y-61209570D01*
X117946860Y-61173549D01*
X117777825Y-61102493D01*
X117598207Y-61065623D01*
X117414849Y-61064343D01*
X117234733Y-61098701D01*
X117064722Y-61167390D01*
X116911291Y-61267793D01*
X116780283Y-61396086D01*
X116676689Y-61547381D01*
X116604454Y-61715916D01*
X116566331Y-61895272D01*
X116563771Y-62078617D01*
X112432662Y-62078617D01*
X112435040Y-61908319D01*
X112399425Y-61728448D01*
X112329550Y-61558920D01*
X112228079Y-61406193D01*
X112098875Y-61276084D01*
X111946860Y-61173549D01*
X111777825Y-61102493D01*
X111598207Y-61065623D01*
X111414849Y-61064343D01*
X111234733Y-61098701D01*
X111064722Y-61167390D01*
X110911291Y-61267793D01*
X110780283Y-61396086D01*
X110676689Y-61547381D01*
X110604454Y-61715916D01*
X110566331Y-61895272D01*
X110563771Y-62078617D01*
X110432662Y-62078617D01*
X110435040Y-61908319D01*
X110399425Y-61728448D01*
X110329550Y-61558920D01*
X110228079Y-61406193D01*
X110098875Y-61276084D01*
X109946860Y-61173549D01*
X109777825Y-61102493D01*
X109598207Y-61065623D01*
X109414849Y-61064343D01*
X109234733Y-61098701D01*
X109064722Y-61167390D01*
X109000264Y-61209570D01*
X108946860Y-61173549D01*
X108777825Y-61102493D01*
X108598207Y-61065623D01*
X108414849Y-61064343D01*
X108234733Y-61098701D01*
X108064722Y-61167390D01*
X107911291Y-61267793D01*
X107780283Y-61396086D01*
X107676689Y-61547381D01*
X107604454Y-61715916D01*
X107566331Y-61895272D01*
X107563771Y-62078617D01*
X96685000Y-62078617D01*
X96685000Y-60828617D01*
X151063771Y-60828617D01*
X151096872Y-61008968D01*
X151164372Y-61179454D01*
X151263701Y-61333583D01*
X151391076Y-61465484D01*
X151541644Y-61570131D01*
X151709671Y-61643540D01*
X151888757Y-61682915D01*
X152072079Y-61686755D01*
X152252657Y-61654914D01*
X152423610Y-61588606D01*
X152578429Y-61490355D01*
X152711215Y-61363904D01*
X152816911Y-61214070D01*
X152891492Y-61046560D01*
X152932116Y-60867754D01*
X152932662Y-60828617D01*
X154063771Y-60828617D01*
X154096872Y-61008968D01*
X154164372Y-61179454D01*
X154263701Y-61333583D01*
X154391076Y-61465484D01*
X154541644Y-61570131D01*
X154709671Y-61643540D01*
X154888757Y-61682915D01*
X155072079Y-61686755D01*
X155252657Y-61654914D01*
X155423610Y-61588606D01*
X155578429Y-61490355D01*
X155711215Y-61363904D01*
X155816911Y-61214070D01*
X155891492Y-61046560D01*
X155932116Y-60867754D01*
X155935040Y-60658319D01*
X155899425Y-60478448D01*
X155829550Y-60308920D01*
X155728079Y-60156193D01*
X155598875Y-60026084D01*
X155446860Y-59923549D01*
X155277825Y-59852493D01*
X155098207Y-59815623D01*
X154914849Y-59814343D01*
X154734733Y-59848701D01*
X154564722Y-59917390D01*
X154411291Y-60017793D01*
X154280283Y-60146086D01*
X154176689Y-60297381D01*
X154104454Y-60465916D01*
X154066331Y-60645272D01*
X154063771Y-60828617D01*
X152932662Y-60828617D01*
X152935040Y-60658319D01*
X152899425Y-60478448D01*
X152829550Y-60308920D01*
X152728079Y-60156193D01*
X152598875Y-60026084D01*
X152446860Y-59923549D01*
X152277825Y-59852493D01*
X152098207Y-59815623D01*
X151914849Y-59814343D01*
X151734733Y-59848701D01*
X151564722Y-59917390D01*
X151411291Y-60017793D01*
X151280283Y-60146086D01*
X151176689Y-60297381D01*
X151104454Y-60465916D01*
X151066331Y-60645272D01*
X151063771Y-60828617D01*
X96685000Y-60828617D01*
X96685000Y-56078617D01*
X148313771Y-56078617D01*
X148346872Y-56258968D01*
X148414372Y-56429454D01*
X148513701Y-56583583D01*
X148641076Y-56715484D01*
X148791644Y-56820131D01*
X148959671Y-56893540D01*
X149138757Y-56932915D01*
X149322079Y-56936755D01*
X149502657Y-56904914D01*
X149673610Y-56838606D01*
X149828429Y-56740355D01*
X149961215Y-56613904D01*
X150066911Y-56464070D01*
X150141492Y-56296560D01*
X150182116Y-56117754D01*
X150185040Y-55908319D01*
X150149425Y-55728448D01*
X150079550Y-55558920D01*
X149978079Y-55406193D01*
X149848875Y-55276084D01*
X149696860Y-55173549D01*
X149527825Y-55102493D01*
X149348207Y-55065623D01*
X149164849Y-55064343D01*
X148984733Y-55098701D01*
X148814722Y-55167390D01*
X148661291Y-55267793D01*
X148530283Y-55396086D01*
X148426689Y-55547381D01*
X148354454Y-55715916D01*
X148316331Y-55895272D01*
X148313771Y-56078617D01*
X96685000Y-56078617D01*
X96685000Y-53578617D01*
X99063771Y-53578617D01*
X99096872Y-53758968D01*
X99164372Y-53929454D01*
X99263701Y-54083583D01*
X99391076Y-54215484D01*
X99541644Y-54320131D01*
X99709671Y-54393540D01*
X99888757Y-54432915D01*
X100072079Y-54436755D01*
X100252657Y-54404914D01*
X100423610Y-54338606D01*
X100578429Y-54240355D01*
X100711215Y-54113904D01*
X100816911Y-53964070D01*
X100877219Y-53828617D01*
X148313771Y-53828617D01*
X148346872Y-54008968D01*
X148414372Y-54179454D01*
X148513701Y-54333583D01*
X148641076Y-54465484D01*
X148791644Y-54570131D01*
X148959671Y-54643540D01*
X149138757Y-54682915D01*
X149322079Y-54686755D01*
X149502657Y-54654914D01*
X149673610Y-54588606D01*
X149828429Y-54490355D01*
X149961215Y-54363904D01*
X150066911Y-54214070D01*
X150141492Y-54046560D01*
X150182116Y-53867754D01*
X150185040Y-53658319D01*
X150149425Y-53478448D01*
X150079550Y-53308920D01*
X149978079Y-53156193D01*
X149848875Y-53026084D01*
X149696860Y-52923549D01*
X149527825Y-52852493D01*
X149348207Y-52815623D01*
X149164849Y-52814343D01*
X148984733Y-52848701D01*
X148814722Y-52917390D01*
X148661291Y-53017793D01*
X148530283Y-53146086D01*
X148426689Y-53297381D01*
X148354454Y-53465916D01*
X148316331Y-53645272D01*
X148313771Y-53828617D01*
X100877219Y-53828617D01*
X100891492Y-53796560D01*
X100932116Y-53617754D01*
X100935040Y-53408319D01*
X100899425Y-53228448D01*
X100829550Y-53058920D01*
X100728079Y-52906193D01*
X100598875Y-52776084D01*
X100446860Y-52673549D01*
X100277825Y-52602493D01*
X100098207Y-52565623D01*
X99914849Y-52564343D01*
X99734733Y-52598701D01*
X99564722Y-52667390D01*
X99411291Y-52767793D01*
X99280283Y-52896086D01*
X99176689Y-53047381D01*
X99104454Y-53215916D01*
X99066331Y-53395272D01*
X99063771Y-53578617D01*
X96685000Y-53578617D01*
X96685000Y-50578617D01*
X148313771Y-50578617D01*
X148346872Y-50758968D01*
X148414372Y-50929454D01*
X148513701Y-51083583D01*
X148641076Y-51215484D01*
X148791644Y-51320131D01*
X148959671Y-51393540D01*
X149138757Y-51432915D01*
X149322079Y-51436755D01*
X149502657Y-51404914D01*
X149673610Y-51338606D01*
X149828429Y-51240355D01*
X149961215Y-51113904D01*
X150066911Y-50964070D01*
X150141492Y-50796560D01*
X150182116Y-50617754D01*
X150185040Y-50408319D01*
X150149425Y-50228448D01*
X150079550Y-50058920D01*
X149978079Y-49906193D01*
X149848875Y-49776084D01*
X149696860Y-49673549D01*
X149527825Y-49602493D01*
X149348207Y-49565623D01*
X149164849Y-49564343D01*
X148984733Y-49598701D01*
X148814722Y-49667390D01*
X148661291Y-49767793D01*
X148530283Y-49896086D01*
X148426689Y-50047381D01*
X148354454Y-50215916D01*
X148316331Y-50395272D01*
X148313771Y-50578617D01*
X96685000Y-50578617D01*
X96685000Y-49328617D01*
X158063771Y-49328617D01*
X158096872Y-49508968D01*
X158164372Y-49679454D01*
X158263701Y-49833583D01*
X158391076Y-49965484D01*
X158541644Y-50070131D01*
X158709671Y-50143540D01*
X158888757Y-50182915D01*
X159072079Y-50186755D01*
X159252657Y-50154914D01*
X159423610Y-50088606D01*
X159578429Y-49990355D01*
X159711215Y-49863904D01*
X159816911Y-49714070D01*
X159891492Y-49546560D01*
X159932116Y-49367754D01*
X159932662Y-49328617D01*
X166063771Y-49328617D01*
X166096872Y-49508968D01*
X166164372Y-49679454D01*
X166263701Y-49833583D01*
X166391076Y-49965484D01*
X166541644Y-50070131D01*
X166709671Y-50143540D01*
X166888757Y-50182915D01*
X167072079Y-50186755D01*
X167252657Y-50154914D01*
X167423610Y-50088606D01*
X167578429Y-49990355D01*
X167711215Y-49863904D01*
X167816911Y-49714070D01*
X167891492Y-49546560D01*
X167932116Y-49367754D01*
X167935040Y-49158319D01*
X167899425Y-48978448D01*
X167829550Y-48808920D01*
X167728079Y-48656193D01*
X167598875Y-48526084D01*
X167446860Y-48423549D01*
X167277825Y-48352493D01*
X167098207Y-48315623D01*
X166914849Y-48314343D01*
X166734733Y-48348701D01*
X166564722Y-48417390D01*
X166411291Y-48517793D01*
X166280283Y-48646086D01*
X166176689Y-48797381D01*
X166104454Y-48965916D01*
X166066331Y-49145272D01*
X166063771Y-49328617D01*
X159932662Y-49328617D01*
X159935040Y-49158319D01*
X159899425Y-48978448D01*
X159829550Y-48808920D01*
X159728079Y-48656193D01*
X159598875Y-48526084D01*
X159446860Y-48423549D01*
X159277825Y-48352493D01*
X159098207Y-48315623D01*
X158914849Y-48314343D01*
X158734733Y-48348701D01*
X158564722Y-48417390D01*
X158411291Y-48517793D01*
X158280283Y-48646086D01*
X158176689Y-48797381D01*
X158104454Y-48965916D01*
X158066331Y-49145272D01*
X158063771Y-49328617D01*
X96685000Y-49328617D01*
X96685000Y-48078617D01*
X101563771Y-48078617D01*
X101596872Y-48258968D01*
X101664372Y-48429454D01*
X101763701Y-48583583D01*
X101891076Y-48715484D01*
X102041644Y-48820131D01*
X102209671Y-48893540D01*
X102388757Y-48932915D01*
X102572079Y-48936755D01*
X102752657Y-48904914D01*
X102923610Y-48838606D01*
X103078429Y-48740355D01*
X103211215Y-48613904D01*
X103316911Y-48464070D01*
X103377219Y-48328617D01*
X148313771Y-48328617D01*
X148346872Y-48508968D01*
X148414372Y-48679454D01*
X148513701Y-48833583D01*
X148641076Y-48965484D01*
X148791644Y-49070131D01*
X148959671Y-49143540D01*
X149138757Y-49182915D01*
X149322079Y-49186755D01*
X149502657Y-49154914D01*
X149673610Y-49088606D01*
X149828429Y-48990355D01*
X149961215Y-48863904D01*
X150066911Y-48714070D01*
X150141492Y-48546560D01*
X150182116Y-48367754D01*
X150185040Y-48158319D01*
X150149425Y-47978448D01*
X150079550Y-47808920D01*
X149978079Y-47656193D01*
X149848875Y-47526084D01*
X149696860Y-47423549D01*
X149527825Y-47352493D01*
X149348207Y-47315623D01*
X149164849Y-47314343D01*
X148984733Y-47348701D01*
X148814722Y-47417390D01*
X148661291Y-47517793D01*
X148530283Y-47646086D01*
X148426689Y-47797381D01*
X148354454Y-47965916D01*
X148316331Y-48145272D01*
X148313771Y-48328617D01*
X103377219Y-48328617D01*
X103391492Y-48296560D01*
X103432116Y-48117754D01*
X103435040Y-47908319D01*
X103399425Y-47728448D01*
X103329550Y-47558920D01*
X103228079Y-47406193D01*
X103098875Y-47276084D01*
X102946860Y-47173549D01*
X102777825Y-47102493D01*
X102598207Y-47065623D01*
X102414849Y-47064343D01*
X102234733Y-47098701D01*
X102064722Y-47167390D01*
X101911291Y-47267793D01*
X101780283Y-47396086D01*
X101676689Y-47547381D01*
X101604454Y-47715916D01*
X101566331Y-47895272D01*
X101563771Y-48078617D01*
X96685000Y-48078617D01*
X96685000Y-46078617D01*
X101563771Y-46078617D01*
X101596872Y-46258968D01*
X101664372Y-46429454D01*
X101763701Y-46583583D01*
X101891076Y-46715484D01*
X102041644Y-46820131D01*
X102209671Y-46893540D01*
X102388757Y-46932915D01*
X102572079Y-46936755D01*
X102752657Y-46904914D01*
X102923610Y-46838606D01*
X103078429Y-46740355D01*
X103211215Y-46613904D01*
X103316911Y-46464070D01*
X103391492Y-46296560D01*
X103432116Y-46117754D01*
X103435040Y-45908319D01*
X103399425Y-45728448D01*
X103329550Y-45558920D01*
X103228079Y-45406193D01*
X103098875Y-45276084D01*
X102946860Y-45173549D01*
X102777825Y-45102493D01*
X102598207Y-45065623D01*
X102414849Y-45064343D01*
X102234733Y-45098701D01*
X102064722Y-45167390D01*
X101911291Y-45267793D01*
X101780283Y-45396086D01*
X101676689Y-45547381D01*
X101604454Y-45715916D01*
X101566331Y-45895272D01*
X101563771Y-46078617D01*
X96685000Y-46078617D01*
X96685000Y-42578617D01*
X97563771Y-42578617D01*
X97596872Y-42758968D01*
X97664372Y-42929454D01*
X97763701Y-43083583D01*
X97891076Y-43215484D01*
X98041644Y-43320131D01*
X98209671Y-43393540D01*
X98388757Y-43432915D01*
X98572079Y-43436755D01*
X98752657Y-43404914D01*
X98923610Y-43338606D01*
X99078429Y-43240355D01*
X99211215Y-43113904D01*
X99316911Y-42964070D01*
X99391492Y-42796560D01*
X99432116Y-42617754D01*
X99432662Y-42578617D01*
X100563771Y-42578617D01*
X100596872Y-42758968D01*
X100664372Y-42929454D01*
X100763701Y-43083583D01*
X100891076Y-43215484D01*
X101041644Y-43320131D01*
X101209671Y-43393540D01*
X101388757Y-43432915D01*
X101572079Y-43436755D01*
X101752657Y-43404914D01*
X101923610Y-43338606D01*
X102078429Y-43240355D01*
X102211215Y-43113904D01*
X102316911Y-42964070D01*
X102391492Y-42796560D01*
X102432116Y-42617754D01*
X102435040Y-42408319D01*
X102399425Y-42228448D01*
X102329550Y-42058920D01*
X102228079Y-41906193D01*
X102098875Y-41776084D01*
X101946860Y-41673549D01*
X101777825Y-41602493D01*
X101598207Y-41565623D01*
X101414849Y-41564343D01*
X101234733Y-41598701D01*
X101064722Y-41667390D01*
X100911291Y-41767793D01*
X100780283Y-41896086D01*
X100676689Y-42047381D01*
X100604454Y-42215916D01*
X100566331Y-42395272D01*
X100563771Y-42578617D01*
X99432662Y-42578617D01*
X99435040Y-42408319D01*
X99399425Y-42228448D01*
X99329550Y-42058920D01*
X99228079Y-41906193D01*
X99098875Y-41776084D01*
X98946860Y-41673549D01*
X98777825Y-41602493D01*
X98598207Y-41565623D01*
X98414849Y-41564343D01*
X98234733Y-41598701D01*
X98064722Y-41667390D01*
X97911291Y-41767793D01*
X97780283Y-41896086D01*
X97676689Y-42047381D01*
X97604454Y-42215916D01*
X97566331Y-42395272D01*
X97563771Y-42578617D01*
X96685000Y-42578617D01*
X96685000Y-40578617D01*
X107563771Y-40578617D01*
X107596872Y-40758968D01*
X107664372Y-40929454D01*
X107763701Y-41083583D01*
X107891076Y-41215484D01*
X108041644Y-41320131D01*
X108209671Y-41393540D01*
X108388757Y-41432915D01*
X108572079Y-41436755D01*
X108752657Y-41404914D01*
X108923610Y-41338606D01*
X109078429Y-41240355D01*
X109211215Y-41113904D01*
X109316911Y-40964070D01*
X109391492Y-40796560D01*
X109432116Y-40617754D01*
X109432662Y-40578617D01*
X109563771Y-40578617D01*
X109596872Y-40758968D01*
X109664372Y-40929454D01*
X109763701Y-41083583D01*
X109891076Y-41215484D01*
X110041644Y-41320131D01*
X110209671Y-41393540D01*
X110388757Y-41432915D01*
X110572079Y-41436755D01*
X110752657Y-41404914D01*
X110923610Y-41338606D01*
X110999203Y-41290634D01*
X111041644Y-41320131D01*
X111209671Y-41393540D01*
X111388757Y-41432915D01*
X111572079Y-41436755D01*
X111752657Y-41404914D01*
X111923610Y-41338606D01*
X111999203Y-41290634D01*
X112041644Y-41320131D01*
X112209671Y-41393540D01*
X112388757Y-41432915D01*
X112572079Y-41436755D01*
X112752657Y-41404914D01*
X112923610Y-41338606D01*
X112999203Y-41290634D01*
X113041644Y-41320131D01*
X113209671Y-41393540D01*
X113388757Y-41432915D01*
X113572079Y-41436755D01*
X113752657Y-41404914D01*
X113923610Y-41338606D01*
X114078429Y-41240355D01*
X114211215Y-41113904D01*
X114316911Y-40964070D01*
X114391492Y-40796560D01*
X114432116Y-40617754D01*
X114432662Y-40578617D01*
X116563771Y-40578617D01*
X116596872Y-40758968D01*
X116664372Y-40929454D01*
X116763701Y-41083583D01*
X116891076Y-41215484D01*
X117041644Y-41320131D01*
X117209671Y-41393540D01*
X117388757Y-41432915D01*
X117572079Y-41436755D01*
X117752657Y-41404914D01*
X117923610Y-41338606D01*
X117999203Y-41290634D01*
X118041644Y-41320131D01*
X118209671Y-41393540D01*
X118388757Y-41432915D01*
X118572079Y-41436755D01*
X118752657Y-41404914D01*
X118923610Y-41338606D01*
X119078429Y-41240355D01*
X119211215Y-41113904D01*
X119316911Y-40964070D01*
X119391492Y-40796560D01*
X119432116Y-40617754D01*
X119432662Y-40578617D01*
X119563771Y-40578617D01*
X119596872Y-40758968D01*
X119664372Y-40929454D01*
X119763701Y-41083583D01*
X119891076Y-41215484D01*
X120041644Y-41320131D01*
X120209671Y-41393540D01*
X120388757Y-41432915D01*
X120572079Y-41436755D01*
X120752657Y-41404914D01*
X120923610Y-41338606D01*
X120999203Y-41290634D01*
X121041644Y-41320131D01*
X121209671Y-41393540D01*
X121388757Y-41432915D01*
X121572079Y-41436755D01*
X121752657Y-41404914D01*
X121923610Y-41338606D01*
X122078429Y-41240355D01*
X122211215Y-41113904D01*
X122316911Y-40964070D01*
X122391492Y-40796560D01*
X122432116Y-40617754D01*
X122432662Y-40578617D01*
X122563771Y-40578617D01*
X122596872Y-40758968D01*
X122664372Y-40929454D01*
X122763701Y-41083583D01*
X122891076Y-41215484D01*
X123041644Y-41320131D01*
X123209671Y-41393540D01*
X123388757Y-41432915D01*
X123572079Y-41436755D01*
X123752657Y-41404914D01*
X123923610Y-41338606D01*
X124078429Y-41240355D01*
X124211215Y-41113904D01*
X124316911Y-40964070D01*
X124391492Y-40796560D01*
X124432116Y-40617754D01*
X124432662Y-40578617D01*
X131063771Y-40578617D01*
X131096872Y-40758968D01*
X131164372Y-40929454D01*
X131263701Y-41083583D01*
X131391076Y-41215484D01*
X131541644Y-41320131D01*
X131709671Y-41393540D01*
X131888757Y-41432915D01*
X132072079Y-41436755D01*
X132252657Y-41404914D01*
X132423610Y-41338606D01*
X132499203Y-41290634D01*
X132541644Y-41320131D01*
X132709671Y-41393540D01*
X132888757Y-41432915D01*
X133072079Y-41436755D01*
X133252657Y-41404914D01*
X133423610Y-41338606D01*
X133578429Y-41240355D01*
X133711215Y-41113904D01*
X133816911Y-40964070D01*
X133891492Y-40796560D01*
X133932116Y-40617754D01*
X133932662Y-40578617D01*
X139063771Y-40578617D01*
X139096872Y-40758968D01*
X139164372Y-40929454D01*
X139263701Y-41083583D01*
X139391076Y-41215484D01*
X139541644Y-41320131D01*
X139709671Y-41393540D01*
X139888757Y-41432915D01*
X140072079Y-41436755D01*
X140252657Y-41404914D01*
X140423610Y-41338606D01*
X140499203Y-41290634D01*
X140541644Y-41320131D01*
X140709671Y-41393540D01*
X140888757Y-41432915D01*
X141072079Y-41436755D01*
X141252657Y-41404914D01*
X141423610Y-41338606D01*
X141578429Y-41240355D01*
X141711215Y-41113904D01*
X141816911Y-40964070D01*
X141891492Y-40796560D01*
X141932116Y-40617754D01*
X141935040Y-40408319D01*
X141899425Y-40228448D01*
X141829550Y-40058920D01*
X141728079Y-39906193D01*
X141598875Y-39776084D01*
X141446860Y-39673549D01*
X141277825Y-39602493D01*
X141098207Y-39565623D01*
X140914849Y-39564343D01*
X140734733Y-39598701D01*
X140564722Y-39667390D01*
X140500264Y-39709570D01*
X140446860Y-39673549D01*
X140277825Y-39602493D01*
X140098207Y-39565623D01*
X139914849Y-39564343D01*
X139734733Y-39598701D01*
X139564722Y-39667390D01*
X139411291Y-39767793D01*
X139280283Y-39896086D01*
X139176689Y-40047381D01*
X139104454Y-40215916D01*
X139066331Y-40395272D01*
X139063771Y-40578617D01*
X133932662Y-40578617D01*
X133935040Y-40408319D01*
X133899425Y-40228448D01*
X133829550Y-40058920D01*
X133728079Y-39906193D01*
X133598875Y-39776084D01*
X133446860Y-39673549D01*
X133277825Y-39602493D01*
X133098207Y-39565623D01*
X132914849Y-39564343D01*
X132734733Y-39598701D01*
X132564722Y-39667390D01*
X132500264Y-39709570D01*
X132446860Y-39673549D01*
X132277825Y-39602493D01*
X132098207Y-39565623D01*
X131914849Y-39564343D01*
X131734733Y-39598701D01*
X131564722Y-39667390D01*
X131411291Y-39767793D01*
X131280283Y-39896086D01*
X131176689Y-40047381D01*
X131104454Y-40215916D01*
X131066331Y-40395272D01*
X131063771Y-40578617D01*
X124432662Y-40578617D01*
X124435040Y-40408319D01*
X124399425Y-40228448D01*
X124329550Y-40058920D01*
X124228079Y-39906193D01*
X124098875Y-39776084D01*
X123946860Y-39673549D01*
X123777825Y-39602493D01*
X123598207Y-39565623D01*
X123414849Y-39564343D01*
X123234733Y-39598701D01*
X123064722Y-39667390D01*
X122911291Y-39767793D01*
X122780283Y-39896086D01*
X122676689Y-40047381D01*
X122604454Y-40215916D01*
X122566331Y-40395272D01*
X122563771Y-40578617D01*
X122432662Y-40578617D01*
X122435040Y-40408319D01*
X122399425Y-40228448D01*
X122329550Y-40058920D01*
X122228079Y-39906193D01*
X122098875Y-39776084D01*
X121946860Y-39673549D01*
X121777825Y-39602493D01*
X121598207Y-39565623D01*
X121414849Y-39564343D01*
X121234733Y-39598701D01*
X121064722Y-39667390D01*
X121000264Y-39709570D01*
X120946860Y-39673549D01*
X120777825Y-39602493D01*
X120598207Y-39565623D01*
X120414849Y-39564343D01*
X120234733Y-39598701D01*
X120064722Y-39667390D01*
X119911291Y-39767793D01*
X119780283Y-39896086D01*
X119676689Y-40047381D01*
X119604454Y-40215916D01*
X119566331Y-40395272D01*
X119563771Y-40578617D01*
X119432662Y-40578617D01*
X119435040Y-40408319D01*
X119399425Y-40228448D01*
X119329550Y-40058920D01*
X119228079Y-39906193D01*
X119098875Y-39776084D01*
X118946860Y-39673549D01*
X118777825Y-39602493D01*
X118598207Y-39565623D01*
X118414849Y-39564343D01*
X118234733Y-39598701D01*
X118064722Y-39667390D01*
X118000264Y-39709570D01*
X117946860Y-39673549D01*
X117777825Y-39602493D01*
X117598207Y-39565623D01*
X117414849Y-39564343D01*
X117234733Y-39598701D01*
X117064722Y-39667390D01*
X116911291Y-39767793D01*
X116780283Y-39896086D01*
X116676689Y-40047381D01*
X116604454Y-40215916D01*
X116566331Y-40395272D01*
X116563771Y-40578617D01*
X114432662Y-40578617D01*
X114435040Y-40408319D01*
X114399425Y-40228448D01*
X114329550Y-40058920D01*
X114228079Y-39906193D01*
X114098875Y-39776084D01*
X113946860Y-39673549D01*
X113777825Y-39602493D01*
X113598207Y-39565623D01*
X113414849Y-39564343D01*
X113234733Y-39598701D01*
X113064722Y-39667390D01*
X113000264Y-39709570D01*
X112946860Y-39673549D01*
X112777825Y-39602493D01*
X112598207Y-39565623D01*
X112414849Y-39564343D01*
X112234733Y-39598701D01*
X112064722Y-39667390D01*
X112000264Y-39709570D01*
X111946860Y-39673549D01*
X111777825Y-39602493D01*
X111598207Y-39565623D01*
X111414849Y-39564343D01*
X111234733Y-39598701D01*
X111064722Y-39667390D01*
X111000264Y-39709570D01*
X110946860Y-39673549D01*
X110777825Y-39602493D01*
X110598207Y-39565623D01*
X110414849Y-39564343D01*
X110234733Y-39598701D01*
X110064722Y-39667390D01*
X109911291Y-39767793D01*
X109780283Y-39896086D01*
X109676689Y-40047381D01*
X109604454Y-40215916D01*
X109566331Y-40395272D01*
X109563771Y-40578617D01*
X109432662Y-40578617D01*
X109435040Y-40408319D01*
X109399425Y-40228448D01*
X109329550Y-40058920D01*
X109228079Y-39906193D01*
X109098875Y-39776084D01*
X108946860Y-39673549D01*
X108777825Y-39602493D01*
X108598207Y-39565623D01*
X108414849Y-39564343D01*
X108234733Y-39598701D01*
X108064722Y-39667390D01*
X107911291Y-39767793D01*
X107780283Y-39896086D01*
X107676689Y-40047381D01*
X107604454Y-40215916D01*
X107566331Y-40395272D01*
X107563771Y-40578617D01*
X96685000Y-40578617D01*
X96685000Y-37078617D01*
X111063771Y-37078617D01*
X111096872Y-37258968D01*
X111164372Y-37429454D01*
X111263701Y-37583583D01*
X111391076Y-37715484D01*
X111541644Y-37820131D01*
X111709671Y-37893540D01*
X111888757Y-37932915D01*
X112072079Y-37936755D01*
X112252657Y-37904914D01*
X112423610Y-37838606D01*
X112578429Y-37740355D01*
X112711215Y-37613904D01*
X112816911Y-37464070D01*
X112891492Y-37296560D01*
X112932116Y-37117754D01*
X112935040Y-36908319D01*
X112899425Y-36728448D01*
X112829550Y-36558920D01*
X112728079Y-36406193D01*
X112598875Y-36276084D01*
X112446860Y-36173549D01*
X112277825Y-36102493D01*
X112098207Y-36065623D01*
X111914849Y-36064343D01*
X111734733Y-36098701D01*
X111564722Y-36167390D01*
X111411291Y-36267793D01*
X111280283Y-36396086D01*
X111176689Y-36547381D01*
X111104454Y-36715916D01*
X111066331Y-36895272D01*
X111063771Y-37078617D01*
X96685000Y-37078617D01*
X96685000Y-35187942D01*
X115261862Y-35187942D01*
X115340992Y-35619086D01*
X115502357Y-36026649D01*
X115739813Y-36395107D01*
X116044313Y-36710426D01*
X116404260Y-36960596D01*
X116805943Y-37136087D01*
X117234063Y-37230215D01*
X117672312Y-37239395D01*
X118103998Y-37163278D01*
X118512678Y-37004761D01*
X118882785Y-36769884D01*
X119200222Y-36467592D01*
X119452899Y-36109401D01*
X119631190Y-35708952D01*
X119728305Y-35281500D01*
X119735296Y-34780827D01*
X119650154Y-34350830D01*
X119483114Y-33945560D01*
X119240537Y-33580453D01*
X118931664Y-33269416D01*
X118568259Y-33024296D01*
X118164165Y-32854430D01*
X117734772Y-32766289D01*
X117296438Y-32763229D01*
X116865857Y-32845366D01*
X116459430Y-33009573D01*
X116092638Y-33249595D01*
X115779453Y-33556289D01*
X115531802Y-33917974D01*
X115359119Y-34320873D01*
X115267982Y-34749639D01*
X115261862Y-35187942D01*
X96685000Y-35187942D01*
X96685000Y-34685000D01*
X101500000Y-34685000D01*
X101500123Y-34684988D01*
X101502394Y-34684996D01*
X101554753Y-34684813D01*
X101584522Y-34681789D01*
X101614442Y-34681998D01*
X101623961Y-34681064D01*
X103079687Y-34528061D01*
X103140481Y-34515582D01*
X103201488Y-34503944D01*
X103210644Y-34501180D01*
X104608927Y-34068340D01*
X104666193Y-34044268D01*
X104723725Y-34021023D01*
X104732170Y-34016533D01*
X106019750Y-33320341D01*
X106071239Y-33285611D01*
X106123170Y-33251628D01*
X106130582Y-33245584D01*
X107258417Y-32312558D01*
X107302147Y-32268521D01*
X107346522Y-32225066D01*
X107352618Y-32217697D01*
X108277746Y-31083377D01*
X108312097Y-31031674D01*
X108347179Y-30980438D01*
X108351728Y-30972025D01*
X108826761Y-30078617D01*
X115563771Y-30078617D01*
X115596872Y-30258968D01*
X115664372Y-30429454D01*
X115763701Y-30583583D01*
X115891076Y-30715484D01*
X116041644Y-30820131D01*
X116209671Y-30893540D01*
X116388757Y-30932915D01*
X116572079Y-30936755D01*
X116752657Y-30904914D01*
X116923610Y-30838606D01*
X117078429Y-30740355D01*
X117211215Y-30613904D01*
X117316911Y-30464070D01*
X117391492Y-30296560D01*
X117432116Y-30117754D01*
X117435040Y-29908319D01*
X117399425Y-29728448D01*
X117329550Y-29558920D01*
X117228079Y-29406193D01*
X117098875Y-29276084D01*
X116946860Y-29173549D01*
X116777825Y-29102493D01*
X116598207Y-29065623D01*
X116414849Y-29064343D01*
X116234733Y-29098701D01*
X116064722Y-29167390D01*
X115911291Y-29267793D01*
X115780283Y-29396086D01*
X115676689Y-29547381D01*
X115604454Y-29715916D01*
X115566331Y-29895272D01*
X115563771Y-30078617D01*
X108826761Y-30078617D01*
X109038914Y-29679616D01*
X109062577Y-29622206D01*
X109087030Y-29565151D01*
X109089859Y-29556015D01*
X109512928Y-28154746D01*
X109524983Y-28093862D01*
X109537895Y-28033114D01*
X109538895Y-28023602D01*
X109577782Y-27627000D01*
X109661928Y-27627000D01*
X109661928Y-27750000D01*
X109661928Y-27750000D01*
G37*
X109661928Y-27750000D02*
X109669992Y-27851121D01*
X109723106Y-28022634D01*
X109821900Y-28172559D01*
X109958550Y-28289025D01*
X110122237Y-28362810D01*
X110300000Y-28388072D01*
X111200000Y-28388072D01*
X111301121Y-28380008D01*
X111472634Y-28326894D01*
X111622559Y-28228100D01*
X111739025Y-28091450D01*
X111812810Y-27927763D01*
X111838072Y-27750000D01*
X111838072Y-27627000D01*
X140873000Y-27627000D01*
X140873000Y-38000000D01*
X140878028Y-38035381D01*
X140892714Y-38067961D01*
X140910197Y-38089803D01*
X144910197Y-42089803D01*
X144938771Y-42111266D01*
X144972193Y-42123918D01*
X145000000Y-42127000D01*
X156361928Y-42127000D01*
X156361928Y-42500000D01*
X156369992Y-42601121D01*
X156423106Y-42772634D01*
X156521900Y-42922559D01*
X156658550Y-43039025D01*
X156822237Y-43112810D01*
X157000000Y-43138072D01*
X158000000Y-43138072D01*
X158101121Y-43130008D01*
X158272634Y-43076894D01*
X158422559Y-42978100D01*
X158539025Y-42841450D01*
X158612810Y-42677763D01*
X158638072Y-42500000D01*
X158638072Y-42127000D01*
X213315000Y-42127000D01*
X213315000Y-125315000D01*
X208500000Y-125315000D01*
X208499877Y-125315012D01*
X208497606Y-125315004D01*
X208445247Y-125315187D01*
X208415478Y-125318211D01*
X208385558Y-125318002D01*
X208376039Y-125318935D01*
X206920314Y-125471939D01*
X206859520Y-125484418D01*
X206798513Y-125496056D01*
X206789357Y-125498820D01*
X205391073Y-125931660D01*
X205333807Y-125955732D01*
X205276275Y-125978977D01*
X205267835Y-125983465D01*
X205267830Y-125983467D01*
X205267826Y-125983470D01*
X203980250Y-126679659D01*
X203928787Y-126714371D01*
X203876830Y-126748371D01*
X203869418Y-126754416D01*
X202741584Y-127687441D01*
X202697836Y-127731495D01*
X202653478Y-127774934D01*
X202647382Y-127782303D01*
X201722254Y-128916623D01*
X201687903Y-128968326D01*
X201652821Y-129019562D01*
X201648272Y-129027975D01*
X200961086Y-130320384D01*
X200937418Y-130377806D01*
X200912970Y-130434849D01*
X200910141Y-130443985D01*
X200487072Y-131845255D01*
X200475007Y-131906188D01*
X200462105Y-131966886D01*
X200461105Y-131976398D01*
X200318269Y-133433156D01*
X200318269Y-133461889D01*
X200315067Y-133490436D01*
X200315000Y-133500000D01*
X200315000Y-138315000D01*
X193265366Y-138315000D01*
X193603199Y-138183963D01*
X194006389Y-137928091D01*
X194352202Y-137598778D01*
X194627465Y-137208568D01*
X194821693Y-136772324D01*
X194927488Y-136306663D01*
X194935104Y-135761236D01*
X194842352Y-135292802D01*
X194660380Y-134851305D01*
X194396120Y-134453562D01*
X194059638Y-134114722D01*
X193663749Y-133847692D01*
X193223533Y-133662642D01*
X192755758Y-133566622D01*
X192278242Y-133563288D01*
X191809172Y-133652768D01*
X191366416Y-133831653D01*
X190966837Y-134093130D01*
X190625656Y-134427239D01*
X190355869Y-134821254D01*
X190167750Y-135260167D01*
X190068467Y-135727260D01*
X190061799Y-136204741D01*
X190148002Y-136674425D01*
X190323792Y-137118419D01*
X190582473Y-137519813D01*
X190914192Y-137863318D01*
X191306314Y-138135850D01*
X191716372Y-138315000D01*
X118265366Y-138315000D01*
X118603199Y-138183963D01*
X119006389Y-137928091D01*
X119352202Y-137598778D01*
X119627465Y-137208568D01*
X119821693Y-136772324D01*
X119927488Y-136306663D01*
X119935104Y-135761236D01*
X119842352Y-135292802D01*
X119660380Y-134851305D01*
X119396120Y-134453562D01*
X119059638Y-134114722D01*
X118729034Y-133891727D01*
X153256634Y-133891727D01*
X153277595Y-134122047D01*
X153342892Y-134343909D01*
X153450039Y-134548862D01*
X153594955Y-134729101D01*
X153772119Y-134877759D01*
X153974784Y-134989175D01*
X154195230Y-135059105D01*
X154425060Y-135084884D01*
X154441605Y-135085000D01*
X155558395Y-135085000D01*
X155788563Y-135062432D01*
X156009963Y-134995587D01*
X156214164Y-134887012D01*
X156393387Y-134740841D01*
X156540805Y-134562644D01*
X156650803Y-134359206D01*
X156719192Y-134138277D01*
X156743366Y-133908273D01*
X156722405Y-133677953D01*
X156657108Y-133456091D01*
X156549961Y-133251138D01*
X156405045Y-133070899D01*
X156227881Y-132922241D01*
X156025216Y-132810825D01*
X155804770Y-132740895D01*
X155574940Y-132715116D01*
X155558395Y-132715000D01*
X154441605Y-132715000D01*
X154211437Y-132737568D01*
X153990037Y-132804413D01*
X153785836Y-132912988D01*
X153606613Y-133059159D01*
X153459195Y-133237356D01*
X153349197Y-133440794D01*
X153280808Y-133661723D01*
X153256634Y-133891727D01*
X118729034Y-133891727D01*
X118663749Y-133847692D01*
X118223533Y-133662642D01*
X117755758Y-133566622D01*
X117278242Y-133563288D01*
X116809172Y-133652768D01*
X116366416Y-133831653D01*
X115966837Y-134093130D01*
X115625656Y-134427239D01*
X115355869Y-134821254D01*
X115167750Y-135260167D01*
X115068467Y-135727260D01*
X115061799Y-136204741D01*
X115148002Y-136674425D01*
X115323792Y-137118419D01*
X115582473Y-137519813D01*
X115914192Y-137863318D01*
X116306314Y-138135850D01*
X116716372Y-138315000D01*
X109685000Y-138315000D01*
X109685000Y-133500000D01*
X109684988Y-133499877D01*
X109684996Y-133497606D01*
X109684813Y-133445247D01*
X109681789Y-133415478D01*
X109681998Y-133385558D01*
X109681065Y-133376039D01*
X109528061Y-131920314D01*
X109515582Y-131859520D01*
X109503944Y-131798513D01*
X109501180Y-131789357D01*
X109486437Y-131741727D01*
X150657602Y-131741727D01*
X150678563Y-131972047D01*
X150743860Y-132193909D01*
X150851007Y-132398862D01*
X150995923Y-132579101D01*
X151173087Y-132727759D01*
X151375752Y-132839175D01*
X151596198Y-132909105D01*
X151826028Y-132934884D01*
X151842573Y-132935000D01*
X152557427Y-132935000D01*
X152787595Y-132912432D01*
X153008995Y-132845587D01*
X153213196Y-132737012D01*
X153392419Y-132590841D01*
X153539837Y-132412644D01*
X153649835Y-132209206D01*
X153718224Y-131988277D01*
X153742398Y-131758273D01*
X153721437Y-131527953D01*
X153656140Y-131306091D01*
X153548993Y-131101138D01*
X153404077Y-130920899D01*
X153226913Y-130772241D01*
X153024248Y-130660825D01*
X152803802Y-130590895D01*
X152573972Y-130565116D01*
X152557427Y-130565000D01*
X151842573Y-130565000D01*
X151612405Y-130587568D01*
X151391005Y-130654413D01*
X151186804Y-130762988D01*
X151007581Y-130909159D01*
X150860163Y-131087356D01*
X150750165Y-131290794D01*
X150681776Y-131511723D01*
X150657602Y-131741727D01*
X109486437Y-131741727D01*
X109068340Y-130391073D01*
X109044268Y-130333807D01*
X109021023Y-130276275D01*
X109016533Y-130267831D01*
X109016533Y-130267830D01*
X109016530Y-130267826D01*
X108914226Y-130078617D01*
X155313771Y-130078617D01*
X155346872Y-130258968D01*
X155414372Y-130429454D01*
X155513701Y-130583583D01*
X155641076Y-130715484D01*
X155791644Y-130820131D01*
X155959671Y-130893540D01*
X156138757Y-130932915D01*
X156322079Y-130936755D01*
X156502657Y-130904914D01*
X156673610Y-130838606D01*
X156765899Y-130780038D01*
X156607581Y-130909159D01*
X156460163Y-131087356D01*
X156350165Y-131290794D01*
X156281776Y-131511723D01*
X156257602Y-131741727D01*
X156278563Y-131972047D01*
X156343860Y-132193909D01*
X156451007Y-132398862D01*
X156595923Y-132579101D01*
X156773087Y-132727759D01*
X156975752Y-132839175D01*
X157196198Y-132909105D01*
X157426028Y-132934884D01*
X157442573Y-132935000D01*
X158157427Y-132935000D01*
X158387595Y-132912432D01*
X158608995Y-132845587D01*
X158813196Y-132737012D01*
X158992419Y-132590841D01*
X159139837Y-132412644D01*
X159249835Y-132209206D01*
X159318224Y-131988277D01*
X159342398Y-131758273D01*
X159321437Y-131527953D01*
X159256140Y-131306091D01*
X159148993Y-131101138D01*
X159004077Y-130920899D01*
X158826913Y-130772241D01*
X158624248Y-130660825D01*
X158403802Y-130590895D01*
X158173972Y-130565116D01*
X158157427Y-130565000D01*
X157442573Y-130565000D01*
X157212405Y-130587568D01*
X156991005Y-130654413D01*
X156823564Y-130743443D01*
X156828429Y-130740355D01*
X156961215Y-130613904D01*
X157066911Y-130464070D01*
X157141492Y-130296560D01*
X157182116Y-130117754D01*
X157185040Y-129908319D01*
X157149425Y-129728448D01*
X157079550Y-129558920D01*
X156978079Y-129406193D01*
X156848875Y-129276084D01*
X156696860Y-129173549D01*
X156527825Y-129102493D01*
X156348207Y-129065623D01*
X156164849Y-129064343D01*
X155984733Y-129098701D01*
X155814722Y-129167390D01*
X155661291Y-129267793D01*
X155530283Y-129396086D01*
X155426689Y-129547381D01*
X155354454Y-129715916D01*
X155316331Y-129895272D01*
X155313771Y-130078617D01*
X108914226Y-130078617D01*
X108373528Y-129078617D01*
X136563771Y-129078617D01*
X136596872Y-129258968D01*
X136664372Y-129429454D01*
X136763701Y-129583583D01*
X136891076Y-129715484D01*
X137041644Y-129820131D01*
X137209671Y-129893540D01*
X137388757Y-129932915D01*
X137572079Y-129936755D01*
X137752657Y-129904914D01*
X137923610Y-129838606D01*
X138078429Y-129740355D01*
X138211215Y-129613904D01*
X138316911Y-129464070D01*
X138391492Y-129296560D01*
X138432116Y-129117754D01*
X138435040Y-128908319D01*
X138399425Y-128728448D01*
X138329550Y-128558920D01*
X138228079Y-128406193D01*
X138098875Y-128276084D01*
X137946860Y-128173549D01*
X137777825Y-128102493D01*
X137598207Y-128065623D01*
X137414849Y-128064343D01*
X137234733Y-128098701D01*
X137064722Y-128167390D01*
X136911291Y-128267793D01*
X136780283Y-128396086D01*
X136676689Y-128547381D01*
X136604454Y-128715916D01*
X136566331Y-128895272D01*
X136563771Y-129078617D01*
X108373528Y-129078617D01*
X108320341Y-128980250D01*
X108285629Y-128928787D01*
X108251629Y-128876830D01*
X108245584Y-128869418D01*
X107312559Y-127741584D01*
X107268505Y-127697836D01*
X107225066Y-127653478D01*
X107217697Y-127647382D01*
X106083377Y-126722254D01*
X106031674Y-126687903D01*
X105980438Y-126652821D01*
X105972025Y-126648272D01*
X104679616Y-125961086D01*
X104622194Y-125937418D01*
X104565151Y-125912970D01*
X104556015Y-125910141D01*
X103154745Y-125487072D01*
X103093812Y-125475007D01*
X103033114Y-125462105D01*
X103023602Y-125461105D01*
X101566844Y-125318269D01*
X101538111Y-125318269D01*
X101509564Y-125315067D01*
X101500000Y-125315000D01*
X96685000Y-125315000D01*
X96685000Y-125187942D01*
X115261862Y-125187942D01*
X115340992Y-125619086D01*
X115502357Y-126026649D01*
X115739813Y-126395107D01*
X116044313Y-126710426D01*
X116404260Y-126960596D01*
X116805943Y-127136087D01*
X117234063Y-127230215D01*
X117672312Y-127239395D01*
X118103998Y-127163278D01*
X118512678Y-127004761D01*
X118882785Y-126769884D01*
X119200222Y-126467592D01*
X119452899Y-126109401D01*
X119631190Y-125708952D01*
X119728305Y-125281500D01*
X119728351Y-125278166D01*
X167901439Y-125278166D01*
X167936550Y-125491588D01*
X168140826Y-125582458D01*
X168358905Y-125631731D01*
X168582406Y-125637511D01*
X168802740Y-125599577D01*
X169011440Y-125519387D01*
X169063450Y-125491588D01*
X169098561Y-125278166D01*
X169008337Y-125187942D01*
X190261862Y-125187942D01*
X190340992Y-125619086D01*
X190502357Y-126026649D01*
X190739813Y-126395107D01*
X191044313Y-126710426D01*
X191404260Y-126960596D01*
X191805943Y-127136087D01*
X192234063Y-127230215D01*
X192672312Y-127239395D01*
X193103998Y-127163278D01*
X193512678Y-127004761D01*
X193882785Y-126769884D01*
X194200222Y-126467592D01*
X194452899Y-126109401D01*
X194631190Y-125708952D01*
X194728305Y-125281500D01*
X194735296Y-124780827D01*
X194650154Y-124350830D01*
X194483114Y-123945560D01*
X194240537Y-123580453D01*
X193931664Y-123269416D01*
X193568259Y-123024296D01*
X193164165Y-122854430D01*
X192734772Y-122766289D01*
X192296438Y-122763229D01*
X191865857Y-122845366D01*
X191459430Y-123009573D01*
X191092638Y-123249595D01*
X190779453Y-123556289D01*
X190531802Y-123917974D01*
X190359119Y-124320873D01*
X190267982Y-124749639D01*
X190261862Y-125187942D01*
X169008337Y-125187942D01*
X168500000Y-124679605D01*
X167901439Y-125278166D01*
X119728351Y-125278166D01*
X119735296Y-124780827D01*
X119696008Y-124582406D01*
X167362489Y-124582406D01*
X167400423Y-124802740D01*
X167480613Y-125011440D01*
X167508412Y-125063450D01*
X167721834Y-125098561D01*
X168320395Y-124500000D01*
X168679605Y-124500000D01*
X169278166Y-125098561D01*
X169491588Y-125063450D01*
X169582458Y-124859174D01*
X169631731Y-124641095D01*
X169637511Y-124417594D01*
X169599577Y-124197260D01*
X169519387Y-123988560D01*
X169491588Y-123936550D01*
X169278166Y-123901439D01*
X168679605Y-124500000D01*
X168320395Y-124500000D01*
X167721834Y-123901439D01*
X167508412Y-123936550D01*
X167417542Y-124140826D01*
X167368269Y-124358905D01*
X167362489Y-124582406D01*
X119696008Y-124582406D01*
X119650154Y-124350830D01*
X119483114Y-123945560D01*
X119334471Y-123721834D01*
X167901439Y-123721834D01*
X168500000Y-124320395D01*
X169098561Y-123721834D01*
X169063450Y-123508412D01*
X168859174Y-123417542D01*
X168641095Y-123368269D01*
X168417594Y-123362489D01*
X168197260Y-123400423D01*
X167988560Y-123480613D01*
X167936550Y-123508412D01*
X167901439Y-123721834D01*
X119334471Y-123721834D01*
X119240537Y-123580453D01*
X118931664Y-123269416D01*
X118568259Y-123024296D01*
X118164165Y-122854430D01*
X117734772Y-122766289D01*
X117296438Y-122763229D01*
X116865857Y-122845366D01*
X116459430Y-123009573D01*
X116092638Y-123249595D01*
X115779453Y-123556289D01*
X115531802Y-123917974D01*
X115359119Y-124320873D01*
X115267982Y-124749639D01*
X115261862Y-125187942D01*
X96685000Y-125187942D01*
X96685000Y-120078617D01*
X148063771Y-120078617D01*
X148096872Y-120258968D01*
X148164372Y-120429454D01*
X148263701Y-120583583D01*
X148391076Y-120715484D01*
X148541644Y-120820131D01*
X148709671Y-120893540D01*
X148888757Y-120932915D01*
X149072079Y-120936755D01*
X149252657Y-120904914D01*
X149423610Y-120838606D01*
X149578429Y-120740355D01*
X149711215Y-120613904D01*
X149816911Y-120464070D01*
X149891492Y-120296560D01*
X149932116Y-120117754D01*
X149932662Y-120078617D01*
X153063771Y-120078617D01*
X153096872Y-120258968D01*
X153164372Y-120429454D01*
X153263701Y-120583583D01*
X153391076Y-120715484D01*
X153541644Y-120820131D01*
X153709671Y-120893540D01*
X153888757Y-120932915D01*
X154072079Y-120936755D01*
X154252657Y-120904914D01*
X154423610Y-120838606D01*
X154578429Y-120740355D01*
X154711215Y-120613904D01*
X154816911Y-120464070D01*
X154891492Y-120296560D01*
X154932116Y-120117754D01*
X154932662Y-120078617D01*
X155563771Y-120078617D01*
X155596872Y-120258968D01*
X155664372Y-120429454D01*
X155763701Y-120583583D01*
X155891076Y-120715484D01*
X156041644Y-120820131D01*
X156209671Y-120893540D01*
X156388757Y-120932915D01*
X156572079Y-120936755D01*
X156752657Y-120904914D01*
X156923610Y-120838606D01*
X157078429Y-120740355D01*
X157211215Y-120613904D01*
X157316911Y-120464070D01*
X157391492Y-120296560D01*
X157432116Y-120117754D01*
X157432662Y-120078617D01*
X160563771Y-120078617D01*
X160596872Y-120258968D01*
X160664372Y-120429454D01*
X160763701Y-120583583D01*
X160891076Y-120715484D01*
X161041644Y-120820131D01*
X161209671Y-120893540D01*
X161388757Y-120932915D01*
X161572079Y-120936755D01*
X161752657Y-120904914D01*
X161923610Y-120838606D01*
X162078429Y-120740355D01*
X162211215Y-120613904D01*
X162316911Y-120464070D01*
X162391492Y-120296560D01*
X162432116Y-120117754D01*
X162432662Y-120078617D01*
X176563771Y-120078617D01*
X176596872Y-120258968D01*
X176664372Y-120429454D01*
X176763701Y-120583583D01*
X176891076Y-120715484D01*
X177041644Y-120820131D01*
X177209671Y-120893540D01*
X177388757Y-120932915D01*
X177572079Y-120936755D01*
X177752657Y-120904914D01*
X177923610Y-120838606D01*
X178078429Y-120740355D01*
X178211215Y-120613904D01*
X178316911Y-120464070D01*
X178391492Y-120296560D01*
X178432116Y-120117754D01*
X178432662Y-120078617D01*
X181563771Y-120078617D01*
X181596872Y-120258968D01*
X181664372Y-120429454D01*
X181763701Y-120583583D01*
X181891076Y-120715484D01*
X182041644Y-120820131D01*
X182209671Y-120893540D01*
X182388757Y-120932915D01*
X182572079Y-120936755D01*
X182752657Y-120904914D01*
X182923610Y-120838606D01*
X183078429Y-120740355D01*
X183211215Y-120613904D01*
X183316911Y-120464070D01*
X183391492Y-120296560D01*
X183432116Y-120117754D01*
X183435040Y-119908319D01*
X183399425Y-119728448D01*
X183329550Y-119558920D01*
X183228079Y-119406193D01*
X183098875Y-119276084D01*
X182946860Y-119173549D01*
X182777825Y-119102493D01*
X182598207Y-119065623D01*
X182414849Y-119064343D01*
X182234733Y-119098701D01*
X182064722Y-119167390D01*
X181911291Y-119267793D01*
X181780283Y-119396086D01*
X181676689Y-119547381D01*
X181604454Y-119715916D01*
X181566331Y-119895272D01*
X181563771Y-120078617D01*
X178432662Y-120078617D01*
X178435040Y-119908319D01*
X178399425Y-119728448D01*
X178329550Y-119558920D01*
X178228079Y-119406193D01*
X178098875Y-119276084D01*
X177946860Y-119173549D01*
X177777825Y-119102493D01*
X177598207Y-119065623D01*
X177414849Y-119064343D01*
X177234733Y-119098701D01*
X177064722Y-119167390D01*
X176911291Y-119267793D01*
X176780283Y-119396086D01*
X176676689Y-119547381D01*
X176604454Y-119715916D01*
X176566331Y-119895272D01*
X176563771Y-120078617D01*
X162432662Y-120078617D01*
X162435040Y-119908319D01*
X162399425Y-119728448D01*
X162329550Y-119558920D01*
X162228079Y-119406193D01*
X162098875Y-119276084D01*
X161946860Y-119173549D01*
X161777825Y-119102493D01*
X161598207Y-119065623D01*
X161414849Y-119064343D01*
X161234733Y-119098701D01*
X161064722Y-119167390D01*
X160911291Y-119267793D01*
X160780283Y-119396086D01*
X160676689Y-119547381D01*
X160604454Y-119715916D01*
X160566331Y-119895272D01*
X160563771Y-120078617D01*
X157432662Y-120078617D01*
X157435040Y-119908319D01*
X157399425Y-119728448D01*
X157329550Y-119558920D01*
X157228079Y-119406193D01*
X157098875Y-119276084D01*
X156946860Y-119173549D01*
X156777825Y-119102493D01*
X156598207Y-119065623D01*
X156414849Y-119064343D01*
X156234733Y-119098701D01*
X156064722Y-119167390D01*
X155911291Y-119267793D01*
X155780283Y-119396086D01*
X155676689Y-119547381D01*
X155604454Y-119715916D01*
X155566331Y-119895272D01*
X155563771Y-120078617D01*
X154932662Y-120078617D01*
X154935040Y-119908319D01*
X154899425Y-119728448D01*
X154829550Y-119558920D01*
X154728079Y-119406193D01*
X154598875Y-119276084D01*
X154446860Y-119173549D01*
X154277825Y-119102493D01*
X154098207Y-119065623D01*
X153914849Y-119064343D01*
X153734733Y-119098701D01*
X153564722Y-119167390D01*
X153411291Y-119267793D01*
X153280283Y-119396086D01*
X153176689Y-119547381D01*
X153104454Y-119715916D01*
X153066331Y-119895272D01*
X153063771Y-120078617D01*
X149932662Y-120078617D01*
X149935040Y-119908319D01*
X149899425Y-119728448D01*
X149829550Y-119558920D01*
X149728079Y-119406193D01*
X149598875Y-119276084D01*
X149446860Y-119173549D01*
X149277825Y-119102493D01*
X149098207Y-119065623D01*
X148914849Y-119064343D01*
X148734733Y-119098701D01*
X148564722Y-119167390D01*
X148411291Y-119267793D01*
X148280283Y-119396086D01*
X148176689Y-119547381D01*
X148104454Y-119715916D01*
X148066331Y-119895272D01*
X148063771Y-120078617D01*
X96685000Y-120078617D01*
X96685000Y-118578617D01*
X136563771Y-118578617D01*
X136596872Y-118758968D01*
X136664372Y-118929454D01*
X136763701Y-119083583D01*
X136891076Y-119215484D01*
X137041644Y-119320131D01*
X137209671Y-119393540D01*
X137388757Y-119432915D01*
X137572079Y-119436755D01*
X137752657Y-119404914D01*
X137923610Y-119338606D01*
X138078429Y-119240355D01*
X138211215Y-119113904D01*
X138316911Y-118964070D01*
X138391492Y-118796560D01*
X138432116Y-118617754D01*
X138432662Y-118578617D01*
X168563771Y-118578617D01*
X168596872Y-118758968D01*
X168664372Y-118929454D01*
X168763701Y-119083583D01*
X168891076Y-119215484D01*
X169041644Y-119320131D01*
X169209671Y-119393540D01*
X169388757Y-119432915D01*
X169572079Y-119436755D01*
X169752657Y-119404914D01*
X169923610Y-119338606D01*
X170078429Y-119240355D01*
X170211215Y-119113904D01*
X170316911Y-118964070D01*
X170391492Y-118796560D01*
X170432116Y-118617754D01*
X170435040Y-118408319D01*
X170399425Y-118228448D01*
X170329550Y-118058920D01*
X170228079Y-117906193D01*
X170098875Y-117776084D01*
X169946860Y-117673549D01*
X169777825Y-117602493D01*
X169598207Y-117565623D01*
X169414849Y-117564343D01*
X169234733Y-117598701D01*
X169064722Y-117667390D01*
X168911291Y-117767793D01*
X168780283Y-117896086D01*
X168676689Y-118047381D01*
X168604454Y-118215916D01*
X168566331Y-118395272D01*
X168563771Y-118578617D01*
X138432662Y-118578617D01*
X138435040Y-118408319D01*
X138399425Y-118228448D01*
X138329550Y-118058920D01*
X138228079Y-117906193D01*
X138098875Y-117776084D01*
X137946860Y-117673549D01*
X137777825Y-117602493D01*
X137598207Y-117565623D01*
X137414849Y-117564343D01*
X137234733Y-117598701D01*
X137064722Y-117667390D01*
X136911291Y-117767793D01*
X136780283Y-117896086D01*
X136676689Y-118047381D01*
X136604454Y-118215916D01*
X136566331Y-118395272D01*
X136563771Y-118578617D01*
X96685000Y-118578617D01*
X96685000Y-117078617D01*
X122063771Y-117078617D01*
X122096872Y-117258968D01*
X122164372Y-117429454D01*
X122263701Y-117583583D01*
X122391076Y-117715484D01*
X122541644Y-117820131D01*
X122709671Y-117893540D01*
X122888757Y-117932915D01*
X123072079Y-117936755D01*
X123252657Y-117904914D01*
X123423610Y-117838606D01*
X123578429Y-117740355D01*
X123711215Y-117613904D01*
X123816911Y-117464070D01*
X123891492Y-117296560D01*
X123932116Y-117117754D01*
X123932662Y-117078617D01*
X197063771Y-117078617D01*
X197096872Y-117258968D01*
X197164372Y-117429454D01*
X197263701Y-117583583D01*
X197391076Y-117715484D01*
X197541644Y-117820131D01*
X197709671Y-117893540D01*
X197888757Y-117932915D01*
X198072079Y-117936755D01*
X198252657Y-117904914D01*
X198423610Y-117838606D01*
X198578429Y-117740355D01*
X198711215Y-117613904D01*
X198816911Y-117464070D01*
X198891492Y-117296560D01*
X198932116Y-117117754D01*
X198935040Y-116908319D01*
X198899425Y-116728448D01*
X198829550Y-116558920D01*
X198728079Y-116406193D01*
X198598875Y-116276084D01*
X198446860Y-116173549D01*
X198277825Y-116102493D01*
X198098207Y-116065623D01*
X197914849Y-116064343D01*
X197734733Y-116098701D01*
X197564722Y-116167390D01*
X197411291Y-116267793D01*
X197280283Y-116396086D01*
X197176689Y-116547381D01*
X197104454Y-116715916D01*
X197066331Y-116895272D01*
X197063771Y-117078617D01*
X123932662Y-117078617D01*
X123935040Y-116908319D01*
X123899425Y-116728448D01*
X123829550Y-116558920D01*
X123728079Y-116406193D01*
X123598875Y-116276084D01*
X123446860Y-116173549D01*
X123277825Y-116102493D01*
X123098207Y-116065623D01*
X122914849Y-116064343D01*
X122734733Y-116098701D01*
X122564722Y-116167390D01*
X122411291Y-116267793D01*
X122280283Y-116396086D01*
X122176689Y-116547381D01*
X122104454Y-116715916D01*
X122066331Y-116895272D01*
X122063771Y-117078617D01*
X96685000Y-117078617D01*
X96685000Y-116078617D01*
X98063771Y-116078617D01*
X98096872Y-116258968D01*
X98164372Y-116429454D01*
X98263701Y-116583583D01*
X98391076Y-116715484D01*
X98541644Y-116820131D01*
X98709671Y-116893540D01*
X98888757Y-116932915D01*
X99072079Y-116936755D01*
X99252657Y-116904914D01*
X99423610Y-116838606D01*
X99578429Y-116740355D01*
X99711215Y-116613904D01*
X99816911Y-116464070D01*
X99891492Y-116296560D01*
X99932116Y-116117754D01*
X99932662Y-116078617D01*
X101563771Y-116078617D01*
X101596872Y-116258968D01*
X101664372Y-116429454D01*
X101763701Y-116583583D01*
X101891076Y-116715484D01*
X102041644Y-116820131D01*
X102209671Y-116893540D01*
X102388757Y-116932915D01*
X102572079Y-116936755D01*
X102752657Y-116904914D01*
X102923610Y-116838606D01*
X103078429Y-116740355D01*
X103211215Y-116613904D01*
X103316911Y-116464070D01*
X103391492Y-116296560D01*
X103432116Y-116117754D01*
X103432662Y-116078617D01*
X106563771Y-116078617D01*
X106596872Y-116258968D01*
X106664372Y-116429454D01*
X106763701Y-116583583D01*
X106891076Y-116715484D01*
X107041644Y-116820131D01*
X107209671Y-116893540D01*
X107388757Y-116932915D01*
X107572079Y-116936755D01*
X107752657Y-116904914D01*
X107923610Y-116838606D01*
X108078429Y-116740355D01*
X108211215Y-116613904D01*
X108316911Y-116464070D01*
X108391492Y-116296560D01*
X108432116Y-116117754D01*
X108435040Y-115908319D01*
X108399425Y-115728448D01*
X108329550Y-115558920D01*
X108228079Y-115406193D01*
X108098875Y-115276084D01*
X107946860Y-115173549D01*
X107777825Y-115102493D01*
X107598207Y-115065623D01*
X107414849Y-115064343D01*
X107234733Y-115098701D01*
X107064722Y-115167390D01*
X106911291Y-115267793D01*
X106780283Y-115396086D01*
X106676689Y-115547381D01*
X106604454Y-115715916D01*
X106566331Y-115895272D01*
X106563771Y-116078617D01*
X103432662Y-116078617D01*
X103435040Y-115908319D01*
X103399425Y-115728448D01*
X103329550Y-115558920D01*
X103228079Y-115406193D01*
X103098875Y-115276084D01*
X102946860Y-115173549D01*
X102777825Y-115102493D01*
X102598207Y-115065623D01*
X102414849Y-115064343D01*
X102234733Y-115098701D01*
X102064722Y-115167390D01*
X101911291Y-115267793D01*
X101780283Y-115396086D01*
X101676689Y-115547381D01*
X101604454Y-115715916D01*
X101566331Y-115895272D01*
X101563771Y-116078617D01*
X99932662Y-116078617D01*
X99935040Y-115908319D01*
X99899425Y-115728448D01*
X99829550Y-115558920D01*
X99728079Y-115406193D01*
X99598875Y-115276084D01*
X99446860Y-115173549D01*
X99277825Y-115102493D01*
X99098207Y-115065623D01*
X98914849Y-115064343D01*
X98734733Y-115098701D01*
X98564722Y-115167390D01*
X98411291Y-115267793D01*
X98280283Y-115396086D01*
X98176689Y-115547381D01*
X98104454Y-115715916D01*
X98066331Y-115895272D01*
X98063771Y-116078617D01*
X96685000Y-116078617D01*
X96685000Y-114150000D01*
X147431928Y-114150000D01*
X147431928Y-115850000D01*
X147439992Y-115951121D01*
X147493106Y-116122634D01*
X147591900Y-116272559D01*
X147728550Y-116389025D01*
X147892237Y-116462810D01*
X148070000Y-116488072D01*
X149770000Y-116488072D01*
X149871121Y-116480008D01*
X150042634Y-116426894D01*
X150192559Y-116328100D01*
X150309025Y-116191450D01*
X150382810Y-116027763D01*
X150383171Y-116025224D01*
X150406287Y-116053567D01*
X150629599Y-116238306D01*
X150884539Y-116376152D01*
X151161399Y-116461854D01*
X151449633Y-116492149D01*
X151738261Y-116465882D01*
X152016291Y-116384053D01*
X152273131Y-116249780D01*
X152499000Y-116068177D01*
X152685294Y-115846161D01*
X152729498Y-115765753D01*
X152763112Y-115828971D01*
X152946287Y-116053567D01*
X153169599Y-116238306D01*
X153424539Y-116376152D01*
X153701399Y-116461854D01*
X153989633Y-116492149D01*
X154278261Y-116465882D01*
X154556291Y-116384053D01*
X154813131Y-116249780D01*
X155039000Y-116068177D01*
X155225294Y-115846161D01*
X155269498Y-115765753D01*
X155303112Y-115828971D01*
X155486287Y-116053567D01*
X155709599Y-116238306D01*
X155964539Y-116376152D01*
X156241399Y-116461854D01*
X156529633Y-116492149D01*
X156818261Y-116465882D01*
X157096291Y-116384053D01*
X157353131Y-116249780D01*
X157579000Y-116068177D01*
X157765294Y-115846161D01*
X157809498Y-115765753D01*
X157843112Y-115828971D01*
X158026287Y-116053567D01*
X158249599Y-116238306D01*
X158504539Y-116376152D01*
X158781399Y-116461854D01*
X159069633Y-116492149D01*
X159358261Y-116465882D01*
X159636291Y-116384053D01*
X159893131Y-116249780D01*
X160119000Y-116068177D01*
X160305294Y-115846161D01*
X160349498Y-115765753D01*
X160383112Y-115828971D01*
X160566287Y-116053567D01*
X160789599Y-116238306D01*
X161044539Y-116376152D01*
X161321399Y-116461854D01*
X161609633Y-116492149D01*
X161898261Y-116465882D01*
X162176291Y-116384053D01*
X162433131Y-116249780D01*
X162659000Y-116068177D01*
X162845294Y-115846161D01*
X162984916Y-115592189D01*
X163072549Y-115315934D01*
X163104855Y-115027919D01*
X163105000Y-115007185D01*
X163105000Y-114992815D01*
X163076718Y-114704377D01*
X162992951Y-114426925D01*
X162856888Y-114171029D01*
X162673713Y-113946433D01*
X162450401Y-113761694D01*
X162195461Y-113623848D01*
X161918601Y-113538146D01*
X161630367Y-113507851D01*
X161341739Y-113534118D01*
X161063709Y-113615947D01*
X160806869Y-113750220D01*
X160581000Y-113931823D01*
X160394706Y-114153839D01*
X160350502Y-114234247D01*
X160316888Y-114171029D01*
X160133713Y-113946433D01*
X159910401Y-113761694D01*
X159655461Y-113623848D01*
X159378601Y-113538146D01*
X159090367Y-113507851D01*
X158801739Y-113534118D01*
X158523709Y-113615947D01*
X158266869Y-113750220D01*
X158041000Y-113931823D01*
X157854706Y-114153839D01*
X157810502Y-114234247D01*
X157776888Y-114171029D01*
X157593713Y-113946433D01*
X157370401Y-113761694D01*
X157115461Y-113623848D01*
X156838601Y-113538146D01*
X156550367Y-113507851D01*
X156261739Y-113534118D01*
X155983709Y-113615947D01*
X155726869Y-113750220D01*
X155501000Y-113931823D01*
X155314706Y-114153839D01*
X155270502Y-114234247D01*
X155236888Y-114171029D01*
X155053713Y-113946433D01*
X154830401Y-113761694D01*
X154575461Y-113623848D01*
X154298601Y-113538146D01*
X154010367Y-113507851D01*
X153721739Y-113534118D01*
X153443709Y-113615947D01*
X153186869Y-113750220D01*
X152961000Y-113931823D01*
X152774706Y-114153839D01*
X152730502Y-114234247D01*
X152696888Y-114171029D01*
X152513713Y-113946433D01*
X152290401Y-113761694D01*
X152035461Y-113623848D01*
X151758601Y-113538146D01*
X151470367Y-113507851D01*
X151181739Y-113534118D01*
X150903709Y-113615947D01*
X150646869Y-113750220D01*
X150421000Y-113931823D01*
X150379189Y-113981651D01*
X150346894Y-113877366D01*
X150248100Y-113727441D01*
X150111450Y-113610975D01*
X149947763Y-113537190D01*
X149770000Y-113511928D01*
X148070000Y-113511928D01*
X147968879Y-113519992D01*
X147797366Y-113573106D01*
X147647441Y-113671900D01*
X147530975Y-113808550D01*
X147457190Y-113972237D01*
X147431928Y-114150000D01*
X96685000Y-114150000D01*
X96685000Y-112595434D01*
X167363508Y-112595434D01*
X167403689Y-112814362D01*
X167485628Y-113021317D01*
X167606204Y-113208414D01*
X167760824Y-113368528D01*
X167943600Y-113495561D01*
X168147569Y-113584672D01*
X168364961Y-113632469D01*
X168587497Y-113637131D01*
X168806701Y-113598479D01*
X169014222Y-113517987D01*
X169202157Y-113398720D01*
X169363347Y-113245221D01*
X169491652Y-113063337D01*
X169582186Y-112859995D01*
X169631499Y-112642942D01*
X169635049Y-112388707D01*
X169591815Y-112170362D01*
X169554001Y-112078617D01*
X174063771Y-112078617D01*
X174096872Y-112258968D01*
X174164372Y-112429454D01*
X174263701Y-112583583D01*
X174391076Y-112715484D01*
X174541644Y-112820131D01*
X174709671Y-112893540D01*
X174888757Y-112932915D01*
X175072079Y-112936755D01*
X175252657Y-112904914D01*
X175423610Y-112838606D01*
X175578429Y-112740355D01*
X175711215Y-112613904D01*
X175816911Y-112464070D01*
X175891492Y-112296560D01*
X175932116Y-112117754D01*
X175932662Y-112078617D01*
X176563771Y-112078617D01*
X176596872Y-112258968D01*
X176664372Y-112429454D01*
X176763701Y-112583583D01*
X176891076Y-112715484D01*
X177041644Y-112820131D01*
X177209671Y-112893540D01*
X177388757Y-112932915D01*
X177572079Y-112936755D01*
X177752657Y-112904914D01*
X177923610Y-112838606D01*
X178078429Y-112740355D01*
X178211215Y-112613904D01*
X178316911Y-112464070D01*
X178391492Y-112296560D01*
X178432116Y-112117754D01*
X178435040Y-111908319D01*
X178399425Y-111728448D01*
X178329550Y-111558920D01*
X178228079Y-111406193D01*
X178098875Y-111276084D01*
X177946860Y-111173549D01*
X177777825Y-111102493D01*
X177598207Y-111065623D01*
X177414849Y-111064343D01*
X177234733Y-111098701D01*
X177064722Y-111167390D01*
X176911291Y-111267793D01*
X176780283Y-111396086D01*
X176676689Y-111547381D01*
X176604454Y-111715916D01*
X176566331Y-111895272D01*
X176563771Y-112078617D01*
X175932662Y-112078617D01*
X175935040Y-111908319D01*
X175899425Y-111728448D01*
X175829550Y-111558920D01*
X175728079Y-111406193D01*
X175598875Y-111276084D01*
X175446860Y-111173549D01*
X175277825Y-111102493D01*
X175098207Y-111065623D01*
X174914849Y-111064343D01*
X174734733Y-111098701D01*
X174564722Y-111167390D01*
X174411291Y-111267793D01*
X174280283Y-111396086D01*
X174176689Y-111547381D01*
X174104454Y-111715916D01*
X174066331Y-111895272D01*
X174063771Y-112078617D01*
X169554001Y-112078617D01*
X169506995Y-111964571D01*
X169383818Y-111779176D01*
X169226977Y-111621236D01*
X169042446Y-111496768D01*
X168837253Y-111410513D01*
X168619214Y-111365756D01*
X168396634Y-111364202D01*
X168177992Y-111405910D01*
X167971615Y-111489292D01*
X167785363Y-111611171D01*
X167626332Y-111766906D01*
X167500579Y-111950564D01*
X167412894Y-112155150D01*
X167366616Y-112372871D01*
X167363508Y-112595434D01*
X96685000Y-112595434D01*
X96685000Y-108078617D01*
X160563771Y-108078617D01*
X160596872Y-108258968D01*
X160664372Y-108429454D01*
X160763701Y-108583583D01*
X160891076Y-108715484D01*
X161041644Y-108820131D01*
X161209671Y-108893540D01*
X161388757Y-108932915D01*
X161572079Y-108936755D01*
X161752657Y-108904914D01*
X161923610Y-108838606D01*
X162078429Y-108740355D01*
X162211215Y-108613904D01*
X162316911Y-108464070D01*
X162391492Y-108296560D01*
X162432116Y-108117754D01*
X162435040Y-107908319D01*
X162399425Y-107728448D01*
X162329550Y-107558920D01*
X162228079Y-107406193D01*
X162098875Y-107276084D01*
X161946860Y-107173549D01*
X161777825Y-107102493D01*
X161598207Y-107065623D01*
X161414849Y-107064343D01*
X161234733Y-107098701D01*
X161064722Y-107167390D01*
X160911291Y-107267793D01*
X160780283Y-107396086D01*
X160676689Y-107547381D01*
X160604454Y-107715916D01*
X160566331Y-107895272D01*
X160563771Y-108078617D01*
X96685000Y-108078617D01*
X96685000Y-107078617D01*
X101563771Y-107078617D01*
X101596872Y-107258968D01*
X101664372Y-107429454D01*
X101763701Y-107583583D01*
X101891076Y-107715484D01*
X102041644Y-107820131D01*
X102209671Y-107893540D01*
X102388757Y-107932915D01*
X102572079Y-107936755D01*
X102752657Y-107904914D01*
X102923610Y-107838606D01*
X103078429Y-107740355D01*
X103211215Y-107613904D01*
X103316911Y-107464070D01*
X103391492Y-107296560D01*
X103432116Y-107117754D01*
X103432662Y-107078617D01*
X104063771Y-107078617D01*
X104096872Y-107258968D01*
X104164372Y-107429454D01*
X104263701Y-107583583D01*
X104391076Y-107715484D01*
X104541644Y-107820131D01*
X104709671Y-107893540D01*
X104888757Y-107932915D01*
X105072079Y-107936755D01*
X105252657Y-107904914D01*
X105423610Y-107838606D01*
X105578429Y-107740355D01*
X105711215Y-107613904D01*
X105816911Y-107464070D01*
X105891492Y-107296560D01*
X105932116Y-107117754D01*
X105935040Y-106908319D01*
X105899425Y-106728448D01*
X105829550Y-106558920D01*
X105728079Y-106406193D01*
X105598875Y-106276084D01*
X105572800Y-106258496D01*
X166612522Y-106258496D01*
X166679254Y-106622091D01*
X166815338Y-106965799D01*
X167015590Y-107276529D01*
X167272382Y-107542446D01*
X167575935Y-107753420D01*
X167914684Y-107901416D01*
X168275729Y-107980797D01*
X168645315Y-107988539D01*
X169009367Y-107924346D01*
X169354017Y-107790666D01*
X169666137Y-107592588D01*
X169933840Y-107337658D01*
X170146929Y-107035586D01*
X170297286Y-106697877D01*
X170379185Y-106337396D01*
X170380286Y-106258496D01*
X179412522Y-106258496D01*
X179479254Y-106622091D01*
X179615338Y-106965799D01*
X179815590Y-107276529D01*
X180072382Y-107542446D01*
X180375935Y-107753420D01*
X180714684Y-107901416D01*
X181075729Y-107980797D01*
X181445315Y-107988539D01*
X181809367Y-107924346D01*
X182154017Y-107790666D01*
X182466137Y-107592588D01*
X182733840Y-107337658D01*
X182946929Y-107035586D01*
X183097286Y-106697877D01*
X183179185Y-106337396D01*
X183185081Y-105915166D01*
X183113279Y-105552539D01*
X182972410Y-105210764D01*
X182767839Y-104902860D01*
X182507358Y-104640555D01*
X182200890Y-104433839D01*
X181860107Y-104290587D01*
X181497990Y-104216255D01*
X181128331Y-104213674D01*
X180765211Y-104282943D01*
X180422461Y-104421423D01*
X180113137Y-104623840D01*
X179849019Y-104882482D01*
X179640169Y-105187500D01*
X179494542Y-105527275D01*
X179417683Y-105888864D01*
X179412522Y-106258496D01*
X170380286Y-106258496D01*
X170385081Y-105915166D01*
X170313279Y-105552539D01*
X170172410Y-105210764D01*
X169967839Y-104902860D01*
X169707358Y-104640555D01*
X169400890Y-104433839D01*
X169060107Y-104290587D01*
X168697990Y-104216255D01*
X168328331Y-104213674D01*
X167965211Y-104282943D01*
X167622461Y-104421423D01*
X167313137Y-104623840D01*
X167049019Y-104882482D01*
X166840169Y-105187500D01*
X166694542Y-105527275D01*
X166617683Y-105888864D01*
X166612522Y-106258496D01*
X105572800Y-106258496D01*
X105446860Y-106173549D01*
X105277825Y-106102493D01*
X105098207Y-106065623D01*
X104914849Y-106064343D01*
X104734733Y-106098701D01*
X104564722Y-106167390D01*
X104411291Y-106267793D01*
X104280283Y-106396086D01*
X104176689Y-106547381D01*
X104104454Y-106715916D01*
X104066331Y-106895272D01*
X104063771Y-107078617D01*
X103432662Y-107078617D01*
X103435040Y-106908319D01*
X103399425Y-106728448D01*
X103329550Y-106558920D01*
X103228079Y-106406193D01*
X103098875Y-106276084D01*
X102946860Y-106173549D01*
X102777825Y-106102493D01*
X102598207Y-106065623D01*
X102414849Y-106064343D01*
X102234733Y-106098701D01*
X102064722Y-106167390D01*
X101911291Y-106267793D01*
X101780283Y-106396086D01*
X101676689Y-106547381D01*
X101604454Y-106715916D01*
X101566331Y-106895272D01*
X101563771Y-107078617D01*
X96685000Y-107078617D01*
X96685000Y-92078617D01*
X122063771Y-92078617D01*
X122096872Y-92258968D01*
X122164372Y-92429454D01*
X122263701Y-92583583D01*
X122391076Y-92715484D01*
X122541644Y-92820131D01*
X122709671Y-92893540D01*
X122888757Y-92932915D01*
X123072079Y-92936755D01*
X123252657Y-92904914D01*
X123423610Y-92838606D01*
X123578429Y-92740355D01*
X123711215Y-92613904D01*
X123816911Y-92464070D01*
X123891492Y-92296560D01*
X123932116Y-92117754D01*
X123935040Y-91908319D01*
X123899425Y-91728448D01*
X123829550Y-91558920D01*
X123728079Y-91406193D01*
X123598875Y-91276084D01*
X123446860Y-91173549D01*
X123277825Y-91102493D01*
X123098207Y-91065623D01*
X122914849Y-91064343D01*
X122734733Y-91098701D01*
X122564722Y-91167390D01*
X122411291Y-91267793D01*
X122280283Y-91396086D01*
X122176689Y-91547381D01*
X122104454Y-91715916D01*
X122066331Y-91895272D01*
X122063771Y-92078617D01*
X96685000Y-92078617D01*
X96685000Y-91078617D01*
X98063771Y-91078617D01*
X98096872Y-91258968D01*
X98164372Y-91429454D01*
X98263701Y-91583583D01*
X98391076Y-91715484D01*
X98541644Y-91820131D01*
X98709671Y-91893540D01*
X98888757Y-91932915D01*
X99072079Y-91936755D01*
X99252657Y-91904914D01*
X99423610Y-91838606D01*
X99578429Y-91740355D01*
X99711215Y-91613904D01*
X99816911Y-91464070D01*
X99891492Y-91296560D01*
X99932116Y-91117754D01*
X99932662Y-91078617D01*
X101563771Y-91078617D01*
X101596872Y-91258968D01*
X101664372Y-91429454D01*
X101763701Y-91583583D01*
X101891076Y-91715484D01*
X102041644Y-91820131D01*
X102209671Y-91893540D01*
X102388757Y-91932915D01*
X102572079Y-91936755D01*
X102752657Y-91904914D01*
X102923610Y-91838606D01*
X103078429Y-91740355D01*
X103211215Y-91613904D01*
X103316911Y-91464070D01*
X103391492Y-91296560D01*
X103432116Y-91117754D01*
X103432662Y-91078617D01*
X106563771Y-91078617D01*
X106596872Y-91258968D01*
X106664372Y-91429454D01*
X106763701Y-91583583D01*
X106891076Y-91715484D01*
X107041644Y-91820131D01*
X107209671Y-91893540D01*
X107388757Y-91932915D01*
X107572079Y-91936755D01*
X107752657Y-91904914D01*
X107923610Y-91838606D01*
X108078429Y-91740355D01*
X108211215Y-91613904D01*
X108316911Y-91464070D01*
X108391492Y-91296560D01*
X108432116Y-91117754D01*
X108435040Y-90908319D01*
X108399425Y-90728448D01*
X108329550Y-90558920D01*
X108228079Y-90406193D01*
X108098875Y-90276084D01*
X107946860Y-90173549D01*
X107777825Y-90102493D01*
X107598207Y-90065623D01*
X107414849Y-90064343D01*
X107234733Y-90098701D01*
X107064722Y-90167390D01*
X106911291Y-90267793D01*
X106780283Y-90396086D01*
X106676689Y-90547381D01*
X106604454Y-90715916D01*
X106566331Y-90895272D01*
X106563771Y-91078617D01*
X103432662Y-91078617D01*
X103435040Y-90908319D01*
X103399425Y-90728448D01*
X103329550Y-90558920D01*
X103228079Y-90406193D01*
X103098875Y-90276084D01*
X102946860Y-90173549D01*
X102777825Y-90102493D01*
X102598207Y-90065623D01*
X102414849Y-90064343D01*
X102234733Y-90098701D01*
X102064722Y-90167390D01*
X101911291Y-90267793D01*
X101780283Y-90396086D01*
X101676689Y-90547381D01*
X101604454Y-90715916D01*
X101566331Y-90895272D01*
X101563771Y-91078617D01*
X99932662Y-91078617D01*
X99935040Y-90908319D01*
X99899425Y-90728448D01*
X99829550Y-90558920D01*
X99728079Y-90406193D01*
X99598875Y-90276084D01*
X99446860Y-90173549D01*
X99277825Y-90102493D01*
X99098207Y-90065623D01*
X98914849Y-90064343D01*
X98734733Y-90098701D01*
X98564722Y-90167390D01*
X98411291Y-90267793D01*
X98280283Y-90396086D01*
X98176689Y-90547381D01*
X98104454Y-90715916D01*
X98066331Y-90895272D01*
X98063771Y-91078617D01*
X96685000Y-91078617D01*
X96685000Y-84578617D01*
X116563771Y-84578617D01*
X116596872Y-84758968D01*
X116664372Y-84929454D01*
X116763701Y-85083583D01*
X116891076Y-85215484D01*
X117041644Y-85320131D01*
X117209671Y-85393540D01*
X117388757Y-85432915D01*
X117572079Y-85436755D01*
X117752657Y-85404914D01*
X117923610Y-85338606D01*
X118078429Y-85240355D01*
X118211215Y-85113904D01*
X118236107Y-85078617D01*
X143813771Y-85078617D01*
X143846872Y-85258968D01*
X143914372Y-85429454D01*
X144013701Y-85583583D01*
X144141076Y-85715484D01*
X144291644Y-85820131D01*
X144459671Y-85893540D01*
X144638757Y-85932915D01*
X144822079Y-85936755D01*
X145002657Y-85904914D01*
X145173610Y-85838606D01*
X145328429Y-85740355D01*
X145461215Y-85613904D01*
X145566911Y-85464070D01*
X145641492Y-85296560D01*
X145682116Y-85117754D01*
X145685040Y-84908319D01*
X145649425Y-84728448D01*
X145579550Y-84558920D01*
X145478079Y-84406193D01*
X145348875Y-84276084D01*
X145196860Y-84173549D01*
X145027825Y-84102493D01*
X144848207Y-84065623D01*
X144664849Y-84064343D01*
X144484733Y-84098701D01*
X144314722Y-84167390D01*
X144161291Y-84267793D01*
X144030283Y-84396086D01*
X143926689Y-84547381D01*
X143854454Y-84715916D01*
X143816331Y-84895272D01*
X143813771Y-85078617D01*
X118236107Y-85078617D01*
X118316911Y-84964070D01*
X118391492Y-84796560D01*
X118432116Y-84617754D01*
X118435040Y-84408319D01*
X118399425Y-84228448D01*
X118329550Y-84058920D01*
X118228079Y-83906193D01*
X118098875Y-83776084D01*
X117946860Y-83673549D01*
X117777825Y-83602493D01*
X117598207Y-83565623D01*
X117414849Y-83564343D01*
X117234733Y-83598701D01*
X117064722Y-83667390D01*
X116911291Y-83767793D01*
X116780283Y-83896086D01*
X116676689Y-84047381D01*
X116604454Y-84215916D01*
X116566331Y-84395272D01*
X116563771Y-84578617D01*
X96685000Y-84578617D01*
X96685000Y-83078617D01*
X120063771Y-83078617D01*
X120096872Y-83258968D01*
X120164372Y-83429454D01*
X120263701Y-83583583D01*
X120391076Y-83715484D01*
X120541644Y-83820131D01*
X120709671Y-83893540D01*
X120888757Y-83932915D01*
X121072079Y-83936755D01*
X121252657Y-83904914D01*
X121423610Y-83838606D01*
X121578429Y-83740355D01*
X121711215Y-83613904D01*
X121816911Y-83464070D01*
X121891492Y-83296560D01*
X121932116Y-83117754D01*
X121935040Y-82908319D01*
X121899425Y-82728448D01*
X121829550Y-82558920D01*
X121728079Y-82406193D01*
X121598875Y-82276084D01*
X121446860Y-82173549D01*
X121277825Y-82102493D01*
X121098207Y-82065623D01*
X120914849Y-82064343D01*
X120734733Y-82098701D01*
X120564722Y-82167390D01*
X120411291Y-82267793D01*
X120280283Y-82396086D01*
X120176689Y-82547381D01*
X120104454Y-82715916D01*
X120066331Y-82895272D01*
X120063771Y-83078617D01*
X96685000Y-83078617D01*
X96685000Y-82078617D01*
X101563771Y-82078617D01*
X101596872Y-82258968D01*
X101664372Y-82429454D01*
X101763701Y-82583583D01*
X101891076Y-82715484D01*
X102041644Y-82820131D01*
X102209671Y-82893540D01*
X102388757Y-82932915D01*
X102572079Y-82936755D01*
X102752657Y-82904914D01*
X102923610Y-82838606D01*
X103078429Y-82740355D01*
X103211215Y-82613904D01*
X103316911Y-82464070D01*
X103391492Y-82296560D01*
X103432116Y-82117754D01*
X103432662Y-82078617D01*
X104063771Y-82078617D01*
X104096872Y-82258968D01*
X104164372Y-82429454D01*
X104263701Y-82583583D01*
X104391076Y-82715484D01*
X104541644Y-82820131D01*
X104709671Y-82893540D01*
X104888757Y-82932915D01*
X105072079Y-82936755D01*
X105252657Y-82904914D01*
X105423610Y-82838606D01*
X105578429Y-82740355D01*
X105711215Y-82613904D01*
X105816911Y-82464070D01*
X105891492Y-82296560D01*
X105932116Y-82117754D01*
X105935040Y-81908319D01*
X105899425Y-81728448D01*
X105829550Y-81558920D01*
X105728079Y-81406193D01*
X105598875Y-81276084D01*
X105446860Y-81173549D01*
X105277825Y-81102493D01*
X105098207Y-81065623D01*
X104914849Y-81064343D01*
X104734733Y-81098701D01*
X104564722Y-81167390D01*
X104411291Y-81267793D01*
X104280283Y-81396086D01*
X104176689Y-81547381D01*
X104104454Y-81715916D01*
X104066331Y-81895272D01*
X104063771Y-82078617D01*
X103432662Y-82078617D01*
X103435040Y-81908319D01*
X103399425Y-81728448D01*
X103329550Y-81558920D01*
X103228079Y-81406193D01*
X103098875Y-81276084D01*
X102946860Y-81173549D01*
X102777825Y-81102493D01*
X102598207Y-81065623D01*
X102414849Y-81064343D01*
X102234733Y-81098701D01*
X102064722Y-81167390D01*
X101911291Y-81267793D01*
X101780283Y-81396086D01*
X101676689Y-81547381D01*
X101604454Y-81715916D01*
X101566331Y-81895272D01*
X101563771Y-82078617D01*
X96685000Y-82078617D01*
X96685000Y-77850000D01*
X128461928Y-77850000D01*
X128461928Y-79650000D01*
X128469992Y-79751121D01*
X128523106Y-79922634D01*
X128621900Y-80072559D01*
X128758550Y-80189025D01*
X128876143Y-80242032D01*
X128818432Y-80298547D01*
X128648361Y-80546930D01*
X128529773Y-80823617D01*
X128467186Y-81118067D01*
X128462983Y-81419067D01*
X128517324Y-81715150D01*
X128628140Y-81995040D01*
X128791210Y-82248075D01*
X129000322Y-82464617D01*
X129247512Y-82636419D01*
X129523364Y-82756935D01*
X129817371Y-82821577D01*
X130118334Y-82827881D01*
X130414789Y-82775608D01*
X130695446Y-82666748D01*
X130834318Y-82578617D01*
X149063771Y-82578617D01*
X149096872Y-82758968D01*
X149164372Y-82929454D01*
X149263701Y-83083583D01*
X149391076Y-83215484D01*
X149541644Y-83320131D01*
X149709671Y-83393540D01*
X149888757Y-83432915D01*
X150072079Y-83436755D01*
X150252657Y-83404914D01*
X150423610Y-83338606D01*
X150578429Y-83240355D01*
X150711215Y-83113904D01*
X150816911Y-82964070D01*
X150891492Y-82796560D01*
X150932116Y-82617754D01*
X150935040Y-82408319D01*
X150899425Y-82228448D01*
X150829550Y-82058920D01*
X150728079Y-81906193D01*
X150598875Y-81776084D01*
X150446860Y-81673549D01*
X150277825Y-81602493D01*
X150098207Y-81565623D01*
X149914849Y-81564343D01*
X149734733Y-81598701D01*
X149564722Y-81667390D01*
X149411291Y-81767793D01*
X149280283Y-81896086D01*
X149176689Y-82047381D01*
X149104454Y-82215916D01*
X149066331Y-82395272D01*
X149063771Y-82578617D01*
X130834318Y-82578617D01*
X130949613Y-82505449D01*
X131167610Y-82297854D01*
X131341132Y-82051869D01*
X131463572Y-81776866D01*
X131530265Y-81483317D01*
X131535066Y-81139486D01*
X131476595Y-80844190D01*
X131361882Y-80565874D01*
X131195295Y-80315141D01*
X131122943Y-80242282D01*
X131172634Y-80226894D01*
X131276431Y-80158496D01*
X168112522Y-80158496D01*
X168179254Y-80522091D01*
X168315338Y-80865799D01*
X168515590Y-81176529D01*
X168772382Y-81442446D01*
X169075935Y-81653420D01*
X169414684Y-81801416D01*
X169775729Y-81880797D01*
X170145315Y-81888539D01*
X170509367Y-81824346D01*
X170854017Y-81690666D01*
X171166137Y-81492588D01*
X171433840Y-81237658D01*
X171646929Y-80935586D01*
X171797286Y-80597877D01*
X171879185Y-80237396D01*
X171880286Y-80158496D01*
X198112522Y-80158496D01*
X198179254Y-80522091D01*
X198315338Y-80865799D01*
X198515590Y-81176529D01*
X198772382Y-81442446D01*
X199075935Y-81653420D01*
X199414684Y-81801416D01*
X199775729Y-81880797D01*
X200145315Y-81888539D01*
X200509367Y-81824346D01*
X200854017Y-81690666D01*
X201166137Y-81492588D01*
X201433840Y-81237658D01*
X201646929Y-80935586D01*
X201797286Y-80597877D01*
X201879185Y-80237396D01*
X201885081Y-79815166D01*
X201813279Y-79452539D01*
X201672410Y-79110764D01*
X201467839Y-78802860D01*
X201207358Y-78540555D01*
X200900890Y-78333839D01*
X200560107Y-78190587D01*
X200197990Y-78116255D01*
X199828331Y-78113674D01*
X199465211Y-78182943D01*
X199122461Y-78321423D01*
X198813137Y-78523840D01*
X198549019Y-78782482D01*
X198340169Y-79087500D01*
X198194542Y-79427275D01*
X198117683Y-79788864D01*
X198112522Y-80158496D01*
X171880286Y-80158496D01*
X171885081Y-79815166D01*
X171813279Y-79452539D01*
X171672410Y-79110764D01*
X171467839Y-78802860D01*
X171207358Y-78540555D01*
X170900890Y-78333839D01*
X170560107Y-78190587D01*
X170197990Y-78116255D01*
X169828331Y-78113674D01*
X169465211Y-78182943D01*
X169122461Y-78321423D01*
X168813137Y-78523840D01*
X168549019Y-78782482D01*
X168340169Y-79087500D01*
X168194542Y-79427275D01*
X168117683Y-79788864D01*
X168112522Y-80158496D01*
X131276431Y-80158496D01*
X131322559Y-80128100D01*
X131439025Y-79991450D01*
X131512810Y-79827763D01*
X131538072Y-79650000D01*
X131538072Y-77850000D01*
X131530008Y-77748879D01*
X131477282Y-77578617D01*
X139563771Y-77578617D01*
X139596872Y-77758968D01*
X139664372Y-77929454D01*
X139763701Y-78083583D01*
X139891076Y-78215484D01*
X140041644Y-78320131D01*
X140209671Y-78393540D01*
X140388757Y-78432915D01*
X140572079Y-78436755D01*
X140752657Y-78404914D01*
X140923610Y-78338606D01*
X141078429Y-78240355D01*
X141211215Y-78113904D01*
X141316911Y-77964070D01*
X141391492Y-77796560D01*
X141432116Y-77617754D01*
X141435040Y-77408319D01*
X141399425Y-77228448D01*
X141329550Y-77058920D01*
X141228079Y-76906193D01*
X141098875Y-76776084D01*
X140946860Y-76673549D01*
X140777825Y-76602493D01*
X140598207Y-76565623D01*
X140414849Y-76564343D01*
X140234733Y-76598701D01*
X140064722Y-76667390D01*
X139911291Y-76767793D01*
X139780283Y-76896086D01*
X139676689Y-77047381D01*
X139604454Y-77215916D01*
X139566331Y-77395272D01*
X139563771Y-77578617D01*
X131477282Y-77578617D01*
X131476894Y-77577366D01*
X131378100Y-77427441D01*
X131241450Y-77310975D01*
X131077763Y-77237190D01*
X130900000Y-77211928D01*
X129100000Y-77211928D01*
X128998879Y-77219992D01*
X128827366Y-77273106D01*
X128677441Y-77371900D01*
X128560975Y-77508550D01*
X128487190Y-77672237D01*
X128461928Y-77850000D01*
X96685000Y-77850000D01*
X96685000Y-75078617D01*
X98063771Y-75078617D01*
X98096872Y-75258968D01*
X98164372Y-75429454D01*
X98263701Y-75583583D01*
X98391076Y-75715484D01*
X98541644Y-75820131D01*
X98709671Y-75893540D01*
X98888757Y-75932915D01*
X99072079Y-75936755D01*
X99252657Y-75904914D01*
X99423610Y-75838606D01*
X99578429Y-75740355D01*
X99711215Y-75613904D01*
X99816911Y-75464070D01*
X99891492Y-75296560D01*
X99932116Y-75117754D01*
X99935040Y-74908319D01*
X99899425Y-74728448D01*
X99829550Y-74558920D01*
X99728079Y-74406193D01*
X99598875Y-74276084D01*
X99446860Y-74173549D01*
X99277825Y-74102493D01*
X99098207Y-74065623D01*
X98914849Y-74064343D01*
X98734733Y-74098701D01*
X98564722Y-74167390D01*
X98411291Y-74267793D01*
X98280283Y-74396086D01*
X98176689Y-74547381D01*
X98104454Y-74715916D01*
X98066331Y-74895272D01*
X98063771Y-75078617D01*
X96685000Y-75078617D01*
X96685000Y-73578617D01*
X117563771Y-73578617D01*
X117596872Y-73758968D01*
X117664372Y-73929454D01*
X117763701Y-74083583D01*
X117891076Y-74215484D01*
X118041644Y-74320131D01*
X118209671Y-74393540D01*
X118388757Y-74432915D01*
X118572079Y-74436755D01*
X118752657Y-74404914D01*
X118923610Y-74338606D01*
X119078429Y-74240355D01*
X119211215Y-74113904D01*
X119316911Y-73964070D01*
X119391492Y-73796560D01*
X119432116Y-73617754D01*
X119435040Y-73408319D01*
X119399425Y-73228448D01*
X119329550Y-73058920D01*
X119228079Y-72906193D01*
X119098875Y-72776084D01*
X118946860Y-72673549D01*
X118777825Y-72602493D01*
X118598207Y-72565623D01*
X118414849Y-72564343D01*
X118234733Y-72598701D01*
X118064722Y-72667390D01*
X117911291Y-72767793D01*
X117780283Y-72896086D01*
X117676689Y-73047381D01*
X117604454Y-73215916D01*
X117566331Y-73395272D01*
X117563771Y-73578617D01*
X96685000Y-73578617D01*
X96685000Y-72078617D01*
X113063771Y-72078617D01*
X113096872Y-72258968D01*
X113164372Y-72429454D01*
X113263701Y-72583583D01*
X113391076Y-72715484D01*
X113541644Y-72820131D01*
X113709671Y-72893540D01*
X113888757Y-72932915D01*
X114072079Y-72936755D01*
X114252657Y-72904914D01*
X114423610Y-72838606D01*
X114578429Y-72740355D01*
X114711215Y-72613904D01*
X114816911Y-72464070D01*
X114891492Y-72296560D01*
X114932116Y-72117754D01*
X114935040Y-71908319D01*
X114899425Y-71728448D01*
X114829550Y-71558920D01*
X114728079Y-71406193D01*
X114598875Y-71276084D01*
X114446860Y-71173549D01*
X114277825Y-71102493D01*
X114098207Y-71065623D01*
X113914849Y-71064343D01*
X113734733Y-71098701D01*
X113564722Y-71167390D01*
X113411291Y-71267793D01*
X113280283Y-71396086D01*
X113176689Y-71547381D01*
X113104454Y-71715916D01*
X113066331Y-71895272D01*
X113063771Y-72078617D01*
X96685000Y-72078617D01*
X96685000Y-70078617D01*
X98063771Y-70078617D01*
X98096872Y-70258968D01*
X98164372Y-70429454D01*
X98263701Y-70583583D01*
X98391076Y-70715484D01*
X98541644Y-70820131D01*
X98709671Y-70893540D01*
X98888757Y-70932915D01*
X99072079Y-70936755D01*
X99252657Y-70904914D01*
X99423610Y-70838606D01*
X99578429Y-70740355D01*
X99711215Y-70613904D01*
X99816911Y-70464070D01*
X99891492Y-70296560D01*
X99932116Y-70117754D01*
X99932662Y-70078617D01*
X126563771Y-70078617D01*
X126596872Y-70258968D01*
X126664372Y-70429454D01*
X126763701Y-70583583D01*
X126891076Y-70715484D01*
X127041644Y-70820131D01*
X127209671Y-70893540D01*
X127388757Y-70932915D01*
X127572079Y-70936755D01*
X127752657Y-70904914D01*
X127923610Y-70838606D01*
X128078429Y-70740355D01*
X128211215Y-70613904D01*
X128316911Y-70464070D01*
X128391492Y-70296560D01*
X128432116Y-70117754D01*
X128432427Y-70095434D01*
X141863508Y-70095434D01*
X141903689Y-70314362D01*
X141985628Y-70521317D01*
X142106204Y-70708414D01*
X142260824Y-70868528D01*
X142443600Y-70995561D01*
X142647569Y-71084672D01*
X142864961Y-71132469D01*
X143087497Y-71137131D01*
X143306701Y-71098479D01*
X143514222Y-71017987D01*
X143702157Y-70898720D01*
X143863347Y-70745221D01*
X143991652Y-70563337D01*
X144082186Y-70359995D01*
X144131499Y-70142942D01*
X144132162Y-70095434D01*
X144363508Y-70095434D01*
X144403689Y-70314362D01*
X144485628Y-70521317D01*
X144606204Y-70708414D01*
X144760824Y-70868528D01*
X144943600Y-70995561D01*
X145147569Y-71084672D01*
X145364961Y-71132469D01*
X145587497Y-71137131D01*
X145806701Y-71098479D01*
X146014222Y-71017987D01*
X146202157Y-70898720D01*
X146363347Y-70745221D01*
X146491652Y-70563337D01*
X146582186Y-70359995D01*
X146631499Y-70142942D01*
X146632162Y-70095434D01*
X146863508Y-70095434D01*
X146903689Y-70314362D01*
X146985628Y-70521317D01*
X147106204Y-70708414D01*
X147260824Y-70868528D01*
X147443600Y-70995561D01*
X147647569Y-71084672D01*
X147864961Y-71132469D01*
X148087497Y-71137131D01*
X148306701Y-71098479D01*
X148514222Y-71017987D01*
X148702157Y-70898720D01*
X148863347Y-70745221D01*
X148991652Y-70563337D01*
X149082186Y-70359995D01*
X149131499Y-70142942D01*
X149135049Y-69888707D01*
X149091815Y-69670362D01*
X149006995Y-69464571D01*
X148883818Y-69279176D01*
X148726977Y-69121236D01*
X148542446Y-68996768D01*
X148337253Y-68910513D01*
X148119214Y-68865756D01*
X147896634Y-68864202D01*
X147677992Y-68905910D01*
X147471615Y-68989292D01*
X147285363Y-69111171D01*
X147126332Y-69266906D01*
X147000579Y-69450564D01*
X146912894Y-69655150D01*
X146866616Y-69872871D01*
X146863508Y-70095434D01*
X146632162Y-70095434D01*
X146635049Y-69888707D01*
X146591815Y-69670362D01*
X146506995Y-69464571D01*
X146383818Y-69279176D01*
X146226977Y-69121236D01*
X146042446Y-68996768D01*
X145837253Y-68910513D01*
X145619214Y-68865756D01*
X145396634Y-68864202D01*
X145177992Y-68905910D01*
X144971615Y-68989292D01*
X144785363Y-69111171D01*
X144626332Y-69266906D01*
X144500579Y-69450564D01*
X144412894Y-69655150D01*
X144366616Y-69872871D01*
X144363508Y-70095434D01*
X144132162Y-70095434D01*
X144135049Y-69888707D01*
X144091815Y-69670362D01*
X144006995Y-69464571D01*
X143883818Y-69279176D01*
X143726977Y-69121236D01*
X143542446Y-68996768D01*
X143337253Y-68910513D01*
X143119214Y-68865756D01*
X142896634Y-68864202D01*
X142677992Y-68905910D01*
X142471615Y-68989292D01*
X142285363Y-69111171D01*
X142126332Y-69266906D01*
X142000579Y-69450564D01*
X141912894Y-69655150D01*
X141866616Y-69872871D01*
X141863508Y-70095434D01*
X128432427Y-70095434D01*
X128435040Y-69908319D01*
X128399425Y-69728448D01*
X128329550Y-69558920D01*
X128228079Y-69406193D01*
X128098875Y-69276084D01*
X127946860Y-69173549D01*
X127777825Y-69102493D01*
X127598207Y-69065623D01*
X127414849Y-69064343D01*
X127234733Y-69098701D01*
X127064722Y-69167390D01*
X126911291Y-69267793D01*
X126780283Y-69396086D01*
X126676689Y-69547381D01*
X126604454Y-69715916D01*
X126566331Y-69895272D01*
X126563771Y-70078617D01*
X99932662Y-70078617D01*
X99935040Y-69908319D01*
X99899425Y-69728448D01*
X99829550Y-69558920D01*
X99728079Y-69406193D01*
X99598875Y-69276084D01*
X99446860Y-69173549D01*
X99277825Y-69102493D01*
X99098207Y-69065623D01*
X98914849Y-69064343D01*
X98734733Y-69098701D01*
X98564722Y-69167390D01*
X98411291Y-69267793D01*
X98280283Y-69396086D01*
X98176689Y-69547381D01*
X98104454Y-69715916D01*
X98066331Y-69895272D01*
X98063771Y-70078617D01*
X96685000Y-70078617D01*
X96685000Y-68078617D01*
X113063771Y-68078617D01*
X113096872Y-68258968D01*
X113164372Y-68429454D01*
X113263701Y-68583583D01*
X113391076Y-68715484D01*
X113541644Y-68820131D01*
X113709671Y-68893540D01*
X113888757Y-68932915D01*
X114072079Y-68936755D01*
X114252657Y-68904914D01*
X114423610Y-68838606D01*
X114578429Y-68740355D01*
X114711215Y-68613904D01*
X114816911Y-68464070D01*
X114891492Y-68296560D01*
X114932116Y-68117754D01*
X114935040Y-67908319D01*
X114899425Y-67728448D01*
X114837669Y-67578617D01*
X134563771Y-67578617D01*
X134596872Y-67758968D01*
X134664372Y-67929454D01*
X134763701Y-68083583D01*
X134891076Y-68215484D01*
X135041644Y-68320131D01*
X135209671Y-68393540D01*
X135388757Y-68432915D01*
X135572079Y-68436755D01*
X135752657Y-68404914D01*
X135923610Y-68338606D01*
X136078429Y-68240355D01*
X136211215Y-68113904D01*
X136316911Y-67964070D01*
X136391492Y-67796560D01*
X136432116Y-67617754D01*
X136435040Y-67408319D01*
X136399425Y-67228448D01*
X136337669Y-67078617D01*
X139563771Y-67078617D01*
X139596872Y-67258968D01*
X139664372Y-67429454D01*
X139763701Y-67583583D01*
X139891076Y-67715484D01*
X140041644Y-67820131D01*
X140209671Y-67893540D01*
X140388757Y-67932915D01*
X140572079Y-67936755D01*
X140752657Y-67904914D01*
X140923610Y-67838606D01*
X141078429Y-67740355D01*
X141211215Y-67613904D01*
X141316911Y-67464070D01*
X141391492Y-67296560D01*
X141432116Y-67117754D01*
X141435040Y-66908319D01*
X141399425Y-66728448D01*
X141329550Y-66558920D01*
X141228079Y-66406193D01*
X141098875Y-66276084D01*
X140946860Y-66173549D01*
X140777825Y-66102493D01*
X140598207Y-66065623D01*
X140414849Y-66064343D01*
X140234733Y-66098701D01*
X140064722Y-66167390D01*
X139911291Y-66267793D01*
X139780283Y-66396086D01*
X139676689Y-66547381D01*
X139604454Y-66715916D01*
X139566331Y-66895272D01*
X139563771Y-67078617D01*
X136337669Y-67078617D01*
X136329550Y-67058920D01*
X136228079Y-66906193D01*
X136098875Y-66776084D01*
X135946860Y-66673549D01*
X135777825Y-66602493D01*
X135598207Y-66565623D01*
X135414849Y-66564343D01*
X135234733Y-66598701D01*
X135064722Y-66667390D01*
X134911291Y-66767793D01*
X134780283Y-66896086D01*
X134676689Y-67047381D01*
X134604454Y-67215916D01*
X134566331Y-67395272D01*
X134563771Y-67578617D01*
X114837669Y-67578617D01*
X114829550Y-67558920D01*
X114728079Y-67406193D01*
X114598875Y-67276084D01*
X114446860Y-67173549D01*
X114277825Y-67102493D01*
X114098207Y-67065623D01*
X113914849Y-67064343D01*
X113734733Y-67098701D01*
X113564722Y-67167390D01*
X113411291Y-67267793D01*
X113280283Y-67396086D01*
X113176689Y-67547381D01*
X113104454Y-67715916D01*
X113066331Y-67895272D01*
X113063771Y-68078617D01*
X96685000Y-68078617D01*
X96685000Y-65078617D01*
X140813771Y-65078617D01*
X140846872Y-65258968D01*
X140914372Y-65429454D01*
X141013701Y-65583583D01*
X141141076Y-65715484D01*
X141291644Y-65820131D01*
X141459671Y-65893540D01*
X141638757Y-65932915D01*
X141822079Y-65936755D01*
X142002657Y-65904914D01*
X142173610Y-65838606D01*
X142328429Y-65740355D01*
X142461215Y-65613904D01*
X142566911Y-65464070D01*
X142641492Y-65296560D01*
X142682116Y-65117754D01*
X142682662Y-65078617D01*
X146063771Y-65078617D01*
X146096872Y-65258968D01*
X146164372Y-65429454D01*
X146263701Y-65583583D01*
X146391076Y-65715484D01*
X146541644Y-65820131D01*
X146709671Y-65893540D01*
X146888757Y-65932915D01*
X147072079Y-65936755D01*
X147252657Y-65904914D01*
X147423610Y-65838606D01*
X147578429Y-65740355D01*
X147711215Y-65613904D01*
X147816911Y-65464070D01*
X147891492Y-65296560D01*
X147932116Y-65117754D01*
X147935040Y-64908319D01*
X147899425Y-64728448D01*
X147829550Y-64558920D01*
X147728079Y-64406193D01*
X147598875Y-64276084D01*
X147446860Y-64173549D01*
X147277825Y-64102493D01*
X147098207Y-64065623D01*
X146914849Y-64064343D01*
X146734733Y-64098701D01*
X146564722Y-64167390D01*
X146411291Y-64267793D01*
X146280283Y-64396086D01*
X146176689Y-64547381D01*
X146104454Y-64715916D01*
X146066331Y-64895272D01*
X146063771Y-65078617D01*
X142682662Y-65078617D01*
X142685040Y-64908319D01*
X142649425Y-64728448D01*
X142579550Y-64558920D01*
X142478079Y-64406193D01*
X142348875Y-64276084D01*
X142196860Y-64173549D01*
X142027825Y-64102493D01*
X141848207Y-64065623D01*
X141664849Y-64064343D01*
X141484733Y-64098701D01*
X141314722Y-64167390D01*
X141161291Y-64267793D01*
X141030283Y-64396086D01*
X140926689Y-64547381D01*
X140854454Y-64715916D01*
X140816331Y-64895272D01*
X140813771Y-65078617D01*
X96685000Y-65078617D01*
X96685000Y-63595434D01*
X123863508Y-63595434D01*
X123903689Y-63814362D01*
X123985628Y-64021317D01*
X124106204Y-64208414D01*
X124260824Y-64368528D01*
X124443600Y-64495561D01*
X124647569Y-64584672D01*
X124864961Y-64632469D01*
X125087497Y-64637131D01*
X125306701Y-64598479D01*
X125514222Y-64517987D01*
X125702157Y-64398720D01*
X125863347Y-64245221D01*
X125991652Y-64063337D01*
X126082186Y-63859995D01*
X126131499Y-63642942D01*
X126135049Y-63388707D01*
X126091815Y-63170362D01*
X126006995Y-62964571D01*
X125883818Y-62779176D01*
X125726977Y-62621236D01*
X125542446Y-62496768D01*
X125337253Y-62410513D01*
X125119214Y-62365756D01*
X124896634Y-62364202D01*
X124677992Y-62405910D01*
X124471615Y-62489292D01*
X124285363Y-62611171D01*
X124126332Y-62766906D01*
X124000579Y-62950564D01*
X123912894Y-63155150D01*
X123866616Y-63372871D01*
X123863508Y-63595434D01*
X96685000Y-63595434D01*
X96685000Y-62078617D01*
X107563771Y-62078617D01*
X107596872Y-62258968D01*
X107664372Y-62429454D01*
X107763701Y-62583583D01*
X107891076Y-62715484D01*
X108041644Y-62820131D01*
X108209671Y-62893540D01*
X108388757Y-62932915D01*
X108572079Y-62936755D01*
X108752657Y-62904914D01*
X108923610Y-62838606D01*
X108999203Y-62790634D01*
X109041644Y-62820131D01*
X109209671Y-62893540D01*
X109388757Y-62932915D01*
X109572079Y-62936755D01*
X109752657Y-62904914D01*
X109923610Y-62838606D01*
X110078429Y-62740355D01*
X110211215Y-62613904D01*
X110316911Y-62464070D01*
X110391492Y-62296560D01*
X110432116Y-62117754D01*
X110432662Y-62078617D01*
X110563771Y-62078617D01*
X110596872Y-62258968D01*
X110664372Y-62429454D01*
X110763701Y-62583583D01*
X110891076Y-62715484D01*
X111041644Y-62820131D01*
X111209671Y-62893540D01*
X111388757Y-62932915D01*
X111572079Y-62936755D01*
X111752657Y-62904914D01*
X111923610Y-62838606D01*
X112078429Y-62740355D01*
X112211215Y-62613904D01*
X112316911Y-62464070D01*
X112391492Y-62296560D01*
X112432116Y-62117754D01*
X112432662Y-62078617D01*
X116563771Y-62078617D01*
X116596872Y-62258968D01*
X116664372Y-62429454D01*
X116763701Y-62583583D01*
X116891076Y-62715484D01*
X117041644Y-62820131D01*
X117209671Y-62893540D01*
X117388757Y-62932915D01*
X117572079Y-62936755D01*
X117752657Y-62904914D01*
X117923610Y-62838606D01*
X117999203Y-62790634D01*
X118041644Y-62820131D01*
X118209671Y-62893540D01*
X118388757Y-62932915D01*
X118572079Y-62936755D01*
X118752657Y-62904914D01*
X118923610Y-62838606D01*
X118999203Y-62790634D01*
X119041644Y-62820131D01*
X119209671Y-62893540D01*
X119388757Y-62932915D01*
X119572079Y-62936755D01*
X119752657Y-62904914D01*
X119923610Y-62838606D01*
X120078429Y-62740355D01*
X120211215Y-62613904D01*
X120316911Y-62464070D01*
X120391492Y-62296560D01*
X120432116Y-62117754D01*
X120432662Y-62078617D01*
X121563771Y-62078617D01*
X121596872Y-62258968D01*
X121664372Y-62429454D01*
X121763701Y-62583583D01*
X121891076Y-62715484D01*
X122041644Y-62820131D01*
X122209671Y-62893540D01*
X122388757Y-62932915D01*
X122572079Y-62936755D01*
X122752657Y-62904914D01*
X122923610Y-62838606D01*
X123078429Y-62740355D01*
X123211215Y-62613904D01*
X123316911Y-62464070D01*
X123391492Y-62296560D01*
X123432116Y-62117754D01*
X123432662Y-62078617D01*
X131063771Y-62078617D01*
X131096872Y-62258968D01*
X131164372Y-62429454D01*
X131263701Y-62583583D01*
X131391076Y-62715484D01*
X131541644Y-62820131D01*
X131709671Y-62893540D01*
X131888757Y-62932915D01*
X132072079Y-62936755D01*
X132252657Y-62904914D01*
X132423610Y-62838606D01*
X132499203Y-62790634D01*
X132541644Y-62820131D01*
X132709671Y-62893540D01*
X132888757Y-62932915D01*
X133072079Y-62936755D01*
X133252657Y-62904914D01*
X133423610Y-62838606D01*
X133578429Y-62740355D01*
X133711215Y-62613904D01*
X133816911Y-62464070D01*
X133891492Y-62296560D01*
X133932116Y-62117754D01*
X133932662Y-62078617D01*
X139063771Y-62078617D01*
X139096872Y-62258968D01*
X139164372Y-62429454D01*
X139263701Y-62583583D01*
X139391076Y-62715484D01*
X139541644Y-62820131D01*
X139709671Y-62893540D01*
X139888757Y-62932915D01*
X140072079Y-62936755D01*
X140252657Y-62904914D01*
X140423610Y-62838606D01*
X140499203Y-62790634D01*
X140541644Y-62820131D01*
X140709671Y-62893540D01*
X140888757Y-62932915D01*
X141072079Y-62936755D01*
X141252657Y-62904914D01*
X141423610Y-62838606D01*
X141578429Y-62740355D01*
X141711215Y-62613904D01*
X141816911Y-62464070D01*
X141891492Y-62296560D01*
X141932116Y-62117754D01*
X141935040Y-61908319D01*
X141899425Y-61728448D01*
X141829550Y-61558920D01*
X141728079Y-61406193D01*
X141598875Y-61276084D01*
X141446860Y-61173549D01*
X141277825Y-61102493D01*
X141098207Y-61065623D01*
X140914849Y-61064343D01*
X140734733Y-61098701D01*
X140564722Y-61167390D01*
X140500264Y-61209570D01*
X140446860Y-61173549D01*
X140277825Y-61102493D01*
X140098207Y-61065623D01*
X139914849Y-61064343D01*
X139734733Y-61098701D01*
X139564722Y-61167390D01*
X139411291Y-61267793D01*
X139280283Y-61396086D01*
X139176689Y-61547381D01*
X139104454Y-61715916D01*
X139066331Y-61895272D01*
X139063771Y-62078617D01*
X133932662Y-62078617D01*
X133935040Y-61908319D01*
X133899425Y-61728448D01*
X133829550Y-61558920D01*
X133728079Y-61406193D01*
X133598875Y-61276084D01*
X133446860Y-61173549D01*
X133277825Y-61102493D01*
X133098207Y-61065623D01*
X132914849Y-61064343D01*
X132734733Y-61098701D01*
X132564722Y-61167390D01*
X132500264Y-61209570D01*
X132446860Y-61173549D01*
X132277825Y-61102493D01*
X132098207Y-61065623D01*
X131914849Y-61064343D01*
X131734733Y-61098701D01*
X131564722Y-61167390D01*
X131411291Y-61267793D01*
X131280283Y-61396086D01*
X131176689Y-61547381D01*
X131104454Y-61715916D01*
X131066331Y-61895272D01*
X131063771Y-62078617D01*
X123432662Y-62078617D01*
X123435040Y-61908319D01*
X123399425Y-61728448D01*
X123329550Y-61558920D01*
X123228079Y-61406193D01*
X123098875Y-61276084D01*
X122946860Y-61173549D01*
X122777825Y-61102493D01*
X122598207Y-61065623D01*
X122414849Y-61064343D01*
X122234733Y-61098701D01*
X122064722Y-61167390D01*
X121911291Y-61267793D01*
X121780283Y-61396086D01*
X121676689Y-61547381D01*
X121604454Y-61715916D01*
X121566331Y-61895272D01*
X121563771Y-62078617D01*
X120432662Y-62078617D01*
X120435040Y-61908319D01*
X120399425Y-61728448D01*
X120329550Y-61558920D01*
X120228079Y-61406193D01*
X120098875Y-61276084D01*
X119946860Y-61173549D01*
X119777825Y-61102493D01*
X119598207Y-61065623D01*
X119414849Y-61064343D01*
X119234733Y-61098701D01*
X119064722Y-61167390D01*
X119000264Y-61209570D01*
X118946860Y-61173549D01*
X118777825Y-61102493D01*
X118598207Y-61065623D01*
X118414849Y-61064343D01*
X118234733Y-61098701D01*
X118064722Y-61167390D01*
X118000264Y-61209570D01*
X117946860Y-61173549D01*
X117777825Y-61102493D01*
X117598207Y-61065623D01*
X117414849Y-61064343D01*
X117234733Y-61098701D01*
X117064722Y-61167390D01*
X116911291Y-61267793D01*
X116780283Y-61396086D01*
X116676689Y-61547381D01*
X116604454Y-61715916D01*
X116566331Y-61895272D01*
X116563771Y-62078617D01*
X112432662Y-62078617D01*
X112435040Y-61908319D01*
X112399425Y-61728448D01*
X112329550Y-61558920D01*
X112228079Y-61406193D01*
X112098875Y-61276084D01*
X111946860Y-61173549D01*
X111777825Y-61102493D01*
X111598207Y-61065623D01*
X111414849Y-61064343D01*
X111234733Y-61098701D01*
X111064722Y-61167390D01*
X110911291Y-61267793D01*
X110780283Y-61396086D01*
X110676689Y-61547381D01*
X110604454Y-61715916D01*
X110566331Y-61895272D01*
X110563771Y-62078617D01*
X110432662Y-62078617D01*
X110435040Y-61908319D01*
X110399425Y-61728448D01*
X110329550Y-61558920D01*
X110228079Y-61406193D01*
X110098875Y-61276084D01*
X109946860Y-61173549D01*
X109777825Y-61102493D01*
X109598207Y-61065623D01*
X109414849Y-61064343D01*
X109234733Y-61098701D01*
X109064722Y-61167390D01*
X109000264Y-61209570D01*
X108946860Y-61173549D01*
X108777825Y-61102493D01*
X108598207Y-61065623D01*
X108414849Y-61064343D01*
X108234733Y-61098701D01*
X108064722Y-61167390D01*
X107911291Y-61267793D01*
X107780283Y-61396086D01*
X107676689Y-61547381D01*
X107604454Y-61715916D01*
X107566331Y-61895272D01*
X107563771Y-62078617D01*
X96685000Y-62078617D01*
X96685000Y-60828617D01*
X151063771Y-60828617D01*
X151096872Y-61008968D01*
X151164372Y-61179454D01*
X151263701Y-61333583D01*
X151391076Y-61465484D01*
X151541644Y-61570131D01*
X151709671Y-61643540D01*
X151888757Y-61682915D01*
X152072079Y-61686755D01*
X152252657Y-61654914D01*
X152423610Y-61588606D01*
X152578429Y-61490355D01*
X152711215Y-61363904D01*
X152816911Y-61214070D01*
X152891492Y-61046560D01*
X152932116Y-60867754D01*
X152932662Y-60828617D01*
X154063771Y-60828617D01*
X154096872Y-61008968D01*
X154164372Y-61179454D01*
X154263701Y-61333583D01*
X154391076Y-61465484D01*
X154541644Y-61570131D01*
X154709671Y-61643540D01*
X154888757Y-61682915D01*
X155072079Y-61686755D01*
X155252657Y-61654914D01*
X155423610Y-61588606D01*
X155578429Y-61490355D01*
X155711215Y-61363904D01*
X155816911Y-61214070D01*
X155891492Y-61046560D01*
X155932116Y-60867754D01*
X155935040Y-60658319D01*
X155899425Y-60478448D01*
X155829550Y-60308920D01*
X155728079Y-60156193D01*
X155598875Y-60026084D01*
X155446860Y-59923549D01*
X155277825Y-59852493D01*
X155098207Y-59815623D01*
X154914849Y-59814343D01*
X154734733Y-59848701D01*
X154564722Y-59917390D01*
X154411291Y-60017793D01*
X154280283Y-60146086D01*
X154176689Y-60297381D01*
X154104454Y-60465916D01*
X154066331Y-60645272D01*
X154063771Y-60828617D01*
X152932662Y-60828617D01*
X152935040Y-60658319D01*
X152899425Y-60478448D01*
X152829550Y-60308920D01*
X152728079Y-60156193D01*
X152598875Y-60026084D01*
X152446860Y-59923549D01*
X152277825Y-59852493D01*
X152098207Y-59815623D01*
X151914849Y-59814343D01*
X151734733Y-59848701D01*
X151564722Y-59917390D01*
X151411291Y-60017793D01*
X151280283Y-60146086D01*
X151176689Y-60297381D01*
X151104454Y-60465916D01*
X151066331Y-60645272D01*
X151063771Y-60828617D01*
X96685000Y-60828617D01*
X96685000Y-56078617D01*
X148313771Y-56078617D01*
X148346872Y-56258968D01*
X148414372Y-56429454D01*
X148513701Y-56583583D01*
X148641076Y-56715484D01*
X148791644Y-56820131D01*
X148959671Y-56893540D01*
X149138757Y-56932915D01*
X149322079Y-56936755D01*
X149502657Y-56904914D01*
X149673610Y-56838606D01*
X149828429Y-56740355D01*
X149961215Y-56613904D01*
X150066911Y-56464070D01*
X150141492Y-56296560D01*
X150182116Y-56117754D01*
X150185040Y-55908319D01*
X150149425Y-55728448D01*
X150079550Y-55558920D01*
X149978079Y-55406193D01*
X149848875Y-55276084D01*
X149696860Y-55173549D01*
X149527825Y-55102493D01*
X149348207Y-55065623D01*
X149164849Y-55064343D01*
X148984733Y-55098701D01*
X148814722Y-55167390D01*
X148661291Y-55267793D01*
X148530283Y-55396086D01*
X148426689Y-55547381D01*
X148354454Y-55715916D01*
X148316331Y-55895272D01*
X148313771Y-56078617D01*
X96685000Y-56078617D01*
X96685000Y-53578617D01*
X99063771Y-53578617D01*
X99096872Y-53758968D01*
X99164372Y-53929454D01*
X99263701Y-54083583D01*
X99391076Y-54215484D01*
X99541644Y-54320131D01*
X99709671Y-54393540D01*
X99888757Y-54432915D01*
X100072079Y-54436755D01*
X100252657Y-54404914D01*
X100423610Y-54338606D01*
X100578429Y-54240355D01*
X100711215Y-54113904D01*
X100816911Y-53964070D01*
X100877219Y-53828617D01*
X148313771Y-53828617D01*
X148346872Y-54008968D01*
X148414372Y-54179454D01*
X148513701Y-54333583D01*
X148641076Y-54465484D01*
X148791644Y-54570131D01*
X148959671Y-54643540D01*
X149138757Y-54682915D01*
X149322079Y-54686755D01*
X149502657Y-54654914D01*
X149673610Y-54588606D01*
X149828429Y-54490355D01*
X149961215Y-54363904D01*
X150066911Y-54214070D01*
X150141492Y-54046560D01*
X150182116Y-53867754D01*
X150185040Y-53658319D01*
X150149425Y-53478448D01*
X150079550Y-53308920D01*
X149978079Y-53156193D01*
X149848875Y-53026084D01*
X149696860Y-52923549D01*
X149527825Y-52852493D01*
X149348207Y-52815623D01*
X149164849Y-52814343D01*
X148984733Y-52848701D01*
X148814722Y-52917390D01*
X148661291Y-53017793D01*
X148530283Y-53146086D01*
X148426689Y-53297381D01*
X148354454Y-53465916D01*
X148316331Y-53645272D01*
X148313771Y-53828617D01*
X100877219Y-53828617D01*
X100891492Y-53796560D01*
X100932116Y-53617754D01*
X100935040Y-53408319D01*
X100899425Y-53228448D01*
X100829550Y-53058920D01*
X100728079Y-52906193D01*
X100598875Y-52776084D01*
X100446860Y-52673549D01*
X100277825Y-52602493D01*
X100098207Y-52565623D01*
X99914849Y-52564343D01*
X99734733Y-52598701D01*
X99564722Y-52667390D01*
X99411291Y-52767793D01*
X99280283Y-52896086D01*
X99176689Y-53047381D01*
X99104454Y-53215916D01*
X99066331Y-53395272D01*
X99063771Y-53578617D01*
X96685000Y-53578617D01*
X96685000Y-50578617D01*
X148313771Y-50578617D01*
X148346872Y-50758968D01*
X148414372Y-50929454D01*
X148513701Y-51083583D01*
X148641076Y-51215484D01*
X148791644Y-51320131D01*
X148959671Y-51393540D01*
X149138757Y-51432915D01*
X149322079Y-51436755D01*
X149502657Y-51404914D01*
X149673610Y-51338606D01*
X149828429Y-51240355D01*
X149961215Y-51113904D01*
X150066911Y-50964070D01*
X150141492Y-50796560D01*
X150182116Y-50617754D01*
X150185040Y-50408319D01*
X150149425Y-50228448D01*
X150079550Y-50058920D01*
X149978079Y-49906193D01*
X149848875Y-49776084D01*
X149696860Y-49673549D01*
X149527825Y-49602493D01*
X149348207Y-49565623D01*
X149164849Y-49564343D01*
X148984733Y-49598701D01*
X148814722Y-49667390D01*
X148661291Y-49767793D01*
X148530283Y-49896086D01*
X148426689Y-50047381D01*
X148354454Y-50215916D01*
X148316331Y-50395272D01*
X148313771Y-50578617D01*
X96685000Y-50578617D01*
X96685000Y-49328617D01*
X158063771Y-49328617D01*
X158096872Y-49508968D01*
X158164372Y-49679454D01*
X158263701Y-49833583D01*
X158391076Y-49965484D01*
X158541644Y-50070131D01*
X158709671Y-50143540D01*
X158888757Y-50182915D01*
X159072079Y-50186755D01*
X159252657Y-50154914D01*
X159423610Y-50088606D01*
X159578429Y-49990355D01*
X159711215Y-49863904D01*
X159816911Y-49714070D01*
X159891492Y-49546560D01*
X159932116Y-49367754D01*
X159932662Y-49328617D01*
X166063771Y-49328617D01*
X166096872Y-49508968D01*
X166164372Y-49679454D01*
X166263701Y-49833583D01*
X166391076Y-49965484D01*
X166541644Y-50070131D01*
X166709671Y-50143540D01*
X166888757Y-50182915D01*
X167072079Y-50186755D01*
X167252657Y-50154914D01*
X167423610Y-50088606D01*
X167578429Y-49990355D01*
X167711215Y-49863904D01*
X167816911Y-49714070D01*
X167891492Y-49546560D01*
X167932116Y-49367754D01*
X167935040Y-49158319D01*
X167899425Y-48978448D01*
X167829550Y-48808920D01*
X167728079Y-48656193D01*
X167598875Y-48526084D01*
X167446860Y-48423549D01*
X167277825Y-48352493D01*
X167098207Y-48315623D01*
X166914849Y-48314343D01*
X166734733Y-48348701D01*
X166564722Y-48417390D01*
X166411291Y-48517793D01*
X166280283Y-48646086D01*
X166176689Y-48797381D01*
X166104454Y-48965916D01*
X166066331Y-49145272D01*
X166063771Y-49328617D01*
X159932662Y-49328617D01*
X159935040Y-49158319D01*
X159899425Y-48978448D01*
X159829550Y-48808920D01*
X159728079Y-48656193D01*
X159598875Y-48526084D01*
X159446860Y-48423549D01*
X159277825Y-48352493D01*
X159098207Y-48315623D01*
X158914849Y-48314343D01*
X158734733Y-48348701D01*
X158564722Y-48417390D01*
X158411291Y-48517793D01*
X158280283Y-48646086D01*
X158176689Y-48797381D01*
X158104454Y-48965916D01*
X158066331Y-49145272D01*
X158063771Y-49328617D01*
X96685000Y-49328617D01*
X96685000Y-48078617D01*
X101563771Y-48078617D01*
X101596872Y-48258968D01*
X101664372Y-48429454D01*
X101763701Y-48583583D01*
X101891076Y-48715484D01*
X102041644Y-48820131D01*
X102209671Y-48893540D01*
X102388757Y-48932915D01*
X102572079Y-48936755D01*
X102752657Y-48904914D01*
X102923610Y-48838606D01*
X103078429Y-48740355D01*
X103211215Y-48613904D01*
X103316911Y-48464070D01*
X103377219Y-48328617D01*
X148313771Y-48328617D01*
X148346872Y-48508968D01*
X148414372Y-48679454D01*
X148513701Y-48833583D01*
X148641076Y-48965484D01*
X148791644Y-49070131D01*
X148959671Y-49143540D01*
X149138757Y-49182915D01*
X149322079Y-49186755D01*
X149502657Y-49154914D01*
X149673610Y-49088606D01*
X149828429Y-48990355D01*
X149961215Y-48863904D01*
X150066911Y-48714070D01*
X150141492Y-48546560D01*
X150182116Y-48367754D01*
X150185040Y-48158319D01*
X150149425Y-47978448D01*
X150079550Y-47808920D01*
X149978079Y-47656193D01*
X149848875Y-47526084D01*
X149696860Y-47423549D01*
X149527825Y-47352493D01*
X149348207Y-47315623D01*
X149164849Y-47314343D01*
X148984733Y-47348701D01*
X148814722Y-47417390D01*
X148661291Y-47517793D01*
X148530283Y-47646086D01*
X148426689Y-47797381D01*
X148354454Y-47965916D01*
X148316331Y-48145272D01*
X148313771Y-48328617D01*
X103377219Y-48328617D01*
X103391492Y-48296560D01*
X103432116Y-48117754D01*
X103435040Y-47908319D01*
X103399425Y-47728448D01*
X103329550Y-47558920D01*
X103228079Y-47406193D01*
X103098875Y-47276084D01*
X102946860Y-47173549D01*
X102777825Y-47102493D01*
X102598207Y-47065623D01*
X102414849Y-47064343D01*
X102234733Y-47098701D01*
X102064722Y-47167390D01*
X101911291Y-47267793D01*
X101780283Y-47396086D01*
X101676689Y-47547381D01*
X101604454Y-47715916D01*
X101566331Y-47895272D01*
X101563771Y-48078617D01*
X96685000Y-48078617D01*
X96685000Y-46078617D01*
X101563771Y-46078617D01*
X101596872Y-46258968D01*
X101664372Y-46429454D01*
X101763701Y-46583583D01*
X101891076Y-46715484D01*
X102041644Y-46820131D01*
X102209671Y-46893540D01*
X102388757Y-46932915D01*
X102572079Y-46936755D01*
X102752657Y-46904914D01*
X102923610Y-46838606D01*
X103078429Y-46740355D01*
X103211215Y-46613904D01*
X103316911Y-46464070D01*
X103391492Y-46296560D01*
X103432116Y-46117754D01*
X103435040Y-45908319D01*
X103399425Y-45728448D01*
X103329550Y-45558920D01*
X103228079Y-45406193D01*
X103098875Y-45276084D01*
X102946860Y-45173549D01*
X102777825Y-45102493D01*
X102598207Y-45065623D01*
X102414849Y-45064343D01*
X102234733Y-45098701D01*
X102064722Y-45167390D01*
X101911291Y-45267793D01*
X101780283Y-45396086D01*
X101676689Y-45547381D01*
X101604454Y-45715916D01*
X101566331Y-45895272D01*
X101563771Y-46078617D01*
X96685000Y-46078617D01*
X96685000Y-42578617D01*
X97563771Y-42578617D01*
X97596872Y-42758968D01*
X97664372Y-42929454D01*
X97763701Y-43083583D01*
X97891076Y-43215484D01*
X98041644Y-43320131D01*
X98209671Y-43393540D01*
X98388757Y-43432915D01*
X98572079Y-43436755D01*
X98752657Y-43404914D01*
X98923610Y-43338606D01*
X99078429Y-43240355D01*
X99211215Y-43113904D01*
X99316911Y-42964070D01*
X99391492Y-42796560D01*
X99432116Y-42617754D01*
X99432662Y-42578617D01*
X100563771Y-42578617D01*
X100596872Y-42758968D01*
X100664372Y-42929454D01*
X100763701Y-43083583D01*
X100891076Y-43215484D01*
X101041644Y-43320131D01*
X101209671Y-43393540D01*
X101388757Y-43432915D01*
X101572079Y-43436755D01*
X101752657Y-43404914D01*
X101923610Y-43338606D01*
X102078429Y-43240355D01*
X102211215Y-43113904D01*
X102316911Y-42964070D01*
X102391492Y-42796560D01*
X102432116Y-42617754D01*
X102435040Y-42408319D01*
X102399425Y-42228448D01*
X102329550Y-42058920D01*
X102228079Y-41906193D01*
X102098875Y-41776084D01*
X101946860Y-41673549D01*
X101777825Y-41602493D01*
X101598207Y-41565623D01*
X101414849Y-41564343D01*
X101234733Y-41598701D01*
X101064722Y-41667390D01*
X100911291Y-41767793D01*
X100780283Y-41896086D01*
X100676689Y-42047381D01*
X100604454Y-42215916D01*
X100566331Y-42395272D01*
X100563771Y-42578617D01*
X99432662Y-42578617D01*
X99435040Y-42408319D01*
X99399425Y-42228448D01*
X99329550Y-42058920D01*
X99228079Y-41906193D01*
X99098875Y-41776084D01*
X98946860Y-41673549D01*
X98777825Y-41602493D01*
X98598207Y-41565623D01*
X98414849Y-41564343D01*
X98234733Y-41598701D01*
X98064722Y-41667390D01*
X97911291Y-41767793D01*
X97780283Y-41896086D01*
X97676689Y-42047381D01*
X97604454Y-42215916D01*
X97566331Y-42395272D01*
X97563771Y-42578617D01*
X96685000Y-42578617D01*
X96685000Y-40578617D01*
X107563771Y-40578617D01*
X107596872Y-40758968D01*
X107664372Y-40929454D01*
X107763701Y-41083583D01*
X107891076Y-41215484D01*
X108041644Y-41320131D01*
X108209671Y-41393540D01*
X108388757Y-41432915D01*
X108572079Y-41436755D01*
X108752657Y-41404914D01*
X108923610Y-41338606D01*
X109078429Y-41240355D01*
X109211215Y-41113904D01*
X109316911Y-40964070D01*
X109391492Y-40796560D01*
X109432116Y-40617754D01*
X109432662Y-40578617D01*
X109563771Y-40578617D01*
X109596872Y-40758968D01*
X109664372Y-40929454D01*
X109763701Y-41083583D01*
X109891076Y-41215484D01*
X110041644Y-41320131D01*
X110209671Y-41393540D01*
X110388757Y-41432915D01*
X110572079Y-41436755D01*
X110752657Y-41404914D01*
X110923610Y-41338606D01*
X110999203Y-41290634D01*
X111041644Y-41320131D01*
X111209671Y-41393540D01*
X111388757Y-41432915D01*
X111572079Y-41436755D01*
X111752657Y-41404914D01*
X111923610Y-41338606D01*
X111999203Y-41290634D01*
X112041644Y-41320131D01*
X112209671Y-41393540D01*
X112388757Y-41432915D01*
X112572079Y-41436755D01*
X112752657Y-41404914D01*
X112923610Y-41338606D01*
X112999203Y-41290634D01*
X113041644Y-41320131D01*
X113209671Y-41393540D01*
X113388757Y-41432915D01*
X113572079Y-41436755D01*
X113752657Y-41404914D01*
X113923610Y-41338606D01*
X114078429Y-41240355D01*
X114211215Y-41113904D01*
X114316911Y-40964070D01*
X114391492Y-40796560D01*
X114432116Y-40617754D01*
X114432662Y-40578617D01*
X116563771Y-40578617D01*
X116596872Y-40758968D01*
X116664372Y-40929454D01*
X116763701Y-41083583D01*
X116891076Y-41215484D01*
X117041644Y-41320131D01*
X117209671Y-41393540D01*
X117388757Y-41432915D01*
X117572079Y-41436755D01*
X117752657Y-41404914D01*
X117923610Y-41338606D01*
X117999203Y-41290634D01*
X118041644Y-41320131D01*
X118209671Y-41393540D01*
X118388757Y-41432915D01*
X118572079Y-41436755D01*
X118752657Y-41404914D01*
X118923610Y-41338606D01*
X119078429Y-41240355D01*
X119211215Y-41113904D01*
X119316911Y-40964070D01*
X119391492Y-40796560D01*
X119432116Y-40617754D01*
X119432662Y-40578617D01*
X119563771Y-40578617D01*
X119596872Y-40758968D01*
X119664372Y-40929454D01*
X119763701Y-41083583D01*
X119891076Y-41215484D01*
X120041644Y-41320131D01*
X120209671Y-41393540D01*
X120388757Y-41432915D01*
X120572079Y-41436755D01*
X120752657Y-41404914D01*
X120923610Y-41338606D01*
X120999203Y-41290634D01*
X121041644Y-41320131D01*
X121209671Y-41393540D01*
X121388757Y-41432915D01*
X121572079Y-41436755D01*
X121752657Y-41404914D01*
X121923610Y-41338606D01*
X122078429Y-41240355D01*
X122211215Y-41113904D01*
X122316911Y-40964070D01*
X122391492Y-40796560D01*
X122432116Y-40617754D01*
X122432662Y-40578617D01*
X122563771Y-40578617D01*
X122596872Y-40758968D01*
X122664372Y-40929454D01*
X122763701Y-41083583D01*
X122891076Y-41215484D01*
X123041644Y-41320131D01*
X123209671Y-41393540D01*
X123388757Y-41432915D01*
X123572079Y-41436755D01*
X123752657Y-41404914D01*
X123923610Y-41338606D01*
X124078429Y-41240355D01*
X124211215Y-41113904D01*
X124316911Y-40964070D01*
X124391492Y-40796560D01*
X124432116Y-40617754D01*
X124432662Y-40578617D01*
X131063771Y-40578617D01*
X131096872Y-40758968D01*
X131164372Y-40929454D01*
X131263701Y-41083583D01*
X131391076Y-41215484D01*
X131541644Y-41320131D01*
X131709671Y-41393540D01*
X131888757Y-41432915D01*
X132072079Y-41436755D01*
X132252657Y-41404914D01*
X132423610Y-41338606D01*
X132499203Y-41290634D01*
X132541644Y-41320131D01*
X132709671Y-41393540D01*
X132888757Y-41432915D01*
X133072079Y-41436755D01*
X133252657Y-41404914D01*
X133423610Y-41338606D01*
X133578429Y-41240355D01*
X133711215Y-41113904D01*
X133816911Y-40964070D01*
X133891492Y-40796560D01*
X133932116Y-40617754D01*
X133932662Y-40578617D01*
X139063771Y-40578617D01*
X139096872Y-40758968D01*
X139164372Y-40929454D01*
X139263701Y-41083583D01*
X139391076Y-41215484D01*
X139541644Y-41320131D01*
X139709671Y-41393540D01*
X139888757Y-41432915D01*
X140072079Y-41436755D01*
X140252657Y-41404914D01*
X140423610Y-41338606D01*
X140499203Y-41290634D01*
X140541644Y-41320131D01*
X140709671Y-41393540D01*
X140888757Y-41432915D01*
X141072079Y-41436755D01*
X141252657Y-41404914D01*
X141423610Y-41338606D01*
X141578429Y-41240355D01*
X141711215Y-41113904D01*
X141816911Y-40964070D01*
X141891492Y-40796560D01*
X141932116Y-40617754D01*
X141935040Y-40408319D01*
X141899425Y-40228448D01*
X141829550Y-40058920D01*
X141728079Y-39906193D01*
X141598875Y-39776084D01*
X141446860Y-39673549D01*
X141277825Y-39602493D01*
X141098207Y-39565623D01*
X140914849Y-39564343D01*
X140734733Y-39598701D01*
X140564722Y-39667390D01*
X140500264Y-39709570D01*
X140446860Y-39673549D01*
X140277825Y-39602493D01*
X140098207Y-39565623D01*
X139914849Y-39564343D01*
X139734733Y-39598701D01*
X139564722Y-39667390D01*
X139411291Y-39767793D01*
X139280283Y-39896086D01*
X139176689Y-40047381D01*
X139104454Y-40215916D01*
X139066331Y-40395272D01*
X139063771Y-40578617D01*
X133932662Y-40578617D01*
X133935040Y-40408319D01*
X133899425Y-40228448D01*
X133829550Y-40058920D01*
X133728079Y-39906193D01*
X133598875Y-39776084D01*
X133446860Y-39673549D01*
X133277825Y-39602493D01*
X133098207Y-39565623D01*
X132914849Y-39564343D01*
X132734733Y-39598701D01*
X132564722Y-39667390D01*
X132500264Y-39709570D01*
X132446860Y-39673549D01*
X132277825Y-39602493D01*
X132098207Y-39565623D01*
X131914849Y-39564343D01*
X131734733Y-39598701D01*
X131564722Y-39667390D01*
X131411291Y-39767793D01*
X131280283Y-39896086D01*
X131176689Y-40047381D01*
X131104454Y-40215916D01*
X131066331Y-40395272D01*
X131063771Y-40578617D01*
X124432662Y-40578617D01*
X124435040Y-40408319D01*
X124399425Y-40228448D01*
X124329550Y-40058920D01*
X124228079Y-39906193D01*
X124098875Y-39776084D01*
X123946860Y-39673549D01*
X123777825Y-39602493D01*
X123598207Y-39565623D01*
X123414849Y-39564343D01*
X123234733Y-39598701D01*
X123064722Y-39667390D01*
X122911291Y-39767793D01*
X122780283Y-39896086D01*
X122676689Y-40047381D01*
X122604454Y-40215916D01*
X122566331Y-40395272D01*
X122563771Y-40578617D01*
X122432662Y-40578617D01*
X122435040Y-40408319D01*
X122399425Y-40228448D01*
X122329550Y-40058920D01*
X122228079Y-39906193D01*
X122098875Y-39776084D01*
X121946860Y-39673549D01*
X121777825Y-39602493D01*
X121598207Y-39565623D01*
X121414849Y-39564343D01*
X121234733Y-39598701D01*
X121064722Y-39667390D01*
X121000264Y-39709570D01*
X120946860Y-39673549D01*
X120777825Y-39602493D01*
X120598207Y-39565623D01*
X120414849Y-39564343D01*
X120234733Y-39598701D01*
X120064722Y-39667390D01*
X119911291Y-39767793D01*
X119780283Y-39896086D01*
X119676689Y-40047381D01*
X119604454Y-40215916D01*
X119566331Y-40395272D01*
X119563771Y-40578617D01*
X119432662Y-40578617D01*
X119435040Y-40408319D01*
X119399425Y-40228448D01*
X119329550Y-40058920D01*
X119228079Y-39906193D01*
X119098875Y-39776084D01*
X118946860Y-39673549D01*
X118777825Y-39602493D01*
X118598207Y-39565623D01*
X118414849Y-39564343D01*
X118234733Y-39598701D01*
X118064722Y-39667390D01*
X118000264Y-39709570D01*
X117946860Y-39673549D01*
X117777825Y-39602493D01*
X117598207Y-39565623D01*
X117414849Y-39564343D01*
X117234733Y-39598701D01*
X117064722Y-39667390D01*
X116911291Y-39767793D01*
X116780283Y-39896086D01*
X116676689Y-40047381D01*
X116604454Y-40215916D01*
X116566331Y-40395272D01*
X116563771Y-40578617D01*
X114432662Y-40578617D01*
X114435040Y-40408319D01*
X114399425Y-40228448D01*
X114329550Y-40058920D01*
X114228079Y-39906193D01*
X114098875Y-39776084D01*
X113946860Y-39673549D01*
X113777825Y-39602493D01*
X113598207Y-39565623D01*
X113414849Y-39564343D01*
X113234733Y-39598701D01*
X113064722Y-39667390D01*
X113000264Y-39709570D01*
X112946860Y-39673549D01*
X112777825Y-39602493D01*
X112598207Y-39565623D01*
X112414849Y-39564343D01*
X112234733Y-39598701D01*
X112064722Y-39667390D01*
X112000264Y-39709570D01*
X111946860Y-39673549D01*
X111777825Y-39602493D01*
X111598207Y-39565623D01*
X111414849Y-39564343D01*
X111234733Y-39598701D01*
X111064722Y-39667390D01*
X111000264Y-39709570D01*
X110946860Y-39673549D01*
X110777825Y-39602493D01*
X110598207Y-39565623D01*
X110414849Y-39564343D01*
X110234733Y-39598701D01*
X110064722Y-39667390D01*
X109911291Y-39767793D01*
X109780283Y-39896086D01*
X109676689Y-40047381D01*
X109604454Y-40215916D01*
X109566331Y-40395272D01*
X109563771Y-40578617D01*
X109432662Y-40578617D01*
X109435040Y-40408319D01*
X109399425Y-40228448D01*
X109329550Y-40058920D01*
X109228079Y-39906193D01*
X109098875Y-39776084D01*
X108946860Y-39673549D01*
X108777825Y-39602493D01*
X108598207Y-39565623D01*
X108414849Y-39564343D01*
X108234733Y-39598701D01*
X108064722Y-39667390D01*
X107911291Y-39767793D01*
X107780283Y-39896086D01*
X107676689Y-40047381D01*
X107604454Y-40215916D01*
X107566331Y-40395272D01*
X107563771Y-40578617D01*
X96685000Y-40578617D01*
X96685000Y-37078617D01*
X111063771Y-37078617D01*
X111096872Y-37258968D01*
X111164372Y-37429454D01*
X111263701Y-37583583D01*
X111391076Y-37715484D01*
X111541644Y-37820131D01*
X111709671Y-37893540D01*
X111888757Y-37932915D01*
X112072079Y-37936755D01*
X112252657Y-37904914D01*
X112423610Y-37838606D01*
X112578429Y-37740355D01*
X112711215Y-37613904D01*
X112816911Y-37464070D01*
X112891492Y-37296560D01*
X112932116Y-37117754D01*
X112935040Y-36908319D01*
X112899425Y-36728448D01*
X112829550Y-36558920D01*
X112728079Y-36406193D01*
X112598875Y-36276084D01*
X112446860Y-36173549D01*
X112277825Y-36102493D01*
X112098207Y-36065623D01*
X111914849Y-36064343D01*
X111734733Y-36098701D01*
X111564722Y-36167390D01*
X111411291Y-36267793D01*
X111280283Y-36396086D01*
X111176689Y-36547381D01*
X111104454Y-36715916D01*
X111066331Y-36895272D01*
X111063771Y-37078617D01*
X96685000Y-37078617D01*
X96685000Y-35187942D01*
X115261862Y-35187942D01*
X115340992Y-35619086D01*
X115502357Y-36026649D01*
X115739813Y-36395107D01*
X116044313Y-36710426D01*
X116404260Y-36960596D01*
X116805943Y-37136087D01*
X117234063Y-37230215D01*
X117672312Y-37239395D01*
X118103998Y-37163278D01*
X118512678Y-37004761D01*
X118882785Y-36769884D01*
X119200222Y-36467592D01*
X119452899Y-36109401D01*
X119631190Y-35708952D01*
X119728305Y-35281500D01*
X119735296Y-34780827D01*
X119650154Y-34350830D01*
X119483114Y-33945560D01*
X119240537Y-33580453D01*
X118931664Y-33269416D01*
X118568259Y-33024296D01*
X118164165Y-32854430D01*
X117734772Y-32766289D01*
X117296438Y-32763229D01*
X116865857Y-32845366D01*
X116459430Y-33009573D01*
X116092638Y-33249595D01*
X115779453Y-33556289D01*
X115531802Y-33917974D01*
X115359119Y-34320873D01*
X115267982Y-34749639D01*
X115261862Y-35187942D01*
X96685000Y-35187942D01*
X96685000Y-34685000D01*
X101500000Y-34685000D01*
X101500123Y-34684988D01*
X101502394Y-34684996D01*
X101554753Y-34684813D01*
X101584522Y-34681789D01*
X101614442Y-34681998D01*
X101623961Y-34681064D01*
X103079687Y-34528061D01*
X103140481Y-34515582D01*
X103201488Y-34503944D01*
X103210644Y-34501180D01*
X104608927Y-34068340D01*
X104666193Y-34044268D01*
X104723725Y-34021023D01*
X104732170Y-34016533D01*
X106019750Y-33320341D01*
X106071239Y-33285611D01*
X106123170Y-33251628D01*
X106130582Y-33245584D01*
X107258417Y-32312558D01*
X107302147Y-32268521D01*
X107346522Y-32225066D01*
X107352618Y-32217697D01*
X108277746Y-31083377D01*
X108312097Y-31031674D01*
X108347179Y-30980438D01*
X108351728Y-30972025D01*
X108826761Y-30078617D01*
X115563771Y-30078617D01*
X115596872Y-30258968D01*
X115664372Y-30429454D01*
X115763701Y-30583583D01*
X115891076Y-30715484D01*
X116041644Y-30820131D01*
X116209671Y-30893540D01*
X116388757Y-30932915D01*
X116572079Y-30936755D01*
X116752657Y-30904914D01*
X116923610Y-30838606D01*
X117078429Y-30740355D01*
X117211215Y-30613904D01*
X117316911Y-30464070D01*
X117391492Y-30296560D01*
X117432116Y-30117754D01*
X117435040Y-29908319D01*
X117399425Y-29728448D01*
X117329550Y-29558920D01*
X117228079Y-29406193D01*
X117098875Y-29276084D01*
X116946860Y-29173549D01*
X116777825Y-29102493D01*
X116598207Y-29065623D01*
X116414849Y-29064343D01*
X116234733Y-29098701D01*
X116064722Y-29167390D01*
X115911291Y-29267793D01*
X115780283Y-29396086D01*
X115676689Y-29547381D01*
X115604454Y-29715916D01*
X115566331Y-29895272D01*
X115563771Y-30078617D01*
X108826761Y-30078617D01*
X109038914Y-29679616D01*
X109062577Y-29622206D01*
X109087030Y-29565151D01*
X109089859Y-29556015D01*
X109512928Y-28154746D01*
X109524983Y-28093862D01*
X109537895Y-28033114D01*
X109538895Y-28023602D01*
X109577782Y-27627000D01*
X109661928Y-27627000D01*
X109661928Y-27750000D01*
M02*
