G04 #@! TF.FileFunction,Copper,L2,Inr,Signal*
%FSLAX46Y46*%
G04 Gerber Fmt 4.6, Leading zero omitted, Abs format (unit mm)*
G04 Created by KiCad (PCBNEW 4.0.7-e2-6376~61~ubuntu18.04.1) date Tue Jul  3 09:25:50 2018*
%MOMM*%
%LPD*%
G01*
G04 APERTURE LIST*
%ADD10C,0.100000*%
%ADD11R,1.000000X1.000000*%
%ADD12C,2.500000*%
%ADD13R,1.700000X1.700000*%
%ADD14O,1.700000X1.700000*%
%ADD15R,1.800000X1.800000*%
%ADD16C,1.800000*%
%ADD17C,1.000000*%
%ADD18R,0.900000X0.500000*%
%ADD19C,3.600000*%
%ADD20O,1.800000X1.100000*%
%ADD21O,2.200000X1.100000*%
%ADD22C,0.600000*%
%ADD23C,0.254000*%
G04 APERTURE END LIST*
D10*
D11*
X157500000Y-42000000D03*
D12*
X168500000Y-106100000D03*
X181300000Y-106100000D03*
X170000000Y-80000000D03*
X200000000Y-80000000D03*
D13*
X148920000Y-115000000D03*
D14*
X151460000Y-115000000D03*
X154000000Y-115000000D03*
X156540000Y-115000000D03*
X159080000Y-115000000D03*
X161620000Y-115000000D03*
D15*
X130000000Y-78750000D03*
D16*
X130000000Y-81290000D03*
D17*
X168500000Y-112500000D03*
X168500000Y-124500000D03*
X145500000Y-70000000D03*
X148000000Y-70000000D03*
X143000000Y-70000000D03*
D18*
X110750000Y-27500000D03*
D19*
X192500000Y-136000000D03*
D17*
X125000000Y-63500000D03*
D19*
X117500000Y-136000000D03*
D20*
X152200000Y-131750000D03*
X157800000Y-131750000D03*
D21*
X155000000Y-133900000D03*
D22*
X98500000Y-42500000D03*
X101500000Y-42500000D03*
X102500000Y-46000000D03*
X102500000Y-48000000D03*
X116500000Y-30000000D03*
X112000000Y-37000000D03*
X147000000Y-65000000D03*
X149250000Y-56000000D03*
X149250000Y-53750000D03*
X149250000Y-50500000D03*
X149250000Y-48250000D03*
X155000000Y-60750000D03*
X152000000Y-60750000D03*
X167000000Y-49250000D03*
X159000000Y-49250000D03*
X161500000Y-108000000D03*
X127500000Y-70000000D03*
X156250000Y-130000000D03*
X137500000Y-129000000D03*
X137500000Y-118500000D03*
X161500000Y-120000000D03*
X156500000Y-120000000D03*
X154000000Y-120000000D03*
X149000000Y-120000000D03*
X121000000Y-83000000D03*
X117500000Y-84500000D03*
X141000000Y-40500000D03*
X140000000Y-40500000D03*
X133000000Y-40500000D03*
X132000000Y-40500000D03*
X123500000Y-40500000D03*
X108500000Y-40500000D03*
X109500000Y-62000000D03*
X108500000Y-62000000D03*
X122500000Y-62000000D03*
X141000000Y-62000000D03*
X140000000Y-62000000D03*
X132000000Y-62000000D03*
X133000000Y-62000000D03*
X100000000Y-53500000D03*
X99000000Y-70000000D03*
X99000000Y-75000000D03*
X198000000Y-117000000D03*
X182500000Y-120000000D03*
X177500000Y-120000000D03*
X123000000Y-92000000D03*
X102500000Y-91000000D03*
X107500000Y-91000000D03*
X123000000Y-117000000D03*
X102500000Y-116000000D03*
X107500000Y-116000000D03*
X141750000Y-65000000D03*
X140500000Y-77500000D03*
X150000000Y-82500000D03*
X137500000Y-123500000D03*
X100000000Y-59000000D03*
X139000000Y-65000000D03*
X117500000Y-70000000D03*
X127500000Y-72500000D03*
X121500000Y-62000000D03*
X99000000Y-65000000D03*
X171500000Y-124500000D03*
X99000000Y-99000000D03*
X99000000Y-124000000D03*
X140500000Y-67000000D03*
X121500000Y-40500000D03*
X114000000Y-72000000D03*
X118500000Y-73500000D03*
X114000000Y-68000000D03*
X135500000Y-67500000D03*
X120500000Y-40500000D03*
X169500000Y-118500000D03*
X113500000Y-40500000D03*
X99000000Y-91000000D03*
X112500000Y-40500000D03*
X118500000Y-40500000D03*
X177500000Y-112000000D03*
X117500000Y-40500000D03*
X175000000Y-112000000D03*
X111500000Y-40500000D03*
X105000000Y-82000000D03*
X110500000Y-40500000D03*
X102500000Y-82000000D03*
X105000000Y-107000000D03*
X118500000Y-62000000D03*
X102500000Y-107000000D03*
X117500000Y-62000000D03*
X111500000Y-62000000D03*
X144750000Y-85000000D03*
X99000000Y-116000000D03*
X119500000Y-62000000D03*
D23*
G36*
X111123000Y-27500000D02*
X111128028Y-27535381D01*
X111142714Y-27567961D01*
X111165895Y-27595160D01*
X111195736Y-27614823D01*
X111229873Y-27625395D01*
X111250000Y-27627000D01*
X140873000Y-27627000D01*
X140873000Y-37873000D01*
X106500000Y-37873000D01*
X106464619Y-37878028D01*
X106432039Y-37892714D01*
X106404840Y-37915895D01*
X106385177Y-37945736D01*
X106374605Y-37979873D01*
X106373000Y-38000000D01*
X106373000Y-49873000D01*
X96685000Y-49873000D01*
X96685000Y-35187942D01*
X115261862Y-35187942D01*
X115340992Y-35619086D01*
X115502357Y-36026649D01*
X115739813Y-36395107D01*
X116044313Y-36710426D01*
X116404260Y-36960596D01*
X116805943Y-37136087D01*
X117234063Y-37230215D01*
X117672312Y-37239395D01*
X118103998Y-37163278D01*
X118512678Y-37004761D01*
X118882785Y-36769884D01*
X119200222Y-36467592D01*
X119452899Y-36109401D01*
X119631190Y-35708952D01*
X119728305Y-35281500D01*
X119735296Y-34780827D01*
X119650154Y-34350830D01*
X119483114Y-33945560D01*
X119240537Y-33580453D01*
X118931664Y-33269416D01*
X118568259Y-33024296D01*
X118164165Y-32854430D01*
X117734772Y-32766289D01*
X117296438Y-32763229D01*
X116865857Y-32845366D01*
X116459430Y-33009573D01*
X116092638Y-33249595D01*
X115779453Y-33556289D01*
X115531802Y-33917974D01*
X115359119Y-34320873D01*
X115267982Y-34749639D01*
X115261862Y-35187942D01*
X96685000Y-35187942D01*
X96685000Y-34685000D01*
X101500000Y-34685000D01*
X101500123Y-34684988D01*
X101502394Y-34684996D01*
X101554753Y-34684813D01*
X101584522Y-34681789D01*
X101614442Y-34681998D01*
X101623961Y-34681064D01*
X103079687Y-34528061D01*
X103140481Y-34515582D01*
X103201488Y-34503944D01*
X103210644Y-34501180D01*
X104608927Y-34068340D01*
X104666193Y-34044268D01*
X104723725Y-34021023D01*
X104732170Y-34016533D01*
X106019750Y-33320341D01*
X106071239Y-33285611D01*
X106123170Y-33251628D01*
X106130582Y-33245584D01*
X107258417Y-32312558D01*
X107302147Y-32268521D01*
X107346522Y-32225066D01*
X107352618Y-32217697D01*
X108277746Y-31083377D01*
X108312097Y-31031674D01*
X108347179Y-30980438D01*
X108351728Y-30972025D01*
X109038914Y-29679616D01*
X109062577Y-29622206D01*
X109087030Y-29565151D01*
X109089859Y-29556015D01*
X109512928Y-28154746D01*
X109524983Y-28093862D01*
X109537895Y-28033114D01*
X109538895Y-28023602D01*
X109577782Y-27627000D01*
X110250000Y-27627000D01*
X110285381Y-27621972D01*
X110317961Y-27607286D01*
X110345160Y-27584105D01*
X110364823Y-27554264D01*
X110375395Y-27520127D01*
X110377000Y-27500000D01*
X110377000Y-27377000D01*
X111123000Y-27377000D01*
X111123000Y-27500000D01*
X111123000Y-27500000D01*
G37*
X111123000Y-27500000D02*
X111128028Y-27535381D01*
X111142714Y-27567961D01*
X111165895Y-27595160D01*
X111195736Y-27614823D01*
X111229873Y-27625395D01*
X111250000Y-27627000D01*
X140873000Y-27627000D01*
X140873000Y-37873000D01*
X106500000Y-37873000D01*
X106464619Y-37878028D01*
X106432039Y-37892714D01*
X106404840Y-37915895D01*
X106385177Y-37945736D01*
X106374605Y-37979873D01*
X106373000Y-38000000D01*
X106373000Y-49873000D01*
X96685000Y-49873000D01*
X96685000Y-35187942D01*
X115261862Y-35187942D01*
X115340992Y-35619086D01*
X115502357Y-36026649D01*
X115739813Y-36395107D01*
X116044313Y-36710426D01*
X116404260Y-36960596D01*
X116805943Y-37136087D01*
X117234063Y-37230215D01*
X117672312Y-37239395D01*
X118103998Y-37163278D01*
X118512678Y-37004761D01*
X118882785Y-36769884D01*
X119200222Y-36467592D01*
X119452899Y-36109401D01*
X119631190Y-35708952D01*
X119728305Y-35281500D01*
X119735296Y-34780827D01*
X119650154Y-34350830D01*
X119483114Y-33945560D01*
X119240537Y-33580453D01*
X118931664Y-33269416D01*
X118568259Y-33024296D01*
X118164165Y-32854430D01*
X117734772Y-32766289D01*
X117296438Y-32763229D01*
X116865857Y-32845366D01*
X116459430Y-33009573D01*
X116092638Y-33249595D01*
X115779453Y-33556289D01*
X115531802Y-33917974D01*
X115359119Y-34320873D01*
X115267982Y-34749639D01*
X115261862Y-35187942D01*
X96685000Y-35187942D01*
X96685000Y-34685000D01*
X101500000Y-34685000D01*
X101500123Y-34684988D01*
X101502394Y-34684996D01*
X101554753Y-34684813D01*
X101584522Y-34681789D01*
X101614442Y-34681998D01*
X101623961Y-34681064D01*
X103079687Y-34528061D01*
X103140481Y-34515582D01*
X103201488Y-34503944D01*
X103210644Y-34501180D01*
X104608927Y-34068340D01*
X104666193Y-34044268D01*
X104723725Y-34021023D01*
X104732170Y-34016533D01*
X106019750Y-33320341D01*
X106071239Y-33285611D01*
X106123170Y-33251628D01*
X106130582Y-33245584D01*
X107258417Y-32312558D01*
X107302147Y-32268521D01*
X107346522Y-32225066D01*
X107352618Y-32217697D01*
X108277746Y-31083377D01*
X108312097Y-31031674D01*
X108347179Y-30980438D01*
X108351728Y-30972025D01*
X109038914Y-29679616D01*
X109062577Y-29622206D01*
X109087030Y-29565151D01*
X109089859Y-29556015D01*
X109512928Y-28154746D01*
X109524983Y-28093862D01*
X109537895Y-28033114D01*
X109538895Y-28023602D01*
X109577782Y-27627000D01*
X110250000Y-27627000D01*
X110285381Y-27621972D01*
X110317961Y-27607286D01*
X110345160Y-27584105D01*
X110364823Y-27554264D01*
X110375395Y-27520127D01*
X110377000Y-27500000D01*
X110377000Y-27377000D01*
X111123000Y-27377000D01*
X111123000Y-27500000D01*
G36*
X157873000Y-42000000D02*
X157883006Y-42049410D01*
X157911447Y-42091035D01*
X157953841Y-42118315D01*
X158000000Y-42127000D01*
X213315000Y-42127000D01*
X213315000Y-50373000D01*
X157500000Y-50373000D01*
X157450590Y-50383006D01*
X157408965Y-50411447D01*
X157381685Y-50453841D01*
X157373000Y-50500000D01*
X157373000Y-67373000D01*
X145127000Y-67373000D01*
X145127000Y-42127000D01*
X157000000Y-42127000D01*
X157049410Y-42116994D01*
X157091035Y-42088553D01*
X157118315Y-42046159D01*
X157127000Y-42000000D01*
X157127000Y-41627000D01*
X157873000Y-41627000D01*
X157873000Y-42000000D01*
X157873000Y-42000000D01*
G37*
X157873000Y-42000000D02*
X157883006Y-42049410D01*
X157911447Y-42091035D01*
X157953841Y-42118315D01*
X158000000Y-42127000D01*
X213315000Y-42127000D01*
X213315000Y-50373000D01*
X157500000Y-50373000D01*
X157450590Y-50383006D01*
X157408965Y-50411447D01*
X157381685Y-50453841D01*
X157373000Y-50500000D01*
X157373000Y-67373000D01*
X145127000Y-67373000D01*
X145127000Y-42127000D01*
X157000000Y-42127000D01*
X157049410Y-42116994D01*
X157091035Y-42088553D01*
X157118315Y-42046159D01*
X157127000Y-42000000D01*
X157127000Y-41627000D01*
X157873000Y-41627000D01*
X157873000Y-42000000D01*
G36*
X143873000Y-41052606D02*
X143873000Y-68500000D01*
X143878028Y-68535381D01*
X143892714Y-68567961D01*
X143915895Y-68595160D01*
X143945736Y-68614823D01*
X143979873Y-68625395D01*
X144000000Y-68627000D01*
X158500000Y-68627000D01*
X158535381Y-68621972D01*
X158567961Y-68607286D01*
X158595160Y-68584105D01*
X158614823Y-68554264D01*
X158625395Y-68520127D01*
X158627000Y-68500000D01*
X158627000Y-51627000D01*
X213315000Y-51627000D01*
X213315000Y-125315000D01*
X208500000Y-125315000D01*
X208499877Y-125315012D01*
X208497606Y-125315004D01*
X208445247Y-125315187D01*
X208415478Y-125318211D01*
X208385558Y-125318002D01*
X208376039Y-125318935D01*
X206920314Y-125471939D01*
X206859520Y-125484418D01*
X206798513Y-125496056D01*
X206789357Y-125498820D01*
X205391073Y-125931660D01*
X205333807Y-125955732D01*
X205276275Y-125978977D01*
X205267835Y-125983465D01*
X205267830Y-125983467D01*
X205267826Y-125983470D01*
X203980250Y-126679659D01*
X203928787Y-126714371D01*
X203876830Y-126748371D01*
X203869418Y-126754416D01*
X202741584Y-127687441D01*
X202697836Y-127731495D01*
X202653478Y-127774934D01*
X202647382Y-127782303D01*
X201722254Y-128916623D01*
X201687903Y-128968326D01*
X201652821Y-129019562D01*
X201648272Y-129027975D01*
X200961086Y-130320384D01*
X200937418Y-130377806D01*
X200912970Y-130434849D01*
X200910141Y-130443985D01*
X200487072Y-131845255D01*
X200475007Y-131906188D01*
X200462105Y-131966886D01*
X200461105Y-131976398D01*
X200318269Y-133433156D01*
X200318269Y-133461889D01*
X200315067Y-133490436D01*
X200315000Y-133500000D01*
X200315000Y-138315000D01*
X193255242Y-138315000D01*
X193464881Y-138248498D01*
X193833498Y-138051469D01*
X194025586Y-137705192D01*
X192500000Y-136179605D01*
X190974414Y-137705192D01*
X191166502Y-138051469D01*
X191592346Y-138272203D01*
X191740138Y-138315000D01*
X118255242Y-138315000D01*
X118464881Y-138248498D01*
X118833498Y-138051469D01*
X119025586Y-137705192D01*
X117500000Y-136179605D01*
X115974414Y-137705192D01*
X116166502Y-138051469D01*
X116592346Y-138272203D01*
X116740138Y-138315000D01*
X109685000Y-138315000D01*
X109685000Y-136030971D01*
X115053415Y-136030971D01*
X115106468Y-136507681D01*
X115251502Y-136964881D01*
X115448531Y-137333498D01*
X115794808Y-137525586D01*
X117320395Y-136000000D01*
X117679605Y-136000000D01*
X119205192Y-137525586D01*
X119551469Y-137333498D01*
X119772203Y-136907654D01*
X119905618Y-136446929D01*
X119941275Y-136030971D01*
X190053415Y-136030971D01*
X190106468Y-136507681D01*
X190251502Y-136964881D01*
X190448531Y-137333498D01*
X190794808Y-137525586D01*
X192320395Y-136000000D01*
X192679605Y-136000000D01*
X194205192Y-137525586D01*
X194551469Y-137333498D01*
X194772203Y-136907654D01*
X194905618Y-136446929D01*
X194946585Y-135969029D01*
X194893532Y-135492319D01*
X194748498Y-135035119D01*
X194551469Y-134666502D01*
X194205192Y-134474414D01*
X192679605Y-136000000D01*
X192320395Y-136000000D01*
X190794808Y-134474414D01*
X190448531Y-134666502D01*
X190227797Y-135092346D01*
X190094382Y-135553071D01*
X190053415Y-136030971D01*
X119941275Y-136030971D01*
X119946585Y-135969029D01*
X119893532Y-135492319D01*
X119748498Y-135035119D01*
X119551469Y-134666502D01*
X119205192Y-134474414D01*
X117679605Y-136000000D01*
X117320395Y-136000000D01*
X115794808Y-134474414D01*
X115448531Y-134666502D01*
X115227797Y-135092346D01*
X115094382Y-135553071D01*
X115053415Y-136030971D01*
X109685000Y-136030971D01*
X109685000Y-134294808D01*
X115974414Y-134294808D01*
X117500000Y-135820395D01*
X119025586Y-134294808D01*
X118833498Y-133948531D01*
X118723911Y-133891727D01*
X153256634Y-133891727D01*
X153277595Y-134122047D01*
X153342892Y-134343909D01*
X153450039Y-134548862D01*
X153594955Y-134729101D01*
X153772119Y-134877759D01*
X153974784Y-134989175D01*
X154195230Y-135059105D01*
X154425060Y-135084884D01*
X154441605Y-135085000D01*
X155558395Y-135085000D01*
X155788563Y-135062432D01*
X156009963Y-134995587D01*
X156214164Y-134887012D01*
X156393387Y-134740841D01*
X156540805Y-134562644D01*
X156650803Y-134359206D01*
X156670737Y-134294808D01*
X190974414Y-134294808D01*
X192500000Y-135820395D01*
X194025586Y-134294808D01*
X193833498Y-133948531D01*
X193407654Y-133727797D01*
X192946929Y-133594382D01*
X192469029Y-133553415D01*
X191992319Y-133606468D01*
X191535119Y-133751502D01*
X191166502Y-133948531D01*
X190974414Y-134294808D01*
X156670737Y-134294808D01*
X156719192Y-134138277D01*
X156743366Y-133908273D01*
X156722405Y-133677953D01*
X156657108Y-133456091D01*
X156549961Y-133251138D01*
X156405045Y-133070899D01*
X156227881Y-132922241D01*
X156025216Y-132810825D01*
X155804770Y-132740895D01*
X155574940Y-132715116D01*
X155558395Y-132715000D01*
X154441605Y-132715000D01*
X154211437Y-132737568D01*
X153990037Y-132804413D01*
X153785836Y-132912988D01*
X153606613Y-133059159D01*
X153459195Y-133237356D01*
X153349197Y-133440794D01*
X153280808Y-133661723D01*
X153256634Y-133891727D01*
X118723911Y-133891727D01*
X118407654Y-133727797D01*
X117946929Y-133594382D01*
X117469029Y-133553415D01*
X116992319Y-133606468D01*
X116535119Y-133751502D01*
X116166502Y-133948531D01*
X115974414Y-134294808D01*
X109685000Y-134294808D01*
X109685000Y-133500000D01*
X109684988Y-133499877D01*
X109684996Y-133497606D01*
X109684813Y-133445247D01*
X109681789Y-133415478D01*
X109681998Y-133385558D01*
X109681065Y-133376039D01*
X109528061Y-131920314D01*
X109515582Y-131859520D01*
X109503944Y-131798513D01*
X109501180Y-131789357D01*
X109486437Y-131741727D01*
X150657602Y-131741727D01*
X150678563Y-131972047D01*
X150743860Y-132193909D01*
X150851007Y-132398862D01*
X150995923Y-132579101D01*
X151173087Y-132727759D01*
X151375752Y-132839175D01*
X151596198Y-132909105D01*
X151826028Y-132934884D01*
X151842573Y-132935000D01*
X152557427Y-132935000D01*
X152787595Y-132912432D01*
X153008995Y-132845587D01*
X153213196Y-132737012D01*
X153392419Y-132590841D01*
X153539837Y-132412644D01*
X153649835Y-132209206D01*
X153718224Y-131988277D01*
X153742398Y-131758273D01*
X153740893Y-131741727D01*
X156257602Y-131741727D01*
X156278563Y-131972047D01*
X156343860Y-132193909D01*
X156451007Y-132398862D01*
X156595923Y-132579101D01*
X156773087Y-132727759D01*
X156975752Y-132839175D01*
X157196198Y-132909105D01*
X157426028Y-132934884D01*
X157442573Y-132935000D01*
X158157427Y-132935000D01*
X158387595Y-132912432D01*
X158608995Y-132845587D01*
X158813196Y-132737012D01*
X158992419Y-132590841D01*
X159139837Y-132412644D01*
X159249835Y-132209206D01*
X159318224Y-131988277D01*
X159342398Y-131758273D01*
X159321437Y-131527953D01*
X159256140Y-131306091D01*
X159148993Y-131101138D01*
X159004077Y-130920899D01*
X158826913Y-130772241D01*
X158624248Y-130660825D01*
X158403802Y-130590895D01*
X158173972Y-130565116D01*
X158157427Y-130565000D01*
X157442573Y-130565000D01*
X157212405Y-130587568D01*
X156991005Y-130654413D01*
X156786804Y-130762988D01*
X156607581Y-130909159D01*
X156460163Y-131087356D01*
X156350165Y-131290794D01*
X156281776Y-131511723D01*
X156257602Y-131741727D01*
X153740893Y-131741727D01*
X153721437Y-131527953D01*
X153656140Y-131306091D01*
X153548993Y-131101138D01*
X153404077Y-130920899D01*
X153226913Y-130772241D01*
X153024248Y-130660825D01*
X152803802Y-130590895D01*
X152573972Y-130565116D01*
X152557427Y-130565000D01*
X151842573Y-130565000D01*
X151612405Y-130587568D01*
X151391005Y-130654413D01*
X151186804Y-130762988D01*
X151007581Y-130909159D01*
X150860163Y-131087356D01*
X150750165Y-131290794D01*
X150681776Y-131511723D01*
X150657602Y-131741727D01*
X109486437Y-131741727D01*
X109068340Y-130391073D01*
X109044268Y-130333807D01*
X109021023Y-130276275D01*
X109016533Y-130267831D01*
X109016533Y-130267830D01*
X109016530Y-130267826D01*
X108320341Y-128980250D01*
X108285629Y-128928787D01*
X108251629Y-128876830D01*
X108245584Y-128869418D01*
X107312559Y-127741584D01*
X107268505Y-127697836D01*
X107225066Y-127653478D01*
X107217697Y-127647382D01*
X106083377Y-126722254D01*
X106031674Y-126687903D01*
X105980438Y-126652821D01*
X105972025Y-126648272D01*
X104679616Y-125961086D01*
X104622194Y-125937418D01*
X104565151Y-125912970D01*
X104556015Y-125910141D01*
X103154745Y-125487072D01*
X103093812Y-125475007D01*
X103033114Y-125462105D01*
X103023602Y-125461105D01*
X101566844Y-125318269D01*
X101538111Y-125318269D01*
X101509564Y-125315067D01*
X101500000Y-125315000D01*
X96685000Y-125315000D01*
X96685000Y-125187942D01*
X115261862Y-125187942D01*
X115340992Y-125619086D01*
X115502357Y-126026649D01*
X115739813Y-126395107D01*
X116044313Y-126710426D01*
X116404260Y-126960596D01*
X116805943Y-127136087D01*
X117234063Y-127230215D01*
X117672312Y-127239395D01*
X118103998Y-127163278D01*
X118512678Y-127004761D01*
X118882785Y-126769884D01*
X119200222Y-126467592D01*
X119452899Y-126109401D01*
X119631190Y-125708952D01*
X119728305Y-125281500D01*
X119735296Y-124780827D01*
X119698588Y-124595434D01*
X167363508Y-124595434D01*
X167403689Y-124814362D01*
X167485628Y-125021317D01*
X167606204Y-125208414D01*
X167760824Y-125368528D01*
X167943600Y-125495561D01*
X168147569Y-125584672D01*
X168364961Y-125632469D01*
X168587497Y-125637131D01*
X168806701Y-125598479D01*
X169014222Y-125517987D01*
X169202157Y-125398720D01*
X169363347Y-125245221D01*
X169491652Y-125063337D01*
X169582186Y-124859995D01*
X169631499Y-124642942D01*
X169632397Y-124578617D01*
X170563771Y-124578617D01*
X170596872Y-124758968D01*
X170664372Y-124929454D01*
X170763701Y-125083583D01*
X170891076Y-125215484D01*
X171041644Y-125320131D01*
X171209671Y-125393540D01*
X171388757Y-125432915D01*
X171572079Y-125436755D01*
X171752657Y-125404914D01*
X171923610Y-125338606D01*
X172078429Y-125240355D01*
X172133467Y-125187942D01*
X190261862Y-125187942D01*
X190340992Y-125619086D01*
X190502357Y-126026649D01*
X190739813Y-126395107D01*
X191044313Y-126710426D01*
X191404260Y-126960596D01*
X191805943Y-127136087D01*
X192234063Y-127230215D01*
X192672312Y-127239395D01*
X193103998Y-127163278D01*
X193512678Y-127004761D01*
X193882785Y-126769884D01*
X194200222Y-126467592D01*
X194452899Y-126109401D01*
X194631190Y-125708952D01*
X194728305Y-125281500D01*
X194735296Y-124780827D01*
X194650154Y-124350830D01*
X194483114Y-123945560D01*
X194240537Y-123580453D01*
X193931664Y-123269416D01*
X193568259Y-123024296D01*
X193164165Y-122854430D01*
X192734772Y-122766289D01*
X192296438Y-122763229D01*
X191865857Y-122845366D01*
X191459430Y-123009573D01*
X191092638Y-123249595D01*
X190779453Y-123556289D01*
X190531802Y-123917974D01*
X190359119Y-124320873D01*
X190267982Y-124749639D01*
X190261862Y-125187942D01*
X172133467Y-125187942D01*
X172211215Y-125113904D01*
X172316911Y-124964070D01*
X172391492Y-124796560D01*
X172432116Y-124617754D01*
X172435040Y-124408319D01*
X172399425Y-124228448D01*
X172329550Y-124058920D01*
X172228079Y-123906193D01*
X172098875Y-123776084D01*
X171946860Y-123673549D01*
X171777825Y-123602493D01*
X171598207Y-123565623D01*
X171414849Y-123564343D01*
X171234733Y-123598701D01*
X171064722Y-123667390D01*
X170911291Y-123767793D01*
X170780283Y-123896086D01*
X170676689Y-124047381D01*
X170604454Y-124215916D01*
X170566331Y-124395272D01*
X170563771Y-124578617D01*
X169632397Y-124578617D01*
X169635049Y-124388707D01*
X169591815Y-124170362D01*
X169506995Y-123964571D01*
X169383818Y-123779176D01*
X169226977Y-123621236D01*
X169042446Y-123496768D01*
X168837253Y-123410513D01*
X168619214Y-123365756D01*
X168396634Y-123364202D01*
X168177992Y-123405910D01*
X167971615Y-123489292D01*
X167785363Y-123611171D01*
X167626332Y-123766906D01*
X167500579Y-123950564D01*
X167412894Y-124155150D01*
X167366616Y-124372871D01*
X167363508Y-124595434D01*
X119698588Y-124595434D01*
X119650154Y-124350830D01*
X119483114Y-123945560D01*
X119240537Y-123580453D01*
X119238714Y-123578617D01*
X136563771Y-123578617D01*
X136596872Y-123758968D01*
X136664372Y-123929454D01*
X136763701Y-124083583D01*
X136891076Y-124215484D01*
X137041644Y-124320131D01*
X137209671Y-124393540D01*
X137388757Y-124432915D01*
X137572079Y-124436755D01*
X137752657Y-124404914D01*
X137923610Y-124338606D01*
X138078429Y-124240355D01*
X138211215Y-124113904D01*
X138316911Y-123964070D01*
X138391492Y-123796560D01*
X138432116Y-123617754D01*
X138435040Y-123408319D01*
X138399425Y-123228448D01*
X138329550Y-123058920D01*
X138228079Y-122906193D01*
X138098875Y-122776084D01*
X137946860Y-122673549D01*
X137777825Y-122602493D01*
X137598207Y-122565623D01*
X137414849Y-122564343D01*
X137234733Y-122598701D01*
X137064722Y-122667390D01*
X136911291Y-122767793D01*
X136780283Y-122896086D01*
X136676689Y-123047381D01*
X136604454Y-123215916D01*
X136566331Y-123395272D01*
X136563771Y-123578617D01*
X119238714Y-123578617D01*
X118931664Y-123269416D01*
X118568259Y-123024296D01*
X118164165Y-122854430D01*
X117734772Y-122766289D01*
X117296438Y-122763229D01*
X116865857Y-122845366D01*
X116459430Y-123009573D01*
X116092638Y-123249595D01*
X115779453Y-123556289D01*
X115531802Y-123917974D01*
X115359119Y-124320873D01*
X115267982Y-124749639D01*
X115261862Y-125187942D01*
X96685000Y-125187942D01*
X96685000Y-124078617D01*
X98063771Y-124078617D01*
X98096872Y-124258968D01*
X98164372Y-124429454D01*
X98263701Y-124583583D01*
X98391076Y-124715484D01*
X98541644Y-124820131D01*
X98709671Y-124893540D01*
X98888757Y-124932915D01*
X99072079Y-124936755D01*
X99252657Y-124904914D01*
X99423610Y-124838606D01*
X99578429Y-124740355D01*
X99711215Y-124613904D01*
X99816911Y-124464070D01*
X99891492Y-124296560D01*
X99932116Y-124117754D01*
X99935040Y-123908319D01*
X99899425Y-123728448D01*
X99829550Y-123558920D01*
X99728079Y-123406193D01*
X99598875Y-123276084D01*
X99446860Y-123173549D01*
X99277825Y-123102493D01*
X99098207Y-123065623D01*
X98914849Y-123064343D01*
X98734733Y-123098701D01*
X98564722Y-123167390D01*
X98411291Y-123267793D01*
X98280283Y-123396086D01*
X98176689Y-123547381D01*
X98104454Y-123715916D01*
X98066331Y-123895272D01*
X98063771Y-124078617D01*
X96685000Y-124078617D01*
X96685000Y-118578617D01*
X168563771Y-118578617D01*
X168596872Y-118758968D01*
X168664372Y-118929454D01*
X168763701Y-119083583D01*
X168891076Y-119215484D01*
X169041644Y-119320131D01*
X169209671Y-119393540D01*
X169388757Y-119432915D01*
X169572079Y-119436755D01*
X169752657Y-119404914D01*
X169923610Y-119338606D01*
X170078429Y-119240355D01*
X170211215Y-119113904D01*
X170316911Y-118964070D01*
X170391492Y-118796560D01*
X170432116Y-118617754D01*
X170435040Y-118408319D01*
X170399425Y-118228448D01*
X170329550Y-118058920D01*
X170228079Y-117906193D01*
X170098875Y-117776084D01*
X169946860Y-117673549D01*
X169777825Y-117602493D01*
X169598207Y-117565623D01*
X169414849Y-117564343D01*
X169234733Y-117598701D01*
X169064722Y-117667390D01*
X168911291Y-117767793D01*
X168780283Y-117896086D01*
X168676689Y-118047381D01*
X168604454Y-118215916D01*
X168566331Y-118395272D01*
X168563771Y-118578617D01*
X96685000Y-118578617D01*
X96685000Y-116078617D01*
X98063771Y-116078617D01*
X98096872Y-116258968D01*
X98164372Y-116429454D01*
X98263701Y-116583583D01*
X98391076Y-116715484D01*
X98541644Y-116820131D01*
X98709671Y-116893540D01*
X98888757Y-116932915D01*
X99072079Y-116936755D01*
X99252657Y-116904914D01*
X99423610Y-116838606D01*
X99578429Y-116740355D01*
X99711215Y-116613904D01*
X99816911Y-116464070D01*
X99891492Y-116296560D01*
X99932116Y-116117754D01*
X99935040Y-115908319D01*
X99899425Y-115728448D01*
X99829550Y-115558920D01*
X99728079Y-115406193D01*
X99608474Y-115285750D01*
X147435000Y-115285750D01*
X147435000Y-115912542D01*
X147459403Y-116035223D01*
X147507270Y-116150785D01*
X147576763Y-116254789D01*
X147665211Y-116343237D01*
X147769215Y-116412730D01*
X147884777Y-116460597D01*
X148007458Y-116485000D01*
X148634250Y-116485000D01*
X148793000Y-116326250D01*
X148793000Y-115127000D01*
X147593750Y-115127000D01*
X147435000Y-115285750D01*
X99608474Y-115285750D01*
X99598875Y-115276084D01*
X99446860Y-115173549D01*
X99277825Y-115102493D01*
X99098207Y-115065623D01*
X98914849Y-115064343D01*
X98734733Y-115098701D01*
X98564722Y-115167390D01*
X98411291Y-115267793D01*
X98280283Y-115396086D01*
X98176689Y-115547381D01*
X98104454Y-115715916D01*
X98066331Y-115895272D01*
X98063771Y-116078617D01*
X96685000Y-116078617D01*
X96685000Y-114087458D01*
X147435000Y-114087458D01*
X147435000Y-114714250D01*
X147593750Y-114873000D01*
X148793000Y-114873000D01*
X148793000Y-113673750D01*
X149047000Y-113673750D01*
X149047000Y-114873000D01*
X149067000Y-114873000D01*
X149067000Y-115127000D01*
X149047000Y-115127000D01*
X149047000Y-116326250D01*
X149205750Y-116485000D01*
X149832542Y-116485000D01*
X149955223Y-116460597D01*
X150070785Y-116412730D01*
X150174789Y-116343237D01*
X150263237Y-116254789D01*
X150332730Y-116150785D01*
X150380597Y-116035223D01*
X150382701Y-116024647D01*
X150406287Y-116053567D01*
X150629599Y-116238306D01*
X150884539Y-116376152D01*
X151161399Y-116461854D01*
X151449633Y-116492149D01*
X151738261Y-116465882D01*
X152016291Y-116384053D01*
X152273131Y-116249780D01*
X152499000Y-116068177D01*
X152685294Y-115846161D01*
X152729498Y-115765753D01*
X152763112Y-115828971D01*
X152946287Y-116053567D01*
X153169599Y-116238306D01*
X153424539Y-116376152D01*
X153701399Y-116461854D01*
X153989633Y-116492149D01*
X154278261Y-116465882D01*
X154556291Y-116384053D01*
X154813131Y-116249780D01*
X155039000Y-116068177D01*
X155225294Y-115846161D01*
X155269498Y-115765753D01*
X155303112Y-115828971D01*
X155486287Y-116053567D01*
X155709599Y-116238306D01*
X155964539Y-116376152D01*
X156241399Y-116461854D01*
X156529633Y-116492149D01*
X156818261Y-116465882D01*
X157096291Y-116384053D01*
X157353131Y-116249780D01*
X157579000Y-116068177D01*
X157765294Y-115846161D01*
X157809498Y-115765753D01*
X157843112Y-115828971D01*
X158026287Y-116053567D01*
X158249599Y-116238306D01*
X158504539Y-116376152D01*
X158781399Y-116461854D01*
X159069633Y-116492149D01*
X159358261Y-116465882D01*
X159636291Y-116384053D01*
X159893131Y-116249780D01*
X160119000Y-116068177D01*
X160305294Y-115846161D01*
X160349498Y-115765753D01*
X160383112Y-115828971D01*
X160566287Y-116053567D01*
X160789599Y-116238306D01*
X161044539Y-116376152D01*
X161321399Y-116461854D01*
X161609633Y-116492149D01*
X161898261Y-116465882D01*
X162176291Y-116384053D01*
X162433131Y-116249780D01*
X162659000Y-116068177D01*
X162845294Y-115846161D01*
X162984916Y-115592189D01*
X163072549Y-115315934D01*
X163104855Y-115027919D01*
X163105000Y-115007185D01*
X163105000Y-114992815D01*
X163076718Y-114704377D01*
X162992951Y-114426925D01*
X162856888Y-114171029D01*
X162673713Y-113946433D01*
X162450401Y-113761694D01*
X162195461Y-113623848D01*
X161918601Y-113538146D01*
X161630367Y-113507851D01*
X161341739Y-113534118D01*
X161063709Y-113615947D01*
X160806869Y-113750220D01*
X160581000Y-113931823D01*
X160394706Y-114153839D01*
X160350502Y-114234247D01*
X160316888Y-114171029D01*
X160133713Y-113946433D01*
X159910401Y-113761694D01*
X159655461Y-113623848D01*
X159378601Y-113538146D01*
X159090367Y-113507851D01*
X158801739Y-113534118D01*
X158523709Y-113615947D01*
X158266869Y-113750220D01*
X158041000Y-113931823D01*
X157854706Y-114153839D01*
X157810502Y-114234247D01*
X157776888Y-114171029D01*
X157593713Y-113946433D01*
X157370401Y-113761694D01*
X157115461Y-113623848D01*
X156838601Y-113538146D01*
X156550367Y-113507851D01*
X156261739Y-113534118D01*
X155983709Y-113615947D01*
X155726869Y-113750220D01*
X155501000Y-113931823D01*
X155314706Y-114153839D01*
X155270502Y-114234247D01*
X155236888Y-114171029D01*
X155053713Y-113946433D01*
X154830401Y-113761694D01*
X154575461Y-113623848D01*
X154298601Y-113538146D01*
X154010367Y-113507851D01*
X153721739Y-113534118D01*
X153443709Y-113615947D01*
X153186869Y-113750220D01*
X152961000Y-113931823D01*
X152774706Y-114153839D01*
X152730502Y-114234247D01*
X152696888Y-114171029D01*
X152513713Y-113946433D01*
X152290401Y-113761694D01*
X152035461Y-113623848D01*
X151758601Y-113538146D01*
X151470367Y-113507851D01*
X151181739Y-113534118D01*
X150903709Y-113615947D01*
X150646869Y-113750220D01*
X150421000Y-113931823D01*
X150383041Y-113977061D01*
X150380597Y-113964777D01*
X150332730Y-113849215D01*
X150263237Y-113745211D01*
X150174789Y-113656763D01*
X150070785Y-113587270D01*
X149955223Y-113539403D01*
X149832542Y-113515000D01*
X149205750Y-113515000D01*
X149047000Y-113673750D01*
X148793000Y-113673750D01*
X148634250Y-113515000D01*
X148007458Y-113515000D01*
X147884777Y-113539403D01*
X147769215Y-113587270D01*
X147665211Y-113656763D01*
X147576763Y-113745211D01*
X147507270Y-113849215D01*
X147459403Y-113964777D01*
X147435000Y-114087458D01*
X96685000Y-114087458D01*
X96685000Y-112595434D01*
X167363508Y-112595434D01*
X167403689Y-112814362D01*
X167485628Y-113021317D01*
X167606204Y-113208414D01*
X167760824Y-113368528D01*
X167943600Y-113495561D01*
X168147569Y-113584672D01*
X168364961Y-113632469D01*
X168587497Y-113637131D01*
X168806701Y-113598479D01*
X169014222Y-113517987D01*
X169202157Y-113398720D01*
X169363347Y-113245221D01*
X169491652Y-113063337D01*
X169582186Y-112859995D01*
X169631499Y-112642942D01*
X169635049Y-112388707D01*
X169591815Y-112170362D01*
X169554001Y-112078617D01*
X174063771Y-112078617D01*
X174096872Y-112258968D01*
X174164372Y-112429454D01*
X174263701Y-112583583D01*
X174391076Y-112715484D01*
X174541644Y-112820131D01*
X174709671Y-112893540D01*
X174888757Y-112932915D01*
X175072079Y-112936755D01*
X175252657Y-112904914D01*
X175423610Y-112838606D01*
X175578429Y-112740355D01*
X175711215Y-112613904D01*
X175816911Y-112464070D01*
X175891492Y-112296560D01*
X175932116Y-112117754D01*
X175932662Y-112078617D01*
X176563771Y-112078617D01*
X176596872Y-112258968D01*
X176664372Y-112429454D01*
X176763701Y-112583583D01*
X176891076Y-112715484D01*
X177041644Y-112820131D01*
X177209671Y-112893540D01*
X177388757Y-112932915D01*
X177572079Y-112936755D01*
X177752657Y-112904914D01*
X177923610Y-112838606D01*
X178078429Y-112740355D01*
X178211215Y-112613904D01*
X178316911Y-112464070D01*
X178391492Y-112296560D01*
X178432116Y-112117754D01*
X178435040Y-111908319D01*
X178399425Y-111728448D01*
X178329550Y-111558920D01*
X178228079Y-111406193D01*
X178098875Y-111276084D01*
X177946860Y-111173549D01*
X177777825Y-111102493D01*
X177598207Y-111065623D01*
X177414849Y-111064343D01*
X177234733Y-111098701D01*
X177064722Y-111167390D01*
X176911291Y-111267793D01*
X176780283Y-111396086D01*
X176676689Y-111547381D01*
X176604454Y-111715916D01*
X176566331Y-111895272D01*
X176563771Y-112078617D01*
X175932662Y-112078617D01*
X175935040Y-111908319D01*
X175899425Y-111728448D01*
X175829550Y-111558920D01*
X175728079Y-111406193D01*
X175598875Y-111276084D01*
X175446860Y-111173549D01*
X175277825Y-111102493D01*
X175098207Y-111065623D01*
X174914849Y-111064343D01*
X174734733Y-111098701D01*
X174564722Y-111167390D01*
X174411291Y-111267793D01*
X174280283Y-111396086D01*
X174176689Y-111547381D01*
X174104454Y-111715916D01*
X174066331Y-111895272D01*
X174063771Y-112078617D01*
X169554001Y-112078617D01*
X169506995Y-111964571D01*
X169383818Y-111779176D01*
X169226977Y-111621236D01*
X169042446Y-111496768D01*
X168837253Y-111410513D01*
X168619214Y-111365756D01*
X168396634Y-111364202D01*
X168177992Y-111405910D01*
X167971615Y-111489292D01*
X167785363Y-111611171D01*
X167626332Y-111766906D01*
X167500579Y-111950564D01*
X167412894Y-112155150D01*
X167366616Y-112372871D01*
X167363508Y-112595434D01*
X96685000Y-112595434D01*
X96685000Y-108078617D01*
X160563771Y-108078617D01*
X160596872Y-108258968D01*
X160664372Y-108429454D01*
X160763701Y-108583583D01*
X160891076Y-108715484D01*
X161041644Y-108820131D01*
X161209671Y-108893540D01*
X161388757Y-108932915D01*
X161572079Y-108936755D01*
X161752657Y-108904914D01*
X161923610Y-108838606D01*
X162078429Y-108740355D01*
X162211215Y-108613904D01*
X162316911Y-108464070D01*
X162391492Y-108296560D01*
X162432116Y-108117754D01*
X162435040Y-107908319D01*
X162399425Y-107728448D01*
X162329550Y-107558920D01*
X162228079Y-107406193D01*
X162098875Y-107276084D01*
X161946860Y-107173549D01*
X161777825Y-107102493D01*
X161598207Y-107065623D01*
X161414849Y-107064343D01*
X161234733Y-107098701D01*
X161064722Y-107167390D01*
X160911291Y-107267793D01*
X160780283Y-107396086D01*
X160676689Y-107547381D01*
X160604454Y-107715916D01*
X160566331Y-107895272D01*
X160563771Y-108078617D01*
X96685000Y-108078617D01*
X96685000Y-107078617D01*
X101563771Y-107078617D01*
X101596872Y-107258968D01*
X101664372Y-107429454D01*
X101763701Y-107583583D01*
X101891076Y-107715484D01*
X102041644Y-107820131D01*
X102209671Y-107893540D01*
X102388757Y-107932915D01*
X102572079Y-107936755D01*
X102752657Y-107904914D01*
X102923610Y-107838606D01*
X103078429Y-107740355D01*
X103211215Y-107613904D01*
X103316911Y-107464070D01*
X103391492Y-107296560D01*
X103432116Y-107117754D01*
X103432662Y-107078617D01*
X104063771Y-107078617D01*
X104096872Y-107258968D01*
X104164372Y-107429454D01*
X104263701Y-107583583D01*
X104391076Y-107715484D01*
X104541644Y-107820131D01*
X104709671Y-107893540D01*
X104888757Y-107932915D01*
X105072079Y-107936755D01*
X105252657Y-107904914D01*
X105423610Y-107838606D01*
X105578429Y-107740355D01*
X105711215Y-107613904D01*
X105816911Y-107464070D01*
X105891492Y-107296560D01*
X105932116Y-107117754D01*
X105935040Y-106908319D01*
X105899425Y-106728448D01*
X105829550Y-106558920D01*
X105728079Y-106406193D01*
X105598875Y-106276084D01*
X105572800Y-106258496D01*
X166612522Y-106258496D01*
X166679254Y-106622091D01*
X166815338Y-106965799D01*
X167015590Y-107276529D01*
X167272382Y-107542446D01*
X167575935Y-107753420D01*
X167914684Y-107901416D01*
X168275729Y-107980797D01*
X168645315Y-107988539D01*
X169009367Y-107924346D01*
X169354017Y-107790666D01*
X169666137Y-107592588D01*
X169854087Y-107413605D01*
X180166000Y-107413605D01*
X180291914Y-107703577D01*
X180624126Y-107869433D01*
X180982312Y-107967290D01*
X181352706Y-107993389D01*
X181721075Y-107946725D01*
X182073262Y-107829094D01*
X182308086Y-107703577D01*
X182434000Y-107413605D01*
X181300000Y-106279605D01*
X180166000Y-107413605D01*
X169854087Y-107413605D01*
X169933840Y-107337658D01*
X170146929Y-107035586D01*
X170297286Y-106697877D01*
X170379185Y-106337396D01*
X170381764Y-106152706D01*
X179406611Y-106152706D01*
X179453275Y-106521075D01*
X179570906Y-106873262D01*
X179696423Y-107108086D01*
X179986395Y-107234000D01*
X181120395Y-106100000D01*
X181479605Y-106100000D01*
X182613605Y-107234000D01*
X182903577Y-107108086D01*
X183069433Y-106775874D01*
X183167290Y-106417688D01*
X183193389Y-106047294D01*
X183146725Y-105678925D01*
X183029094Y-105326738D01*
X182903577Y-105091914D01*
X182613605Y-104966000D01*
X181479605Y-106100000D01*
X181120395Y-106100000D01*
X179986395Y-104966000D01*
X179696423Y-105091914D01*
X179530567Y-105424126D01*
X179432710Y-105782312D01*
X179406611Y-106152706D01*
X170381764Y-106152706D01*
X170385081Y-105915166D01*
X170313279Y-105552539D01*
X170172410Y-105210764D01*
X169967839Y-104902860D01*
X169852184Y-104786395D01*
X180166000Y-104786395D01*
X181300000Y-105920395D01*
X182434000Y-104786395D01*
X182308086Y-104496423D01*
X181975874Y-104330567D01*
X181617688Y-104232710D01*
X181247294Y-104206611D01*
X180878925Y-104253275D01*
X180526738Y-104370906D01*
X180291914Y-104496423D01*
X180166000Y-104786395D01*
X169852184Y-104786395D01*
X169707358Y-104640555D01*
X169400890Y-104433839D01*
X169060107Y-104290587D01*
X168697990Y-104216255D01*
X168328331Y-104213674D01*
X167965211Y-104282943D01*
X167622461Y-104421423D01*
X167313137Y-104623840D01*
X167049019Y-104882482D01*
X166840169Y-105187500D01*
X166694542Y-105527275D01*
X166617683Y-105888864D01*
X166612522Y-106258496D01*
X105572800Y-106258496D01*
X105446860Y-106173549D01*
X105277825Y-106102493D01*
X105098207Y-106065623D01*
X104914849Y-106064343D01*
X104734733Y-106098701D01*
X104564722Y-106167390D01*
X104411291Y-106267793D01*
X104280283Y-106396086D01*
X104176689Y-106547381D01*
X104104454Y-106715916D01*
X104066331Y-106895272D01*
X104063771Y-107078617D01*
X103432662Y-107078617D01*
X103435040Y-106908319D01*
X103399425Y-106728448D01*
X103329550Y-106558920D01*
X103228079Y-106406193D01*
X103098875Y-106276084D01*
X102946860Y-106173549D01*
X102777825Y-106102493D01*
X102598207Y-106065623D01*
X102414849Y-106064343D01*
X102234733Y-106098701D01*
X102064722Y-106167390D01*
X101911291Y-106267793D01*
X101780283Y-106396086D01*
X101676689Y-106547381D01*
X101604454Y-106715916D01*
X101566331Y-106895272D01*
X101563771Y-107078617D01*
X96685000Y-107078617D01*
X96685000Y-99078617D01*
X98063771Y-99078617D01*
X98096872Y-99258968D01*
X98164372Y-99429454D01*
X98263701Y-99583583D01*
X98391076Y-99715484D01*
X98541644Y-99820131D01*
X98709671Y-99893540D01*
X98888757Y-99932915D01*
X99072079Y-99936755D01*
X99252657Y-99904914D01*
X99423610Y-99838606D01*
X99578429Y-99740355D01*
X99711215Y-99613904D01*
X99816911Y-99464070D01*
X99891492Y-99296560D01*
X99932116Y-99117754D01*
X99935040Y-98908319D01*
X99899425Y-98728448D01*
X99829550Y-98558920D01*
X99728079Y-98406193D01*
X99598875Y-98276084D01*
X99446860Y-98173549D01*
X99277825Y-98102493D01*
X99098207Y-98065623D01*
X98914849Y-98064343D01*
X98734733Y-98098701D01*
X98564722Y-98167390D01*
X98411291Y-98267793D01*
X98280283Y-98396086D01*
X98176689Y-98547381D01*
X98104454Y-98715916D01*
X98066331Y-98895272D01*
X98063771Y-99078617D01*
X96685000Y-99078617D01*
X96685000Y-91078617D01*
X98063771Y-91078617D01*
X98096872Y-91258968D01*
X98164372Y-91429454D01*
X98263701Y-91583583D01*
X98391076Y-91715484D01*
X98541644Y-91820131D01*
X98709671Y-91893540D01*
X98888757Y-91932915D01*
X99072079Y-91936755D01*
X99252657Y-91904914D01*
X99423610Y-91838606D01*
X99578429Y-91740355D01*
X99711215Y-91613904D01*
X99816911Y-91464070D01*
X99891492Y-91296560D01*
X99932116Y-91117754D01*
X99935040Y-90908319D01*
X99899425Y-90728448D01*
X99829550Y-90558920D01*
X99728079Y-90406193D01*
X99598875Y-90276084D01*
X99446860Y-90173549D01*
X99277825Y-90102493D01*
X99098207Y-90065623D01*
X98914849Y-90064343D01*
X98734733Y-90098701D01*
X98564722Y-90167390D01*
X98411291Y-90267793D01*
X98280283Y-90396086D01*
X98176689Y-90547381D01*
X98104454Y-90715916D01*
X98066331Y-90895272D01*
X98063771Y-91078617D01*
X96685000Y-91078617D01*
X96685000Y-85078617D01*
X143813771Y-85078617D01*
X143846872Y-85258968D01*
X143914372Y-85429454D01*
X144013701Y-85583583D01*
X144141076Y-85715484D01*
X144291644Y-85820131D01*
X144459671Y-85893540D01*
X144638757Y-85932915D01*
X144822079Y-85936755D01*
X145002657Y-85904914D01*
X145173610Y-85838606D01*
X145328429Y-85740355D01*
X145461215Y-85613904D01*
X145566911Y-85464070D01*
X145641492Y-85296560D01*
X145682116Y-85117754D01*
X145685040Y-84908319D01*
X145649425Y-84728448D01*
X145579550Y-84558920D01*
X145478079Y-84406193D01*
X145348875Y-84276084D01*
X145196860Y-84173549D01*
X145027825Y-84102493D01*
X144848207Y-84065623D01*
X144664849Y-84064343D01*
X144484733Y-84098701D01*
X144314722Y-84167390D01*
X144161291Y-84267793D01*
X144030283Y-84396086D01*
X143926689Y-84547381D01*
X143854454Y-84715916D01*
X143816331Y-84895272D01*
X143813771Y-85078617D01*
X96685000Y-85078617D01*
X96685000Y-82078617D01*
X101563771Y-82078617D01*
X101596872Y-82258968D01*
X101664372Y-82429454D01*
X101763701Y-82583583D01*
X101891076Y-82715484D01*
X102041644Y-82820131D01*
X102209671Y-82893540D01*
X102388757Y-82932915D01*
X102572079Y-82936755D01*
X102752657Y-82904914D01*
X102923610Y-82838606D01*
X103078429Y-82740355D01*
X103211215Y-82613904D01*
X103316911Y-82464070D01*
X103391492Y-82296560D01*
X103432116Y-82117754D01*
X103432662Y-82078617D01*
X104063771Y-82078617D01*
X104096872Y-82258968D01*
X104164372Y-82429454D01*
X104263701Y-82583583D01*
X104391076Y-82715484D01*
X104541644Y-82820131D01*
X104709671Y-82893540D01*
X104888757Y-82932915D01*
X105072079Y-82936755D01*
X105252657Y-82904914D01*
X105423610Y-82838606D01*
X105578429Y-82740355D01*
X105711215Y-82613904D01*
X105816911Y-82464070D01*
X105891492Y-82296560D01*
X105932116Y-82117754D01*
X105935040Y-81908319D01*
X105899425Y-81728448D01*
X105829550Y-81558920D01*
X105728079Y-81406193D01*
X105598875Y-81276084D01*
X105446860Y-81173549D01*
X105277825Y-81102493D01*
X105098207Y-81065623D01*
X104914849Y-81064343D01*
X104734733Y-81098701D01*
X104564722Y-81167390D01*
X104411291Y-81267793D01*
X104280283Y-81396086D01*
X104176689Y-81547381D01*
X104104454Y-81715916D01*
X104066331Y-81895272D01*
X104063771Y-82078617D01*
X103432662Y-82078617D01*
X103435040Y-81908319D01*
X103399425Y-81728448D01*
X103329550Y-81558920D01*
X103228079Y-81406193D01*
X103098875Y-81276084D01*
X102946860Y-81173549D01*
X102777825Y-81102493D01*
X102598207Y-81065623D01*
X102414849Y-81064343D01*
X102234733Y-81098701D01*
X102064722Y-81167390D01*
X101911291Y-81267793D01*
X101780283Y-81396086D01*
X101676689Y-81547381D01*
X101604454Y-81715916D01*
X101566331Y-81895272D01*
X101563771Y-82078617D01*
X96685000Y-82078617D01*
X96685000Y-77850000D01*
X128461928Y-77850000D01*
X128461928Y-79650000D01*
X128469992Y-79751121D01*
X128523106Y-79922634D01*
X128621900Y-80072559D01*
X128758550Y-80189025D01*
X128876143Y-80242032D01*
X128818432Y-80298547D01*
X128648361Y-80546930D01*
X128529773Y-80823617D01*
X128467186Y-81118067D01*
X128462983Y-81419067D01*
X128517324Y-81715150D01*
X128628140Y-81995040D01*
X128791210Y-82248075D01*
X129000322Y-82464617D01*
X129247512Y-82636419D01*
X129523364Y-82756935D01*
X129817371Y-82821577D01*
X130118334Y-82827881D01*
X130414789Y-82775608D01*
X130695446Y-82666748D01*
X130949613Y-82505449D01*
X131167610Y-82297854D01*
X131341132Y-82051869D01*
X131463572Y-81776866D01*
X131530265Y-81483317D01*
X131535066Y-81139486D01*
X131476595Y-80844190D01*
X131361882Y-80565874D01*
X131195295Y-80315141D01*
X131122943Y-80242282D01*
X131172634Y-80226894D01*
X131276431Y-80158496D01*
X168112522Y-80158496D01*
X168179254Y-80522091D01*
X168315338Y-80865799D01*
X168515590Y-81176529D01*
X168772382Y-81442446D01*
X169075935Y-81653420D01*
X169414684Y-81801416D01*
X169775729Y-81880797D01*
X170145315Y-81888539D01*
X170509367Y-81824346D01*
X170854017Y-81690666D01*
X171166137Y-81492588D01*
X171433840Y-81237658D01*
X171646929Y-80935586D01*
X171797286Y-80597877D01*
X171879185Y-80237396D01*
X171880286Y-80158496D01*
X198112522Y-80158496D01*
X198179254Y-80522091D01*
X198315338Y-80865799D01*
X198515590Y-81176529D01*
X198772382Y-81442446D01*
X199075935Y-81653420D01*
X199414684Y-81801416D01*
X199775729Y-81880797D01*
X200145315Y-81888539D01*
X200509367Y-81824346D01*
X200854017Y-81690666D01*
X201166137Y-81492588D01*
X201433840Y-81237658D01*
X201646929Y-80935586D01*
X201797286Y-80597877D01*
X201879185Y-80237396D01*
X201885081Y-79815166D01*
X201813279Y-79452539D01*
X201672410Y-79110764D01*
X201467839Y-78802860D01*
X201207358Y-78540555D01*
X200900890Y-78333839D01*
X200560107Y-78190587D01*
X200197990Y-78116255D01*
X199828331Y-78113674D01*
X199465211Y-78182943D01*
X199122461Y-78321423D01*
X198813137Y-78523840D01*
X198549019Y-78782482D01*
X198340169Y-79087500D01*
X198194542Y-79427275D01*
X198117683Y-79788864D01*
X198112522Y-80158496D01*
X171880286Y-80158496D01*
X171885081Y-79815166D01*
X171813279Y-79452539D01*
X171672410Y-79110764D01*
X171467839Y-78802860D01*
X171207358Y-78540555D01*
X170900890Y-78333839D01*
X170560107Y-78190587D01*
X170197990Y-78116255D01*
X169828331Y-78113674D01*
X169465211Y-78182943D01*
X169122461Y-78321423D01*
X168813137Y-78523840D01*
X168549019Y-78782482D01*
X168340169Y-79087500D01*
X168194542Y-79427275D01*
X168117683Y-79788864D01*
X168112522Y-80158496D01*
X131276431Y-80158496D01*
X131322559Y-80128100D01*
X131439025Y-79991450D01*
X131512810Y-79827763D01*
X131538072Y-79650000D01*
X131538072Y-77850000D01*
X131530008Y-77748879D01*
X131476894Y-77577366D01*
X131378100Y-77427441D01*
X131241450Y-77310975D01*
X131077763Y-77237190D01*
X130900000Y-77211928D01*
X129100000Y-77211928D01*
X128998879Y-77219992D01*
X128827366Y-77273106D01*
X128677441Y-77371900D01*
X128560975Y-77508550D01*
X128487190Y-77672237D01*
X128461928Y-77850000D01*
X96685000Y-77850000D01*
X96685000Y-73578617D01*
X117563771Y-73578617D01*
X117596872Y-73758968D01*
X117664372Y-73929454D01*
X117763701Y-74083583D01*
X117891076Y-74215484D01*
X118041644Y-74320131D01*
X118209671Y-74393540D01*
X118388757Y-74432915D01*
X118572079Y-74436755D01*
X118752657Y-74404914D01*
X118923610Y-74338606D01*
X119078429Y-74240355D01*
X119211215Y-74113904D01*
X119316911Y-73964070D01*
X119391492Y-73796560D01*
X119432116Y-73617754D01*
X119435040Y-73408319D01*
X119399425Y-73228448D01*
X119329550Y-73058920D01*
X119228079Y-72906193D01*
X119098875Y-72776084D01*
X118946860Y-72673549D01*
X118777825Y-72602493D01*
X118661510Y-72578617D01*
X126563771Y-72578617D01*
X126596872Y-72758968D01*
X126664372Y-72929454D01*
X126763701Y-73083583D01*
X126891076Y-73215484D01*
X127041644Y-73320131D01*
X127209671Y-73393540D01*
X127388757Y-73432915D01*
X127572079Y-73436755D01*
X127752657Y-73404914D01*
X127923610Y-73338606D01*
X128078429Y-73240355D01*
X128211215Y-73113904D01*
X128316911Y-72964070D01*
X128391492Y-72796560D01*
X128432116Y-72617754D01*
X128435040Y-72408319D01*
X128399425Y-72228448D01*
X128329550Y-72058920D01*
X128228079Y-71906193D01*
X128098875Y-71776084D01*
X127946860Y-71673549D01*
X127777825Y-71602493D01*
X127598207Y-71565623D01*
X127414849Y-71564343D01*
X127234733Y-71598701D01*
X127064722Y-71667390D01*
X126911291Y-71767793D01*
X126780283Y-71896086D01*
X126676689Y-72047381D01*
X126604454Y-72215916D01*
X126566331Y-72395272D01*
X126563771Y-72578617D01*
X118661510Y-72578617D01*
X118598207Y-72565623D01*
X118414849Y-72564343D01*
X118234733Y-72598701D01*
X118064722Y-72667390D01*
X117911291Y-72767793D01*
X117780283Y-72896086D01*
X117676689Y-73047381D01*
X117604454Y-73215916D01*
X117566331Y-73395272D01*
X117563771Y-73578617D01*
X96685000Y-73578617D01*
X96685000Y-72078617D01*
X113063771Y-72078617D01*
X113096872Y-72258968D01*
X113164372Y-72429454D01*
X113263701Y-72583583D01*
X113391076Y-72715484D01*
X113541644Y-72820131D01*
X113709671Y-72893540D01*
X113888757Y-72932915D01*
X114072079Y-72936755D01*
X114252657Y-72904914D01*
X114423610Y-72838606D01*
X114578429Y-72740355D01*
X114711215Y-72613904D01*
X114816911Y-72464070D01*
X114891492Y-72296560D01*
X114932116Y-72117754D01*
X114935040Y-71908319D01*
X114899425Y-71728448D01*
X114829550Y-71558920D01*
X114728079Y-71406193D01*
X114598875Y-71276084D01*
X114446860Y-71173549D01*
X114277825Y-71102493D01*
X114098207Y-71065623D01*
X113914849Y-71064343D01*
X113734733Y-71098701D01*
X113564722Y-71167390D01*
X113411291Y-71267793D01*
X113280283Y-71396086D01*
X113176689Y-71547381D01*
X113104454Y-71715916D01*
X113066331Y-71895272D01*
X113063771Y-72078617D01*
X96685000Y-72078617D01*
X96685000Y-70078617D01*
X116563771Y-70078617D01*
X116596872Y-70258968D01*
X116664372Y-70429454D01*
X116763701Y-70583583D01*
X116891076Y-70715484D01*
X117041644Y-70820131D01*
X117209671Y-70893540D01*
X117388757Y-70932915D01*
X117572079Y-70936755D01*
X117752657Y-70904914D01*
X117923610Y-70838606D01*
X118078429Y-70740355D01*
X118211215Y-70613904D01*
X118316911Y-70464070D01*
X118391492Y-70296560D01*
X118432116Y-70117754D01*
X118432662Y-70078617D01*
X126563771Y-70078617D01*
X126596872Y-70258968D01*
X126664372Y-70429454D01*
X126763701Y-70583583D01*
X126891076Y-70715484D01*
X127041644Y-70820131D01*
X127209671Y-70893540D01*
X127388757Y-70932915D01*
X127572079Y-70936755D01*
X127752657Y-70904914D01*
X127923610Y-70838606D01*
X128078429Y-70740355D01*
X128211215Y-70613904D01*
X128316911Y-70464070D01*
X128391492Y-70296560D01*
X128432116Y-70117754D01*
X128432427Y-70095434D01*
X141863508Y-70095434D01*
X141903689Y-70314362D01*
X141985628Y-70521317D01*
X142106204Y-70708414D01*
X142260824Y-70868528D01*
X142443600Y-70995561D01*
X142647569Y-71084672D01*
X142864961Y-71132469D01*
X143087497Y-71137131D01*
X143306701Y-71098479D01*
X143514222Y-71017987D01*
X143702157Y-70898720D01*
X143863347Y-70745221D01*
X143991652Y-70563337D01*
X144082186Y-70359995D01*
X144131499Y-70142942D01*
X144132162Y-70095434D01*
X144363508Y-70095434D01*
X144403689Y-70314362D01*
X144485628Y-70521317D01*
X144606204Y-70708414D01*
X144760824Y-70868528D01*
X144943600Y-70995561D01*
X145147569Y-71084672D01*
X145364961Y-71132469D01*
X145587497Y-71137131D01*
X145806701Y-71098479D01*
X146014222Y-71017987D01*
X146202157Y-70898720D01*
X146363347Y-70745221D01*
X146491652Y-70563337D01*
X146582186Y-70359995D01*
X146631499Y-70142942D01*
X146632162Y-70095434D01*
X146863508Y-70095434D01*
X146903689Y-70314362D01*
X146985628Y-70521317D01*
X147106204Y-70708414D01*
X147260824Y-70868528D01*
X147443600Y-70995561D01*
X147647569Y-71084672D01*
X147864961Y-71132469D01*
X148087497Y-71137131D01*
X148306701Y-71098479D01*
X148514222Y-71017987D01*
X148702157Y-70898720D01*
X148863347Y-70745221D01*
X148991652Y-70563337D01*
X149082186Y-70359995D01*
X149131499Y-70142942D01*
X149135049Y-69888707D01*
X149091815Y-69670362D01*
X149006995Y-69464571D01*
X148883818Y-69279176D01*
X148726977Y-69121236D01*
X148542446Y-68996768D01*
X148337253Y-68910513D01*
X148119214Y-68865756D01*
X147896634Y-68864202D01*
X147677992Y-68905910D01*
X147471615Y-68989292D01*
X147285363Y-69111171D01*
X147126332Y-69266906D01*
X147000579Y-69450564D01*
X146912894Y-69655150D01*
X146866616Y-69872871D01*
X146863508Y-70095434D01*
X146632162Y-70095434D01*
X146635049Y-69888707D01*
X146591815Y-69670362D01*
X146506995Y-69464571D01*
X146383818Y-69279176D01*
X146226977Y-69121236D01*
X146042446Y-68996768D01*
X145837253Y-68910513D01*
X145619214Y-68865756D01*
X145396634Y-68864202D01*
X145177992Y-68905910D01*
X144971615Y-68989292D01*
X144785363Y-69111171D01*
X144626332Y-69266906D01*
X144500579Y-69450564D01*
X144412894Y-69655150D01*
X144366616Y-69872871D01*
X144363508Y-70095434D01*
X144132162Y-70095434D01*
X144135049Y-69888707D01*
X144091815Y-69670362D01*
X144006995Y-69464571D01*
X143883818Y-69279176D01*
X143726977Y-69121236D01*
X143542446Y-68996768D01*
X143337253Y-68910513D01*
X143119214Y-68865756D01*
X142896634Y-68864202D01*
X142677992Y-68905910D01*
X142471615Y-68989292D01*
X142285363Y-69111171D01*
X142126332Y-69266906D01*
X142000579Y-69450564D01*
X141912894Y-69655150D01*
X141866616Y-69872871D01*
X141863508Y-70095434D01*
X128432427Y-70095434D01*
X128435040Y-69908319D01*
X128399425Y-69728448D01*
X128329550Y-69558920D01*
X128228079Y-69406193D01*
X128098875Y-69276084D01*
X127946860Y-69173549D01*
X127777825Y-69102493D01*
X127598207Y-69065623D01*
X127414849Y-69064343D01*
X127234733Y-69098701D01*
X127064722Y-69167390D01*
X126911291Y-69267793D01*
X126780283Y-69396086D01*
X126676689Y-69547381D01*
X126604454Y-69715916D01*
X126566331Y-69895272D01*
X126563771Y-70078617D01*
X118432662Y-70078617D01*
X118435040Y-69908319D01*
X118399425Y-69728448D01*
X118329550Y-69558920D01*
X118228079Y-69406193D01*
X118098875Y-69276084D01*
X117946860Y-69173549D01*
X117777825Y-69102493D01*
X117598207Y-69065623D01*
X117414849Y-69064343D01*
X117234733Y-69098701D01*
X117064722Y-69167390D01*
X116911291Y-69267793D01*
X116780283Y-69396086D01*
X116676689Y-69547381D01*
X116604454Y-69715916D01*
X116566331Y-69895272D01*
X116563771Y-70078617D01*
X96685000Y-70078617D01*
X96685000Y-68078617D01*
X113063771Y-68078617D01*
X113096872Y-68258968D01*
X113164372Y-68429454D01*
X113263701Y-68583583D01*
X113391076Y-68715484D01*
X113541644Y-68820131D01*
X113709671Y-68893540D01*
X113888757Y-68932915D01*
X114072079Y-68936755D01*
X114252657Y-68904914D01*
X114423610Y-68838606D01*
X114578429Y-68740355D01*
X114711215Y-68613904D01*
X114816911Y-68464070D01*
X114891492Y-68296560D01*
X114932116Y-68117754D01*
X114935040Y-67908319D01*
X114899425Y-67728448D01*
X114837669Y-67578617D01*
X134563771Y-67578617D01*
X134596872Y-67758968D01*
X134664372Y-67929454D01*
X134763701Y-68083583D01*
X134891076Y-68215484D01*
X135041644Y-68320131D01*
X135209671Y-68393540D01*
X135388757Y-68432915D01*
X135572079Y-68436755D01*
X135752657Y-68404914D01*
X135923610Y-68338606D01*
X136078429Y-68240355D01*
X136211215Y-68113904D01*
X136316911Y-67964070D01*
X136391492Y-67796560D01*
X136432116Y-67617754D01*
X136435040Y-67408319D01*
X136399425Y-67228448D01*
X136337669Y-67078617D01*
X139563771Y-67078617D01*
X139596872Y-67258968D01*
X139664372Y-67429454D01*
X139763701Y-67583583D01*
X139891076Y-67715484D01*
X140041644Y-67820131D01*
X140209671Y-67893540D01*
X140388757Y-67932915D01*
X140572079Y-67936755D01*
X140752657Y-67904914D01*
X140923610Y-67838606D01*
X141078429Y-67740355D01*
X141211215Y-67613904D01*
X141316911Y-67464070D01*
X141391492Y-67296560D01*
X141432116Y-67117754D01*
X141435040Y-66908319D01*
X141399425Y-66728448D01*
X141329550Y-66558920D01*
X141228079Y-66406193D01*
X141098875Y-66276084D01*
X140946860Y-66173549D01*
X140777825Y-66102493D01*
X140598207Y-66065623D01*
X140414849Y-66064343D01*
X140234733Y-66098701D01*
X140064722Y-66167390D01*
X139911291Y-66267793D01*
X139780283Y-66396086D01*
X139676689Y-66547381D01*
X139604454Y-66715916D01*
X139566331Y-66895272D01*
X139563771Y-67078617D01*
X136337669Y-67078617D01*
X136329550Y-67058920D01*
X136228079Y-66906193D01*
X136098875Y-66776084D01*
X135946860Y-66673549D01*
X135777825Y-66602493D01*
X135598207Y-66565623D01*
X135414849Y-66564343D01*
X135234733Y-66598701D01*
X135064722Y-66667390D01*
X134911291Y-66767793D01*
X134780283Y-66896086D01*
X134676689Y-67047381D01*
X134604454Y-67215916D01*
X134566331Y-67395272D01*
X134563771Y-67578617D01*
X114837669Y-67578617D01*
X114829550Y-67558920D01*
X114728079Y-67406193D01*
X114598875Y-67276084D01*
X114446860Y-67173549D01*
X114277825Y-67102493D01*
X114098207Y-67065623D01*
X113914849Y-67064343D01*
X113734733Y-67098701D01*
X113564722Y-67167390D01*
X113411291Y-67267793D01*
X113280283Y-67396086D01*
X113176689Y-67547381D01*
X113104454Y-67715916D01*
X113066331Y-67895272D01*
X113063771Y-68078617D01*
X96685000Y-68078617D01*
X96685000Y-65078617D01*
X98063771Y-65078617D01*
X98096872Y-65258968D01*
X98164372Y-65429454D01*
X98263701Y-65583583D01*
X98391076Y-65715484D01*
X98541644Y-65820131D01*
X98709671Y-65893540D01*
X98888757Y-65932915D01*
X99072079Y-65936755D01*
X99252657Y-65904914D01*
X99423610Y-65838606D01*
X99578429Y-65740355D01*
X99711215Y-65613904D01*
X99816911Y-65464070D01*
X99891492Y-65296560D01*
X99932116Y-65117754D01*
X99932662Y-65078617D01*
X138063771Y-65078617D01*
X138096872Y-65258968D01*
X138164372Y-65429454D01*
X138263701Y-65583583D01*
X138391076Y-65715484D01*
X138541644Y-65820131D01*
X138709671Y-65893540D01*
X138888757Y-65932915D01*
X139072079Y-65936755D01*
X139252657Y-65904914D01*
X139423610Y-65838606D01*
X139578429Y-65740355D01*
X139711215Y-65613904D01*
X139816911Y-65464070D01*
X139891492Y-65296560D01*
X139932116Y-65117754D01*
X139935040Y-64908319D01*
X139899425Y-64728448D01*
X139829550Y-64558920D01*
X139728079Y-64406193D01*
X139598875Y-64276084D01*
X139446860Y-64173549D01*
X139277825Y-64102493D01*
X139098207Y-64065623D01*
X138914849Y-64064343D01*
X138734733Y-64098701D01*
X138564722Y-64167390D01*
X138411291Y-64267793D01*
X138280283Y-64396086D01*
X138176689Y-64547381D01*
X138104454Y-64715916D01*
X138066331Y-64895272D01*
X138063771Y-65078617D01*
X99932662Y-65078617D01*
X99935040Y-64908319D01*
X99899425Y-64728448D01*
X99829550Y-64558920D01*
X99728079Y-64406193D01*
X99598875Y-64276084D01*
X99446860Y-64173549D01*
X99277825Y-64102493D01*
X99098207Y-64065623D01*
X98914849Y-64064343D01*
X98734733Y-64098701D01*
X98564722Y-64167390D01*
X98411291Y-64267793D01*
X98280283Y-64396086D01*
X98176689Y-64547381D01*
X98104454Y-64715916D01*
X98066331Y-64895272D01*
X98063771Y-65078617D01*
X96685000Y-65078617D01*
X96685000Y-63595434D01*
X123863508Y-63595434D01*
X123903689Y-63814362D01*
X123985628Y-64021317D01*
X124106204Y-64208414D01*
X124260824Y-64368528D01*
X124443600Y-64495561D01*
X124647569Y-64584672D01*
X124864961Y-64632469D01*
X125087497Y-64637131D01*
X125306701Y-64598479D01*
X125514222Y-64517987D01*
X125702157Y-64398720D01*
X125863347Y-64245221D01*
X125991652Y-64063337D01*
X126082186Y-63859995D01*
X126131499Y-63642942D01*
X126135049Y-63388707D01*
X126091815Y-63170362D01*
X126006995Y-62964571D01*
X125883818Y-62779176D01*
X125726977Y-62621236D01*
X125542446Y-62496768D01*
X125337253Y-62410513D01*
X125119214Y-62365756D01*
X124896634Y-62364202D01*
X124677992Y-62405910D01*
X124471615Y-62489292D01*
X124285363Y-62611171D01*
X124126332Y-62766906D01*
X124000579Y-62950564D01*
X123912894Y-63155150D01*
X123866616Y-63372871D01*
X123863508Y-63595434D01*
X96685000Y-63595434D01*
X96685000Y-62078617D01*
X110563771Y-62078617D01*
X110596872Y-62258968D01*
X110664372Y-62429454D01*
X110763701Y-62583583D01*
X110891076Y-62715484D01*
X111041644Y-62820131D01*
X111209671Y-62893540D01*
X111388757Y-62932915D01*
X111572079Y-62936755D01*
X111752657Y-62904914D01*
X111923610Y-62838606D01*
X112078429Y-62740355D01*
X112211215Y-62613904D01*
X112316911Y-62464070D01*
X112391492Y-62296560D01*
X112432116Y-62117754D01*
X112432662Y-62078617D01*
X116563771Y-62078617D01*
X116596872Y-62258968D01*
X116664372Y-62429454D01*
X116763701Y-62583583D01*
X116891076Y-62715484D01*
X117041644Y-62820131D01*
X117209671Y-62893540D01*
X117388757Y-62932915D01*
X117572079Y-62936755D01*
X117752657Y-62904914D01*
X117923610Y-62838606D01*
X117999203Y-62790634D01*
X118041644Y-62820131D01*
X118209671Y-62893540D01*
X118388757Y-62932915D01*
X118572079Y-62936755D01*
X118752657Y-62904914D01*
X118923610Y-62838606D01*
X118999203Y-62790634D01*
X119041644Y-62820131D01*
X119209671Y-62893540D01*
X119388757Y-62932915D01*
X119572079Y-62936755D01*
X119752657Y-62904914D01*
X119923610Y-62838606D01*
X120078429Y-62740355D01*
X120211215Y-62613904D01*
X120316911Y-62464070D01*
X120391492Y-62296560D01*
X120432116Y-62117754D01*
X120432662Y-62078617D01*
X120563771Y-62078617D01*
X120596872Y-62258968D01*
X120664372Y-62429454D01*
X120763701Y-62583583D01*
X120891076Y-62715484D01*
X121041644Y-62820131D01*
X121209671Y-62893540D01*
X121388757Y-62932915D01*
X121572079Y-62936755D01*
X121752657Y-62904914D01*
X121923610Y-62838606D01*
X122078429Y-62740355D01*
X122211215Y-62613904D01*
X122316911Y-62464070D01*
X122391492Y-62296560D01*
X122432116Y-62117754D01*
X122435040Y-61908319D01*
X122399425Y-61728448D01*
X122329550Y-61558920D01*
X122228079Y-61406193D01*
X122098875Y-61276084D01*
X121946860Y-61173549D01*
X121777825Y-61102493D01*
X121598207Y-61065623D01*
X121414849Y-61064343D01*
X121234733Y-61098701D01*
X121064722Y-61167390D01*
X120911291Y-61267793D01*
X120780283Y-61396086D01*
X120676689Y-61547381D01*
X120604454Y-61715916D01*
X120566331Y-61895272D01*
X120563771Y-62078617D01*
X120432662Y-62078617D01*
X120435040Y-61908319D01*
X120399425Y-61728448D01*
X120329550Y-61558920D01*
X120228079Y-61406193D01*
X120098875Y-61276084D01*
X119946860Y-61173549D01*
X119777825Y-61102493D01*
X119598207Y-61065623D01*
X119414849Y-61064343D01*
X119234733Y-61098701D01*
X119064722Y-61167390D01*
X119000264Y-61209570D01*
X118946860Y-61173549D01*
X118777825Y-61102493D01*
X118598207Y-61065623D01*
X118414849Y-61064343D01*
X118234733Y-61098701D01*
X118064722Y-61167390D01*
X118000264Y-61209570D01*
X117946860Y-61173549D01*
X117777825Y-61102493D01*
X117598207Y-61065623D01*
X117414849Y-61064343D01*
X117234733Y-61098701D01*
X117064722Y-61167390D01*
X116911291Y-61267793D01*
X116780283Y-61396086D01*
X116676689Y-61547381D01*
X116604454Y-61715916D01*
X116566331Y-61895272D01*
X116563771Y-62078617D01*
X112432662Y-62078617D01*
X112435040Y-61908319D01*
X112399425Y-61728448D01*
X112329550Y-61558920D01*
X112228079Y-61406193D01*
X112098875Y-61276084D01*
X111946860Y-61173549D01*
X111777825Y-61102493D01*
X111598207Y-61065623D01*
X111414849Y-61064343D01*
X111234733Y-61098701D01*
X111064722Y-61167390D01*
X110911291Y-61267793D01*
X110780283Y-61396086D01*
X110676689Y-61547381D01*
X110604454Y-61715916D01*
X110566331Y-61895272D01*
X110563771Y-62078617D01*
X96685000Y-62078617D01*
X96685000Y-59078617D01*
X99063771Y-59078617D01*
X99096872Y-59258968D01*
X99164372Y-59429454D01*
X99263701Y-59583583D01*
X99391076Y-59715484D01*
X99541644Y-59820131D01*
X99709671Y-59893540D01*
X99888757Y-59932915D01*
X100072079Y-59936755D01*
X100252657Y-59904914D01*
X100423610Y-59838606D01*
X100578429Y-59740355D01*
X100711215Y-59613904D01*
X100816911Y-59464070D01*
X100891492Y-59296560D01*
X100932116Y-59117754D01*
X100935040Y-58908319D01*
X100899425Y-58728448D01*
X100829550Y-58558920D01*
X100728079Y-58406193D01*
X100598875Y-58276084D01*
X100446860Y-58173549D01*
X100277825Y-58102493D01*
X100098207Y-58065623D01*
X99914849Y-58064343D01*
X99734733Y-58098701D01*
X99564722Y-58167390D01*
X99411291Y-58267793D01*
X99280283Y-58396086D01*
X99176689Y-58547381D01*
X99104454Y-58715916D01*
X99066331Y-58895272D01*
X99063771Y-59078617D01*
X96685000Y-59078617D01*
X96685000Y-51127000D01*
X107500000Y-51127000D01*
X107535381Y-51121972D01*
X107567961Y-51107286D01*
X107595160Y-51084105D01*
X107614823Y-51054264D01*
X107625395Y-51020127D01*
X107627000Y-51000000D01*
X107627000Y-40578617D01*
X109563771Y-40578617D01*
X109596872Y-40758968D01*
X109664372Y-40929454D01*
X109763701Y-41083583D01*
X109891076Y-41215484D01*
X110041644Y-41320131D01*
X110209671Y-41393540D01*
X110388757Y-41432915D01*
X110572079Y-41436755D01*
X110752657Y-41404914D01*
X110923610Y-41338606D01*
X110999203Y-41290634D01*
X111041644Y-41320131D01*
X111209671Y-41393540D01*
X111388757Y-41432915D01*
X111572079Y-41436755D01*
X111752657Y-41404914D01*
X111923610Y-41338606D01*
X111999203Y-41290634D01*
X112041644Y-41320131D01*
X112209671Y-41393540D01*
X112388757Y-41432915D01*
X112572079Y-41436755D01*
X112752657Y-41404914D01*
X112923610Y-41338606D01*
X112999203Y-41290634D01*
X113041644Y-41320131D01*
X113209671Y-41393540D01*
X113388757Y-41432915D01*
X113572079Y-41436755D01*
X113752657Y-41404914D01*
X113923610Y-41338606D01*
X114078429Y-41240355D01*
X114211215Y-41113904D01*
X114316911Y-40964070D01*
X114391492Y-40796560D01*
X114432116Y-40617754D01*
X114432662Y-40578617D01*
X116563771Y-40578617D01*
X116596872Y-40758968D01*
X116664372Y-40929454D01*
X116763701Y-41083583D01*
X116891076Y-41215484D01*
X117041644Y-41320131D01*
X117209671Y-41393540D01*
X117388757Y-41432915D01*
X117572079Y-41436755D01*
X117752657Y-41404914D01*
X117923610Y-41338606D01*
X117999203Y-41290634D01*
X118041644Y-41320131D01*
X118209671Y-41393540D01*
X118388757Y-41432915D01*
X118572079Y-41436755D01*
X118752657Y-41404914D01*
X118923610Y-41338606D01*
X119078429Y-41240355D01*
X119211215Y-41113904D01*
X119316911Y-40964070D01*
X119391492Y-40796560D01*
X119432116Y-40617754D01*
X119432662Y-40578617D01*
X119563771Y-40578617D01*
X119596872Y-40758968D01*
X119664372Y-40929454D01*
X119763701Y-41083583D01*
X119891076Y-41215484D01*
X120041644Y-41320131D01*
X120209671Y-41393540D01*
X120388757Y-41432915D01*
X120572079Y-41436755D01*
X120752657Y-41404914D01*
X120923610Y-41338606D01*
X120999203Y-41290634D01*
X121041644Y-41320131D01*
X121209671Y-41393540D01*
X121388757Y-41432915D01*
X121572079Y-41436755D01*
X121752657Y-41404914D01*
X121923610Y-41338606D01*
X122078429Y-41240355D01*
X122211215Y-41113904D01*
X122316911Y-40964070D01*
X122391492Y-40796560D01*
X122432116Y-40617754D01*
X122435040Y-40408319D01*
X122399425Y-40228448D01*
X122329550Y-40058920D01*
X122228079Y-39906193D01*
X122098875Y-39776084D01*
X121946860Y-39673549D01*
X121777825Y-39602493D01*
X121598207Y-39565623D01*
X121414849Y-39564343D01*
X121234733Y-39598701D01*
X121064722Y-39667390D01*
X121000264Y-39709570D01*
X120946860Y-39673549D01*
X120777825Y-39602493D01*
X120598207Y-39565623D01*
X120414849Y-39564343D01*
X120234733Y-39598701D01*
X120064722Y-39667390D01*
X119911291Y-39767793D01*
X119780283Y-39896086D01*
X119676689Y-40047381D01*
X119604454Y-40215916D01*
X119566331Y-40395272D01*
X119563771Y-40578617D01*
X119432662Y-40578617D01*
X119435040Y-40408319D01*
X119399425Y-40228448D01*
X119329550Y-40058920D01*
X119228079Y-39906193D01*
X119098875Y-39776084D01*
X118946860Y-39673549D01*
X118777825Y-39602493D01*
X118598207Y-39565623D01*
X118414849Y-39564343D01*
X118234733Y-39598701D01*
X118064722Y-39667390D01*
X118000264Y-39709570D01*
X117946860Y-39673549D01*
X117777825Y-39602493D01*
X117598207Y-39565623D01*
X117414849Y-39564343D01*
X117234733Y-39598701D01*
X117064722Y-39667390D01*
X116911291Y-39767793D01*
X116780283Y-39896086D01*
X116676689Y-40047381D01*
X116604454Y-40215916D01*
X116566331Y-40395272D01*
X116563771Y-40578617D01*
X114432662Y-40578617D01*
X114435040Y-40408319D01*
X114399425Y-40228448D01*
X114329550Y-40058920D01*
X114228079Y-39906193D01*
X114098875Y-39776084D01*
X113946860Y-39673549D01*
X113777825Y-39602493D01*
X113598207Y-39565623D01*
X113414849Y-39564343D01*
X113234733Y-39598701D01*
X113064722Y-39667390D01*
X113000264Y-39709570D01*
X112946860Y-39673549D01*
X112777825Y-39602493D01*
X112598207Y-39565623D01*
X112414849Y-39564343D01*
X112234733Y-39598701D01*
X112064722Y-39667390D01*
X112000264Y-39709570D01*
X111946860Y-39673549D01*
X111777825Y-39602493D01*
X111598207Y-39565623D01*
X111414849Y-39564343D01*
X111234733Y-39598701D01*
X111064722Y-39667390D01*
X111000264Y-39709570D01*
X110946860Y-39673549D01*
X110777825Y-39602493D01*
X110598207Y-39565623D01*
X110414849Y-39564343D01*
X110234733Y-39598701D01*
X110064722Y-39667390D01*
X109911291Y-39767793D01*
X109780283Y-39896086D01*
X109676689Y-40047381D01*
X109604454Y-40215916D01*
X109566331Y-40395272D01*
X109563771Y-40578617D01*
X107627000Y-40578617D01*
X107627000Y-39127000D01*
X141947394Y-39127000D01*
X143873000Y-41052606D01*
X143873000Y-41052606D01*
G37*
X143873000Y-41052606D02*
X143873000Y-68500000D01*
X143878028Y-68535381D01*
X143892714Y-68567961D01*
X143915895Y-68595160D01*
X143945736Y-68614823D01*
X143979873Y-68625395D01*
X144000000Y-68627000D01*
X158500000Y-68627000D01*
X158535381Y-68621972D01*
X158567961Y-68607286D01*
X158595160Y-68584105D01*
X158614823Y-68554264D01*
X158625395Y-68520127D01*
X158627000Y-68500000D01*
X158627000Y-51627000D01*
X213315000Y-51627000D01*
X213315000Y-125315000D01*
X208500000Y-125315000D01*
X208499877Y-125315012D01*
X208497606Y-125315004D01*
X208445247Y-125315187D01*
X208415478Y-125318211D01*
X208385558Y-125318002D01*
X208376039Y-125318935D01*
X206920314Y-125471939D01*
X206859520Y-125484418D01*
X206798513Y-125496056D01*
X206789357Y-125498820D01*
X205391073Y-125931660D01*
X205333807Y-125955732D01*
X205276275Y-125978977D01*
X205267835Y-125983465D01*
X205267830Y-125983467D01*
X205267826Y-125983470D01*
X203980250Y-126679659D01*
X203928787Y-126714371D01*
X203876830Y-126748371D01*
X203869418Y-126754416D01*
X202741584Y-127687441D01*
X202697836Y-127731495D01*
X202653478Y-127774934D01*
X202647382Y-127782303D01*
X201722254Y-128916623D01*
X201687903Y-128968326D01*
X201652821Y-129019562D01*
X201648272Y-129027975D01*
X200961086Y-130320384D01*
X200937418Y-130377806D01*
X200912970Y-130434849D01*
X200910141Y-130443985D01*
X200487072Y-131845255D01*
X200475007Y-131906188D01*
X200462105Y-131966886D01*
X200461105Y-131976398D01*
X200318269Y-133433156D01*
X200318269Y-133461889D01*
X200315067Y-133490436D01*
X200315000Y-133500000D01*
X200315000Y-138315000D01*
X193255242Y-138315000D01*
X193464881Y-138248498D01*
X193833498Y-138051469D01*
X194025586Y-137705192D01*
X192500000Y-136179605D01*
X190974414Y-137705192D01*
X191166502Y-138051469D01*
X191592346Y-138272203D01*
X191740138Y-138315000D01*
X118255242Y-138315000D01*
X118464881Y-138248498D01*
X118833498Y-138051469D01*
X119025586Y-137705192D01*
X117500000Y-136179605D01*
X115974414Y-137705192D01*
X116166502Y-138051469D01*
X116592346Y-138272203D01*
X116740138Y-138315000D01*
X109685000Y-138315000D01*
X109685000Y-136030971D01*
X115053415Y-136030971D01*
X115106468Y-136507681D01*
X115251502Y-136964881D01*
X115448531Y-137333498D01*
X115794808Y-137525586D01*
X117320395Y-136000000D01*
X117679605Y-136000000D01*
X119205192Y-137525586D01*
X119551469Y-137333498D01*
X119772203Y-136907654D01*
X119905618Y-136446929D01*
X119941275Y-136030971D01*
X190053415Y-136030971D01*
X190106468Y-136507681D01*
X190251502Y-136964881D01*
X190448531Y-137333498D01*
X190794808Y-137525586D01*
X192320395Y-136000000D01*
X192679605Y-136000000D01*
X194205192Y-137525586D01*
X194551469Y-137333498D01*
X194772203Y-136907654D01*
X194905618Y-136446929D01*
X194946585Y-135969029D01*
X194893532Y-135492319D01*
X194748498Y-135035119D01*
X194551469Y-134666502D01*
X194205192Y-134474414D01*
X192679605Y-136000000D01*
X192320395Y-136000000D01*
X190794808Y-134474414D01*
X190448531Y-134666502D01*
X190227797Y-135092346D01*
X190094382Y-135553071D01*
X190053415Y-136030971D01*
X119941275Y-136030971D01*
X119946585Y-135969029D01*
X119893532Y-135492319D01*
X119748498Y-135035119D01*
X119551469Y-134666502D01*
X119205192Y-134474414D01*
X117679605Y-136000000D01*
X117320395Y-136000000D01*
X115794808Y-134474414D01*
X115448531Y-134666502D01*
X115227797Y-135092346D01*
X115094382Y-135553071D01*
X115053415Y-136030971D01*
X109685000Y-136030971D01*
X109685000Y-134294808D01*
X115974414Y-134294808D01*
X117500000Y-135820395D01*
X119025586Y-134294808D01*
X118833498Y-133948531D01*
X118723911Y-133891727D01*
X153256634Y-133891727D01*
X153277595Y-134122047D01*
X153342892Y-134343909D01*
X153450039Y-134548862D01*
X153594955Y-134729101D01*
X153772119Y-134877759D01*
X153974784Y-134989175D01*
X154195230Y-135059105D01*
X154425060Y-135084884D01*
X154441605Y-135085000D01*
X155558395Y-135085000D01*
X155788563Y-135062432D01*
X156009963Y-134995587D01*
X156214164Y-134887012D01*
X156393387Y-134740841D01*
X156540805Y-134562644D01*
X156650803Y-134359206D01*
X156670737Y-134294808D01*
X190974414Y-134294808D01*
X192500000Y-135820395D01*
X194025586Y-134294808D01*
X193833498Y-133948531D01*
X193407654Y-133727797D01*
X192946929Y-133594382D01*
X192469029Y-133553415D01*
X191992319Y-133606468D01*
X191535119Y-133751502D01*
X191166502Y-133948531D01*
X190974414Y-134294808D01*
X156670737Y-134294808D01*
X156719192Y-134138277D01*
X156743366Y-133908273D01*
X156722405Y-133677953D01*
X156657108Y-133456091D01*
X156549961Y-133251138D01*
X156405045Y-133070899D01*
X156227881Y-132922241D01*
X156025216Y-132810825D01*
X155804770Y-132740895D01*
X155574940Y-132715116D01*
X155558395Y-132715000D01*
X154441605Y-132715000D01*
X154211437Y-132737568D01*
X153990037Y-132804413D01*
X153785836Y-132912988D01*
X153606613Y-133059159D01*
X153459195Y-133237356D01*
X153349197Y-133440794D01*
X153280808Y-133661723D01*
X153256634Y-133891727D01*
X118723911Y-133891727D01*
X118407654Y-133727797D01*
X117946929Y-133594382D01*
X117469029Y-133553415D01*
X116992319Y-133606468D01*
X116535119Y-133751502D01*
X116166502Y-133948531D01*
X115974414Y-134294808D01*
X109685000Y-134294808D01*
X109685000Y-133500000D01*
X109684988Y-133499877D01*
X109684996Y-133497606D01*
X109684813Y-133445247D01*
X109681789Y-133415478D01*
X109681998Y-133385558D01*
X109681065Y-133376039D01*
X109528061Y-131920314D01*
X109515582Y-131859520D01*
X109503944Y-131798513D01*
X109501180Y-131789357D01*
X109486437Y-131741727D01*
X150657602Y-131741727D01*
X150678563Y-131972047D01*
X150743860Y-132193909D01*
X150851007Y-132398862D01*
X150995923Y-132579101D01*
X151173087Y-132727759D01*
X151375752Y-132839175D01*
X151596198Y-132909105D01*
X151826028Y-132934884D01*
X151842573Y-132935000D01*
X152557427Y-132935000D01*
X152787595Y-132912432D01*
X153008995Y-132845587D01*
X153213196Y-132737012D01*
X153392419Y-132590841D01*
X153539837Y-132412644D01*
X153649835Y-132209206D01*
X153718224Y-131988277D01*
X153742398Y-131758273D01*
X153740893Y-131741727D01*
X156257602Y-131741727D01*
X156278563Y-131972047D01*
X156343860Y-132193909D01*
X156451007Y-132398862D01*
X156595923Y-132579101D01*
X156773087Y-132727759D01*
X156975752Y-132839175D01*
X157196198Y-132909105D01*
X157426028Y-132934884D01*
X157442573Y-132935000D01*
X158157427Y-132935000D01*
X158387595Y-132912432D01*
X158608995Y-132845587D01*
X158813196Y-132737012D01*
X158992419Y-132590841D01*
X159139837Y-132412644D01*
X159249835Y-132209206D01*
X159318224Y-131988277D01*
X159342398Y-131758273D01*
X159321437Y-131527953D01*
X159256140Y-131306091D01*
X159148993Y-131101138D01*
X159004077Y-130920899D01*
X158826913Y-130772241D01*
X158624248Y-130660825D01*
X158403802Y-130590895D01*
X158173972Y-130565116D01*
X158157427Y-130565000D01*
X157442573Y-130565000D01*
X157212405Y-130587568D01*
X156991005Y-130654413D01*
X156786804Y-130762988D01*
X156607581Y-130909159D01*
X156460163Y-131087356D01*
X156350165Y-131290794D01*
X156281776Y-131511723D01*
X156257602Y-131741727D01*
X153740893Y-131741727D01*
X153721437Y-131527953D01*
X153656140Y-131306091D01*
X153548993Y-131101138D01*
X153404077Y-130920899D01*
X153226913Y-130772241D01*
X153024248Y-130660825D01*
X152803802Y-130590895D01*
X152573972Y-130565116D01*
X152557427Y-130565000D01*
X151842573Y-130565000D01*
X151612405Y-130587568D01*
X151391005Y-130654413D01*
X151186804Y-130762988D01*
X151007581Y-130909159D01*
X150860163Y-131087356D01*
X150750165Y-131290794D01*
X150681776Y-131511723D01*
X150657602Y-131741727D01*
X109486437Y-131741727D01*
X109068340Y-130391073D01*
X109044268Y-130333807D01*
X109021023Y-130276275D01*
X109016533Y-130267831D01*
X109016533Y-130267830D01*
X109016530Y-130267826D01*
X108320341Y-128980250D01*
X108285629Y-128928787D01*
X108251629Y-128876830D01*
X108245584Y-128869418D01*
X107312559Y-127741584D01*
X107268505Y-127697836D01*
X107225066Y-127653478D01*
X107217697Y-127647382D01*
X106083377Y-126722254D01*
X106031674Y-126687903D01*
X105980438Y-126652821D01*
X105972025Y-126648272D01*
X104679616Y-125961086D01*
X104622194Y-125937418D01*
X104565151Y-125912970D01*
X104556015Y-125910141D01*
X103154745Y-125487072D01*
X103093812Y-125475007D01*
X103033114Y-125462105D01*
X103023602Y-125461105D01*
X101566844Y-125318269D01*
X101538111Y-125318269D01*
X101509564Y-125315067D01*
X101500000Y-125315000D01*
X96685000Y-125315000D01*
X96685000Y-125187942D01*
X115261862Y-125187942D01*
X115340992Y-125619086D01*
X115502357Y-126026649D01*
X115739813Y-126395107D01*
X116044313Y-126710426D01*
X116404260Y-126960596D01*
X116805943Y-127136087D01*
X117234063Y-127230215D01*
X117672312Y-127239395D01*
X118103998Y-127163278D01*
X118512678Y-127004761D01*
X118882785Y-126769884D01*
X119200222Y-126467592D01*
X119452899Y-126109401D01*
X119631190Y-125708952D01*
X119728305Y-125281500D01*
X119735296Y-124780827D01*
X119698588Y-124595434D01*
X167363508Y-124595434D01*
X167403689Y-124814362D01*
X167485628Y-125021317D01*
X167606204Y-125208414D01*
X167760824Y-125368528D01*
X167943600Y-125495561D01*
X168147569Y-125584672D01*
X168364961Y-125632469D01*
X168587497Y-125637131D01*
X168806701Y-125598479D01*
X169014222Y-125517987D01*
X169202157Y-125398720D01*
X169363347Y-125245221D01*
X169491652Y-125063337D01*
X169582186Y-124859995D01*
X169631499Y-124642942D01*
X169632397Y-124578617D01*
X170563771Y-124578617D01*
X170596872Y-124758968D01*
X170664372Y-124929454D01*
X170763701Y-125083583D01*
X170891076Y-125215484D01*
X171041644Y-125320131D01*
X171209671Y-125393540D01*
X171388757Y-125432915D01*
X171572079Y-125436755D01*
X171752657Y-125404914D01*
X171923610Y-125338606D01*
X172078429Y-125240355D01*
X172133467Y-125187942D01*
X190261862Y-125187942D01*
X190340992Y-125619086D01*
X190502357Y-126026649D01*
X190739813Y-126395107D01*
X191044313Y-126710426D01*
X191404260Y-126960596D01*
X191805943Y-127136087D01*
X192234063Y-127230215D01*
X192672312Y-127239395D01*
X193103998Y-127163278D01*
X193512678Y-127004761D01*
X193882785Y-126769884D01*
X194200222Y-126467592D01*
X194452899Y-126109401D01*
X194631190Y-125708952D01*
X194728305Y-125281500D01*
X194735296Y-124780827D01*
X194650154Y-124350830D01*
X194483114Y-123945560D01*
X194240537Y-123580453D01*
X193931664Y-123269416D01*
X193568259Y-123024296D01*
X193164165Y-122854430D01*
X192734772Y-122766289D01*
X192296438Y-122763229D01*
X191865857Y-122845366D01*
X191459430Y-123009573D01*
X191092638Y-123249595D01*
X190779453Y-123556289D01*
X190531802Y-123917974D01*
X190359119Y-124320873D01*
X190267982Y-124749639D01*
X190261862Y-125187942D01*
X172133467Y-125187942D01*
X172211215Y-125113904D01*
X172316911Y-124964070D01*
X172391492Y-124796560D01*
X172432116Y-124617754D01*
X172435040Y-124408319D01*
X172399425Y-124228448D01*
X172329550Y-124058920D01*
X172228079Y-123906193D01*
X172098875Y-123776084D01*
X171946860Y-123673549D01*
X171777825Y-123602493D01*
X171598207Y-123565623D01*
X171414849Y-123564343D01*
X171234733Y-123598701D01*
X171064722Y-123667390D01*
X170911291Y-123767793D01*
X170780283Y-123896086D01*
X170676689Y-124047381D01*
X170604454Y-124215916D01*
X170566331Y-124395272D01*
X170563771Y-124578617D01*
X169632397Y-124578617D01*
X169635049Y-124388707D01*
X169591815Y-124170362D01*
X169506995Y-123964571D01*
X169383818Y-123779176D01*
X169226977Y-123621236D01*
X169042446Y-123496768D01*
X168837253Y-123410513D01*
X168619214Y-123365756D01*
X168396634Y-123364202D01*
X168177992Y-123405910D01*
X167971615Y-123489292D01*
X167785363Y-123611171D01*
X167626332Y-123766906D01*
X167500579Y-123950564D01*
X167412894Y-124155150D01*
X167366616Y-124372871D01*
X167363508Y-124595434D01*
X119698588Y-124595434D01*
X119650154Y-124350830D01*
X119483114Y-123945560D01*
X119240537Y-123580453D01*
X119238714Y-123578617D01*
X136563771Y-123578617D01*
X136596872Y-123758968D01*
X136664372Y-123929454D01*
X136763701Y-124083583D01*
X136891076Y-124215484D01*
X137041644Y-124320131D01*
X137209671Y-124393540D01*
X137388757Y-124432915D01*
X137572079Y-124436755D01*
X137752657Y-124404914D01*
X137923610Y-124338606D01*
X138078429Y-124240355D01*
X138211215Y-124113904D01*
X138316911Y-123964070D01*
X138391492Y-123796560D01*
X138432116Y-123617754D01*
X138435040Y-123408319D01*
X138399425Y-123228448D01*
X138329550Y-123058920D01*
X138228079Y-122906193D01*
X138098875Y-122776084D01*
X137946860Y-122673549D01*
X137777825Y-122602493D01*
X137598207Y-122565623D01*
X137414849Y-122564343D01*
X137234733Y-122598701D01*
X137064722Y-122667390D01*
X136911291Y-122767793D01*
X136780283Y-122896086D01*
X136676689Y-123047381D01*
X136604454Y-123215916D01*
X136566331Y-123395272D01*
X136563771Y-123578617D01*
X119238714Y-123578617D01*
X118931664Y-123269416D01*
X118568259Y-123024296D01*
X118164165Y-122854430D01*
X117734772Y-122766289D01*
X117296438Y-122763229D01*
X116865857Y-122845366D01*
X116459430Y-123009573D01*
X116092638Y-123249595D01*
X115779453Y-123556289D01*
X115531802Y-123917974D01*
X115359119Y-124320873D01*
X115267982Y-124749639D01*
X115261862Y-125187942D01*
X96685000Y-125187942D01*
X96685000Y-124078617D01*
X98063771Y-124078617D01*
X98096872Y-124258968D01*
X98164372Y-124429454D01*
X98263701Y-124583583D01*
X98391076Y-124715484D01*
X98541644Y-124820131D01*
X98709671Y-124893540D01*
X98888757Y-124932915D01*
X99072079Y-124936755D01*
X99252657Y-124904914D01*
X99423610Y-124838606D01*
X99578429Y-124740355D01*
X99711215Y-124613904D01*
X99816911Y-124464070D01*
X99891492Y-124296560D01*
X99932116Y-124117754D01*
X99935040Y-123908319D01*
X99899425Y-123728448D01*
X99829550Y-123558920D01*
X99728079Y-123406193D01*
X99598875Y-123276084D01*
X99446860Y-123173549D01*
X99277825Y-123102493D01*
X99098207Y-123065623D01*
X98914849Y-123064343D01*
X98734733Y-123098701D01*
X98564722Y-123167390D01*
X98411291Y-123267793D01*
X98280283Y-123396086D01*
X98176689Y-123547381D01*
X98104454Y-123715916D01*
X98066331Y-123895272D01*
X98063771Y-124078617D01*
X96685000Y-124078617D01*
X96685000Y-118578617D01*
X168563771Y-118578617D01*
X168596872Y-118758968D01*
X168664372Y-118929454D01*
X168763701Y-119083583D01*
X168891076Y-119215484D01*
X169041644Y-119320131D01*
X169209671Y-119393540D01*
X169388757Y-119432915D01*
X169572079Y-119436755D01*
X169752657Y-119404914D01*
X169923610Y-119338606D01*
X170078429Y-119240355D01*
X170211215Y-119113904D01*
X170316911Y-118964070D01*
X170391492Y-118796560D01*
X170432116Y-118617754D01*
X170435040Y-118408319D01*
X170399425Y-118228448D01*
X170329550Y-118058920D01*
X170228079Y-117906193D01*
X170098875Y-117776084D01*
X169946860Y-117673549D01*
X169777825Y-117602493D01*
X169598207Y-117565623D01*
X169414849Y-117564343D01*
X169234733Y-117598701D01*
X169064722Y-117667390D01*
X168911291Y-117767793D01*
X168780283Y-117896086D01*
X168676689Y-118047381D01*
X168604454Y-118215916D01*
X168566331Y-118395272D01*
X168563771Y-118578617D01*
X96685000Y-118578617D01*
X96685000Y-116078617D01*
X98063771Y-116078617D01*
X98096872Y-116258968D01*
X98164372Y-116429454D01*
X98263701Y-116583583D01*
X98391076Y-116715484D01*
X98541644Y-116820131D01*
X98709671Y-116893540D01*
X98888757Y-116932915D01*
X99072079Y-116936755D01*
X99252657Y-116904914D01*
X99423610Y-116838606D01*
X99578429Y-116740355D01*
X99711215Y-116613904D01*
X99816911Y-116464070D01*
X99891492Y-116296560D01*
X99932116Y-116117754D01*
X99935040Y-115908319D01*
X99899425Y-115728448D01*
X99829550Y-115558920D01*
X99728079Y-115406193D01*
X99608474Y-115285750D01*
X147435000Y-115285750D01*
X147435000Y-115912542D01*
X147459403Y-116035223D01*
X147507270Y-116150785D01*
X147576763Y-116254789D01*
X147665211Y-116343237D01*
X147769215Y-116412730D01*
X147884777Y-116460597D01*
X148007458Y-116485000D01*
X148634250Y-116485000D01*
X148793000Y-116326250D01*
X148793000Y-115127000D01*
X147593750Y-115127000D01*
X147435000Y-115285750D01*
X99608474Y-115285750D01*
X99598875Y-115276084D01*
X99446860Y-115173549D01*
X99277825Y-115102493D01*
X99098207Y-115065623D01*
X98914849Y-115064343D01*
X98734733Y-115098701D01*
X98564722Y-115167390D01*
X98411291Y-115267793D01*
X98280283Y-115396086D01*
X98176689Y-115547381D01*
X98104454Y-115715916D01*
X98066331Y-115895272D01*
X98063771Y-116078617D01*
X96685000Y-116078617D01*
X96685000Y-114087458D01*
X147435000Y-114087458D01*
X147435000Y-114714250D01*
X147593750Y-114873000D01*
X148793000Y-114873000D01*
X148793000Y-113673750D01*
X149047000Y-113673750D01*
X149047000Y-114873000D01*
X149067000Y-114873000D01*
X149067000Y-115127000D01*
X149047000Y-115127000D01*
X149047000Y-116326250D01*
X149205750Y-116485000D01*
X149832542Y-116485000D01*
X149955223Y-116460597D01*
X150070785Y-116412730D01*
X150174789Y-116343237D01*
X150263237Y-116254789D01*
X150332730Y-116150785D01*
X150380597Y-116035223D01*
X150382701Y-116024647D01*
X150406287Y-116053567D01*
X150629599Y-116238306D01*
X150884539Y-116376152D01*
X151161399Y-116461854D01*
X151449633Y-116492149D01*
X151738261Y-116465882D01*
X152016291Y-116384053D01*
X152273131Y-116249780D01*
X152499000Y-116068177D01*
X152685294Y-115846161D01*
X152729498Y-115765753D01*
X152763112Y-115828971D01*
X152946287Y-116053567D01*
X153169599Y-116238306D01*
X153424539Y-116376152D01*
X153701399Y-116461854D01*
X153989633Y-116492149D01*
X154278261Y-116465882D01*
X154556291Y-116384053D01*
X154813131Y-116249780D01*
X155039000Y-116068177D01*
X155225294Y-115846161D01*
X155269498Y-115765753D01*
X155303112Y-115828971D01*
X155486287Y-116053567D01*
X155709599Y-116238306D01*
X155964539Y-116376152D01*
X156241399Y-116461854D01*
X156529633Y-116492149D01*
X156818261Y-116465882D01*
X157096291Y-116384053D01*
X157353131Y-116249780D01*
X157579000Y-116068177D01*
X157765294Y-115846161D01*
X157809498Y-115765753D01*
X157843112Y-115828971D01*
X158026287Y-116053567D01*
X158249599Y-116238306D01*
X158504539Y-116376152D01*
X158781399Y-116461854D01*
X159069633Y-116492149D01*
X159358261Y-116465882D01*
X159636291Y-116384053D01*
X159893131Y-116249780D01*
X160119000Y-116068177D01*
X160305294Y-115846161D01*
X160349498Y-115765753D01*
X160383112Y-115828971D01*
X160566287Y-116053567D01*
X160789599Y-116238306D01*
X161044539Y-116376152D01*
X161321399Y-116461854D01*
X161609633Y-116492149D01*
X161898261Y-116465882D01*
X162176291Y-116384053D01*
X162433131Y-116249780D01*
X162659000Y-116068177D01*
X162845294Y-115846161D01*
X162984916Y-115592189D01*
X163072549Y-115315934D01*
X163104855Y-115027919D01*
X163105000Y-115007185D01*
X163105000Y-114992815D01*
X163076718Y-114704377D01*
X162992951Y-114426925D01*
X162856888Y-114171029D01*
X162673713Y-113946433D01*
X162450401Y-113761694D01*
X162195461Y-113623848D01*
X161918601Y-113538146D01*
X161630367Y-113507851D01*
X161341739Y-113534118D01*
X161063709Y-113615947D01*
X160806869Y-113750220D01*
X160581000Y-113931823D01*
X160394706Y-114153839D01*
X160350502Y-114234247D01*
X160316888Y-114171029D01*
X160133713Y-113946433D01*
X159910401Y-113761694D01*
X159655461Y-113623848D01*
X159378601Y-113538146D01*
X159090367Y-113507851D01*
X158801739Y-113534118D01*
X158523709Y-113615947D01*
X158266869Y-113750220D01*
X158041000Y-113931823D01*
X157854706Y-114153839D01*
X157810502Y-114234247D01*
X157776888Y-114171029D01*
X157593713Y-113946433D01*
X157370401Y-113761694D01*
X157115461Y-113623848D01*
X156838601Y-113538146D01*
X156550367Y-113507851D01*
X156261739Y-113534118D01*
X155983709Y-113615947D01*
X155726869Y-113750220D01*
X155501000Y-113931823D01*
X155314706Y-114153839D01*
X155270502Y-114234247D01*
X155236888Y-114171029D01*
X155053713Y-113946433D01*
X154830401Y-113761694D01*
X154575461Y-113623848D01*
X154298601Y-113538146D01*
X154010367Y-113507851D01*
X153721739Y-113534118D01*
X153443709Y-113615947D01*
X153186869Y-113750220D01*
X152961000Y-113931823D01*
X152774706Y-114153839D01*
X152730502Y-114234247D01*
X152696888Y-114171029D01*
X152513713Y-113946433D01*
X152290401Y-113761694D01*
X152035461Y-113623848D01*
X151758601Y-113538146D01*
X151470367Y-113507851D01*
X151181739Y-113534118D01*
X150903709Y-113615947D01*
X150646869Y-113750220D01*
X150421000Y-113931823D01*
X150383041Y-113977061D01*
X150380597Y-113964777D01*
X150332730Y-113849215D01*
X150263237Y-113745211D01*
X150174789Y-113656763D01*
X150070785Y-113587270D01*
X149955223Y-113539403D01*
X149832542Y-113515000D01*
X149205750Y-113515000D01*
X149047000Y-113673750D01*
X148793000Y-113673750D01*
X148634250Y-113515000D01*
X148007458Y-113515000D01*
X147884777Y-113539403D01*
X147769215Y-113587270D01*
X147665211Y-113656763D01*
X147576763Y-113745211D01*
X147507270Y-113849215D01*
X147459403Y-113964777D01*
X147435000Y-114087458D01*
X96685000Y-114087458D01*
X96685000Y-112595434D01*
X167363508Y-112595434D01*
X167403689Y-112814362D01*
X167485628Y-113021317D01*
X167606204Y-113208414D01*
X167760824Y-113368528D01*
X167943600Y-113495561D01*
X168147569Y-113584672D01*
X168364961Y-113632469D01*
X168587497Y-113637131D01*
X168806701Y-113598479D01*
X169014222Y-113517987D01*
X169202157Y-113398720D01*
X169363347Y-113245221D01*
X169491652Y-113063337D01*
X169582186Y-112859995D01*
X169631499Y-112642942D01*
X169635049Y-112388707D01*
X169591815Y-112170362D01*
X169554001Y-112078617D01*
X174063771Y-112078617D01*
X174096872Y-112258968D01*
X174164372Y-112429454D01*
X174263701Y-112583583D01*
X174391076Y-112715484D01*
X174541644Y-112820131D01*
X174709671Y-112893540D01*
X174888757Y-112932915D01*
X175072079Y-112936755D01*
X175252657Y-112904914D01*
X175423610Y-112838606D01*
X175578429Y-112740355D01*
X175711215Y-112613904D01*
X175816911Y-112464070D01*
X175891492Y-112296560D01*
X175932116Y-112117754D01*
X175932662Y-112078617D01*
X176563771Y-112078617D01*
X176596872Y-112258968D01*
X176664372Y-112429454D01*
X176763701Y-112583583D01*
X176891076Y-112715484D01*
X177041644Y-112820131D01*
X177209671Y-112893540D01*
X177388757Y-112932915D01*
X177572079Y-112936755D01*
X177752657Y-112904914D01*
X177923610Y-112838606D01*
X178078429Y-112740355D01*
X178211215Y-112613904D01*
X178316911Y-112464070D01*
X178391492Y-112296560D01*
X178432116Y-112117754D01*
X178435040Y-111908319D01*
X178399425Y-111728448D01*
X178329550Y-111558920D01*
X178228079Y-111406193D01*
X178098875Y-111276084D01*
X177946860Y-111173549D01*
X177777825Y-111102493D01*
X177598207Y-111065623D01*
X177414849Y-111064343D01*
X177234733Y-111098701D01*
X177064722Y-111167390D01*
X176911291Y-111267793D01*
X176780283Y-111396086D01*
X176676689Y-111547381D01*
X176604454Y-111715916D01*
X176566331Y-111895272D01*
X176563771Y-112078617D01*
X175932662Y-112078617D01*
X175935040Y-111908319D01*
X175899425Y-111728448D01*
X175829550Y-111558920D01*
X175728079Y-111406193D01*
X175598875Y-111276084D01*
X175446860Y-111173549D01*
X175277825Y-111102493D01*
X175098207Y-111065623D01*
X174914849Y-111064343D01*
X174734733Y-111098701D01*
X174564722Y-111167390D01*
X174411291Y-111267793D01*
X174280283Y-111396086D01*
X174176689Y-111547381D01*
X174104454Y-111715916D01*
X174066331Y-111895272D01*
X174063771Y-112078617D01*
X169554001Y-112078617D01*
X169506995Y-111964571D01*
X169383818Y-111779176D01*
X169226977Y-111621236D01*
X169042446Y-111496768D01*
X168837253Y-111410513D01*
X168619214Y-111365756D01*
X168396634Y-111364202D01*
X168177992Y-111405910D01*
X167971615Y-111489292D01*
X167785363Y-111611171D01*
X167626332Y-111766906D01*
X167500579Y-111950564D01*
X167412894Y-112155150D01*
X167366616Y-112372871D01*
X167363508Y-112595434D01*
X96685000Y-112595434D01*
X96685000Y-108078617D01*
X160563771Y-108078617D01*
X160596872Y-108258968D01*
X160664372Y-108429454D01*
X160763701Y-108583583D01*
X160891076Y-108715484D01*
X161041644Y-108820131D01*
X161209671Y-108893540D01*
X161388757Y-108932915D01*
X161572079Y-108936755D01*
X161752657Y-108904914D01*
X161923610Y-108838606D01*
X162078429Y-108740355D01*
X162211215Y-108613904D01*
X162316911Y-108464070D01*
X162391492Y-108296560D01*
X162432116Y-108117754D01*
X162435040Y-107908319D01*
X162399425Y-107728448D01*
X162329550Y-107558920D01*
X162228079Y-107406193D01*
X162098875Y-107276084D01*
X161946860Y-107173549D01*
X161777825Y-107102493D01*
X161598207Y-107065623D01*
X161414849Y-107064343D01*
X161234733Y-107098701D01*
X161064722Y-107167390D01*
X160911291Y-107267793D01*
X160780283Y-107396086D01*
X160676689Y-107547381D01*
X160604454Y-107715916D01*
X160566331Y-107895272D01*
X160563771Y-108078617D01*
X96685000Y-108078617D01*
X96685000Y-107078617D01*
X101563771Y-107078617D01*
X101596872Y-107258968D01*
X101664372Y-107429454D01*
X101763701Y-107583583D01*
X101891076Y-107715484D01*
X102041644Y-107820131D01*
X102209671Y-107893540D01*
X102388757Y-107932915D01*
X102572079Y-107936755D01*
X102752657Y-107904914D01*
X102923610Y-107838606D01*
X103078429Y-107740355D01*
X103211215Y-107613904D01*
X103316911Y-107464070D01*
X103391492Y-107296560D01*
X103432116Y-107117754D01*
X103432662Y-107078617D01*
X104063771Y-107078617D01*
X104096872Y-107258968D01*
X104164372Y-107429454D01*
X104263701Y-107583583D01*
X104391076Y-107715484D01*
X104541644Y-107820131D01*
X104709671Y-107893540D01*
X104888757Y-107932915D01*
X105072079Y-107936755D01*
X105252657Y-107904914D01*
X105423610Y-107838606D01*
X105578429Y-107740355D01*
X105711215Y-107613904D01*
X105816911Y-107464070D01*
X105891492Y-107296560D01*
X105932116Y-107117754D01*
X105935040Y-106908319D01*
X105899425Y-106728448D01*
X105829550Y-106558920D01*
X105728079Y-106406193D01*
X105598875Y-106276084D01*
X105572800Y-106258496D01*
X166612522Y-106258496D01*
X166679254Y-106622091D01*
X166815338Y-106965799D01*
X167015590Y-107276529D01*
X167272382Y-107542446D01*
X167575935Y-107753420D01*
X167914684Y-107901416D01*
X168275729Y-107980797D01*
X168645315Y-107988539D01*
X169009367Y-107924346D01*
X169354017Y-107790666D01*
X169666137Y-107592588D01*
X169854087Y-107413605D01*
X180166000Y-107413605D01*
X180291914Y-107703577D01*
X180624126Y-107869433D01*
X180982312Y-107967290D01*
X181352706Y-107993389D01*
X181721075Y-107946725D01*
X182073262Y-107829094D01*
X182308086Y-107703577D01*
X182434000Y-107413605D01*
X181300000Y-106279605D01*
X180166000Y-107413605D01*
X169854087Y-107413605D01*
X169933840Y-107337658D01*
X170146929Y-107035586D01*
X170297286Y-106697877D01*
X170379185Y-106337396D01*
X170381764Y-106152706D01*
X179406611Y-106152706D01*
X179453275Y-106521075D01*
X179570906Y-106873262D01*
X179696423Y-107108086D01*
X179986395Y-107234000D01*
X181120395Y-106100000D01*
X181479605Y-106100000D01*
X182613605Y-107234000D01*
X182903577Y-107108086D01*
X183069433Y-106775874D01*
X183167290Y-106417688D01*
X183193389Y-106047294D01*
X183146725Y-105678925D01*
X183029094Y-105326738D01*
X182903577Y-105091914D01*
X182613605Y-104966000D01*
X181479605Y-106100000D01*
X181120395Y-106100000D01*
X179986395Y-104966000D01*
X179696423Y-105091914D01*
X179530567Y-105424126D01*
X179432710Y-105782312D01*
X179406611Y-106152706D01*
X170381764Y-106152706D01*
X170385081Y-105915166D01*
X170313279Y-105552539D01*
X170172410Y-105210764D01*
X169967839Y-104902860D01*
X169852184Y-104786395D01*
X180166000Y-104786395D01*
X181300000Y-105920395D01*
X182434000Y-104786395D01*
X182308086Y-104496423D01*
X181975874Y-104330567D01*
X181617688Y-104232710D01*
X181247294Y-104206611D01*
X180878925Y-104253275D01*
X180526738Y-104370906D01*
X180291914Y-104496423D01*
X180166000Y-104786395D01*
X169852184Y-104786395D01*
X169707358Y-104640555D01*
X169400890Y-104433839D01*
X169060107Y-104290587D01*
X168697990Y-104216255D01*
X168328331Y-104213674D01*
X167965211Y-104282943D01*
X167622461Y-104421423D01*
X167313137Y-104623840D01*
X167049019Y-104882482D01*
X166840169Y-105187500D01*
X166694542Y-105527275D01*
X166617683Y-105888864D01*
X166612522Y-106258496D01*
X105572800Y-106258496D01*
X105446860Y-106173549D01*
X105277825Y-106102493D01*
X105098207Y-106065623D01*
X104914849Y-106064343D01*
X104734733Y-106098701D01*
X104564722Y-106167390D01*
X104411291Y-106267793D01*
X104280283Y-106396086D01*
X104176689Y-106547381D01*
X104104454Y-106715916D01*
X104066331Y-106895272D01*
X104063771Y-107078617D01*
X103432662Y-107078617D01*
X103435040Y-106908319D01*
X103399425Y-106728448D01*
X103329550Y-106558920D01*
X103228079Y-106406193D01*
X103098875Y-106276084D01*
X102946860Y-106173549D01*
X102777825Y-106102493D01*
X102598207Y-106065623D01*
X102414849Y-106064343D01*
X102234733Y-106098701D01*
X102064722Y-106167390D01*
X101911291Y-106267793D01*
X101780283Y-106396086D01*
X101676689Y-106547381D01*
X101604454Y-106715916D01*
X101566331Y-106895272D01*
X101563771Y-107078617D01*
X96685000Y-107078617D01*
X96685000Y-99078617D01*
X98063771Y-99078617D01*
X98096872Y-99258968D01*
X98164372Y-99429454D01*
X98263701Y-99583583D01*
X98391076Y-99715484D01*
X98541644Y-99820131D01*
X98709671Y-99893540D01*
X98888757Y-99932915D01*
X99072079Y-99936755D01*
X99252657Y-99904914D01*
X99423610Y-99838606D01*
X99578429Y-99740355D01*
X99711215Y-99613904D01*
X99816911Y-99464070D01*
X99891492Y-99296560D01*
X99932116Y-99117754D01*
X99935040Y-98908319D01*
X99899425Y-98728448D01*
X99829550Y-98558920D01*
X99728079Y-98406193D01*
X99598875Y-98276084D01*
X99446860Y-98173549D01*
X99277825Y-98102493D01*
X99098207Y-98065623D01*
X98914849Y-98064343D01*
X98734733Y-98098701D01*
X98564722Y-98167390D01*
X98411291Y-98267793D01*
X98280283Y-98396086D01*
X98176689Y-98547381D01*
X98104454Y-98715916D01*
X98066331Y-98895272D01*
X98063771Y-99078617D01*
X96685000Y-99078617D01*
X96685000Y-91078617D01*
X98063771Y-91078617D01*
X98096872Y-91258968D01*
X98164372Y-91429454D01*
X98263701Y-91583583D01*
X98391076Y-91715484D01*
X98541644Y-91820131D01*
X98709671Y-91893540D01*
X98888757Y-91932915D01*
X99072079Y-91936755D01*
X99252657Y-91904914D01*
X99423610Y-91838606D01*
X99578429Y-91740355D01*
X99711215Y-91613904D01*
X99816911Y-91464070D01*
X99891492Y-91296560D01*
X99932116Y-91117754D01*
X99935040Y-90908319D01*
X99899425Y-90728448D01*
X99829550Y-90558920D01*
X99728079Y-90406193D01*
X99598875Y-90276084D01*
X99446860Y-90173549D01*
X99277825Y-90102493D01*
X99098207Y-90065623D01*
X98914849Y-90064343D01*
X98734733Y-90098701D01*
X98564722Y-90167390D01*
X98411291Y-90267793D01*
X98280283Y-90396086D01*
X98176689Y-90547381D01*
X98104454Y-90715916D01*
X98066331Y-90895272D01*
X98063771Y-91078617D01*
X96685000Y-91078617D01*
X96685000Y-85078617D01*
X143813771Y-85078617D01*
X143846872Y-85258968D01*
X143914372Y-85429454D01*
X144013701Y-85583583D01*
X144141076Y-85715484D01*
X144291644Y-85820131D01*
X144459671Y-85893540D01*
X144638757Y-85932915D01*
X144822079Y-85936755D01*
X145002657Y-85904914D01*
X145173610Y-85838606D01*
X145328429Y-85740355D01*
X145461215Y-85613904D01*
X145566911Y-85464070D01*
X145641492Y-85296560D01*
X145682116Y-85117754D01*
X145685040Y-84908319D01*
X145649425Y-84728448D01*
X145579550Y-84558920D01*
X145478079Y-84406193D01*
X145348875Y-84276084D01*
X145196860Y-84173549D01*
X145027825Y-84102493D01*
X144848207Y-84065623D01*
X144664849Y-84064343D01*
X144484733Y-84098701D01*
X144314722Y-84167390D01*
X144161291Y-84267793D01*
X144030283Y-84396086D01*
X143926689Y-84547381D01*
X143854454Y-84715916D01*
X143816331Y-84895272D01*
X143813771Y-85078617D01*
X96685000Y-85078617D01*
X96685000Y-82078617D01*
X101563771Y-82078617D01*
X101596872Y-82258968D01*
X101664372Y-82429454D01*
X101763701Y-82583583D01*
X101891076Y-82715484D01*
X102041644Y-82820131D01*
X102209671Y-82893540D01*
X102388757Y-82932915D01*
X102572079Y-82936755D01*
X102752657Y-82904914D01*
X102923610Y-82838606D01*
X103078429Y-82740355D01*
X103211215Y-82613904D01*
X103316911Y-82464070D01*
X103391492Y-82296560D01*
X103432116Y-82117754D01*
X103432662Y-82078617D01*
X104063771Y-82078617D01*
X104096872Y-82258968D01*
X104164372Y-82429454D01*
X104263701Y-82583583D01*
X104391076Y-82715484D01*
X104541644Y-82820131D01*
X104709671Y-82893540D01*
X104888757Y-82932915D01*
X105072079Y-82936755D01*
X105252657Y-82904914D01*
X105423610Y-82838606D01*
X105578429Y-82740355D01*
X105711215Y-82613904D01*
X105816911Y-82464070D01*
X105891492Y-82296560D01*
X105932116Y-82117754D01*
X105935040Y-81908319D01*
X105899425Y-81728448D01*
X105829550Y-81558920D01*
X105728079Y-81406193D01*
X105598875Y-81276084D01*
X105446860Y-81173549D01*
X105277825Y-81102493D01*
X105098207Y-81065623D01*
X104914849Y-81064343D01*
X104734733Y-81098701D01*
X104564722Y-81167390D01*
X104411291Y-81267793D01*
X104280283Y-81396086D01*
X104176689Y-81547381D01*
X104104454Y-81715916D01*
X104066331Y-81895272D01*
X104063771Y-82078617D01*
X103432662Y-82078617D01*
X103435040Y-81908319D01*
X103399425Y-81728448D01*
X103329550Y-81558920D01*
X103228079Y-81406193D01*
X103098875Y-81276084D01*
X102946860Y-81173549D01*
X102777825Y-81102493D01*
X102598207Y-81065623D01*
X102414849Y-81064343D01*
X102234733Y-81098701D01*
X102064722Y-81167390D01*
X101911291Y-81267793D01*
X101780283Y-81396086D01*
X101676689Y-81547381D01*
X101604454Y-81715916D01*
X101566331Y-81895272D01*
X101563771Y-82078617D01*
X96685000Y-82078617D01*
X96685000Y-77850000D01*
X128461928Y-77850000D01*
X128461928Y-79650000D01*
X128469992Y-79751121D01*
X128523106Y-79922634D01*
X128621900Y-80072559D01*
X128758550Y-80189025D01*
X128876143Y-80242032D01*
X128818432Y-80298547D01*
X128648361Y-80546930D01*
X128529773Y-80823617D01*
X128467186Y-81118067D01*
X128462983Y-81419067D01*
X128517324Y-81715150D01*
X128628140Y-81995040D01*
X128791210Y-82248075D01*
X129000322Y-82464617D01*
X129247512Y-82636419D01*
X129523364Y-82756935D01*
X129817371Y-82821577D01*
X130118334Y-82827881D01*
X130414789Y-82775608D01*
X130695446Y-82666748D01*
X130949613Y-82505449D01*
X131167610Y-82297854D01*
X131341132Y-82051869D01*
X131463572Y-81776866D01*
X131530265Y-81483317D01*
X131535066Y-81139486D01*
X131476595Y-80844190D01*
X131361882Y-80565874D01*
X131195295Y-80315141D01*
X131122943Y-80242282D01*
X131172634Y-80226894D01*
X131276431Y-80158496D01*
X168112522Y-80158496D01*
X168179254Y-80522091D01*
X168315338Y-80865799D01*
X168515590Y-81176529D01*
X168772382Y-81442446D01*
X169075935Y-81653420D01*
X169414684Y-81801416D01*
X169775729Y-81880797D01*
X170145315Y-81888539D01*
X170509367Y-81824346D01*
X170854017Y-81690666D01*
X171166137Y-81492588D01*
X171433840Y-81237658D01*
X171646929Y-80935586D01*
X171797286Y-80597877D01*
X171879185Y-80237396D01*
X171880286Y-80158496D01*
X198112522Y-80158496D01*
X198179254Y-80522091D01*
X198315338Y-80865799D01*
X198515590Y-81176529D01*
X198772382Y-81442446D01*
X199075935Y-81653420D01*
X199414684Y-81801416D01*
X199775729Y-81880797D01*
X200145315Y-81888539D01*
X200509367Y-81824346D01*
X200854017Y-81690666D01*
X201166137Y-81492588D01*
X201433840Y-81237658D01*
X201646929Y-80935586D01*
X201797286Y-80597877D01*
X201879185Y-80237396D01*
X201885081Y-79815166D01*
X201813279Y-79452539D01*
X201672410Y-79110764D01*
X201467839Y-78802860D01*
X201207358Y-78540555D01*
X200900890Y-78333839D01*
X200560107Y-78190587D01*
X200197990Y-78116255D01*
X199828331Y-78113674D01*
X199465211Y-78182943D01*
X199122461Y-78321423D01*
X198813137Y-78523840D01*
X198549019Y-78782482D01*
X198340169Y-79087500D01*
X198194542Y-79427275D01*
X198117683Y-79788864D01*
X198112522Y-80158496D01*
X171880286Y-80158496D01*
X171885081Y-79815166D01*
X171813279Y-79452539D01*
X171672410Y-79110764D01*
X171467839Y-78802860D01*
X171207358Y-78540555D01*
X170900890Y-78333839D01*
X170560107Y-78190587D01*
X170197990Y-78116255D01*
X169828331Y-78113674D01*
X169465211Y-78182943D01*
X169122461Y-78321423D01*
X168813137Y-78523840D01*
X168549019Y-78782482D01*
X168340169Y-79087500D01*
X168194542Y-79427275D01*
X168117683Y-79788864D01*
X168112522Y-80158496D01*
X131276431Y-80158496D01*
X131322559Y-80128100D01*
X131439025Y-79991450D01*
X131512810Y-79827763D01*
X131538072Y-79650000D01*
X131538072Y-77850000D01*
X131530008Y-77748879D01*
X131476894Y-77577366D01*
X131378100Y-77427441D01*
X131241450Y-77310975D01*
X131077763Y-77237190D01*
X130900000Y-77211928D01*
X129100000Y-77211928D01*
X128998879Y-77219992D01*
X128827366Y-77273106D01*
X128677441Y-77371900D01*
X128560975Y-77508550D01*
X128487190Y-77672237D01*
X128461928Y-77850000D01*
X96685000Y-77850000D01*
X96685000Y-73578617D01*
X117563771Y-73578617D01*
X117596872Y-73758968D01*
X117664372Y-73929454D01*
X117763701Y-74083583D01*
X117891076Y-74215484D01*
X118041644Y-74320131D01*
X118209671Y-74393540D01*
X118388757Y-74432915D01*
X118572079Y-74436755D01*
X118752657Y-74404914D01*
X118923610Y-74338606D01*
X119078429Y-74240355D01*
X119211215Y-74113904D01*
X119316911Y-73964070D01*
X119391492Y-73796560D01*
X119432116Y-73617754D01*
X119435040Y-73408319D01*
X119399425Y-73228448D01*
X119329550Y-73058920D01*
X119228079Y-72906193D01*
X119098875Y-72776084D01*
X118946860Y-72673549D01*
X118777825Y-72602493D01*
X118661510Y-72578617D01*
X126563771Y-72578617D01*
X126596872Y-72758968D01*
X126664372Y-72929454D01*
X126763701Y-73083583D01*
X126891076Y-73215484D01*
X127041644Y-73320131D01*
X127209671Y-73393540D01*
X127388757Y-73432915D01*
X127572079Y-73436755D01*
X127752657Y-73404914D01*
X127923610Y-73338606D01*
X128078429Y-73240355D01*
X128211215Y-73113904D01*
X128316911Y-72964070D01*
X128391492Y-72796560D01*
X128432116Y-72617754D01*
X128435040Y-72408319D01*
X128399425Y-72228448D01*
X128329550Y-72058920D01*
X128228079Y-71906193D01*
X128098875Y-71776084D01*
X127946860Y-71673549D01*
X127777825Y-71602493D01*
X127598207Y-71565623D01*
X127414849Y-71564343D01*
X127234733Y-71598701D01*
X127064722Y-71667390D01*
X126911291Y-71767793D01*
X126780283Y-71896086D01*
X126676689Y-72047381D01*
X126604454Y-72215916D01*
X126566331Y-72395272D01*
X126563771Y-72578617D01*
X118661510Y-72578617D01*
X118598207Y-72565623D01*
X118414849Y-72564343D01*
X118234733Y-72598701D01*
X118064722Y-72667390D01*
X117911291Y-72767793D01*
X117780283Y-72896086D01*
X117676689Y-73047381D01*
X117604454Y-73215916D01*
X117566331Y-73395272D01*
X117563771Y-73578617D01*
X96685000Y-73578617D01*
X96685000Y-72078617D01*
X113063771Y-72078617D01*
X113096872Y-72258968D01*
X113164372Y-72429454D01*
X113263701Y-72583583D01*
X113391076Y-72715484D01*
X113541644Y-72820131D01*
X113709671Y-72893540D01*
X113888757Y-72932915D01*
X114072079Y-72936755D01*
X114252657Y-72904914D01*
X114423610Y-72838606D01*
X114578429Y-72740355D01*
X114711215Y-72613904D01*
X114816911Y-72464070D01*
X114891492Y-72296560D01*
X114932116Y-72117754D01*
X114935040Y-71908319D01*
X114899425Y-71728448D01*
X114829550Y-71558920D01*
X114728079Y-71406193D01*
X114598875Y-71276084D01*
X114446860Y-71173549D01*
X114277825Y-71102493D01*
X114098207Y-71065623D01*
X113914849Y-71064343D01*
X113734733Y-71098701D01*
X113564722Y-71167390D01*
X113411291Y-71267793D01*
X113280283Y-71396086D01*
X113176689Y-71547381D01*
X113104454Y-71715916D01*
X113066331Y-71895272D01*
X113063771Y-72078617D01*
X96685000Y-72078617D01*
X96685000Y-70078617D01*
X116563771Y-70078617D01*
X116596872Y-70258968D01*
X116664372Y-70429454D01*
X116763701Y-70583583D01*
X116891076Y-70715484D01*
X117041644Y-70820131D01*
X117209671Y-70893540D01*
X117388757Y-70932915D01*
X117572079Y-70936755D01*
X117752657Y-70904914D01*
X117923610Y-70838606D01*
X118078429Y-70740355D01*
X118211215Y-70613904D01*
X118316911Y-70464070D01*
X118391492Y-70296560D01*
X118432116Y-70117754D01*
X118432662Y-70078617D01*
X126563771Y-70078617D01*
X126596872Y-70258968D01*
X126664372Y-70429454D01*
X126763701Y-70583583D01*
X126891076Y-70715484D01*
X127041644Y-70820131D01*
X127209671Y-70893540D01*
X127388757Y-70932915D01*
X127572079Y-70936755D01*
X127752657Y-70904914D01*
X127923610Y-70838606D01*
X128078429Y-70740355D01*
X128211215Y-70613904D01*
X128316911Y-70464070D01*
X128391492Y-70296560D01*
X128432116Y-70117754D01*
X128432427Y-70095434D01*
X141863508Y-70095434D01*
X141903689Y-70314362D01*
X141985628Y-70521317D01*
X142106204Y-70708414D01*
X142260824Y-70868528D01*
X142443600Y-70995561D01*
X142647569Y-71084672D01*
X142864961Y-71132469D01*
X143087497Y-71137131D01*
X143306701Y-71098479D01*
X143514222Y-71017987D01*
X143702157Y-70898720D01*
X143863347Y-70745221D01*
X143991652Y-70563337D01*
X144082186Y-70359995D01*
X144131499Y-70142942D01*
X144132162Y-70095434D01*
X144363508Y-70095434D01*
X144403689Y-70314362D01*
X144485628Y-70521317D01*
X144606204Y-70708414D01*
X144760824Y-70868528D01*
X144943600Y-70995561D01*
X145147569Y-71084672D01*
X145364961Y-71132469D01*
X145587497Y-71137131D01*
X145806701Y-71098479D01*
X146014222Y-71017987D01*
X146202157Y-70898720D01*
X146363347Y-70745221D01*
X146491652Y-70563337D01*
X146582186Y-70359995D01*
X146631499Y-70142942D01*
X146632162Y-70095434D01*
X146863508Y-70095434D01*
X146903689Y-70314362D01*
X146985628Y-70521317D01*
X147106204Y-70708414D01*
X147260824Y-70868528D01*
X147443600Y-70995561D01*
X147647569Y-71084672D01*
X147864961Y-71132469D01*
X148087497Y-71137131D01*
X148306701Y-71098479D01*
X148514222Y-71017987D01*
X148702157Y-70898720D01*
X148863347Y-70745221D01*
X148991652Y-70563337D01*
X149082186Y-70359995D01*
X149131499Y-70142942D01*
X149135049Y-69888707D01*
X149091815Y-69670362D01*
X149006995Y-69464571D01*
X148883818Y-69279176D01*
X148726977Y-69121236D01*
X148542446Y-68996768D01*
X148337253Y-68910513D01*
X148119214Y-68865756D01*
X147896634Y-68864202D01*
X147677992Y-68905910D01*
X147471615Y-68989292D01*
X147285363Y-69111171D01*
X147126332Y-69266906D01*
X147000579Y-69450564D01*
X146912894Y-69655150D01*
X146866616Y-69872871D01*
X146863508Y-70095434D01*
X146632162Y-70095434D01*
X146635049Y-69888707D01*
X146591815Y-69670362D01*
X146506995Y-69464571D01*
X146383818Y-69279176D01*
X146226977Y-69121236D01*
X146042446Y-68996768D01*
X145837253Y-68910513D01*
X145619214Y-68865756D01*
X145396634Y-68864202D01*
X145177992Y-68905910D01*
X144971615Y-68989292D01*
X144785363Y-69111171D01*
X144626332Y-69266906D01*
X144500579Y-69450564D01*
X144412894Y-69655150D01*
X144366616Y-69872871D01*
X144363508Y-70095434D01*
X144132162Y-70095434D01*
X144135049Y-69888707D01*
X144091815Y-69670362D01*
X144006995Y-69464571D01*
X143883818Y-69279176D01*
X143726977Y-69121236D01*
X143542446Y-68996768D01*
X143337253Y-68910513D01*
X143119214Y-68865756D01*
X142896634Y-68864202D01*
X142677992Y-68905910D01*
X142471615Y-68989292D01*
X142285363Y-69111171D01*
X142126332Y-69266906D01*
X142000579Y-69450564D01*
X141912894Y-69655150D01*
X141866616Y-69872871D01*
X141863508Y-70095434D01*
X128432427Y-70095434D01*
X128435040Y-69908319D01*
X128399425Y-69728448D01*
X128329550Y-69558920D01*
X128228079Y-69406193D01*
X128098875Y-69276084D01*
X127946860Y-69173549D01*
X127777825Y-69102493D01*
X127598207Y-69065623D01*
X127414849Y-69064343D01*
X127234733Y-69098701D01*
X127064722Y-69167390D01*
X126911291Y-69267793D01*
X126780283Y-69396086D01*
X126676689Y-69547381D01*
X126604454Y-69715916D01*
X126566331Y-69895272D01*
X126563771Y-70078617D01*
X118432662Y-70078617D01*
X118435040Y-69908319D01*
X118399425Y-69728448D01*
X118329550Y-69558920D01*
X118228079Y-69406193D01*
X118098875Y-69276084D01*
X117946860Y-69173549D01*
X117777825Y-69102493D01*
X117598207Y-69065623D01*
X117414849Y-69064343D01*
X117234733Y-69098701D01*
X117064722Y-69167390D01*
X116911291Y-69267793D01*
X116780283Y-69396086D01*
X116676689Y-69547381D01*
X116604454Y-69715916D01*
X116566331Y-69895272D01*
X116563771Y-70078617D01*
X96685000Y-70078617D01*
X96685000Y-68078617D01*
X113063771Y-68078617D01*
X113096872Y-68258968D01*
X113164372Y-68429454D01*
X113263701Y-68583583D01*
X113391076Y-68715484D01*
X113541644Y-68820131D01*
X113709671Y-68893540D01*
X113888757Y-68932915D01*
X114072079Y-68936755D01*
X114252657Y-68904914D01*
X114423610Y-68838606D01*
X114578429Y-68740355D01*
X114711215Y-68613904D01*
X114816911Y-68464070D01*
X114891492Y-68296560D01*
X114932116Y-68117754D01*
X114935040Y-67908319D01*
X114899425Y-67728448D01*
X114837669Y-67578617D01*
X134563771Y-67578617D01*
X134596872Y-67758968D01*
X134664372Y-67929454D01*
X134763701Y-68083583D01*
X134891076Y-68215484D01*
X135041644Y-68320131D01*
X135209671Y-68393540D01*
X135388757Y-68432915D01*
X135572079Y-68436755D01*
X135752657Y-68404914D01*
X135923610Y-68338606D01*
X136078429Y-68240355D01*
X136211215Y-68113904D01*
X136316911Y-67964070D01*
X136391492Y-67796560D01*
X136432116Y-67617754D01*
X136435040Y-67408319D01*
X136399425Y-67228448D01*
X136337669Y-67078617D01*
X139563771Y-67078617D01*
X139596872Y-67258968D01*
X139664372Y-67429454D01*
X139763701Y-67583583D01*
X139891076Y-67715484D01*
X140041644Y-67820131D01*
X140209671Y-67893540D01*
X140388757Y-67932915D01*
X140572079Y-67936755D01*
X140752657Y-67904914D01*
X140923610Y-67838606D01*
X141078429Y-67740355D01*
X141211215Y-67613904D01*
X141316911Y-67464070D01*
X141391492Y-67296560D01*
X141432116Y-67117754D01*
X141435040Y-66908319D01*
X141399425Y-66728448D01*
X141329550Y-66558920D01*
X141228079Y-66406193D01*
X141098875Y-66276084D01*
X140946860Y-66173549D01*
X140777825Y-66102493D01*
X140598207Y-66065623D01*
X140414849Y-66064343D01*
X140234733Y-66098701D01*
X140064722Y-66167390D01*
X139911291Y-66267793D01*
X139780283Y-66396086D01*
X139676689Y-66547381D01*
X139604454Y-66715916D01*
X139566331Y-66895272D01*
X139563771Y-67078617D01*
X136337669Y-67078617D01*
X136329550Y-67058920D01*
X136228079Y-66906193D01*
X136098875Y-66776084D01*
X135946860Y-66673549D01*
X135777825Y-66602493D01*
X135598207Y-66565623D01*
X135414849Y-66564343D01*
X135234733Y-66598701D01*
X135064722Y-66667390D01*
X134911291Y-66767793D01*
X134780283Y-66896086D01*
X134676689Y-67047381D01*
X134604454Y-67215916D01*
X134566331Y-67395272D01*
X134563771Y-67578617D01*
X114837669Y-67578617D01*
X114829550Y-67558920D01*
X114728079Y-67406193D01*
X114598875Y-67276084D01*
X114446860Y-67173549D01*
X114277825Y-67102493D01*
X114098207Y-67065623D01*
X113914849Y-67064343D01*
X113734733Y-67098701D01*
X113564722Y-67167390D01*
X113411291Y-67267793D01*
X113280283Y-67396086D01*
X113176689Y-67547381D01*
X113104454Y-67715916D01*
X113066331Y-67895272D01*
X113063771Y-68078617D01*
X96685000Y-68078617D01*
X96685000Y-65078617D01*
X98063771Y-65078617D01*
X98096872Y-65258968D01*
X98164372Y-65429454D01*
X98263701Y-65583583D01*
X98391076Y-65715484D01*
X98541644Y-65820131D01*
X98709671Y-65893540D01*
X98888757Y-65932915D01*
X99072079Y-65936755D01*
X99252657Y-65904914D01*
X99423610Y-65838606D01*
X99578429Y-65740355D01*
X99711215Y-65613904D01*
X99816911Y-65464070D01*
X99891492Y-65296560D01*
X99932116Y-65117754D01*
X99932662Y-65078617D01*
X138063771Y-65078617D01*
X138096872Y-65258968D01*
X138164372Y-65429454D01*
X138263701Y-65583583D01*
X138391076Y-65715484D01*
X138541644Y-65820131D01*
X138709671Y-65893540D01*
X138888757Y-65932915D01*
X139072079Y-65936755D01*
X139252657Y-65904914D01*
X139423610Y-65838606D01*
X139578429Y-65740355D01*
X139711215Y-65613904D01*
X139816911Y-65464070D01*
X139891492Y-65296560D01*
X139932116Y-65117754D01*
X139935040Y-64908319D01*
X139899425Y-64728448D01*
X139829550Y-64558920D01*
X139728079Y-64406193D01*
X139598875Y-64276084D01*
X139446860Y-64173549D01*
X139277825Y-64102493D01*
X139098207Y-64065623D01*
X138914849Y-64064343D01*
X138734733Y-64098701D01*
X138564722Y-64167390D01*
X138411291Y-64267793D01*
X138280283Y-64396086D01*
X138176689Y-64547381D01*
X138104454Y-64715916D01*
X138066331Y-64895272D01*
X138063771Y-65078617D01*
X99932662Y-65078617D01*
X99935040Y-64908319D01*
X99899425Y-64728448D01*
X99829550Y-64558920D01*
X99728079Y-64406193D01*
X99598875Y-64276084D01*
X99446860Y-64173549D01*
X99277825Y-64102493D01*
X99098207Y-64065623D01*
X98914849Y-64064343D01*
X98734733Y-64098701D01*
X98564722Y-64167390D01*
X98411291Y-64267793D01*
X98280283Y-64396086D01*
X98176689Y-64547381D01*
X98104454Y-64715916D01*
X98066331Y-64895272D01*
X98063771Y-65078617D01*
X96685000Y-65078617D01*
X96685000Y-63595434D01*
X123863508Y-63595434D01*
X123903689Y-63814362D01*
X123985628Y-64021317D01*
X124106204Y-64208414D01*
X124260824Y-64368528D01*
X124443600Y-64495561D01*
X124647569Y-64584672D01*
X124864961Y-64632469D01*
X125087497Y-64637131D01*
X125306701Y-64598479D01*
X125514222Y-64517987D01*
X125702157Y-64398720D01*
X125863347Y-64245221D01*
X125991652Y-64063337D01*
X126082186Y-63859995D01*
X126131499Y-63642942D01*
X126135049Y-63388707D01*
X126091815Y-63170362D01*
X126006995Y-62964571D01*
X125883818Y-62779176D01*
X125726977Y-62621236D01*
X125542446Y-62496768D01*
X125337253Y-62410513D01*
X125119214Y-62365756D01*
X124896634Y-62364202D01*
X124677992Y-62405910D01*
X124471615Y-62489292D01*
X124285363Y-62611171D01*
X124126332Y-62766906D01*
X124000579Y-62950564D01*
X123912894Y-63155150D01*
X123866616Y-63372871D01*
X123863508Y-63595434D01*
X96685000Y-63595434D01*
X96685000Y-62078617D01*
X110563771Y-62078617D01*
X110596872Y-62258968D01*
X110664372Y-62429454D01*
X110763701Y-62583583D01*
X110891076Y-62715484D01*
X111041644Y-62820131D01*
X111209671Y-62893540D01*
X111388757Y-62932915D01*
X111572079Y-62936755D01*
X111752657Y-62904914D01*
X111923610Y-62838606D01*
X112078429Y-62740355D01*
X112211215Y-62613904D01*
X112316911Y-62464070D01*
X112391492Y-62296560D01*
X112432116Y-62117754D01*
X112432662Y-62078617D01*
X116563771Y-62078617D01*
X116596872Y-62258968D01*
X116664372Y-62429454D01*
X116763701Y-62583583D01*
X116891076Y-62715484D01*
X117041644Y-62820131D01*
X117209671Y-62893540D01*
X117388757Y-62932915D01*
X117572079Y-62936755D01*
X117752657Y-62904914D01*
X117923610Y-62838606D01*
X117999203Y-62790634D01*
X118041644Y-62820131D01*
X118209671Y-62893540D01*
X118388757Y-62932915D01*
X118572079Y-62936755D01*
X118752657Y-62904914D01*
X118923610Y-62838606D01*
X118999203Y-62790634D01*
X119041644Y-62820131D01*
X119209671Y-62893540D01*
X119388757Y-62932915D01*
X119572079Y-62936755D01*
X119752657Y-62904914D01*
X119923610Y-62838606D01*
X120078429Y-62740355D01*
X120211215Y-62613904D01*
X120316911Y-62464070D01*
X120391492Y-62296560D01*
X120432116Y-62117754D01*
X120432662Y-62078617D01*
X120563771Y-62078617D01*
X120596872Y-62258968D01*
X120664372Y-62429454D01*
X120763701Y-62583583D01*
X120891076Y-62715484D01*
X121041644Y-62820131D01*
X121209671Y-62893540D01*
X121388757Y-62932915D01*
X121572079Y-62936755D01*
X121752657Y-62904914D01*
X121923610Y-62838606D01*
X122078429Y-62740355D01*
X122211215Y-62613904D01*
X122316911Y-62464070D01*
X122391492Y-62296560D01*
X122432116Y-62117754D01*
X122435040Y-61908319D01*
X122399425Y-61728448D01*
X122329550Y-61558920D01*
X122228079Y-61406193D01*
X122098875Y-61276084D01*
X121946860Y-61173549D01*
X121777825Y-61102493D01*
X121598207Y-61065623D01*
X121414849Y-61064343D01*
X121234733Y-61098701D01*
X121064722Y-61167390D01*
X120911291Y-61267793D01*
X120780283Y-61396086D01*
X120676689Y-61547381D01*
X120604454Y-61715916D01*
X120566331Y-61895272D01*
X120563771Y-62078617D01*
X120432662Y-62078617D01*
X120435040Y-61908319D01*
X120399425Y-61728448D01*
X120329550Y-61558920D01*
X120228079Y-61406193D01*
X120098875Y-61276084D01*
X119946860Y-61173549D01*
X119777825Y-61102493D01*
X119598207Y-61065623D01*
X119414849Y-61064343D01*
X119234733Y-61098701D01*
X119064722Y-61167390D01*
X119000264Y-61209570D01*
X118946860Y-61173549D01*
X118777825Y-61102493D01*
X118598207Y-61065623D01*
X118414849Y-61064343D01*
X118234733Y-61098701D01*
X118064722Y-61167390D01*
X118000264Y-61209570D01*
X117946860Y-61173549D01*
X117777825Y-61102493D01*
X117598207Y-61065623D01*
X117414849Y-61064343D01*
X117234733Y-61098701D01*
X117064722Y-61167390D01*
X116911291Y-61267793D01*
X116780283Y-61396086D01*
X116676689Y-61547381D01*
X116604454Y-61715916D01*
X116566331Y-61895272D01*
X116563771Y-62078617D01*
X112432662Y-62078617D01*
X112435040Y-61908319D01*
X112399425Y-61728448D01*
X112329550Y-61558920D01*
X112228079Y-61406193D01*
X112098875Y-61276084D01*
X111946860Y-61173549D01*
X111777825Y-61102493D01*
X111598207Y-61065623D01*
X111414849Y-61064343D01*
X111234733Y-61098701D01*
X111064722Y-61167390D01*
X110911291Y-61267793D01*
X110780283Y-61396086D01*
X110676689Y-61547381D01*
X110604454Y-61715916D01*
X110566331Y-61895272D01*
X110563771Y-62078617D01*
X96685000Y-62078617D01*
X96685000Y-59078617D01*
X99063771Y-59078617D01*
X99096872Y-59258968D01*
X99164372Y-59429454D01*
X99263701Y-59583583D01*
X99391076Y-59715484D01*
X99541644Y-59820131D01*
X99709671Y-59893540D01*
X99888757Y-59932915D01*
X100072079Y-59936755D01*
X100252657Y-59904914D01*
X100423610Y-59838606D01*
X100578429Y-59740355D01*
X100711215Y-59613904D01*
X100816911Y-59464070D01*
X100891492Y-59296560D01*
X100932116Y-59117754D01*
X100935040Y-58908319D01*
X100899425Y-58728448D01*
X100829550Y-58558920D01*
X100728079Y-58406193D01*
X100598875Y-58276084D01*
X100446860Y-58173549D01*
X100277825Y-58102493D01*
X100098207Y-58065623D01*
X99914849Y-58064343D01*
X99734733Y-58098701D01*
X99564722Y-58167390D01*
X99411291Y-58267793D01*
X99280283Y-58396086D01*
X99176689Y-58547381D01*
X99104454Y-58715916D01*
X99066331Y-58895272D01*
X99063771Y-59078617D01*
X96685000Y-59078617D01*
X96685000Y-51127000D01*
X107500000Y-51127000D01*
X107535381Y-51121972D01*
X107567961Y-51107286D01*
X107595160Y-51084105D01*
X107614823Y-51054264D01*
X107625395Y-51020127D01*
X107627000Y-51000000D01*
X107627000Y-40578617D01*
X109563771Y-40578617D01*
X109596872Y-40758968D01*
X109664372Y-40929454D01*
X109763701Y-41083583D01*
X109891076Y-41215484D01*
X110041644Y-41320131D01*
X110209671Y-41393540D01*
X110388757Y-41432915D01*
X110572079Y-41436755D01*
X110752657Y-41404914D01*
X110923610Y-41338606D01*
X110999203Y-41290634D01*
X111041644Y-41320131D01*
X111209671Y-41393540D01*
X111388757Y-41432915D01*
X111572079Y-41436755D01*
X111752657Y-41404914D01*
X111923610Y-41338606D01*
X111999203Y-41290634D01*
X112041644Y-41320131D01*
X112209671Y-41393540D01*
X112388757Y-41432915D01*
X112572079Y-41436755D01*
X112752657Y-41404914D01*
X112923610Y-41338606D01*
X112999203Y-41290634D01*
X113041644Y-41320131D01*
X113209671Y-41393540D01*
X113388757Y-41432915D01*
X113572079Y-41436755D01*
X113752657Y-41404914D01*
X113923610Y-41338606D01*
X114078429Y-41240355D01*
X114211215Y-41113904D01*
X114316911Y-40964070D01*
X114391492Y-40796560D01*
X114432116Y-40617754D01*
X114432662Y-40578617D01*
X116563771Y-40578617D01*
X116596872Y-40758968D01*
X116664372Y-40929454D01*
X116763701Y-41083583D01*
X116891076Y-41215484D01*
X117041644Y-41320131D01*
X117209671Y-41393540D01*
X117388757Y-41432915D01*
X117572079Y-41436755D01*
X117752657Y-41404914D01*
X117923610Y-41338606D01*
X117999203Y-41290634D01*
X118041644Y-41320131D01*
X118209671Y-41393540D01*
X118388757Y-41432915D01*
X118572079Y-41436755D01*
X118752657Y-41404914D01*
X118923610Y-41338606D01*
X119078429Y-41240355D01*
X119211215Y-41113904D01*
X119316911Y-40964070D01*
X119391492Y-40796560D01*
X119432116Y-40617754D01*
X119432662Y-40578617D01*
X119563771Y-40578617D01*
X119596872Y-40758968D01*
X119664372Y-40929454D01*
X119763701Y-41083583D01*
X119891076Y-41215484D01*
X120041644Y-41320131D01*
X120209671Y-41393540D01*
X120388757Y-41432915D01*
X120572079Y-41436755D01*
X120752657Y-41404914D01*
X120923610Y-41338606D01*
X120999203Y-41290634D01*
X121041644Y-41320131D01*
X121209671Y-41393540D01*
X121388757Y-41432915D01*
X121572079Y-41436755D01*
X121752657Y-41404914D01*
X121923610Y-41338606D01*
X122078429Y-41240355D01*
X122211215Y-41113904D01*
X122316911Y-40964070D01*
X122391492Y-40796560D01*
X122432116Y-40617754D01*
X122435040Y-40408319D01*
X122399425Y-40228448D01*
X122329550Y-40058920D01*
X122228079Y-39906193D01*
X122098875Y-39776084D01*
X121946860Y-39673549D01*
X121777825Y-39602493D01*
X121598207Y-39565623D01*
X121414849Y-39564343D01*
X121234733Y-39598701D01*
X121064722Y-39667390D01*
X121000264Y-39709570D01*
X120946860Y-39673549D01*
X120777825Y-39602493D01*
X120598207Y-39565623D01*
X120414849Y-39564343D01*
X120234733Y-39598701D01*
X120064722Y-39667390D01*
X119911291Y-39767793D01*
X119780283Y-39896086D01*
X119676689Y-40047381D01*
X119604454Y-40215916D01*
X119566331Y-40395272D01*
X119563771Y-40578617D01*
X119432662Y-40578617D01*
X119435040Y-40408319D01*
X119399425Y-40228448D01*
X119329550Y-40058920D01*
X119228079Y-39906193D01*
X119098875Y-39776084D01*
X118946860Y-39673549D01*
X118777825Y-39602493D01*
X118598207Y-39565623D01*
X118414849Y-39564343D01*
X118234733Y-39598701D01*
X118064722Y-39667390D01*
X118000264Y-39709570D01*
X117946860Y-39673549D01*
X117777825Y-39602493D01*
X117598207Y-39565623D01*
X117414849Y-39564343D01*
X117234733Y-39598701D01*
X117064722Y-39667390D01*
X116911291Y-39767793D01*
X116780283Y-39896086D01*
X116676689Y-40047381D01*
X116604454Y-40215916D01*
X116566331Y-40395272D01*
X116563771Y-40578617D01*
X114432662Y-40578617D01*
X114435040Y-40408319D01*
X114399425Y-40228448D01*
X114329550Y-40058920D01*
X114228079Y-39906193D01*
X114098875Y-39776084D01*
X113946860Y-39673549D01*
X113777825Y-39602493D01*
X113598207Y-39565623D01*
X113414849Y-39564343D01*
X113234733Y-39598701D01*
X113064722Y-39667390D01*
X113000264Y-39709570D01*
X112946860Y-39673549D01*
X112777825Y-39602493D01*
X112598207Y-39565623D01*
X112414849Y-39564343D01*
X112234733Y-39598701D01*
X112064722Y-39667390D01*
X112000264Y-39709570D01*
X111946860Y-39673549D01*
X111777825Y-39602493D01*
X111598207Y-39565623D01*
X111414849Y-39564343D01*
X111234733Y-39598701D01*
X111064722Y-39667390D01*
X111000264Y-39709570D01*
X110946860Y-39673549D01*
X110777825Y-39602493D01*
X110598207Y-39565623D01*
X110414849Y-39564343D01*
X110234733Y-39598701D01*
X110064722Y-39667390D01*
X109911291Y-39767793D01*
X109780283Y-39896086D01*
X109676689Y-40047381D01*
X109604454Y-40215916D01*
X109566331Y-40395272D01*
X109563771Y-40578617D01*
X107627000Y-40578617D01*
X107627000Y-39127000D01*
X141947394Y-39127000D01*
X143873000Y-41052606D01*
M02*
