G04 #@! TF.FileFunction,Drawing*
%FSLAX46Y46*%
G04 Gerber Fmt 4.6, Leading zero omitted, Abs format (unit mm)*
G04 Created by KiCad (PCBNEW 4.0.7-e2-6376~61~ubuntu18.04.1) date Tue Jul  3 09:25:50 2018*
%MOMM*%
%LPD*%
G01*
G04 APERTURE LIST*
%ADD10C,0.100000*%
%ADD11C,0.500000*%
%ADD12C,0.120000*%
%ADD13C,0.150000*%
G04 APERTURE END LIST*
D10*
D11*
X219000000Y-144000000D02*
X219000000Y-16000000D01*
X91000000Y-144000000D02*
X219000000Y-144000000D01*
D12*
X152983333Y-182907014D02*
X152983333Y-183373681D01*
X152852380Y-182640347D02*
X152721428Y-183140347D01*
X153061904Y-183140347D01*
X153376190Y-182673681D02*
X153428571Y-182673681D01*
X153480952Y-182707014D01*
X153507143Y-182740347D01*
X153533333Y-182807014D01*
X153559524Y-182940347D01*
X153559524Y-183107014D01*
X153533333Y-183240347D01*
X153507143Y-183307014D01*
X153480952Y-183340347D01*
X153428571Y-183373681D01*
X153376190Y-183373681D01*
X153323809Y-183340347D01*
X153297619Y-183307014D01*
X153271428Y-183240347D01*
X153245238Y-183107014D01*
X153245238Y-182940347D01*
X153271428Y-182807014D01*
X153297619Y-182740347D01*
X153323809Y-182707014D01*
X153376190Y-182673681D01*
X153795238Y-183307014D02*
X153821429Y-183340347D01*
X153795238Y-183373681D01*
X153769048Y-183340347D01*
X153795238Y-183307014D01*
X153795238Y-183373681D01*
X154161905Y-182673681D02*
X154214286Y-182673681D01*
X154266667Y-182707014D01*
X154292858Y-182740347D01*
X154319048Y-182807014D01*
X154345239Y-182940347D01*
X154345239Y-183107014D01*
X154319048Y-183240347D01*
X154292858Y-183307014D01*
X154266667Y-183340347D01*
X154214286Y-183373681D01*
X154161905Y-183373681D01*
X154109524Y-183340347D01*
X154083334Y-183307014D01*
X154057143Y-183240347D01*
X154030953Y-183107014D01*
X154030953Y-182940347D01*
X154057143Y-182807014D01*
X154083334Y-182740347D01*
X154109524Y-182707014D01*
X154161905Y-182673681D01*
X154685715Y-182673681D02*
X154738096Y-182673681D01*
X154790477Y-182707014D01*
X154816668Y-182740347D01*
X154842858Y-182807014D01*
X154869049Y-182940347D01*
X154869049Y-183107014D01*
X154842858Y-183240347D01*
X154816668Y-183307014D01*
X154790477Y-183340347D01*
X154738096Y-183373681D01*
X154685715Y-183373681D01*
X154633334Y-183340347D01*
X154607144Y-183307014D01*
X154580953Y-183240347D01*
X154554763Y-183107014D01*
X154554763Y-182940347D01*
X154580953Y-182807014D01*
X154607144Y-182740347D01*
X154633334Y-182707014D01*
X154685715Y-182673681D01*
X155209525Y-182673681D02*
X155261906Y-182673681D01*
X155314287Y-182707014D01*
X155340478Y-182740347D01*
X155366668Y-182807014D01*
X155392859Y-182940347D01*
X155392859Y-183107014D01*
X155366668Y-183240347D01*
X155340478Y-183307014D01*
X155314287Y-183340347D01*
X155261906Y-183373681D01*
X155209525Y-183373681D01*
X155157144Y-183340347D01*
X155130954Y-183307014D01*
X155104763Y-183240347D01*
X155078573Y-183107014D01*
X155078573Y-182940347D01*
X155104763Y-182807014D01*
X155130954Y-182740347D01*
X155157144Y-182707014D01*
X155209525Y-182673681D01*
X156047621Y-183373681D02*
X156047621Y-182907014D01*
X156047621Y-182973681D02*
X156073812Y-182940347D01*
X156126193Y-182907014D01*
X156204764Y-182907014D01*
X156257145Y-182940347D01*
X156283336Y-183007014D01*
X156283336Y-183373681D01*
X156283336Y-183007014D02*
X156309526Y-182940347D01*
X156361907Y-182907014D01*
X156440479Y-182907014D01*
X156492859Y-182940347D01*
X156519050Y-183007014D01*
X156519050Y-183373681D01*
X156780954Y-183373681D02*
X156780954Y-182907014D01*
X156780954Y-182973681D02*
X156807145Y-182940347D01*
X156859526Y-182907014D01*
X156938097Y-182907014D01*
X156990478Y-182940347D01*
X157016669Y-183007014D01*
X157016669Y-183373681D01*
X157016669Y-183007014D02*
X157042859Y-182940347D01*
X157095240Y-182907014D01*
X157173812Y-182907014D01*
X157226192Y-182940347D01*
X157252383Y-183007014D01*
X157252383Y-183373681D01*
X135000000Y-182467014D02*
X175000000Y-182467014D01*
X135000000Y-170000000D02*
X135000000Y-183647014D01*
X175000000Y-170000000D02*
X175000000Y-183647014D01*
X175000000Y-182467014D02*
X173873496Y-183053435D01*
X175000000Y-182467014D02*
X173873496Y-181880593D01*
X135000000Y-182467014D02*
X136126504Y-183053435D01*
X135000000Y-182467014D02*
X136126504Y-181880593D01*
D11*
X219000000Y-16000000D02*
X91000000Y-16000000D01*
X91000000Y-16000000D02*
X91000000Y-144000000D01*
X94000000Y-141000000D02*
X216000000Y-141000000D01*
X94000000Y-19000000D02*
X94000000Y-141000000D01*
X216000000Y-19000000D02*
X94000000Y-19000000D01*
X216000000Y-141000000D02*
X216000000Y-19000000D01*
D12*
X152773809Y-163406647D02*
X152459523Y-163406647D01*
X152616666Y-163406647D02*
X152616666Y-162706647D01*
X152564285Y-162806647D01*
X152511904Y-162873313D01*
X152459523Y-162906647D01*
X152983333Y-162773313D02*
X153009523Y-162739980D01*
X153061904Y-162706647D01*
X153192857Y-162706647D01*
X153245238Y-162739980D01*
X153271428Y-162773313D01*
X153297619Y-162839980D01*
X153297619Y-162906647D01*
X153271428Y-163006647D01*
X152957142Y-163406647D01*
X153297619Y-163406647D01*
X153507143Y-162773313D02*
X153533333Y-162739980D01*
X153585714Y-162706647D01*
X153716667Y-162706647D01*
X153769048Y-162739980D01*
X153795238Y-162773313D01*
X153821429Y-162839980D01*
X153821429Y-162906647D01*
X153795238Y-163006647D01*
X153480952Y-163406647D01*
X153821429Y-163406647D01*
X154057143Y-163339980D02*
X154083334Y-163373313D01*
X154057143Y-163406647D01*
X154030953Y-163373313D01*
X154057143Y-163339980D01*
X154057143Y-163406647D01*
X154423810Y-162706647D02*
X154476191Y-162706647D01*
X154528572Y-162739980D01*
X154554763Y-162773313D01*
X154580953Y-162839980D01*
X154607144Y-162973313D01*
X154607144Y-163139980D01*
X154580953Y-163273313D01*
X154554763Y-163339980D01*
X154528572Y-163373313D01*
X154476191Y-163406647D01*
X154423810Y-163406647D01*
X154371429Y-163373313D01*
X154345239Y-163339980D01*
X154319048Y-163273313D01*
X154292858Y-163139980D01*
X154292858Y-162973313D01*
X154319048Y-162839980D01*
X154345239Y-162773313D01*
X154371429Y-162739980D01*
X154423810Y-162706647D01*
X154947620Y-162706647D02*
X155000001Y-162706647D01*
X155052382Y-162739980D01*
X155078573Y-162773313D01*
X155104763Y-162839980D01*
X155130954Y-162973313D01*
X155130954Y-163139980D01*
X155104763Y-163273313D01*
X155078573Y-163339980D01*
X155052382Y-163373313D01*
X155000001Y-163406647D01*
X154947620Y-163406647D01*
X154895239Y-163373313D01*
X154869049Y-163339980D01*
X154842858Y-163273313D01*
X154816668Y-163139980D01*
X154816668Y-162973313D01*
X154842858Y-162839980D01*
X154869049Y-162773313D01*
X154895239Y-162739980D01*
X154947620Y-162706647D01*
X155471430Y-162706647D02*
X155523811Y-162706647D01*
X155576192Y-162739980D01*
X155602383Y-162773313D01*
X155628573Y-162839980D01*
X155654764Y-162973313D01*
X155654764Y-163139980D01*
X155628573Y-163273313D01*
X155602383Y-163339980D01*
X155576192Y-163373313D01*
X155523811Y-163406647D01*
X155471430Y-163406647D01*
X155419049Y-163373313D01*
X155392859Y-163339980D01*
X155366668Y-163273313D01*
X155340478Y-163139980D01*
X155340478Y-162973313D01*
X155366668Y-162839980D01*
X155392859Y-162773313D01*
X155419049Y-162739980D01*
X155471430Y-162706647D01*
X156309526Y-163406647D02*
X156309526Y-162939980D01*
X156309526Y-163006647D02*
X156335717Y-162973313D01*
X156388098Y-162939980D01*
X156466669Y-162939980D01*
X156519050Y-162973313D01*
X156545241Y-163039980D01*
X156545241Y-163406647D01*
X156545241Y-163039980D02*
X156571431Y-162973313D01*
X156623812Y-162939980D01*
X156702384Y-162939980D01*
X156754764Y-162973313D01*
X156780955Y-163039980D01*
X156780955Y-163406647D01*
X157042859Y-163406647D02*
X157042859Y-162939980D01*
X157042859Y-163006647D02*
X157069050Y-162973313D01*
X157121431Y-162939980D01*
X157200002Y-162939980D01*
X157252383Y-162973313D01*
X157278574Y-163039980D01*
X157278574Y-163406647D01*
X157278574Y-163039980D02*
X157304764Y-162973313D01*
X157357145Y-162939980D01*
X157435717Y-162939980D01*
X157488097Y-162973313D01*
X157514288Y-163039980D01*
X157514288Y-163406647D01*
X216000000Y-162499980D02*
X94000000Y-162499980D01*
X216000000Y-145000000D02*
X216000000Y-163679980D01*
X94000000Y-145000000D02*
X94000000Y-163679980D01*
X94000000Y-162499980D02*
X95126504Y-161913559D01*
X94000000Y-162499980D02*
X95126504Y-163086401D01*
X216000000Y-162499980D02*
X214873496Y-161913559D01*
X216000000Y-162499980D02*
X214873496Y-163086401D01*
X107957142Y-75526667D02*
X108297619Y-75526667D01*
X108114285Y-75793333D01*
X108192857Y-75793333D01*
X108245238Y-75826667D01*
X108271428Y-75860000D01*
X108297619Y-75926667D01*
X108297619Y-76093333D01*
X108271428Y-76160000D01*
X108245238Y-76193333D01*
X108192857Y-76226667D01*
X108035714Y-76226667D01*
X107983333Y-76193333D01*
X107957142Y-76160000D01*
X108533333Y-76160000D02*
X108559524Y-76193333D01*
X108533333Y-76226667D01*
X108507143Y-76193333D01*
X108533333Y-76160000D01*
X108533333Y-76226667D01*
X108900000Y-75526667D02*
X108952381Y-75526667D01*
X109004762Y-75560000D01*
X109030953Y-75593333D01*
X109057143Y-75660000D01*
X109083334Y-75793333D01*
X109083334Y-75960000D01*
X109057143Y-76093333D01*
X109030953Y-76160000D01*
X109004762Y-76193333D01*
X108952381Y-76226667D01*
X108900000Y-76226667D01*
X108847619Y-76193333D01*
X108821429Y-76160000D01*
X108795238Y-76093333D01*
X108769048Y-75960000D01*
X108769048Y-75793333D01*
X108795238Y-75660000D01*
X108821429Y-75593333D01*
X108847619Y-75560000D01*
X108900000Y-75526667D01*
X109423810Y-75526667D02*
X109476191Y-75526667D01*
X109528572Y-75560000D01*
X109554763Y-75593333D01*
X109580953Y-75660000D01*
X109607144Y-75793333D01*
X109607144Y-75960000D01*
X109580953Y-76093333D01*
X109554763Y-76160000D01*
X109528572Y-76193333D01*
X109476191Y-76226667D01*
X109423810Y-76226667D01*
X109371429Y-76193333D01*
X109345239Y-76160000D01*
X109319048Y-76093333D01*
X109292858Y-75960000D01*
X109292858Y-75793333D01*
X109319048Y-75660000D01*
X109345239Y-75593333D01*
X109371429Y-75560000D01*
X109423810Y-75526667D01*
X109947620Y-75526667D02*
X110000001Y-75526667D01*
X110052382Y-75560000D01*
X110078573Y-75593333D01*
X110104763Y-75660000D01*
X110130954Y-75793333D01*
X110130954Y-75960000D01*
X110104763Y-76093333D01*
X110078573Y-76160000D01*
X110052382Y-76193333D01*
X110000001Y-76226667D01*
X109947620Y-76226667D01*
X109895239Y-76193333D01*
X109869049Y-76160000D01*
X109842858Y-76093333D01*
X109816668Y-75960000D01*
X109816668Y-75793333D01*
X109842858Y-75660000D01*
X109869049Y-75593333D01*
X109895239Y-75560000D01*
X109947620Y-75526667D01*
X110785716Y-76226667D02*
X110785716Y-75760000D01*
X110785716Y-75826667D02*
X110811907Y-75793333D01*
X110864288Y-75760000D01*
X110942859Y-75760000D01*
X110995240Y-75793333D01*
X111021431Y-75860000D01*
X111021431Y-76226667D01*
X111021431Y-75860000D02*
X111047621Y-75793333D01*
X111100002Y-75760000D01*
X111178574Y-75760000D01*
X111230954Y-75793333D01*
X111257145Y-75860000D01*
X111257145Y-76226667D01*
X111519049Y-76226667D02*
X111519049Y-75760000D01*
X111519049Y-75826667D02*
X111545240Y-75793333D01*
X111597621Y-75760000D01*
X111676192Y-75760000D01*
X111728573Y-75793333D01*
X111754764Y-75860000D01*
X111754764Y-76226667D01*
X111754764Y-75860000D02*
X111780954Y-75793333D01*
X111833335Y-75760000D01*
X111911907Y-75760000D01*
X111964287Y-75793333D01*
X111990478Y-75860000D01*
X111990478Y-76226667D01*
X108500000Y-76500000D02*
X111500000Y-76500000D01*
X108500000Y-80000000D02*
X108500000Y-75320000D01*
X111500000Y-80000000D02*
X111500000Y-75320000D01*
X111500000Y-76500000D02*
X110373496Y-77086421D01*
X111500000Y-76500000D02*
X110373496Y-75913579D01*
X108500000Y-76500000D02*
X109626504Y-77086421D01*
X108500000Y-76500000D02*
X109626504Y-75913579D01*
D10*
X96000000Y-30000000D02*
X96000000Y-17500000D01*
X214000000Y-30000000D02*
X214000000Y-17500000D01*
X205000000Y-21000000D02*
X217500000Y-21000000D01*
X205000000Y-139000000D02*
X217500000Y-139000000D01*
X214000000Y-142500000D02*
X214000000Y-130000000D01*
X119000000Y-125000000D02*
G75*
G03X119000000Y-125000000I-1500000J0D01*
G01*
X156500000Y-125000000D02*
G75*
G03X156500000Y-125000000I-1500000J0D01*
G01*
X194000000Y-125000000D02*
G75*
G03X194000000Y-125000000I-1500000J0D01*
G01*
X201500000Y-80000000D02*
G75*
G03X201500000Y-80000000I-1500000J0D01*
G01*
X194000000Y-35000000D02*
G75*
G03X194000000Y-35000000I-1500000J0D01*
G01*
X156500000Y-35000000D02*
G75*
G03X156500000Y-35000000I-1500000J0D01*
G01*
X119000000Y-35000000D02*
G75*
G03X119000000Y-35000000I-1500000J0D01*
G01*
X111500000Y-80000000D02*
G75*
G03X111500000Y-80000000I-1500000J0D01*
G01*
D12*
X152773809Y-155887192D02*
X152878571Y-155887192D01*
X152930952Y-155853858D01*
X152957142Y-155820525D01*
X153009523Y-155720525D01*
X153035714Y-155587192D01*
X153035714Y-155320525D01*
X153009523Y-155253858D01*
X152983333Y-155220525D01*
X152930952Y-155187192D01*
X152826190Y-155187192D01*
X152773809Y-155220525D01*
X152747618Y-155253858D01*
X152721428Y-155320525D01*
X152721428Y-155487192D01*
X152747618Y-155553858D01*
X152773809Y-155587192D01*
X152826190Y-155620525D01*
X152930952Y-155620525D01*
X152983333Y-155587192D01*
X153009523Y-155553858D01*
X153035714Y-155487192D01*
X153245238Y-155253858D02*
X153271428Y-155220525D01*
X153323809Y-155187192D01*
X153454762Y-155187192D01*
X153507143Y-155220525D01*
X153533333Y-155253858D01*
X153559524Y-155320525D01*
X153559524Y-155387192D01*
X153533333Y-155487192D01*
X153219047Y-155887192D01*
X153559524Y-155887192D01*
X153795238Y-155820525D02*
X153821429Y-155853858D01*
X153795238Y-155887192D01*
X153769048Y-155853858D01*
X153795238Y-155820525D01*
X153795238Y-155887192D01*
X154161905Y-155187192D02*
X154214286Y-155187192D01*
X154266667Y-155220525D01*
X154292858Y-155253858D01*
X154319048Y-155320525D01*
X154345239Y-155453858D01*
X154345239Y-155620525D01*
X154319048Y-155753858D01*
X154292858Y-155820525D01*
X154266667Y-155853858D01*
X154214286Y-155887192D01*
X154161905Y-155887192D01*
X154109524Y-155853858D01*
X154083334Y-155820525D01*
X154057143Y-155753858D01*
X154030953Y-155620525D01*
X154030953Y-155453858D01*
X154057143Y-155320525D01*
X154083334Y-155253858D01*
X154109524Y-155220525D01*
X154161905Y-155187192D01*
X154685715Y-155187192D02*
X154738096Y-155187192D01*
X154790477Y-155220525D01*
X154816668Y-155253858D01*
X154842858Y-155320525D01*
X154869049Y-155453858D01*
X154869049Y-155620525D01*
X154842858Y-155753858D01*
X154816668Y-155820525D01*
X154790477Y-155853858D01*
X154738096Y-155887192D01*
X154685715Y-155887192D01*
X154633334Y-155853858D01*
X154607144Y-155820525D01*
X154580953Y-155753858D01*
X154554763Y-155620525D01*
X154554763Y-155453858D01*
X154580953Y-155320525D01*
X154607144Y-155253858D01*
X154633334Y-155220525D01*
X154685715Y-155187192D01*
X155209525Y-155187192D02*
X155261906Y-155187192D01*
X155314287Y-155220525D01*
X155340478Y-155253858D01*
X155366668Y-155320525D01*
X155392859Y-155453858D01*
X155392859Y-155620525D01*
X155366668Y-155753858D01*
X155340478Y-155820525D01*
X155314287Y-155853858D01*
X155261906Y-155887192D01*
X155209525Y-155887192D01*
X155157144Y-155853858D01*
X155130954Y-155820525D01*
X155104763Y-155753858D01*
X155078573Y-155620525D01*
X155078573Y-155453858D01*
X155104763Y-155320525D01*
X155130954Y-155253858D01*
X155157144Y-155220525D01*
X155209525Y-155187192D01*
X156047621Y-155887192D02*
X156047621Y-155420525D01*
X156047621Y-155487192D02*
X156073812Y-155453858D01*
X156126193Y-155420525D01*
X156204764Y-155420525D01*
X156257145Y-155453858D01*
X156283336Y-155520525D01*
X156283336Y-155887192D01*
X156283336Y-155520525D02*
X156309526Y-155453858D01*
X156361907Y-155420525D01*
X156440479Y-155420525D01*
X156492859Y-155453858D01*
X156519050Y-155520525D01*
X156519050Y-155887192D01*
X156780954Y-155887192D02*
X156780954Y-155420525D01*
X156780954Y-155487192D02*
X156807145Y-155453858D01*
X156859526Y-155420525D01*
X156938097Y-155420525D01*
X156990478Y-155453858D01*
X157016669Y-155520525D01*
X157016669Y-155887192D01*
X157016669Y-155520525D02*
X157042859Y-155453858D01*
X157095240Y-155420525D01*
X157173812Y-155420525D01*
X157226192Y-155453858D01*
X157252383Y-155520525D01*
X157252383Y-155887192D01*
X201000000Y-154980525D02*
X109000000Y-154980525D01*
X201000000Y-145000000D02*
X201000000Y-156160525D01*
X109000000Y-145000000D02*
X109000000Y-156160525D01*
X109000000Y-154980525D02*
X110126504Y-154394104D01*
X109000000Y-154980525D02*
X110126504Y-155566946D01*
X201000000Y-154980525D02*
X199873496Y-154394104D01*
X201000000Y-154980525D02*
X199873496Y-155566946D01*
D10*
X92500000Y-125000000D02*
X217500000Y-125000000D01*
X92500000Y-35000000D02*
X217500000Y-35000000D01*
X192500000Y-142500000D02*
X192500000Y-17500000D01*
X117500000Y-142500000D02*
X117500000Y-17500000D01*
D12*
X152695237Y-150206667D02*
X153061904Y-150206667D01*
X152826190Y-150906667D01*
X153533333Y-150206667D02*
X153271428Y-150206667D01*
X153245238Y-150540000D01*
X153271428Y-150506667D01*
X153323809Y-150473333D01*
X153454762Y-150473333D01*
X153507143Y-150506667D01*
X153533333Y-150540000D01*
X153559524Y-150606667D01*
X153559524Y-150773333D01*
X153533333Y-150840000D01*
X153507143Y-150873333D01*
X153454762Y-150906667D01*
X153323809Y-150906667D01*
X153271428Y-150873333D01*
X153245238Y-150840000D01*
X153795238Y-150840000D02*
X153821429Y-150873333D01*
X153795238Y-150906667D01*
X153769048Y-150873333D01*
X153795238Y-150840000D01*
X153795238Y-150906667D01*
X154161905Y-150206667D02*
X154214286Y-150206667D01*
X154266667Y-150240000D01*
X154292858Y-150273333D01*
X154319048Y-150340000D01*
X154345239Y-150473333D01*
X154345239Y-150640000D01*
X154319048Y-150773333D01*
X154292858Y-150840000D01*
X154266667Y-150873333D01*
X154214286Y-150906667D01*
X154161905Y-150906667D01*
X154109524Y-150873333D01*
X154083334Y-150840000D01*
X154057143Y-150773333D01*
X154030953Y-150640000D01*
X154030953Y-150473333D01*
X154057143Y-150340000D01*
X154083334Y-150273333D01*
X154109524Y-150240000D01*
X154161905Y-150206667D01*
X154685715Y-150206667D02*
X154738096Y-150206667D01*
X154790477Y-150240000D01*
X154816668Y-150273333D01*
X154842858Y-150340000D01*
X154869049Y-150473333D01*
X154869049Y-150640000D01*
X154842858Y-150773333D01*
X154816668Y-150840000D01*
X154790477Y-150873333D01*
X154738096Y-150906667D01*
X154685715Y-150906667D01*
X154633334Y-150873333D01*
X154607144Y-150840000D01*
X154580953Y-150773333D01*
X154554763Y-150640000D01*
X154554763Y-150473333D01*
X154580953Y-150340000D01*
X154607144Y-150273333D01*
X154633334Y-150240000D01*
X154685715Y-150206667D01*
X155209525Y-150206667D02*
X155261906Y-150206667D01*
X155314287Y-150240000D01*
X155340478Y-150273333D01*
X155366668Y-150340000D01*
X155392859Y-150473333D01*
X155392859Y-150640000D01*
X155366668Y-150773333D01*
X155340478Y-150840000D01*
X155314287Y-150873333D01*
X155261906Y-150906667D01*
X155209525Y-150906667D01*
X155157144Y-150873333D01*
X155130954Y-150840000D01*
X155104763Y-150773333D01*
X155078573Y-150640000D01*
X155078573Y-150473333D01*
X155104763Y-150340000D01*
X155130954Y-150273333D01*
X155157144Y-150240000D01*
X155209525Y-150206667D01*
X156047621Y-150906667D02*
X156047621Y-150440000D01*
X156047621Y-150506667D02*
X156073812Y-150473333D01*
X156126193Y-150440000D01*
X156204764Y-150440000D01*
X156257145Y-150473333D01*
X156283336Y-150540000D01*
X156283336Y-150906667D01*
X156283336Y-150540000D02*
X156309526Y-150473333D01*
X156361907Y-150440000D01*
X156440479Y-150440000D01*
X156492859Y-150473333D01*
X156519050Y-150540000D01*
X156519050Y-150906667D01*
X156780954Y-150906667D02*
X156780954Y-150440000D01*
X156780954Y-150506667D02*
X156807145Y-150473333D01*
X156859526Y-150440000D01*
X156938097Y-150440000D01*
X156990478Y-150473333D01*
X157016669Y-150540000D01*
X157016669Y-150906667D01*
X157016669Y-150540000D02*
X157042859Y-150473333D01*
X157095240Y-150440000D01*
X157173812Y-150440000D01*
X157226192Y-150473333D01*
X157252383Y-150540000D01*
X157252383Y-150906667D01*
X192500000Y-150000000D02*
X117500000Y-150000000D01*
X192500000Y-145000000D02*
X192500000Y-151180000D01*
X117500000Y-145000000D02*
X117500000Y-151180000D01*
X117500000Y-150000000D02*
X118626504Y-149413579D01*
X117500000Y-150000000D02*
X118626504Y-150586421D01*
X192500000Y-150000000D02*
X191373496Y-149413579D01*
X192500000Y-150000000D02*
X191373496Y-150586421D01*
D10*
X92500000Y-21000000D02*
X105000000Y-21000000D01*
X92500000Y-139000000D02*
X105000000Y-139000000D01*
X96000000Y-142500000D02*
X96000000Y-130000000D01*
X200000000Y-142500000D02*
X200000000Y-17500000D01*
X155000000Y-142500000D02*
X155000000Y-17500000D01*
X110000000Y-142500000D02*
X110000000Y-17500000D01*
D12*
X77226667Y-82226191D02*
X77226667Y-82121429D01*
X77193333Y-82069048D01*
X77160000Y-82042858D01*
X77060000Y-81990477D01*
X76926667Y-81964286D01*
X76660000Y-81964286D01*
X76593333Y-81990477D01*
X76560000Y-82016667D01*
X76526667Y-82069048D01*
X76526667Y-82173810D01*
X76560000Y-82226191D01*
X76593333Y-82252382D01*
X76660000Y-82278572D01*
X76826667Y-82278572D01*
X76893333Y-82252382D01*
X76926667Y-82226191D01*
X76960000Y-82173810D01*
X76960000Y-82069048D01*
X76926667Y-82016667D01*
X76893333Y-81990477D01*
X76826667Y-81964286D01*
X76593333Y-81754762D02*
X76560000Y-81728572D01*
X76526667Y-81676191D01*
X76526667Y-81545238D01*
X76560000Y-81492857D01*
X76593333Y-81466667D01*
X76660000Y-81440476D01*
X76726667Y-81440476D01*
X76826667Y-81466667D01*
X77226667Y-81780953D01*
X77226667Y-81440476D01*
X77160000Y-81204762D02*
X77193333Y-81178571D01*
X77226667Y-81204762D01*
X77193333Y-81230952D01*
X77160000Y-81204762D01*
X77226667Y-81204762D01*
X76526667Y-80838095D02*
X76526667Y-80785714D01*
X76560000Y-80733333D01*
X76593333Y-80707142D01*
X76660000Y-80680952D01*
X76793333Y-80654761D01*
X76960000Y-80654761D01*
X77093333Y-80680952D01*
X77160000Y-80707142D01*
X77193333Y-80733333D01*
X77226667Y-80785714D01*
X77226667Y-80838095D01*
X77193333Y-80890476D01*
X77160000Y-80916666D01*
X77093333Y-80942857D01*
X76960000Y-80969047D01*
X76793333Y-80969047D01*
X76660000Y-80942857D01*
X76593333Y-80916666D01*
X76560000Y-80890476D01*
X76526667Y-80838095D01*
X76526667Y-80314285D02*
X76526667Y-80261904D01*
X76560000Y-80209523D01*
X76593333Y-80183332D01*
X76660000Y-80157142D01*
X76793333Y-80130951D01*
X76960000Y-80130951D01*
X77093333Y-80157142D01*
X77160000Y-80183332D01*
X77193333Y-80209523D01*
X77226667Y-80261904D01*
X77226667Y-80314285D01*
X77193333Y-80366666D01*
X77160000Y-80392856D01*
X77093333Y-80419047D01*
X76960000Y-80445237D01*
X76793333Y-80445237D01*
X76660000Y-80419047D01*
X76593333Y-80392856D01*
X76560000Y-80366666D01*
X76526667Y-80314285D01*
X76526667Y-79790475D02*
X76526667Y-79738094D01*
X76560000Y-79685713D01*
X76593333Y-79659522D01*
X76660000Y-79633332D01*
X76793333Y-79607141D01*
X76960000Y-79607141D01*
X77093333Y-79633332D01*
X77160000Y-79659522D01*
X77193333Y-79685713D01*
X77226667Y-79738094D01*
X77226667Y-79790475D01*
X77193333Y-79842856D01*
X77160000Y-79869046D01*
X77093333Y-79895237D01*
X76960000Y-79921427D01*
X76793333Y-79921427D01*
X76660000Y-79895237D01*
X76593333Y-79869046D01*
X76560000Y-79842856D01*
X76526667Y-79790475D01*
X77226667Y-78952379D02*
X76760000Y-78952379D01*
X76826667Y-78952379D02*
X76793333Y-78926188D01*
X76760000Y-78873807D01*
X76760000Y-78795236D01*
X76793333Y-78742855D01*
X76860000Y-78716664D01*
X77226667Y-78716664D01*
X76860000Y-78716664D02*
X76793333Y-78690474D01*
X76760000Y-78638093D01*
X76760000Y-78559521D01*
X76793333Y-78507141D01*
X76860000Y-78480950D01*
X77226667Y-78480950D01*
X77226667Y-78219046D02*
X76760000Y-78219046D01*
X76826667Y-78219046D02*
X76793333Y-78192855D01*
X76760000Y-78140474D01*
X76760000Y-78061903D01*
X76793333Y-78009522D01*
X76860000Y-77983331D01*
X77226667Y-77983331D01*
X76860000Y-77983331D02*
X76793333Y-77957141D01*
X76760000Y-77904760D01*
X76760000Y-77826188D01*
X76793333Y-77773808D01*
X76860000Y-77747617D01*
X77226667Y-77747617D01*
X77500000Y-126000000D02*
X77500000Y-34000000D01*
X90000000Y-126000000D02*
X76320000Y-126000000D01*
X90000000Y-34000000D02*
X76320000Y-34000000D01*
X77500000Y-34000000D02*
X78086421Y-35126504D01*
X77500000Y-34000000D02*
X76913579Y-35126504D01*
X77500000Y-126000000D02*
X78086421Y-124873496D01*
X77500000Y-126000000D02*
X76913579Y-124873496D01*
X79726667Y-82226191D02*
X79726667Y-82121429D01*
X79693333Y-82069048D01*
X79660000Y-82042858D01*
X79560000Y-81990477D01*
X79426667Y-81964286D01*
X79160000Y-81964286D01*
X79093333Y-81990477D01*
X79060000Y-82016667D01*
X79026667Y-82069048D01*
X79026667Y-82173810D01*
X79060000Y-82226191D01*
X79093333Y-82252382D01*
X79160000Y-82278572D01*
X79326667Y-82278572D01*
X79393333Y-82252382D01*
X79426667Y-82226191D01*
X79460000Y-82173810D01*
X79460000Y-82069048D01*
X79426667Y-82016667D01*
X79393333Y-81990477D01*
X79326667Y-81964286D01*
X79026667Y-81623810D02*
X79026667Y-81571429D01*
X79060000Y-81519048D01*
X79093333Y-81492857D01*
X79160000Y-81466667D01*
X79293333Y-81440476D01*
X79460000Y-81440476D01*
X79593333Y-81466667D01*
X79660000Y-81492857D01*
X79693333Y-81519048D01*
X79726667Y-81571429D01*
X79726667Y-81623810D01*
X79693333Y-81676191D01*
X79660000Y-81702381D01*
X79593333Y-81728572D01*
X79460000Y-81754762D01*
X79293333Y-81754762D01*
X79160000Y-81728572D01*
X79093333Y-81702381D01*
X79060000Y-81676191D01*
X79026667Y-81623810D01*
X79660000Y-81204762D02*
X79693333Y-81178571D01*
X79726667Y-81204762D01*
X79693333Y-81230952D01*
X79660000Y-81204762D01*
X79726667Y-81204762D01*
X79026667Y-80838095D02*
X79026667Y-80785714D01*
X79060000Y-80733333D01*
X79093333Y-80707142D01*
X79160000Y-80680952D01*
X79293333Y-80654761D01*
X79460000Y-80654761D01*
X79593333Y-80680952D01*
X79660000Y-80707142D01*
X79693333Y-80733333D01*
X79726667Y-80785714D01*
X79726667Y-80838095D01*
X79693333Y-80890476D01*
X79660000Y-80916666D01*
X79593333Y-80942857D01*
X79460000Y-80969047D01*
X79293333Y-80969047D01*
X79160000Y-80942857D01*
X79093333Y-80916666D01*
X79060000Y-80890476D01*
X79026667Y-80838095D01*
X79026667Y-80314285D02*
X79026667Y-80261904D01*
X79060000Y-80209523D01*
X79093333Y-80183332D01*
X79160000Y-80157142D01*
X79293333Y-80130951D01*
X79460000Y-80130951D01*
X79593333Y-80157142D01*
X79660000Y-80183332D01*
X79693333Y-80209523D01*
X79726667Y-80261904D01*
X79726667Y-80314285D01*
X79693333Y-80366666D01*
X79660000Y-80392856D01*
X79593333Y-80419047D01*
X79460000Y-80445237D01*
X79293333Y-80445237D01*
X79160000Y-80419047D01*
X79093333Y-80392856D01*
X79060000Y-80366666D01*
X79026667Y-80314285D01*
X79026667Y-79790475D02*
X79026667Y-79738094D01*
X79060000Y-79685713D01*
X79093333Y-79659522D01*
X79160000Y-79633332D01*
X79293333Y-79607141D01*
X79460000Y-79607141D01*
X79593333Y-79633332D01*
X79660000Y-79659522D01*
X79693333Y-79685713D01*
X79726667Y-79738094D01*
X79726667Y-79790475D01*
X79693333Y-79842856D01*
X79660000Y-79869046D01*
X79593333Y-79895237D01*
X79460000Y-79921427D01*
X79293333Y-79921427D01*
X79160000Y-79895237D01*
X79093333Y-79869046D01*
X79060000Y-79842856D01*
X79026667Y-79790475D01*
X79726667Y-78952379D02*
X79260000Y-78952379D01*
X79326667Y-78952379D02*
X79293333Y-78926188D01*
X79260000Y-78873807D01*
X79260000Y-78795236D01*
X79293333Y-78742855D01*
X79360000Y-78716664D01*
X79726667Y-78716664D01*
X79360000Y-78716664D02*
X79293333Y-78690474D01*
X79260000Y-78638093D01*
X79260000Y-78559521D01*
X79293333Y-78507141D01*
X79360000Y-78480950D01*
X79726667Y-78480950D01*
X79726667Y-78219046D02*
X79260000Y-78219046D01*
X79326667Y-78219046D02*
X79293333Y-78192855D01*
X79260000Y-78140474D01*
X79260000Y-78061903D01*
X79293333Y-78009522D01*
X79360000Y-77983331D01*
X79726667Y-77983331D01*
X79360000Y-77983331D02*
X79293333Y-77957141D01*
X79260000Y-77904760D01*
X79260000Y-77826188D01*
X79293333Y-77773808D01*
X79360000Y-77747617D01*
X79726667Y-77747617D01*
X80000000Y-125000000D02*
X80000000Y-35000000D01*
X90000000Y-125000000D02*
X78820000Y-125000000D01*
X90000000Y-35000000D02*
X78820000Y-35000000D01*
X80000000Y-35000000D02*
X80586421Y-36126504D01*
X80000000Y-35000000D02*
X79413579Y-36126504D01*
X80000000Y-125000000D02*
X80586421Y-123873496D01*
X80000000Y-125000000D02*
X79413579Y-123873496D01*
D10*
X92500000Y-80000000D02*
X217500000Y-80000000D01*
D12*
X74726667Y-82226191D02*
X74726667Y-82540477D01*
X74726667Y-82383334D02*
X74026667Y-82383334D01*
X74126667Y-82435715D01*
X74193333Y-82488096D01*
X74226667Y-82540477D01*
X74726667Y-81702381D02*
X74726667Y-82016667D01*
X74726667Y-81859524D02*
X74026667Y-81859524D01*
X74126667Y-81911905D01*
X74193333Y-81964286D01*
X74226667Y-82016667D01*
X74326667Y-81388095D02*
X74293333Y-81440476D01*
X74260000Y-81466667D01*
X74193333Y-81492857D01*
X74160000Y-81492857D01*
X74093333Y-81466667D01*
X74060000Y-81440476D01*
X74026667Y-81388095D01*
X74026667Y-81283333D01*
X74060000Y-81230952D01*
X74093333Y-81204762D01*
X74160000Y-81178571D01*
X74193333Y-81178571D01*
X74260000Y-81204762D01*
X74293333Y-81230952D01*
X74326667Y-81283333D01*
X74326667Y-81388095D01*
X74360000Y-81440476D01*
X74393333Y-81466667D01*
X74460000Y-81492857D01*
X74593333Y-81492857D01*
X74660000Y-81466667D01*
X74693333Y-81440476D01*
X74726667Y-81388095D01*
X74726667Y-81283333D01*
X74693333Y-81230952D01*
X74660000Y-81204762D01*
X74593333Y-81178571D01*
X74460000Y-81178571D01*
X74393333Y-81204762D01*
X74360000Y-81230952D01*
X74326667Y-81283333D01*
X74660000Y-80942857D02*
X74693333Y-80916666D01*
X74726667Y-80942857D01*
X74693333Y-80969047D01*
X74660000Y-80942857D01*
X74726667Y-80942857D01*
X74026667Y-80576190D02*
X74026667Y-80523809D01*
X74060000Y-80471428D01*
X74093333Y-80445237D01*
X74160000Y-80419047D01*
X74293333Y-80392856D01*
X74460000Y-80392856D01*
X74593333Y-80419047D01*
X74660000Y-80445237D01*
X74693333Y-80471428D01*
X74726667Y-80523809D01*
X74726667Y-80576190D01*
X74693333Y-80628571D01*
X74660000Y-80654761D01*
X74593333Y-80680952D01*
X74460000Y-80707142D01*
X74293333Y-80707142D01*
X74160000Y-80680952D01*
X74093333Y-80654761D01*
X74060000Y-80628571D01*
X74026667Y-80576190D01*
X74026667Y-80052380D02*
X74026667Y-79999999D01*
X74060000Y-79947618D01*
X74093333Y-79921427D01*
X74160000Y-79895237D01*
X74293333Y-79869046D01*
X74460000Y-79869046D01*
X74593333Y-79895237D01*
X74660000Y-79921427D01*
X74693333Y-79947618D01*
X74726667Y-79999999D01*
X74726667Y-80052380D01*
X74693333Y-80104761D01*
X74660000Y-80130951D01*
X74593333Y-80157142D01*
X74460000Y-80183332D01*
X74293333Y-80183332D01*
X74160000Y-80157142D01*
X74093333Y-80130951D01*
X74060000Y-80104761D01*
X74026667Y-80052380D01*
X74026667Y-79528570D02*
X74026667Y-79476189D01*
X74060000Y-79423808D01*
X74093333Y-79397617D01*
X74160000Y-79371427D01*
X74293333Y-79345236D01*
X74460000Y-79345236D01*
X74593333Y-79371427D01*
X74660000Y-79397617D01*
X74693333Y-79423808D01*
X74726667Y-79476189D01*
X74726667Y-79528570D01*
X74693333Y-79580951D01*
X74660000Y-79607141D01*
X74593333Y-79633332D01*
X74460000Y-79659522D01*
X74293333Y-79659522D01*
X74160000Y-79633332D01*
X74093333Y-79607141D01*
X74060000Y-79580951D01*
X74026667Y-79528570D01*
X74726667Y-78690474D02*
X74260000Y-78690474D01*
X74326667Y-78690474D02*
X74293333Y-78664283D01*
X74260000Y-78611902D01*
X74260000Y-78533331D01*
X74293333Y-78480950D01*
X74360000Y-78454759D01*
X74726667Y-78454759D01*
X74360000Y-78454759D02*
X74293333Y-78428569D01*
X74260000Y-78376188D01*
X74260000Y-78297616D01*
X74293333Y-78245236D01*
X74360000Y-78219045D01*
X74726667Y-78219045D01*
X74726667Y-77957141D02*
X74260000Y-77957141D01*
X74326667Y-77957141D02*
X74293333Y-77930950D01*
X74260000Y-77878569D01*
X74260000Y-77799998D01*
X74293333Y-77747617D01*
X74360000Y-77721426D01*
X74726667Y-77721426D01*
X74360000Y-77721426D02*
X74293333Y-77695236D01*
X74260000Y-77642855D01*
X74260000Y-77564283D01*
X74293333Y-77511903D01*
X74360000Y-77485712D01*
X74726667Y-77485712D01*
X75000000Y-139000000D02*
X75000000Y-21000000D01*
X90000000Y-139000000D02*
X73820000Y-139000000D01*
X90000000Y-21000000D02*
X73820000Y-21000000D01*
X75000000Y-21000000D02*
X75586421Y-22126504D01*
X75000000Y-21000000D02*
X74413579Y-22126504D01*
X75000000Y-139000000D02*
X75586421Y-137873496D01*
X75000000Y-139000000D02*
X74413579Y-137873496D01*
X152773809Y-153406667D02*
X152878571Y-153406667D01*
X152930952Y-153373333D01*
X152957142Y-153340000D01*
X153009523Y-153240000D01*
X153035714Y-153106667D01*
X153035714Y-152840000D01*
X153009523Y-152773333D01*
X152983333Y-152740000D01*
X152930952Y-152706667D01*
X152826190Y-152706667D01*
X152773809Y-152740000D01*
X152747618Y-152773333D01*
X152721428Y-152840000D01*
X152721428Y-153006667D01*
X152747618Y-153073333D01*
X152773809Y-153106667D01*
X152826190Y-153140000D01*
X152930952Y-153140000D01*
X152983333Y-153106667D01*
X153009523Y-153073333D01*
X153035714Y-153006667D01*
X153376190Y-152706667D02*
X153428571Y-152706667D01*
X153480952Y-152740000D01*
X153507143Y-152773333D01*
X153533333Y-152840000D01*
X153559524Y-152973333D01*
X153559524Y-153140000D01*
X153533333Y-153273333D01*
X153507143Y-153340000D01*
X153480952Y-153373333D01*
X153428571Y-153406667D01*
X153376190Y-153406667D01*
X153323809Y-153373333D01*
X153297619Y-153340000D01*
X153271428Y-153273333D01*
X153245238Y-153140000D01*
X153245238Y-152973333D01*
X153271428Y-152840000D01*
X153297619Y-152773333D01*
X153323809Y-152740000D01*
X153376190Y-152706667D01*
X153795238Y-153340000D02*
X153821429Y-153373333D01*
X153795238Y-153406667D01*
X153769048Y-153373333D01*
X153795238Y-153340000D01*
X153795238Y-153406667D01*
X154161905Y-152706667D02*
X154214286Y-152706667D01*
X154266667Y-152740000D01*
X154292858Y-152773333D01*
X154319048Y-152840000D01*
X154345239Y-152973333D01*
X154345239Y-153140000D01*
X154319048Y-153273333D01*
X154292858Y-153340000D01*
X154266667Y-153373333D01*
X154214286Y-153406667D01*
X154161905Y-153406667D01*
X154109524Y-153373333D01*
X154083334Y-153340000D01*
X154057143Y-153273333D01*
X154030953Y-153140000D01*
X154030953Y-152973333D01*
X154057143Y-152840000D01*
X154083334Y-152773333D01*
X154109524Y-152740000D01*
X154161905Y-152706667D01*
X154685715Y-152706667D02*
X154738096Y-152706667D01*
X154790477Y-152740000D01*
X154816668Y-152773333D01*
X154842858Y-152840000D01*
X154869049Y-152973333D01*
X154869049Y-153140000D01*
X154842858Y-153273333D01*
X154816668Y-153340000D01*
X154790477Y-153373333D01*
X154738096Y-153406667D01*
X154685715Y-153406667D01*
X154633334Y-153373333D01*
X154607144Y-153340000D01*
X154580953Y-153273333D01*
X154554763Y-153140000D01*
X154554763Y-152973333D01*
X154580953Y-152840000D01*
X154607144Y-152773333D01*
X154633334Y-152740000D01*
X154685715Y-152706667D01*
X155209525Y-152706667D02*
X155261906Y-152706667D01*
X155314287Y-152740000D01*
X155340478Y-152773333D01*
X155366668Y-152840000D01*
X155392859Y-152973333D01*
X155392859Y-153140000D01*
X155366668Y-153273333D01*
X155340478Y-153340000D01*
X155314287Y-153373333D01*
X155261906Y-153406667D01*
X155209525Y-153406667D01*
X155157144Y-153373333D01*
X155130954Y-153340000D01*
X155104763Y-153273333D01*
X155078573Y-153140000D01*
X155078573Y-152973333D01*
X155104763Y-152840000D01*
X155130954Y-152773333D01*
X155157144Y-152740000D01*
X155209525Y-152706667D01*
X156047621Y-153406667D02*
X156047621Y-152940000D01*
X156047621Y-153006667D02*
X156073812Y-152973333D01*
X156126193Y-152940000D01*
X156204764Y-152940000D01*
X156257145Y-152973333D01*
X156283336Y-153040000D01*
X156283336Y-153406667D01*
X156283336Y-153040000D02*
X156309526Y-152973333D01*
X156361907Y-152940000D01*
X156440479Y-152940000D01*
X156492859Y-152973333D01*
X156519050Y-153040000D01*
X156519050Y-153406667D01*
X156780954Y-153406667D02*
X156780954Y-152940000D01*
X156780954Y-153006667D02*
X156807145Y-152973333D01*
X156859526Y-152940000D01*
X156938097Y-152940000D01*
X156990478Y-152973333D01*
X157016669Y-153040000D01*
X157016669Y-153406667D01*
X157016669Y-153040000D02*
X157042859Y-152973333D01*
X157095240Y-152940000D01*
X157173812Y-152940000D01*
X157226192Y-152973333D01*
X157252383Y-153040000D01*
X157252383Y-153406667D01*
X200000000Y-152500000D02*
X110000000Y-152500000D01*
X200000000Y-145000000D02*
X200000000Y-153680000D01*
X110000000Y-145000000D02*
X110000000Y-153680000D01*
X110000000Y-152500000D02*
X111126504Y-151913579D01*
X110000000Y-152500000D02*
X111126504Y-153086421D01*
X200000000Y-152500000D02*
X198873496Y-151913579D01*
X200000000Y-152500000D02*
X198873496Y-153086421D01*
X152773809Y-158406667D02*
X152459523Y-158406667D01*
X152616666Y-158406667D02*
X152616666Y-157706667D01*
X152564285Y-157806667D01*
X152511904Y-157873333D01*
X152459523Y-157906667D01*
X153297619Y-158406667D02*
X152983333Y-158406667D01*
X153140476Y-158406667D02*
X153140476Y-157706667D01*
X153088095Y-157806667D01*
X153035714Y-157873333D01*
X152983333Y-157906667D01*
X153611905Y-158006667D02*
X153559524Y-157973333D01*
X153533333Y-157940000D01*
X153507143Y-157873333D01*
X153507143Y-157840000D01*
X153533333Y-157773333D01*
X153559524Y-157740000D01*
X153611905Y-157706667D01*
X153716667Y-157706667D01*
X153769048Y-157740000D01*
X153795238Y-157773333D01*
X153821429Y-157840000D01*
X153821429Y-157873333D01*
X153795238Y-157940000D01*
X153769048Y-157973333D01*
X153716667Y-158006667D01*
X153611905Y-158006667D01*
X153559524Y-158040000D01*
X153533333Y-158073333D01*
X153507143Y-158140000D01*
X153507143Y-158273333D01*
X153533333Y-158340000D01*
X153559524Y-158373333D01*
X153611905Y-158406667D01*
X153716667Y-158406667D01*
X153769048Y-158373333D01*
X153795238Y-158340000D01*
X153821429Y-158273333D01*
X153821429Y-158140000D01*
X153795238Y-158073333D01*
X153769048Y-158040000D01*
X153716667Y-158006667D01*
X154057143Y-158340000D02*
X154083334Y-158373333D01*
X154057143Y-158406667D01*
X154030953Y-158373333D01*
X154057143Y-158340000D01*
X154057143Y-158406667D01*
X154423810Y-157706667D02*
X154476191Y-157706667D01*
X154528572Y-157740000D01*
X154554763Y-157773333D01*
X154580953Y-157840000D01*
X154607144Y-157973333D01*
X154607144Y-158140000D01*
X154580953Y-158273333D01*
X154554763Y-158340000D01*
X154528572Y-158373333D01*
X154476191Y-158406667D01*
X154423810Y-158406667D01*
X154371429Y-158373333D01*
X154345239Y-158340000D01*
X154319048Y-158273333D01*
X154292858Y-158140000D01*
X154292858Y-157973333D01*
X154319048Y-157840000D01*
X154345239Y-157773333D01*
X154371429Y-157740000D01*
X154423810Y-157706667D01*
X154947620Y-157706667D02*
X155000001Y-157706667D01*
X155052382Y-157740000D01*
X155078573Y-157773333D01*
X155104763Y-157840000D01*
X155130954Y-157973333D01*
X155130954Y-158140000D01*
X155104763Y-158273333D01*
X155078573Y-158340000D01*
X155052382Y-158373333D01*
X155000001Y-158406667D01*
X154947620Y-158406667D01*
X154895239Y-158373333D01*
X154869049Y-158340000D01*
X154842858Y-158273333D01*
X154816668Y-158140000D01*
X154816668Y-157973333D01*
X154842858Y-157840000D01*
X154869049Y-157773333D01*
X154895239Y-157740000D01*
X154947620Y-157706667D01*
X155471430Y-157706667D02*
X155523811Y-157706667D01*
X155576192Y-157740000D01*
X155602383Y-157773333D01*
X155628573Y-157840000D01*
X155654764Y-157973333D01*
X155654764Y-158140000D01*
X155628573Y-158273333D01*
X155602383Y-158340000D01*
X155576192Y-158373333D01*
X155523811Y-158406667D01*
X155471430Y-158406667D01*
X155419049Y-158373333D01*
X155392859Y-158340000D01*
X155366668Y-158273333D01*
X155340478Y-158140000D01*
X155340478Y-157973333D01*
X155366668Y-157840000D01*
X155392859Y-157773333D01*
X155419049Y-157740000D01*
X155471430Y-157706667D01*
X156309526Y-158406667D02*
X156309526Y-157940000D01*
X156309526Y-158006667D02*
X156335717Y-157973333D01*
X156388098Y-157940000D01*
X156466669Y-157940000D01*
X156519050Y-157973333D01*
X156545241Y-158040000D01*
X156545241Y-158406667D01*
X156545241Y-158040000D02*
X156571431Y-157973333D01*
X156623812Y-157940000D01*
X156702384Y-157940000D01*
X156754764Y-157973333D01*
X156780955Y-158040000D01*
X156780955Y-158406667D01*
X157042859Y-158406667D02*
X157042859Y-157940000D01*
X157042859Y-158006667D02*
X157069050Y-157973333D01*
X157121431Y-157940000D01*
X157200002Y-157940000D01*
X157252383Y-157973333D01*
X157278574Y-158040000D01*
X157278574Y-158406667D01*
X157278574Y-158040000D02*
X157304764Y-157973333D01*
X157357145Y-157940000D01*
X157435717Y-157940000D01*
X157488097Y-157973333D01*
X157514288Y-158040000D01*
X157514288Y-158406667D01*
X214000000Y-157500000D02*
X96000000Y-157500000D01*
X214000000Y-145000000D02*
X214000000Y-158680000D01*
X96000000Y-145000000D02*
X96000000Y-158680000D01*
X96000000Y-157500000D02*
X97126504Y-156913579D01*
X96000000Y-157500000D02*
X97126504Y-158086421D01*
X214000000Y-157500000D02*
X212873496Y-156913579D01*
X214000000Y-157500000D02*
X212873496Y-158086421D01*
D13*
X156100000Y-21100000D02*
X200900000Y-21100000D01*
X200900000Y-21100000D02*
X200900000Y-41000000D01*
X200900000Y-41000000D02*
X156100000Y-41000000D01*
X156100000Y-41000000D02*
X156100000Y-21100000D01*
X156100000Y-21100000D02*
X200900000Y-41000000D01*
X200900000Y-21100000D02*
X156100000Y-41000000D01*
D10*
X118500000Y-80000000D02*
X118500000Y-79500000D01*
X118500000Y-79500000D02*
X117500000Y-79500000D01*
X117500000Y-79500000D02*
X117500000Y-80500000D01*
X117500000Y-80500000D02*
X118500000Y-80500000D01*
X118500000Y-80500000D02*
X118500000Y-80000000D01*
X142500000Y-161750000D02*
X142500000Y-160250000D01*
X127500000Y-161750000D02*
X127500000Y-160250000D01*
X127500000Y-161750000D02*
G75*
G03X130500000Y-164750000I3000000J0D01*
G01*
X139500000Y-164750000D02*
X130500000Y-164750000D01*
X139500000Y-164750000D02*
G75*
G03X142500000Y-161750000I0J3000000D01*
G01*
X135000000Y-160250000D02*
X135000000Y-151250000D01*
X143250000Y-160250000D02*
X143250000Y-151250000D01*
X126750000Y-160250000D02*
X143250000Y-160250000D01*
X126750000Y-151250000D02*
X126750000Y-160250000D01*
X143250000Y-151250000D02*
X126750000Y-151250000D01*
X141000000Y-151250000D02*
X141000000Y-148250000D01*
X129000000Y-148250000D02*
X129000000Y-151250000D01*
X135000000Y-148250000D02*
X135000000Y-144000000D01*
X126750000Y-148250000D02*
X126750000Y-144000000D01*
X143250000Y-148250000D02*
X126750000Y-148250000D01*
X143250000Y-144000000D02*
X143250000Y-148250000D01*
X126750000Y-144000000D02*
X143250000Y-144000000D01*
X129000000Y-137000000D02*
X129000000Y-144000000D01*
X141000000Y-137000000D02*
X129000000Y-137000000D01*
X141000000Y-144000000D02*
X141000000Y-137000000D01*
X182500000Y-161750000D02*
X182500000Y-160250000D01*
X167500000Y-161750000D02*
X167500000Y-160250000D01*
X167500000Y-161750000D02*
G75*
G03X170500000Y-164750000I3000000J0D01*
G01*
X179500000Y-164750000D02*
X170500000Y-164750000D01*
X179500000Y-164750000D02*
G75*
G03X182500000Y-161750000I0J3000000D01*
G01*
X175000000Y-160250000D02*
X175000000Y-151250000D01*
X183250000Y-160250000D02*
X183250000Y-151250000D01*
X166750000Y-160250000D02*
X183250000Y-160250000D01*
X166750000Y-151250000D02*
X166750000Y-160250000D01*
X183250000Y-151250000D02*
X166750000Y-151250000D01*
X181000000Y-151250000D02*
X181000000Y-148250000D01*
X169000000Y-148250000D02*
X169000000Y-151250000D01*
X175000000Y-148250000D02*
X175000000Y-144000000D01*
X166750000Y-148250000D02*
X166750000Y-144000000D01*
X183250000Y-148250000D02*
X166750000Y-148250000D01*
X183250000Y-144000000D02*
X183250000Y-148250000D01*
X166750000Y-144000000D02*
X183250000Y-144000000D01*
X169000000Y-137000000D02*
X169000000Y-144000000D01*
X181000000Y-137000000D02*
X169000000Y-137000000D01*
X181000000Y-144000000D02*
X181000000Y-137000000D01*
D13*
X109800000Y-22050000D02*
X125000000Y-22050000D01*
X109800000Y-27250000D02*
X125000000Y-27250000D01*
X109800000Y-27250000D02*
X109800000Y-22050000D01*
X125000000Y-27250000D02*
X125000000Y-22050000D01*
X109800000Y-22050000D02*
X125000000Y-27250000D01*
X109800000Y-27250000D02*
X125000000Y-22050000D01*
D12*
X134882143Y-135150000D02*
X134829762Y-135116667D01*
X134751190Y-135116667D01*
X134672619Y-135150000D01*
X134620238Y-135216667D01*
X134594047Y-135283333D01*
X134567857Y-135416667D01*
X134567857Y-135516667D01*
X134594047Y-135650000D01*
X134620238Y-135716667D01*
X134672619Y-135783333D01*
X134751190Y-135816667D01*
X134803571Y-135816667D01*
X134882143Y-135783333D01*
X134908333Y-135750000D01*
X134908333Y-135516667D01*
X134803571Y-135516667D01*
X135432143Y-135816667D02*
X135117857Y-135816667D01*
X135275000Y-135816667D02*
X135275000Y-135116667D01*
X135222619Y-135216667D01*
X135170238Y-135283333D01*
X135117857Y-135316667D01*
X133742858Y-166316667D02*
X133742858Y-165616667D01*
X133926192Y-166116667D01*
X134109525Y-165616667D01*
X134109525Y-166316667D01*
X134476191Y-165616667D02*
X134580953Y-165616667D01*
X134633334Y-165650000D01*
X134685715Y-165716667D01*
X134711906Y-165850000D01*
X134711906Y-166083333D01*
X134685715Y-166216667D01*
X134633334Y-166283333D01*
X134580953Y-166316667D01*
X134476191Y-166316667D01*
X134423810Y-166283333D01*
X134371429Y-166216667D01*
X134345239Y-166083333D01*
X134345239Y-165850000D01*
X134371429Y-165716667D01*
X134423810Y-165650000D01*
X134476191Y-165616667D01*
X134947619Y-165616667D02*
X134947619Y-166183333D01*
X134973810Y-166250000D01*
X135000000Y-166283333D01*
X135052381Y-166316667D01*
X135157143Y-166316667D01*
X135209524Y-166283333D01*
X135235715Y-166250000D01*
X135261905Y-166183333D01*
X135261905Y-165616667D01*
X135523809Y-166316667D02*
X135523809Y-165616667D01*
X135838095Y-166316667D01*
X135838095Y-165616667D01*
X136021428Y-165616667D02*
X136335714Y-165616667D01*
X136178571Y-166316667D02*
X136178571Y-165616667D01*
X174882143Y-135150000D02*
X174829762Y-135116667D01*
X174751190Y-135116667D01*
X174672619Y-135150000D01*
X174620238Y-135216667D01*
X174594047Y-135283333D01*
X174567857Y-135416667D01*
X174567857Y-135516667D01*
X174594047Y-135650000D01*
X174620238Y-135716667D01*
X174672619Y-135783333D01*
X174751190Y-135816667D01*
X174803571Y-135816667D01*
X174882143Y-135783333D01*
X174908333Y-135750000D01*
X174908333Y-135516667D01*
X174803571Y-135516667D01*
X175117857Y-135183333D02*
X175144047Y-135150000D01*
X175196428Y-135116667D01*
X175327381Y-135116667D01*
X175379762Y-135150000D01*
X175405952Y-135183333D01*
X175432143Y-135250000D01*
X175432143Y-135316667D01*
X175405952Y-135416667D01*
X175091666Y-135816667D01*
X175432143Y-135816667D01*
X173742858Y-166316667D02*
X173742858Y-165616667D01*
X173926192Y-166116667D01*
X174109525Y-165616667D01*
X174109525Y-166316667D01*
X174476191Y-165616667D02*
X174580953Y-165616667D01*
X174633334Y-165650000D01*
X174685715Y-165716667D01*
X174711906Y-165850000D01*
X174711906Y-166083333D01*
X174685715Y-166216667D01*
X174633334Y-166283333D01*
X174580953Y-166316667D01*
X174476191Y-166316667D01*
X174423810Y-166283333D01*
X174371429Y-166216667D01*
X174345239Y-166083333D01*
X174345239Y-165850000D01*
X174371429Y-165716667D01*
X174423810Y-165650000D01*
X174476191Y-165616667D01*
X174947619Y-165616667D02*
X174947619Y-166183333D01*
X174973810Y-166250000D01*
X175000000Y-166283333D01*
X175052381Y-166316667D01*
X175157143Y-166316667D01*
X175209524Y-166283333D01*
X175235715Y-166250000D01*
X175261905Y-166183333D01*
X175261905Y-165616667D01*
X175523809Y-166316667D02*
X175523809Y-165616667D01*
X175838095Y-166316667D01*
X175838095Y-165616667D01*
X176021428Y-165616667D02*
X176335714Y-165616667D01*
X176178571Y-166316667D02*
X176178571Y-165616667D01*
M02*
