G04 #@! TF.FileFunction,Copper,L4,Bot,Signal*
%FSLAX46Y46*%
G04 Gerber Fmt 4.6, Leading zero omitted, Abs format (unit mm)*
G04 Created by KiCad (PCBNEW 4.0.7-e2-6376~61~ubuntu18.04.1) date Tue Jul  3 09:25:50 2018*
%MOMM*%
%LPD*%
G01*
G04 APERTURE LIST*
%ADD10C,0.100000*%
%ADD11R,1.000000X1.000000*%
%ADD12C,2.500000*%
%ADD13R,1.700000X1.700000*%
%ADD14O,1.700000X1.700000*%
%ADD15R,1.800000X1.800000*%
%ADD16C,1.800000*%
%ADD17C,1.000000*%
%ADD18R,0.900000X0.500000*%
%ADD19C,3.600000*%
%ADD20O,1.800000X1.100000*%
%ADD21O,2.200000X1.100000*%
%ADD22C,0.600000*%
%ADD23C,0.250000*%
G04 APERTURE END LIST*
D10*
D11*
X157500000Y-42000000D03*
D12*
X168500000Y-106100000D03*
X181300000Y-106100000D03*
X170000000Y-80000000D03*
X200000000Y-80000000D03*
D13*
X148920000Y-115000000D03*
D14*
X151460000Y-115000000D03*
X154000000Y-115000000D03*
X156540000Y-115000000D03*
X159080000Y-115000000D03*
X161620000Y-115000000D03*
D15*
X130000000Y-78750000D03*
D16*
X130000000Y-81290000D03*
D17*
X168500000Y-112500000D03*
X168500000Y-124500000D03*
X145500000Y-70000000D03*
X148000000Y-70000000D03*
X143000000Y-70000000D03*
D18*
X110750000Y-27500000D03*
D19*
X192500000Y-136000000D03*
D17*
X125000000Y-63500000D03*
D19*
X117500000Y-136000000D03*
D20*
X152200000Y-131750000D03*
X157800000Y-131750000D03*
D21*
X155000000Y-133900000D03*
D22*
X98500000Y-42500000D03*
X101500000Y-42500000D03*
X102500000Y-46000000D03*
X102500000Y-48000000D03*
X116500000Y-30000000D03*
X112000000Y-37000000D03*
X147000000Y-65000000D03*
X149250000Y-56000000D03*
X149250000Y-53750000D03*
X149250000Y-50500000D03*
X149250000Y-48250000D03*
X155000000Y-60750000D03*
X152000000Y-60750000D03*
X167000000Y-49250000D03*
X159000000Y-49250000D03*
X161500000Y-108000000D03*
X127500000Y-70000000D03*
X156250000Y-130000000D03*
X137500000Y-129000000D03*
X137500000Y-118500000D03*
X161500000Y-120000000D03*
X156500000Y-120000000D03*
X154000000Y-120000000D03*
X149000000Y-120000000D03*
X121000000Y-83000000D03*
X117500000Y-84500000D03*
X141000000Y-40500000D03*
X140000000Y-40500000D03*
X133000000Y-40500000D03*
X132000000Y-40500000D03*
X123500000Y-40500000D03*
X108500000Y-40500000D03*
X109500000Y-62000000D03*
X108500000Y-62000000D03*
X122500000Y-62000000D03*
X141000000Y-62000000D03*
X140000000Y-62000000D03*
X132000000Y-62000000D03*
X133000000Y-62000000D03*
X100000000Y-53500000D03*
X99000000Y-70000000D03*
X99000000Y-75000000D03*
X198000000Y-117000000D03*
X182500000Y-120000000D03*
X177500000Y-120000000D03*
X123000000Y-92000000D03*
X102500000Y-91000000D03*
X107500000Y-91000000D03*
X123000000Y-117000000D03*
X102500000Y-116000000D03*
X107500000Y-116000000D03*
X141750000Y-65000000D03*
X140500000Y-77500000D03*
X150000000Y-82500000D03*
X137500000Y-123500000D03*
X100000000Y-59000000D03*
X139000000Y-65000000D03*
X117500000Y-70000000D03*
X127500000Y-72500000D03*
X121500000Y-62000000D03*
X99000000Y-65000000D03*
X171500000Y-124500000D03*
X99000000Y-99000000D03*
X99000000Y-124000000D03*
X140500000Y-67000000D03*
X121500000Y-40500000D03*
X114000000Y-72000000D03*
X118500000Y-73500000D03*
X114000000Y-68000000D03*
X135500000Y-67500000D03*
X120500000Y-40500000D03*
X169500000Y-118500000D03*
X113500000Y-40500000D03*
X99000000Y-91000000D03*
X112500000Y-40500000D03*
X118500000Y-40500000D03*
X177500000Y-112000000D03*
X117500000Y-40500000D03*
X175000000Y-112000000D03*
X111500000Y-40500000D03*
X105000000Y-82000000D03*
X110500000Y-40500000D03*
X102500000Y-82000000D03*
X105000000Y-107000000D03*
X118500000Y-62000000D03*
X102500000Y-107000000D03*
X117500000Y-62000000D03*
X111500000Y-62000000D03*
X144750000Y-85000000D03*
X99000000Y-116000000D03*
X119500000Y-62000000D03*
D23*
X143500000Y-80000000D02*
X146750000Y-83250000D01*
X146750000Y-93250000D02*
X161500000Y-108000000D01*
X127500000Y-70000000D02*
X131000000Y-70000000D01*
X131000000Y-70000000D02*
X141000000Y-80000000D01*
X146750000Y-83250000D02*
X146750000Y-93250000D01*
X141000000Y-80000000D02*
X143500000Y-80000000D01*
X156540000Y-115000000D02*
X156540000Y-110040000D01*
X156540000Y-110040000D02*
X134500000Y-88000000D01*
X130000000Y-88000000D02*
X114000000Y-72000000D01*
X134500000Y-88000000D02*
X130000000Y-88000000D01*
X121500000Y-40500000D02*
X137000000Y-56000000D01*
X140500000Y-64500000D02*
X140500000Y-67000000D01*
X137000000Y-56000000D02*
X137000000Y-61000000D01*
X137000000Y-61000000D02*
X140500000Y-64500000D01*
X118500000Y-73500000D02*
X131000000Y-86000000D01*
X131000000Y-86000000D02*
X135500000Y-86000000D01*
X135500000Y-86000000D02*
X161620000Y-112120000D01*
X161620000Y-112120000D02*
X161620000Y-115000000D01*
X159080000Y-115000000D02*
X159080000Y-111080000D01*
X159080000Y-111080000D02*
X135000000Y-87000000D01*
X135000000Y-87000000D02*
X130500000Y-87000000D01*
X130500000Y-87000000D02*
X114000000Y-70500000D01*
X114000000Y-70500000D02*
X114000000Y-68000000D01*
X136000000Y-56000000D02*
X136000000Y-67000000D01*
X136000000Y-67000000D02*
X135500000Y-67500000D01*
X120500000Y-40500000D02*
X136000000Y-56000000D01*
X127500000Y-65000000D02*
X127500000Y-63272821D01*
X146000000Y-76000000D02*
X138500000Y-76000000D01*
X127500000Y-65000000D02*
X138500000Y-76000000D01*
X146000000Y-76000000D02*
X172500000Y-102500000D01*
X172500000Y-115500000D02*
X172500000Y-102500000D01*
X169500000Y-118500000D02*
X172500000Y-115500000D01*
X127500000Y-63272821D02*
X113500000Y-49272821D01*
X113500000Y-49272821D02*
X113500000Y-40500000D01*
X99000000Y-91000000D02*
X106500000Y-83500000D01*
X106500000Y-81500000D02*
X103500000Y-78500000D01*
X106500000Y-83500000D02*
X106500000Y-81500000D01*
X110500000Y-42500000D02*
X112500000Y-40500000D01*
X103500000Y-78500000D02*
X103500000Y-57000000D01*
X103500000Y-57000000D02*
X110500000Y-50000000D01*
X110500000Y-50000000D02*
X110500000Y-42500000D01*
X129500000Y-51500000D02*
X129500000Y-64000000D01*
X139500000Y-74000000D02*
X147000000Y-74000000D01*
X129500000Y-64000000D02*
X139500000Y-74000000D01*
X118500000Y-40500000D02*
X129500000Y-51500000D01*
X177500000Y-104500000D02*
X177500000Y-112000000D01*
X147000000Y-74000000D02*
X177500000Y-104500000D01*
X128500000Y-51500000D02*
X128500000Y-64500000D01*
X139000000Y-75000000D02*
X146500000Y-75000000D01*
X128500000Y-64500000D02*
X139000000Y-75000000D01*
X117500000Y-40500000D02*
X128500000Y-51500000D01*
X146500000Y-75000000D02*
X175000000Y-103500000D01*
X175000000Y-103500000D02*
X175000000Y-112000000D01*
X105000000Y-82000000D02*
X102500000Y-79500000D01*
X102500000Y-79500000D02*
X102500000Y-57000000D01*
X102500000Y-57000000D02*
X109500000Y-50000000D01*
X109500000Y-50000000D02*
X109500000Y-42500000D01*
X109500000Y-42500000D02*
X111500000Y-40500000D01*
X110500000Y-40500000D02*
X108500000Y-42500000D01*
X108500000Y-42500000D02*
X108500000Y-50000000D01*
X101500000Y-57000000D02*
X101500000Y-81000000D01*
X108500000Y-50000000D02*
X101500000Y-57000000D01*
X101500000Y-81000000D02*
X102500000Y-82000000D01*
X118500000Y-62000000D02*
X118500000Y-57500000D01*
X118500000Y-57500000D02*
X116500000Y-55500000D01*
X116500000Y-55500000D02*
X107000000Y-55500000D01*
X107000000Y-55500000D02*
X105500000Y-57000000D01*
X105500000Y-68500000D02*
X114000000Y-77000000D01*
X105500000Y-57000000D02*
X105500000Y-68500000D01*
X103000000Y-109000000D02*
X105000000Y-107000000D01*
X114000000Y-77000000D02*
X114000000Y-89500000D01*
X100500000Y-103000000D02*
X100500000Y-108000000D01*
X114000000Y-89500000D02*
X100500000Y-103000000D01*
X100500000Y-108000000D02*
X101500000Y-109000000D01*
X101500000Y-109000000D02*
X103000000Y-109000000D01*
X117500000Y-62000000D02*
X117500000Y-57500000D01*
X117500000Y-57500000D02*
X116500000Y-56500000D01*
X116500000Y-56500000D02*
X107500000Y-56500000D01*
X106500000Y-68500000D02*
X114750000Y-76750000D01*
X107500000Y-56500000D02*
X106500000Y-57500000D01*
X106500000Y-57500000D02*
X106500000Y-68500000D01*
X114750000Y-76750000D02*
X114750000Y-89750000D01*
X114750000Y-89750000D02*
X102500000Y-102000000D01*
X102500000Y-102000000D02*
X102500000Y-107000000D01*
X111500000Y-62000000D02*
X125000000Y-75500000D01*
X125000000Y-75500000D02*
X135250000Y-75500000D01*
X135250000Y-75500000D02*
X144750000Y-85000000D01*
X111250000Y-75250000D02*
X113250000Y-77250000D01*
X104500000Y-68500000D02*
X111250000Y-75250000D01*
X119500000Y-62000000D02*
X119500000Y-57500000D01*
X99000000Y-103500000D02*
X99000000Y-116000000D01*
X119500000Y-57500000D02*
X116500000Y-54500000D01*
X116500000Y-54500000D02*
X107000000Y-54500000D01*
X107000000Y-54500000D02*
X104500000Y-57000000D01*
X104500000Y-57000000D02*
X104500000Y-68500000D01*
X113250000Y-77250000D02*
X113250000Y-89250000D01*
X113250000Y-89250000D02*
X99000000Y-103500000D01*
M02*
