G04 #@! TF.FileFunction,Soldermask,Top*
%FSLAX46Y46*%
G04 Gerber Fmt 4.6, Leading zero omitted, Abs format (unit mm)*
G04 Created by KiCad (PCBNEW 4.0.7-e2-6376~61~ubuntu18.04.1) date Tue Jul  3 09:25:50 2018*
%MOMM*%
%LPD*%
G01*
G04 APERTURE LIST*
%ADD10C,0.100000*%
%ADD11C,2.900000*%
%ADD12R,1.543000X1.200000*%
%ADD13R,1.200000X1.543000*%
%ADD14R,0.900000X0.775000*%
%ADD15R,1.050000X0.700000*%
%ADD16R,3.150000X1.400000*%
%ADD17R,2.100000X2.100000*%
%ADD18O,2.100000X2.100000*%
%ADD19R,1.400000X2.600000*%
%ADD20R,1.400000X1.400000*%
%ADD21C,3.600400*%
%ADD22R,1.314400X1.314400*%
%ADD23R,2.200000X2.200000*%
%ADD24C,2.200000*%
%ADD25R,1.000000X1.900000*%
%ADD26C,1.400000*%
%ADD27R,0.900000X2.400000*%
%ADD28R,2.250000X1.100000*%
%ADD29R,1.100000X2.250000*%
%ADD30R,0.850000X1.850000*%
%ADD31C,4.000000*%
%ADD32R,2.400000X4.200000*%
%ADD33R,2.400000X1.900000*%
%ADD34R,3.000000X1.900000*%
%ADD35R,0.850000X1.900000*%
%ADD36O,2.200000X1.500000*%
%ADD37O,2.600000X1.500000*%
G04 APERTURE END LIST*
D10*
D11*
X168500000Y-106100000D03*
X181300000Y-106100000D03*
D12*
X121000000Y-79150000D03*
X121000000Y-80900000D03*
D13*
X113000000Y-30000000D03*
X114750000Y-30000000D03*
X110150000Y-35000000D03*
X111900000Y-35000000D03*
D12*
X100000000Y-57350000D03*
X100000000Y-55600000D03*
X137500000Y-125650000D03*
X137500000Y-127400000D03*
X137500000Y-121850000D03*
X137500000Y-120100000D03*
X150000000Y-79150000D03*
X150000000Y-80900000D03*
X159000000Y-46000000D03*
X159000000Y-47750000D03*
X167000000Y-46000000D03*
X167000000Y-47750000D03*
D13*
X110850000Y-70000000D03*
X109100000Y-70000000D03*
X142150000Y-122500000D03*
X143900000Y-122500000D03*
X142150000Y-127500000D03*
X143900000Y-127500000D03*
X142150000Y-125000000D03*
X143900000Y-125000000D03*
X125850000Y-72500000D03*
X124100000Y-72500000D03*
D14*
X180850000Y-120537500D03*
X180850000Y-119462500D03*
D15*
X179075000Y-120000000D03*
X180925000Y-120000000D03*
D14*
X179150000Y-119462500D03*
X179150000Y-120537500D03*
X105850000Y-91537500D03*
X105850000Y-90462500D03*
D15*
X104075000Y-91000000D03*
X105925000Y-91000000D03*
D14*
X104150000Y-90462500D03*
X104150000Y-91537500D03*
X152350000Y-120537500D03*
X152350000Y-119462500D03*
D15*
X150575000Y-120000000D03*
X152425000Y-120000000D03*
D14*
X150650000Y-119462500D03*
X150650000Y-120537500D03*
X159850000Y-120537500D03*
X159850000Y-119462500D03*
D15*
X158075000Y-120000000D03*
X159925000Y-120000000D03*
D14*
X158150000Y-119462500D03*
X158150000Y-120537500D03*
X105850000Y-116537500D03*
X105850000Y-115462500D03*
D15*
X104075000Y-116000000D03*
X105925000Y-116000000D03*
D14*
X104150000Y-115462500D03*
X104150000Y-116537500D03*
D16*
X190375000Y-115000000D03*
X194625000Y-115000000D03*
X190375000Y-117000000D03*
X194625000Y-117000000D03*
X115375000Y-90000000D03*
X119625000Y-90000000D03*
X115375000Y-92000000D03*
X119625000Y-92000000D03*
D17*
X148920000Y-115000000D03*
D18*
X151460000Y-115000000D03*
X154000000Y-115000000D03*
X156540000Y-115000000D03*
X159080000Y-115000000D03*
X161620000Y-115000000D03*
D19*
X101500000Y-40000000D03*
X98500000Y-40000000D03*
D20*
X100000000Y-41500000D03*
D19*
X152000000Y-62750000D03*
X155000000Y-62750000D03*
D20*
X153500000Y-61250000D03*
D16*
X115375000Y-115000000D03*
X119625000Y-115000000D03*
X115375000Y-117000000D03*
X119625000Y-117000000D03*
D13*
X185850000Y-116000000D03*
X184100000Y-116000000D03*
X185850000Y-113500000D03*
X184100000Y-113500000D03*
X185850000Y-118500000D03*
X184100000Y-118500000D03*
X110850000Y-91000000D03*
X109100000Y-91000000D03*
X110850000Y-88500000D03*
X109100000Y-88500000D03*
X110850000Y-93500000D03*
X109100000Y-93500000D03*
X110150000Y-32500000D03*
X111900000Y-32500000D03*
X162250000Y-46000000D03*
X164000000Y-46000000D03*
X110850000Y-116000000D03*
X109100000Y-116000000D03*
X110850000Y-113500000D03*
X109100000Y-113500000D03*
X110850000Y-118500000D03*
X109100000Y-118500000D03*
X135250000Y-65000000D03*
X137000000Y-65000000D03*
D21*
X117500000Y-125000000D03*
X192500000Y-125000000D03*
X117500000Y-35000000D03*
D22*
X171484000Y-122889000D03*
X171484000Y-121111000D03*
X173516000Y-122000000D03*
X98984000Y-97389000D03*
X98984000Y-95611000D03*
X101016000Y-96500000D03*
D23*
X130000000Y-78750000D03*
D24*
X130000000Y-81290000D03*
D22*
X98984000Y-122278000D03*
X98984000Y-120500000D03*
X101016000Y-121389000D03*
D12*
X180000000Y-115850000D03*
X180000000Y-114100000D03*
X107500000Y-85850000D03*
X107500000Y-84100000D03*
X172500000Y-115850000D03*
X172500000Y-114100000D03*
X100000000Y-85850000D03*
X100000000Y-84100000D03*
X177500000Y-114150000D03*
X177500000Y-115900000D03*
X175000000Y-114150000D03*
X175000000Y-115900000D03*
X105000000Y-84150000D03*
X105000000Y-85900000D03*
X102500000Y-84150000D03*
X102500000Y-85900000D03*
D13*
X171650000Y-118500000D03*
X173400000Y-118500000D03*
X99150000Y-93000000D03*
X100900000Y-93000000D03*
X115850000Y-70000000D03*
X114100000Y-70000000D03*
X104150000Y-36250000D03*
X105900000Y-36250000D03*
X142150000Y-120000000D03*
X143900000Y-120000000D03*
D12*
X140500000Y-80850000D03*
X140500000Y-79100000D03*
X100000000Y-51350000D03*
X100000000Y-49600000D03*
X152500000Y-53100000D03*
X152500000Y-51350000D03*
X155000000Y-47650000D03*
X155000000Y-49400000D03*
D13*
X145350000Y-65000000D03*
X143600000Y-65000000D03*
X132350000Y-65000000D03*
X130600000Y-65000000D03*
X125850000Y-70000000D03*
X124100000Y-70000000D03*
X124150000Y-67500000D03*
X125900000Y-67500000D03*
D12*
X148000000Y-74350000D03*
X148000000Y-72600000D03*
X145500000Y-74350000D03*
X145500000Y-72600000D03*
X143000000Y-74350000D03*
X143000000Y-72600000D03*
D13*
X99150000Y-118000000D03*
X100900000Y-118000000D03*
D12*
X105000000Y-109150000D03*
X105000000Y-110900000D03*
X102500000Y-109150000D03*
X102500000Y-110900000D03*
X100000000Y-110850000D03*
X100000000Y-109100000D03*
X107500000Y-110850000D03*
X107500000Y-109100000D03*
D25*
X104000000Y-75000000D03*
X101000000Y-75000000D03*
X104000000Y-70000000D03*
X101000000Y-70000000D03*
X104000000Y-65000000D03*
X101000000Y-65000000D03*
D26*
X168500000Y-112500000D03*
X168500000Y-124500000D03*
X145500000Y-70000000D03*
X148000000Y-70000000D03*
X143000000Y-70000000D03*
D27*
X117500000Y-82000000D03*
X118500000Y-82000000D03*
X118500000Y-78000000D03*
X117500000Y-78000000D03*
X116500000Y-78000000D03*
X116500000Y-82000000D03*
D28*
X147075000Y-50437000D03*
X105255000Y-45905000D03*
D29*
X131820000Y-42725000D03*
X141060000Y-59525000D03*
D28*
X147075000Y-48437000D03*
D29*
X141060000Y-42725000D03*
X132820000Y-42725000D03*
X108370000Y-59575000D03*
X123370000Y-42725000D03*
X122370000Y-42725000D03*
X121370000Y-42725000D03*
X120370000Y-42725000D03*
X119370000Y-42725000D03*
X118370000Y-42725000D03*
X117370000Y-42725000D03*
X116370000Y-42725000D03*
X115370000Y-42725000D03*
X114370000Y-42725000D03*
X113370000Y-42725000D03*
X112370000Y-42725000D03*
X111370000Y-42725000D03*
X110370000Y-42725000D03*
X109370000Y-42725000D03*
X108370000Y-42725000D03*
X109370000Y-59575000D03*
X110370000Y-59575000D03*
X111370000Y-59575000D03*
X112370000Y-59575000D03*
X113370000Y-59575000D03*
X114370000Y-59575000D03*
X115370000Y-59575000D03*
X116370000Y-59575000D03*
X117370000Y-59575000D03*
X118370000Y-59575000D03*
X119370000Y-59575000D03*
X120370000Y-59575000D03*
X121370000Y-59575000D03*
X122370000Y-59575000D03*
X123370000Y-59575000D03*
X131820000Y-59575000D03*
X140060000Y-42725000D03*
D28*
X105255000Y-46905000D03*
X105255000Y-47905000D03*
D29*
X140060000Y-59525000D03*
X132820000Y-59575000D03*
D28*
X147075000Y-49437000D03*
X147075000Y-55934000D03*
X147075000Y-54934000D03*
X147075000Y-53934000D03*
D30*
X144453362Y-82258194D03*
X145103362Y-82258194D03*
X145753362Y-82258194D03*
X146403362Y-82258194D03*
X146403362Y-77858194D03*
X145753362Y-77858194D03*
X145103362Y-77858194D03*
X144453362Y-77858194D03*
D31*
X192500000Y-136000000D03*
D26*
X125000000Y-63500000D03*
D32*
X126350000Y-124000000D03*
D33*
X132650000Y-124000000D03*
X132650000Y-121700000D03*
X132650000Y-126300000D03*
D34*
X135750000Y-78500000D03*
X135750000Y-81500000D03*
D31*
X117500000Y-136000000D03*
D35*
X155000000Y-132000000D03*
X155650000Y-132000000D03*
X154350000Y-132000000D03*
X156300000Y-132000000D03*
X153700000Y-132000000D03*
D36*
X152200000Y-131750000D03*
X157800000Y-131750000D03*
D37*
X155000000Y-133900000D03*
M02*
