G04 #@! TF.FileFunction,Copper,L1,Top,Signal*
%FSLAX46Y46*%
G04 Gerber Fmt 4.6, Leading zero omitted, Abs format (unit mm)*
G04 Created by KiCad (PCBNEW 4.0.7-e2-6376~61~ubuntu18.04.1) date Tue Jul  3 09:25:50 2018*
%MOMM*%
%LPD*%
G01*
G04 APERTURE LIST*
%ADD10C,0.100000*%
%ADD11R,1.000000X1.000000*%
%ADD12R,0.500000X0.500000*%
%ADD13C,2.500000*%
%ADD14R,1.143000X0.800000*%
%ADD15R,0.800000X1.143000*%
%ADD16R,0.500000X0.375000*%
%ADD17R,0.650000X0.300000*%
%ADD18R,2.750000X1.000000*%
%ADD19R,1.700000X1.700000*%
%ADD20O,1.700000X1.700000*%
%ADD21R,1.000000X2.200000*%
%ADD22R,0.914400X0.914400*%
%ADD23R,1.800000X1.800000*%
%ADD24C,1.800000*%
%ADD25R,0.600000X1.500000*%
%ADD26C,1.000000*%
%ADD27R,0.500000X2.000000*%
%ADD28R,1.850000X0.700000*%
%ADD29R,0.700000X1.850000*%
%ADD30R,0.450000X1.450000*%
%ADD31R,0.900000X0.500000*%
%ADD32C,3.600000*%
%ADD33R,2.000000X3.800000*%
%ADD34R,2.000000X1.500000*%
%ADD35R,2.600000X1.500000*%
%ADD36R,0.450000X1.500000*%
%ADD37O,1.800000X1.100000*%
%ADD38O,2.200000X1.100000*%
%ADD39C,0.600000*%
%ADD40C,0.250000*%
%ADD41C,0.190000*%
G04 APERTURE END LIST*
D10*
G36*
X163000000Y-43000000D02*
X165000000Y-43000000D01*
X165000000Y-23000000D01*
X169000000Y-23000000D01*
X169000000Y-34000000D01*
X175000000Y-34000000D01*
X175000000Y-23000000D01*
X179000000Y-23000000D01*
X179000000Y-34000000D01*
X185000000Y-34000000D01*
X185000000Y-23000000D01*
X189000000Y-23000000D01*
X189000000Y-34000000D01*
X195000000Y-34000000D01*
X195000000Y-23000000D01*
X199000000Y-23000000D01*
X199000000Y-39000000D01*
X200000000Y-39000000D01*
X200000000Y-22000000D01*
X194000000Y-22000000D01*
X194000000Y-33000000D01*
X190000000Y-33000000D01*
X190000000Y-22000000D01*
X184000000Y-22000000D01*
X184000000Y-33000000D01*
X180000000Y-33000000D01*
X180000000Y-22000000D01*
X174000000Y-22000000D01*
X174000000Y-33000000D01*
X170000000Y-33000000D01*
X170000000Y-22000000D01*
X157000000Y-22000000D01*
X157000000Y-42500000D01*
X158000000Y-42500000D01*
X158000000Y-23000000D01*
X163000000Y-23000000D01*
X163000000Y-43000000D01*
X163000000Y-43000000D01*
G37*
G36*
X115300000Y-24990000D02*
X117300000Y-24990000D01*
X117300000Y-22350000D01*
X120000000Y-22350000D01*
X120000000Y-24990000D01*
X122000000Y-24990000D01*
X122000000Y-22350000D01*
X124700000Y-22350000D01*
X124700000Y-26790000D01*
X124200000Y-26790000D01*
X124200000Y-22850000D01*
X122500000Y-22850000D01*
X122500000Y-25490000D01*
X119500000Y-25490000D01*
X119500000Y-22850000D01*
X117800000Y-22850000D01*
X117800000Y-25490000D01*
X114800000Y-25490000D01*
X114800000Y-22850000D01*
X113100000Y-22850000D01*
X113100000Y-27750000D01*
X112600000Y-27750000D01*
X112600000Y-22850000D01*
X111200000Y-22850000D01*
X111200000Y-27750000D01*
X110300000Y-27750000D01*
X110300000Y-27506785D01*
X110602417Y-27506785D01*
X110612258Y-27554395D01*
X110636326Y-27596797D01*
X110674269Y-27629581D01*
X110682181Y-27633935D01*
X110724844Y-27646043D01*
X110773363Y-27645300D01*
X110818878Y-27632400D01*
X110837489Y-27621787D01*
X110871132Y-27586553D01*
X110891691Y-27541368D01*
X110898222Y-27491842D01*
X110889782Y-27443583D01*
X110872888Y-27411357D01*
X110837628Y-27378687D01*
X110792318Y-27358592D01*
X110742733Y-27352018D01*
X110694647Y-27359908D01*
X110661755Y-27376814D01*
X110626815Y-27413584D01*
X110607153Y-27458378D01*
X110602417Y-27506785D01*
X110300000Y-27506785D01*
X110300000Y-22350000D01*
X115300000Y-22350000D01*
X115300000Y-24990000D01*
X115300000Y-24990000D01*
G37*
D11*
X157500000Y-42000000D03*
D12*
X164000000Y-42000000D03*
D13*
X168500000Y-106100000D03*
X181300000Y-106100000D03*
X170000000Y-80000000D03*
X200000000Y-80000000D03*
D14*
X121000000Y-79150000D03*
X121000000Y-80900000D03*
D15*
X113000000Y-30000000D03*
X114750000Y-30000000D03*
X110150000Y-35000000D03*
X111900000Y-35000000D03*
D14*
X100000000Y-57350000D03*
X100000000Y-55600000D03*
X137500000Y-125650000D03*
X137500000Y-127400000D03*
X137500000Y-121850000D03*
X137500000Y-120100000D03*
X150000000Y-79150000D03*
X150000000Y-80900000D03*
X159000000Y-46000000D03*
X159000000Y-47750000D03*
X167000000Y-46000000D03*
X167000000Y-47750000D03*
D15*
X110850000Y-70000000D03*
X109100000Y-70000000D03*
X142150000Y-122500000D03*
X143900000Y-122500000D03*
X142150000Y-127500000D03*
X143900000Y-127500000D03*
X142150000Y-125000000D03*
X143900000Y-125000000D03*
X125850000Y-72500000D03*
X124100000Y-72500000D03*
D16*
X180850000Y-120537500D03*
X180850000Y-119462500D03*
D17*
X179075000Y-120000000D03*
X180925000Y-120000000D03*
D16*
X179150000Y-119462500D03*
X179150000Y-120537500D03*
X105850000Y-91537500D03*
X105850000Y-90462500D03*
D17*
X104075000Y-91000000D03*
X105925000Y-91000000D03*
D16*
X104150000Y-90462500D03*
X104150000Y-91537500D03*
X152350000Y-120537500D03*
X152350000Y-119462500D03*
D17*
X150575000Y-120000000D03*
X152425000Y-120000000D03*
D16*
X150650000Y-119462500D03*
X150650000Y-120537500D03*
X159850000Y-120537500D03*
X159850000Y-119462500D03*
D17*
X158075000Y-120000000D03*
X159925000Y-120000000D03*
D16*
X158150000Y-119462500D03*
X158150000Y-120537500D03*
X105850000Y-116537500D03*
X105850000Y-115462500D03*
D17*
X104075000Y-116000000D03*
X105925000Y-116000000D03*
D16*
X104150000Y-115462500D03*
X104150000Y-116537500D03*
D18*
X190375000Y-115000000D03*
X194625000Y-115000000D03*
X190375000Y-117000000D03*
X194625000Y-117000000D03*
X115375000Y-90000000D03*
X119625000Y-90000000D03*
X115375000Y-92000000D03*
X119625000Y-92000000D03*
D19*
X148920000Y-115000000D03*
D20*
X151460000Y-115000000D03*
X154000000Y-115000000D03*
X156540000Y-115000000D03*
X159080000Y-115000000D03*
X161620000Y-115000000D03*
D21*
X101500000Y-40000000D03*
X98500000Y-40000000D03*
D11*
X100000000Y-41500000D03*
D21*
X152000000Y-62750000D03*
X155000000Y-62750000D03*
D11*
X153500000Y-61250000D03*
D18*
X115375000Y-115000000D03*
X119625000Y-115000000D03*
X115375000Y-117000000D03*
X119625000Y-117000000D03*
D15*
X185850000Y-116000000D03*
X184100000Y-116000000D03*
X185850000Y-113500000D03*
X184100000Y-113500000D03*
X185850000Y-118500000D03*
X184100000Y-118500000D03*
X110850000Y-91000000D03*
X109100000Y-91000000D03*
X110850000Y-88500000D03*
X109100000Y-88500000D03*
X110850000Y-93500000D03*
X109100000Y-93500000D03*
X110150000Y-32500000D03*
X111900000Y-32500000D03*
X162250000Y-46000000D03*
X164000000Y-46000000D03*
X110850000Y-116000000D03*
X109100000Y-116000000D03*
X110850000Y-113500000D03*
X109100000Y-113500000D03*
X110850000Y-118500000D03*
X109100000Y-118500000D03*
X135250000Y-65000000D03*
X137000000Y-65000000D03*
D22*
X171484000Y-122889000D03*
X171484000Y-121111000D03*
X173516000Y-122000000D03*
X98984000Y-97389000D03*
X98984000Y-95611000D03*
X101016000Y-96500000D03*
D23*
X130000000Y-78750000D03*
D24*
X130000000Y-81290000D03*
D22*
X98984000Y-122278000D03*
X98984000Y-120500000D03*
X101016000Y-121389000D03*
D14*
X180000000Y-115850000D03*
X180000000Y-114100000D03*
X107500000Y-85850000D03*
X107500000Y-84100000D03*
X172500000Y-115850000D03*
X172500000Y-114100000D03*
X100000000Y-85850000D03*
X100000000Y-84100000D03*
X177500000Y-114150000D03*
X177500000Y-115900000D03*
X175000000Y-114150000D03*
X175000000Y-115900000D03*
X105000000Y-84150000D03*
X105000000Y-85900000D03*
X102500000Y-84150000D03*
X102500000Y-85900000D03*
D15*
X171650000Y-118500000D03*
X173400000Y-118500000D03*
X99150000Y-93000000D03*
X100900000Y-93000000D03*
X115850000Y-70000000D03*
X114100000Y-70000000D03*
X104150000Y-36250000D03*
X105900000Y-36250000D03*
X142150000Y-120000000D03*
X143900000Y-120000000D03*
D14*
X140500000Y-80850000D03*
X140500000Y-79100000D03*
X100000000Y-51350000D03*
X100000000Y-49600000D03*
X152500000Y-53100000D03*
X152500000Y-51350000D03*
X155000000Y-47650000D03*
X155000000Y-49400000D03*
D15*
X145350000Y-65000000D03*
X143600000Y-65000000D03*
X132350000Y-65000000D03*
X130600000Y-65000000D03*
X125850000Y-70000000D03*
X124100000Y-70000000D03*
X124150000Y-67500000D03*
X125900000Y-67500000D03*
D14*
X148000000Y-74350000D03*
X148000000Y-72600000D03*
X145500000Y-74350000D03*
X145500000Y-72600000D03*
X143000000Y-74350000D03*
X143000000Y-72600000D03*
D15*
X99150000Y-118000000D03*
X100900000Y-118000000D03*
D14*
X105000000Y-109150000D03*
X105000000Y-110900000D03*
X102500000Y-109150000D03*
X102500000Y-110900000D03*
X100000000Y-110850000D03*
X100000000Y-109100000D03*
X107500000Y-110850000D03*
X107500000Y-109100000D03*
D25*
X104000000Y-75000000D03*
X101000000Y-75000000D03*
X104000000Y-70000000D03*
X101000000Y-70000000D03*
X104000000Y-65000000D03*
X101000000Y-65000000D03*
D26*
X168500000Y-112500000D03*
X168500000Y-124500000D03*
X145500000Y-70000000D03*
X148000000Y-70000000D03*
X143000000Y-70000000D03*
D27*
X117500000Y-82000000D03*
X118500000Y-82000000D03*
X118500000Y-78000000D03*
X117500000Y-78000000D03*
X116500000Y-78000000D03*
X116500000Y-82000000D03*
D28*
X147075000Y-50437000D03*
X105255000Y-45905000D03*
D29*
X131820000Y-42725000D03*
X141060000Y-59525000D03*
D28*
X147075000Y-48437000D03*
D29*
X141060000Y-42725000D03*
X132820000Y-42725000D03*
X108370000Y-59575000D03*
X123370000Y-42725000D03*
X122370000Y-42725000D03*
X121370000Y-42725000D03*
X120370000Y-42725000D03*
X119370000Y-42725000D03*
X118370000Y-42725000D03*
X117370000Y-42725000D03*
X116370000Y-42725000D03*
X115370000Y-42725000D03*
X114370000Y-42725000D03*
X113370000Y-42725000D03*
X112370000Y-42725000D03*
X111370000Y-42725000D03*
X110370000Y-42725000D03*
X109370000Y-42725000D03*
X108370000Y-42725000D03*
X109370000Y-59575000D03*
X110370000Y-59575000D03*
X111370000Y-59575000D03*
X112370000Y-59575000D03*
X113370000Y-59575000D03*
X114370000Y-59575000D03*
X115370000Y-59575000D03*
X116370000Y-59575000D03*
X117370000Y-59575000D03*
X118370000Y-59575000D03*
X119370000Y-59575000D03*
X120370000Y-59575000D03*
X121370000Y-59575000D03*
X122370000Y-59575000D03*
X123370000Y-59575000D03*
X131820000Y-59575000D03*
X140060000Y-42725000D03*
D28*
X105255000Y-46905000D03*
X105255000Y-47905000D03*
D29*
X140060000Y-59525000D03*
X132820000Y-59575000D03*
D28*
X147075000Y-49437000D03*
X147075000Y-55934000D03*
X147075000Y-54934000D03*
X147075000Y-53934000D03*
D30*
X144453362Y-82258194D03*
X145103362Y-82258194D03*
X145753362Y-82258194D03*
X146403362Y-82258194D03*
X146403362Y-77858194D03*
X145753362Y-77858194D03*
X145103362Y-77858194D03*
X144453362Y-77858194D03*
D31*
X110750000Y-27500000D03*
D12*
X112850000Y-27500000D03*
D32*
X192500000Y-136000000D03*
D26*
X125000000Y-63500000D03*
D33*
X126350000Y-124000000D03*
D34*
X132650000Y-124000000D03*
X132650000Y-121700000D03*
X132650000Y-126300000D03*
D35*
X135750000Y-78500000D03*
X135750000Y-81500000D03*
D32*
X117500000Y-136000000D03*
D36*
X155000000Y-132000000D03*
X155650000Y-132000000D03*
X154350000Y-132000000D03*
X156300000Y-132000000D03*
X153700000Y-132000000D03*
D37*
X152200000Y-131750000D03*
X157800000Y-131750000D03*
D38*
X155000000Y-133900000D03*
D39*
X98500000Y-42500000D03*
X101500000Y-42500000D03*
X102500000Y-46000000D03*
X102500000Y-48000000D03*
X116500000Y-30000000D03*
X112000000Y-37000000D03*
X147000000Y-65000000D03*
X149250000Y-56000000D03*
X149250000Y-53750000D03*
X149250000Y-50500000D03*
X149250000Y-48250000D03*
X155000000Y-60750000D03*
X152000000Y-60750000D03*
X167000000Y-49250000D03*
X159000000Y-49250000D03*
X161500000Y-108000000D03*
X127500000Y-70000000D03*
X156250000Y-130000000D03*
X137500000Y-129000000D03*
X137500000Y-118500000D03*
X161500000Y-120000000D03*
X156500000Y-120000000D03*
X154000000Y-120000000D03*
X149000000Y-120000000D03*
X121000000Y-83000000D03*
X117500000Y-84500000D03*
X141000000Y-40500000D03*
X140000000Y-40500000D03*
X133000000Y-40500000D03*
X132000000Y-40500000D03*
X123500000Y-40500000D03*
X108500000Y-40500000D03*
X109500000Y-62000000D03*
X108500000Y-62000000D03*
X122500000Y-62000000D03*
X141000000Y-62000000D03*
X140000000Y-62000000D03*
X132000000Y-62000000D03*
X133000000Y-62000000D03*
X100000000Y-53500000D03*
X99000000Y-70000000D03*
X99000000Y-75000000D03*
X198000000Y-117000000D03*
X182500000Y-120000000D03*
X177500000Y-120000000D03*
X123000000Y-92000000D03*
X102500000Y-91000000D03*
X107500000Y-91000000D03*
X123000000Y-117000000D03*
X102500000Y-116000000D03*
X107500000Y-116000000D03*
X141750000Y-65000000D03*
X140500000Y-77500000D03*
X150000000Y-82500000D03*
X137500000Y-123500000D03*
X100000000Y-59000000D03*
X139000000Y-65000000D03*
X117500000Y-70000000D03*
X127500000Y-72500000D03*
X121500000Y-62000000D03*
X99000000Y-65000000D03*
X171500000Y-124500000D03*
X99000000Y-99000000D03*
X99000000Y-124000000D03*
X140500000Y-67000000D03*
X121500000Y-40500000D03*
X114000000Y-72000000D03*
X118500000Y-73500000D03*
X114000000Y-68000000D03*
X135500000Y-67500000D03*
X120500000Y-40500000D03*
X169500000Y-118500000D03*
X113500000Y-40500000D03*
X99000000Y-91000000D03*
X112500000Y-40500000D03*
X118500000Y-40500000D03*
X177500000Y-112000000D03*
X117500000Y-40500000D03*
X175000000Y-112000000D03*
X111500000Y-40500000D03*
X105000000Y-82000000D03*
X110500000Y-40500000D03*
X102500000Y-82000000D03*
X105000000Y-107000000D03*
X118500000Y-62000000D03*
X102500000Y-107000000D03*
X117500000Y-62000000D03*
X111500000Y-62000000D03*
X144750000Y-85000000D03*
X99000000Y-116000000D03*
X119500000Y-62000000D03*
D40*
X98500000Y-40000000D02*
X98500000Y-42500000D01*
X101500000Y-40000000D02*
X101500000Y-42500000D01*
X104830000Y-45905000D02*
X102595000Y-45905000D01*
X102595000Y-45905000D02*
X102500000Y-46000000D01*
X100000000Y-49600000D02*
X100900000Y-49600000D01*
X100900000Y-49600000D02*
X102500000Y-48000000D01*
X104830000Y-47905000D02*
X102595000Y-47905000D01*
X102595000Y-47905000D02*
X102500000Y-48000000D01*
X114750000Y-30000000D02*
X116500000Y-30000000D01*
X111900000Y-35000000D02*
X111900000Y-36900000D01*
X111900000Y-36900000D02*
X112000000Y-37000000D01*
D41*
X112850000Y-27500000D02*
X112850000Y-29850000D01*
D40*
X112850000Y-29850000D02*
X113000000Y-30000000D01*
D41*
X111900000Y-32500000D02*
X111900000Y-31271500D01*
X111900000Y-31271500D02*
X113000000Y-30171500D01*
D40*
X113000000Y-30171500D02*
X113000000Y-30000000D01*
X145350000Y-65000000D02*
X147000000Y-65000000D01*
X147500000Y-55934000D02*
X149184000Y-55934000D01*
X149184000Y-55934000D02*
X149250000Y-56000000D01*
X147500000Y-53934000D02*
X149066000Y-53934000D01*
X149066000Y-53934000D02*
X149250000Y-53750000D01*
X147500000Y-50437000D02*
X149187000Y-50437000D01*
X149187000Y-50437000D02*
X149250000Y-50500000D01*
X147500000Y-48437000D02*
X149063000Y-48437000D01*
X149063000Y-48437000D02*
X149250000Y-48250000D01*
X155000000Y-62750000D02*
X155000000Y-60750000D01*
X152000000Y-62750000D02*
X152000000Y-60750000D01*
X167000000Y-47750000D02*
X167000000Y-49250000D01*
X159000000Y-47750000D02*
X159000000Y-49250000D01*
D41*
X164000000Y-46000000D02*
X164000000Y-42000000D01*
X164000000Y-46000000D02*
X167000000Y-46000000D01*
D40*
X168500000Y-112500000D02*
X168500000Y-117000000D01*
X168500000Y-117000000D02*
X163500000Y-122000000D01*
X163500000Y-122000000D02*
X155000000Y-122000000D01*
X155000000Y-122000000D02*
X153537500Y-120537500D01*
X153537500Y-120537500D02*
X152350000Y-120537500D01*
X161500000Y-108000000D02*
X149500000Y-108000000D01*
X149500000Y-108000000D02*
X143900000Y-113600000D01*
X143900000Y-113600000D02*
X143900000Y-120000000D01*
X143900000Y-120000000D02*
X143900000Y-122500000D01*
X168500000Y-112500000D02*
X168500000Y-106100000D01*
X168500000Y-112500000D02*
X166000000Y-112500000D01*
X161500000Y-108000000D02*
X166000000Y-112500000D01*
X125850000Y-70000000D02*
X127500000Y-70000000D01*
X156300000Y-132000000D02*
X156300000Y-130050000D01*
X156300000Y-130050000D02*
X156250000Y-130000000D01*
X137500000Y-127400000D02*
X137500000Y-129000000D01*
X132650000Y-126300000D02*
X134300000Y-126300000D01*
X134300000Y-126300000D02*
X135400000Y-127400000D01*
X135400000Y-127400000D02*
X137500000Y-127400000D01*
X137500000Y-120100000D02*
X137500000Y-118500000D01*
X159925000Y-120000000D02*
X161500000Y-120000000D01*
X158075000Y-120000000D02*
X156500000Y-120000000D01*
X152425000Y-120000000D02*
X154000000Y-120000000D01*
X150575000Y-120000000D02*
X149000000Y-120000000D01*
X121000000Y-80900000D02*
X121000000Y-83000000D01*
X117500000Y-81500000D02*
X117500000Y-84500000D01*
X141060000Y-42300000D02*
X141060000Y-40560000D01*
X141060000Y-40560000D02*
X141000000Y-40500000D01*
X140060000Y-42300000D02*
X140060000Y-40560000D01*
X140060000Y-40560000D02*
X140000000Y-40500000D01*
X132820000Y-42300000D02*
X132820000Y-40680000D01*
X132820000Y-40680000D02*
X133000000Y-40500000D01*
X131820000Y-42300000D02*
X131820000Y-40680000D01*
X131820000Y-40680000D02*
X132000000Y-40500000D01*
X123370000Y-42300000D02*
X123370000Y-40630000D01*
X123370000Y-40630000D02*
X123500000Y-40500000D01*
X108370000Y-42300000D02*
X108370000Y-40630000D01*
X108370000Y-40630000D02*
X108500000Y-40500000D01*
X109370000Y-60000000D02*
X109370000Y-61870000D01*
X109370000Y-61870000D02*
X109500000Y-62000000D01*
X108370000Y-60000000D02*
X108370000Y-61870000D01*
X108370000Y-61870000D02*
X108500000Y-62000000D01*
X122370000Y-60000000D02*
X122370000Y-61870000D01*
X122370000Y-61870000D02*
X122500000Y-62000000D01*
X141060000Y-59950000D02*
X141060000Y-61940000D01*
X141060000Y-61940000D02*
X141000000Y-62000000D01*
X140060000Y-59950000D02*
X140060000Y-61940000D01*
X140060000Y-61940000D02*
X140000000Y-62000000D01*
X131820000Y-60000000D02*
X131820000Y-61820000D01*
X131820000Y-61820000D02*
X132000000Y-62000000D01*
X132820000Y-60000000D02*
X132820000Y-61820000D01*
X132820000Y-61820000D02*
X133000000Y-62000000D01*
X100000000Y-55600000D02*
X100000000Y-53500000D01*
X100000000Y-51350000D02*
X100000000Y-53500000D01*
X101000000Y-70000000D02*
X99000000Y-70000000D01*
X101000000Y-75000000D02*
X99000000Y-75000000D01*
X194625000Y-117000000D02*
X198000000Y-117000000D01*
X180925000Y-120000000D02*
X182500000Y-120000000D01*
X179075000Y-120000000D02*
X177500000Y-120000000D01*
X119625000Y-92000000D02*
X123000000Y-92000000D01*
X104075000Y-91000000D02*
X102500000Y-91000000D01*
X105925000Y-91000000D02*
X107500000Y-91000000D01*
X119625000Y-117000000D02*
X123000000Y-117000000D01*
X104075000Y-116000000D02*
X102500000Y-116000000D01*
X105925000Y-116000000D02*
X107500000Y-116000000D01*
X143600000Y-65000000D02*
X141750000Y-65000000D01*
X140500000Y-79100000D02*
X140500000Y-77500000D01*
X147758194Y-82258194D02*
X148000000Y-82500000D01*
X148000000Y-82500000D02*
X150000000Y-82500000D01*
X146403362Y-82258194D02*
X147758194Y-82258194D01*
X150000000Y-80900000D02*
X150000000Y-82500000D01*
X103750000Y-85000000D02*
X107500000Y-85000000D01*
X107500000Y-85000000D02*
X113500000Y-85000000D01*
X107500000Y-85850000D02*
X107500000Y-85000000D01*
X113500000Y-85000000D02*
X114000000Y-85500000D01*
X100000000Y-85850000D02*
X100000000Y-85000000D01*
X99000000Y-85000000D02*
X100000000Y-85000000D01*
X100000000Y-85000000D02*
X103750000Y-85000000D01*
X122150000Y-79150000D02*
X121000000Y-79150000D01*
X114000000Y-85500000D02*
X121500000Y-85500000D01*
X121500000Y-85500000D02*
X122500000Y-84500000D01*
X122500000Y-84500000D02*
X122500000Y-79500000D01*
X122500000Y-79500000D02*
X122150000Y-79150000D01*
X117500000Y-78500000D02*
X117500000Y-76500000D01*
X117500000Y-76500000D02*
X118000000Y-76000000D01*
X118000000Y-76000000D02*
X120500000Y-76000000D01*
X120500000Y-76000000D02*
X121000000Y-76500000D01*
X121000000Y-76500000D02*
X121000000Y-79150000D01*
X103750000Y-87500000D02*
X103750000Y-85000000D01*
X105000000Y-88750000D02*
X103750000Y-87500000D01*
X105000000Y-91187500D02*
X105000000Y-88750000D01*
X105850000Y-91537500D02*
X105350000Y-91537500D01*
X105350000Y-91537500D02*
X105000000Y-91187500D01*
X101016000Y-96500000D02*
X101016000Y-93116000D01*
X101016000Y-93116000D02*
X100900000Y-93000000D01*
X100900000Y-93000000D02*
X100900000Y-89900000D01*
X100900000Y-89900000D02*
X98500000Y-87500000D01*
X98500000Y-87500000D02*
X98500000Y-85500000D01*
X98500000Y-85500000D02*
X99000000Y-85000000D01*
X109100000Y-91000000D02*
X108450000Y-91000000D01*
X108450000Y-91000000D02*
X107824999Y-91625001D01*
X107037500Y-91537500D02*
X105850000Y-91537500D01*
X107824999Y-91625001D02*
X107125001Y-91625001D01*
X107125001Y-91625001D02*
X107037500Y-91537500D01*
D41*
X105900000Y-36250000D02*
X107500000Y-36250000D01*
X107500000Y-36250000D02*
X108750000Y-35000000D01*
X108750000Y-35000000D02*
X110150000Y-35000000D01*
X110150000Y-35000000D02*
X110150000Y-32500000D01*
D40*
X137500000Y-121850000D02*
X137500000Y-123500000D01*
X132650000Y-121700000D02*
X134700000Y-121700000D01*
X134700000Y-121700000D02*
X134850000Y-121850000D01*
X134850000Y-121850000D02*
X137500000Y-121850000D01*
X100000000Y-57350000D02*
X100000000Y-59000000D01*
X137000000Y-65000000D02*
X139000000Y-65000000D01*
X115850000Y-70000000D02*
X117500000Y-70000000D01*
X125850000Y-72500000D02*
X127500000Y-72500000D01*
X121370000Y-60000000D02*
X121370000Y-61870000D01*
X121370000Y-61870000D02*
X121500000Y-62000000D01*
X101000000Y-65000000D02*
X99000000Y-65000000D01*
X171484000Y-122889000D02*
X171484000Y-124484000D01*
X171484000Y-124484000D02*
X171500000Y-124500000D01*
X98984000Y-97389000D02*
X98984000Y-98984000D01*
X98984000Y-98984000D02*
X99000000Y-99000000D01*
X98984000Y-122278000D02*
X98984000Y-123984000D01*
X98984000Y-123984000D02*
X99000000Y-124000000D01*
X140500000Y-125000000D02*
X139850000Y-125650000D01*
X139850000Y-125650000D02*
X137500000Y-125650000D01*
X142150000Y-125000000D02*
X140500000Y-125000000D01*
X137500000Y-125650000D02*
X136150000Y-125650000D01*
X134500000Y-124000000D02*
X132650000Y-124000000D01*
X136150000Y-125650000D02*
X134500000Y-124000000D01*
X142150000Y-125000000D02*
X142150000Y-127500000D01*
X142150000Y-122500000D02*
X142150000Y-122671500D01*
X142150000Y-122671500D02*
X142150000Y-125000000D01*
X142150000Y-120000000D02*
X142150000Y-122500000D01*
X103750000Y-110000000D02*
X107500000Y-110000000D01*
X107500000Y-110000000D02*
X108750000Y-110000000D01*
X107500000Y-110850000D02*
X107500000Y-110000000D01*
X109250000Y-96750000D02*
X109500000Y-96500000D01*
X108750000Y-110000000D02*
X109250000Y-109500000D01*
X109250000Y-109500000D02*
X109250000Y-96750000D01*
X100000000Y-110850000D02*
X100000000Y-110000000D01*
X126250000Y-78750000D02*
X125000000Y-80000000D01*
X125000000Y-80000000D02*
X125000000Y-93500000D01*
X130000000Y-78750000D02*
X126250000Y-78750000D01*
X142000000Y-76500000D02*
X140000000Y-76500000D01*
X135750000Y-78500000D02*
X138000000Y-78500000D01*
X138000000Y-78500000D02*
X140000000Y-76500000D01*
X132750000Y-78750000D02*
X133000000Y-78500000D01*
X133000000Y-78500000D02*
X135750000Y-78500000D01*
X130000000Y-78750000D02*
X132750000Y-78750000D01*
X109500000Y-96500000D02*
X122000000Y-96500000D01*
X122000000Y-96500000D02*
X125000000Y-93500000D01*
X142000000Y-76500000D02*
X143358194Y-77858194D01*
X143358194Y-77858194D02*
X144453362Y-77858194D01*
X99000000Y-110000000D02*
X100000000Y-110000000D01*
X100000000Y-110000000D02*
X103750000Y-110000000D01*
X98750000Y-110250000D02*
X99000000Y-110000000D01*
X98750000Y-112500000D02*
X98750000Y-110250000D01*
X100900000Y-114650000D02*
X98750000Y-112500000D01*
X100900000Y-118000000D02*
X100900000Y-114650000D01*
X103750000Y-112250000D02*
X103750000Y-110000000D01*
X105000000Y-113500000D02*
X103750000Y-112250000D01*
X105000000Y-116187500D02*
X105000000Y-113500000D01*
X105850000Y-116537500D02*
X105350000Y-116537500D01*
X105350000Y-116537500D02*
X105000000Y-116187500D01*
X110000000Y-120500000D02*
X109111000Y-121389000D01*
X109111000Y-121389000D02*
X101016000Y-121389000D01*
X110000000Y-116250000D02*
X110000000Y-120500000D01*
X109100000Y-116000000D02*
X109750000Y-116000000D01*
X109750000Y-116000000D02*
X110000000Y-116250000D01*
X101016000Y-121389000D02*
X101016000Y-118116000D01*
X101016000Y-118116000D02*
X100900000Y-118000000D01*
X105850000Y-116537500D02*
X106962500Y-116537500D01*
X106962500Y-116537500D02*
X107050001Y-116625001D01*
X107050001Y-116625001D02*
X107800001Y-116625001D01*
X107800001Y-116625001D02*
X108425002Y-116000000D01*
X108425002Y-116000000D02*
X109100000Y-116000000D01*
X147500000Y-80000000D02*
X148350000Y-79150000D01*
X148350000Y-79150000D02*
X150000000Y-79150000D01*
X145000000Y-80000000D02*
X147500000Y-80000000D01*
X144453362Y-79453362D02*
X145000000Y-80000000D01*
X144453362Y-77858194D02*
X144453362Y-79453362D01*
D41*
X155000000Y-46750000D02*
X155750000Y-46000000D01*
X159000000Y-46000000D02*
X162250000Y-46000000D01*
X155750000Y-46000000D02*
X159000000Y-46000000D01*
X155000000Y-47650000D02*
X155000000Y-46750000D01*
D40*
X156540000Y-115000000D02*
X156540000Y-118540000D01*
X156540000Y-118540000D02*
X157462500Y-119462500D01*
X157462500Y-119462500D02*
X158150000Y-119462500D01*
X114000000Y-72000000D02*
X120000000Y-72000000D01*
X120000000Y-72000000D02*
X123000000Y-75000000D01*
X130000000Y-75000000D02*
X138000000Y-67000000D01*
X123000000Y-75000000D02*
X130000000Y-75000000D01*
X138000000Y-67000000D02*
X140500000Y-67000000D01*
X121370000Y-42300000D02*
X121370000Y-40630000D01*
X121370000Y-40630000D02*
X121500000Y-40500000D01*
X114000000Y-72000000D02*
X114000000Y-70100000D01*
X114000000Y-70100000D02*
X114100000Y-70000000D01*
X110850000Y-70000000D02*
X114100000Y-70000000D01*
X107000000Y-70000000D02*
X106500000Y-70000000D01*
X106500000Y-70000000D02*
X104000000Y-70000000D01*
X106500000Y-53000000D02*
X106500000Y-70000000D01*
X107250000Y-52250000D02*
X107000000Y-52500000D01*
X109500000Y-50000000D02*
X107250000Y-52250000D01*
X107250000Y-52250000D02*
X106500000Y-53000000D01*
X109100000Y-70000000D02*
X107000000Y-70000000D01*
X117000000Y-50000000D02*
X109500000Y-50000000D01*
X119370000Y-42300000D02*
X119370000Y-47630000D01*
X119370000Y-47630000D02*
X117000000Y-50000000D01*
X151500000Y-123000000D02*
X153500000Y-125000000D01*
X153700000Y-132000000D02*
X153700000Y-125200000D01*
X153700000Y-125200000D02*
X153500000Y-125000000D01*
X147000000Y-127500000D02*
X143900000Y-127500000D01*
X151500000Y-123000000D02*
X147000000Y-127500000D01*
X151500000Y-119812500D02*
X151500000Y-123000000D01*
X150650000Y-119462500D02*
X151150000Y-119462500D01*
X151150000Y-119462500D02*
X151500000Y-119812500D01*
X147500000Y-125000000D02*
X143900000Y-125000000D01*
X148699999Y-120625001D02*
X148699999Y-123800001D01*
X148699999Y-123800001D02*
X147500000Y-125000000D01*
X153000000Y-118000000D02*
X154000000Y-117000000D01*
X154000000Y-117000000D02*
X154000000Y-115000000D01*
X149000000Y-118000000D02*
X153000000Y-118000000D01*
X148374999Y-118625001D02*
X149000000Y-118000000D01*
X149537500Y-120537500D02*
X149449999Y-120625001D01*
X149449999Y-120625001D02*
X148699999Y-120625001D01*
X148699999Y-120625001D02*
X148374999Y-120300001D01*
X148374999Y-120300001D02*
X148374999Y-118625001D01*
X150650000Y-120537500D02*
X149537500Y-120537500D01*
X113000000Y-65500000D02*
X110370000Y-62870000D01*
X124150000Y-67500000D02*
X119000000Y-67500000D01*
X113000000Y-65500000D02*
X117000000Y-65500000D01*
X117000000Y-65500000D02*
X119000000Y-67500000D01*
X110370000Y-62870000D02*
X110370000Y-60000000D01*
X124150000Y-67500000D02*
X124150000Y-69950000D01*
X124150000Y-69950000D02*
X124100000Y-70000000D01*
X124100000Y-72500000D02*
X124100000Y-70000000D01*
X171500000Y-115000000D02*
X172500000Y-115000000D01*
X172500000Y-115000000D02*
X179800000Y-115000000D01*
X172500000Y-115850000D02*
X172500000Y-115000000D01*
X173400000Y-118500000D02*
X173400000Y-117400000D01*
X173400000Y-117400000D02*
X173000000Y-117000000D01*
X173000000Y-117000000D02*
X171500000Y-117000000D01*
X171500000Y-117000000D02*
X171000000Y-116500000D01*
X171000000Y-116500000D02*
X171000000Y-115500000D01*
X171000000Y-115500000D02*
X171500000Y-115000000D01*
X179800000Y-115000000D02*
X180000000Y-115200000D01*
X180000000Y-115200000D02*
X180000000Y-115850000D01*
X184100000Y-116000000D02*
X184750000Y-116000000D01*
X184750000Y-116000000D02*
X185000000Y-116250000D01*
X185000000Y-121500000D02*
X184500000Y-122000000D01*
X185000000Y-116250000D02*
X185000000Y-121500000D01*
X184500000Y-122000000D02*
X173516000Y-122000000D01*
X173516000Y-122000000D02*
X173516000Y-118616000D01*
X173516000Y-118616000D02*
X173400000Y-118500000D01*
X184100000Y-116000000D02*
X183250000Y-116000000D01*
X183250000Y-116000000D02*
X182750000Y-116500000D01*
X183125001Y-120300001D02*
X182800001Y-120625001D01*
X182750000Y-116500000D02*
X182750000Y-119250000D01*
X182750000Y-119250000D02*
X183125001Y-119625001D01*
X183125001Y-119625001D02*
X183125001Y-120300001D01*
X182800001Y-120625001D02*
X182125001Y-120625001D01*
X182125001Y-120625001D02*
X182037500Y-120537500D01*
X182037500Y-120537500D02*
X180850000Y-120537500D01*
X182000000Y-119000000D02*
X182000000Y-117500000D01*
X182000000Y-117500000D02*
X182000000Y-114500000D01*
X177500000Y-115900000D02*
X177500000Y-117000000D01*
X177500000Y-117000000D02*
X178000000Y-117500000D01*
X178000000Y-117500000D02*
X182000000Y-117500000D01*
X182000000Y-114500000D02*
X183000000Y-113500000D01*
X180850000Y-119462500D02*
X181537500Y-119462500D01*
X181537500Y-119462500D02*
X182000000Y-119000000D01*
X184100000Y-113500000D02*
X183000000Y-113500000D01*
X175500000Y-117500000D02*
X175000000Y-117000000D01*
X175000000Y-117000000D02*
X175000000Y-115900000D01*
X176500000Y-117500000D02*
X175500000Y-117500000D01*
X177199999Y-118199999D02*
X176500000Y-117500000D01*
X177199999Y-119374999D02*
X177199999Y-118199999D01*
X177800001Y-119374999D02*
X177887502Y-119462500D01*
X177887502Y-119462500D02*
X179150000Y-119462500D01*
X183750000Y-121500000D02*
X178074998Y-121500000D01*
X178074998Y-121500000D02*
X176874999Y-120300001D01*
X176874999Y-120300001D02*
X176874999Y-119699999D01*
X176874999Y-119699999D02*
X177199999Y-119374999D01*
X177199999Y-119374999D02*
X177800001Y-119374999D01*
X184100000Y-121150000D02*
X183750000Y-121500000D01*
X184100000Y-118500000D02*
X184100000Y-121150000D01*
X105000000Y-85900000D02*
X105000000Y-87500000D01*
X105000000Y-87500000D02*
X106500000Y-89000000D01*
X106500000Y-89000000D02*
X107500000Y-89000000D01*
X109100000Y-88500000D02*
X108000000Y-88500000D01*
X108000000Y-88500000D02*
X107500000Y-89000000D01*
X107037500Y-90462500D02*
X105850000Y-90462500D01*
X107500000Y-89000000D02*
X107500000Y-90000000D01*
X107500000Y-90000000D02*
X107037500Y-90462500D01*
X102500000Y-85900000D02*
X102500000Y-87500000D01*
X102500000Y-87500000D02*
X104150000Y-89150000D01*
X104150000Y-89150000D02*
X104150000Y-90462500D01*
X102874999Y-90374999D02*
X102962500Y-90462500D01*
X102962500Y-90462500D02*
X104150000Y-90462500D01*
X104000000Y-93500000D02*
X101874999Y-91374999D01*
X101874999Y-91374999D02*
X101874999Y-90699999D01*
X101874999Y-90699999D02*
X102199999Y-90374999D01*
X102199999Y-90374999D02*
X102874999Y-90374999D01*
X109100000Y-93500000D02*
X104000000Y-93500000D01*
X161620000Y-115000000D02*
X161620000Y-117120000D01*
X161037500Y-120537500D02*
X159850000Y-120537500D01*
X161620000Y-117120000D02*
X163000000Y-118500000D01*
X162874999Y-120625001D02*
X161125001Y-120625001D01*
X163000000Y-118500000D02*
X163000000Y-120500000D01*
X163000000Y-120500000D02*
X162874999Y-120625001D01*
X161125001Y-120625001D02*
X161037500Y-120537500D01*
X118500000Y-73500000D02*
X110000000Y-73500000D01*
X122370000Y-42300000D02*
X122370000Y-45630000D01*
X122370000Y-45630000D02*
X117000000Y-51000000D01*
X117000000Y-51000000D02*
X109450010Y-51000000D01*
X109450010Y-51000000D02*
X107450010Y-53000000D01*
X107450010Y-53000000D02*
X107450010Y-65950010D01*
X107450010Y-65950010D02*
X110000000Y-68500000D01*
X110000000Y-68500000D02*
X110000000Y-73500000D01*
X110000000Y-73500000D02*
X108500000Y-75000000D01*
X108500000Y-75000000D02*
X104000000Y-75000000D01*
X159850000Y-119462500D02*
X160537500Y-119462500D01*
X160537500Y-119462500D02*
X161000000Y-119000000D01*
X161000000Y-119000000D02*
X161000000Y-118122081D01*
X161000000Y-118122081D02*
X159080000Y-116202081D01*
X159080000Y-116202081D02*
X159080000Y-115000000D01*
X117500000Y-68000000D02*
X123500000Y-74000000D01*
X114000000Y-68000000D02*
X117500000Y-68000000D01*
X123500000Y-74000000D02*
X129000000Y-74000000D01*
X129000000Y-74000000D02*
X135500000Y-67500000D01*
X120370000Y-42300000D02*
X120370000Y-40630000D01*
X120370000Y-40630000D02*
X120500000Y-40500000D01*
X105850000Y-113100000D02*
X105850000Y-113500000D01*
X105850000Y-113500000D02*
X105850000Y-115462500D01*
X109100000Y-113500000D02*
X105850000Y-113500000D01*
X105000000Y-110900000D02*
X105000000Y-112250000D01*
X105000000Y-112250000D02*
X105850000Y-113100000D01*
X103874999Y-118500000D02*
X101874999Y-116500000D01*
X109100000Y-118500000D02*
X103874999Y-118500000D01*
X102887502Y-115462500D02*
X104150000Y-115462500D01*
X101874999Y-116500000D02*
X101874999Y-115699999D01*
X101874999Y-115699999D02*
X102199999Y-115374999D01*
X102199999Y-115374999D02*
X102800001Y-115374999D01*
X102800001Y-115374999D02*
X102887502Y-115462500D01*
X102500000Y-110900000D02*
X102500000Y-112000000D01*
X104150000Y-113650000D02*
X104150000Y-115462500D01*
X102500000Y-112000000D02*
X104150000Y-113650000D01*
X188000000Y-115000000D02*
X187000000Y-116000000D01*
X187000000Y-116000000D02*
X185850000Y-116000000D01*
X190375000Y-115000000D02*
X188000000Y-115000000D01*
X193875000Y-113500000D02*
X185850000Y-113500000D01*
X194625000Y-115000000D02*
X194625000Y-114250000D01*
X194625000Y-114250000D02*
X193875000Y-113500000D01*
X185850000Y-118500000D02*
X187000000Y-118500000D01*
X187000000Y-118500000D02*
X187500000Y-118000000D01*
X187500000Y-118000000D02*
X187500000Y-117500000D01*
X187500000Y-117500000D02*
X188000000Y-117000000D01*
X188000000Y-117000000D02*
X190375000Y-117000000D01*
X113000000Y-90000000D02*
X112000000Y-91000000D01*
X112000000Y-91000000D02*
X110850000Y-91000000D01*
X115375000Y-90000000D02*
X113000000Y-90000000D01*
X119625000Y-89125000D02*
X119000000Y-88500000D01*
X119000000Y-88500000D02*
X110850000Y-88500000D01*
X119625000Y-90000000D02*
X119625000Y-89125000D01*
X112500000Y-92500000D02*
X113000000Y-92000000D01*
X112500000Y-93000000D02*
X112500000Y-92500000D01*
X112000000Y-93500000D02*
X112500000Y-93000000D01*
X110850000Y-93500000D02*
X112000000Y-93500000D01*
X115375000Y-92000000D02*
X113000000Y-92000000D01*
D41*
X100000000Y-41500000D02*
X100000000Y-37500000D01*
X101250000Y-36250000D02*
X104150000Y-36250000D01*
X100000000Y-37500000D02*
X101250000Y-36250000D01*
X104775000Y-46850000D02*
X101750000Y-46850000D01*
X100000000Y-45100000D02*
X101750000Y-46850000D01*
X100000000Y-45100000D02*
X100000000Y-41500000D01*
D40*
X104830000Y-46905000D02*
X104775000Y-46850000D01*
D41*
X153500000Y-58500000D02*
X153500000Y-61250000D01*
X154150000Y-53100000D02*
X155000000Y-52250000D01*
X155000000Y-52250000D02*
X155000000Y-49400000D01*
X152500000Y-53100000D02*
X154150000Y-53100000D01*
X152500000Y-53100000D02*
X152500000Y-55000000D01*
X152500000Y-55000000D02*
X152500000Y-57500000D01*
X147500000Y-54934000D02*
X152434000Y-54934000D01*
X152434000Y-54934000D02*
X152500000Y-55000000D01*
X152500000Y-57500000D02*
X153500000Y-58500000D01*
D40*
X147566000Y-55000000D02*
X147500000Y-54934000D01*
X115375000Y-115000000D02*
X113000000Y-115000000D01*
X113000000Y-115000000D02*
X112000000Y-116000000D01*
X112000000Y-116000000D02*
X110850000Y-116000000D01*
X119625000Y-114125000D02*
X119000000Y-113500000D01*
X119000000Y-113500000D02*
X110850000Y-113500000D01*
X119625000Y-115000000D02*
X119625000Y-114125000D01*
X110850000Y-118500000D02*
X112000000Y-118500000D01*
X112000000Y-118500000D02*
X112500000Y-118000000D01*
X112500000Y-118000000D02*
X112500000Y-117500000D01*
X112500000Y-117500000D02*
X113000000Y-117000000D01*
X113000000Y-117000000D02*
X115375000Y-117000000D01*
X132350000Y-65000000D02*
X135250000Y-65000000D01*
X169500000Y-118500000D02*
X171650000Y-118500000D01*
X113370000Y-42300000D02*
X113370000Y-40630000D01*
X113370000Y-40630000D02*
X113500000Y-40500000D01*
X171484000Y-121111000D02*
X171484000Y-118666000D01*
X171484000Y-118666000D02*
X171650000Y-118500000D01*
X99150000Y-93000000D02*
X99150000Y-91150000D01*
X99150000Y-91150000D02*
X99000000Y-91000000D01*
X112370000Y-42300000D02*
X112370000Y-40630000D01*
X112370000Y-40630000D02*
X112500000Y-40500000D01*
X98984000Y-95611000D02*
X98984000Y-93166000D01*
X98984000Y-93166000D02*
X99150000Y-93000000D01*
X139150000Y-80850000D02*
X138500000Y-81500000D01*
X138500000Y-81500000D02*
X135750000Y-81500000D01*
X140500000Y-80850000D02*
X139150000Y-80850000D01*
X140500000Y-82500000D02*
X143750000Y-85750000D01*
X140500000Y-80850000D02*
X140500000Y-82500000D01*
X132710000Y-81290000D02*
X132920000Y-81500000D01*
X132920000Y-81500000D02*
X135750000Y-81500000D01*
X130000000Y-81290000D02*
X132710000Y-81290000D01*
X143750000Y-85750000D02*
X145250000Y-85750000D01*
X145250000Y-85750000D02*
X145753362Y-85246638D01*
X145753362Y-85246638D02*
X145753362Y-82258194D01*
X177500000Y-114150000D02*
X179950000Y-114150000D01*
X179950000Y-114150000D02*
X180000000Y-114100000D01*
X118370000Y-42300000D02*
X118370000Y-40630000D01*
X118370000Y-40630000D02*
X118500000Y-40500000D01*
X177500000Y-114150000D02*
X177500000Y-112000000D01*
X175000000Y-114150000D02*
X172550000Y-114150000D01*
X172550000Y-114150000D02*
X172500000Y-114100000D01*
X117370000Y-42300000D02*
X117370000Y-40630000D01*
X117370000Y-40630000D02*
X117500000Y-40500000D01*
X117500000Y-42170000D02*
X117370000Y-42300000D01*
X175000000Y-114150000D02*
X175000000Y-112000000D01*
X105000000Y-84150000D02*
X107450000Y-84150000D01*
X107450000Y-84150000D02*
X107500000Y-84100000D01*
X111370000Y-42300000D02*
X111370000Y-40630000D01*
X111370000Y-40630000D02*
X111500000Y-40500000D01*
X105000000Y-82000000D02*
X106500000Y-80500000D01*
X106500000Y-80500000D02*
X114500000Y-80500000D01*
X114500000Y-80500000D02*
X115000000Y-81000000D01*
X115000000Y-81000000D02*
X115000000Y-83500000D01*
X115000000Y-83500000D02*
X115500000Y-84000000D01*
X115500000Y-84000000D02*
X116000000Y-84000000D01*
X116000000Y-84000000D02*
X116500000Y-83500000D01*
X116500000Y-83500000D02*
X116500000Y-81500000D01*
X105000000Y-84150000D02*
X105000000Y-82000000D01*
X102500000Y-84150000D02*
X100050000Y-84150000D01*
X100050000Y-84150000D02*
X100000000Y-84100000D01*
X110370000Y-42300000D02*
X110370000Y-40630000D01*
X110370000Y-40630000D02*
X110500000Y-40500000D01*
X102500000Y-82000000D02*
X105000000Y-79500000D01*
X105000000Y-79500000D02*
X114500000Y-79500000D01*
X114500000Y-79500000D02*
X115000000Y-79000000D01*
X115000000Y-79000000D02*
X115000000Y-76500000D01*
X116000000Y-76000000D02*
X116500000Y-76500000D01*
X115000000Y-76500000D02*
X115500000Y-76000000D01*
X115500000Y-76000000D02*
X116000000Y-76000000D01*
X116500000Y-76500000D02*
X116500000Y-78500000D01*
X102500000Y-84150000D02*
X102500000Y-82000000D01*
D41*
X151937000Y-49437000D02*
X152500000Y-50000000D01*
X152500000Y-50000000D02*
X152500000Y-51350000D01*
X147500000Y-49437000D02*
X151937000Y-49437000D01*
D40*
X147500000Y-49437000D02*
X147537000Y-49400000D01*
X130600000Y-65000000D02*
X126450010Y-65000000D01*
X126450010Y-65000000D02*
X126000000Y-64549990D01*
X126000000Y-64549990D02*
X122049990Y-64549990D01*
X122049990Y-64549990D02*
X120370000Y-62870000D01*
X120370000Y-62870000D02*
X120370000Y-60000000D01*
X116370000Y-60000000D02*
X116370000Y-62870000D01*
X116370000Y-62870000D02*
X119000000Y-65500000D01*
X119000000Y-65500000D02*
X125500000Y-65500000D01*
X125500000Y-65500000D02*
X125900000Y-65900000D01*
X125900000Y-65900000D02*
X125900000Y-67500000D01*
X147000000Y-76000000D02*
X146403362Y-76596638D01*
X146403362Y-76596638D02*
X146403362Y-77858194D01*
X147500000Y-76000000D02*
X147000000Y-76000000D01*
X148000000Y-75500000D02*
X147500000Y-76000000D01*
X148000000Y-74350000D02*
X148000000Y-75500000D01*
X146403362Y-77858194D02*
X146403362Y-77358194D01*
X146403362Y-77358194D02*
X146428362Y-77333194D01*
X148000000Y-72600000D02*
X148000000Y-70000000D01*
X143000000Y-72600000D02*
X143171500Y-72600000D01*
X143171500Y-72600000D02*
X144921500Y-74350000D01*
X144921500Y-74350000D02*
X145500000Y-74350000D01*
X145500000Y-75500000D02*
X145753362Y-75753362D01*
X145753362Y-75753362D02*
X145753362Y-77858194D01*
X145500000Y-74350000D02*
X145500000Y-75500000D01*
X145500000Y-70000000D02*
X145500000Y-72600000D01*
X141500000Y-74000000D02*
X141850000Y-74350000D01*
X141850000Y-74350000D02*
X143000000Y-74350000D01*
X141500000Y-70500000D02*
X141500000Y-74000000D01*
X142000000Y-70000000D02*
X141500000Y-70500000D01*
X143000000Y-70000000D02*
X142000000Y-70000000D01*
X144500000Y-76000000D02*
X145103362Y-76603362D01*
X145103362Y-76603362D02*
X145103362Y-77858194D01*
X143500000Y-76000000D02*
X144500000Y-76000000D01*
X143000000Y-75500000D02*
X143500000Y-76000000D01*
X143000000Y-74350000D02*
X143000000Y-75500000D01*
X105000000Y-109150000D02*
X107450000Y-109150000D01*
X107450000Y-109150000D02*
X107500000Y-109100000D01*
X105000000Y-109150000D02*
X105000000Y-107000000D01*
X118370000Y-60000000D02*
X118370000Y-61870000D01*
X118370000Y-61870000D02*
X118500000Y-62000000D01*
X102500000Y-109150000D02*
X100050000Y-109150000D01*
X100050000Y-109150000D02*
X100000000Y-109100000D01*
X102500000Y-109150000D02*
X102500000Y-107000000D01*
X117370000Y-60000000D02*
X117370000Y-61870000D01*
X117370000Y-61870000D02*
X117500000Y-62000000D01*
X109370000Y-42300000D02*
X109370000Y-49130000D01*
X109370000Y-49130000D02*
X105500000Y-53000000D01*
X105500000Y-53000000D02*
X105500000Y-64500000D01*
X105500000Y-64500000D02*
X105000000Y-65000000D01*
X105000000Y-65000000D02*
X104000000Y-65000000D01*
X111370000Y-60000000D02*
X111370000Y-61870000D01*
X111370000Y-61870000D02*
X111500000Y-62000000D01*
X145103362Y-82258194D02*
X145103362Y-84646638D01*
X145103362Y-84646638D02*
X144750000Y-85000000D01*
X144453362Y-82258194D02*
X144453362Y-84703362D01*
X144453362Y-84703362D02*
X144750000Y-85000000D01*
X144453362Y-82258194D02*
X144453362Y-82758194D01*
X144453362Y-82758194D02*
X144428362Y-82783194D01*
X123370000Y-60000000D02*
X123370000Y-61870000D01*
X123370000Y-61870000D02*
X125000000Y-63500000D01*
X99150000Y-118000000D02*
X99150000Y-116150000D01*
X99150000Y-116150000D02*
X99000000Y-116000000D01*
X119370000Y-60000000D02*
X119370000Y-61870000D01*
X119370000Y-61870000D02*
X119500000Y-62000000D01*
X98984000Y-120500000D02*
X98984000Y-118166000D01*
X98984000Y-118166000D02*
X99150000Y-118000000D01*
M02*
