M48
;DRILL file {KiCad 4.0.7-e2-6376~61~ubuntu18.04.1} date Tue Jul  3 09:25:56 2018
;FORMAT={-:-/ absolute / inch / decimal}
FMAT,2
INCH,TZ
T1C0.012
T2C0.016
T3C0.020
T4C0.035
T5C0.039
T6C0.098
T7C0.126
%
G90
G05
M72
T1
X4.3602Y-1.0827
X6.2008Y-1.6535
T2
X3.878Y-1.6732
X3.8976Y-2.5591
X3.8976Y-2.7559
X3.8976Y-2.9528
X3.8976Y-3.5827
X3.8976Y-3.8976
X3.8976Y-4.5669
X3.8976Y-4.8819
X3.937Y-2.1063
X3.937Y-2.3228
X3.9961Y-1.6732
X4.0354Y-1.811
X4.0354Y-1.8898
X4.0354Y-3.2283
X4.0354Y-3.5827
X4.0354Y-4.2126
X4.0354Y-4.5669
X4.1339Y-3.2283
X4.1339Y-4.2126
X4.2323Y-3.5827
X4.2323Y-4.5669
X4.2717Y-1.5945
X4.2717Y-2.4409
X4.311Y-2.4409
X4.3504Y-1.5945
X4.3898Y-1.5945
X4.3898Y-2.4409
X4.4094Y-1.4567
X4.4291Y-1.5945
X4.4685Y-1.5945
X4.4882Y-2.6772
X4.4882Y-2.8346
X4.5866Y-1.1811
X4.626Y-1.5945
X4.626Y-2.4409
X4.626Y-2.7559
X4.626Y-3.3268
X4.6654Y-1.5945
X4.6654Y-2.4409
X4.6654Y-2.8937
X4.7047Y-2.4409
X4.7441Y-1.5945
X4.7638Y-3.2677
X4.7835Y-1.5945
X4.7835Y-2.4409
X4.8228Y-2.4409
X4.8425Y-3.622
X4.8425Y-4.6063
X4.8622Y-1.5945
X4.9213Y-2.5
X5.0197Y-2.7559
X5.0197Y-2.8543
X5.1969Y-1.5945
X5.1969Y-2.4409
X5.2362Y-1.5945
X5.2362Y-2.4409
X5.3346Y-2.6575
X5.4134Y-4.6654
X5.4134Y-4.8622
X5.4134Y-5.0787
X5.4724Y-2.5591
X5.5118Y-1.5945
X5.5118Y-2.4409
X5.5315Y-2.6378
X5.5315Y-3.0512
X5.5512Y-1.5945
X5.5512Y-2.4409
X5.5807Y-2.5591
X5.6299Y-2.7559
X5.6988Y-3.3465
X5.7283Y-2.7559
X5.7874Y-2.5591
X5.8268Y-2.7559
X5.8661Y-4.7244
X5.876Y-1.8996
X5.876Y-1.9882
X5.876Y-2.1161
X5.876Y-2.2047
X5.9055Y-3.248
X5.9843Y-2.3917
X6.063Y-4.7244
X6.1024Y-2.3917
X6.1516Y-5.1181
X6.1614Y-4.7244
X6.2598Y-1.939
X6.3583Y-4.252
X6.3583Y-4.7244
X6.5748Y-1.939
X6.6339Y-4.4291
X6.6339Y-4.9016
X6.6732Y-4.6654
X6.752Y-4.9016
X6.8898Y-4.4094
X6.9882Y-4.4094
X6.9882Y-4.7244
X7.185Y-4.7244
X7.7953Y-4.6063
T4
X5.1181Y-3.1004
X5.1181Y-3.2004
T5
X5.863Y-4.5276
X5.963Y-4.5276
X6.063Y-4.5276
X6.163Y-4.5276
X6.263Y-4.5276
X6.363Y-4.5276
X6.6339Y-4.1772
X7.1378Y-4.1772
T6
X6.6929Y-3.1496
X7.874Y-3.1496
T7
X4.626Y-5.3543
X7.5787Y-5.3543
T3
X5.9783Y-5.187G85X6.0059Y-5.187
G05
X6.0807Y-5.2717G85X6.124Y-5.2717
G05
X6.1988Y-5.187G85X6.2264Y-5.187
G05
T0
M30
