G04 #@! TF.FileFunction,Copper,L4,Bot,Signal*
%FSLAX46Y46*%
G04 Gerber Fmt 4.6, Leading zero omitted, Abs format (unit mm)*
G04 Created by KiCad (PCBNEW 4.0.7-e2-6376~61~ubuntu18.04.1) date Thu Aug  9 16:35:42 2018*
%MOMM*%
%LPD*%
G01*
G04 APERTURE LIST*
%ADD10C,0.100000*%
%ADD11O,1.800000X1.100000*%
%ADD12O,2.200000X1.100000*%
%ADD13R,1.700000X1.700000*%
%ADD14O,1.700000X1.700000*%
%ADD15C,1.000000*%
%ADD16R,0.900000X0.500000*%
%ADD17C,1.450000*%
%ADD18O,1.200000X1.900000*%
%ADD19R,1.000000X1.000000*%
%ADD20C,4.500000*%
%ADD21C,2.500000*%
%ADD22C,5.000000*%
%ADD23C,0.600000*%
%ADD24C,0.250000*%
G04 APERTURE END LIST*
D10*
D11*
X152200000Y-128750000D03*
X157800000Y-128750000D03*
D12*
X155000000Y-130900000D03*
D13*
X148920000Y-115000000D03*
D14*
X151460000Y-115000000D03*
X154000000Y-115000000D03*
X156540000Y-115000000D03*
X159080000Y-115000000D03*
X161620000Y-115000000D03*
D15*
X143000000Y-115000000D03*
X167000000Y-119000000D03*
X145500000Y-70000000D03*
X148000000Y-70000000D03*
X143000000Y-70000000D03*
D16*
X110750000Y-27500000D03*
D15*
X125000000Y-63500000D03*
D17*
X152500000Y-134900000D03*
X157500000Y-134900000D03*
D18*
X151500000Y-137600000D03*
X158500000Y-137600000D03*
D19*
X157500000Y-42000000D03*
D20*
X189500000Y-136000000D03*
X195500000Y-136000000D03*
X114500000Y-136000000D03*
X120500000Y-136000000D03*
D21*
X168500000Y-106100000D03*
X181300000Y-106100000D03*
D22*
X170000000Y-80000000D03*
X200000000Y-80000000D03*
D23*
X100000000Y-49500000D03*
X103000000Y-49500000D03*
X103000000Y-47500000D03*
X109500000Y-37250000D03*
X99500000Y-43500000D03*
X102500000Y-43500000D03*
X116500000Y-30000000D03*
X166500000Y-49250000D03*
X159750000Y-49250000D03*
X151750000Y-55500000D03*
X149250000Y-50500000D03*
X149250000Y-48250000D03*
X127500000Y-70000000D03*
X126000000Y-79250000D03*
X146750000Y-123750000D03*
X151750000Y-123750000D03*
X163250000Y-123750000D03*
X158250000Y-123750000D03*
X132000000Y-82250000D03*
X157500000Y-131000000D03*
X156250000Y-133000000D03*
X137500000Y-129000000D03*
X137500000Y-118500000D03*
X121000000Y-83000000D03*
X117500000Y-84500000D03*
X141000000Y-40500000D03*
X140000000Y-40500000D03*
X133000000Y-40500000D03*
X132000000Y-40500000D03*
X123500000Y-40500000D03*
X108500000Y-40500000D03*
X109500000Y-62000000D03*
X108500000Y-62000000D03*
X122500000Y-62000000D03*
X141000000Y-62000000D03*
X140000000Y-62000000D03*
X132000000Y-62000000D03*
X133000000Y-62000000D03*
X100000000Y-54750000D03*
X99000000Y-70000000D03*
X99000000Y-75000000D03*
X198000000Y-117000000D03*
X182500000Y-120000000D03*
X177500000Y-120000000D03*
X123000000Y-92000000D03*
X102500000Y-91000000D03*
X107500000Y-91000000D03*
X123000000Y-117000000D03*
X102500000Y-116000000D03*
X107500000Y-116000000D03*
X151750000Y-60750000D03*
X140500000Y-77500000D03*
X150000000Y-82500000D03*
X128000000Y-72500000D03*
X112750000Y-75000000D03*
X99250000Y-102000000D03*
X171500000Y-127250000D03*
X137500000Y-123500000D03*
X100000000Y-60250000D03*
X117500000Y-70000000D03*
X121500000Y-62000000D03*
X99000000Y-65000000D03*
X99000000Y-124000000D03*
X139000000Y-65000000D03*
X161000000Y-132000000D03*
X140500000Y-67000000D03*
X121500000Y-40500000D03*
X122500000Y-40500000D03*
X165750000Y-132000000D03*
X120500000Y-40500000D03*
X163250000Y-132000000D03*
X171500000Y-119250000D03*
X113500000Y-40500000D03*
X99000000Y-91250000D03*
X112500000Y-40500000D03*
X118500000Y-40500000D03*
X177500000Y-112000000D03*
X117500000Y-40500000D03*
X175000000Y-112000000D03*
X111500000Y-40500000D03*
X105000000Y-82000000D03*
X110500000Y-40500000D03*
X102500000Y-82000000D03*
X111500000Y-62000000D03*
X144750000Y-85000000D03*
X100000000Y-107000000D03*
X119500000Y-62000000D03*
X130000000Y-80750000D03*
X102500000Y-107000000D03*
X117500000Y-62000000D03*
X126000000Y-80750000D03*
X105000000Y-107000000D03*
X118500000Y-62000000D03*
D24*
X143000000Y-115000000D02*
X143000000Y-110750000D01*
X143000000Y-110750000D02*
X146750000Y-107000000D01*
X146750000Y-107000000D02*
X146750000Y-83250000D01*
X146750000Y-83250000D02*
X143500000Y-80000000D01*
X143500000Y-80000000D02*
X141000000Y-80000000D01*
X141000000Y-80000000D02*
X131000000Y-70000000D01*
X131000000Y-70000000D02*
X127500000Y-70000000D01*
X140500000Y-67000000D02*
X149250000Y-67000000D01*
X149250000Y-67000000D02*
X183750000Y-101500000D01*
X168750000Y-125750000D02*
X166500000Y-125750000D01*
X183750000Y-101500000D02*
X183750000Y-110750000D01*
X183750000Y-110750000D02*
X168750000Y-125750000D01*
X164000000Y-133250000D02*
X162250000Y-133250000D01*
X166500000Y-125750000D02*
X164500000Y-127750000D01*
X164500000Y-127750000D02*
X164500000Y-132750000D01*
X164500000Y-132750000D02*
X164000000Y-133250000D01*
X162250000Y-133250000D02*
X161000000Y-132000000D01*
X121500000Y-40500000D02*
X137000000Y-56000000D01*
X140500000Y-64500000D02*
X140500000Y-67000000D01*
X137000000Y-56000000D02*
X137000000Y-61000000D01*
X137000000Y-61000000D02*
X140500000Y-64500000D01*
X184750000Y-101000000D02*
X184750000Y-111000000D01*
X138074998Y-56000000D02*
X139750000Y-56000000D01*
X184750000Y-101000000D02*
X139750000Y-56000000D01*
X123074998Y-41000000D02*
X138074998Y-56000000D01*
X169000000Y-126750000D02*
X166750000Y-126750000D01*
X184750000Y-111000000D02*
X169000000Y-126750000D01*
X166750000Y-126750000D02*
X165750000Y-127750000D01*
X165750000Y-127750000D02*
X165750000Y-132000000D01*
X122500000Y-40500000D02*
X123000000Y-41000000D01*
X123000000Y-41000000D02*
X123074998Y-41000000D01*
X120500000Y-40500000D02*
X130500000Y-50500000D01*
X130500000Y-50500000D02*
X130500000Y-63250000D01*
X130500000Y-63250000D02*
X140250000Y-73000000D01*
X140250000Y-73000000D02*
X147500000Y-73000000D01*
X147500000Y-73000000D02*
X178750000Y-104250000D01*
X178750000Y-104250000D02*
X178750000Y-114500000D01*
X178750000Y-114500000D02*
X169000000Y-124250000D01*
X169000000Y-124250000D02*
X166750000Y-124250000D01*
X166750000Y-124250000D02*
X163250000Y-127750000D01*
X163250000Y-127750000D02*
X163250000Y-132000000D01*
X113500000Y-40500000D02*
X127500000Y-54500000D01*
X173500000Y-103500000D02*
X173500000Y-110250000D01*
X127500000Y-54500000D02*
X127500000Y-65000000D01*
X127500000Y-65000000D02*
X138500000Y-76000000D01*
X173500000Y-110250000D02*
X170500000Y-113250000D01*
X138500000Y-76000000D02*
X146000000Y-76000000D01*
X146000000Y-76000000D02*
X173500000Y-103500000D01*
X170500000Y-113250000D02*
X170500000Y-118250000D01*
X170500000Y-118250000D02*
X171500000Y-119250000D01*
X108750000Y-54500000D02*
X106500000Y-54500000D01*
X103500000Y-57500000D02*
X103500000Y-78500000D01*
X106500000Y-54500000D02*
X103500000Y-57500000D01*
X112500000Y-40500000D02*
X112500000Y-50750000D01*
X112500000Y-50750000D02*
X108750000Y-54500000D01*
X103500000Y-78500000D02*
X106750000Y-81750000D01*
X106750000Y-81750000D02*
X106750000Y-83500000D01*
X106750000Y-83500000D02*
X99000000Y-91250000D01*
X129500000Y-51500000D02*
X129500000Y-64000000D01*
X139500000Y-74000000D02*
X147000000Y-74000000D01*
X129500000Y-64000000D02*
X139500000Y-74000000D01*
X118500000Y-40500000D02*
X129500000Y-51500000D01*
X177500000Y-104500000D02*
X177500000Y-112000000D01*
X147000000Y-74000000D02*
X177500000Y-104500000D01*
X128500000Y-51500000D02*
X128500000Y-64500000D01*
X139000000Y-75000000D02*
X146500000Y-75000000D01*
X128500000Y-64500000D02*
X139000000Y-75000000D01*
X117500000Y-40500000D02*
X128500000Y-51500000D01*
X146500000Y-75000000D02*
X175000000Y-103500000D01*
X175000000Y-103500000D02*
X175000000Y-112000000D01*
X108500000Y-53750000D02*
X106000000Y-53750000D01*
X102500000Y-57250000D02*
X102500000Y-79500000D01*
X106000000Y-53750000D02*
X102500000Y-57250000D01*
X111500000Y-40500000D02*
X111500000Y-50750000D01*
X111500000Y-50750000D02*
X108500000Y-53750000D01*
X102500000Y-79500000D02*
X105000000Y-82000000D01*
X108250000Y-53000000D02*
X105500000Y-53000000D01*
X101500000Y-57000000D02*
X101500000Y-81000000D01*
X105500000Y-53000000D02*
X101500000Y-57000000D01*
X110500000Y-40500000D02*
X110500000Y-50750000D01*
X110500000Y-50750000D02*
X108250000Y-53000000D01*
X101500000Y-81000000D02*
X102500000Y-82000000D01*
X111500000Y-62000000D02*
X125000000Y-75500000D01*
X125000000Y-75500000D02*
X135250000Y-75500000D01*
X135250000Y-75500000D02*
X144750000Y-85000000D01*
X119500000Y-62000000D02*
X119500000Y-57500000D01*
X119500000Y-57500000D02*
X117500000Y-55500000D01*
X104500000Y-58750000D02*
X104500000Y-64000000D01*
X117500000Y-55500000D02*
X107750000Y-55500000D01*
X107750000Y-55500000D02*
X104500000Y-58750000D01*
X104500000Y-64000000D02*
X119500000Y-79000000D01*
X119500000Y-79000000D02*
X119500000Y-85750000D01*
X119500000Y-85750000D02*
X100000000Y-105250000D01*
X100000000Y-105250000D02*
X100000000Y-107000000D01*
X130000000Y-80750000D02*
X126500000Y-77250000D01*
X126500000Y-77250000D02*
X120750000Y-77250000D01*
X120750000Y-77250000D02*
X106500000Y-63000000D01*
X106500000Y-63000000D02*
X106500000Y-59000000D01*
X106500000Y-59000000D02*
X108500000Y-57000000D01*
X108500000Y-57000000D02*
X117000000Y-57000000D01*
X117000000Y-57000000D02*
X117500000Y-57500000D01*
X117500000Y-57500000D02*
X117500000Y-62000000D01*
X126250000Y-81750000D02*
X102500000Y-105500000D01*
X126250000Y-81750000D02*
X129000000Y-81750000D01*
X129000000Y-81750000D02*
X130000000Y-80750000D01*
X102500000Y-105500000D02*
X102500000Y-107000000D01*
X126000000Y-80750000D02*
X101250000Y-105500000D01*
X102000000Y-109000000D02*
X103000000Y-109000000D01*
X101250000Y-105500000D02*
X101250000Y-108250000D01*
X101250000Y-108250000D02*
X102000000Y-109000000D01*
X103000000Y-109000000D02*
X105000000Y-107000000D01*
X121500000Y-79500000D02*
X124750000Y-79500000D01*
X126000000Y-80750000D02*
X125700001Y-80450001D01*
X125700001Y-80450001D02*
X124750000Y-79500000D01*
X118500000Y-62000000D02*
X118500000Y-57500000D01*
X118500000Y-57500000D02*
X117250000Y-56250000D01*
X117250000Y-56250000D02*
X108000000Y-56250000D01*
X108000000Y-56250000D02*
X105500000Y-58750000D01*
X105500000Y-58750000D02*
X105500000Y-63500000D01*
X105500000Y-63500000D02*
X121500000Y-79500000D01*
M02*
