M48
;DRILL file {KiCad 4.0.7-e2-6376~61~ubuntu18.04.1} date Thu Aug  9 16:35:47 2018
;FORMAT={-:-/ absolute / metric / decimal}
FMAT,2
METRIC,TZ
T1C0.300
T2C0.400
T3C0.500
T4C0.600
T5C0.850
T6C1.000
T7C3.500
%
G90
G05
M71
T1
X110.75Y-27.5
X157.5Y-42.
T2
X99.Y-65.
X99.Y-70.
X99.Y-75.
X99.Y-91.25
X99.Y-124.
X99.25Y-102.
X99.5Y-43.5
X100.Y-49.5
X100.Y-54.75
X100.Y-60.25
X100.Y-107.
X102.5Y-43.5
X102.5Y-82.
X102.5Y-91.
X102.5Y-107.
X102.5Y-116.
X103.Y-47.5
X103.Y-49.5
X105.Y-82.
X105.Y-107.
X107.5Y-91.
X107.5Y-116.
X108.5Y-40.5
X108.5Y-62.
X109.5Y-37.25
X109.5Y-62.
X110.5Y-40.5
X111.5Y-40.5
X111.5Y-62.
X112.5Y-40.5
X112.75Y-75.
X113.5Y-40.5
X116.5Y-30.
X117.5Y-40.5
X117.5Y-62.
X117.5Y-70.
X117.5Y-84.5
X118.5Y-40.5
X118.5Y-62.
X119.5Y-62.
X120.5Y-40.5
X121.Y-83.
X121.5Y-40.5
X121.5Y-62.
X122.5Y-40.5
X122.5Y-62.
X123.Y-92.
X123.Y-117.
X123.5Y-40.5
X125.Y-63.5
X126.Y-79.25
X126.Y-80.75
X127.5Y-70.
X128.Y-72.5
X130.Y-80.75
X132.Y-40.5
X132.Y-62.
X132.Y-82.25
X133.Y-40.5
X133.Y-62.
X137.5Y-118.5
X137.5Y-123.5
X137.5Y-129.
X139.Y-65.
X140.Y-40.5
X140.Y-62.
X140.5Y-67.
X140.5Y-77.5
X141.Y-40.5
X141.Y-62.
X143.Y-70.
X143.Y-115.
X144.75Y-85.
X145.5Y-70.
X146.75Y-123.75
X148.Y-70.
X149.25Y-48.25
X149.25Y-50.5
X150.Y-82.5
X151.75Y-55.5
X151.75Y-60.75
X151.75Y-123.75
X156.25Y-133.
X157.5Y-131.
X158.25Y-123.75
X159.75Y-49.25
X161.Y-132.
X163.25Y-123.75
X163.25Y-132.
X165.75Y-132.
X166.5Y-49.25
X167.Y-119.
X171.5Y-119.25
X171.5Y-127.25
X175.Y-112.
X177.5Y-112.
X177.5Y-120.
X182.5Y-120.
X198.Y-117.
T5
X152.5Y-134.9
X157.5Y-134.9
T6
X148.92Y-115.
X151.46Y-115.
X154.Y-115.
X156.54Y-115.
X159.08Y-115.
X161.62Y-115.
X168.5Y-106.1
X181.3Y-106.1
T7
X114.5Y-136.
X120.5Y-136.
X189.5Y-136.
X195.5Y-136.
T3
X151.85Y-128.75G85X152.55Y-128.75
G05
X154.45Y-130.9G85X155.55Y-130.9
G05
X157.45Y-128.75G85X158.15Y-128.75
G05
T4
X151.5Y-137.95G85X151.5Y-137.25
G05
X158.5Y-137.25G85X158.5Y-137.95
G05
T0
M30
