G04 #@! TF.FileFunction,Other,User*
%FSLAX46Y46*%
G04 Gerber Fmt 4.6, Leading zero omitted, Abs format (unit mm)*
G04 Created by KiCad (PCBNEW 4.0.7-e2-6376~61~ubuntu18.04.1) date Thu Aug  9 16:35:42 2018*
%MOMM*%
%LPD*%
G01*
G04 APERTURE LIST*
%ADD10C,0.100000*%
%ADD11C,0.050000*%
G04 APERTURE END LIST*
D10*
D11*
X133000000Y-121450000D02*
X125250000Y-121450000D01*
X125250000Y-121450000D02*
X125250000Y-126550000D01*
X125250000Y-126550000D02*
X133000000Y-126550000D01*
X133000000Y-126550000D02*
X133000000Y-121450000D01*
X150500000Y-131955000D02*
X150500000Y-127695000D01*
X150500000Y-127695000D02*
X159500000Y-127695000D01*
X150500000Y-131955000D02*
X159500000Y-131955000D01*
X159500000Y-131955000D02*
X159500000Y-127695000D01*
X181500000Y-121100000D02*
X178500000Y-121100000D01*
X181500000Y-118900000D02*
X178500000Y-118900000D01*
X181500000Y-121100000D02*
X181500000Y-118900000D01*
X178500000Y-118900000D02*
X178500000Y-121100000D01*
X106500000Y-92100000D02*
X103500000Y-92100000D01*
X106500000Y-89900000D02*
X103500000Y-89900000D01*
X106500000Y-92100000D02*
X106500000Y-89900000D01*
X103500000Y-89900000D02*
X103500000Y-92100000D01*
X150750000Y-124850000D02*
X147750000Y-124850000D01*
X150750000Y-122650000D02*
X147750000Y-122650000D01*
X150750000Y-124850000D02*
X150750000Y-122650000D01*
X147750000Y-122650000D02*
X147750000Y-124850000D01*
X162250000Y-124850000D02*
X159250000Y-124850000D01*
X162250000Y-122650000D02*
X159250000Y-122650000D01*
X162250000Y-124850000D02*
X162250000Y-122650000D01*
X159250000Y-122650000D02*
X159250000Y-124850000D01*
X106500000Y-117100000D02*
X103500000Y-117100000D01*
X106500000Y-114900000D02*
X103500000Y-114900000D01*
X106500000Y-117100000D02*
X106500000Y-114900000D01*
X103500000Y-114900000D02*
X103500000Y-117100000D01*
X147120000Y-116800000D02*
X163420000Y-116800000D01*
X163420000Y-116800000D02*
X163420000Y-113200000D01*
X163420000Y-113200000D02*
X147120000Y-113200000D01*
X147120000Y-113200000D02*
X147120000Y-116800000D01*
X143578362Y-83258194D02*
X147278362Y-83258194D01*
X143578362Y-76858194D02*
X147278362Y-76858194D01*
X143578362Y-83258194D02*
X143578362Y-76858194D01*
X147278362Y-83258194D02*
X147278362Y-76858194D01*
X109650000Y-21900000D02*
X125150000Y-21900000D01*
X125150000Y-21900000D02*
X125150000Y-27850000D01*
X125150000Y-27850000D02*
X109650000Y-27850000D01*
X109650000Y-27850000D02*
X109650000Y-21900000D01*
X137600000Y-77350000D02*
X137600000Y-82500000D01*
X137600000Y-82500000D02*
X133900000Y-82500000D01*
X133900000Y-82500000D02*
X133900000Y-77350000D01*
X133900000Y-77350000D02*
X137600000Y-77350000D01*
X150600000Y-140000000D02*
X159400000Y-140000000D01*
X159400000Y-133900000D02*
X159400000Y-140000000D01*
X150600000Y-133900000D02*
X159400000Y-133900000D01*
X150600000Y-140000000D02*
X150600000Y-133900000D01*
X156000000Y-21000000D02*
X201000000Y-21000000D01*
X201000000Y-21000000D02*
X201000000Y-44000000D01*
X201000000Y-44000000D02*
X156000000Y-44000000D01*
X156000000Y-44000000D02*
X156000000Y-21000000D01*
X129250000Y-78750000D02*
X126750000Y-78750000D01*
X129250000Y-81250000D02*
X126750000Y-81250000D01*
X129250000Y-78750000D02*
X129250000Y-81250000D01*
X126750000Y-78750000D02*
X126750000Y-81250000D01*
X112000000Y-70950000D02*
X108000000Y-70950000D01*
X108000000Y-70950000D02*
X108000000Y-69050000D01*
X112000000Y-69050000D02*
X108000000Y-69050000D01*
X112000000Y-70950000D02*
X112000000Y-69050000D01*
X141000000Y-121550000D02*
X145000000Y-121550000D01*
X145000000Y-121550000D02*
X145000000Y-123450000D01*
X141000000Y-123450000D02*
X145000000Y-123450000D01*
X141000000Y-121550000D02*
X141000000Y-123450000D01*
X141000000Y-126550000D02*
X145000000Y-126550000D01*
X145000000Y-126550000D02*
X145000000Y-128450000D01*
X141000000Y-128450000D02*
X145000000Y-128450000D01*
X141000000Y-126550000D02*
X141000000Y-128450000D01*
X141000000Y-124050000D02*
X145000000Y-124050000D01*
X145000000Y-124050000D02*
X145000000Y-125950000D01*
X141000000Y-125950000D02*
X145000000Y-125950000D01*
X141000000Y-124050000D02*
X141000000Y-125950000D01*
X127000000Y-73450000D02*
X123000000Y-73450000D01*
X123000000Y-73450000D02*
X123000000Y-71550000D01*
X127000000Y-71550000D02*
X123000000Y-71550000D01*
X127000000Y-73450000D02*
X127000000Y-71550000D01*
M02*
