%FSLAX45Y45*%
G04 Gerber Fmt 4.5, Leading zero omitted, Abs format (unit mm)*
G04 Created by KiCad (PCBNEW 4.0.7-e2-6376~61~ubuntu18.04.1) date Thu Aug  9 16:35:48 2018*
%MOMM*%
%LPD*%
G01*
G04 APERTURE LIST*
%ADD10C,0.127000*%
%ADD11C,0.100000*%
%ADD12C,0.200000*%
%ADD13C,0.300000*%
G04 APERTURE END LIST*
D10*
D11*
X20100000Y-2650000D02*
G75*
G03X20850000Y-3400000I750000J0D01*
G01*
X20850000Y-12600000D02*
G75*
G03X20100000Y-13350000I0J-750000D01*
G01*
X10900000Y-13350000D02*
G75*
G03X10150000Y-12600000I-750000J0D01*
G01*
X10150000Y-3400000D02*
G75*
G03X10900000Y-2650000I0J750000D01*
G01*
X20100000Y-13350000D02*
X20100000Y-13900000D01*
X21400000Y-12600000D02*
X20850000Y-12600000D01*
X21400000Y-3400000D02*
X21400000Y-12600000D01*
X20850000Y-3400000D02*
X21400000Y-3400000D01*
X20100000Y-2100000D02*
X20100000Y-2650000D01*
X10900000Y-2100000D02*
X20100000Y-2100000D01*
X10900000Y-2650000D02*
X10900000Y-2100000D01*
X9600000Y-3400000D02*
X10150000Y-3400000D01*
X9600000Y-12600000D02*
X9600000Y-3400000D01*
X10150000Y-12600000D02*
X9600000Y-12600000D01*
X10900000Y-13900000D02*
X10900000Y-13350000D01*
X10900000Y-13900000D02*
X20100000Y-13900000D01*
D12*
X11060000Y-2735000D02*
X11090000Y-2765000D01*
X11090000Y-2735000D02*
X11060000Y-2765000D01*
X15735000Y-4185000D02*
X15765000Y-4215000D01*
X15765000Y-4185000D02*
X15735000Y-4215000D01*
X9920000Y-6500000D02*
G75*
G03X9920000Y-6500000I-20000J0D01*
G01*
X9920000Y-7000000D02*
G75*
G03X9920000Y-7000000I-20000J0D01*
G01*
X9920000Y-7500000D02*
G75*
G03X9920000Y-7500000I-20000J0D01*
G01*
X9920000Y-9125000D02*
G75*
G03X9920000Y-9125000I-20000J0D01*
G01*
X9920000Y-12400000D02*
G75*
G03X9920000Y-12400000I-20000J0D01*
G01*
X9945000Y-10200000D02*
G75*
G03X9945000Y-10200000I-20000J0D01*
G01*
X9970000Y-4350000D02*
G75*
G03X9970000Y-4350000I-20000J0D01*
G01*
X10020000Y-4950000D02*
G75*
G03X10020000Y-4950000I-20000J0D01*
G01*
X10020000Y-5475000D02*
G75*
G03X10020000Y-5475000I-20000J0D01*
G01*
X10020000Y-6025000D02*
G75*
G03X10020000Y-6025000I-20000J0D01*
G01*
X10020000Y-10700000D02*
G75*
G03X10020000Y-10700000I-20000J0D01*
G01*
X10270000Y-4350000D02*
G75*
G03X10270000Y-4350000I-20000J0D01*
G01*
X10270000Y-8200000D02*
G75*
G03X10270000Y-8200000I-20000J0D01*
G01*
X10270000Y-9100000D02*
G75*
G03X10270000Y-9100000I-20000J0D01*
G01*
X10270000Y-10700000D02*
G75*
G03X10270000Y-10700000I-20000J0D01*
G01*
X10270000Y-11600000D02*
G75*
G03X10270000Y-11600000I-20000J0D01*
G01*
X10320000Y-4750000D02*
G75*
G03X10320000Y-4750000I-20000J0D01*
G01*
X10320000Y-4950000D02*
G75*
G03X10320000Y-4950000I-20000J0D01*
G01*
X10520000Y-8200000D02*
G75*
G03X10520000Y-8200000I-20000J0D01*
G01*
X10520000Y-10700000D02*
G75*
G03X10520000Y-10700000I-20000J0D01*
G01*
X10770000Y-9100000D02*
G75*
G03X10770000Y-9100000I-20000J0D01*
G01*
X10770000Y-11600000D02*
G75*
G03X10770000Y-11600000I-20000J0D01*
G01*
X10870000Y-4050000D02*
G75*
G03X10870000Y-4050000I-20000J0D01*
G01*
X10870000Y-6200000D02*
G75*
G03X10870000Y-6200000I-20000J0D01*
G01*
X10970000Y-3725000D02*
G75*
G03X10970000Y-3725000I-20000J0D01*
G01*
X10970000Y-6200000D02*
G75*
G03X10970000Y-6200000I-20000J0D01*
G01*
X11070000Y-4050000D02*
G75*
G03X11070000Y-4050000I-20000J0D01*
G01*
X11170000Y-4050000D02*
G75*
G03X11170000Y-4050000I-20000J0D01*
G01*
X11170000Y-6200000D02*
G75*
G03X11170000Y-6200000I-20000J0D01*
G01*
X11270000Y-4050000D02*
G75*
G03X11270000Y-4050000I-20000J0D01*
G01*
X11295000Y-7500000D02*
G75*
G03X11295000Y-7500000I-20000J0D01*
G01*
X11370000Y-4050000D02*
G75*
G03X11370000Y-4050000I-20000J0D01*
G01*
X11670000Y-3000000D02*
G75*
G03X11670000Y-3000000I-20000J0D01*
G01*
X11770000Y-4050000D02*
G75*
G03X11770000Y-4050000I-20000J0D01*
G01*
X11770000Y-6200000D02*
G75*
G03X11770000Y-6200000I-20000J0D01*
G01*
X11770000Y-7000000D02*
G75*
G03X11770000Y-7000000I-20000J0D01*
G01*
X11770000Y-8450000D02*
G75*
G03X11770000Y-8450000I-20000J0D01*
G01*
X11870000Y-4050000D02*
G75*
G03X11870000Y-4050000I-20000J0D01*
G01*
X11870000Y-6200000D02*
G75*
G03X11870000Y-6200000I-20000J0D01*
G01*
X11970000Y-6200000D02*
G75*
G03X11970000Y-6200000I-20000J0D01*
G01*
X12070000Y-4050000D02*
G75*
G03X12070000Y-4050000I-20000J0D01*
G01*
X12120000Y-8300000D02*
G75*
G03X12120000Y-8300000I-20000J0D01*
G01*
X12170000Y-4050000D02*
G75*
G03X12170000Y-4050000I-20000J0D01*
G01*
X12170000Y-6200000D02*
G75*
G03X12170000Y-6200000I-20000J0D01*
G01*
X12270000Y-4050000D02*
G75*
G03X12270000Y-4050000I-20000J0D01*
G01*
X12270000Y-6200000D02*
G75*
G03X12270000Y-6200000I-20000J0D01*
G01*
X12320000Y-9200000D02*
G75*
G03X12320000Y-9200000I-20000J0D01*
G01*
X12320000Y-11700000D02*
G75*
G03X12320000Y-11700000I-20000J0D01*
G01*
X12370000Y-4050000D02*
G75*
G03X12370000Y-4050000I-20000J0D01*
G01*
X12520000Y-6350000D02*
G75*
G03X12520000Y-6350000I-20000J0D01*
G01*
X12620000Y-7925000D02*
G75*
G03X12620000Y-7925000I-20000J0D01*
G01*
X12620000Y-8075000D02*
G75*
G03X12620000Y-8075000I-20000J0D01*
G01*
X12770000Y-7000000D02*
G75*
G03X12770000Y-7000000I-20000J0D01*
G01*
X12820000Y-7250000D02*
G75*
G03X12820000Y-7250000I-20000J0D01*
G01*
X13020000Y-8075000D02*
G75*
G03X13020000Y-8075000I-20000J0D01*
G01*
X13220000Y-4050000D02*
G75*
G03X13220000Y-4050000I-20000J0D01*
G01*
X13220000Y-6200000D02*
G75*
G03X13220000Y-6200000I-20000J0D01*
G01*
X13220000Y-8225000D02*
G75*
G03X13220000Y-8225000I-20000J0D01*
G01*
X13320000Y-4050000D02*
G75*
G03X13320000Y-4050000I-20000J0D01*
G01*
X13320000Y-6200000D02*
G75*
G03X13320000Y-6200000I-20000J0D01*
G01*
X13770000Y-11850000D02*
G75*
G03X13770000Y-11850000I-20000J0D01*
G01*
X13770000Y-12350000D02*
G75*
G03X13770000Y-12350000I-20000J0D01*
G01*
X13770000Y-12900000D02*
G75*
G03X13770000Y-12900000I-20000J0D01*
G01*
X13920000Y-6500000D02*
G75*
G03X13920000Y-6500000I-20000J0D01*
G01*
X14020000Y-4050000D02*
G75*
G03X14020000Y-4050000I-20000J0D01*
G01*
X14020000Y-6200000D02*
G75*
G03X14020000Y-6200000I-20000J0D01*
G01*
X14070000Y-6700000D02*
G75*
G03X14070000Y-6700000I-20000J0D01*
G01*
X14070000Y-7750000D02*
G75*
G03X14070000Y-7750000I-20000J0D01*
G01*
X14120000Y-4050000D02*
G75*
G03X14120000Y-4050000I-20000J0D01*
G01*
X14120000Y-6200000D02*
G75*
G03X14120000Y-6200000I-20000J0D01*
G01*
X14320000Y-7000000D02*
G75*
G03X14320000Y-7000000I-20000J0D01*
G01*
X14320000Y-11500000D02*
G75*
G03X14320000Y-11500000I-20000J0D01*
G01*
X14495000Y-8500000D02*
G75*
G03X14495000Y-8500000I-20000J0D01*
G01*
X14570000Y-7000000D02*
G75*
G03X14570000Y-7000000I-20000J0D01*
G01*
X14695000Y-12375000D02*
G75*
G03X14695000Y-12375000I-20000J0D01*
G01*
X14820000Y-7000000D02*
G75*
G03X14820000Y-7000000I-20000J0D01*
G01*
X14945000Y-4825000D02*
G75*
G03X14945000Y-4825000I-20000J0D01*
G01*
X14945000Y-5050000D02*
G75*
G03X14945000Y-5050000I-20000J0D01*
G01*
X15020000Y-8250000D02*
G75*
G03X15020000Y-8250000I-20000J0D01*
G01*
X15195000Y-5550000D02*
G75*
G03X15195000Y-5550000I-20000J0D01*
G01*
X15195000Y-6075000D02*
G75*
G03X15195000Y-6075000I-20000J0D01*
G01*
X15195000Y-12375000D02*
G75*
G03X15195000Y-12375000I-20000J0D01*
G01*
X15645000Y-13300000D02*
G75*
G03X15645000Y-13300000I-20000J0D01*
G01*
X15770000Y-13100000D02*
G75*
G03X15770000Y-13100000I-20000J0D01*
G01*
X15845000Y-12375000D02*
G75*
G03X15845000Y-12375000I-20000J0D01*
G01*
X15995000Y-4925000D02*
G75*
G03X15995000Y-4925000I-20000J0D01*
G01*
X16120000Y-13200000D02*
G75*
G03X16120000Y-13200000I-20000J0D01*
G01*
X16345000Y-12375000D02*
G75*
G03X16345000Y-12375000I-20000J0D01*
G01*
X16345000Y-13200000D02*
G75*
G03X16345000Y-13200000I-20000J0D01*
G01*
X16595000Y-13200000D02*
G75*
G03X16595000Y-13200000I-20000J0D01*
G01*
X16670000Y-4925000D02*
G75*
G03X16670000Y-4925000I-20000J0D01*
G01*
X16720000Y-11900000D02*
G75*
G03X16720000Y-11900000I-20000J0D01*
G01*
X17170000Y-11925000D02*
G75*
G03X17170000Y-11925000I-20000J0D01*
G01*
X17170000Y-12725000D02*
G75*
G03X17170000Y-12725000I-20000J0D01*
G01*
X17520000Y-11200000D02*
G75*
G03X17520000Y-11200000I-20000J0D01*
G01*
X17770000Y-11200000D02*
G75*
G03X17770000Y-11200000I-20000J0D01*
G01*
X17770000Y-12000000D02*
G75*
G03X17770000Y-12000000I-20000J0D01*
G01*
X18270000Y-12000000D02*
G75*
G03X18270000Y-12000000I-20000J0D01*
G01*
X19820000Y-11700000D02*
G75*
G03X19820000Y-11700000I-20000J0D01*
G01*
X15220000Y-12850000D02*
X15220000Y-12900000D01*
X15195000Y-12875000D02*
X15245000Y-12875000D01*
X15185000Y-12890000D02*
X15255000Y-12890000D01*
X15185000Y-12860000D02*
X15255000Y-12860000D01*
X15255000Y-12890000D02*
G75*
G03X15255000Y-12860000I0J15000D01*
G01*
X15185000Y-12860000D02*
G75*
G03X15185000Y-12890000I0J-15000D01*
G01*
X15500000Y-13065000D02*
X15500000Y-13115000D01*
X15475000Y-13090000D02*
X15525000Y-13090000D01*
X15445000Y-13105000D02*
X15555000Y-13105000D01*
X15445000Y-13075000D02*
X15555000Y-13075000D01*
X15555000Y-13105000D02*
G75*
G03X15555000Y-13075000I0J15000D01*
G01*
X15445000Y-13075000D02*
G75*
G03X15445000Y-13105000I0J-15000D01*
G01*
X15780000Y-12850000D02*
X15780000Y-12900000D01*
X15755000Y-12875000D02*
X15805000Y-12875000D01*
X15745000Y-12890000D02*
X15815000Y-12890000D01*
X15745000Y-12860000D02*
X15815000Y-12860000D01*
X15815000Y-12890000D02*
G75*
G03X15815000Y-12860000I0J15000D01*
G01*
X15745000Y-12860000D02*
G75*
G03X15745000Y-12890000I0J-15000D01*
G01*
X15171213Y-13781213D02*
X15171213Y-13738787D01*
X15128787Y-13738787D01*
X15128787Y-13781213D01*
X15171213Y-13781213D01*
X15170000Y-13795000D02*
X15170000Y-13725000D01*
X15130000Y-13795000D02*
X15130000Y-13725000D01*
X15170000Y-13725000D02*
G75*
G03X15130000Y-13725000I-20000J0D01*
G01*
X15130000Y-13795000D02*
G75*
G03X15170000Y-13795000I20000J0D01*
G01*
X15871213Y-13781213D02*
X15871213Y-13738787D01*
X15828787Y-13738787D01*
X15828787Y-13781213D01*
X15871213Y-13781213D01*
X15830000Y-13725000D02*
X15830000Y-13795000D01*
X15870000Y-13725000D02*
X15870000Y-13795000D01*
X15830000Y-13795000D02*
G75*
G03X15870000Y-13795000I20000J0D01*
G01*
X15870000Y-13725000D02*
G75*
G03X15830000Y-13725000I-20000J0D01*
G01*
X15250000Y-13532500D02*
X15292500Y-13490000D01*
X15250000Y-13447500D01*
X15207500Y-13490000D01*
X15250000Y-13532500D01*
X15750000Y-13532500D02*
X15792500Y-13490000D01*
X15750000Y-13447500D01*
X15707500Y-13490000D01*
X15750000Y-13532500D01*
X14842000Y-11450000D02*
X14942000Y-11550000D01*
X14942000Y-11450000D02*
X14842000Y-11550000D01*
X14942000Y-11500000D02*
G75*
G03X14942000Y-11500000I-50000J0D01*
G01*
X15096000Y-11450000D02*
X15196000Y-11550000D01*
X15196000Y-11450000D02*
X15096000Y-11550000D01*
X15196000Y-11500000D02*
G75*
G03X15196000Y-11500000I-50000J0D01*
G01*
X15350000Y-11450000D02*
X15450000Y-11550000D01*
X15450000Y-11450000D02*
X15350000Y-11550000D01*
X15450000Y-11500000D02*
G75*
G03X15450000Y-11500000I-50000J0D01*
G01*
X15604000Y-11450000D02*
X15704000Y-11550000D01*
X15704000Y-11450000D02*
X15604000Y-11550000D01*
X15704000Y-11500000D02*
G75*
G03X15704000Y-11500000I-50000J0D01*
G01*
X15858000Y-11450000D02*
X15958000Y-11550000D01*
X15958000Y-11450000D02*
X15858000Y-11550000D01*
X15958000Y-11500000D02*
G75*
G03X15958000Y-11500000I-50000J0D01*
G01*
X16112000Y-11450000D02*
X16212000Y-11550000D01*
X16212000Y-11450000D02*
X16112000Y-11550000D01*
X16212000Y-11500000D02*
G75*
G03X16212000Y-11500000I-50000J0D01*
G01*
X16800000Y-10560000D02*
X16900000Y-10660000D01*
X16900000Y-10560000D02*
X16800000Y-10660000D01*
X16900000Y-10610000D02*
G75*
G03X16900000Y-10610000I-50000J0D01*
G01*
X18080000Y-10560000D02*
X18180000Y-10660000D01*
X18180000Y-10560000D02*
X18080000Y-10660000D01*
X18180000Y-10610000D02*
G75*
G03X18180000Y-10610000I-50000J0D01*
G01*
X11275000Y-13425000D02*
X11625000Y-13775000D01*
X11625000Y-13425000D02*
X11275000Y-13775000D01*
X11450000Y-13425000D02*
X11450000Y-13775000D01*
X11275000Y-13600000D02*
X11625000Y-13600000D01*
X11875000Y-13425000D02*
X12225000Y-13775000D01*
X12225000Y-13425000D02*
X11875000Y-13775000D01*
X12050000Y-13425000D02*
X12050000Y-13775000D01*
X11875000Y-13600000D02*
X12225000Y-13600000D01*
X18775000Y-13425000D02*
X19125000Y-13775000D01*
X19125000Y-13425000D02*
X18775000Y-13775000D01*
X18950000Y-13425000D02*
X18950000Y-13775000D01*
X18775000Y-13600000D02*
X19125000Y-13600000D01*
X19375000Y-13425000D02*
X19725000Y-13775000D01*
X19725000Y-13425000D02*
X19375000Y-13775000D01*
X19550000Y-13425000D02*
X19550000Y-13775000D01*
X19375000Y-13600000D02*
X19725000Y-13600000D01*
D13*
X9866429Y-14370714D02*
X9866429Y-14070714D01*
X9937857Y-14070714D01*
X9980714Y-14085000D01*
X10009286Y-14113571D01*
X10023571Y-14142143D01*
X10037857Y-14199286D01*
X10037857Y-14242143D01*
X10023571Y-14299286D01*
X10009286Y-14327857D01*
X9980714Y-14356429D01*
X9937857Y-14370714D01*
X9866429Y-14370714D01*
X10166429Y-14370714D02*
X10166429Y-14170714D01*
X10166429Y-14227857D02*
X10180714Y-14199286D01*
X10195000Y-14185000D01*
X10223571Y-14170714D01*
X10252143Y-14170714D01*
X10352143Y-14370714D02*
X10352143Y-14170714D01*
X10352143Y-14070714D02*
X10337857Y-14085000D01*
X10352143Y-14099286D01*
X10366429Y-14085000D01*
X10352143Y-14070714D01*
X10352143Y-14099286D01*
X10537857Y-14370714D02*
X10509286Y-14356429D01*
X10495000Y-14327857D01*
X10495000Y-14070714D01*
X10695000Y-14370714D02*
X10666429Y-14356429D01*
X10652143Y-14327857D01*
X10652143Y-14070714D01*
X11037857Y-14370714D02*
X11037857Y-14070714D01*
X11137857Y-14285000D01*
X11237857Y-14070714D01*
X11237857Y-14370714D01*
X11509286Y-14370714D02*
X11509286Y-14213571D01*
X11495000Y-14185000D01*
X11466428Y-14170714D01*
X11409286Y-14170714D01*
X11380714Y-14185000D01*
X11509286Y-14356429D02*
X11480714Y-14370714D01*
X11409286Y-14370714D01*
X11380714Y-14356429D01*
X11366428Y-14327857D01*
X11366428Y-14299286D01*
X11380714Y-14270714D01*
X11409286Y-14256429D01*
X11480714Y-14256429D01*
X11509286Y-14242143D01*
X11652143Y-14170714D02*
X11652143Y-14470714D01*
X11652143Y-14185000D02*
X11680714Y-14170714D01*
X11737857Y-14170714D01*
X11766428Y-14185000D01*
X11780714Y-14199286D01*
X11795000Y-14227857D01*
X11795000Y-14313571D01*
X11780714Y-14342143D01*
X11766428Y-14356429D01*
X11737857Y-14370714D01*
X11680714Y-14370714D01*
X11652143Y-14356429D01*
X11923571Y-14342143D02*
X11937857Y-14356429D01*
X11923571Y-14370714D01*
X11909286Y-14356429D01*
X11923571Y-14342143D01*
X11923571Y-14370714D01*
X11923571Y-14185000D02*
X11937857Y-14199286D01*
X11923571Y-14213571D01*
X11909286Y-14199286D01*
X11923571Y-14185000D01*
X11923571Y-14213571D01*
X9565000Y-14850000D02*
X9595000Y-14880000D01*
X9595000Y-14850000D02*
X9565000Y-14880000D01*
X9923571Y-14700714D02*
X9952143Y-14700714D01*
X9980714Y-14715000D01*
X9995000Y-14729286D01*
X10009286Y-14757857D01*
X10023571Y-14815000D01*
X10023571Y-14886429D01*
X10009286Y-14943571D01*
X9995000Y-14972143D01*
X9980714Y-14986429D01*
X9952143Y-15000714D01*
X9923571Y-15000714D01*
X9895000Y-14986429D01*
X9880714Y-14972143D01*
X9866429Y-14943571D01*
X9852143Y-14886429D01*
X9852143Y-14815000D01*
X9866429Y-14757857D01*
X9880714Y-14729286D01*
X9895000Y-14715000D01*
X9923571Y-14700714D01*
X10152143Y-14972143D02*
X10166429Y-14986429D01*
X10152143Y-15000714D01*
X10137857Y-14986429D01*
X10152143Y-14972143D01*
X10152143Y-15000714D01*
X10266428Y-14700714D02*
X10452143Y-14700714D01*
X10352143Y-14815000D01*
X10395000Y-14815000D01*
X10423571Y-14829286D01*
X10437857Y-14843571D01*
X10452143Y-14872143D01*
X10452143Y-14943571D01*
X10437857Y-14972143D01*
X10423571Y-14986429D01*
X10395000Y-15000714D01*
X10309286Y-15000714D01*
X10280714Y-14986429D01*
X10266428Y-14972143D01*
X10637857Y-14700714D02*
X10666429Y-14700714D01*
X10695000Y-14715000D01*
X10709286Y-14729286D01*
X10723571Y-14757857D01*
X10737857Y-14815000D01*
X10737857Y-14886429D01*
X10723571Y-14943571D01*
X10709286Y-14972143D01*
X10695000Y-14986429D01*
X10666429Y-15000714D01*
X10637857Y-15000714D01*
X10609286Y-14986429D01*
X10595000Y-14972143D01*
X10580714Y-14943571D01*
X10566429Y-14886429D01*
X10566429Y-14815000D01*
X10580714Y-14757857D01*
X10595000Y-14729286D01*
X10609286Y-14715000D01*
X10637857Y-14700714D01*
X10866429Y-15000714D02*
X10866429Y-14800714D01*
X10866429Y-14829286D02*
X10880714Y-14815000D01*
X10909286Y-14800714D01*
X10952143Y-14800714D01*
X10980714Y-14815000D01*
X10995000Y-14843571D01*
X10995000Y-15000714D01*
X10995000Y-14843571D02*
X11009286Y-14815000D01*
X11037857Y-14800714D01*
X11080714Y-14800714D01*
X11109286Y-14815000D01*
X11123571Y-14843571D01*
X11123571Y-15000714D01*
X11266428Y-15000714D02*
X11266428Y-14800714D01*
X11266428Y-14829286D02*
X11280714Y-14815000D01*
X11309286Y-14800714D01*
X11352143Y-14800714D01*
X11380714Y-14815000D01*
X11395000Y-14843571D01*
X11395000Y-15000714D01*
X11395000Y-14843571D02*
X11409286Y-14815000D01*
X11437857Y-14800714D01*
X11480714Y-14800714D01*
X11509286Y-14815000D01*
X11523571Y-14843571D01*
X11523571Y-15000714D01*
X12109286Y-14686429D02*
X11852143Y-15072143D01*
X12495000Y-14700714D02*
X12523571Y-14700714D01*
X12552143Y-14715000D01*
X12566428Y-14729286D01*
X12580714Y-14757857D01*
X12595000Y-14815000D01*
X12595000Y-14886429D01*
X12580714Y-14943571D01*
X12566428Y-14972143D01*
X12552143Y-14986429D01*
X12523571Y-15000714D01*
X12495000Y-15000714D01*
X12466428Y-14986429D01*
X12452143Y-14972143D01*
X12437857Y-14943571D01*
X12423571Y-14886429D01*
X12423571Y-14815000D01*
X12437857Y-14757857D01*
X12452143Y-14729286D01*
X12466428Y-14715000D01*
X12495000Y-14700714D01*
X12723571Y-14972143D02*
X12737857Y-14986429D01*
X12723571Y-15000714D01*
X12709286Y-14986429D01*
X12723571Y-14972143D01*
X12723571Y-15000714D01*
X12923571Y-14700714D02*
X12952143Y-14700714D01*
X12980714Y-14715000D01*
X12995000Y-14729286D01*
X13009285Y-14757857D01*
X13023571Y-14815000D01*
X13023571Y-14886429D01*
X13009285Y-14943571D01*
X12995000Y-14972143D01*
X12980714Y-14986429D01*
X12952143Y-15000714D01*
X12923571Y-15000714D01*
X12895000Y-14986429D01*
X12880714Y-14972143D01*
X12866428Y-14943571D01*
X12852143Y-14886429D01*
X12852143Y-14815000D01*
X12866428Y-14757857D01*
X12880714Y-14729286D01*
X12895000Y-14715000D01*
X12923571Y-14700714D01*
X13309285Y-15000714D02*
X13137857Y-15000714D01*
X13223571Y-15000714D02*
X13223571Y-14700714D01*
X13195000Y-14743571D01*
X13166428Y-14772143D01*
X13137857Y-14786429D01*
X13423571Y-14729286D02*
X13437857Y-14715000D01*
X13466428Y-14700714D01*
X13537857Y-14700714D01*
X13566428Y-14715000D01*
X13580714Y-14729286D01*
X13595000Y-14757857D01*
X13595000Y-14786429D01*
X13580714Y-14829286D01*
X13409285Y-15000714D01*
X13595000Y-15000714D01*
X13709286Y-14700714D02*
X13709286Y-14757857D01*
X13823571Y-14700714D02*
X13823571Y-14757857D01*
X14266428Y-15115000D02*
X14252143Y-15100714D01*
X14223571Y-15057857D01*
X14209285Y-15029286D01*
X14195000Y-14986429D01*
X14180714Y-14915000D01*
X14180714Y-14857857D01*
X14195000Y-14786429D01*
X14209285Y-14743571D01*
X14223571Y-14715000D01*
X14252143Y-14672143D01*
X14266428Y-14657857D01*
X14366428Y-14729286D02*
X14380714Y-14715000D01*
X14409285Y-14700714D01*
X14480714Y-14700714D01*
X14509285Y-14715000D01*
X14523571Y-14729286D01*
X14537857Y-14757857D01*
X14537857Y-14786429D01*
X14523571Y-14829286D01*
X14352143Y-15000714D01*
X14537857Y-15000714D01*
X14895000Y-15000714D02*
X14895000Y-14700714D01*
X15023571Y-15000714D02*
X15023571Y-14843571D01*
X15009285Y-14815000D01*
X14980714Y-14800714D01*
X14937857Y-14800714D01*
X14909285Y-14815000D01*
X14895000Y-14829286D01*
X15209285Y-15000714D02*
X15180714Y-14986429D01*
X15166428Y-14972143D01*
X15152143Y-14943571D01*
X15152143Y-14857857D01*
X15166428Y-14829286D01*
X15180714Y-14815000D01*
X15209285Y-14800714D01*
X15252143Y-14800714D01*
X15280714Y-14815000D01*
X15295000Y-14829286D01*
X15309285Y-14857857D01*
X15309285Y-14943571D01*
X15295000Y-14972143D01*
X15280714Y-14986429D01*
X15252143Y-15000714D01*
X15209285Y-15000714D01*
X15480714Y-15000714D02*
X15452143Y-14986429D01*
X15437857Y-14957857D01*
X15437857Y-14700714D01*
X15709286Y-14986429D02*
X15680714Y-15000714D01*
X15623571Y-15000714D01*
X15595000Y-14986429D01*
X15580714Y-14957857D01*
X15580714Y-14843571D01*
X15595000Y-14815000D01*
X15623571Y-14800714D01*
X15680714Y-14800714D01*
X15709286Y-14815000D01*
X15723571Y-14843571D01*
X15723571Y-14872143D01*
X15580714Y-14900714D01*
X15837857Y-14986429D02*
X15866428Y-15000714D01*
X15923571Y-15000714D01*
X15952143Y-14986429D01*
X15966428Y-14957857D01*
X15966428Y-14943571D01*
X15952143Y-14915000D01*
X15923571Y-14900714D01*
X15880714Y-14900714D01*
X15852143Y-14886429D01*
X15837857Y-14857857D01*
X15837857Y-14843571D01*
X15852143Y-14815000D01*
X15880714Y-14800714D01*
X15923571Y-14800714D01*
X15952143Y-14815000D01*
X16066428Y-15115000D02*
X16080714Y-15100714D01*
X16109286Y-15057857D01*
X16123571Y-15029286D01*
X16137857Y-14986429D01*
X16152143Y-14915000D01*
X16152143Y-14857857D01*
X16137857Y-14786429D01*
X16123571Y-14743571D01*
X16109286Y-14715000D01*
X16080714Y-14672143D01*
X16066428Y-14657857D01*
X9595000Y-15261000D02*
G75*
G03X9595000Y-15261000I-20000J0D01*
G01*
X9923571Y-15096714D02*
X9952143Y-15096714D01*
X9980714Y-15111000D01*
X9995000Y-15125286D01*
X10009286Y-15153857D01*
X10023571Y-15211000D01*
X10023571Y-15282429D01*
X10009286Y-15339571D01*
X9995000Y-15368143D01*
X9980714Y-15382429D01*
X9952143Y-15396714D01*
X9923571Y-15396714D01*
X9895000Y-15382429D01*
X9880714Y-15368143D01*
X9866429Y-15339571D01*
X9852143Y-15282429D01*
X9852143Y-15211000D01*
X9866429Y-15153857D01*
X9880714Y-15125286D01*
X9895000Y-15111000D01*
X9923571Y-15096714D01*
X10152143Y-15368143D02*
X10166429Y-15382429D01*
X10152143Y-15396714D01*
X10137857Y-15382429D01*
X10152143Y-15368143D01*
X10152143Y-15396714D01*
X10423571Y-15196714D02*
X10423571Y-15396714D01*
X10352143Y-15082429D02*
X10280714Y-15296714D01*
X10466428Y-15296714D01*
X10637857Y-15096714D02*
X10666429Y-15096714D01*
X10695000Y-15111000D01*
X10709286Y-15125286D01*
X10723571Y-15153857D01*
X10737857Y-15211000D01*
X10737857Y-15282429D01*
X10723571Y-15339571D01*
X10709286Y-15368143D01*
X10695000Y-15382429D01*
X10666429Y-15396714D01*
X10637857Y-15396714D01*
X10609286Y-15382429D01*
X10595000Y-15368143D01*
X10580714Y-15339571D01*
X10566429Y-15282429D01*
X10566429Y-15211000D01*
X10580714Y-15153857D01*
X10595000Y-15125286D01*
X10609286Y-15111000D01*
X10637857Y-15096714D01*
X10866429Y-15396714D02*
X10866429Y-15196714D01*
X10866429Y-15225286D02*
X10880714Y-15211000D01*
X10909286Y-15196714D01*
X10952143Y-15196714D01*
X10980714Y-15211000D01*
X10995000Y-15239571D01*
X10995000Y-15396714D01*
X10995000Y-15239571D02*
X11009286Y-15211000D01*
X11037857Y-15196714D01*
X11080714Y-15196714D01*
X11109286Y-15211000D01*
X11123571Y-15239571D01*
X11123571Y-15396714D01*
X11266428Y-15396714D02*
X11266428Y-15196714D01*
X11266428Y-15225286D02*
X11280714Y-15211000D01*
X11309286Y-15196714D01*
X11352143Y-15196714D01*
X11380714Y-15211000D01*
X11395000Y-15239571D01*
X11395000Y-15396714D01*
X11395000Y-15239571D02*
X11409286Y-15211000D01*
X11437857Y-15196714D01*
X11480714Y-15196714D01*
X11509286Y-15211000D01*
X11523571Y-15239571D01*
X11523571Y-15396714D01*
X12109286Y-15082429D02*
X11852143Y-15468143D01*
X12495000Y-15096714D02*
X12523571Y-15096714D01*
X12552143Y-15111000D01*
X12566428Y-15125286D01*
X12580714Y-15153857D01*
X12595000Y-15211000D01*
X12595000Y-15282429D01*
X12580714Y-15339571D01*
X12566428Y-15368143D01*
X12552143Y-15382429D01*
X12523571Y-15396714D01*
X12495000Y-15396714D01*
X12466428Y-15382429D01*
X12452143Y-15368143D01*
X12437857Y-15339571D01*
X12423571Y-15282429D01*
X12423571Y-15211000D01*
X12437857Y-15153857D01*
X12452143Y-15125286D01*
X12466428Y-15111000D01*
X12495000Y-15096714D01*
X12723571Y-15368143D02*
X12737857Y-15382429D01*
X12723571Y-15396714D01*
X12709286Y-15382429D01*
X12723571Y-15368143D01*
X12723571Y-15396714D01*
X12923571Y-15096714D02*
X12952143Y-15096714D01*
X12980714Y-15111000D01*
X12995000Y-15125286D01*
X13009285Y-15153857D01*
X13023571Y-15211000D01*
X13023571Y-15282429D01*
X13009285Y-15339571D01*
X12995000Y-15368143D01*
X12980714Y-15382429D01*
X12952143Y-15396714D01*
X12923571Y-15396714D01*
X12895000Y-15382429D01*
X12880714Y-15368143D01*
X12866428Y-15339571D01*
X12852143Y-15282429D01*
X12852143Y-15211000D01*
X12866428Y-15153857D01*
X12880714Y-15125286D01*
X12895000Y-15111000D01*
X12923571Y-15096714D01*
X13309285Y-15396714D02*
X13137857Y-15396714D01*
X13223571Y-15396714D02*
X13223571Y-15096714D01*
X13195000Y-15139571D01*
X13166428Y-15168143D01*
X13137857Y-15182429D01*
X13566428Y-15096714D02*
X13509285Y-15096714D01*
X13480714Y-15111000D01*
X13466428Y-15125286D01*
X13437857Y-15168143D01*
X13423571Y-15225286D01*
X13423571Y-15339571D01*
X13437857Y-15368143D01*
X13452143Y-15382429D01*
X13480714Y-15396714D01*
X13537857Y-15396714D01*
X13566428Y-15382429D01*
X13580714Y-15368143D01*
X13595000Y-15339571D01*
X13595000Y-15268143D01*
X13580714Y-15239571D01*
X13566428Y-15225286D01*
X13537857Y-15211000D01*
X13480714Y-15211000D01*
X13452143Y-15225286D01*
X13437857Y-15239571D01*
X13423571Y-15268143D01*
X13709286Y-15096714D02*
X13709286Y-15153857D01*
X13823571Y-15096714D02*
X13823571Y-15153857D01*
X14266428Y-15511000D02*
X14252143Y-15496714D01*
X14223571Y-15453857D01*
X14209285Y-15425286D01*
X14195000Y-15382429D01*
X14180714Y-15311000D01*
X14180714Y-15253857D01*
X14195000Y-15182429D01*
X14209285Y-15139571D01*
X14223571Y-15111000D01*
X14252143Y-15068143D01*
X14266428Y-15053857D01*
X14395000Y-15396714D02*
X14452143Y-15396714D01*
X14480714Y-15382429D01*
X14495000Y-15368143D01*
X14523571Y-15325286D01*
X14537857Y-15268143D01*
X14537857Y-15153857D01*
X14523571Y-15125286D01*
X14509285Y-15111000D01*
X14480714Y-15096714D01*
X14423571Y-15096714D01*
X14395000Y-15111000D01*
X14380714Y-15125286D01*
X14366428Y-15153857D01*
X14366428Y-15225286D01*
X14380714Y-15253857D01*
X14395000Y-15268143D01*
X14423571Y-15282429D01*
X14480714Y-15282429D01*
X14509285Y-15268143D01*
X14523571Y-15253857D01*
X14537857Y-15225286D01*
X14680714Y-15396714D02*
X14737857Y-15396714D01*
X14766428Y-15382429D01*
X14780714Y-15368143D01*
X14809285Y-15325286D01*
X14823571Y-15268143D01*
X14823571Y-15153857D01*
X14809285Y-15125286D01*
X14795000Y-15111000D01*
X14766428Y-15096714D01*
X14709285Y-15096714D01*
X14680714Y-15111000D01*
X14666428Y-15125286D01*
X14652143Y-15153857D01*
X14652143Y-15225286D01*
X14666428Y-15253857D01*
X14680714Y-15268143D01*
X14709285Y-15282429D01*
X14766428Y-15282429D01*
X14795000Y-15268143D01*
X14809285Y-15253857D01*
X14823571Y-15225286D01*
X15180714Y-15396714D02*
X15180714Y-15096714D01*
X15309285Y-15396714D02*
X15309285Y-15239571D01*
X15295000Y-15211000D01*
X15266428Y-15196714D01*
X15223571Y-15196714D01*
X15195000Y-15211000D01*
X15180714Y-15225286D01*
X15495000Y-15396714D02*
X15466428Y-15382429D01*
X15452143Y-15368143D01*
X15437857Y-15339571D01*
X15437857Y-15253857D01*
X15452143Y-15225286D01*
X15466428Y-15211000D01*
X15495000Y-15196714D01*
X15537857Y-15196714D01*
X15566428Y-15211000D01*
X15580714Y-15225286D01*
X15595000Y-15253857D01*
X15595000Y-15339571D01*
X15580714Y-15368143D01*
X15566428Y-15382429D01*
X15537857Y-15396714D01*
X15495000Y-15396714D01*
X15766428Y-15396714D02*
X15737857Y-15382429D01*
X15723571Y-15353857D01*
X15723571Y-15096714D01*
X15995000Y-15382429D02*
X15966428Y-15396714D01*
X15909286Y-15396714D01*
X15880714Y-15382429D01*
X15866428Y-15353857D01*
X15866428Y-15239571D01*
X15880714Y-15211000D01*
X15909286Y-15196714D01*
X15966428Y-15196714D01*
X15995000Y-15211000D01*
X16009286Y-15239571D01*
X16009286Y-15268143D01*
X15866428Y-15296714D01*
X16123571Y-15382429D02*
X16152143Y-15396714D01*
X16209286Y-15396714D01*
X16237857Y-15382429D01*
X16252143Y-15353857D01*
X16252143Y-15339571D01*
X16237857Y-15311000D01*
X16209286Y-15296714D01*
X16166428Y-15296714D01*
X16137857Y-15282429D01*
X16123571Y-15253857D01*
X16123571Y-15239571D01*
X16137857Y-15211000D01*
X16166428Y-15196714D01*
X16209286Y-15196714D01*
X16237857Y-15211000D01*
X16352143Y-15511000D02*
X16366428Y-15496714D01*
X16395000Y-15453857D01*
X16409286Y-15425286D01*
X16423571Y-15382429D01*
X16437857Y-15311000D01*
X16437857Y-15253857D01*
X16423571Y-15182429D01*
X16409286Y-15139571D01*
X16395000Y-15111000D01*
X16366428Y-15068143D01*
X16352143Y-15053857D01*
X9570000Y-15632000D02*
X9570000Y-15682000D01*
X9545000Y-15657000D02*
X9595000Y-15657000D01*
X9923571Y-15492714D02*
X9952143Y-15492714D01*
X9980714Y-15507000D01*
X9995000Y-15521286D01*
X10009286Y-15549857D01*
X10023571Y-15607000D01*
X10023571Y-15678429D01*
X10009286Y-15735571D01*
X9995000Y-15764143D01*
X9980714Y-15778429D01*
X9952143Y-15792714D01*
X9923571Y-15792714D01*
X9895000Y-15778429D01*
X9880714Y-15764143D01*
X9866429Y-15735571D01*
X9852143Y-15678429D01*
X9852143Y-15607000D01*
X9866429Y-15549857D01*
X9880714Y-15521286D01*
X9895000Y-15507000D01*
X9923571Y-15492714D01*
X10152143Y-15764143D02*
X10166429Y-15778429D01*
X10152143Y-15792714D01*
X10137857Y-15778429D01*
X10152143Y-15764143D01*
X10152143Y-15792714D01*
X10437857Y-15492714D02*
X10295000Y-15492714D01*
X10280714Y-15635571D01*
X10295000Y-15621286D01*
X10323571Y-15607000D01*
X10395000Y-15607000D01*
X10423571Y-15621286D01*
X10437857Y-15635571D01*
X10452143Y-15664143D01*
X10452143Y-15735571D01*
X10437857Y-15764143D01*
X10423571Y-15778429D01*
X10395000Y-15792714D01*
X10323571Y-15792714D01*
X10295000Y-15778429D01*
X10280714Y-15764143D01*
X10637857Y-15492714D02*
X10666429Y-15492714D01*
X10695000Y-15507000D01*
X10709286Y-15521286D01*
X10723571Y-15549857D01*
X10737857Y-15607000D01*
X10737857Y-15678429D01*
X10723571Y-15735571D01*
X10709286Y-15764143D01*
X10695000Y-15778429D01*
X10666429Y-15792714D01*
X10637857Y-15792714D01*
X10609286Y-15778429D01*
X10595000Y-15764143D01*
X10580714Y-15735571D01*
X10566429Y-15678429D01*
X10566429Y-15607000D01*
X10580714Y-15549857D01*
X10595000Y-15521286D01*
X10609286Y-15507000D01*
X10637857Y-15492714D01*
X10866429Y-15792714D02*
X10866429Y-15592714D01*
X10866429Y-15621286D02*
X10880714Y-15607000D01*
X10909286Y-15592714D01*
X10952143Y-15592714D01*
X10980714Y-15607000D01*
X10995000Y-15635571D01*
X10995000Y-15792714D01*
X10995000Y-15635571D02*
X11009286Y-15607000D01*
X11037857Y-15592714D01*
X11080714Y-15592714D01*
X11109286Y-15607000D01*
X11123571Y-15635571D01*
X11123571Y-15792714D01*
X11266428Y-15792714D02*
X11266428Y-15592714D01*
X11266428Y-15621286D02*
X11280714Y-15607000D01*
X11309286Y-15592714D01*
X11352143Y-15592714D01*
X11380714Y-15607000D01*
X11395000Y-15635571D01*
X11395000Y-15792714D01*
X11395000Y-15635571D02*
X11409286Y-15607000D01*
X11437857Y-15592714D01*
X11480714Y-15592714D01*
X11509286Y-15607000D01*
X11523571Y-15635571D01*
X11523571Y-15792714D01*
X12109286Y-15478429D02*
X11852143Y-15864143D01*
X12495000Y-15492714D02*
X12523571Y-15492714D01*
X12552143Y-15507000D01*
X12566428Y-15521286D01*
X12580714Y-15549857D01*
X12595000Y-15607000D01*
X12595000Y-15678429D01*
X12580714Y-15735571D01*
X12566428Y-15764143D01*
X12552143Y-15778429D01*
X12523571Y-15792714D01*
X12495000Y-15792714D01*
X12466428Y-15778429D01*
X12452143Y-15764143D01*
X12437857Y-15735571D01*
X12423571Y-15678429D01*
X12423571Y-15607000D01*
X12437857Y-15549857D01*
X12452143Y-15521286D01*
X12466428Y-15507000D01*
X12495000Y-15492714D01*
X12723571Y-15764143D02*
X12737857Y-15778429D01*
X12723571Y-15792714D01*
X12709286Y-15778429D01*
X12723571Y-15764143D01*
X12723571Y-15792714D01*
X12923571Y-15492714D02*
X12952143Y-15492714D01*
X12980714Y-15507000D01*
X12995000Y-15521286D01*
X13009285Y-15549857D01*
X13023571Y-15607000D01*
X13023571Y-15678429D01*
X13009285Y-15735571D01*
X12995000Y-15764143D01*
X12980714Y-15778429D01*
X12952143Y-15792714D01*
X12923571Y-15792714D01*
X12895000Y-15778429D01*
X12880714Y-15764143D01*
X12866428Y-15735571D01*
X12852143Y-15678429D01*
X12852143Y-15607000D01*
X12866428Y-15549857D01*
X12880714Y-15521286D01*
X12895000Y-15507000D01*
X12923571Y-15492714D01*
X13137857Y-15521286D02*
X13152143Y-15507000D01*
X13180714Y-15492714D01*
X13252143Y-15492714D01*
X13280714Y-15507000D01*
X13295000Y-15521286D01*
X13309285Y-15549857D01*
X13309285Y-15578429D01*
X13295000Y-15621286D01*
X13123571Y-15792714D01*
X13309285Y-15792714D01*
X13495000Y-15492714D02*
X13523571Y-15492714D01*
X13552143Y-15507000D01*
X13566428Y-15521286D01*
X13580714Y-15549857D01*
X13595000Y-15607000D01*
X13595000Y-15678429D01*
X13580714Y-15735571D01*
X13566428Y-15764143D01*
X13552143Y-15778429D01*
X13523571Y-15792714D01*
X13495000Y-15792714D01*
X13466428Y-15778429D01*
X13452143Y-15764143D01*
X13437857Y-15735571D01*
X13423571Y-15678429D01*
X13423571Y-15607000D01*
X13437857Y-15549857D01*
X13452143Y-15521286D01*
X13466428Y-15507000D01*
X13495000Y-15492714D01*
X13709286Y-15492714D02*
X13709286Y-15549857D01*
X13823571Y-15492714D02*
X13823571Y-15549857D01*
X14266428Y-15907000D02*
X14252143Y-15892714D01*
X14223571Y-15849857D01*
X14209285Y-15821286D01*
X14195000Y-15778429D01*
X14180714Y-15707000D01*
X14180714Y-15649857D01*
X14195000Y-15578429D01*
X14209285Y-15535571D01*
X14223571Y-15507000D01*
X14252143Y-15464143D01*
X14266428Y-15449857D01*
X14437857Y-15492714D02*
X14466428Y-15492714D01*
X14495000Y-15507000D01*
X14509285Y-15521286D01*
X14523571Y-15549857D01*
X14537857Y-15607000D01*
X14537857Y-15678429D01*
X14523571Y-15735571D01*
X14509285Y-15764143D01*
X14495000Y-15778429D01*
X14466428Y-15792714D01*
X14437857Y-15792714D01*
X14409285Y-15778429D01*
X14395000Y-15764143D01*
X14380714Y-15735571D01*
X14366428Y-15678429D01*
X14366428Y-15607000D01*
X14380714Y-15549857D01*
X14395000Y-15521286D01*
X14409285Y-15507000D01*
X14437857Y-15492714D01*
X14895000Y-15792714D02*
X14895000Y-15492714D01*
X15023571Y-15792714D02*
X15023571Y-15635571D01*
X15009285Y-15607000D01*
X14980714Y-15592714D01*
X14937857Y-15592714D01*
X14909285Y-15607000D01*
X14895000Y-15621286D01*
X15209285Y-15792714D02*
X15180714Y-15778429D01*
X15166428Y-15764143D01*
X15152143Y-15735571D01*
X15152143Y-15649857D01*
X15166428Y-15621286D01*
X15180714Y-15607000D01*
X15209285Y-15592714D01*
X15252143Y-15592714D01*
X15280714Y-15607000D01*
X15295000Y-15621286D01*
X15309285Y-15649857D01*
X15309285Y-15735571D01*
X15295000Y-15764143D01*
X15280714Y-15778429D01*
X15252143Y-15792714D01*
X15209285Y-15792714D01*
X15480714Y-15792714D02*
X15452143Y-15778429D01*
X15437857Y-15749857D01*
X15437857Y-15492714D01*
X15709286Y-15778429D02*
X15680714Y-15792714D01*
X15623571Y-15792714D01*
X15595000Y-15778429D01*
X15580714Y-15749857D01*
X15580714Y-15635571D01*
X15595000Y-15607000D01*
X15623571Y-15592714D01*
X15680714Y-15592714D01*
X15709286Y-15607000D01*
X15723571Y-15635571D01*
X15723571Y-15664143D01*
X15580714Y-15692714D01*
X15837857Y-15778429D02*
X15866428Y-15792714D01*
X15923571Y-15792714D01*
X15952143Y-15778429D01*
X15966428Y-15749857D01*
X15966428Y-15735571D01*
X15952143Y-15707000D01*
X15923571Y-15692714D01*
X15880714Y-15692714D01*
X15852143Y-15678429D01*
X15837857Y-15649857D01*
X15837857Y-15635571D01*
X15852143Y-15607000D01*
X15880714Y-15592714D01*
X15923571Y-15592714D01*
X15952143Y-15607000D01*
X16323571Y-15678429D02*
X16552143Y-15678429D01*
X16437857Y-15792714D02*
X16437857Y-15564143D01*
X16895000Y-15492714D02*
X17080714Y-15492714D01*
X16980714Y-15607000D01*
X17023571Y-15607000D01*
X17052143Y-15621286D01*
X17066428Y-15635571D01*
X17080714Y-15664143D01*
X17080714Y-15735571D01*
X17066428Y-15764143D01*
X17052143Y-15778429D01*
X17023571Y-15792714D01*
X16937857Y-15792714D01*
X16909286Y-15778429D01*
X16895000Y-15764143D01*
X17423571Y-15778429D02*
X17452143Y-15792714D01*
X17509286Y-15792714D01*
X17537857Y-15778429D01*
X17552143Y-15749857D01*
X17552143Y-15735571D01*
X17537857Y-15707000D01*
X17509286Y-15692714D01*
X17466428Y-15692714D01*
X17437857Y-15678429D01*
X17423571Y-15649857D01*
X17423571Y-15635571D01*
X17437857Y-15607000D01*
X17466428Y-15592714D01*
X17509286Y-15592714D01*
X17537857Y-15607000D01*
X17723571Y-15792714D02*
X17695000Y-15778429D01*
X17680714Y-15749857D01*
X17680714Y-15492714D01*
X17880714Y-15792714D02*
X17852143Y-15778429D01*
X17837857Y-15764143D01*
X17823571Y-15735571D01*
X17823571Y-15649857D01*
X17837857Y-15621286D01*
X17852143Y-15607000D01*
X17880714Y-15592714D01*
X17923571Y-15592714D01*
X17952143Y-15607000D01*
X17966428Y-15621286D01*
X17980714Y-15649857D01*
X17980714Y-15735571D01*
X17966428Y-15764143D01*
X17952143Y-15778429D01*
X17923571Y-15792714D01*
X17880714Y-15792714D01*
X18066428Y-15592714D02*
X18180714Y-15592714D01*
X18109286Y-15492714D02*
X18109286Y-15749857D01*
X18123571Y-15778429D01*
X18152143Y-15792714D01*
X18180714Y-15792714D01*
X18266429Y-15778429D02*
X18295000Y-15792714D01*
X18352143Y-15792714D01*
X18380714Y-15778429D01*
X18395000Y-15749857D01*
X18395000Y-15735571D01*
X18380714Y-15707000D01*
X18352143Y-15692714D01*
X18309286Y-15692714D01*
X18280714Y-15678429D01*
X18266429Y-15649857D01*
X18266429Y-15635571D01*
X18280714Y-15607000D01*
X18309286Y-15592714D01*
X18352143Y-15592714D01*
X18380714Y-15607000D01*
X18495000Y-15907000D02*
X18509286Y-15892714D01*
X18537857Y-15849857D01*
X18552143Y-15821286D01*
X18566428Y-15778429D01*
X18580714Y-15707000D01*
X18580714Y-15649857D01*
X18566428Y-15578429D01*
X18552143Y-15535571D01*
X18537857Y-15507000D01*
X18509286Y-15464143D01*
X18495000Y-15449857D01*
X9586213Y-16074213D02*
X9586213Y-16031787D01*
X9543787Y-16031787D01*
X9543787Y-16074213D01*
X9586213Y-16074213D01*
X9923571Y-15888714D02*
X9952143Y-15888714D01*
X9980714Y-15903000D01*
X9995000Y-15917286D01*
X10009286Y-15945857D01*
X10023571Y-16003000D01*
X10023571Y-16074429D01*
X10009286Y-16131571D01*
X9995000Y-16160143D01*
X9980714Y-16174429D01*
X9952143Y-16188714D01*
X9923571Y-16188714D01*
X9895000Y-16174429D01*
X9880714Y-16160143D01*
X9866429Y-16131571D01*
X9852143Y-16074429D01*
X9852143Y-16003000D01*
X9866429Y-15945857D01*
X9880714Y-15917286D01*
X9895000Y-15903000D01*
X9923571Y-15888714D01*
X10152143Y-16160143D02*
X10166429Y-16174429D01*
X10152143Y-16188714D01*
X10137857Y-16174429D01*
X10152143Y-16160143D01*
X10152143Y-16188714D01*
X10423571Y-15888714D02*
X10366428Y-15888714D01*
X10337857Y-15903000D01*
X10323571Y-15917286D01*
X10295000Y-15960143D01*
X10280714Y-16017286D01*
X10280714Y-16131571D01*
X10295000Y-16160143D01*
X10309286Y-16174429D01*
X10337857Y-16188714D01*
X10395000Y-16188714D01*
X10423571Y-16174429D01*
X10437857Y-16160143D01*
X10452143Y-16131571D01*
X10452143Y-16060143D01*
X10437857Y-16031571D01*
X10423571Y-16017286D01*
X10395000Y-16003000D01*
X10337857Y-16003000D01*
X10309286Y-16017286D01*
X10295000Y-16031571D01*
X10280714Y-16060143D01*
X10637857Y-15888714D02*
X10666429Y-15888714D01*
X10695000Y-15903000D01*
X10709286Y-15917286D01*
X10723571Y-15945857D01*
X10737857Y-16003000D01*
X10737857Y-16074429D01*
X10723571Y-16131571D01*
X10709286Y-16160143D01*
X10695000Y-16174429D01*
X10666429Y-16188714D01*
X10637857Y-16188714D01*
X10609286Y-16174429D01*
X10595000Y-16160143D01*
X10580714Y-16131571D01*
X10566429Y-16074429D01*
X10566429Y-16003000D01*
X10580714Y-15945857D01*
X10595000Y-15917286D01*
X10609286Y-15903000D01*
X10637857Y-15888714D01*
X10866429Y-16188714D02*
X10866429Y-15988714D01*
X10866429Y-16017286D02*
X10880714Y-16003000D01*
X10909286Y-15988714D01*
X10952143Y-15988714D01*
X10980714Y-16003000D01*
X10995000Y-16031571D01*
X10995000Y-16188714D01*
X10995000Y-16031571D02*
X11009286Y-16003000D01*
X11037857Y-15988714D01*
X11080714Y-15988714D01*
X11109286Y-16003000D01*
X11123571Y-16031571D01*
X11123571Y-16188714D01*
X11266428Y-16188714D02*
X11266428Y-15988714D01*
X11266428Y-16017286D02*
X11280714Y-16003000D01*
X11309286Y-15988714D01*
X11352143Y-15988714D01*
X11380714Y-16003000D01*
X11395000Y-16031571D01*
X11395000Y-16188714D01*
X11395000Y-16031571D02*
X11409286Y-16003000D01*
X11437857Y-15988714D01*
X11480714Y-15988714D01*
X11509286Y-16003000D01*
X11523571Y-16031571D01*
X11523571Y-16188714D01*
X12109286Y-15874429D02*
X11852143Y-16260143D01*
X12495000Y-15888714D02*
X12523571Y-15888714D01*
X12552143Y-15903000D01*
X12566428Y-15917286D01*
X12580714Y-15945857D01*
X12595000Y-16003000D01*
X12595000Y-16074429D01*
X12580714Y-16131571D01*
X12566428Y-16160143D01*
X12552143Y-16174429D01*
X12523571Y-16188714D01*
X12495000Y-16188714D01*
X12466428Y-16174429D01*
X12452143Y-16160143D01*
X12437857Y-16131571D01*
X12423571Y-16074429D01*
X12423571Y-16003000D01*
X12437857Y-15945857D01*
X12452143Y-15917286D01*
X12466428Y-15903000D01*
X12495000Y-15888714D01*
X12723571Y-16160143D02*
X12737857Y-16174429D01*
X12723571Y-16188714D01*
X12709286Y-16174429D01*
X12723571Y-16160143D01*
X12723571Y-16188714D01*
X12923571Y-15888714D02*
X12952143Y-15888714D01*
X12980714Y-15903000D01*
X12995000Y-15917286D01*
X13009285Y-15945857D01*
X13023571Y-16003000D01*
X13023571Y-16074429D01*
X13009285Y-16131571D01*
X12995000Y-16160143D01*
X12980714Y-16174429D01*
X12952143Y-16188714D01*
X12923571Y-16188714D01*
X12895000Y-16174429D01*
X12880714Y-16160143D01*
X12866428Y-16131571D01*
X12852143Y-16074429D01*
X12852143Y-16003000D01*
X12866428Y-15945857D01*
X12880714Y-15917286D01*
X12895000Y-15903000D01*
X12923571Y-15888714D01*
X13137857Y-15917286D02*
X13152143Y-15903000D01*
X13180714Y-15888714D01*
X13252143Y-15888714D01*
X13280714Y-15903000D01*
X13295000Y-15917286D01*
X13309285Y-15945857D01*
X13309285Y-15974429D01*
X13295000Y-16017286D01*
X13123571Y-16188714D01*
X13309285Y-16188714D01*
X13566428Y-15988714D02*
X13566428Y-16188714D01*
X13495000Y-15874429D02*
X13423571Y-16088714D01*
X13609285Y-16088714D01*
X13709286Y-15888714D02*
X13709286Y-15945857D01*
X13823571Y-15888714D02*
X13823571Y-15945857D01*
X14266428Y-16303000D02*
X14252143Y-16288714D01*
X14223571Y-16245857D01*
X14209285Y-16217286D01*
X14195000Y-16174429D01*
X14180714Y-16103000D01*
X14180714Y-16045857D01*
X14195000Y-15974429D01*
X14209285Y-15931571D01*
X14223571Y-15903000D01*
X14252143Y-15860143D01*
X14266428Y-15845857D01*
X14437857Y-15888714D02*
X14466428Y-15888714D01*
X14495000Y-15903000D01*
X14509285Y-15917286D01*
X14523571Y-15945857D01*
X14537857Y-16003000D01*
X14537857Y-16074429D01*
X14523571Y-16131571D01*
X14509285Y-16160143D01*
X14495000Y-16174429D01*
X14466428Y-16188714D01*
X14437857Y-16188714D01*
X14409285Y-16174429D01*
X14395000Y-16160143D01*
X14380714Y-16131571D01*
X14366428Y-16074429D01*
X14366428Y-16003000D01*
X14380714Y-15945857D01*
X14395000Y-15917286D01*
X14409285Y-15903000D01*
X14437857Y-15888714D01*
X14895000Y-16188714D02*
X14895000Y-15888714D01*
X15023571Y-16188714D02*
X15023571Y-16031571D01*
X15009285Y-16003000D01*
X14980714Y-15988714D01*
X14937857Y-15988714D01*
X14909285Y-16003000D01*
X14895000Y-16017286D01*
X15209285Y-16188714D02*
X15180714Y-16174429D01*
X15166428Y-16160143D01*
X15152143Y-16131571D01*
X15152143Y-16045857D01*
X15166428Y-16017286D01*
X15180714Y-16003000D01*
X15209285Y-15988714D01*
X15252143Y-15988714D01*
X15280714Y-16003000D01*
X15295000Y-16017286D01*
X15309285Y-16045857D01*
X15309285Y-16131571D01*
X15295000Y-16160143D01*
X15280714Y-16174429D01*
X15252143Y-16188714D01*
X15209285Y-16188714D01*
X15480714Y-16188714D02*
X15452143Y-16174429D01*
X15437857Y-16145857D01*
X15437857Y-15888714D01*
X15709286Y-16174429D02*
X15680714Y-16188714D01*
X15623571Y-16188714D01*
X15595000Y-16174429D01*
X15580714Y-16145857D01*
X15580714Y-16031571D01*
X15595000Y-16003000D01*
X15623571Y-15988714D01*
X15680714Y-15988714D01*
X15709286Y-16003000D01*
X15723571Y-16031571D01*
X15723571Y-16060143D01*
X15580714Y-16088714D01*
X15837857Y-16174429D02*
X15866428Y-16188714D01*
X15923571Y-16188714D01*
X15952143Y-16174429D01*
X15966428Y-16145857D01*
X15966428Y-16131571D01*
X15952143Y-16103000D01*
X15923571Y-16088714D01*
X15880714Y-16088714D01*
X15852143Y-16074429D01*
X15837857Y-16045857D01*
X15837857Y-16031571D01*
X15852143Y-16003000D01*
X15880714Y-15988714D01*
X15923571Y-15988714D01*
X15952143Y-16003000D01*
X16323571Y-16074429D02*
X16552143Y-16074429D01*
X16437857Y-16188714D02*
X16437857Y-15960143D01*
X16909286Y-15917286D02*
X16923571Y-15903000D01*
X16952143Y-15888714D01*
X17023571Y-15888714D01*
X17052143Y-15903000D01*
X17066428Y-15917286D01*
X17080714Y-15945857D01*
X17080714Y-15974429D01*
X17066428Y-16017286D01*
X16895000Y-16188714D01*
X17080714Y-16188714D01*
X17423571Y-16174429D02*
X17452143Y-16188714D01*
X17509286Y-16188714D01*
X17537857Y-16174429D01*
X17552143Y-16145857D01*
X17552143Y-16131571D01*
X17537857Y-16103000D01*
X17509286Y-16088714D01*
X17466428Y-16088714D01*
X17437857Y-16074429D01*
X17423571Y-16045857D01*
X17423571Y-16031571D01*
X17437857Y-16003000D01*
X17466428Y-15988714D01*
X17509286Y-15988714D01*
X17537857Y-16003000D01*
X17723571Y-16188714D02*
X17695000Y-16174429D01*
X17680714Y-16145857D01*
X17680714Y-15888714D01*
X17880714Y-16188714D02*
X17852143Y-16174429D01*
X17837857Y-16160143D01*
X17823571Y-16131571D01*
X17823571Y-16045857D01*
X17837857Y-16017286D01*
X17852143Y-16003000D01*
X17880714Y-15988714D01*
X17923571Y-15988714D01*
X17952143Y-16003000D01*
X17966428Y-16017286D01*
X17980714Y-16045857D01*
X17980714Y-16131571D01*
X17966428Y-16160143D01*
X17952143Y-16174429D01*
X17923571Y-16188714D01*
X17880714Y-16188714D01*
X18066428Y-15988714D02*
X18180714Y-15988714D01*
X18109286Y-15888714D02*
X18109286Y-16145857D01*
X18123571Y-16174429D01*
X18152143Y-16188714D01*
X18180714Y-16188714D01*
X18266429Y-16174429D02*
X18295000Y-16188714D01*
X18352143Y-16188714D01*
X18380714Y-16174429D01*
X18395000Y-16145857D01*
X18395000Y-16131571D01*
X18380714Y-16103000D01*
X18352143Y-16088714D01*
X18309286Y-16088714D01*
X18280714Y-16074429D01*
X18266429Y-16045857D01*
X18266429Y-16031571D01*
X18280714Y-16003000D01*
X18309286Y-15988714D01*
X18352143Y-15988714D01*
X18380714Y-16003000D01*
X18495000Y-16303000D02*
X18509286Y-16288714D01*
X18537857Y-16245857D01*
X18552143Y-16217286D01*
X18566428Y-16174429D01*
X18580714Y-16103000D01*
X18580714Y-16045857D01*
X18566428Y-15974429D01*
X18552143Y-15931571D01*
X18537857Y-15903000D01*
X18509286Y-15860143D01*
X18495000Y-15845857D01*
X9552500Y-16491500D02*
X9595000Y-16449000D01*
X9552500Y-16406500D01*
X9510000Y-16449000D01*
X9552500Y-16491500D01*
X9923571Y-16284714D02*
X9952143Y-16284714D01*
X9980714Y-16299000D01*
X9995000Y-16313286D01*
X10009286Y-16341857D01*
X10023571Y-16399000D01*
X10023571Y-16470429D01*
X10009286Y-16527571D01*
X9995000Y-16556143D01*
X9980714Y-16570429D01*
X9952143Y-16584714D01*
X9923571Y-16584714D01*
X9895000Y-16570429D01*
X9880714Y-16556143D01*
X9866429Y-16527571D01*
X9852143Y-16470429D01*
X9852143Y-16399000D01*
X9866429Y-16341857D01*
X9880714Y-16313286D01*
X9895000Y-16299000D01*
X9923571Y-16284714D01*
X10152143Y-16556143D02*
X10166429Y-16570429D01*
X10152143Y-16584714D01*
X10137857Y-16570429D01*
X10152143Y-16556143D01*
X10152143Y-16584714D01*
X10337857Y-16413286D02*
X10309286Y-16399000D01*
X10295000Y-16384714D01*
X10280714Y-16356143D01*
X10280714Y-16341857D01*
X10295000Y-16313286D01*
X10309286Y-16299000D01*
X10337857Y-16284714D01*
X10395000Y-16284714D01*
X10423571Y-16299000D01*
X10437857Y-16313286D01*
X10452143Y-16341857D01*
X10452143Y-16356143D01*
X10437857Y-16384714D01*
X10423571Y-16399000D01*
X10395000Y-16413286D01*
X10337857Y-16413286D01*
X10309286Y-16427571D01*
X10295000Y-16441857D01*
X10280714Y-16470429D01*
X10280714Y-16527571D01*
X10295000Y-16556143D01*
X10309286Y-16570429D01*
X10337857Y-16584714D01*
X10395000Y-16584714D01*
X10423571Y-16570429D01*
X10437857Y-16556143D01*
X10452143Y-16527571D01*
X10452143Y-16470429D01*
X10437857Y-16441857D01*
X10423571Y-16427571D01*
X10395000Y-16413286D01*
X10723571Y-16284714D02*
X10580714Y-16284714D01*
X10566429Y-16427571D01*
X10580714Y-16413286D01*
X10609286Y-16399000D01*
X10680714Y-16399000D01*
X10709286Y-16413286D01*
X10723571Y-16427571D01*
X10737857Y-16456143D01*
X10737857Y-16527571D01*
X10723571Y-16556143D01*
X10709286Y-16570429D01*
X10680714Y-16584714D01*
X10609286Y-16584714D01*
X10580714Y-16570429D01*
X10566429Y-16556143D01*
X10866429Y-16584714D02*
X10866429Y-16384714D01*
X10866429Y-16413286D02*
X10880714Y-16399000D01*
X10909286Y-16384714D01*
X10952143Y-16384714D01*
X10980714Y-16399000D01*
X10995000Y-16427571D01*
X10995000Y-16584714D01*
X10995000Y-16427571D02*
X11009286Y-16399000D01*
X11037857Y-16384714D01*
X11080714Y-16384714D01*
X11109286Y-16399000D01*
X11123571Y-16427571D01*
X11123571Y-16584714D01*
X11266428Y-16584714D02*
X11266428Y-16384714D01*
X11266428Y-16413286D02*
X11280714Y-16399000D01*
X11309286Y-16384714D01*
X11352143Y-16384714D01*
X11380714Y-16399000D01*
X11395000Y-16427571D01*
X11395000Y-16584714D01*
X11395000Y-16427571D02*
X11409286Y-16399000D01*
X11437857Y-16384714D01*
X11480714Y-16384714D01*
X11509286Y-16399000D01*
X11523571Y-16427571D01*
X11523571Y-16584714D01*
X12109286Y-16270429D02*
X11852143Y-16656143D01*
X12495000Y-16284714D02*
X12523571Y-16284714D01*
X12552143Y-16299000D01*
X12566428Y-16313286D01*
X12580714Y-16341857D01*
X12595000Y-16399000D01*
X12595000Y-16470429D01*
X12580714Y-16527571D01*
X12566428Y-16556143D01*
X12552143Y-16570429D01*
X12523571Y-16584714D01*
X12495000Y-16584714D01*
X12466428Y-16570429D01*
X12452143Y-16556143D01*
X12437857Y-16527571D01*
X12423571Y-16470429D01*
X12423571Y-16399000D01*
X12437857Y-16341857D01*
X12452143Y-16313286D01*
X12466428Y-16299000D01*
X12495000Y-16284714D01*
X12723571Y-16556143D02*
X12737857Y-16570429D01*
X12723571Y-16584714D01*
X12709286Y-16570429D01*
X12723571Y-16556143D01*
X12723571Y-16584714D01*
X12923571Y-16284714D02*
X12952143Y-16284714D01*
X12980714Y-16299000D01*
X12995000Y-16313286D01*
X13009285Y-16341857D01*
X13023571Y-16399000D01*
X13023571Y-16470429D01*
X13009285Y-16527571D01*
X12995000Y-16556143D01*
X12980714Y-16570429D01*
X12952143Y-16584714D01*
X12923571Y-16584714D01*
X12895000Y-16570429D01*
X12880714Y-16556143D01*
X12866428Y-16527571D01*
X12852143Y-16470429D01*
X12852143Y-16399000D01*
X12866428Y-16341857D01*
X12880714Y-16313286D01*
X12895000Y-16299000D01*
X12923571Y-16284714D01*
X13123571Y-16284714D02*
X13309285Y-16284714D01*
X13209285Y-16399000D01*
X13252143Y-16399000D01*
X13280714Y-16413286D01*
X13295000Y-16427571D01*
X13309285Y-16456143D01*
X13309285Y-16527571D01*
X13295000Y-16556143D01*
X13280714Y-16570429D01*
X13252143Y-16584714D01*
X13166428Y-16584714D01*
X13137857Y-16570429D01*
X13123571Y-16556143D01*
X13409285Y-16284714D02*
X13595000Y-16284714D01*
X13495000Y-16399000D01*
X13537857Y-16399000D01*
X13566428Y-16413286D01*
X13580714Y-16427571D01*
X13595000Y-16456143D01*
X13595000Y-16527571D01*
X13580714Y-16556143D01*
X13566428Y-16570429D01*
X13537857Y-16584714D01*
X13452143Y-16584714D01*
X13423571Y-16570429D01*
X13409285Y-16556143D01*
X13709286Y-16284714D02*
X13709286Y-16341857D01*
X13823571Y-16284714D02*
X13823571Y-16341857D01*
X14266428Y-16699000D02*
X14252143Y-16684714D01*
X14223571Y-16641857D01*
X14209285Y-16613286D01*
X14195000Y-16570429D01*
X14180714Y-16499000D01*
X14180714Y-16441857D01*
X14195000Y-16370429D01*
X14209285Y-16327571D01*
X14223571Y-16299000D01*
X14252143Y-16256143D01*
X14266428Y-16241857D01*
X14366428Y-16313286D02*
X14380714Y-16299000D01*
X14409285Y-16284714D01*
X14480714Y-16284714D01*
X14509285Y-16299000D01*
X14523571Y-16313286D01*
X14537857Y-16341857D01*
X14537857Y-16370429D01*
X14523571Y-16413286D01*
X14352143Y-16584714D01*
X14537857Y-16584714D01*
X14895000Y-16584714D02*
X14895000Y-16284714D01*
X15023571Y-16584714D02*
X15023571Y-16427571D01*
X15009285Y-16399000D01*
X14980714Y-16384714D01*
X14937857Y-16384714D01*
X14909285Y-16399000D01*
X14895000Y-16413286D01*
X15209285Y-16584714D02*
X15180714Y-16570429D01*
X15166428Y-16556143D01*
X15152143Y-16527571D01*
X15152143Y-16441857D01*
X15166428Y-16413286D01*
X15180714Y-16399000D01*
X15209285Y-16384714D01*
X15252143Y-16384714D01*
X15280714Y-16399000D01*
X15295000Y-16413286D01*
X15309285Y-16441857D01*
X15309285Y-16527571D01*
X15295000Y-16556143D01*
X15280714Y-16570429D01*
X15252143Y-16584714D01*
X15209285Y-16584714D01*
X15480714Y-16584714D02*
X15452143Y-16570429D01*
X15437857Y-16541857D01*
X15437857Y-16284714D01*
X15709286Y-16570429D02*
X15680714Y-16584714D01*
X15623571Y-16584714D01*
X15595000Y-16570429D01*
X15580714Y-16541857D01*
X15580714Y-16427571D01*
X15595000Y-16399000D01*
X15623571Y-16384714D01*
X15680714Y-16384714D01*
X15709286Y-16399000D01*
X15723571Y-16427571D01*
X15723571Y-16456143D01*
X15580714Y-16484714D01*
X15837857Y-16570429D02*
X15866428Y-16584714D01*
X15923571Y-16584714D01*
X15952143Y-16570429D01*
X15966428Y-16541857D01*
X15966428Y-16527571D01*
X15952143Y-16499000D01*
X15923571Y-16484714D01*
X15880714Y-16484714D01*
X15852143Y-16470429D01*
X15837857Y-16441857D01*
X15837857Y-16427571D01*
X15852143Y-16399000D01*
X15880714Y-16384714D01*
X15923571Y-16384714D01*
X15952143Y-16399000D01*
X16066428Y-16699000D02*
X16080714Y-16684714D01*
X16109286Y-16641857D01*
X16123571Y-16613286D01*
X16137857Y-16570429D01*
X16152143Y-16499000D01*
X16152143Y-16441857D01*
X16137857Y-16370429D01*
X16123571Y-16327571D01*
X16109286Y-16299000D01*
X16080714Y-16256143D01*
X16066428Y-16241857D01*
X9495000Y-16795000D02*
X9595000Y-16895000D01*
X9595000Y-16795000D02*
X9495000Y-16895000D01*
X9595000Y-16845000D02*
G75*
G03X9595000Y-16845000I-50000J0D01*
G01*
X10023571Y-16980714D02*
X9852143Y-16980714D01*
X9937857Y-16980714D02*
X9937857Y-16680714D01*
X9909286Y-16723571D01*
X9880714Y-16752143D01*
X9852143Y-16766429D01*
X10152143Y-16952143D02*
X10166429Y-16966429D01*
X10152143Y-16980714D01*
X10137857Y-16966429D01*
X10152143Y-16952143D01*
X10152143Y-16980714D01*
X10352143Y-16680714D02*
X10380714Y-16680714D01*
X10409286Y-16695000D01*
X10423571Y-16709286D01*
X10437857Y-16737857D01*
X10452143Y-16795000D01*
X10452143Y-16866429D01*
X10437857Y-16923572D01*
X10423571Y-16952143D01*
X10409286Y-16966429D01*
X10380714Y-16980714D01*
X10352143Y-16980714D01*
X10323571Y-16966429D01*
X10309286Y-16952143D01*
X10295000Y-16923572D01*
X10280714Y-16866429D01*
X10280714Y-16795000D01*
X10295000Y-16737857D01*
X10309286Y-16709286D01*
X10323571Y-16695000D01*
X10352143Y-16680714D01*
X10637857Y-16680714D02*
X10666429Y-16680714D01*
X10695000Y-16695000D01*
X10709286Y-16709286D01*
X10723571Y-16737857D01*
X10737857Y-16795000D01*
X10737857Y-16866429D01*
X10723571Y-16923572D01*
X10709286Y-16952143D01*
X10695000Y-16966429D01*
X10666429Y-16980714D01*
X10637857Y-16980714D01*
X10609286Y-16966429D01*
X10595000Y-16952143D01*
X10580714Y-16923572D01*
X10566429Y-16866429D01*
X10566429Y-16795000D01*
X10580714Y-16737857D01*
X10595000Y-16709286D01*
X10609286Y-16695000D01*
X10637857Y-16680714D01*
X10866429Y-16980714D02*
X10866429Y-16780714D01*
X10866429Y-16809286D02*
X10880714Y-16795000D01*
X10909286Y-16780714D01*
X10952143Y-16780714D01*
X10980714Y-16795000D01*
X10995000Y-16823572D01*
X10995000Y-16980714D01*
X10995000Y-16823572D02*
X11009286Y-16795000D01*
X11037857Y-16780714D01*
X11080714Y-16780714D01*
X11109286Y-16795000D01*
X11123571Y-16823572D01*
X11123571Y-16980714D01*
X11266428Y-16980714D02*
X11266428Y-16780714D01*
X11266428Y-16809286D02*
X11280714Y-16795000D01*
X11309286Y-16780714D01*
X11352143Y-16780714D01*
X11380714Y-16795000D01*
X11395000Y-16823572D01*
X11395000Y-16980714D01*
X11395000Y-16823572D02*
X11409286Y-16795000D01*
X11437857Y-16780714D01*
X11480714Y-16780714D01*
X11509286Y-16795000D01*
X11523571Y-16823572D01*
X11523571Y-16980714D01*
X12109286Y-16666429D02*
X11852143Y-17052143D01*
X12495000Y-16680714D02*
X12523571Y-16680714D01*
X12552143Y-16695000D01*
X12566428Y-16709286D01*
X12580714Y-16737857D01*
X12595000Y-16795000D01*
X12595000Y-16866429D01*
X12580714Y-16923572D01*
X12566428Y-16952143D01*
X12552143Y-16966429D01*
X12523571Y-16980714D01*
X12495000Y-16980714D01*
X12466428Y-16966429D01*
X12452143Y-16952143D01*
X12437857Y-16923572D01*
X12423571Y-16866429D01*
X12423571Y-16795000D01*
X12437857Y-16737857D01*
X12452143Y-16709286D01*
X12466428Y-16695000D01*
X12495000Y-16680714D01*
X12723571Y-16952143D02*
X12737857Y-16966429D01*
X12723571Y-16980714D01*
X12709286Y-16966429D01*
X12723571Y-16952143D01*
X12723571Y-16980714D01*
X12923571Y-16680714D02*
X12952143Y-16680714D01*
X12980714Y-16695000D01*
X12995000Y-16709286D01*
X13009285Y-16737857D01*
X13023571Y-16795000D01*
X13023571Y-16866429D01*
X13009285Y-16923572D01*
X12995000Y-16952143D01*
X12980714Y-16966429D01*
X12952143Y-16980714D01*
X12923571Y-16980714D01*
X12895000Y-16966429D01*
X12880714Y-16952143D01*
X12866428Y-16923572D01*
X12852143Y-16866429D01*
X12852143Y-16795000D01*
X12866428Y-16737857D01*
X12880714Y-16709286D01*
X12895000Y-16695000D01*
X12923571Y-16680714D01*
X13123571Y-16680714D02*
X13309285Y-16680714D01*
X13209285Y-16795000D01*
X13252143Y-16795000D01*
X13280714Y-16809286D01*
X13295000Y-16823572D01*
X13309285Y-16852143D01*
X13309285Y-16923572D01*
X13295000Y-16952143D01*
X13280714Y-16966429D01*
X13252143Y-16980714D01*
X13166428Y-16980714D01*
X13137857Y-16966429D01*
X13123571Y-16952143D01*
X13452143Y-16980714D02*
X13509285Y-16980714D01*
X13537857Y-16966429D01*
X13552143Y-16952143D01*
X13580714Y-16909286D01*
X13595000Y-16852143D01*
X13595000Y-16737857D01*
X13580714Y-16709286D01*
X13566428Y-16695000D01*
X13537857Y-16680714D01*
X13480714Y-16680714D01*
X13452143Y-16695000D01*
X13437857Y-16709286D01*
X13423571Y-16737857D01*
X13423571Y-16809286D01*
X13437857Y-16837857D01*
X13452143Y-16852143D01*
X13480714Y-16866429D01*
X13537857Y-16866429D01*
X13566428Y-16852143D01*
X13580714Y-16837857D01*
X13595000Y-16809286D01*
X13709286Y-16680714D02*
X13709286Y-16737857D01*
X13823571Y-16680714D02*
X13823571Y-16737857D01*
X14266428Y-17095000D02*
X14252143Y-17080714D01*
X14223571Y-17037857D01*
X14209285Y-17009286D01*
X14195000Y-16966429D01*
X14180714Y-16895000D01*
X14180714Y-16837857D01*
X14195000Y-16766429D01*
X14209285Y-16723571D01*
X14223571Y-16695000D01*
X14252143Y-16652143D01*
X14266428Y-16637857D01*
X14423571Y-16809286D02*
X14395000Y-16795000D01*
X14380714Y-16780714D01*
X14366428Y-16752143D01*
X14366428Y-16737857D01*
X14380714Y-16709286D01*
X14395000Y-16695000D01*
X14423571Y-16680714D01*
X14480714Y-16680714D01*
X14509285Y-16695000D01*
X14523571Y-16709286D01*
X14537857Y-16737857D01*
X14537857Y-16752143D01*
X14523571Y-16780714D01*
X14509285Y-16795000D01*
X14480714Y-16809286D01*
X14423571Y-16809286D01*
X14395000Y-16823572D01*
X14380714Y-16837857D01*
X14366428Y-16866429D01*
X14366428Y-16923572D01*
X14380714Y-16952143D01*
X14395000Y-16966429D01*
X14423571Y-16980714D01*
X14480714Y-16980714D01*
X14509285Y-16966429D01*
X14523571Y-16952143D01*
X14537857Y-16923572D01*
X14537857Y-16866429D01*
X14523571Y-16837857D01*
X14509285Y-16823572D01*
X14480714Y-16809286D01*
X14895000Y-16980714D02*
X14895000Y-16680714D01*
X15023571Y-16980714D02*
X15023571Y-16823572D01*
X15009285Y-16795000D01*
X14980714Y-16780714D01*
X14937857Y-16780714D01*
X14909285Y-16795000D01*
X14895000Y-16809286D01*
X15209285Y-16980714D02*
X15180714Y-16966429D01*
X15166428Y-16952143D01*
X15152143Y-16923572D01*
X15152143Y-16837857D01*
X15166428Y-16809286D01*
X15180714Y-16795000D01*
X15209285Y-16780714D01*
X15252143Y-16780714D01*
X15280714Y-16795000D01*
X15295000Y-16809286D01*
X15309285Y-16837857D01*
X15309285Y-16923572D01*
X15295000Y-16952143D01*
X15280714Y-16966429D01*
X15252143Y-16980714D01*
X15209285Y-16980714D01*
X15480714Y-16980714D02*
X15452143Y-16966429D01*
X15437857Y-16937857D01*
X15437857Y-16680714D01*
X15709286Y-16966429D02*
X15680714Y-16980714D01*
X15623571Y-16980714D01*
X15595000Y-16966429D01*
X15580714Y-16937857D01*
X15580714Y-16823572D01*
X15595000Y-16795000D01*
X15623571Y-16780714D01*
X15680714Y-16780714D01*
X15709286Y-16795000D01*
X15723571Y-16823572D01*
X15723571Y-16852143D01*
X15580714Y-16880714D01*
X15837857Y-16966429D02*
X15866428Y-16980714D01*
X15923571Y-16980714D01*
X15952143Y-16966429D01*
X15966428Y-16937857D01*
X15966428Y-16923572D01*
X15952143Y-16895000D01*
X15923571Y-16880714D01*
X15880714Y-16880714D01*
X15852143Y-16866429D01*
X15837857Y-16837857D01*
X15837857Y-16823572D01*
X15852143Y-16795000D01*
X15880714Y-16780714D01*
X15923571Y-16780714D01*
X15952143Y-16795000D01*
X16066428Y-17095000D02*
X16080714Y-17080714D01*
X16109286Y-17037857D01*
X16123571Y-17009286D01*
X16137857Y-16966429D01*
X16152143Y-16895000D01*
X16152143Y-16837857D01*
X16137857Y-16766429D01*
X16123571Y-16723571D01*
X16109286Y-16695000D01*
X16080714Y-16652143D01*
X16066428Y-16637857D01*
X9245000Y-17066000D02*
X9595000Y-17416000D01*
X9595000Y-17066000D02*
X9245000Y-17416000D01*
X9420000Y-17066000D02*
X9420000Y-17416000D01*
X9245000Y-17241000D02*
X9595000Y-17241000D01*
X9837857Y-17076714D02*
X10023571Y-17076714D01*
X9923571Y-17191000D01*
X9966429Y-17191000D01*
X9995000Y-17205286D01*
X10009286Y-17219572D01*
X10023571Y-17248143D01*
X10023571Y-17319572D01*
X10009286Y-17348143D01*
X9995000Y-17362429D01*
X9966429Y-17376714D01*
X9880714Y-17376714D01*
X9852143Y-17362429D01*
X9837857Y-17348143D01*
X10152143Y-17348143D02*
X10166429Y-17362429D01*
X10152143Y-17376714D01*
X10137857Y-17362429D01*
X10152143Y-17348143D01*
X10152143Y-17376714D01*
X10437857Y-17076714D02*
X10295000Y-17076714D01*
X10280714Y-17219572D01*
X10295000Y-17205286D01*
X10323571Y-17191000D01*
X10395000Y-17191000D01*
X10423571Y-17205286D01*
X10437857Y-17219572D01*
X10452143Y-17248143D01*
X10452143Y-17319572D01*
X10437857Y-17348143D01*
X10423571Y-17362429D01*
X10395000Y-17376714D01*
X10323571Y-17376714D01*
X10295000Y-17362429D01*
X10280714Y-17348143D01*
X10637857Y-17076714D02*
X10666429Y-17076714D01*
X10695000Y-17091000D01*
X10709286Y-17105286D01*
X10723571Y-17133857D01*
X10737857Y-17191000D01*
X10737857Y-17262429D01*
X10723571Y-17319572D01*
X10709286Y-17348143D01*
X10695000Y-17362429D01*
X10666429Y-17376714D01*
X10637857Y-17376714D01*
X10609286Y-17362429D01*
X10595000Y-17348143D01*
X10580714Y-17319572D01*
X10566429Y-17262429D01*
X10566429Y-17191000D01*
X10580714Y-17133857D01*
X10595000Y-17105286D01*
X10609286Y-17091000D01*
X10637857Y-17076714D01*
X10866429Y-17376714D02*
X10866429Y-17176714D01*
X10866429Y-17205286D02*
X10880714Y-17191000D01*
X10909286Y-17176714D01*
X10952143Y-17176714D01*
X10980714Y-17191000D01*
X10995000Y-17219572D01*
X10995000Y-17376714D01*
X10995000Y-17219572D02*
X11009286Y-17191000D01*
X11037857Y-17176714D01*
X11080714Y-17176714D01*
X11109286Y-17191000D01*
X11123571Y-17219572D01*
X11123571Y-17376714D01*
X11266428Y-17376714D02*
X11266428Y-17176714D01*
X11266428Y-17205286D02*
X11280714Y-17191000D01*
X11309286Y-17176714D01*
X11352143Y-17176714D01*
X11380714Y-17191000D01*
X11395000Y-17219572D01*
X11395000Y-17376714D01*
X11395000Y-17219572D02*
X11409286Y-17191000D01*
X11437857Y-17176714D01*
X11480714Y-17176714D01*
X11509286Y-17191000D01*
X11523571Y-17219572D01*
X11523571Y-17376714D01*
X12109286Y-17062429D02*
X11852143Y-17448143D01*
X12495000Y-17076714D02*
X12523571Y-17076714D01*
X12552143Y-17091000D01*
X12566428Y-17105286D01*
X12580714Y-17133857D01*
X12595000Y-17191000D01*
X12595000Y-17262429D01*
X12580714Y-17319572D01*
X12566428Y-17348143D01*
X12552143Y-17362429D01*
X12523571Y-17376714D01*
X12495000Y-17376714D01*
X12466428Y-17362429D01*
X12452143Y-17348143D01*
X12437857Y-17319572D01*
X12423571Y-17262429D01*
X12423571Y-17191000D01*
X12437857Y-17133857D01*
X12452143Y-17105286D01*
X12466428Y-17091000D01*
X12495000Y-17076714D01*
X12723571Y-17348143D02*
X12737857Y-17362429D01*
X12723571Y-17376714D01*
X12709286Y-17362429D01*
X12723571Y-17348143D01*
X12723571Y-17376714D01*
X13023571Y-17376714D02*
X12852143Y-17376714D01*
X12937857Y-17376714D02*
X12937857Y-17076714D01*
X12909285Y-17119572D01*
X12880714Y-17148143D01*
X12852143Y-17162429D01*
X13123571Y-17076714D02*
X13309285Y-17076714D01*
X13209285Y-17191000D01*
X13252143Y-17191000D01*
X13280714Y-17205286D01*
X13295000Y-17219572D01*
X13309285Y-17248143D01*
X13309285Y-17319572D01*
X13295000Y-17348143D01*
X13280714Y-17362429D01*
X13252143Y-17376714D01*
X13166428Y-17376714D01*
X13137857Y-17362429D01*
X13123571Y-17348143D01*
X13480714Y-17205286D02*
X13452143Y-17191000D01*
X13437857Y-17176714D01*
X13423571Y-17148143D01*
X13423571Y-17133857D01*
X13437857Y-17105286D01*
X13452143Y-17091000D01*
X13480714Y-17076714D01*
X13537857Y-17076714D01*
X13566428Y-17091000D01*
X13580714Y-17105286D01*
X13595000Y-17133857D01*
X13595000Y-17148143D01*
X13580714Y-17176714D01*
X13566428Y-17191000D01*
X13537857Y-17205286D01*
X13480714Y-17205286D01*
X13452143Y-17219572D01*
X13437857Y-17233857D01*
X13423571Y-17262429D01*
X13423571Y-17319572D01*
X13437857Y-17348143D01*
X13452143Y-17362429D01*
X13480714Y-17376714D01*
X13537857Y-17376714D01*
X13566428Y-17362429D01*
X13580714Y-17348143D01*
X13595000Y-17319572D01*
X13595000Y-17262429D01*
X13580714Y-17233857D01*
X13566428Y-17219572D01*
X13537857Y-17205286D01*
X13709286Y-17076714D02*
X13709286Y-17133857D01*
X13823571Y-17076714D02*
X13823571Y-17133857D01*
X14266428Y-17491000D02*
X14252143Y-17476714D01*
X14223571Y-17433857D01*
X14209285Y-17405286D01*
X14195000Y-17362429D01*
X14180714Y-17291000D01*
X14180714Y-17233857D01*
X14195000Y-17162429D01*
X14209285Y-17119572D01*
X14223571Y-17091000D01*
X14252143Y-17048143D01*
X14266428Y-17033857D01*
X14509285Y-17176714D02*
X14509285Y-17376714D01*
X14437857Y-17062429D02*
X14366428Y-17276714D01*
X14552143Y-17276714D01*
X14895000Y-17376714D02*
X14895000Y-17076714D01*
X15023571Y-17376714D02*
X15023571Y-17219572D01*
X15009285Y-17191000D01*
X14980714Y-17176714D01*
X14937857Y-17176714D01*
X14909285Y-17191000D01*
X14895000Y-17205286D01*
X15209285Y-17376714D02*
X15180714Y-17362429D01*
X15166428Y-17348143D01*
X15152143Y-17319572D01*
X15152143Y-17233857D01*
X15166428Y-17205286D01*
X15180714Y-17191000D01*
X15209285Y-17176714D01*
X15252143Y-17176714D01*
X15280714Y-17191000D01*
X15295000Y-17205286D01*
X15309285Y-17233857D01*
X15309285Y-17319572D01*
X15295000Y-17348143D01*
X15280714Y-17362429D01*
X15252143Y-17376714D01*
X15209285Y-17376714D01*
X15480714Y-17376714D02*
X15452143Y-17362429D01*
X15437857Y-17333857D01*
X15437857Y-17076714D01*
X15709286Y-17362429D02*
X15680714Y-17376714D01*
X15623571Y-17376714D01*
X15595000Y-17362429D01*
X15580714Y-17333857D01*
X15580714Y-17219572D01*
X15595000Y-17191000D01*
X15623571Y-17176714D01*
X15680714Y-17176714D01*
X15709286Y-17191000D01*
X15723571Y-17219572D01*
X15723571Y-17248143D01*
X15580714Y-17276714D01*
X15837857Y-17362429D02*
X15866428Y-17376714D01*
X15923571Y-17376714D01*
X15952143Y-17362429D01*
X15966428Y-17333857D01*
X15966428Y-17319572D01*
X15952143Y-17291000D01*
X15923571Y-17276714D01*
X15880714Y-17276714D01*
X15852143Y-17262429D01*
X15837857Y-17233857D01*
X15837857Y-17219572D01*
X15852143Y-17191000D01*
X15880714Y-17176714D01*
X15923571Y-17176714D01*
X15952143Y-17191000D01*
X16066428Y-17491000D02*
X16080714Y-17476714D01*
X16109286Y-17433857D01*
X16123571Y-17405286D01*
X16137857Y-17362429D01*
X16152143Y-17291000D01*
X16152143Y-17233857D01*
X16137857Y-17162429D01*
X16123571Y-17119572D01*
X16109286Y-17091000D01*
X16080714Y-17048143D01*
X16066428Y-17033857D01*
M02*
